<?xml version="1.0" standalone="no"?>
<!DOCTYPE svg PUBLIC "-//W3C//DTD SVG 1.1//EN" "http://www.w3.org/Graphics/SVG/1.1/DTD/svg11.dtd" >
<svg xmlns="http://www.w3.org/2000/svg" xmlns:xlink="http://www.w3.org/1999/xlink" version="1.1">
<metadata>
Created by FontForge 20170731 at Fri Nov 20 17:46:47 2020
 By Aleksey,,,
Copyright (c) 2015-2019 by Typetype. Designers Yulia Gonina and Ivan Gladkikh, technical designers Kseniya Karataeva, Anna Tikhonova, Nadyr Rakhimov, Maria Mizeritskaya. New remastered version created in 2019 by Yulia Gonina. All rights reserved. |DCNT
</metadata>
<defs>
<font id="TTChocolates-ExtraLight" horiz-adv-x="1034" >
  <font-face 
    font-family="TT Chocolates ExtraLight"
    font-weight="265"
    font-stretch="normal"
    units-per-em="2048"
    panose-1="2 0 5 3 3 0 0 2 0 3"
    ascent="1638"
    descent="-410"
    x-height="942"
    cap-height="1372"
    bbox="-850 -514 2945 1964"
    underline-thickness="40"
    underline-position="-347"
    unicode-range="U+000D-FB06"
  />
<missing-glyph horiz-adv-x="0" 
 />
    <glyph glyph-name="ff" unicode="ff" horiz-adv-x="1114" 
d="M236 872h-144v70h144v252q0 123 58 191.5t161 68.5q107 0 184 -86l-49 -53q-57 69 -137 69q-68 0 -105 -49t-37 -141v-252h430v252q0 123 58.5 191.5t161.5 68.5q107 0 184 -86l-49 -53q-57 69 -138 69q-68 0 -104.5 -49t-36.5 -141v-252h279v-70h-279v-872h-76v872h-430
v-872h-75v872z" />
    <glyph glyph-name="fi" unicode="fi" horiz-adv-x="940" 
d="M236 872h-144v70h144v191q0 143 83 232t218 89q145 0 245 -106l-51 -60q-35 44 -88 69t-113 25q-98 0 -158.5 -68.5t-60.5 -180.5v-191h486v-942h-76v872h-410v-872h-75v872z" />
    <glyph glyph-name="fl" unicode="fl" horiz-adv-x="960" 
d="M236 872h-144v70h144v191q0 143 78 232t202 89q125 0 203 -89.5t78 -231.5v-1133h-76v1133q0 112 -56.5 180.5t-148.5 68.5t-148.5 -68.5t-56.5 -180.5v-191h246v-70h-246v-872h-75v872z" />
    <glyph glyph-name="ffi" unicode="ffi" horiz-adv-x="1445" 
d="M236 872h-144v70h144v252q0 123 58 191.5t161 68.5q107 0 184 -86l-49 -53q-57 69 -137 69q-68 0 -105 -49t-37 -141v-252h430v191q0 143 83 232t218 89q146 0 246 -106l-51 -60q-35 44 -88 69t-113 25q-98 0 -158.5 -68.5t-60.5 -180.5v-191h486v-942h-76v872h-410v-872
h-76v872h-430v-872h-75v872z" />
    <glyph glyph-name="ffl" unicode="ffl" horiz-adv-x="1445" 
d="M236 872h-144v70h144v252q0 123 58 191.5t161 68.5q107 0 184 -86l-49 -53q-57 69 -137 69q-68 0 -105 -49t-37 -141v-252h410v191q0 143 78 232t202 89q125 0 203 -89.5t78 -231.5v-1133h-76v1133q0 112 -56.5 180.5t-148.5 68.5t-148 -68t-56 -181v-191h245v-70h-245
v-872h-76v872h-410v-872h-75v872z" />
    <glyph glyph-name="f_f_j" unicode="ffj" horiz-adv-x="1445" 
d="M1112 -512q-85 0 -147 72l49 53q44 -55 100 -55q54 0 83.5 40.5t29.5 118.5v1155h-410v-872h-76v872h-430v-872h-75v872h-144v70h144v252q0 123 58 191.5t161 68.5q107 0 184 -86l-49 -53q-57 69 -137 69q-68 0 -105 -49t-37 -141v-252h430v191q0 143 83 232t218 89
q146 0 246 -106l-51 -60q-35 44 -88 69t-113 25q-98 0 -158.5 -68.5t-60.5 -180.5v-191h486v-1223q0 -110 -50 -170.5t-141 -60.5z" />
    <glyph glyph-name="f_j" unicode="fj" horiz-adv-x="940" 
d="M606 -512q-85 0 -147 72l49 53q44 -55 100 -55q54 0 83.5 40.5t29.5 118.5v1155h-410v-872h-75v872h-144v70h144v191q0 143 83 232t218 89q145 0 245 -106l-51 -60q-35 44 -88 69t-113 25q-98 0 -158.5 -68.5t-60.5 -180.5v-191h486v-1223q0 -110 -50 -170.5t-141 -60.5z
" />
    <glyph glyph-name=".notdef" horiz-adv-x="0" 
 />
    <glyph glyph-name=".null" horiz-adv-x="0" 
 />
    <glyph glyph-name="nonmarkingreturn" horiz-adv-x="682" 
 />
    <glyph glyph-name="NULL" horiz-adv-x="0" 
 />
    <glyph glyph-name="NULL" horiz-adv-x="0" 
 />
    <glyph glyph-name="CR" unicode="&#xd;" horiz-adv-x="0" 
 />
    <glyph glyph-name="space" unicode=" " horiz-adv-x="450" 
 />
    <glyph glyph-name="exclam" unicode="!" horiz-adv-x="440" 
d="M219 -10q-29 0 -47 19t-18 48t19 48.5t48 19.5t47.5 -19.5t18.5 -48.5t-19.5 -48t-48.5 -19zM172 1372h96l-20 -1065h-55z" />
    <glyph glyph-name="quotedbl" unicode="&#x22;" horiz-adv-x="532" 
d="M113 1372h92l-19 -403h-55zM328 1372h92l-19 -403h-55z" />
    <glyph glyph-name="numbersign" unicode="#" horiz-adv-x="1294" 
d="M307 389h-256l19 70h256l123 454h-256l18 70h256l104 389h76l-104 -389h368l105 389h76l-105 -389h256l-18 -70h-256l-123 -454h256l-19 -70h-256l-104 -389h-76l105 389h-369l-104 -389h-76zM770 459l123 454h-369l-123 -454h369z" />
    <glyph glyph-name="dollar" unicode="$" horiz-adv-x="993" 
d="M473 -18q-124 8 -226 72.5t-165 176.5l63 45q60 -104 153.5 -161.5t203.5 -57.5q136 0 222.5 81.5t86.5 209.5q0 109 -72.5 186t-228.5 134q-179 66 -263.5 161t-84.5 226q0 143 88 232.5t231 101.5v198h78v-201q184 -21 305 -194l-61 -43q-114 164 -289 164
q-123 0 -197.5 -72t-74.5 -186q0 -104 71.5 -179t225.5 -135q181 -68 266.5 -164.5t85.5 -228.5q0 -146 -94 -246.5t-246 -117.5v-199h-78v197z" />
    <glyph glyph-name="percent" unicode="%" horiz-adv-x="1429" 
d="M1010 1372h82l-713 -1372h-80zM1092 -16q-117 0 -197 80t-80 196q0 117 80 197t197 80q115 0 195.5 -80.5t80.5 -196.5t-80 -196t-196 -80zM1092 49q85 0 144.5 61t59.5 150t-59.5 150t-144.5 61q-88 0 -146.5 -61t-58.5 -150t58.5 -150t146.5 -61zM338 836
q-117 0 -197 80t-80 196q0 117 80 197t197 80q115 0 195.5 -80.5t80.5 -196.5t-80 -196t-196 -80zM338 901q85 0 145 61t60 150t-60 150t-145 61q-88 0 -146.5 -61t-58.5 -150t58.5 -150t146.5 -61z" />
    <glyph glyph-name="ampersand" unicode="&#x26;" horiz-adv-x="1392" 
d="M524 -16q-174 0 -287.5 108t-113.5 273q0 147 94.5 258t261.5 165q-90 105 -126 177.5t-36 146.5q0 123 78 200t201 77t202 -80.5t79 -206.5h-76q0 98 -56.5 157.5t-148.5 59.5q-91 0 -145 -56.5t-54 -150.5q0 -65 32.5 -127t119.5 -164l414 -485q139 229 139 545h239
v-70h-170q-15 -301 -161 -532l207 -242l-58 -51l-194 229q-88 -110 -201 -170.5t-240 -60.5zM528 59q229 0 390 211l-394 467q-154 -50 -237.5 -146.5t-83.5 -225.5q0 -135 90.5 -220.5t234.5 -85.5z" />
    <glyph glyph-name="quotesingle" unicode="'" horiz-adv-x="317" 
d="M113 1372h92l-19 -403h-55z" />
    <glyph glyph-name="parenleft" unicode="(" horiz-adv-x="706" 
d="M606 -432q-201 177 -316.5 432t-115.5 522q0 269 115 521.5t317 433.5l49 -52q-191 -177 -295 -407t-104 -496t104 -496t295 -407z" />
    <glyph glyph-name="parenright" unicode=")" horiz-adv-x="706" 
d="M51 -381q191 178 295.5 408t104.5 495t-104.5 495t-295.5 408l49 52q202 -181 317 -433.5t115 -521.5q0 -267 -115.5 -522t-316.5 -432z" />
    <glyph glyph-name="asterisk" unicode="*" horiz-adv-x="645" 
d="M164 967l112 157l-184 62l19 53l184 -59v192h57v-194l185 59l16 -53l-184 -60l114 -157l-47 -33l-112 156l-115 -156z" />
    <glyph glyph-name="plus" unicode="+" horiz-adv-x="880" 
d="M403 629h-342v73h342v342h74v-342h342v-73h-342v-342h-74v342z" />
    <glyph glyph-name="comma" unicode="," horiz-adv-x="436" 
d="M82 -283l125 422l96 -33l-174 -407z" />
    <glyph glyph-name="hyphen" unicode="-" horiz-adv-x="614" 
d="M92 573h430v-81h-430v81z" />
    <glyph glyph-name="period" unicode="." horiz-adv-x="440" 
d="M219 -10q-29 0 -47 19t-18 48t19 48.5t48 19.5t47.5 -19.5t18.5 -48.5t-19.5 -48t-48.5 -19z" />
    <glyph glyph-name="slash" unicode="/" horiz-adv-x="733" 
d="M651 1372h82l-651 -1618h-82z" />
    <glyph glyph-name="zero" unicode="0" horiz-adv-x="1218" 
d="M612 -16q-210 0 -339.5 194t-129.5 508q0 316 129 509.5t338 193.5q210 0 337.5 -193t127.5 -510q0 -207 -58 -366.5t-163 -247.5t-242 -88zM610 59q177 0 279 169t102 458t-102 458t-279 169t-280 -169t-103 -458q0 -290 103 -458.5t280 -168.5z" />
    <glyph glyph-name="one" unicode="1" horiz-adv-x="630" 
d="M315 1276l-209 -166l-45 59l304 244h30v-1413h-80v1276z" />
    <glyph glyph-name="two" unicode="2" horiz-adv-x="1075" 
d="M154 76q0 160 88 279t303 255q180 116 252.5 207t72.5 203q0 134 -82.5 214.5t-218.5 80.5q-133 0 -220 -82.5t-118 -237.5l-73 13q25 179 134.5 280t276.5 101q169 0 275 -102.5t106 -266.5q0 -131 -82.5 -239t-279.5 -232q-195 -124 -272.5 -228t-77.5 -245h714v-76
h-798v76z" />
    <glyph glyph-name="three" unicode="3" horiz-adv-x="1064" 
d="M504 -16q-142 0 -249 72t-173 214l70 41q114 -254 356 -254q158 0 256 93t98 241q0 154 -110.5 245t-296.5 91h-123v31l463 540h-607v74h742v-33l-461 -536q213 0 343 -113.5t130 -294.5q0 -179 -124 -295t-314 -116z" />
    <glyph glyph-name="four" unicode="4" horiz-adv-x="1054" 
d="M721 313h-639v31l686 1069h31v-1028h174v-72h-174v-313h-78v313zM721 385v821l-526 -821h526z" />
    <glyph glyph-name="five" unicode="5" horiz-adv-x="1064" 
d="M506 -16q-141 0 -249 72.5t-173 213.5l70 41q114 -254 354 -254q156 0 256 103t100 266q0 157 -91.5 255.5t-237.5 98.5q-85 0 -164.5 -33t-128.5 -88l-31 17l123 696h588v-76h-527l-88 -499q111 57 232 57q176 0 290.5 -121t114.5 -309q0 -192 -123.5 -316t-314.5 -124z
" />
    <glyph glyph-name="six" unicode="6" horiz-adv-x="1085" 
d="M541 -16q-191 0 -309.5 130.5t-118.5 340.5q0 243 158 499t442 453l49 -61q-182 -118 -319.5 -285t-206.5 -352q126 153 319 153q183 0 305.5 -125.5t122.5 -310.5q0 -189 -126 -315.5t-316 -126.5zM551 57q152 0 252 105t100 262q0 156 -100 260t-252 104t-253 -104
t-101 -260q0 -158 101 -262.5t253 -104.5z" />
    <glyph glyph-name="seven" unicode="7" horiz-adv-x="993" 
d="M815 1296h-692v76h799v-31l-615 -1341h-86z" />
    <glyph glyph-name="eight" unicode="8" horiz-adv-x="1136" 
d="M573 -16q-195 0 -317.5 112t-122.5 283q0 127 76 223t207 137q-99 51 -151 129t-52 176q0 148 101 246.5t259 98.5q156 0 258.5 -99t102.5 -246q0 -98 -52 -176t-151 -129q130 -42 206.5 -138t76.5 -222q0 -170 -125 -282.5t-316 -112.5zM573 57q158 0 259.5 90.5
t101.5 231.5q0 140 -101 229.5t-260 89.5q-163 0 -261.5 -89t-98.5 -230q0 -142 100 -232t260 -90zM573 770q126 0 203.5 76t77.5 196q0 122 -77 197.5t-204 75.5q-128 0 -204 -75t-76 -198q0 -120 76.5 -196t203.5 -76z" />
    <glyph glyph-name="nine" unicode="9" horiz-adv-x="1085" 
d="M324 27q182 118 319.5 285t206.5 352q-127 -154 -320 -154q-183 0 -305.5 125.5t-122.5 310.5q0 189 126.5 316t316.5 127q191 0 309.5 -130.5t118.5 -340.5q0 -243 -158 -499.5t-442 -453.5zM535 584q152 0 253 104t101 260q0 158 -101 262.5t-253 104.5t-252.5 -105
t-100.5 -262q0 -156 100.5 -260t252.5 -104z" />
    <glyph glyph-name="colon" unicode=":" horiz-adv-x="440" 
d="M219 -10q-29 0 -47 19t-18 48t19 48.5t48 19.5t47.5 -19.5t18.5 -48.5t-19.5 -48t-48.5 -19zM219 817q-29 0 -47 19t-18 49q0 29 19 48t48 19t47.5 -19t18.5 -48t-19.5 -48.5t-48.5 -19.5z" />
    <glyph glyph-name="semicolon" unicode=";" horiz-adv-x="438" 
d="M82 -283l125 422l96 -33l-174 -407zM238 817q-29 0 -47.5 19.5t-18.5 48.5t19.5 48t48.5 19t47 -19t18 -48t-19 -48.5t-48 -19.5z" />
    <glyph glyph-name="less" unicode="&#x3c;" horiz-adv-x="880" 
d="M61 627v80l725 335l33 -65l-676 -309l676 -312l-33 -65z" />
    <glyph glyph-name="equal" unicode="=" horiz-adv-x="880" 
d="M61 553h758v-74h-758v74zM61 852h758v-74h-758v74z" />
    <glyph glyph-name="greater" unicode="&#x3e;" horiz-adv-x="880" 
d="M61 356l676 312l-676 309l33 65l725 -335v-80l-725 -336z" />
    <glyph glyph-name="question" unicode="?" horiz-adv-x="858" 
d="M510 340q-223 46 -223 219q0 72 41 127t149 133q119 84 164 144t45 127q0 100 -73 164.5t-191 64.5q-93 0 -162.5 -44t-126.5 -140l-61 45q55 102 146 155.5t208 53.5q148 0 244 -83t96 -212q0 -84 -50.5 -153.5t-176.5 -162.5q-102 -73 -137 -118.5t-35 -98.5
q0 -60 39 -95.5t126 -55.5zM426 -6q-29 0 -47.5 19t-18.5 48t19.5 48.5t48.5 19.5t47.5 -19.5t18.5 -48.5t-19.5 -48t-48.5 -19z" />
    <glyph glyph-name="at" unicode="@" horiz-adv-x="1820" 
d="M874 -281q-211 27 -375.5 136t-254.5 277t-90 368q0 159 60.5 301.5t164 245t247.5 162t304 59.5q158 0 298.5 -57.5t241.5 -156.5t159.5 -237t58.5 -293q0 -189 -79 -301t-212 -112q-85 0 -144 46.5t-77 121.5q-36 -74 -115.5 -121t-175.5 -47q-141 0 -234.5 106
t-93.5 266q0 161 96 267t242 106q87 0 160 -37.5t116 -103.5v110h72v-471q0 -78 44 -125t116 -47q97 0 152 91.5t55 246.5q0 191 -87.5 345.5t-243 242.5t-349.5 88q-147 0 -277 -52.5t-222.5 -144.5t-146 -221t-53.5 -276q0 -189 85.5 -345t235 -251.5t335.5 -114.5z
M899 182q117 0 194.5 86t77.5 215q0 128 -77.5 214.5t-194.5 86.5q-115 0 -189.5 -85t-74.5 -216t74.5 -216t189.5 -85z" />
    <glyph glyph-name="A" unicode="A" horiz-adv-x="1269" 
d="M621 1413h30l516 -1413h-86l-151 418h-592l-152 -418h-84zM903 492l-268 739l-270 -739h538z" />
    <glyph glyph-name="B" unicode="B" horiz-adv-x="1085" 
d="M205 1372h270q186 0 306 -95t120 -239q0 -103 -61.5 -183t-171.5 -122q147 -37 231 -131t84 -227q0 -165 -130 -270t-335 -105h-313v1372zM516 74q173 0 279 84.5t106 220.5q0 137 -106.5 222t-278.5 85h-231v-612h231zM473 760q156 0 251 74.5t95 197.5q0 121 -95 193.5
t-251 72.5h-188v-538h188z" />
    <glyph glyph-name="C" unicode="C" horiz-adv-x="1423" 
d="M807 -16q-194 0 -351.5 93.5t-245 252.5t-87.5 350q0 195 91.5 358t250.5 257t350 94q144 0 272 -54.5t220 -156.5l-62 -52q-81 90 -192.5 137.5t-237.5 47.5q-168 0 -308 -84t-220 -229t-80 -318q0 -171 76 -312t216 -224t316 -83q270 0 449 191l57 -49
q-101 -109 -234.5 -164t-279.5 -55z" />
    <glyph glyph-name="D" unicode="D" horiz-adv-x="1495" 
d="M205 1372h413q214 0 386.5 -88.5t270 -245t97.5 -350.5q0 -197 -97.5 -354.5t-270 -245.5t-386.5 -88h-413v1372zM618 74q143 0 267.5 46.5t213 127.5t139 195t50.5 245q0 175 -86.5 314.5t-239.5 217.5t-344 78h-333v-1224h333z" />
    <glyph glyph-name="E" unicode="E" horiz-adv-x="1003" 
d="M205 1372h676v-74h-596v-550h463v-74h-463v-600h606v-74h-686v1372z" />
    <glyph glyph-name="F" unicode="F" horiz-adv-x="931" 
d="M205 1372h655v-74h-575v-589h442v-74h-442v-635h-80v1372z" />
    <glyph glyph-name="G" unicode="G" horiz-adv-x="1495" 
d="M813 -16q-193 0 -352 93.5t-248.5 253.5t-89.5 351q0 145 54.5 276t146.5 225.5t219.5 150t267.5 55.5q144 0 274.5 -54.5t221.5 -156.5l-62 -52q-81 90 -194.5 137.5t-239.5 47.5q-165 0 -304 -83.5t-219.5 -229t-80.5 -318.5q0 -171 76 -312t216 -224t316 -83
q261 0 447 177v405h-476v74h555v-506q-99 -110 -236.5 -168.5t-291.5 -58.5z" />
    <glyph glyph-name="H" unicode="H" horiz-adv-x="1392" 
d="M205 1372h80v-643h823v643h80v-1372h-80v655h-823v-655h-80v1372z" />
    <glyph glyph-name="I" unicode="I" horiz-adv-x="489" 
d="M205 1372h80v-1372h-80v1372z" />
    <glyph glyph-name="J" unicode="J" horiz-adv-x="870" 
d="M356 -20q-185 0 -295 180l66 49q50 -80 105 -117t126 -37q112 0 175 79.5t63 219.5v944h-422v74h502v-1016q0 -174 -85.5 -275t-234.5 -101z" />
    <glyph glyph-name="K" unicode="K" horiz-adv-x="1052" 
d="M205 1372h80v-653l616 653h105l-633 -672l639 -700h-111l-616 674v-674h-80v1372z" />
    <glyph glyph-name="L" unicode="L" horiz-adv-x="962" 
d="M205 1372h80v-1298h585v-74h-665v1372z" />
    <glyph glyph-name="M" unicode="M" horiz-adv-x="1689" 
d="M205 1413h31l610 -913l608 913h31v-1413h-80v1194l-545 -815h-31l-544 817v-1196h-80v1413z" />
    <glyph glyph-name="N" unicode="N" horiz-adv-x="1474" 
d="M283 1212v-1212h-78v1413h31l956 -1253v1212h78v-1413h-31z" />
    <glyph glyph-name="O" unicode="O" horiz-adv-x="1617" 
d="M809 -16q-111 0 -215.5 35.5t-189 100.5t-148 151.5t-98.5 193.5t-35 221q0 193 92.5 355t250 255t343.5 93q113 0 218 -35t189 -99.5t147.5 -151t97.5 -194t34 -223.5q0 -143 -54 -272.5t-145 -224t-218.5 -150t-268.5 -55.5zM809 59q165 0 303.5 83t218.5 227.5
t80 316.5t-80 316.5t-218.5 227.5t-303.5 83t-303.5 -83t-218.5 -227.5t-80 -316.5t80 -316.5t218.5 -227.5t303.5 -83z" />
    <glyph glyph-name="P" unicode="P" horiz-adv-x="1054" 
d="M205 1372h293q206 0 335.5 -109t129.5 -282q0 -172 -130 -280.5t-335 -108.5h-213v-592h-80v1372zM496 666q173 0 279 86.5t106 228.5q0 143 -106 230t-279 87h-211v-632h211z" />
    <glyph glyph-name="Q" unicode="Q" horiz-adv-x="1617" 
d="M809 59q165 0 303.5 83t218.5 227.5t80 316.5t-80 316.5t-218.5 227.5t-303.5 83t-303.5 -83t-218.5 -227.5t-80 -316.5t80 -316.5t218.5 -227.5t303.5 -83zM1223 -346q-190 0 -316.5 90t-146.5 242q-132 10 -249.5 68.5t-202.5 150.5t-135 217.5t-50 263.5
q0 193 92.5 355t250 255t343.5 93q113 0 218 -35t189 -99.5t147.5 -151t97.5 -194t34 -223.5q0 -140 -51 -267t-138 -220.5t-208.5 -151t-257.5 -63.5q23 -117 129.5 -186.5t265.5 -69.5q105 0 195 22l12 -67q-125 -29 -219 -29z" />
    <glyph glyph-name="R" unicode="R" horiz-adv-x="1136" 
d="M205 1372h297q206 0 335.5 -107.5t129.5 -277.5q0 -146 -93 -245.5t-253 -129.5l413 -612h-96l-406 602h-247v-602h-80v1372zM500 676q174 0 279.5 85t105.5 226q0 140 -106 225.5t-279 85.5h-215v-622h215z" />
    <glyph glyph-name="S" unicode="S" horiz-adv-x="993" 
d="M500 -18q-131 0 -241.5 65.5t-176.5 183.5l63 45q60 -104 153.5 -161.5t203.5 -57.5q136 0 222.5 81.5t86.5 209.5q0 109 -72.5 186t-228.5 134q-179 66 -263.5 161t-84.5 226q0 151 97.5 242.5t252.5 91.5q217 0 352 -197l-61 -43q-114 164 -289 164q-123 0 -197.5 -72
t-74.5 -186q0 -104 71.5 -179t225.5 -135q181 -68 266.5 -164.5t85.5 -228.5q0 -159 -110 -262.5t-281 -103.5z" />
    <glyph glyph-name="T" unicode="T" horiz-adv-x="1124" 
d="M522 1298h-461v74h1002v-74h-461v-1298h-80v1298z" />
    <glyph glyph-name="U" unicode="U" horiz-adv-x="1361" 
d="M684 -16q-221 0 -355 153.5t-134 405.5v829h79v-821q0 -223 112 -357.5t298 -134.5q184 0 295 134.5t111 357.5v821h77v-829q0 -252 -133 -405.5t-350 -153.5z" />
    <glyph glyph-name="V" unicode="V" horiz-adv-x="1187" 
d="M82 1372h84l428 -1220l430 1220h82l-498 -1413h-30z" />
    <glyph glyph-name="W" unicode="W" horiz-adv-x="1966" 
d="M72 1372h84l385 -1210l426 1210h30l428 -1212l387 1212h82l-452 -1413h-31l-430 1219l-428 -1219h-31z" />
    <glyph glyph-name="X" unicode="X" horiz-adv-x="1126" 
d="M510 702l-418 670h94l379 -606l377 606h92l-418 -670l439 -702h-94l-400 639l-397 -639h-92z" />
    <glyph glyph-name="Y" unicode="Y" horiz-adv-x="1064" 
d="M492 551l-431 821h91l380 -731l383 731h89l-431 -821v-551h-81v551z" />
    <glyph glyph-name="Z" unicode="Z" horiz-adv-x="1187" 
d="M102 31l859 1267h-818v74h942v-31l-858 -1267h838v-74h-963v31z" />
    <glyph glyph-name="bracketleft" unicode="[" horiz-adv-x="624" 
d="M215 1454h317v-70h-241v-1744h241v-70h-317v1884z" />
    <glyph glyph-name="backslash" unicode="\" horiz-adv-x="733" 
d="M0 1372h82l651 -1618h-82z" />
    <glyph glyph-name="bracketright" unicode="]" horiz-adv-x="624" 
d="M92 -360h242v1744h-242v70h318v-1884h-318v70z" />
    <glyph glyph-name="asciicircum" unicode="^" horiz-adv-x="880" 
d="M102 870l299 502h78l299 -502l-63 -34l-275 456l-274 -456z" />
    <glyph glyph-name="underscore" unicode="_" horiz-adv-x="593" 
d="M-41 -260h676v-82h-676v82z" />
    <glyph glyph-name="grave" unicode="`" horiz-adv-x="286" 
d="M20 1288l66 55l180 -241l-41 -33z" />
    <glyph glyph-name="a" unicode="a" horiz-adv-x="968" 
d="M399 -16q-139 0 -228 80.5t-89 203.5q0 130 97 214.5t249 84.5q93 0 178 -32t144 -91v125q0 147 -76.5 233.5t-204.5 86.5q-80 0 -150.5 -37.5t-119.5 -106.5l-58 50q66 78 153 120.5t183 42.5q157 0 252.5 -106t95.5 -281v-571h-75v195q-52 -99 -143.5 -155t-207.5 -56z
M408 53q136 0 228 85.5t109 226.5q-135 135 -313 135q-123 0 -198.5 -64t-75.5 -168q0 -99 67.5 -157t182.5 -58z" />
    <glyph glyph-name="b" unicode="b" horiz-adv-x="1165" 
d="M614 -16q-125 0 -222 61.5t-152 169.5v-215h-76v1454h76v-727q55 108 153 169.5t225 61.5q191 0 318 -139t127 -348q0 -210 -127 -348.5t-322 -138.5zM608 55q165 0 271 118t106 298t-105 298t-268 118q-165 0 -268.5 -117.5t-103.5 -298.5q0 -182 102.5 -299t265.5 -117
z" />
    <glyph glyph-name="c" unicode="c" horiz-adv-x="1036" 
d="M586 -16q-210 0 -347 138t-137 349q0 209 135 348t338 139q212 0 371 -167l-57 -52q-140 146 -318 146q-169 0 -279 -116.5t-110 -293.5q0 -184 116.5 -301t297.5 -117q175 0 309 140l49 -43q-147 -170 -368 -170z" />
    <glyph glyph-name="d" unicode="d" horiz-adv-x="1177" 
d="M553 -16q-195 0 -323 138.5t-128 348.5t129 348.5t326 138.5q127 0 226 -61.5t155 -171.5v729h76v-1454h-76v217q-56 -110 -156.5 -171.5t-228.5 -61.5zM559 55q166 0 272.5 118t106.5 298q0 182 -105 299t-270 117q-167 0 -275 -118.5t-108 -297.5t107 -297.5
t272 -118.5z" />
    <glyph glyph-name="e" unicode="e" horiz-adv-x="1095" 
d="M584 -16q-210 0 -346 136t-136 349q0 209 131 349t324 140q192 0 319.5 -135t127.5 -338q0 -9 -3 -43h-821q12 -173 123.5 -280t282.5 -107q205 0 338 160l51 -43q-147 -188 -391 -188zM926 512q-4 164 -108.5 269.5t-258.5 105.5q-155 0 -260 -105t-117 -270h744z" />
    <glyph glyph-name="f" unicode="f" horiz-adv-x="608" 
d="M236 872h-144v70h144v252q0 123 58 191.5t161 68.5q107 0 184 -86l-49 -53q-57 69 -137 69q-68 0 -105 -49t-37 -141v-252h279v-70h-279v-872h-75v872z" />
    <glyph glyph-name="g" unicode="g" horiz-adv-x="1044" 
d="M512 324q132 0 217.5 80.5t85.5 203.5t-85.5 204t-217.5 81t-217.5 -81t-85.5 -204t85.5 -203.5t217.5 -80.5zM537 -442q163 0 261.5 65.5t98.5 171.5q0 104 -96.5 167t-257.5 63q-166 0 -265.5 -64t-99.5 -170q0 -104 99.5 -168.5t259.5 -64.5zM537 -512
q-192 0 -313.5 83.5t-121.5 215.5q0 85 54 151.5t149 102.5q-162 37 -162 154q0 105 117 145q-127 105 -127 268q0 152 108.5 253.5t268.5 101.5q74 0 135 -21h328v-70h-205q58 -48 90.5 -117t32.5 -147q0 -152 -108 -253t-271 -101q-96 0 -180 41q-54 0 -85.5 -25
t-31.5 -67q0 -51 49 -80t135 -29h168q180 0 293 -82.5t113 -214.5q0 -137 -121.5 -223t-314.5 -86z" />
    <glyph glyph-name="h" unicode="h" horiz-adv-x="1044" 
d="M164 1454h76v-680q48 87 130.5 135.5t186.5 48.5q153 0 248.5 -107.5t95.5 -279.5v-571h-76v553q0 153 -75.5 244.5t-202.5 91.5q-130 0 -218.5 -96.5t-88.5 -239.5v-553h-76v1454z" />
    <glyph glyph-name="i" unicode="i" horiz-adv-x="415" 
d="M170 942h76v-942h-76v942zM209 1159q-27 0 -46.5 18.5t-19.5 47.5t18.5 47t47.5 18q27 0 45 -18t18 -47q0 -30 -17 -48t-46 -18z" />
    <glyph glyph-name="j" unicode="j" horiz-adv-x="415" 
d="M55 -512q-85 0 -147 72l49 53q44 -55 100 -55q54 0 83.5 40.5t29.5 118.5v1225h76v-1223q0 -110 -50 -170.5t-141 -60.5zM209 1159q-27 0 -46.5 18.5t-19.5 47.5t18.5 47t47.5 18q27 0 45 -18t18 -47q0 -30 -17 -48t-46 -18z" />
    <glyph glyph-name="k" unicode="k" horiz-adv-x="849" 
d="M164 1454h76v-954l475 442h104l-493 -459l503 -483h-108l-481 461v-461h-76v1454z" />
    <glyph glyph-name="l" unicode="l" horiz-adv-x="403" 
d="M164 1454h76v-1454h-76v1454z" />
    <glyph glyph-name="m" unicode="m" horiz-adv-x="1685" 
d="M164 942h76v-166q48 85 130 133.5t181 48.5q114 0 196 -61t119 -168q42 105 131.5 167t204.5 62q152 0 246 -107.5t94 -279.5v-571h-76v553q0 152 -75 244t-199 92q-129 0 -215 -96.5t-86 -239.5v-553h-76v553q0 152 -75 244t-199 92q-129 0 -215 -96.5t-86 -239.5v-553
h-76v942z" />
    <glyph glyph-name="n" unicode="n" horiz-adv-x="1044" 
d="M164 942h76v-168q48 87 130.5 135.5t186.5 48.5q153 0 248.5 -107.5t95.5 -279.5v-571h-76v553q0 153 -75.5 244.5t-202.5 91.5q-130 0 -218.5 -96.5t-88.5 -239.5v-553h-76v942z" />
    <glyph glyph-name="o" unicode="o" horiz-adv-x="1146" 
d="M573 -16q-129 0 -237.5 64.5t-171 176.5t-62.5 246q0 203 137.5 345t333.5 142t333.5 -142t137.5 -345q0 -134 -62.5 -246t-171 -176.5t-237.5 -64.5zM573 55q165 0 279.5 121.5t114.5 294.5q0 172 -115 294t-279 122t-278.5 -122t-114.5 -294t114.5 -294t278.5 -122z
" />
    <glyph glyph-name="p" unicode="p" horiz-adv-x="1165" 
d="M608 55q165 0 271 118t106 298t-105 298t-268 118q-165 0 -268.5 -117.5t-103.5 -298.5q0 -182 102.5 -299t265.5 -117zM164 942h76v-215q55 108 153 169.5t225 61.5q191 0 318 -139t127 -348q0 -210 -127 -348.5t-322 -138.5q-125 0 -222 61.5t-152 169.5v-727h-76v1454
z" />
    <glyph glyph-name="q" unicode="q" horiz-adv-x="1165" 
d="M553 55q163 0 268 118t105 298q0 182 -103 299t-266 117q-165 0 -271 -118t-106 -298t105 -298t268 -118zM926 215q-55 -108 -153.5 -169.5t-225.5 -61.5q-191 0 -318 139t-127 348q0 210 127 348.5t322 138.5q125 0 222.5 -61.5t152.5 -169.5v215h75v-1454h-75v727z" />
    <glyph glyph-name="r" unicode="r" horiz-adv-x="604" 
d="M164 942h76v-154q43 79 116 124.5t160 45.5q29 0 57 -4l-16 -80q-28 7 -55 7q-117 0 -189.5 -90.5t-72.5 -233.5v-557h-76v942z" />
    <glyph glyph-name="s" unicode="s" horiz-adv-x="911" 
d="M481 -16q-124 0 -228 52t-171 150l59 45q136 -178 344 -178q113 0 180.5 49t67.5 131q0 74 -62.5 123t-203.5 86q-165 43 -242.5 109.5t-77.5 165.5q0 109 84 175t220 66q209 0 348 -155l-58 -47q-112 133 -292 133q-103 0 -164.5 -46t-61.5 -124q0 -72 62.5 -120.5
t203.5 -86.5q166 -44 243 -110t77 -164q0 -115 -90 -184.5t-238 -69.5z" />
    <glyph glyph-name="t" unicode="t" horiz-adv-x="696" 
d="M457 -16q-104 0 -162.5 65t-58.5 182v641h-144v70h144v229h75v-229h246v-70h-246v-634q0 -88 39 -136.5t111 -48.5q83 0 141 64l43 -49q-75 -84 -188 -84z" />
    <glyph glyph-name="u" unicode="u" 
d="M481 -16q-152 0 -245 107.5t-93 279.5v571h76v-553q0 -152 75 -244t200 -92q129 0 215 96.5t86 239.5v553h75v-942h-75v166q-48 -86 -130 -134t-184 -48z" />
    <glyph glyph-name="v" unicode="v" horiz-adv-x="931" 
d="M61 942h82l320 -821l330 821h77l-395 -983h-31z" />
    <glyph glyph-name="w" unicode="w" horiz-adv-x="1341" 
d="M51 942h80l242 -797l276 818h31l274 -820l260 799h76l-321 -983h-31l-276 829l-279 -829h-31z" />
    <glyph glyph-name="x" unicode="x" horiz-adv-x="839" 
d="M371 479l-310 463h91l270 -403l270 403h86l-309 -463l319 -479h-90l-280 418l-281 -418h-86z" />
    <glyph glyph-name="y" unicode="y" horiz-adv-x="901" 
d="M399 0l-348 942h84l307 -833l330 833h78l-576 -1454h-77z" />
    <glyph glyph-name="z" unicode="z" horiz-adv-x="933" 
d="M92 20l619 852h-586v70h715v-20l-619 -852h621v-70h-750v20z" />
    <glyph glyph-name="braceleft" unicode="{" horiz-adv-x="645" 
d="M487 -430q-99 0 -161 63.5t-62 165.5v520q0 72 -38.5 115t-104.5 43h-8v70h8q66 0 104.5 43t38.5 115v520q0 102 62 165.5t161 63.5h66v-70h-66q-66 0 -106.5 -43.5t-40.5 -115.5v-520q0 -151 -117 -191v-4q117 -40 117 -191v-520q0 -72 40.5 -115.5t106.5 -43.5h66v-70
h-66z" />
    <glyph glyph-name="bar" unicode="|" horiz-adv-x="485" 
d="M205 1454h76v-1966h-76v1966z" />
    <glyph glyph-name="braceright" unicode="}" horiz-adv-x="645" 
d="M92 -360h66q66 0 106.5 43.5t40.5 115.5v520q0 151 117 191v4q-117 40 -117 191v520q0 72 -40.5 115.5t-106.5 43.5h-66v70h66q99 0 161 -63.5t62 -165.5v-520q0 -72 38.5 -115t104.5 -43h8v-70h-8q-66 0 -104.5 -43t-38.5 -115v-520q0 -102 -62 -165.5t-161 -63.5h-66
v70z" />
    <glyph glyph-name="asciitilde" unicode="~" horiz-adv-x="880" 
d="M612 567q-75 0 -188 58q-57 29 -89 41t-65 12q-95 0 -145 -103l-64 29q31 69 86 108.5t121 39.5q76 0 189 -58q58 -30 89 -41.5t64 -11.5q96 0 146 102l63 -28q-31 -69 -86 -108.5t-121 -39.5z" />
    <glyph glyph-name="nbspace" unicode="&#xa0;" horiz-adv-x="450" 
 />
    <glyph glyph-name="exclamdown" unicode="&#xa1;" horiz-adv-x="440" 
d="M193 635h55l20 -1065h-96zM221 817q-29 0 -48 19.5t-19 48.5t18 48t47 19t48.5 -19t19.5 -48t-18.5 -48.5t-47.5 -19.5z" />
    <glyph glyph-name="cent" unicode="&#xa2;" horiz-adv-x="1036" 
d="M537 -14q-191 17 -313 153t-122 332q0 197 124 335t311 150v201h73v-201q192 -12 336 -165l-57 -52q-140 146 -318 146q-169 0 -279 -116.5t-110 -293.5q0 -184 116.5 -301t297.5 -117q175 0 309 140l49 -43q-136 -161 -344 -170v-199h-73v201z" />
    <glyph glyph-name="sterling" unicode="&#xa3;" horiz-adv-x="843" 
d="M61 31q134 97 205.5 207t71.5 268q0 68 -16 143h-220v74h199q-10 38 -39 111q-67 168 -67 264q0 129 83.5 210t215.5 81q86 0 161 -34.5t125 -94.5l-53 -50q-111 105 -231 105q-100 0 -161 -57.5t-61 -155.5q0 -92 70 -271q30 -89 35 -108h264v-74h-244q19 -75 19 -149
q0 -256 -191 -426h596v-74h-762v31z" />
    <glyph glyph-name="currency" unicode="&#xa4;" horiz-adv-x="911" 
d="M72 367l149 149q-59 77 -59 180q0 104 59 181l-149 149l53 53l149 -149q78 63 183 63q104 0 180 -61l149 147l54 -53l-150 -147q62 -80 62 -183q0 -102 -62 -182l150 -147l-54 -54l-149 148q-77 -62 -180 -62q-104 0 -183 64l-149 -150zM457 471q91 0 154 65.5t63 159.5
t-63 160t-154 66t-154 -66t-63 -160t63 -159.5t154 -65.5z" />
    <glyph glyph-name="yen" unicode="&#xa5;" horiz-adv-x="1064" 
d="M492 246h-226v73h226v185h-226v74h211l-416 794h91l380 -731l383 731h89l-416 -794h211v-74h-226v-185h226v-73h-226v-246h-81v246z" />
    <glyph glyph-name="brokenbar" unicode="&#xa6;" horiz-adv-x="485" 
d="M205 207h76v-719h-76v719zM205 1454h76v-719h-76v719z" />
    <glyph glyph-name="section" unicode="&#xa7;" horiz-adv-x="962" 
d="M463 -283q-155 0 -244 154l62 35q80 -123 188 -123q72 0 119 46t47 118q0 84 -69 163.5t-220 172.5q-74 38 -118 110.5t-44 163.5q0 122 77 210t192 95q-185 132 -185 291q0 104 69 170t175 66q155 0 244 -154l-62 -35q-80 123 -188 123q-72 0 -119 -46t-47 -118
q0 -79 66.5 -158t207.5 -167q75 -39 119.5 -112.5t44.5 -164.5q0 -122 -76 -207.5t-192 -97.5q197 -135 197 -299q0 -104 -69 -170t-175 -66zM481 315q94 0 160 70t66 172t-66 172t-160 70t-159.5 -70t-65.5 -172t65.5 -172t159.5 -70z" />
    <glyph glyph-name="dieresis" unicode="&#xa8;" horiz-adv-x="481" 
d="M84 1159q-29 0 -46.5 18.5t-17.5 47.5t18.5 47t45.5 18q29 0 47.5 -18t18.5 -47t-19.5 -47.5t-46.5 -18.5zM397 1159q-27 0 -46 18.5t-19 47.5t18 47t47 18q27 0 45.5 -18t18.5 -47t-17.5 -47.5t-46.5 -18.5z" />
    <glyph glyph-name="copyright" unicode="&#xa9;" horiz-adv-x="1638" 
d="M819 -16q-111 0 -215.5 35.5t-189 100.5t-148 151.5t-98.5 193.5t-35 221q0 193 92.5 355t250 255t343.5 93q113 0 218 -35t189 -99.5t147.5 -151t97.5 -194t34 -223.5q0 -143 -54 -272.5t-145 -224t-218.5 -150t-268.5 -55.5zM819 59q165 0 303.5 83t218.5 227.5
t80 316.5t-80 316.5t-218.5 227.5t-303.5 83t-303.5 -83t-218.5 -227.5t-80 -316.5t80 -316.5t218.5 -227.5t303.5 -83zM842 340q-149 0 -246.5 100t-97.5 254q0 152 96.5 253.5t239.5 101.5q154 0 268 -129l-47 -46q-52 54 -104 80.5t-115 26.5q-115 0 -190 -82.5
t-75 -204.5q0 -124 79.5 -205t201.5 -81t215 102l41 -41q-108 -129 -266 -129z" />
    <glyph glyph-name="ordfeminine" unicode="&#xaa;" horiz-adv-x="583" 
d="M250 836q-85 0 -137 48t-52 124q0 79 58.5 128.5t152.5 49.5q96 0 170 -51q0 86 -42.5 135t-114.5 49q-76 0 -131 -55l-45 47q69 78 184 78q98 0 158.5 -57.5t60.5 -151.5v-336h-70v82q-27 -40 -79 -65t-113 -25zM264 901q70 0 118 42.5t58 115.5q-84 61 -172 61
q-62 0 -98.5 -29.5t-36.5 -80.5q0 -50 35.5 -79.5t95.5 -29.5z" />
    <glyph glyph-name="guillemotleft" unicode="&#xab;" horiz-adv-x="847" 
d="M92 512l250 356l61 -41l-221 -315l221 -315l-61 -41zM403 512l250 356l62 -41l-221 -315l219 -313l-60 -43z" />
    <glyph glyph-name="logicalnot" unicode="&#xac;" horiz-adv-x="880" 
d="M748 629h-687v73h758v-319h-71v246z" />
    <glyph glyph-name="uni00AD" unicode="&#xad;" horiz-adv-x="614" 
d="M92 573h430v-81h-430v81z" />
    <glyph glyph-name="registered" unicode="&#xae;" horiz-adv-x="1638" 
d="M819 -16q-111 0 -215.5 35.5t-189 100.5t-148 151.5t-98.5 193.5t-35 221q0 193 92.5 355t250 255t343.5 93q113 0 218 -35t189 -99.5t147.5 -151t97.5 -194t34 -223.5q0 -143 -54 -272.5t-145 -224t-218.5 -150t-268.5 -55.5zM819 59q165 0 303.5 83t218.5 227.5
t80 316.5t-80 316.5t-218.5 227.5t-303.5 83t-303.5 -83t-218.5 -227.5t-80 -316.5t80 -316.5t218.5 -227.5t303.5 -83zM629 1034h200q105 0 168.5 -55.5t63.5 -147.5q0 -71 -40.5 -120t-111.5 -70l168 -291h-82l-161 281h-136v-281h-69v684zM815 698q78 0 126 38t48 98
t-48 96.5t-126 36.5h-117v-269h117z" />
    <glyph glyph-name="overscore" unicode="&#xaf;" horiz-adv-x="430" 
d="M20 1255h390v-69h-390v69z" />
    <glyph glyph-name="degree" unicode="&#xb0;" horiz-adv-x="839" 
d="M420 836q-117 0 -197 80t-80 196q0 117 80 197t197 80q115 0 195.5 -80.5t80.5 -196.5t-80 -196t-196 -80zM420 901q85 0 145 61t60 150t-60 150t-145 61q-88 0 -146.5 -61t-58.5 -150t58.5 -150t146.5 -61z" />
    <glyph glyph-name="plusminus" unicode="&#xb1;" horiz-adv-x="880" 
d="M61 375h342v315h-342v74h342v342h74v-342h342v-74h-342v-315h342v-74h-758v74z" />
    <glyph glyph-name="uni00B2" unicode="&#xb2;" horiz-adv-x="706" 
d="M82 932l211 196q142 133 184.5 189.5t42.5 114.5q0 72 -45.5 114.5t-120.5 42.5q-154 0 -188 -180l-66 18q25 110 91.5 169t166.5 59q104 0 169 -61t65 -158q0 -76 -52 -149.5t-200 -209.5l-117 -108h391v-70h-532v33z" />
    <glyph glyph-name="uni00B3" unicode="&#xb3;" horiz-adv-x="696" 
d="M350 883q-175 0 -248 166l64 32q59 -133 188 -133q80 0 129 45.5t49 120.5q0 78 -54 123t-146 45h-90v31l223 256h-332v69h455v-30l-228 -260q115 -7 179.5 -68.5t64.5 -161.5q0 -104 -70.5 -169.5t-183.5 -65.5z" />
    <glyph glyph-name="acute" unicode="&#xb4;" horiz-adv-x="286" 
d="M20 1102l181 241l65 -55l-205 -219z" />
    <glyph glyph-name="uni00B5" unicode="&#xb5;" horiz-adv-x="1054" 
d="M164 942h76v-553q0 -152 75 -244t199 -92q129 0 215 96.5t86 239.5v553h76v-942h-76v164q-45 -83 -125 -131.5t-178 -48.5q-182 0 -272 151v-647h-76v1454z" />
    <glyph glyph-name="paragraph" unicode="&#xb6;" horiz-adv-x="802" 
d="M336 -512q-100 0 -168 80l49 53q31 -34 57.5 -48.5t61.5 -14.5q66 0 100.5 48t34.5 136v960q-159 0 -264 95.5t-105 238.5t105 239.5t264 96.5h240v-74h-164v-1562q0 -117 -56 -182.5t-155 -65.5z" />
    <glyph glyph-name="middot" unicode="&#xb7;" horiz-adv-x="450" 
d="M223 449q-29 0 -47 19t-18 48t19 48.5t48 19.5t47.5 -19.5t18.5 -48.5t-19.5 -48t-48.5 -19z" />
    <glyph glyph-name="cedilla" unicode="&#xb8;" horiz-adv-x="403" 
d="M186 -508q-103 0 -166 66l39 59q49 -55 127 -55q56 0 88.5 30t32.5 84q0 55 -35.5 86t-103.5 31h-57l61 219h74l-41 -151q85 -13 131.5 -62.5t46.5 -122.5q0 -82 -54.5 -133t-142.5 -51z" />
    <glyph glyph-name="uni00B9" unicode="&#xb9;" horiz-adv-x="634" 
d="M338 1540l-182 -154l-43 50l266 225h31v-762h-72v641z" />
    <glyph glyph-name="ordmasculine" unicode="&#xba;" horiz-adv-x="675" 
d="M338 836q-117 0 -197 80t-80 196q0 117 80 197t197 80q115 0 195.5 -80.5t80.5 -196.5t-80 -196t-196 -80zM338 901q85 0 145 61t60 150t-60 150t-145 61q-88 0 -146.5 -61t-58.5 -150t58.5 -150t146.5 -61z" />
    <glyph glyph-name="guillemotright" unicode="&#xbb;" horiz-adv-x="847" 
d="M135 199l219 313l-221 315l62 41l249 -356l-249 -356zM444 197l222 315l-222 315l62 41l250 -356l-250 -356z" />
    <glyph glyph-name="onequarter" unicode="&#xbc;" horiz-adv-x="1447" 
d="M1028 1372h82l-713 -1372h-80zM338 1276l-182 -154l-43 49l266 226h31v-762h-72v641zM1171 127h-378v31l419 604h31v-567h103v-68h-103v-127h-72v127zM1171 195v389l-272 -389h272z" />
    <glyph glyph-name="onehalf" unicode="&#xbd;" horiz-adv-x="1499" 
d="M1028 1372h82l-713 -1372h-80zM338 1276l-182 -154l-43 49l266 226h31v-762h-72v641zM874 33l211 196q143 134 185.5 189.5t42.5 113.5q0 72 -45.5 115t-120.5 43q-155 0 -189 -180l-65 18q25 110 91.5 169t166.5 59q104 0 168.5 -61t64.5 -158q0 -76 -51.5 -150
t-199.5 -209l-117 -108h391v-70h-533v33z" />
    <glyph glyph-name="threequarters" unicode="&#xbe;" horiz-adv-x="1509" 
d="M1090 1372h81l-712 -1372h-80zM350 616q-175 0 -248 166l64 33q59 -133 188 -133q80 0 129 45.5t49 120.5q0 78 -54 123t-146 45h-90v31l223 256h-332v69h455v-31l-228 -260q115 -7 179.5 -68t64.5 -161q0 -104 -71 -170t-183 -66zM1233 127h-379v31l420 604h31v-567h102
v-68h-102v-127h-72v127zM1233 195v389l-272 -389h272z" />
    <glyph glyph-name="questiondown" unicode="&#xbf;" horiz-adv-x="858" 
d="M432 -442q-148 0 -244 83t-96 212q0 84 49.5 152t177.5 163q102 73 137.5 119t35.5 98q0 60 -39.5 96t-126.5 56l22 69q223 -46 223 -219q0 -71 -41.5 -127.5t-148.5 -132.5q-119 -84 -164 -143.5t-45 -126.5q0 -101 73 -165.5t191 -64.5q93 0 162.5 44.5t126.5 140.5
l61 -45q-55 -102 -146 -155.5t-208 -53.5zM430 817q-29 0 -47 19t-18 49q0 29 19 48t48 19t47.5 -19t18.5 -48t-19.5 -48.5t-48.5 -19.5z" />
    <glyph glyph-name="Agrave" unicode="&#xc0;" horiz-adv-x="1269" 
d="M621 1413h30l516 -1413h-86l-151 418h-592l-152 -418h-84zM903 492l-268 739l-270 -739h538zM414 1718l65 56l180 -242l-41 -33z" />
    <glyph glyph-name="Aacute" unicode="&#xc1;" horiz-adv-x="1269" 
d="M621 1413h30l516 -1413h-86l-151 418h-592l-152 -418h-84zM903 492l-268 739l-270 -739h538zM596 1532l180 242l66 -56l-205 -219z" />
    <glyph glyph-name="Acircumflex" unicode="&#xc2;" horiz-adv-x="1269" 
d="M621 1413h30l516 -1413h-86l-151 418h-592l-152 -418h-84zM903 492l-268 739l-270 -739h538zM389 1571l246 192l246 -192l-43 -51l-203 155l-203 -155z" />
    <glyph glyph-name="Atilde" unicode="&#xc3;" horiz-adv-x="1269" 
d="M621 1413h30l516 -1413h-86l-151 418h-592l-152 -418h-84zM903 492l-268 739l-270 -739h538zM395 1595q19 60 58.5 91.5t93.5 31.5q48 0 104 -39q49 -39 82 -39q52 0 80 78l64 -24q-19 -60 -58.5 -91.5t-93.5 -31.5q-48 0 -104 39q-49 39 -82 39q-52 0 -80 -78z" />
    <glyph glyph-name="Adieresis" unicode="&#xc4;" horiz-adv-x="1269" 
d="M621 1413h30l516 -1413h-86l-151 418h-592l-152 -418h-84zM903 492l-268 739l-270 -739h538zM477 1589q-29 0 -46 18t-17 48q0 29 18 47t45 18q29 0 47.5 -18t18.5 -47t-19.5 -47.5t-46.5 -18.5zM791 1589q-27 0 -46.5 18.5t-19.5 47.5t18.5 47t47.5 18q27 0 45 -18
t18 -47q0 -30 -17 -48t-46 -18z" />
    <glyph glyph-name="Aring" unicode="&#xc5;" horiz-adv-x="1269" 
d="M621 1413h30l516 -1413h-86l-151 418h-592l-152 -418h-84zM903 492l-268 739l-270 -739h538zM635 1479q-71 0 -122.5 51.5t-51.5 120.5t51.5 120.5t122.5 51.5q69 0 121.5 -52t52.5 -120q0 -69 -51.5 -120.5t-122.5 -51.5zM635 1540q44 0 74 31t30 80t-30 79.5t-74 30.5
t-74.5 -31t-30.5 -79q0 -49 30.5 -80t74.5 -31z" />
    <glyph glyph-name="AE" unicode="&#xc6;" horiz-adv-x="1536" 
d="M659 1372h748v-74h-643l70 -550h469v-74h-461l76 -600h505v-74h-575l-51 397h-523l-190 -397h-84zM788 471l-100 791l-379 -791h479z" />
    <glyph glyph-name="Ccedilla" unicode="&#xc7;" horiz-adv-x="1423" 
d="M756 -508q-103 0 -166 66l39 59q49 -55 127 -55q56 0 88.5 30t32.5 84q0 55 -36 86t-104 31h-57l55 195q-267 25 -439.5 223t-172.5 469q0 195 91.5 358t250.5 257t350 94q144 0 272 -54.5t220 -156.5l-62 -52q-81 90 -192.5 137.5t-237.5 47.5q-168 0 -308 -84
t-220 -229t-80 -318q0 -171 76 -312t216 -224t316 -83q270 0 449 191l57 -49q-101 -109 -234.5 -164t-279.5 -55l-33 -123q85 -13 131.5 -62.5t46.5 -122.5q0 -82 -54 -133t-142 -51z" />
    <glyph glyph-name="Egrave" unicode="&#xc8;" horiz-adv-x="1003" 
d="M205 1372h676v-74h-596v-550h463v-74h-463v-600h606v-74h-686v1372zM322 1718l65 56l180 -242l-41 -33z" />
    <glyph glyph-name="Eacute" unicode="&#xc9;" horiz-adv-x="1003" 
d="M205 1372h676v-74h-596v-550h463v-74h-463v-600h606v-74h-686v1372zM504 1532l180 242l66 -56l-205 -219z" />
    <glyph glyph-name="Ecircumflex" unicode="&#xca;" horiz-adv-x="1003" 
d="M205 1372h676v-74h-596v-550h463v-74h-463v-600h606v-74h-686v1372zM297 1571l246 192l245 -192l-43 -51l-202 155l-203 -155z" />
    <glyph glyph-name="Edieresis" unicode="&#xcb;" horiz-adv-x="1003" 
d="M205 1372h676v-74h-596v-550h463v-74h-463v-600h606v-74h-686v1372zM385 1589q-29 0 -46 18t-17 48q0 29 18 47t45 18q29 0 47.5 -18t18.5 -47t-19.5 -47.5t-46.5 -18.5zM698 1589q-27 0 -46 18.5t-19 47.5t18 47t47 18q27 0 45.5 -18t18.5 -47t-17.5 -47.5t-46.5 -18.5z
" />
    <glyph glyph-name="Igrave" unicode="&#xcc;" horiz-adv-x="489" 
d="M205 1372h80v-1372h-80v1372zM25 1718l65 56l180 -242l-41 -33z" />
    <glyph glyph-name="Iacute" unicode="&#xcd;" horiz-adv-x="489" 
d="M205 1372h80v-1372h-80v1372zM207 1532l180 242l66 -56l-205 -219z" />
    <glyph glyph-name="Icircumflex" unicode="&#xce;" horiz-adv-x="489" 
d="M205 1372h80v-1372h-80v1372zM0 1571l246 192l246 -192l-43 -51l-203 155l-203 -155z" />
    <glyph glyph-name="Idieresis" unicode="&#xcf;" horiz-adv-x="489" 
d="M205 1372h80v-1372h-80v1372zM88 1589q-29 0 -46 18t-17 48q0 29 18 47t45 18q29 0 47.5 -18t18.5 -47t-19.5 -47.5t-46.5 -18.5zM401 1589q-27 0 -46 18.5t-19 47.5t18 47t47 18q27 0 45.5 -18t18.5 -47t-17.5 -47.5t-46.5 -18.5z" />
    <glyph glyph-name="Eth" unicode="&#xd0;" horiz-adv-x="1556" 
d="M266 657h-225v70h225v645h414q214 0 386.5 -88.5t270 -245t97.5 -350.5q0 -197 -97.5 -354.5t-270 -245.5t-386.5 -88h-414v657zM680 74q143 0 267.5 46.5t213 127.5t139 195t50.5 245q0 175 -86.5 314.5t-239.5 217.5t-344 78h-334v-571h287v-70h-287v-583h334z" />
    <glyph glyph-name="Ntilde" unicode="&#xd1;" horiz-adv-x="1474" 
d="M283 1212v-1212h-78v1413h31l956 -1253v1212h78v-1413h-31zM498 1595q19 60 58 91.5t93 31.5q49 0 105 -39q49 -39 82 -39q51 0 79 78l64 -24q-19 -60 -58.5 -91.5t-93.5 -31.5q-48 0 -104 39q-49 39 -82 39q-52 0 -80 -78z" />
    <glyph glyph-name="Ograve" unicode="&#xd2;" horiz-adv-x="1617" 
d="M809 -16q-111 0 -215.5 35.5t-189 100.5t-148 151.5t-98.5 193.5t-35 221q0 193 92.5 355t250 255t343.5 93q113 0 218 -35t189 -99.5t147.5 -151t97.5 -194t34 -223.5q0 -143 -54 -272.5t-145 -224t-218.5 -150t-268.5 -55.5zM809 59q165 0 303.5 83t218.5 227.5
t80 316.5t-80 316.5t-218.5 227.5t-303.5 83t-303.5 -83t-218.5 -227.5t-80 -316.5t80 -316.5t218.5 -227.5t303.5 -83zM588 1718l65 56l181 -242l-41 -33z" />
    <glyph glyph-name="Oacute" unicode="&#xd3;" horiz-adv-x="1617" 
d="M809 -16q-111 0 -215.5 35.5t-189 100.5t-148 151.5t-98.5 193.5t-35 221q0 193 92.5 355t250 255t343.5 93q113 0 218 -35t189 -99.5t147.5 -151t97.5 -194t34 -223.5q0 -143 -54 -272.5t-145 -224t-218.5 -150t-268.5 -55.5zM809 59q165 0 303.5 83t218.5 227.5
t80 316.5t-80 316.5t-218.5 227.5t-303.5 83t-303.5 -83t-218.5 -227.5t-80 -316.5t80 -316.5t218.5 -227.5t303.5 -83zM770 1532l180 242l66 -56l-205 -219z" />
    <glyph glyph-name="Ocircumflex" unicode="&#xd4;" horiz-adv-x="1617" 
d="M809 -16q-111 0 -215.5 35.5t-189 100.5t-148 151.5t-98.5 193.5t-35 221q0 193 92.5 355t250 255t343.5 93q113 0 218 -35t189 -99.5t147.5 -151t97.5 -194t34 -223.5q0 -143 -54 -272.5t-145 -224t-218.5 -150t-268.5 -55.5zM809 59q165 0 303.5 83t218.5 227.5
t80 316.5t-80 316.5t-218.5 227.5t-303.5 83t-303.5 -83t-218.5 -227.5t-80 -316.5t80 -316.5t218.5 -227.5t303.5 -83zM563 1571l246 192l246 -192l-43 -51l-203 155l-203 -155z" />
    <glyph glyph-name="Otilde" unicode="&#xd5;" horiz-adv-x="1617" 
d="M809 -16q-111 0 -215.5 35.5t-189 100.5t-148 151.5t-98.5 193.5t-35 221q0 193 92.5 355t250 255t343.5 93q113 0 218 -35t189 -99.5t147.5 -151t97.5 -194t34 -223.5q0 -143 -54 -272.5t-145 -224t-218.5 -150t-268.5 -55.5zM809 59q165 0 303.5 83t218.5 227.5
t80 316.5t-80 316.5t-218.5 227.5t-303.5 83t-303.5 -83t-218.5 -227.5t-80 -316.5t80 -316.5t218.5 -227.5t303.5 -83zM569 1595q19 60 58.5 91.5t93.5 31.5q48 0 104 -39q49 -39 82 -39q52 0 80 78l64 -24q-19 -60 -58.5 -91.5t-93.5 -31.5q-48 0 -104 39q-49 39 -82 39
q-52 0 -80 -78z" />
    <glyph glyph-name="Odieresis" unicode="&#xd6;" horiz-adv-x="1617" 
d="M809 -16q-111 0 -215.5 35.5t-189 100.5t-148 151.5t-98.5 193.5t-35 221q0 193 92.5 355t250 255t343.5 93q113 0 218 -35t189 -99.5t147.5 -151t97.5 -194t34 -223.5q0 -143 -54 -272.5t-145 -224t-218.5 -150t-268.5 -55.5zM809 59q165 0 303.5 83t218.5 227.5
t80 316.5t-80 316.5t-218.5 227.5t-303.5 83t-303.5 -83t-218.5 -227.5t-80 -316.5t80 -316.5t218.5 -227.5t303.5 -83zM651 1589q-29 0 -46 18t-17 48q0 29 18 47t45 18q29 0 47.5 -18t18.5 -47t-19.5 -47.5t-46.5 -18.5zM965 1589q-27 0 -46.5 18.5t-19.5 47.5t18.5 47
t47.5 18q27 0 45 -18t18 -47q0 -30 -17 -48t-46 -18z" />
    <glyph glyph-name="multiply" unicode="&#xd7;" horiz-adv-x="880" 
d="M133 408l258 258l-258 258l49 49l258 -258l258 258l50 -49l-259 -258l259 -258l-50 -50l-258 258l-258 -258z" />
    <glyph glyph-name="Oslash" unicode="&#xd8;" horiz-adv-x="1617" 
d="M270 -12l107 151q-119 100 -186.5 242t-67.5 305q0 193 92.5 355t250 255t343.5 93q209 0 369 -109l104 150l66 -46l-107 -149q119 -100 186.5 -242.5t67.5 -306.5q0 -143 -54 -272.5t-145 -224t-218.5 -150t-268.5 -55.5q-201 0 -369 108l-104 -149zM1133 1217
q-140 96 -324 96q-165 0 -303.5 -83t-218.5 -227.5t-80 -316.5q0 -145 57 -270t158 -213zM809 59q165 0 303.5 83t218.5 227.5t80 316.5q0 145 -57 270t-158 213l-711 -1013q142 -97 324 -97z" />
    <glyph glyph-name="Ugrave" unicode="&#xd9;" horiz-adv-x="1361" 
d="M684 -16q-221 0 -355 153.5t-134 405.5v829h79v-821q0 -223 112 -357.5t298 -134.5q184 0 295 134.5t111 357.5v821h77v-829q0 -252 -133 -405.5t-350 -153.5zM461 1718l65 56l181 -242l-41 -33z" />
    <glyph glyph-name="Uacute" unicode="&#xda;" horiz-adv-x="1361" 
d="M684 -16q-221 0 -355 153.5t-134 405.5v829h79v-821q0 -223 112 -357.5t298 -134.5q184 0 295 134.5t111 357.5v821h77v-829q0 -252 -133 -405.5t-350 -153.5zM643 1532l180 242l66 -56l-205 -219z" />
    <glyph glyph-name="Ucircumflex" unicode="&#xdb;" horiz-adv-x="1361" 
d="M684 -16q-221 0 -355 153.5t-134 405.5v829h79v-821q0 -223 112 -357.5t298 -134.5q184 0 295 134.5t111 357.5v821h77v-829q0 -252 -133 -405.5t-350 -153.5zM436 1571l246 192l246 -192l-43 -51l-203 155l-203 -155z" />
    <glyph glyph-name="Udieresis" unicode="&#xdc;" horiz-adv-x="1361" 
d="M684 -16q-221 0 -355 153.5t-134 405.5v829h79v-821q0 -223 112 -357.5t298 -134.5q184 0 295 134.5t111 357.5v821h77v-829q0 -252 -133 -405.5t-350 -153.5zM524 1589q-29 0 -46 18t-17 48q0 29 18 47t45 18q29 0 47.5 -18t18.5 -47t-19.5 -47.5t-46.5 -18.5zM838 1589
q-27 0 -46.5 18.5t-19.5 47.5t18.5 47t47.5 18q27 0 45 -18t18 -47q0 -30 -17 -48t-46 -18z" />
    <glyph glyph-name="Yacute" unicode="&#xdd;" horiz-adv-x="1064" 
d="M492 551l-431 821h91l380 -731l383 731h89l-431 -821v-551h-81v551zM494 1532l180 242l65 -56l-204 -219z" />
    <glyph glyph-name="Thorn" unicode="&#xde;" horiz-adv-x="1259" 
d="M205 1372h80v-305h428q204 0 329 -102.5t125 -268.5t-125 -267t-329 -101h-428v-328h-80v1372zM711 401q173 0 273.5 80t100.5 215t-102 216t-272 81h-426v-592h426z" />
    <glyph glyph-name="germandbls" unicode="&#xdf;" horiz-adv-x="1038" 
d="M657 -16q-65 0 -117.5 16.5t-66.5 30.5l35 63q57 -41 151 -41q107 0 169.5 62t62.5 153q0 58 -32.5 111.5t-113.5 126.5q-102 91 -143 164t-41 159q0 104 57.5 191t186.5 178q-23 85 -98.5 135.5t-174.5 50.5q-134 0 -213 -90.5t-79 -242.5v-1051h-76v1051q0 179 102 291
t266 112q147 0 248 -87.5t101 -199.5q-131 -85 -188.5 -163.5t-57.5 -174.5q0 -72 34.5 -131t125.5 -141q94 -85 133 -150.5t39 -138.5q0 -120 -85.5 -202t-224.5 -82z" />
    <glyph glyph-name="agrave" unicode="&#xe0;" horiz-adv-x="968" 
d="M399 -16q-139 0 -228 80.5t-89 203.5q0 130 97 214.5t249 84.5q93 0 178 -32t144 -91v125q0 147 -76.5 233.5t-204.5 86.5q-80 0 -150.5 -37.5t-119.5 -106.5l-58 50q66 78 153 120.5t183 42.5q157 0 252.5 -106t95.5 -281v-571h-75v195q-52 -99 -143.5 -155t-207.5 -56z
M408 53q136 0 228 85.5t109 226.5q-135 135 -313 135q-123 0 -198.5 -64t-75.5 -168q0 -99 67.5 -157t182.5 -58zM260 1288l66 55l180 -241l-41 -33z" />
    <glyph glyph-name="aacute" unicode="&#xe1;" horiz-adv-x="968" 
d="M399 -16q-139 0 -228 80.5t-89 203.5q0 130 97 214.5t249 84.5q93 0 178 -32t144 -91v125q0 147 -76.5 233.5t-204.5 86.5q-80 0 -150.5 -37.5t-119.5 -106.5l-58 50q66 78 153 120.5t183 42.5q157 0 252.5 -106t95.5 -281v-571h-75v195q-52 -99 -143.5 -155t-207.5 -56z
M408 53q136 0 228 85.5t109 226.5q-135 135 -313 135q-123 0 -198.5 -64t-75.5 -168q0 -99 67.5 -157t182.5 -58zM442 1102l181 241l65 -55l-205 -219z" />
    <glyph glyph-name="acircumflex" unicode="&#xe2;" horiz-adv-x="968" 
d="M399 -16q-139 0 -228 80.5t-89 203.5q0 130 97 214.5t249 84.5q93 0 178 -32t144 -91v125q0 147 -76.5 233.5t-204.5 86.5q-80 0 -150.5 -37.5t-119.5 -106.5l-58 50q66 78 153 120.5t183 42.5q157 0 252.5 -106t95.5 -281v-571h-75v195q-52 -99 -143.5 -155t-207.5 -56z
M408 53q136 0 228 85.5t109 226.5q-135 135 -313 135q-123 0 -198.5 -64t-75.5 -168q0 -99 67.5 -157t182.5 -58zM236 1141l245 192l246 -192l-43 -51l-203 155l-202 -155z" />
    <glyph glyph-name="atilde" unicode="&#xe3;" horiz-adv-x="968" 
d="M399 -16q-139 0 -228 80.5t-89 203.5q0 130 97 214.5t249 84.5q93 0 178 -32t144 -91v125q0 147 -76.5 233.5t-204.5 86.5q-80 0 -150.5 -37.5t-119.5 -106.5l-58 50q66 78 153 120.5t183 42.5q157 0 252.5 -106t95.5 -281v-571h-75v195q-52 -99 -143.5 -155t-207.5 -56z
M408 53q136 0 228 85.5t109 226.5q-135 135 -313 135q-123 0 -198.5 -64t-75.5 -168q0 -99 67.5 -157t182.5 -58zM242 1165q19 60 58 91.5t93 31.5q49 0 105 -39q49 -39 82 -39q51 0 79 78l64 -24q-19 -60 -58.5 -91.5t-93.5 -31.5q-48 0 -104 39q-49 39 -82 39
q-52 0 -80 -78z" />
    <glyph glyph-name="adieresis" unicode="&#xe4;" horiz-adv-x="968" 
d="M399 -16q-139 0 -228 80.5t-89 203.5q0 130 97 214.5t249 84.5q93 0 178 -32t144 -91v125q0 147 -76.5 233.5t-204.5 86.5q-80 0 -150.5 -37.5t-119.5 -106.5l-58 50q66 78 153 120.5t183 42.5q157 0 252.5 -106t95.5 -281v-571h-75v195q-52 -99 -143.5 -155t-207.5 -56z
M408 53q136 0 228 85.5t109 226.5q-135 135 -313 135q-123 0 -198.5 -64t-75.5 -168q0 -99 67.5 -157t182.5 -58zM324 1159q-29 0 -46.5 18.5t-17.5 47.5t18.5 47t45.5 18q29 0 47 -18t18 -47t-19 -47.5t-46 -18.5zM637 1159q-27 0 -46.5 18.5t-19.5 47.5t18.5 47t47.5 18
q27 0 45 -18t18 -47q0 -30 -17 -48t-46 -18z" />
    <glyph glyph-name="aring" unicode="&#xe5;" horiz-adv-x="968" 
d="M399 -16q-139 0 -228 80.5t-89 203.5q0 130 97 214.5t249 84.5q93 0 178 -32t144 -91v125q0 147 -76.5 233.5t-204.5 86.5q-80 0 -150.5 -37.5t-119.5 -106.5l-58 50q66 78 153 120.5t183 42.5q157 0 252.5 -106t95.5 -281v-571h-75v195q-52 -99 -143.5 -155t-207.5 -56z
M408 53q136 0 228 85.5t109 226.5q-135 135 -313 135q-123 0 -198.5 -64t-75.5 -168q0 -99 67.5 -157t182.5 -58zM481 1049q-71 0 -122.5 51.5t-51.5 120.5t51.5 120.5t122.5 51.5q69 0 121.5 -52t52.5 -120q0 -69 -51.5 -120.5t-122.5 -51.5zM481 1110q44 0 74.5 31
t30.5 80q0 48 -30.5 79t-74.5 31t-74 -30.5t-30 -79.5t30 -80t74 -31z" />
    <glyph glyph-name="ae" unicode="&#xe6;" horiz-adv-x="1689" 
d="M399 -16q-145 0 -231 79t-86 205q0 129 96 214t244 85q92 0 175 -32t142 -91v125q0 147 -75 233.5t-199 86.5q-79 0 -149 -37.5t-117 -106.5l-58 50q63 78 149 120.5t183 42.5q121 0 203.5 -63.5t118.5 -179.5q56 112 156 177.5t223 65.5q180 0 301.5 -135.5
t121.5 -337.5q0 -20 -2 -43h-780q8 -172 113.5 -279.5t267.5 -107.5q189 0 322 160l51 -43q-147 -188 -375 -188q-141 0 -250 72.5t-164 197.5q-43 -124 -145 -197t-236 -73zM401 53q137 0 227 83t107 229q-135 135 -309 135q-121 0 -194.5 -64t-73.5 -168q0 -98 64 -156.5
t179 -58.5zM1520 512q-4 164 -102.5 269.5t-243.5 105.5q-147 0 -246 -105t-111 -270h703z" />
    <glyph glyph-name="ccedilla" unicode="&#xe7;" horiz-adv-x="1036" 
d="M543 -508q-103 0 -166 66l39 59q49 -55 127 -55q56 0 88.5 30t32.5 84q0 55 -36 86t-104 31h-57l55 195q-185 20 -302.5 155.5t-117.5 327.5q0 209 135 348t338 139q212 0 371 -167l-57 -52q-140 146 -318 146q-169 0 -279 -116.5t-110 -293.5q0 -184 116.5 -301
t297.5 -117q175 0 309 140l49 -43q-144 -167 -360 -170l-33 -123q85 -13 131.5 -62.5t46.5 -122.5q0 -82 -54 -133t-142 -51z" />
    <glyph glyph-name="egrave" unicode="&#xe8;" horiz-adv-x="1095" 
d="M584 -16q-210 0 -346 136t-136 349q0 209 131 349t324 140q192 0 319.5 -135t127.5 -338q0 -9 -3 -43h-821q12 -173 123.5 -280t282.5 -107q205 0 338 160l51 -43q-147 -188 -391 -188zM926 512q-4 164 -108.5 269.5t-258.5 105.5q-155 0 -260 -105t-117 -270h744z
M332 1288l65 55l181 -241l-41 -33z" />
    <glyph glyph-name="eacute" unicode="&#xe9;" horiz-adv-x="1095" 
d="M584 -16q-210 0 -346 136t-136 349q0 209 131 349t324 140q192 0 319.5 -135t127.5 -338q0 -9 -3 -43h-821q12 -173 123.5 -280t282.5 -107q205 0 338 160l51 -43q-147 -188 -391 -188zM926 512q-4 164 -108.5 269.5t-258.5 105.5q-155 0 -260 -105t-117 -270h744z
M514 1102l180 241l66 -55l-205 -219z" />
    <glyph glyph-name="ecircumflex" unicode="&#xea;" horiz-adv-x="1095" 
d="M584 -16q-210 0 -346 136t-136 349q0 209 131 349t324 140q192 0 319.5 -135t127.5 -338q0 -9 -3 -43h-821q12 -173 123.5 -280t282.5 -107q205 0 338 160l51 -43q-147 -188 -391 -188zM926 512q-4 164 -108.5 269.5t-258.5 105.5q-155 0 -260 -105t-117 -270h744z
M307 1141l246 192l246 -192l-43 -51l-203 155l-203 -155z" />
    <glyph glyph-name="edieresis" unicode="&#xeb;" horiz-adv-x="1095" 
d="M584 -16q-210 0 -346 136t-136 349q0 209 131 349t324 140q192 0 319.5 -135t127.5 -338q0 -9 -3 -43h-821q12 -173 123.5 -280t282.5 -107q205 0 338 160l51 -43q-147 -188 -391 -188zM926 512q-4 164 -108.5 269.5t-258.5 105.5q-155 0 -260 -105t-117 -270h744z
M395 1159q-29 0 -46 18t-17 48q0 29 18 47t45 18q29 0 47.5 -18t18.5 -47t-19.5 -47.5t-46.5 -18.5zM709 1159q-27 0 -46.5 18.5t-19.5 47.5t18.5 47t47.5 18q27 0 45 -18t18 -47q0 -30 -17 -48t-46 -18z" />
    <glyph glyph-name="igrave" unicode="&#xec;" horiz-adv-x="403" 
d="M164 942h76v-942h-76v942zM-18 1288l65 55l180 -241l-41 -33z" />
    <glyph glyph-name="iacute" unicode="&#xed;" horiz-adv-x="403" 
d="M164 942h76v-942h-76v942zM164 1102l180 241l66 -55l-205 -219z" />
    <glyph glyph-name="icircumflex" unicode="&#xee;" horiz-adv-x="403" 
d="M164 942h76v-942h-76v942zM-43 1141l246 192l246 -192l-43 -51l-203 155l-203 -155z" />
    <glyph glyph-name="idieresis" unicode="&#xef;" horiz-adv-x="419" 
d="M172 942h76v-942h-76v942zM53 1159q-29 0 -46 18t-17 48q0 29 18 47t45 18q29 0 47.5 -18t18.5 -47t-19.5 -47.5t-46.5 -18.5zM367 1159q-27 0 -46.5 18.5t-19.5 47.5t18.5 47t47.5 18q27 0 45 -18t18 -47q0 -30 -17 -48t-46 -18z" />
    <glyph glyph-name="eth" unicode="&#xf0;" horiz-adv-x="1081" 
d="M530 -20q-190 0 -314 136t-124 339q0 199 122 333t302 134q121 0 222 -63.5t157 -170.5q-47 282 -305 504l-285 -164l-33 55l265 154q-115 88 -236 154l37 63q146 -83 264 -178l197 113l32 -58l-176 -100q166 -148 245 -319t79 -382q0 -241 -124.5 -395.5t-324.5 -154.5z
M530 51q156 0 257.5 113t101.5 289q0 173 -101.5 285t-257.5 112q-157 0 -258.5 -112.5t-101.5 -284.5q0 -174 102 -288t258 -114z" />
    <glyph glyph-name="ntilde" unicode="&#xf1;" horiz-adv-x="1044" 
d="M164 942h76v-168q48 87 130.5 135.5t186.5 48.5q153 0 248.5 -107.5t95.5 -279.5v-571h-76v553q0 153 -75.5 244.5t-202.5 91.5q-130 0 -218.5 -96.5t-88.5 -239.5v-553h-76v942zM293 1165q19 60 58 91.5t93 31.5q49 0 105 -39q49 -39 82 -39q52 0 80 78l63 -24
q-19 -60 -58 -91.5t-93 -31.5q-49 0 -105 39q-49 39 -82 39q-52 0 -80 -78z" />
    <glyph glyph-name="ograve" unicode="&#xf2;" horiz-adv-x="1146" 
d="M573 -16q-129 0 -237.5 64.5t-171 176.5t-62.5 246q0 203 137.5 345t333.5 142t333.5 -142t137.5 -345q0 -134 -62.5 -246t-171 -176.5t-237.5 -64.5zM573 55q165 0 279.5 121.5t114.5 294.5q0 172 -115 294t-279 122t-278.5 -122t-114.5 -294t114.5 -294t278.5 -122z
M352 1288l66 55l180 -241l-41 -33z" />
    <glyph glyph-name="oacute" unicode="&#xf3;" horiz-adv-x="1146" 
d="M573 -16q-129 0 -237.5 64.5t-171 176.5t-62.5 246q0 203 137.5 345t333.5 142t333.5 -142t137.5 -345q0 -134 -62.5 -246t-171 -176.5t-237.5 -64.5zM573 55q165 0 279.5 121.5t114.5 294.5q0 172 -115 294t-279 122t-278.5 -122t-114.5 -294t114.5 -294t278.5 -122z
M535 1102l180 241l65 -55l-205 -219z" />
    <glyph glyph-name="ocircumflex" unicode="&#xf4;" horiz-adv-x="1146" 
d="M573 -16q-129 0 -237.5 64.5t-171 176.5t-62.5 246q0 203 137.5 345t333.5 142t333.5 -142t137.5 -345q0 -134 -62.5 -246t-171 -176.5t-237.5 -64.5zM573 55q165 0 279.5 121.5t114.5 294.5q0 172 -115 294t-279 122t-278.5 -122t-114.5 -294t114.5 -294t278.5 -122z
M328 1141l245 192l246 -192l-43 -51l-203 155l-202 -155z" />
    <glyph glyph-name="otilde" unicode="&#xf5;" horiz-adv-x="1146" 
d="M573 -16q-129 0 -237.5 64.5t-171 176.5t-62.5 246q0 203 137.5 345t333.5 142t333.5 -142t137.5 -345q0 -134 -62.5 -246t-171 -176.5t-237.5 -64.5zM573 55q165 0 279.5 121.5t114.5 294.5q0 172 -115 294t-279 122t-278.5 -122t-114.5 -294t114.5 -294t278.5 -122z
M334 1165q19 60 58 91.5t93 31.5q49 0 105 -39q49 -39 82 -39q52 0 80 78l63 -24q-19 -60 -58 -91.5t-93 -31.5q-49 0 -105 39q-49 39 -82 39q-52 0 -80 -78z" />
    <glyph glyph-name="odieresis" unicode="&#xf6;" horiz-adv-x="1146" 
d="M573 -16q-129 0 -237.5 64.5t-171 176.5t-62.5 246q0 203 137.5 345t333.5 142t333.5 -142t137.5 -345q0 -134 -62.5 -246t-171 -176.5t-237.5 -64.5zM573 55q165 0 279.5 121.5t114.5 294.5q0 172 -115 294t-279 122t-278.5 -122t-114.5 -294t114.5 -294t278.5 -122z
M416 1159q-29 0 -46.5 18.5t-17.5 47.5t18.5 47t45.5 18q29 0 47 -18t18 -47t-19 -47.5t-46 -18.5zM729 1159q-27 0 -46 18.5t-19 47.5t18 47t47 18q27 0 45.5 -18t18.5 -47t-17.5 -47.5t-46.5 -18.5z" />
    <glyph glyph-name="divide" unicode="&#xf7;" horiz-adv-x="880" 
d="M442 293q-29 0 -47 18t-18 47t19 47.5t46 18.5q29 0 46.5 -18.5t17.5 -47.5t-18.5 -47t-45.5 -18zM61 702h758v-73h-758v73zM442 907q-27 0 -46 18.5t-19 47.5t18 47t47 18q27 0 45.5 -18t18.5 -47t-17.5 -47.5t-46.5 -18.5z" />
    <glyph glyph-name="oslash" unicode="&#xf8;" horiz-adv-x="1146" 
d="M190 -10l76 108q-164 148 -164 373q0 203 137.5 345t333.5 142q130 0 246 -69l76 106l61 -43l-75 -108q77 -69 120 -166t43 -207q0 -134 -62.5 -246t-171 -176.5t-237.5 -64.5q-139 0 -245 69l-76 -106zM778 827q-91 60 -205 60q-164 0 -278.5 -122t-114.5 -294
q0 -91 34.5 -171t96.5 -138zM573 55q165 0 279.5 121.5t114.5 294.5q0 182 -129 311l-467 -667q88 -60 202 -60z" />
    <glyph glyph-name="ugrave" unicode="&#xf9;" 
d="M481 -16q-152 0 -245 107.5t-93 279.5v571h76v-553q0 -152 75 -244t200 -92q129 0 215 96.5t86 239.5v553h75v-942h-75v166q-48 -86 -130 -134t-184 -48zM285 1288l65 55l180 -241l-41 -33z" />
    <glyph glyph-name="uacute" unicode="&#xfa;" 
d="M481 -16q-152 0 -245 107.5t-93 279.5v571h76v-553q0 -152 75 -244t200 -92q129 0 215 96.5t86 239.5v553h75v-942h-75v166q-48 -86 -130 -134t-184 -48zM467 1102l180 241l66 -55l-205 -219z" />
    <glyph glyph-name="ucircumflex" unicode="&#xfb;" 
d="M481 -16q-152 0 -245 107.5t-93 279.5v571h76v-553q0 -152 75 -244t200 -92q129 0 215 96.5t86 239.5v553h75v-942h-75v166q-48 -86 -130 -134t-184 -48zM260 1141l246 192l246 -192l-43 -51l-203 155l-203 -155z" />
    <glyph glyph-name="udieresis" unicode="&#xfc;" 
d="M481 -16q-152 0 -245 107.5t-93 279.5v571h76v-553q0 -152 75 -244t200 -92q129 0 215 96.5t86 239.5v553h75v-942h-75v166q-48 -86 -130 -134t-184 -48zM348 1159q-29 0 -46 18t-17 48q0 29 18 47t45 18q29 0 47.5 -18t18.5 -47t-19.5 -47.5t-46.5 -18.5zM662 1159
q-27 0 -46.5 18.5t-19.5 47.5t18.5 47t47.5 18q27 0 45 -18t18 -47q0 -30 -17 -48t-46 -18z" />
    <glyph glyph-name="yacute" unicode="&#xfd;" horiz-adv-x="901" 
d="M399 0l-348 942h84l307 -833l330 833h78l-576 -1454h-77zM416 1102l180 241l66 -55l-205 -219z" />
    <glyph glyph-name="thorn" unicode="&#xfe;" horiz-adv-x="1165" 
d="M608 55q165 0 271 118t106 298t-105 298t-268 118q-165 0 -268.5 -117.5t-103.5 -298.5q0 -182 102.5 -299t265.5 -117zM164 1454h76v-727q55 108 153 169.5t225 61.5q191 0 318 -139t127 -348q0 -210 -127 -348.5t-322 -138.5q-125 0 -222 61.5t-152 169.5v-727h-76
v1966z" />
    <glyph glyph-name="ydieresis" unicode="&#xff;" horiz-adv-x="901" 
d="M399 0l-348 942h84l307 -833l330 833h78l-576 -1454h-77zM297 1159q-29 0 -46.5 18.5t-17.5 47.5t18.5 47t45.5 18q29 0 47 -18t18 -47t-19 -47.5t-46 -18.5zM610 1159q-27 0 -46 18.5t-19 47.5t18 47t47 18q27 0 45.5 -18t18.5 -47t-17.5 -47.5t-46.5 -18.5z" />
    <glyph glyph-name="Amacron" unicode="&#x100;" horiz-adv-x="1269" 
d="M621 1413h30l516 -1413h-86l-151 418h-592l-152 -418h-84zM903 492l-268 739l-270 -739h538zM440 1686h389v-70h-389v70z" />
    <glyph glyph-name="amacron" unicode="&#x101;" horiz-adv-x="968" 
d="M399 -16q-139 0 -228 80.5t-89 203.5q0 130 97 214.5t249 84.5q93 0 178 -32t144 -91v125q0 147 -76.5 233.5t-204.5 86.5q-80 0 -150.5 -37.5t-119.5 -106.5l-58 50q66 78 153 120.5t183 42.5q157 0 252.5 -106t95.5 -281v-571h-75v195q-52 -99 -143.5 -155t-207.5 -56z
M408 53q136 0 228 85.5t109 226.5q-135 135 -313 135q-123 0 -198.5 -64t-75.5 -168q0 -99 67.5 -157t182.5 -58zM287 1255h389v-69h-389v69z" />
    <glyph glyph-name="Abreve" unicode="&#x102;" horiz-adv-x="1269" 
d="M621 1413h30l516 -1413h-86l-151 418h-592l-152 -418h-84zM903 492l-268 739l-270 -739h538zM635 1516q-92 0 -148.5 61t-56.5 160h68q0 -68 38 -110t99 -42t99 42t38 110h68q0 -99 -56.5 -160t-148.5 -61z" />
    <glyph glyph-name="abreve" unicode="&#x103;" horiz-adv-x="968" 
d="M399 -16q-139 0 -228 80.5t-89 203.5q0 130 97 214.5t249 84.5q93 0 178 -32t144 -91v125q0 147 -76.5 233.5t-204.5 86.5q-80 0 -150.5 -37.5t-119.5 -106.5l-58 50q66 78 153 120.5t183 42.5q157 0 252.5 -106t95.5 -281v-571h-75v195q-52 -99 -143.5 -155t-207.5 -56z
M408 53q136 0 228 85.5t109 226.5q-135 135 -313 135q-123 0 -198.5 -64t-75.5 -168q0 -99 67.5 -157t182.5 -58zM481 1085q-92 0 -148.5 61.5t-56.5 160.5h68q0 -68 38 -110t99 -42t99 42t38 110h68q0 -99 -56.5 -160.5t-148.5 -61.5z" />
    <glyph glyph-name="Aogonek" unicode="&#x104;" horiz-adv-x="1269" 
d="M1055 -504q-96 0 -154.5 54.5t-58.5 142.5q0 179 252 307h-13l-151 418h-592l-152 -418h-84l519 1413h30l516 -1413q-136 -95 -192.5 -159.5t-56.5 -135.5q0 -66 38.5 -102.5t104.5 -36.5q41 0 90 12v-67q-34 -15 -96 -15zM903 492l-268 739l-270 -739h538z" />
    <glyph glyph-name="aogonek" unicode="&#x105;" horiz-adv-x="968" 
d="M408 53q136 0 228 85.5t109 226.5q-135 135 -313 135q-123 0 -198.5 -64t-75.5 -168q0 -99 67.5 -157t182.5 -58zM713 -504q-96 0 -154.5 54.5t-58.5 142.5q0 179 252 307h-2v195q-52 -99 -143.5 -155t-207.5 -56q-139 0 -228 80.5t-89 203.5q0 130 97 214.5t249 84.5
q93 0 178 -32t144 -91v125q0 147 -76.5 233.5t-204.5 86.5q-80 0 -150.5 -37.5t-119.5 -106.5l-58 50q66 78 153 120.5t183 42.5q157 0 252.5 -106t95.5 -281v-571q-136 -95 -193 -159.5t-57 -135.5q0 -65 38.5 -102t105.5 -37q41 0 90 12v-67q-34 -15 -96 -15z" />
    <glyph glyph-name="Cacute" unicode="&#x106;" horiz-adv-x="1423" 
d="M807 -16q-194 0 -351.5 93.5t-245 252.5t-87.5 350q0 195 91.5 358t250.5 257t350 94q144 0 272 -54.5t220 -156.5l-62 -52q-81 90 -192.5 137.5t-237.5 47.5q-168 0 -308 -84t-220 -229t-80 -318q0 -171 76 -312t216 -224t316 -83q270 0 449 191l57 -49
q-101 -109 -234.5 -164t-279.5 -55zM750 1532l180 242l65 -56l-204 -219z" />
    <glyph glyph-name="cacute" unicode="&#x107;" horiz-adv-x="1036" 
d="M586 -16q-210 0 -347 138t-137 349q0 209 135 348t338 139q212 0 371 -167l-57 -52q-140 146 -318 146q-169 0 -279 -116.5t-110 -293.5q0 -184 116.5 -301t297.5 -117q175 0 309 140l49 -43q-147 -170 -368 -170zM530 1102l181 241l65 -55l-205 -219z" />
    <glyph glyph-name="Ccircumflex" unicode="&#x108;" horiz-adv-x="1423" 
d="M807 -16q-194 0 -351.5 93.5t-245 252.5t-87.5 350q0 195 91.5 358t250.5 257t350 94q144 0 272 -54.5t220 -156.5l-62 -52q-81 90 -192.5 137.5t-237.5 47.5q-168 0 -308 -84t-220 -229t-80 -318q0 -171 76 -312t216 -224t316 -83q270 0 449 191l57 -49
q-101 -109 -234.5 -164t-279.5 -55zM543 1571l245 192l246 -192l-43 -51l-203 155l-202 -155z" />
    <glyph glyph-name="ccircumflex" unicode="&#x109;" horiz-adv-x="1036" 
d="M586 -16q-210 0 -347 138t-137 349q0 209 135 348t338 139q212 0 371 -167l-57 -52q-140 146 -318 146q-169 0 -279 -116.5t-110 -293.5q0 -184 116.5 -301t297.5 -117q175 0 309 140l49 -43q-147 -170 -368 -170zM324 1141l245 192l246 -192l-43 -51l-203 155l-202 -155
z" />
    <glyph glyph-name="Cdotaccent" unicode="&#x10a;" horiz-adv-x="1423" 
d="M807 -16q-194 0 -351.5 93.5t-245 252.5t-87.5 350q0 195 91.5 358t250.5 257t350 94q144 0 272 -54.5t220 -156.5l-62 -52q-81 90 -192.5 137.5t-237.5 47.5q-168 0 -308 -84t-220 -229t-80 -318q0 -171 76 -312t216 -224t316 -83q270 0 449 191l57 -49
q-101 -109 -234.5 -164t-279.5 -55zM791 1589q-27 0 -46.5 18.5t-19.5 47.5t18.5 47t47.5 18q27 0 45 -18t18 -47q0 -30 -17 -48t-46 -18z" />
    <glyph glyph-name="cdotaccent" unicode="&#x10b;" horiz-adv-x="1036" 
d="M586 -16q-210 0 -347 138t-137 349q0 209 135 348t338 139q212 0 371 -167l-57 -52q-140 146 -318 146q-169 0 -279 -116.5t-110 -293.5q0 -184 116.5 -301t297.5 -117q175 0 309 140l49 -43q-147 -170 -368 -170zM571 1159q-27 0 -46 18.5t-19 47.5t18 47t47 18
q27 0 45.5 -18t18.5 -47t-17.5 -47.5t-46.5 -18.5z" />
    <glyph glyph-name="Ccaron" unicode="&#x10c;" horiz-adv-x="1423" 
d="M807 -16q-194 0 -351.5 93.5t-245 252.5t-87.5 350q0 195 91.5 358t250.5 257t350 94q144 0 272 -54.5t220 -156.5l-62 -52q-81 90 -192.5 137.5t-237.5 47.5q-168 0 -308 -84t-220 -229t-80 -318q0 -171 76 -312t216 -224t316 -83q270 0 449 191l57 -49
q-101 -109 -234.5 -164t-279.5 -55zM543 1708l43 51l202 -155l203 155l43 -51l-246 -192z" />
    <glyph glyph-name="ccaron" unicode="&#x10d;" horiz-adv-x="1036" 
d="M586 -16q-210 0 -347 138t-137 349q0 209 135 348t338 139q212 0 371 -167l-57 -52q-140 146 -318 146q-169 0 -279 -116.5t-110 -293.5q0 -184 116.5 -301t297.5 -117q175 0 309 140l49 -43q-147 -170 -368 -170zM324 1278l43 51l202 -155l203 155l43 -51l-246 -193z
" />
    <glyph glyph-name="Dcaron" unicode="&#x10e;" horiz-adv-x="1495" 
d="M205 1372h413q214 0 386.5 -88.5t270 -245t97.5 -350.5q0 -197 -97.5 -354.5t-270 -245.5t-386.5 -88h-413v1372zM618 74q143 0 267.5 46.5t213 127.5t139 195t50.5 245q0 175 -86.5 314.5t-239.5 217.5t-344 78h-333v-1224h333zM469 1708l43 51l203 -155l203 155l43 -51
l-246 -192z" />
    <glyph glyph-name="dcaron" unicode="&#x10f;" horiz-adv-x="1286" 
d="M553 -16q-195 0 -323 138.5t-128 348.5t129 348.5t326 138.5q127 0 226 -61.5t155 -171.5v729h76v-1454h-76v217q-56 -110 -156.5 -171.5t-228.5 -61.5zM559 55q166 0 272.5 118t106.5 298q0 182 -105 299t-270 117q-167 0 -275 -118.5t-108 -297.5t107 -297.5
t272 -118.5zM1130 1122l76 346l101 -26l-119 -334z" />
    <glyph glyph-name="Dcroat" unicode="&#x110;" horiz-adv-x="1556" 
d="M266 657h-225v70h225v645h414q214 0 386.5 -88.5t270 -245t97.5 -350.5q0 -197 -97.5 -354.5t-270 -245.5t-386.5 -88h-414v657zM680 74q143 0 267.5 46.5t213 127.5t139 195t50.5 245q0 175 -86.5 314.5t-239.5 217.5t-344 78h-334v-571h287v-70h-287v-583h334z" />
    <glyph glyph-name="dslash" unicode="&#x111;" horiz-adv-x="1187" 
d="M553 -16q-195 0 -323 138.5t-128 348.5t129 348.5t326 138.5q127 0 226 -61.5t155 -171.5v438h-358v66h358v225h76v-225h112v-66h-112v-1163h-76v217q-56 -110 -156.5 -171.5t-228.5 -61.5zM559 55q166 0 272.5 118t106.5 298q0 182 -105 299t-270 117
q-167 0 -275 -118.5t-108 -297.5t107 -297.5t272 -118.5z" />
    <glyph glyph-name="Emacron" unicode="&#x112;" horiz-adv-x="1003" 
d="M205 1372h676v-74h-596v-550h463v-74h-463v-600h606v-74h-686v1372zM348 1686h389v-70h-389v70z" />
    <glyph glyph-name="emacron" unicode="&#x113;" horiz-adv-x="1095" 
d="M584 -16q-210 0 -346 136t-136 349q0 209 131 349t324 140q192 0 319.5 -135t127.5 -338q0 -9 -3 -43h-821q12 -173 123.5 -280t282.5 -107q205 0 338 160l51 -43q-147 -188 -391 -188zM926 512q-4 164 -108.5 269.5t-258.5 105.5q-155 0 -260 -105t-117 -270h744z
M358 1255h390v-69h-390v69z" />
    <glyph glyph-name="Ebreve" unicode="&#x114;" horiz-adv-x="1003" 
d="M205 1372h676v-74h-596v-550h463v-74h-463v-600h606v-74h-686v1372zM543 1516q-92 0 -148.5 61t-56.5 160h68q0 -68 38 -110t99 -42t99 42t38 110h68q0 -99 -56.5 -160t-148.5 -61z" />
    <glyph glyph-name="ebreve" unicode="&#x115;" horiz-adv-x="1095" 
d="M584 -16q-210 0 -346 136t-136 349q0 209 131 349t324 140q192 0 319.5 -135t127.5 -338q0 -9 -3 -43h-821q12 -173 123.5 -280t282.5 -107q205 0 338 160l51 -43q-147 -188 -391 -188zM926 512q-4 164 -108.5 269.5t-258.5 105.5q-155 0 -260 -105t-117 -270h744z
M553 1085q-92 0 -148.5 61.5t-56.5 160.5h68q0 -68 38 -110t99 -42t99 42t38 110h68q0 -99 -56.5 -160.5t-148.5 -61.5z" />
    <glyph glyph-name="Edotaccent" unicode="&#x116;" horiz-adv-x="1003" 
d="M205 1372h676v-74h-596v-550h463v-74h-463v-600h606v-74h-686v1372zM545 1589q-27 0 -46.5 18.5t-19.5 47.5t18.5 47t47.5 18q27 0 45 -18t18 -47q0 -30 -17 -48t-46 -18z" />
    <glyph glyph-name="edotaccent" unicode="&#x117;" horiz-adv-x="1095" 
d="M584 -16q-210 0 -346 136t-136 349q0 209 131 349t324 140q192 0 319.5 -135t127.5 -338q0 -9 -3 -43h-821q12 -173 123.5 -280t282.5 -107q205 0 338 160l51 -43q-147 -188 -391 -188zM926 512q-4 164 -108.5 269.5t-258.5 105.5q-155 0 -260 -105t-117 -270h744z
M555 1159q-27 0 -46.5 18.5t-19.5 47.5t18.5 47t47.5 18q27 0 45 -18t18 -47q0 -30 -17 -48t-46 -18z" />
    <glyph glyph-name="Eogonek" unicode="&#x118;" horiz-adv-x="1003" 
d="M778 -504q-96 0 -154.5 54.5t-58.5 142.5q0 179 252 307h-612v1372h676v-74h-596v-550h463v-74h-463v-600h606v-74q-136 -95 -193 -159.5t-57 -135.5q0 -66 38.5 -102.5t104.5 -36.5q40 0 90 12v-67q-34 -15 -96 -15z" />
    <glyph glyph-name="eogonek" unicode="&#x119;" horiz-adv-x="1095" 
d="M801 -504q-111 0 -178.5 62t-67.5 170q0 147 129 264q-44 -8 -104 -8q-207 0 -342.5 136t-135.5 349q0 209 131 349t324 140q192 0 319.5 -135t127.5 -338q0 -9 -3 -43h-821q12 -173 123.5 -280t282.5 -107q205 0 338 160l51 -43q-41 -52 -90 -90q-143 -103 -198.5 -186
t-55.5 -162q0 -81 46.5 -124.5t127.5 -43.5q47 0 100 12v-67q-43 -15 -104 -15zM926 512q0 163 -106 269t-261 106t-260 -105t-117 -270h744z" />
    <glyph glyph-name="Ecaron" unicode="&#x11a;" horiz-adv-x="1003" 
d="M205 1372h676v-74h-596v-550h463v-74h-463v-600h606v-74h-686v1372zM297 1708l43 51l203 -155l202 155l43 -51l-245 -192z" />
    <glyph glyph-name="ecaron" unicode="&#x11b;" horiz-adv-x="1095" 
d="M584 -16q-210 0 -346 136t-136 349q0 209 131 349t324 140q192 0 319.5 -135t127.5 -338q0 -9 -3 -43h-821q12 -173 123.5 -280t282.5 -107q205 0 338 160l51 -43q-147 -188 -391 -188zM926 512q-4 164 -108.5 269.5t-258.5 105.5q-155 0 -260 -105t-117 -270h744z
M307 1278l43 51l203 -155l203 155l43 -51l-246 -193z" />
    <glyph glyph-name="Gcircumflex" unicode="&#x11c;" horiz-adv-x="1495" 
d="M813 -16q-193 0 -352 93.5t-248.5 253.5t-89.5 351q0 145 54.5 276t146.5 225.5t219.5 150t267.5 55.5q144 0 274.5 -54.5t221.5 -156.5l-62 -52q-81 90 -194.5 137.5t-239.5 47.5q-165 0 -304 -83.5t-219.5 -229t-80.5 -318.5q0 -171 76 -312t216 -224t316 -83
q261 0 447 177v405h-476v74h555v-506q-99 -110 -236.5 -168.5t-291.5 -58.5zM543 1571l245 192l246 -192l-43 -51l-203 155l-202 -155z" />
    <glyph glyph-name="gcircumflex" unicode="&#x11d;" horiz-adv-x="1044" 
d="M512 324q132 0 217.5 80.5t85.5 203.5t-85.5 204t-217.5 81t-217.5 -81t-85.5 -204t85.5 -203.5t217.5 -80.5zM537 -442q163 0 261.5 65.5t98.5 171.5q0 104 -96.5 167t-257.5 63q-166 0 -265.5 -64t-99.5 -170q0 -104 99.5 -168.5t259.5 -64.5zM537 -512
q-192 0 -313.5 83.5t-121.5 215.5q0 85 54 151.5t149 102.5q-162 37 -162 154q0 105 117 145q-127 105 -127 268q0 152 108.5 253.5t268.5 101.5q74 0 135 -21h328v-70h-205q58 -48 90.5 -117t32.5 -147q0 -152 -108 -253t-271 -101q-96 0 -180 41q-54 0 -85.5 -25
t-31.5 -67q0 -51 49 -80t135 -29h168q180 0 293 -82.5t113 -214.5q0 -137 -121.5 -223t-314.5 -86zM291 1141l246 192l245 -192l-43 -51l-202 155l-203 -155z" />
    <glyph glyph-name="Gbreve" unicode="&#x11e;" horiz-adv-x="1495" 
d="M813 -16q-193 0 -352 93.5t-248.5 253.5t-89.5 351q0 145 54.5 276t146.5 225.5t219.5 150t267.5 55.5q144 0 274.5 -54.5t221.5 -156.5l-62 -52q-81 90 -194.5 137.5t-239.5 47.5q-165 0 -304 -83.5t-219.5 -229t-80.5 -318.5q0 -171 76 -312t216 -224t316 -83
q261 0 447 177v405h-476v74h555v-506q-99 -110 -236.5 -168.5t-291.5 -58.5zM788 1516q-92 0 -148 61t-56 160h67q0 -68 38 -110t99 -42t99.5 42t38.5 110h67q0 -99 -56.5 -160t-148.5 -61z" />
    <glyph glyph-name="gbreve" unicode="&#x11f;" horiz-adv-x="1044" 
d="M512 324q132 0 217.5 80.5t85.5 203.5t-85.5 204t-217.5 81t-217.5 -81t-85.5 -204t85.5 -203.5t217.5 -80.5zM537 -442q163 0 261.5 65.5t98.5 171.5q0 104 -96.5 167t-257.5 63q-166 0 -265.5 -64t-99.5 -170q0 -104 99.5 -168.5t259.5 -64.5zM537 -512
q-192 0 -313.5 83.5t-121.5 215.5q0 85 54 151.5t149 102.5q-162 37 -162 154q0 105 117 145q-127 105 -127 268q0 152 108.5 253.5t268.5 101.5q74 0 135 -21h328v-70h-205q58 -48 90.5 -117t32.5 -147q0 -152 -108 -253t-271 -101q-96 0 -180 41q-54 0 -85.5 -25
t-31.5 -67q0 -51 49 -80t135 -29h168q180 0 293 -82.5t113 -214.5q0 -137 -121.5 -223t-314.5 -86zM537 1085q-92 0 -148.5 61.5t-56.5 160.5h67q0 -68 38.5 -110t99.5 -42t99 42t38 110h67q0 -99 -56 -160.5t-148 -61.5z" />
    <glyph glyph-name="Gdotaccent" unicode="&#x120;" horiz-adv-x="1495" 
d="M813 -16q-193 0 -352 93.5t-248.5 253.5t-89.5 351q0 145 54.5 276t146.5 225.5t219.5 150t267.5 55.5q144 0 274.5 -54.5t221.5 -156.5l-62 -52q-81 90 -194.5 137.5t-239.5 47.5q-165 0 -304 -83.5t-219.5 -229t-80.5 -318.5q0 -171 76 -312t216 -224t316 -83
q261 0 447 177v405h-476v74h555v-506q-99 -110 -236.5 -168.5t-291.5 -58.5zM791 1589q-27 0 -46.5 18.5t-19.5 47.5t18.5 47t47.5 18q27 0 45 -18t18 -47q0 -30 -17 -48t-46 -18z" />
    <glyph glyph-name="gdotaccent" unicode="&#x121;" horiz-adv-x="1044" 
d="M512 324q132 0 217.5 80.5t85.5 203.5t-85.5 204t-217.5 81t-217.5 -81t-85.5 -204t85.5 -203.5t217.5 -80.5zM537 -442q163 0 261.5 65.5t98.5 171.5q0 104 -96.5 167t-257.5 63q-166 0 -265.5 -64t-99.5 -170q0 -104 99.5 -168.5t259.5 -64.5zM537 -512
q-192 0 -313.5 83.5t-121.5 215.5q0 85 54 151.5t149 102.5q-162 37 -162 154q0 105 117 145q-127 105 -127 268q0 152 108.5 253.5t268.5 101.5q74 0 135 -21h328v-70h-205q58 -48 90.5 -117t32.5 -147q0 -152 -108 -253t-271 -101q-96 0 -180 41q-54 0 -85.5 -25
t-31.5 -67q0 -51 49 -80t135 -29h168q180 0 293 -82.5t113 -214.5q0 -137 -121.5 -223t-314.5 -86zM539 1159q-27 0 -46.5 18.5t-19.5 47.5t18.5 47t47.5 18q27 0 45 -18t18 -47q0 -30 -17 -48t-46 -18z" />
    <glyph glyph-name="Gcommaaccent" unicode="&#x122;" horiz-adv-x="1495" 
d="M813 -16q-193 0 -352 93.5t-248.5 253.5t-89.5 351q0 145 54.5 276t146.5 225.5t219.5 150t267.5 55.5q144 0 274.5 -54.5t221.5 -156.5l-62 -52q-81 90 -194.5 137.5t-239.5 47.5q-165 0 -304 -83.5t-219.5 -229t-80.5 -318.5q0 -171 76 -312t216 -224t316 -83
q261 0 447 177v405h-476v74h555v-506q-99 -110 -236.5 -168.5t-291.5 -58.5zM657 -461l88 342l97 -31l-131 -329z" />
    <glyph glyph-name="gcommaaccent" unicode="&#x123;" horiz-adv-x="1044" 
d="M512 324q132 0 217.5 80.5t85.5 203.5t-85.5 204t-217.5 81t-217.5 -81t-85.5 -204t85.5 -203.5t217.5 -80.5zM537 -442q163 0 261.5 65.5t98.5 171.5q0 104 -96.5 167t-257.5 63q-166 0 -265.5 -64t-99.5 -170q0 -104 99.5 -168.5t259.5 -64.5zM537 -512
q-192 0 -313.5 83.5t-121.5 215.5q0 85 54 151.5t149 102.5q-162 37 -162 154q0 105 117 145q-127 105 -127 268q0 152 108.5 253.5t268.5 101.5q74 0 135 -21h328v-70h-205q58 -48 90.5 -117t32.5 -147q0 -152 -108 -253t-271 -101q-96 0 -180 41q-54 0 -85.5 -25
t-31.5 -67q0 -51 49 -80t135 -29h168q180 0 293 -82.5t113 -214.5q0 -137 -121.5 -223t-314.5 -86zM506 1110l110 334l52 -14l-70 -345z" />
    <glyph glyph-name="Hcircumflex" unicode="&#x124;" horiz-adv-x="1392" 
d="M205 1372h80v-643h823v643h80v-1372h-80v655h-823v-655h-80v1372zM451 1571l245 192l246 -192l-43 -51l-203 155l-202 -155z" />
    <glyph glyph-name="hcircumflex" unicode="&#x125;" horiz-adv-x="1044" 
d="M164 1454h76v-680q48 87 130.5 135.5t186.5 48.5q153 0 248.5 -107.5t95.5 -279.5v-571h-76v553q0 153 -75.5 244.5t-202.5 91.5q-130 0 -218.5 -96.5t-88.5 -239.5v-553h-76v1454zM287 1608l245 192l246 -192l-43 -52l-203 156l-202 -156z" />
    <glyph glyph-name="Hbar" unicode="&#x126;" horiz-adv-x="1454" 
d="M236 1014h-164v69h164v289h79v-289h824v289h80v-289h163v-69h-163v-1014h-80v655h-824v-655h-79v1014zM1139 729v285h-824v-285h824z" />
    <glyph glyph-name="hbar" unicode="&#x127;" horiz-adv-x="1064" 
d="M184 1163h-123v66h123v225h76v-225h348v-66h-348v-389q48 87 131 135.5t187 48.5q153 0 248.5 -107.5t95.5 -279.5v-571h-76v553q0 153 -76 244.5t-203 91.5q-130 0 -218.5 -96.5t-88.5 -239.5v-553h-76v1163z" />
    <glyph glyph-name="Imacron" unicode="&#x12a;" horiz-adv-x="489" 
d="M205 1372h80v-1372h-80v1372zM51 1686h389v-70h-389v70z" />
    <glyph glyph-name="imacron" unicode="&#x12b;" horiz-adv-x="403" 
d="M164 942h76v-942h-76v942zM8 1255h389v-69h-389v69z" />
    <glyph glyph-name="Ibreve" unicode="&#x12c;" horiz-adv-x="489" 
d="M205 1372h80v-1372h-80v1372zM246 1516q-92 0 -148.5 61t-56.5 160h68q0 -68 38 -110t99 -42t99 42t38 110h68q0 -99 -56.5 -160t-148.5 -61z" />
    <glyph glyph-name="ibreve" unicode="&#x12d;" horiz-adv-x="403" 
d="M164 942h76v-942h-76v942zM203 1085q-92 0 -148.5 61.5t-56.5 160.5h68q0 -68 38 -110t99 -42t99 42t38 110h68q0 -99 -56.5 -160.5t-148.5 -61.5z" />
    <glyph glyph-name="Iogonek" unicode="&#x12e;" horiz-adv-x="489" 
d="M240 -504q-100 0 -160 57.5t-60 155.5q0 157 191 291h-6v1372h80v-1372q-100 -79 -144.5 -144.5t-44.5 -136.5q0 -72 40 -112.5t112 -40.5q36 0 88 12v-67q-34 -15 -96 -15z" />
    <glyph glyph-name="iogonek" unicode="&#x12f;" horiz-adv-x="395" 
d="M184 -504q-93 0 -147.5 51.5t-54.5 141.5q0 157 190 311h-2v942h76v-942q-99 -92 -144 -162t-45 -135t38 -101t102 -36q29 0 79 12v-67q-30 -15 -92 -15zM209 1159q-27 0 -46.5 18.5t-19.5 47.5t18.5 47t47.5 18q27 0 45 -18t18 -47q0 -30 -17 -48t-46 -18z" />
    <glyph glyph-name="Idot" unicode="&#x130;" horiz-adv-x="489" 
d="M205 1372h80v-1372h-80v1372zM248 1589q-27 0 -46.5 18.5t-19.5 47.5t18.5 47t47.5 18q27 0 45 -18t18 -47q0 -30 -17 -48t-46 -18z" />
    <glyph glyph-name="dotlessi" unicode="&#x131;" horiz-adv-x="403" 
d="M164 942h76v-942h-76v942z" />
    <glyph glyph-name="uni0132" unicode="&#x132;" horiz-adv-x="1359" 
d="M205 1372h80v-1372h-80v1372zM846 -20q-185 0 -295 180l65 49q50 -80 105 -117t127 -37q112 0 174.5 79.5t62.5 219.5v944h-421v74h501v-1016q0 -174 -85 -275t-234 -101z" />
    <glyph glyph-name="uni0133" unicode="&#x133;" horiz-adv-x="831" 
d="M170 942h76v-942h-76v942zM471 -512q-85 0 -147 72l49 53q44 -55 100 -55q54 0 83.5 40.5t29.5 118.5v1225h76v-1223q0 -110 -50 -170.5t-141 -60.5zM209 1159q-27 0 -46.5 18.5t-19.5 47.5t18.5 47t47.5 18q27 0 45 -18t18 -47q0 -30 -17 -48t-46 -18zM625 1159
q-27 0 -46.5 18.5t-19.5 47.5t18.5 47t47.5 18q27 0 45 -18t18 -47q0 -30 -17 -48t-46 -18z" />
    <glyph glyph-name="Jcircumflex" unicode="&#x134;" horiz-adv-x="870" 
d="M356 -20q-185 0 -295 180l66 49q50 -80 105 -117t126 -37q112 0 175 79.5t63 219.5v944h-422v74h502v-1016q0 -174 -85.5 -275t-234.5 -101zM180 1571l246 192l246 -192l-43 -51l-203 155l-203 -155z" />
    <glyph glyph-name="jcircumflex" unicode="&#x135;" horiz-adv-x="415" 
d="M55 -512q-85 0 -147 72l49 53q44 -55 100 -55q54 0 83.5 40.5t29.5 118.5v1225h76v-1223q0 -110 -50 -170.5t-141 -60.5zM-39 1141l248 192l246 -192l-43 -51l-203 155l-203 -155z" />
    <glyph glyph-name="Kcommaaccent" unicode="&#x136;" horiz-adv-x="1052" 
d="M205 1372h80v-653l616 653h105l-633 -672l639 -700h-111l-616 674v-674h-80v1372zM457 -461l88 342l96 -31l-131 -329z" />
    <glyph glyph-name="kcommaaccent" unicode="&#x137;" horiz-adv-x="849" 
d="M164 1454h76v-954l475 442h104l-493 -459l503 -483h-108l-481 461v-461h-76v1454zM344 -461l88 342l96 -31l-131 -329z" />
    <glyph glyph-name="Lacute" unicode="&#x139;" horiz-adv-x="962" 
d="M205 1372h80v-1298h585v-74h-665v1372zM207 1532l180 242l66 -56l-205 -219z" />
    <glyph glyph-name="lacute" unicode="&#x13a;" horiz-adv-x="403" 
d="M164 1454h76v-1454h-76v1454zM164 1569l180 241l66 -55l-205 -219z" />
    <glyph glyph-name="Lcommaaccent" unicode="&#x13b;" horiz-adv-x="962" 
d="M205 1372h80v-1298h585v-74h-665v1372zM401 -461l88 342l97 -31l-131 -329z" />
    <glyph glyph-name="lcommaaccent" unicode="&#x13c;" horiz-adv-x="403" 
d="M164 1454h76v-1454h-76v1454zM68 -461l88 342l96 -31l-131 -329z" />
    <glyph glyph-name="Lcaron" unicode="&#x13d;" horiz-adv-x="962" 
d="M205 1372h80v-1298h585v-74h-665v1372zM397 1040l76 346l100 -26l-118 -334z" />
    <glyph glyph-name="lcaron" unicode="&#x13e;" horiz-adv-x="501" 
d="M164 1454h76v-1454h-76v1454zM346 1122l76 346l100 -26l-119 -334z" />
    <glyph glyph-name="Ldot" unicode="&#x13f;" horiz-adv-x="962" 
d="M735 653q-29 0 -47 19t-18 49q0 29 19 48t48 19t47.5 -19t18.5 -48t-19.5 -48.5t-48.5 -19.5zM205 1372h80v-1298h585v-74h-665v1372z" />
    <glyph glyph-name="ldot" unicode="&#x140;" horiz-adv-x="536" 
d="M469 659q-29 0 -47.5 19.5t-18.5 48.5t19.5 48.5t48.5 19.5t47.5 -19.5t18.5 -48.5t-19.5 -48.5t-48.5 -19.5zM164 1454h76v-1454h-76v1454z" />
    <glyph glyph-name="Lslash" unicode="&#x141;" horiz-adv-x="972" 
d="M215 596l-143 -82v84l143 82v692h80v-647l266 152v-80l-266 -154v-569h586v-74h-666v596z" />
    <glyph glyph-name="lslash" unicode="&#x142;" horiz-adv-x="444" 
d="M184 680l-143 -82v78l143 82v696h76v-651l143 82v-78l-143 -82v-725h-76v680z" />
    <glyph glyph-name="Nacute" unicode="&#x143;" horiz-adv-x="1474" 
d="M283 1212v-1212h-78v1413h31l956 -1253v1212h78v-1413h-31zM698 1532l181 242l65 -56l-205 -219z" />
    <glyph glyph-name="nacute" unicode="&#x144;" horiz-adv-x="1044" 
d="M164 942h76v-168q48 87 130.5 135.5t186.5 48.5q153 0 248.5 -107.5t95.5 -279.5v-571h-76v553q0 153 -75.5 244.5t-202.5 91.5q-130 0 -218.5 -96.5t-88.5 -239.5v-553h-76v942zM494 1102l180 241l65 -55l-204 -219z" />
    <glyph glyph-name="Ncommaaccent" unicode="&#x145;" horiz-adv-x="1474" 
d="M283 1212v-1212h-78v1413h31l956 -1253v1212h78v-1413h-31zM602 -461l88 342l96 -31l-131 -329z" />
    <glyph glyph-name="ncommaaccent" unicode="&#x146;" horiz-adv-x="1044" 
d="M164 942h76v-168q48 87 130.5 135.5t186.5 48.5q153 0 248.5 -107.5t95.5 -279.5v-571h-76v553q0 153 -75.5 244.5t-202.5 91.5q-130 0 -218.5 -96.5t-88.5 -239.5v-553h-76v942zM397 -461l88 342l97 -31l-131 -329z" />
    <glyph glyph-name="Ncaron" unicode="&#x147;" horiz-adv-x="1474" 
d="M283 1212v-1212h-78v1413h31l956 -1253v1212h78v-1413h-31zM492 1708l43 51l202 -155l203 155l43 -51l-246 -192z" />
    <glyph glyph-name="ncaron" unicode="&#x148;" horiz-adv-x="1044" 
d="M164 942h76v-168q48 87 130.5 135.5t186.5 48.5q153 0 248.5 -107.5t95.5 -279.5v-571h-76v553q0 153 -75.5 244.5t-202.5 91.5q-130 0 -218.5 -96.5t-88.5 -239.5v-553h-76v942zM287 1278l43 51l202 -155l203 155l43 -51l-246 -193z" />
    <glyph glyph-name="napostrophe" unicode="&#x149;" horiz-adv-x="1126" 
d="M246 942h76v-168q48 87 130.5 135.5t186.5 48.5q153 0 248.5 -107.5t95.5 -279.5v-571h-76v553q0 153 -75.5 244.5t-202.5 91.5q-130 0 -218.5 -96.5t-88.5 -239.5v-553h-76v942zM61 1085l76 347l101 -27l-119 -334z" />
    <glyph glyph-name="Eng" unicode="&#x14a;" horiz-adv-x="1474" 
d="M961 -512q-196 0 -310 180l66 49q99 -153 246 -153q108 0 167.5 78.5t59.5 220.5v135l-907 1214v-1212h-78v1413h31l956 -1280v1239h78v-1507q0 -175 -81.5 -276t-227.5 -101z" />
    <glyph glyph-name="eng" unicode="&#x14b;" horiz-adv-x="1044" 
d="M711 -512q-86 0 -148 72l49 53q44 -55 101 -55q54 0 83 40.5t29 118.5v836q0 153 -75.5 244.5t-202.5 91.5q-130 0 -218.5 -96.5t-88.5 -239.5v-553h-76v942h76v-168q48 87 130.5 135.5t186.5 48.5q153 0 248.5 -107.5t95.5 -279.5v-852q0 -110 -49.5 -170.5
t-140.5 -60.5z" />
    <glyph glyph-name="Omacron" unicode="&#x14c;" horiz-adv-x="1617" 
d="M809 -16q-111 0 -215.5 35.5t-189 100.5t-148 151.5t-98.5 193.5t-35 221q0 193 92.5 355t250 255t343.5 93q113 0 218 -35t189 -99.5t147.5 -151t97.5 -194t34 -223.5q0 -143 -54 -272.5t-145 -224t-218.5 -150t-268.5 -55.5zM809 59q165 0 303.5 83t218.5 227.5
t80 316.5t-80 316.5t-218.5 227.5t-303.5 83t-303.5 -83t-218.5 -227.5t-80 -316.5t80 -316.5t218.5 -227.5t303.5 -83zM614 1686h390v-70h-390v70z" />
    <glyph glyph-name="omacron" unicode="&#x14d;" horiz-adv-x="1146" 
d="M573 -16q-129 0 -237.5 64.5t-171 176.5t-62.5 246q0 203 137.5 345t333.5 142t333.5 -142t137.5 -345q0 -134 -62.5 -246t-171 -176.5t-237.5 -64.5zM573 55q165 0 279.5 121.5t114.5 294.5q0 172 -115 294t-279 122t-278.5 -122t-114.5 -294t114.5 -294t278.5 -122z
M379 1255h389v-69h-389v69z" />
    <glyph glyph-name="Obreve" unicode="&#x14e;" horiz-adv-x="1617" 
d="M809 -16q-111 0 -215.5 35.5t-189 100.5t-148 151.5t-98.5 193.5t-35 221q0 193 92.5 355t250 255t343.5 93q113 0 218 -35t189 -99.5t147.5 -151t97.5 -194t34 -223.5q0 -143 -54 -272.5t-145 -224t-218.5 -150t-268.5 -55.5zM809 59q165 0 303.5 83t218.5 227.5
t80 316.5t-80 316.5t-218.5 227.5t-303.5 83t-303.5 -83t-218.5 -227.5t-80 -316.5t80 -316.5t218.5 -227.5t303.5 -83zM809 1516q-92 0 -148.5 61t-56.5 160h68q0 -68 38 -110t99 -42t99 42t38 110h68q0 -99 -56.5 -160t-148.5 -61z" />
    <glyph glyph-name="obreve" unicode="&#x14f;" horiz-adv-x="1146" 
d="M573 -16q-129 0 -237.5 64.5t-171 176.5t-62.5 246q0 203 137.5 345t333.5 142t333.5 -142t137.5 -345q0 -134 -62.5 -246t-171 -176.5t-237.5 -64.5zM573 55q165 0 279.5 121.5t114.5 294.5q0 172 -115 294t-279 122t-278.5 -122t-114.5 -294t114.5 -294t278.5 -122z
M573 1085q-92 0 -148 61.5t-56 160.5h67q0 -68 38 -110t99 -42t99.5 42t38.5 110h67q0 -99 -56.5 -160.5t-148.5 -61.5z" />
    <glyph glyph-name="Ohungarumlaut" unicode="&#x150;" horiz-adv-x="1617" 
d="M809 -16q-111 0 -215.5 35.5t-189 100.5t-148 151.5t-98.5 193.5t-35 221q0 193 92.5 355t250 255t343.5 93q113 0 218 -35t189 -99.5t147.5 -151t97.5 -194t34 -223.5q0 -143 -54 -272.5t-145 -224t-218.5 -150t-268.5 -55.5zM809 59q165 0 303.5 83t218.5 227.5
t80 316.5t-80 316.5t-218.5 227.5t-303.5 83t-303.5 -83t-218.5 -227.5t-80 -316.5t80 -316.5t218.5 -227.5t303.5 -83zM668 1526l151 246l70 -50l-178 -225zM868 1526l152 246l70 -50l-179 -225z" />
    <glyph glyph-name="ohungarumlaut" unicode="&#x151;" horiz-adv-x="1146" 
d="M573 -16q-129 0 -237.5 64.5t-171 176.5t-62.5 246q0 203 137.5 345t333.5 142t333.5 -142t137.5 -345q0 -134 -62.5 -246t-171 -176.5t-237.5 -64.5zM573 55q165 0 279.5 121.5t114.5 294.5q0 172 -115 294t-279 122t-278.5 -122t-114.5 -294t114.5 -294t278.5 -122z
M432 1096l152 245l69 -49l-178 -225zM633 1096l151 245l70 -49l-178 -225z" />
    <glyph glyph-name="OE" unicode="&#x152;" horiz-adv-x="1660" 
d="M860 0q-210 0 -378.5 88t-263.5 245.5t-95 354.5q0 194 95 350.5t263.5 245t378.5 88.5h678v-74h-596v-550h463v-74h-463v-600h606v-74h-688zM862 1298q-188 0 -337.5 -78t-233.5 -217.5t-84 -314.5q0 -131 49.5 -245t135.5 -195t208 -127.5t262 -46.5v1224z" />
    <glyph glyph-name="oe" unicode="&#x153;" horiz-adv-x="1970" 
d="M573 -16q-129 0 -237.5 64.5t-171 176.5t-62.5 246q0 203 137.5 345t333.5 142q146 0 261 -78.5t170 -209.5q55 132 165.5 210t251.5 78q192 0 319.5 -135t127.5 -338q0 -20 -2 -43h-822q12 -173 123.5 -280t282.5 -107q205 0 338 160l51 -43q-147 -188 -391 -188
q-154 0 -271.5 77t-172.5 209q-55 -131 -170 -208.5t-261 -77.5zM573 55q166 0 280 119.5t114 296.5q0 172 -115 294t-279 122t-278.5 -122t-114.5 -294t114.5 -294t278.5 -122zM1790 512q-4 164 -108.5 269.5t-258.5 105.5q-155 0 -259.5 -105t-116.5 -270h743z" />
    <glyph glyph-name="Racute" unicode="&#x154;" horiz-adv-x="1136" 
d="M205 1372h297q206 0 335.5 -107.5t129.5 -277.5q0 -146 -93 -245.5t-253 -129.5l413 -612h-96l-406 602h-247v-602h-80v1372zM500 676q174 0 279.5 85t105.5 226q0 140 -106 225.5t-279 85.5h-215v-622h215zM526 1532l181 242l65 -56l-205 -219z" />
    <glyph glyph-name="racute" unicode="&#x155;" horiz-adv-x="604" 
d="M164 942h76v-154q43 79 116 124.5t160 45.5q29 0 57 -4l-16 -80q-28 7 -55 7q-117 0 -189.5 -90.5t-72.5 -233.5v-557h-76v942zM330 1102l180 241l65 -55l-204 -219z" />
    <glyph glyph-name="Rcommaaccent" unicode="&#x156;" horiz-adv-x="1136" 
d="M205 1372h297q206 0 335.5 -107.5t129.5 -277.5q0 -146 -93 -245.5t-253 -129.5l413 -612h-96l-406 602h-247v-602h-80v1372zM500 676q174 0 279.5 85t105.5 226q0 140 -106 225.5t-279 85.5h-215v-622h215zM477 -461l88 342l97 -31l-132 -329z" />
    <glyph glyph-name="rcommaaccent" unicode="&#x157;" horiz-adv-x="604" 
d="M164 942h76v-154q43 79 116 124.5t160 45.5q29 0 57 -4l-16 -80q-28 7 -55 7q-117 0 -189.5 -90.5t-72.5 -233.5v-557h-76v942zM68 -461l88 342l96 -31l-131 -329z" />
    <glyph glyph-name="Rcaron" unicode="&#x158;" horiz-adv-x="1136" 
d="M205 1372h297q206 0 335.5 -107.5t129.5 -277.5q0 -146 -93 -245.5t-253 -129.5l413 -612h-96l-406 602h-247v-602h-80v1372zM500 676q174 0 279.5 85t105.5 226q0 140 -106 225.5t-279 85.5h-215v-622h215zM319 1708l43 51l203 -155l203 155l43 -51l-246 -192z" />
    <glyph glyph-name="rcaron" unicode="&#x159;" horiz-adv-x="604" 
d="M164 942h76v-154q43 79 116 124.5t160 45.5q29 0 57 -4l-16 -80q-28 7 -55 7q-117 0 -189.5 -90.5t-72.5 -233.5v-557h-76v942zM123 1278l43 51l203 -155l202 155l43 -51l-245 -193z" />
    <glyph glyph-name="Sacute" unicode="&#x15a;" horiz-adv-x="993" 
d="M500 -18q-131 0 -241.5 65.5t-176.5 183.5l63 45q60 -104 153.5 -161.5t203.5 -57.5q136 0 222.5 81.5t86.5 209.5q0 109 -72.5 186t-228.5 134q-179 66 -263.5 161t-84.5 226q0 151 97.5 242.5t252.5 91.5q217 0 352 -197l-61 -43q-114 164 -289 164q-123 0 -197.5 -72
t-74.5 -186q0 -104 71.5 -179t225.5 -135q181 -68 266.5 -164.5t85.5 -228.5q0 -159 -110 -262.5t-281 -103.5zM498 1532l180 242l65 -56l-204 -219z" />
    <glyph glyph-name="sacute" unicode="&#x15b;" horiz-adv-x="911" 
d="M481 -16q-124 0 -228 52t-171 150l59 45q136 -178 344 -178q113 0 180.5 49t67.5 131q0 74 -62.5 123t-203.5 86q-165 43 -242.5 109.5t-77.5 165.5q0 109 84 175t220 66q209 0 348 -155l-58 -47q-112 133 -292 133q-103 0 -164.5 -46t-61.5 -124q0 -72 62.5 -120.5
t203.5 -86.5q166 -44 243 -110t77 -164q0 -115 -90 -184.5t-238 -69.5zM432 1102l180 241l66 -55l-205 -219z" />
    <glyph glyph-name="Scircumflex" unicode="&#x15c;" horiz-adv-x="993" 
d="M500 -18q-131 0 -241.5 65.5t-176.5 183.5l63 45q60 -104 153.5 -161.5t203.5 -57.5q136 0 222.5 81.5t86.5 209.5q0 109 -72.5 186t-228.5 134q-179 66 -263.5 161t-84.5 226q0 151 97.5 242.5t252.5 91.5q217 0 352 -197l-61 -43q-114 164 -289 164q-123 0 -197.5 -72
t-74.5 -186q0 -104 71.5 -179t225.5 -135q181 -68 266.5 -164.5t85.5 -228.5q0 -159 -110 -262.5t-281 -103.5zM291 1571l246 192l245 -192l-43 -51l-202 155l-203 -155z" />
    <glyph glyph-name="scircumflex" unicode="&#x15d;" horiz-adv-x="911" 
d="M481 -16q-124 0 -228 52t-171 150l59 45q136 -178 344 -178q113 0 180.5 49t67.5 131q0 74 -62.5 123t-203.5 86q-165 43 -242.5 109.5t-77.5 165.5q0 109 84 175t220 66q209 0 348 -155l-58 -47q-112 133 -292 133q-103 0 -164.5 -46t-61.5 -124q0 -72 62.5 -120.5
t203.5 -86.5q166 -44 243 -110t77 -164q0 -115 -90 -184.5t-238 -69.5zM225 1141l246 192l246 -192l-43 -51l-203 155l-203 -155z" />
    <glyph glyph-name="Scedilla" unicode="&#x15e;" horiz-adv-x="993" 
d="M483 -508q-103 0 -166 66l39 59q49 -55 127 -55q56 0 88.5 30t32.5 84q0 55 -35.5 86t-103.5 31h-57l53 191q-120 11 -219 74.5t-160 172.5l63 45q60 -104 153.5 -161.5t203.5 -57.5q136 0 222.5 81.5t86.5 209.5q0 109 -72.5 186t-228.5 134q-179 66 -263.5 161
t-84.5 226q0 151 97.5 242.5t252.5 91.5q217 0 352 -197l-61 -43q-114 164 -289 164q-123 0 -197.5 -72t-74.5 -186q0 -104 71.5 -179t225.5 -135q181 -68 266.5 -164.5t85.5 -228.5q0 -152 -99.5 -252t-256.5 -112l-33 -123q85 -13 131.5 -62.5t46.5 -122.5
q0 -82 -54.5 -133t-142.5 -51z" />
    <glyph glyph-name="scedilla" unicode="&#x15f;" horiz-adv-x="911" 
d="M444 -508q-102 0 -165 66l38 59q49 -55 127 -55q56 0 88.5 30t32.5 84q0 55 -35.5 86t-103.5 31h-57l53 195q-105 11 -192.5 61.5t-147.5 136.5l59 45q136 -178 344 -178q113 0 180.5 49t67.5 131q0 74 -62.5 123t-203.5 86q-165 43 -242.5 109.5t-77.5 165.5
q0 109 84 175t220 66q209 0 348 -155l-58 -47q-112 133 -292 133q-103 0 -164.5 -46t-61.5 -124q0 -72 62.5 -120.5t203.5 -86.5q166 -44 243 -110t77 -164q0 -112 -86 -180.5t-227 -73.5l-33 -123q85 -13 131.5 -62.5t46.5 -122.5q0 -82 -54.5 -133t-142.5 -51z" />
    <glyph glyph-name="Scaron" unicode="&#x160;" horiz-adv-x="993" 
d="M500 -18q-131 0 -241.5 65.5t-176.5 183.5l63 45q60 -104 153.5 -161.5t203.5 -57.5q136 0 222.5 81.5t86.5 209.5q0 109 -72.5 186t-228.5 134q-179 66 -263.5 161t-84.5 226q0 151 97.5 242.5t252.5 91.5q217 0 352 -197l-61 -43q-114 164 -289 164q-123 0 -197.5 -72
t-74.5 -186q0 -104 71.5 -179t225.5 -135q181 -68 266.5 -164.5t85.5 -228.5q0 -159 -110 -262.5t-281 -103.5zM291 1708l43 51l203 -155l202 155l43 -51l-245 -192z" />
    <glyph glyph-name="scaron" unicode="&#x161;" horiz-adv-x="911" 
d="M481 -16q-124 0 -228 52t-171 150l59 45q136 -178 344 -178q113 0 180.5 49t67.5 131q0 74 -62.5 123t-203.5 86q-165 43 -242.5 109.5t-77.5 165.5q0 109 84 175t220 66q209 0 348 -155l-58 -47q-112 133 -292 133q-103 0 -164.5 -46t-61.5 -124q0 -72 62.5 -120.5
t203.5 -86.5q166 -44 243 -110t77 -164q0 -115 -90 -184.5t-238 -69.5zM225 1278l43 51l203 -155l203 155l43 -51l-246 -193z" />
    <glyph glyph-name="uni0162" unicode="&#x162;" horiz-adv-x="1124" 
d="M532 -508q-102 0 -165 66l39 59q49 -55 126 -55q56 0 88.5 30t32.5 84q0 55 -35.5 86t-103.5 31h-57l61 219h4v1286h-461v74h1002v-74h-461v-1298h-14l-37 -139q85 -13 131.5 -62.5t46.5 -122.5q0 -82 -54.5 -133t-142.5 -51z" />
    <glyph glyph-name="uni0163" unicode="&#x163;" horiz-adv-x="696" 
d="M401 -508q-102 0 -165 66l38 59q49 -55 127 -55q56 0 88.5 30t32.5 84q0 55 -35.5 86t-103.5 31h-57l57 201q-72 23 -109.5 84t-37.5 153v641h-144v70h144v229h75v-229h246v-70h-246v-634q0 -88 39 -136.5t111 -48.5q83 0 141 64l43 -49q-78 -84 -192 -84l-33 -123
q85 -13 131.5 -62.5t46.5 -122.5q0 -82 -54.5 -133t-142.5 -51z" />
    <glyph glyph-name="Tcaron" unicode="&#x164;" horiz-adv-x="1124" 
d="M522 1298h-461v74h1002v-74h-461v-1298h-80v1298zM328 1708l43 51l202 -155l203 155l43 -51l-246 -192z" />
    <glyph glyph-name="tcaron" unicode="&#x165;" horiz-adv-x="696" 
d="M457 -16q-104 0 -162.5 65t-58.5 182v641h-144v70h144v229h75v-229h246v-70h-246v-634q0 -88 39 -136.5t111 -48.5q83 0 141 64l43 -49q-75 -84 -188 -84zM442 1122l76 346l100 -26l-118 -334z" />
    <glyph glyph-name="Tbar" unicode="&#x166;" horiz-adv-x="1124" 
d="M522 668h-235v69h235v561h-461v74h1002v-74h-461v-561h256v-69h-256v-668h-80v668z" />
    <glyph glyph-name="tbar" unicode="&#x167;" horiz-adv-x="696" 
d="M457 -16q-104 0 -162.5 65t-58.5 182v277h-134v65h134v299h-144v70h144v229h75v-229h246v-70h-246v-299h195v-65h-195v-270q0 -88 39 -136.5t111 -48.5q83 0 141 64l43 -49q-75 -84 -188 -84z" />
    <glyph glyph-name="Umacron" unicode="&#x16a;" horiz-adv-x="1361" 
d="M684 -16q-221 0 -355 153.5t-134 405.5v829h79v-821q0 -223 112 -357.5t298 -134.5q184 0 295 134.5t111 357.5v821h77v-829q0 -252 -133 -405.5t-350 -153.5zM487 1686h390v-70h-390v70z" />
    <glyph glyph-name="umacron" unicode="&#x16b;" 
d="M481 -16q-152 0 -245 107.5t-93 279.5v571h76v-553q0 -152 75 -244t200 -92q129 0 215 96.5t86 239.5v553h75v-942h-75v166q-48 -86 -130 -134t-184 -48zM311 1255h389v-69h-389v69z" />
    <glyph glyph-name="Ubreve" unicode="&#x16c;" horiz-adv-x="1361" 
d="M684 -16q-221 0 -355 153.5t-134 405.5v829h79v-821q0 -223 112 -357.5t298 -134.5q184 0 295 134.5t111 357.5v821h77v-829q0 -252 -133 -405.5t-350 -153.5zM682 1516q-92 0 -148.5 61t-56.5 160h68q0 -68 38 -110t99 -42t99 42t38 110h68q0 -99 -56.5 -160t-148.5 -61
z" />
    <glyph glyph-name="ubreve" unicode="&#x16d;" 
d="M481 -16q-152 0 -245 107.5t-93 279.5v571h76v-553q0 -152 75 -244t200 -92q129 0 215 96.5t86 239.5v553h75v-942h-75v166q-48 -86 -130 -134t-184 -48zM506 1085q-92 0 -148.5 61.5t-56.5 160.5h68q0 -68 38 -110t99 -42t99 42t38 110h68q0 -99 -56.5 -160.5
t-148.5 -61.5z" />
    <glyph glyph-name="Uring" unicode="&#x16e;" horiz-adv-x="1361" 
d="M684 -16q-221 0 -355 153.5t-134 405.5v829h79v-821q0 -223 112 -357.5t298 -134.5q184 0 295 134.5t111 357.5v821h77v-829q0 -252 -133 -405.5t-350 -153.5zM682 1479q-72 0 -123 51.5t-51 120.5t51 120.5t123 51.5q69 0 121.5 -52t52.5 -120q0 -69 -51 -120.5
t-123 -51.5zM682 1540q44 0 74 31t30 80t-30 79.5t-74 30.5t-74 -30.5t-30 -79.5t30 -80t74 -31z" />
    <glyph glyph-name="uring" unicode="&#x16f;" 
d="M481 -16q-152 0 -245 107.5t-93 279.5v571h76v-553q0 -152 75 -244t200 -92q129 0 215 96.5t86 239.5v553h75v-942h-75v166q-48 -86 -130 -134t-184 -48zM506 1049q-72 0 -123 51.5t-51 120.5t51 120.5t123 51.5q69 0 121.5 -52t52.5 -120q0 -69 -51 -120.5t-123 -51.5z
M506 1110q44 0 74 31t30 80t-30 79.5t-74 30.5t-74.5 -31t-30.5 -79q0 -49 30.5 -80t74.5 -31z" />
    <glyph glyph-name="Uhungarumlaut" unicode="&#x170;" horiz-adv-x="1361" 
d="M684 -16q-221 0 -355 153.5t-134 405.5v829h79v-821q0 -223 112 -357.5t298 -134.5q184 0 295 134.5t111 357.5v821h77v-829q0 -252 -133 -405.5t-350 -153.5zM541 1526l151 246l70 -50l-178 -225zM741 1526l152 246l70 -50l-179 -225z" />
    <glyph glyph-name="uhungarumlaut" unicode="&#x171;" 
d="M481 -16q-152 0 -245 107.5t-93 279.5v571h76v-553q0 -152 75 -244t200 -92q129 0 215 96.5t86 239.5v553h75v-942h-75v166q-48 -86 -130 -134t-184 -48zM365 1096l151 245l70 -49l-178 -225zM565 1096l152 245l69 -49l-178 -225z" />
    <glyph glyph-name="Uogonek" unicode="&#x172;" horiz-adv-x="1361" 
d="M782 -504q-99 0 -158 56t-59 153q0 163 176 283q-36 -4 -63 -4q-216 0 -349.5 154t-133.5 405v829h79v-821q0 -223 112 -357.5t298 -134.5q184 0 295 134.5t111 357.5v821h77v-829q0 -177 -68 -306t-194 -202q-145 -85 -204.5 -157.5t-59.5 -160.5q0 -73 38.5 -112
t106.5 -39q44 0 93 12v-67q-34 -15 -97 -15z" />
    <glyph glyph-name="uogonek" unicode="&#x173;" 
d="M758 -504q-96 0 -154.5 54.5t-58.5 142.5q0 179 252 307h-2v166q-48 -86 -130 -134t-184 -48q-152 0 -245 107.5t-93 279.5v571h76v-553q0 -152 75 -244t200 -92q129 0 215 96.5t86 239.5v553h75v-942q-136 -95 -192.5 -159.5t-56.5 -135.5q0 -66 38.5 -102.5
t104.5 -36.5q40 0 90 12v-67q-34 -15 -96 -15z" />
    <glyph glyph-name="Wcircumflex" unicode="&#x174;" horiz-adv-x="1966" 
d="M72 1372h84l385 -1210l426 1210h30l428 -1212l387 1212h82l-452 -1413h-31l-430 1219l-428 -1219h-31zM737 1571l246 192l246 -192l-43 -51l-203 155l-203 -155z" />
    <glyph glyph-name="wcircumflex" unicode="&#x175;" horiz-adv-x="1341" 
d="M51 942h80l242 -797l276 818h31l274 -820l260 799h76l-321 -983h-31l-276 829l-279 -829h-31zM422 1141l246 192l245 -192l-43 -51l-202 155l-203 -155z" />
    <glyph glyph-name="Ycircumflex" unicode="&#x176;" horiz-adv-x="1064" 
d="M492 551l-431 821h91l380 -731l383 731h89l-431 -821v-551h-81v551zM287 1571l245 192l246 -192l-43 -51l-203 155l-202 -155z" />
    <glyph glyph-name="ycircumflex" unicode="&#x177;" horiz-adv-x="901" 
d="M399 0l-348 942h84l307 -833l330 833h78l-576 -1454h-77zM209 1141l246 192l245 -192l-43 -51l-202 155l-203 -155z" />
    <glyph glyph-name="Ydieresis" unicode="&#x178;" horiz-adv-x="1064" 
d="M492 551l-431 821h91l380 -731l383 731h89l-431 -821v-551h-81v551zM375 1589q-29 0 -46.5 18.5t-17.5 47.5t18.5 47t45.5 18q29 0 47 -18t18 -47t-19 -47.5t-46 -18.5zM688 1589q-27 0 -46 18.5t-19 47.5t18 47t47 18q27 0 45.5 -18t18.5 -47t-17.5 -47.5t-46.5 -18.5z
" />
    <glyph glyph-name="Zacute" unicode="&#x179;" horiz-adv-x="1187" 
d="M102 31l859 1267h-818v74h942v-31l-858 -1267h838v-74h-963v31zM575 1532l181 242l65 -56l-205 -219z" />
    <glyph glyph-name="zacute" unicode="&#x17a;" horiz-adv-x="933" 
d="M92 20l619 852h-586v70h715v-20l-619 -852h621v-70h-750v20zM444 1102l181 241l65 -55l-205 -219z" />
    <glyph glyph-name="Zdotaccent" unicode="&#x17b;" horiz-adv-x="1187" 
d="M102 31l859 1267h-818v74h942v-31l-858 -1267h838v-74h-963v31zM616 1589q-27 0 -46 18.5t-19 47.5t18 47t47 18q27 0 45.5 -18t18.5 -47t-17.5 -47.5t-46.5 -18.5z" />
    <glyph glyph-name="zdotaccent" unicode="&#x17c;" horiz-adv-x="933" 
d="M92 20l619 852h-586v70h715v-20l-619 -852h621v-70h-750v20zM485 1159q-27 0 -46 18.5t-19 47.5t18 47t47 18q27 0 45.5 -18t18.5 -47t-17.5 -47.5t-46.5 -18.5z" />
    <glyph glyph-name="Zcaron" unicode="&#x17d;" horiz-adv-x="1187" 
d="M102 31l859 1267h-818v74h942v-31l-858 -1267h838v-74h-963v31zM369 1708l43 51l202 -155l203 155l43 -51l-246 -192z" />
    <glyph glyph-name="zcaron" unicode="&#x17e;" horiz-adv-x="933" 
d="M92 20l619 852h-586v70h715v-20l-619 -852h621v-70h-750v20zM238 1278l43 51l202 -155l203 155l43 -51l-246 -193z" />
    <glyph glyph-name="uni018F" unicode="&#x18f;" horiz-adv-x="1525" 
d="M762 -16q-183 0 -331.5 85t-233 235t-84.5 335q0 42 4 70h1202q-8 264 -168 434t-401 170q-266 0 -451 -197l-59 53q103 105 237.5 162.5t276.5 57.5q183 0 331.5 -92.5t233 -256.5t84.5 -366q0 -199 -82.5 -356.5t-229 -245.5t-329.5 -88zM762 59q237 0 390 159t165 417
h-1120q12 -253 169.5 -414.5t395.5 -161.5z" />
    <glyph glyph-name="florin" unicode="&#x192;" horiz-adv-x="753" 
d="M102 -512q-87 0 -163 55l30 60q58 -45 129 -45q66 0 105 40.5t45 114.5l100 1159h-178v70h184l25 287q11 105 69.5 165t151.5 60q88 0 164 -55l-31 -60q-58 45 -129 45q-66 0 -104.5 -40.5t-44.5 -114.5l-25 -287h246v-70h-252l-100 -1159q-11 -105 -70 -165t-152 -60z
" />
    <glyph glyph-name="Aringacute" unicode="&#x1fa;" horiz-adv-x="1269" 
d="M600 1358q-60 12 -98.5 58.5t-38.5 109.5q0 72 50.5 122t123.5 50q74 0 124 -49.5t50 -122.5q0 -63 -39.5 -110t-99.5 -58l495 -1358h-86l-151 418h-592l-152 -418h-84zM903 492l-268 739l-270 -739h538zM637 1415q44 0 74 32t30 79t-30 78.5t-74 31.5t-74.5 -31.5
t-30.5 -78.5t30.5 -79t74.5 -32zM582 1798l252 166l43 -76l-269 -135z" />
    <glyph glyph-name="aringacute" unicode="&#x1fb;" horiz-adv-x="968" 
d="M399 -16q-139 0 -228 80.5t-89 203.5q0 130 97 214.5t249 84.5q93 0 178 -32t144 -91v125q0 147 -76.5 233.5t-204.5 86.5q-80 0 -150.5 -37.5t-119.5 -106.5l-58 50q66 78 153 120.5t183 42.5q157 0 252.5 -106t95.5 -281v-571h-75v195q-52 -99 -143.5 -155t-207.5 -56z
M408 53q136 0 228 85.5t109 226.5q-135 135 -313 135q-123 0 -198.5 -64t-75.5 -168q0 -99 67.5 -157t182.5 -58zM487 1036q-73 0 -123.5 50t-50.5 122t50.5 122t123.5 50q74 0 124.5 -49.5t50.5 -122.5q0 -72 -51 -122t-124 -50zM487 1098q44 0 74.5 31.5t30.5 78.5
t-30.5 79t-74.5 32t-74 -32t-30 -79t30 -78.5t74 -31.5zM432 1481l252 166l43 -76l-268 -135z" />
    <glyph glyph-name="AEacute" unicode="&#x1fc;" horiz-adv-x="1536" 
d="M659 1372h748v-74h-643l70 -550h469v-74h-461l76 -600h505v-74h-575l-51 397h-523l-190 -397h-84zM788 471l-100 791l-379 -791h479zM764 1532l180 242l66 -56l-205 -219z" />
    <glyph glyph-name="aeacute" unicode="&#x1fd;" horiz-adv-x="1689" 
d="M399 -16q-145 0 -231 79t-86 205q0 129 96 214t244 85q92 0 175 -32t142 -91v125q0 147 -75 233.5t-199 86.5q-79 0 -149 -37.5t-117 -106.5l-58 50q63 78 149 120.5t183 42.5q121 0 203.5 -63.5t118.5 -179.5q56 112 156 177.5t223 65.5q180 0 301.5 -135.5
t121.5 -337.5q0 -20 -2 -43h-780q8 -172 113.5 -279.5t267.5 -107.5q189 0 322 160l51 -43q-147 -188 -375 -188q-141 0 -250 72.5t-164 197.5q-43 -124 -145 -197t-236 -73zM401 53q137 0 227 83t107 229q-135 135 -309 135q-121 0 -194.5 -64t-73.5 -168q0 -98 64 -156.5
t179 -58.5zM1520 512q-4 164 -102.5 269.5t-243.5 105.5q-147 0 -246 -105t-111 -270h703zM784 1102l181 241l65 -55l-205 -219z" />
    <glyph glyph-name="Oslashacute" unicode="&#x1fe;" horiz-adv-x="1617" 
d="M270 -12l107 151q-119 100 -186.5 242t-67.5 305q0 193 92.5 355t250 255t343.5 93q209 0 369 -109l104 150l66 -46l-107 -149q119 -100 186.5 -242.5t67.5 -306.5q0 -143 -54 -272.5t-145 -224t-218.5 -150t-268.5 -55.5q-201 0 -369 108l-104 -149zM1133 1217
q-140 96 -324 96q-165 0 -303.5 -83t-218.5 -227.5t-80 -316.5q0 -145 57 -270t158 -213zM809 59q165 0 303.5 83t218.5 227.5t80 316.5q0 145 -57 270t-158 213l-711 -1013q142 -97 324 -97zM770 1532l180 242l66 -56l-205 -219z" />
    <glyph glyph-name="oslashacute" unicode="&#x1ff;" horiz-adv-x="1146" 
d="M190 -10l76 108q-164 148 -164 373q0 203 137.5 345t333.5 142q130 0 246 -69l76 106l61 -43l-75 -108q77 -69 120 -166t43 -207q0 -134 -62.5 -246t-171 -176.5t-237.5 -64.5q-139 0 -245 69l-76 -106zM778 827q-91 60 -205 60q-164 0 -278.5 -122t-114.5 -294
q0 -91 34.5 -171t96.5 -138zM573 55q165 0 279.5 121.5t114.5 294.5q0 182 -129 311l-467 -667q88 -60 202 -60zM535 1102l180 241l65 -55l-205 -219z" />
    <glyph glyph-name="Scommaaccent" unicode="&#x218;" horiz-adv-x="993" 
d="M500 -18q-131 0 -241.5 65.5t-176.5 183.5l63 45q60 -104 153.5 -161.5t203.5 -57.5q136 0 222.5 81.5t86.5 209.5q0 109 -72.5 186t-228.5 134q-179 66 -263.5 161t-84.5 226q0 151 97.5 242.5t252.5 91.5q217 0 352 -197l-61 -43q-114 164 -289 164q-123 0 -197.5 -72
t-74.5 -186q0 -104 71.5 -179t225.5 -135q181 -68 266.5 -164.5t85.5 -228.5q0 -159 -110 -262.5t-281 -103.5zM352 -461l88 342l97 -31l-131 -329z" />
    <glyph glyph-name="scommaaccent" unicode="&#x219;" horiz-adv-x="911" 
d="M481 -16q-124 0 -228 52t-171 150l59 45q136 -178 344 -178q113 0 180.5 49t67.5 131q0 74 -62.5 123t-203.5 86q-165 43 -242.5 109.5t-77.5 165.5q0 109 84 175t220 66q209 0 348 -155l-58 -47q-112 133 -292 133q-103 0 -164.5 -46t-61.5 -124q0 -72 62.5 -120.5
t203.5 -86.5q166 -44 243 -110t77 -164q0 -115 -90 -184.5t-238 -69.5zM313 -461l88 342l97 -31l-131 -329z" />
    <glyph glyph-name="uni021A" unicode="&#x21a;" horiz-adv-x="1124" 
d="M522 1298h-461v74h1002v-74h-461v-1298h-80v1298zM438 -461l88 342l97 -31l-131 -329z" />
    <glyph glyph-name="uni021B" unicode="&#x21b;" horiz-adv-x="696" 
d="M457 -16q-104 0 -162.5 65t-58.5 182v641h-144v70h144v229h75v-229h246v-70h-246v-634q0 -88 39 -136.5t111 -48.5q83 0 141 64l43 -49q-75 -84 -188 -84zM295 -461l88 342l96 -31l-131 -329z" />
    <glyph glyph-name="uni0232" unicode="&#x232;" horiz-adv-x="1064" 
d="M492 551l-431 821h91l380 -731l383 731h89l-431 -821v-551h-81v551zM338 1686h389v-70h-389v70z" />
    <glyph glyph-name="uni0233" unicode="&#x233;" horiz-adv-x="901" 
d="M399 0l-348 942h84l307 -833l330 833h78l-576 -1454h-77zM260 1255h389v-69h-389v69z" />
    <glyph glyph-name="uni0244" unicode="&#x244;" horiz-adv-x="1423" 
d="M715 -16q-221 0 -355.5 153.5t-134.5 405.5v215h-164v69h164v545h80v-545h815v545h78v-545h164v-69h-164v-215q0 -252 -133 -405.5t-350 -153.5zM715 59q184 0 294.5 134.5t110.5 357.5v207h-815v-207q0 -223 112 -357.5t298 -134.5z" />
    <glyph glyph-name="uni0259" unicode="&#x259;" horiz-adv-x="1095" 
d="M539 -16q-192 0 -319.5 135t-127.5 338q0 20 2 43h821q-8 171 -111 279t-267 108q-199 0 -338 -160l-52 43q153 188 392 188q201 0 327.5 -135t126.5 -344q0 -213 -130.5 -354t-323.5 -141zM537 55q153 0 258.5 105t117.5 270h-743q4 -164 108.5 -269.5t258.5 -105.5z
" />
    <glyph glyph-name="uni0289" unicode="&#x289;" horiz-adv-x="1075" 
d="M504 -16q-152 0 -246 107.5t-94 279.5v151h-103v66h103v354h76v-354h575v354h76v-354h102v-66h-102v-522h-76v166q-48 -85 -130 -133.5t-181 -48.5zM514 53q129 0 215 96.5t86 239.5v133h-575v-133q0 -152 75 -244t199 -92z" />
    <glyph glyph-name="uni02BC" unicode="&#x2bc;" horiz-adv-x="217" 
d="M20 1040l76 346l101 -26l-119 -334z" />
    <glyph glyph-name="circumflex" unicode="&#x2c6;" horiz-adv-x="532" 
d="M20 1141l246 192l246 -192l-43 -51l-203 155l-203 -155z" />
    <glyph glyph-name="caron" unicode="&#x2c7;" horiz-adv-x="532" 
d="M20 1278l43 51l203 -155l203 155l43 -51l-246 -193z" />
    <glyph glyph-name="breve" unicode="&#x2d8;" horiz-adv-x="450" 
d="M225 1085q-92 0 -148.5 61.5t-56.5 160.5h68q0 -68 38 -110t99 -42t99 42t38 110h68q0 -99 -56.5 -160.5t-148.5 -61.5z" />
    <glyph glyph-name="dotaccent" unicode="&#x2d9;" horiz-adv-x="169" 
d="M86 1159q-27 0 -46.5 18.5t-19.5 47.5t18.5 47t47.5 18q27 0 45.5 -18t18.5 -47t-17.5 -47.5t-46.5 -18.5z" />
    <glyph glyph-name="ring" unicode="&#x2da;" horiz-adv-x="389" 
d="M195 1049q-72 0 -123.5 51.5t-51.5 120.5t51.5 120.5t123.5 51.5q69 0 121.5 -52t52.5 -120q0 -69 -51.5 -120.5t-122.5 -51.5zM195 1110q44 0 74 31t30 80t-30 79.5t-74 30.5t-74.5 -31t-30.5 -79q0 -49 30.5 -80t74.5 -31z" />
    <glyph glyph-name="ogonek" unicode="&#x2db;" horiz-adv-x="366" 
d="M233 -504q-96 0 -154.5 54.5t-58.5 142.5q0 179 252 307h74q-136 -95 -193 -159.5t-57 -135.5q0 -65 38.5 -102t105.5 -37q40 0 90 12v-67q-34 -15 -97 -15z" />
    <glyph glyph-name="tilde" unicode="&#x2dc;" horiz-adv-x="522" 
d="M20 1165q19 60 58.5 91.5t93.5 31.5q48 0 104 -39q49 -39 82 -39q52 0 80 78l64 -24q-19 -60 -58.5 -91.5t-93.5 -31.5q-48 0 -104 39q-49 39 -82 39q-52 0 -80 -78z" />
    <glyph glyph-name="hungarumlaut" unicode="&#x2dd;" horiz-adv-x="462" 
d="M20 1096l152 245l70 -49l-179 -225zM221 1096l152 245l69 -49l-178 -225z" />
    <glyph glyph-name="uni0301" unicode="&#x301;" horiz-adv-x="0" 
d="M-717 1532l180 242l66 -56l-205 -219z" />
    <glyph glyph-name="uni030A" unicode="&#x30a;" horiz-adv-x="0" 
d="M-676 1479q-72 0 -123 51.5t-51 120.5t51 120.5t123 51.5q69 0 121.5 -52t52.5 -120q0 -69 -51 -120.5t-123 -51.5zM-676 1540q44 0 74.5 31t30.5 80q0 48 -30.5 79t-74.5 31t-74 -30.5t-30 -79.5t30 -80t74 -31z" />
    <glyph glyph-name="uni0326" unicode="&#x326;" horiz-adv-x="225" 
d="M20 -461l89 342l96 -31l-131 -329z" />
    <glyph glyph-name="uni0401" unicode="&#x401;" horiz-adv-x="1003" 
d="M205 1372h676v-74h-596v-550h463v-74h-463v-600h606v-74h-686v1372zM385 1589q-29 0 -46 18t-17 48q0 29 18 47t45 18q29 0 47.5 -18t18.5 -47t-19.5 -47.5t-46.5 -18.5zM698 1589q-27 0 -46 18.5t-19 47.5t18 47t47 18q27 0 45.5 -18t18.5 -47t-17.5 -47.5t-46.5 -18.5z
" />
    <glyph glyph-name="uni0402" unicode="&#x402;" horiz-adv-x="1320" 
d="M856 -16q-49 0 -92.5 12t-67.5 31l27 67q53 -37 133 -37q117 0 188.5 92.5t71.5 243.5q0 164 -83.5 262.5t-223.5 98.5q-89 0 -161.5 -18t-158.5 -60v-676h-79v1298h-390v74h941v-74h-472v-544q82 41 157 59t167 18q173 0 279 -120.5t106 -313.5q0 -185 -94 -299
t-248 -114z" />
    <glyph glyph-name="uni0403" unicode="&#x403;" horiz-adv-x="952" 
d="M205 1372h686v-74h-606v-1298h-80v1372zM508 1532l180 242l66 -56l-205 -219z" />
    <glyph glyph-name="uni0404" unicode="&#x404;" horiz-adv-x="1398" 
d="M770 -16q-287 0 -467 195.5t-180 508.5q0 311 177.5 506t459.5 195q151 0 283.5 -57.5t232.5 -162.5l-59 -53q-87 94 -205.5 145.5t-251.5 51.5q-237 0 -389 -160.5t-164 -423.5h727v-74h-727q12 -267 167 -431.5t400 -164.5q132 0 251.5 52t209.5 151l51 -47
q-208 -231 -516 -231z" />
    <glyph glyph-name="uni0405" unicode="&#x405;" horiz-adv-x="993" 
d="M500 -18q-131 0 -241.5 65.5t-176.5 183.5l63 45q60 -104 153.5 -161.5t203.5 -57.5q136 0 222.5 81.5t86.5 209.5q0 109 -72.5 186t-228.5 134q-179 66 -263.5 161t-84.5 226q0 151 97.5 242.5t252.5 91.5q217 0 352 -197l-61 -43q-114 164 -289 164q-123 0 -197.5 -72
t-74.5 -186q0 -104 71.5 -179t225.5 -135q181 -68 266.5 -164.5t85.5 -228.5q0 -159 -110 -262.5t-281 -103.5z" />
    <glyph glyph-name="uni0406" unicode="&#x406;" horiz-adv-x="489" 
d="M205 1372h80v-1372h-80v1372z" />
    <glyph glyph-name="uni0407" unicode="&#x407;" horiz-adv-x="489" 
d="M205 1372h80v-1372h-80v1372zM88 1589q-29 0 -46 18t-17 48q0 29 18 47t45 18q29 0 47.5 -18t18.5 -47t-19.5 -47.5t-46.5 -18.5zM401 1589q-27 0 -46 18.5t-19 47.5t18 47t47 18q27 0 45.5 -18t18.5 -47t-17.5 -47.5t-46.5 -18.5z" />
    <glyph glyph-name="uni0408" unicode="&#x408;" horiz-adv-x="870" 
d="M356 -20q-185 0 -295 180l66 49q50 -80 105 -117t126 -37q112 0 175 79.5t63 219.5v944h-422v74h502v-1016q0 -174 -85.5 -275t-234.5 -101z" />
    <glyph glyph-name="uni0409" unicode="&#x409;" horiz-adv-x="1937" 
d="M123 -10q-44 0 -82 10v80q42 -10 86 -10q190 0 190 317v985h820v-571h213q206 0 335.5 -112t129.5 -290t-129.5 -288.5t-335.5 -110.5h-303v1298h-650v-909q0 -197 -69.5 -298t-204.5 -101zM1348 74q174 0 279.5 89t105.5 236q0 148 -106 238t-279 90h-211v-653h211z" />
    <glyph glyph-name="uni040A" unicode="&#x40a;" horiz-adv-x="1988" 
d="M205 1372h80v-602h823v602h80v-602h213q206 0 335.5 -107.5t129.5 -277.5q0 -171 -129.5 -278t-335.5 -107h-293v696h-823v-696h-80v1372zM1399 74q174 0 279.5 85t105.5 226q0 140 -106 225.5t-279 85.5h-211v-622h211z" />
    <glyph glyph-name="uni040B" unicode="&#x40b;" horiz-adv-x="1331" 
d="M410 1298h-390v74h941v-74h-472v-544q148 77 320 77q165 0 272 -109t107 -280v-442h-80v442q0 141 -83 226.5t-220 85.5q-161 0 -316 -78v-676h-79v1298z" />
    <glyph glyph-name="uni040C" unicode="&#x40c;" horiz-adv-x="1052" 
d="M205 1372h80v-653l616 653h105l-633 -672l639 -700h-111l-616 674v-674h-80v1372zM539 1532l180 242l65 -56l-204 -219z" />
    <glyph glyph-name="uni040E" unicode="&#x40e;" 
d="M471 348l-430 1024h86l387 -921l395 921h84l-587 -1372h-84zM518 1516q-96 0 -155.5 61t-59.5 160h72q0 -69 40 -111.5t103 -42.5t103.5 42.5t40.5 111.5h71q0 -99 -59.5 -160t-155.5 -61z" />
    <glyph glyph-name="uni040F" unicode="&#x40f;" horiz-adv-x="1351" 
d="M635 0h-430v1372h80v-1298h782v1298h80v-1372h-432v-307h-80v307z" />
    <glyph glyph-name="uni0410" unicode="&#x410;" horiz-adv-x="1269" 
d="M621 1413h30l516 -1413h-86l-151 418h-592l-152 -418h-84zM903 492l-268 739l-270 -739h538z" />
    <glyph glyph-name="uni0411" unicode="&#x411;" horiz-adv-x="1085" 
d="M205 1372h655v-74h-573v-518h211q206 0 335.5 -109t129.5 -282q0 -172 -130 -280.5t-335 -108.5h-293v1372zM496 74q173 0 279 86.5t106 228.5q0 143 -106 230.5t-279 87.5h-209v-633h209z" />
    <glyph glyph-name="uni0412" unicode="&#x412;" horiz-adv-x="1085" 
d="M205 1372h270q186 0 306 -95t120 -239q0 -103 -61.5 -183t-171.5 -122q147 -37 231 -131t84 -227q0 -165 -130 -270t-335 -105h-313v1372zM516 74q173 0 279 84.5t106 220.5q0 137 -106.5 222t-278.5 85h-231v-612h231zM473 760q156 0 251 74.5t95 197.5q0 121 -95 193.5
t-251 72.5h-188v-538h188z" />
    <glyph glyph-name="uni0413" unicode="&#x413;" horiz-adv-x="952" 
d="M205 1372h686v-74h-606v-1298h-80v1372z" />
    <glyph glyph-name="uni0414" unicode="&#x414;" horiz-adv-x="1320" 
d="M1006 74v1224h-631v-528q0 -277 -38 -445.5t-120 -250.5h789zM51 74q117 0 180.5 180t63.5 516v602h790v-1298h175v-381h-80v307h-1049v-307h-80v381z" />
    <glyph glyph-name="uni0415" unicode="&#x415;" horiz-adv-x="1003" 
d="M205 1372h676v-74h-596v-550h463v-74h-463v-600h606v-74h-686v1372z" />
    <glyph glyph-name="uni0416" unicode="&#x416;" horiz-adv-x="1556" 
d="M647 698l-594 674h103l583 -661v661h78v-661l584 661h102l-594 -674l607 -698h-107l-592 682v-682h-78v682l-592 -682h-106z" />
    <glyph glyph-name="uni0417" unicode="&#x417;" 
d="M510 -16q-145 0 -259 70t-179 204l69 39q56 -117 151 -179.5t218 -62.5q147 0 238.5 83t91.5 218q0 148 -114.5 239t-299.5 91h-88v74h90q156 0 256 82.5t100 212.5q0 117 -78.5 189.5t-205.5 72.5q-184 0 -283 -164l-61 39q56 94 146 145.5t204 51.5q156 0 258 -95.5
t102 -238.5q0 -115 -63.5 -199t-179.5 -127q140 -42 219.5 -139.5t79.5 -233.5q0 -165 -114 -268.5t-298 -103.5z" />
    <glyph glyph-name="uni0418" unicode="&#x418;" horiz-adv-x="1474" 
d="M205 1372h80v-1227l954 1268h31v-1413h-80v1227l-954 -1268h-31v1413z" />
    <glyph glyph-name="uni0419" unicode="&#x419;" horiz-adv-x="1474" 
d="M205 1372h80v-1227l954 1268h31v-1413h-80v1227l-954 -1268h-31v1413zM737 1516q-96 0 -155.5 61t-59.5 160h72q0 -69 40 -111.5t103 -42.5t103.5 42.5t40.5 111.5h71q0 -99 -59.5 -160t-155.5 -61z" />
    <glyph glyph-name="uni041A" unicode="&#x41a;" horiz-adv-x="1052" 
d="M205 1372h80v-653l616 653h105l-633 -672l639 -700h-111l-616 674v-674h-80v1372z" />
    <glyph glyph-name="uni041B" unicode="&#x41b;" horiz-adv-x="1331" 
d="M123 -10q-44 0 -82 10v80q42 -10 86 -10q190 0 190 317v985h809v-1372h-79v1298h-650v-909q0 -197 -69.5 -298t-204.5 -101z" />
    <glyph glyph-name="uni041C" unicode="&#x41c;" horiz-adv-x="1689" 
d="M205 1413h31l610 -913l608 913h31v-1413h-80v1194l-545 -815h-31l-544 817v-1196h-80v1413z" />
    <glyph glyph-name="uni041D" unicode="&#x41d;" horiz-adv-x="1392" 
d="M205 1372h80v-643h823v643h80v-1372h-80v655h-823v-655h-80v1372z" />
    <glyph glyph-name="uni041E" unicode="&#x41e;" horiz-adv-x="1617" 
d="M809 -16q-111 0 -215.5 35.5t-189 100.5t-148 151.5t-98.5 193.5t-35 221q0 193 92.5 355t250 255t343.5 93q113 0 218 -35t189 -99.5t147.5 -151t97.5 -194t34 -223.5q0 -143 -54 -272.5t-145 -224t-218.5 -150t-268.5 -55.5zM809 59q165 0 303.5 83t218.5 227.5
t80 316.5t-80 316.5t-218.5 227.5t-303.5 83t-303.5 -83t-218.5 -227.5t-80 -316.5t80 -316.5t218.5 -227.5t303.5 -83z" />
    <glyph glyph-name="uni041F" unicode="&#x41f;" horiz-adv-x="1382" 
d="M205 1372h973v-1372h-80v1298h-813v-1298h-80v1372z" />
    <glyph glyph-name="uni0420" unicode="&#x420;" horiz-adv-x="1054" 
d="M205 1372h293q206 0 335.5 -109t129.5 -282q0 -172 -130 -280.5t-335 -108.5h-213v-592h-80v1372zM496 666q173 0 279 86.5t106 228.5q0 143 -106 230t-279 87h-211v-632h211z" />
    <glyph glyph-name="uni0421" unicode="&#x421;" horiz-adv-x="1423" 
d="M807 -16q-194 0 -351.5 93.5t-245 252.5t-87.5 350q0 195 91.5 358t250.5 257t350 94q144 0 272 -54.5t220 -156.5l-62 -52q-81 90 -192.5 137.5t-237.5 47.5q-168 0 -308 -84t-220 -229t-80 -318q0 -171 76 -312t216 -224t316 -83q270 0 449 191l57 -49
q-101 -109 -234.5 -164t-279.5 -55z" />
    <glyph glyph-name="uni0422" unicode="&#x422;" horiz-adv-x="1124" 
d="M522 1298h-461v74h1002v-74h-461v-1298h-80v1298z" />
    <glyph glyph-name="uni0423" unicode="&#x423;" 
d="M471 348l-430 1024h86l387 -921l395 921h84l-587 -1372h-84z" />
    <glyph glyph-name="uni0424" unicode="&#x424;" horiz-adv-x="1585" 
d="M754 82q-179 0 -323 77.5t-226 216.5t-82 312q0 171 81.5 308.5t226 215.5t323.5 78v164h77v-164q179 0 323.5 -78t226 -215.5t81.5 -308.5q0 -173 -82 -312t-226 -216.5t-323 -77.5v-164h-77v164zM754 1217q-237 0 -392 -150.5t-155 -378.5q0 -230 154.5 -381
t392.5 -151v1061zM831 156q238 0 392.5 151t154.5 381q0 228 -155 378.5t-392 150.5v-1061z" />
    <glyph glyph-name="uni0425" unicode="&#x425;" horiz-adv-x="1126" 
d="M510 702l-418 670h94l379 -606l377 606h92l-418 -670l439 -702h-94l-400 639l-397 -639h-92z" />
    <glyph glyph-name="uni0426" unicode="&#x426;" horiz-adv-x="1351" 
d="M1190 0h-985v1372h80v-1298h782v1298h80v-1298h123v-381h-80v307z" />
    <glyph glyph-name="uni0427" unicode="&#x427;" horiz-adv-x="1146" 
d="M862 553q-77 -41 -148.5 -57.5t-160.5 -16.5q-165 0 -272 109t-107 280v504h80v-504q0 -141 83 -226t220 -85q154 0 305 74v741h80v-1372h-80v553z" />
    <glyph glyph-name="uni0428" unicode="&#x428;" horiz-adv-x="2129" 
d="M205 1372h80v-1298h739v1298h80v-1298h741v1298h80v-1372h-1720v1372z" />
    <glyph glyph-name="uni0429" unicode="&#x429;" horiz-adv-x="2129" 
d="M1968 0h-1763v1372h80v-1298h739v1298h80v-1298h741v1298h80v-1298h123v-381h-80v307z" />
    <glyph glyph-name="uni042A" unicode="&#x42a;" horiz-adv-x="1126" 
d="M246 1298h-205v74h285v-571h213q206 0 335.5 -112t129.5 -290t-129.5 -288.5t-335.5 -110.5h-293v1298zM537 74q174 0 279.5 89t105.5 236q0 148 -106 238t-279 90h-211v-653h211z" />
    <glyph glyph-name="uni042B" unicode="&#x42b;" horiz-adv-x="1474" 
d="M205 1372h80v-571h192q206 0 335.5 -112t129.5 -290t-129.5 -288.5t-335.5 -110.5h-272v1372zM475 74q174 0 279.5 89t105.5 236q0 148 -106 238t-279 90h-190v-653h190zM1190 1372h80v-1372h-80v1372z" />
    <glyph glyph-name="uni042C" unicode="&#x42c;" horiz-adv-x="1085" 
d="M205 1372h80v-571h213q206 0 335.5 -112t129.5 -290t-129.5 -288.5t-335.5 -110.5h-293v1372zM496 74q174 0 279.5 89t105.5 236q0 148 -106 238t-279 90h-211v-653h211z" />
    <glyph glyph-name="uni042D" unicode="&#x42d;" horiz-adv-x="1382" 
d="M608 -16q-148 0 -280.5 58.5t-235.5 168.5l55 51q90 -99 209.5 -151t251.5 -52q244 0 400 164t168 432h-687v74h687q-12 263 -164 423.5t-389 160.5q-133 0 -251.5 -51.5t-205.5 -145.5l-60 53q100 104 232.5 162t279.5 58q137 0 256.5 -53t204 -145t133 -222t48.5 -279
q0 -202 -84 -363.5t-233 -252t-335 -90.5z" />
    <glyph glyph-name="uni042E" unicode="&#x42e;" horiz-adv-x="1904" 
d="M1137 -16q-171 0 -316.5 88.5t-233 242.5t-95.5 340h-207v-655h-80v1372h80v-643h209q8 182 96 333.5t233.5 239t313.5 87.5q175 0 323 -93t235 -255t87 -355q0 -145 -51.5 -275t-138 -223.5t-205.5 -148.5t-250 -55zM1137 59q152 0 281 83t204.5 228t75.5 318
q0 171 -75.5 315t-204.5 227t-281 83q-153 0 -282.5 -83t-204.5 -227t-75 -315q0 -130 44.5 -246.5t119.5 -200.5t179 -133t219 -49z" />
    <glyph glyph-name="uni042F" unicode="&#x42f;" horiz-adv-x="1138" 
d="M500 616q-149 36 -234.5 132.5t-85.5 236.5q0 172 128 279.5t331 107.5h295v-1372h-80v604h-264l-371 -604h-96zM854 676v622h-213q-170 0 -274.5 -86t-104.5 -227t103.5 -225t275.5 -84h213z" />
    <glyph glyph-name="uni0430" unicode="&#x430;" horiz-adv-x="968" 
d="M399 -16q-139 0 -228 80.5t-89 203.5q0 130 97 214.5t249 84.5q93 0 178 -32t144 -91v125q0 147 -76.5 233.5t-204.5 86.5q-80 0 -150.5 -37.5t-119.5 -106.5l-58 50q66 78 153 120.5t183 42.5q157 0 252.5 -106t95.5 -281v-571h-75v195q-52 -99 -143.5 -155t-207.5 -56z
M408 53q136 0 228 85.5t109 226.5q-135 135 -313 135q-123 0 -198.5 -64t-75.5 -168q0 -99 67.5 -157t182.5 -58z" />
    <glyph glyph-name="uni0431" unicode="&#x431;" horiz-adv-x="1112" 
d="M565 -20q-202 0 -322 153.5t-120 413.5v88q0 346 99.5 506.5t330.5 189.5q147 20 216.5 40.5t115.5 70.5l41 -51q-50 -58 -135.5 -89.5t-241.5 -48.5q-183 -20 -264.5 -154.5t-85.5 -428.5q55 117 157 184.5t230 67.5q180 0 302 -134t122 -333q0 -203 -126 -339
t-319 -136zM571 51q156 0 258.5 114t102.5 288q0 172 -102 284.5t-259 112.5q-155 0 -256.5 -112t-101.5 -285q0 -176 101 -289t257 -113z" />
    <glyph glyph-name="uni0432" unicode="&#x432;" horiz-adv-x="911" 
d="M164 942h303q135 0 221 -67.5t86 -172.5q0 -68 -38.5 -122t-106.5 -84q88 -30 139 -92t51 -146q0 -113 -89 -185.5t-228 -72.5h-338v942zM502 70q109 0 175 53t66 139t-66 138.5t-175 52.5h-262v-383h262zM467 522q104 0 167.5 48t63.5 126t-63.5 127t-167.5 49h-227
v-350h227z" />
    <glyph glyph-name="uni0433" unicode="&#x433;" horiz-adv-x="737" 
d="M164 942h512v-70h-436v-872h-76v942z" />
    <glyph glyph-name="uni0434" unicode="&#x434;" horiz-adv-x="1024" 
d="M768 70v802h-455v-342q0 -334 -108 -460h563zM51 70q94 0 140.5 111t46.5 349v412h606v-872h139v-336h-76v266h-780v-266h-76v336z" />
    <glyph glyph-name="uni0435" unicode="&#x435;" horiz-adv-x="1095" 
d="M584 -16q-210 0 -346 136t-136 349q0 209 131 349t324 140q192 0 319.5 -135t127.5 -338q0 -9 -3 -43h-821q12 -173 123.5 -280t282.5 -107q205 0 338 160l51 -43q-147 -188 -391 -188zM926 512q-4 164 -108.5 269.5t-258.5 105.5q-155 0 -260 -105t-117 -270h744z" />
    <glyph glyph-name="uni0436" unicode="&#x436;" horiz-adv-x="1191" 
d="M473 475l-418 467h95l409 -457v457h74v-457l409 457h95l-418 -467l442 -475h-102l-426 459v-459h-74v459l-426 -459h-102z" />
    <glyph glyph-name="uni0437" unicode="&#x437;" horiz-adv-x="856" 
d="M436 -16q-112 0 -208 52t-156 144l55 43q111 -170 307 -170q111 0 182.5 56.5t71.5 146.5q0 88 -69.5 142.5t-184.5 54.5h-125v69h82q110 0 178 52.5t68 138.5q0 79 -61.5 127.5t-161.5 48.5q-144 0 -250 -129l-55 43q128 155 309 155q129 0 212 -67.5t83 -173.5
q0 -73 -40.5 -130.5t-113.5 -90.5q94 -26 149.5 -91.5t55.5 -152.5q0 -115 -93.5 -191.5t-234.5 -76.5z" />
    <glyph glyph-name="uni0438" unicode="&#x438;" horiz-adv-x="1064" 
d="M164 942h76v-809l630 850h31v-983h-76v809l-630 -850h-31v983z" />
    <glyph glyph-name="uni0439" unicode="&#x439;" horiz-adv-x="1064" 
d="M164 942h76v-809l630 850h31v-983h-76v809l-630 -850h-31v983zM532 1085q-92 0 -150 62t-58 160h71q0 -69 38.5 -111.5t98.5 -42.5t99 42.5t39 111.5h71q0 -98 -58.5 -160t-150.5 -62z" />
    <glyph glyph-name="uni043A" unicode="&#x43a;" horiz-adv-x="849" 
d="M164 942h76v-450l475 450h104l-493 -469l503 -473h-110l-479 453v-453h-76v942z" />
    <glyph glyph-name="uni043B" unicode="&#x43b;" horiz-adv-x="1013" 
d="M90 -6q-34 0 -49 6v76q10 -6 45 -6q74 0 114 57.5t40 167.5v647h610v-942h-76v872h-459v-567q0 -153 -57.5 -232t-167.5 -79z" />
    <glyph glyph-name="uni043C" unicode="&#x43c;" horiz-adv-x="1259" 
d="M164 983h31l436 -647l434 647h31v-983h-76v791l-375 -562h-31l-374 555v-784h-76v983z" />
    <glyph glyph-name="uni043D" unicode="&#x43d;" horiz-adv-x="1044" 
d="M164 942h76v-430h565v430h76v-942h-76v442h-565v-442h-76v942z" />
    <glyph glyph-name="uni043E" unicode="&#x43e;" horiz-adv-x="1146" 
d="M573 -16q-129 0 -237.5 64.5t-171 176.5t-62.5 246q0 203 137.5 345t333.5 142t333.5 -142t137.5 -345q0 -134 -62.5 -246t-171 -176.5t-237.5 -64.5zM573 55q165 0 279.5 121.5t114.5 294.5q0 172 -115 294t-279 122t-278.5 -122t-114.5 -294t114.5 -294t278.5 -122z
" />
    <glyph glyph-name="uni043F" unicode="&#x43f;" 
d="M164 942h706v-942h-75v872h-555v-872h-76v942z" />
    <glyph glyph-name="uni0440" unicode="&#x440;" horiz-adv-x="1165" 
d="M608 55q165 0 271 118t106 298t-105 298t-268 118q-165 0 -268.5 -117.5t-103.5 -298.5q0 -182 102.5 -299t265.5 -117zM164 942h76v-215q55 108 153 169.5t225 61.5q191 0 318 -139t127 -348q0 -210 -127 -348.5t-322 -138.5q-125 0 -222 61.5t-152 169.5v-727h-76v1454
z" />
    <glyph glyph-name="uni0441" unicode="&#x441;" horiz-adv-x="1036" 
d="M586 -16q-210 0 -347 138t-137 349q0 209 135 348t338 139q212 0 371 -167l-57 -52q-140 146 -318 146q-169 0 -279 -116.5t-110 -293.5q0 -184 116.5 -301t297.5 -117q175 0 309 140l49 -43q-147 -170 -368 -170z" />
    <glyph glyph-name="uni0442" unicode="&#x442;" horiz-adv-x="829" 
d="M377 872h-316v70h707v-70h-315v-872h-76v872z" />
    <glyph glyph-name="uni0443" unicode="&#x443;" horiz-adv-x="901" 
d="M399 0l-348 942h84l307 -833l330 833h78l-576 -1454h-77z" />
    <glyph glyph-name="uni0444" unicode="&#x444;" horiz-adv-x="1228" 
d="M578 887q-165 0 -281.5 -122t-116.5 -294t115.5 -294t282.5 -122v832zM578 -16q-199 0 -337.5 141.5t-138.5 345.5q0 203 138.5 345t337.5 142v496h73v-496q199 0 337 -142t138 -345q0 -204 -138 -345.5t-337 -141.5v-498h-73v498zM651 55q167 0 282.5 122t115.5 294
t-116.5 294t-281.5 122v-832z" />
    <glyph glyph-name="uni0445" unicode="&#x445;" horiz-adv-x="839" 
d="M371 479l-310 463h91l270 -403l270 403h86l-309 -463l319 -479h-90l-280 418l-281 -418h-86z" />
    <glyph glyph-name="uni0446" unicode="&#x446;" horiz-adv-x="1044" 
d="M907 0h-743v942h76v-872h544v872h76v-872h123v-336h-76v266z" />
    <glyph glyph-name="uni0447" unicode="&#x447;" horiz-adv-x="942" 
d="M702 330q-121 -37 -243 -37q-150 0 -238 83.5t-88 225.5v340h76v-340q0 -111 71 -175.5t195 -64.5q87 0 227 35v545h76v-942h-76v330z" />
    <glyph glyph-name="uni0448" unicode="&#x448;" horiz-adv-x="1546" 
d="M164 942h76v-872h495v872h76v-872h496v872h75v-942h-1218v942z" />
    <glyph glyph-name="uni0449" unicode="&#x449;" horiz-adv-x="1556" 
d="M1419 0h-1255v942h76v-872h495v872h76v-872h496v872h75v-872h113v-336h-76v266z" />
    <glyph glyph-name="uni044A" unicode="&#x44a;" horiz-adv-x="921" 
d="M205 872h-185v70h261v-373h241q139 0 228.5 -80.5t89.5 -203.5t-90.5 -204t-227.5 -81h-317v872zM522 70q109 0 175.5 59t66.5 156t-66.5 156t-175.5 59h-241v-430h241z" />
    <glyph glyph-name="uni044B" unicode="&#x44b;" horiz-adv-x="1198" 
d="M164 942h76v-373h231q139 0 228 -80.5t89 -203.5t-90 -204t-227 -81h-307v942zM471 70q109 0 175.5 59t66.5 156t-66.5 156t-175.5 59h-231v-430h231zM958 942h76v-942h-76v942z" />
    <glyph glyph-name="uni044C" unicode="&#x44c;" horiz-adv-x="880" 
d="M164 942h76v-373h241q139 0 228.5 -80.5t89.5 -203.5t-90.5 -204t-227.5 -81h-317v942zM481 70q109 0 175.5 59t66.5 156t-66.5 156t-175.5 59h-241v-430h241z" />
    <glyph glyph-name="uni044D" unicode="&#x44d;" 
d="M451 -16q-225 0 -369 159l49 54q140 -140 320 -140q171 0 280 106.5t121 278.5h-563v70h561q-12 166 -115 269.5t-260 103.5q-176 0 -328 -146l-51 52q154 167 377 167q201 0 330 -138t129 -349q0 -212 -133.5 -349.5t-347.5 -137.5z" />
    <glyph glyph-name="uni044E" unicode="&#x44e;" horiz-adv-x="1406" 
d="M844 -16q-188 0 -318.5 132t-142.5 326h-143v-442h-76v942h76v-430h145q12 189 143.5 317.5t315.5 128.5q126 0 232 -65t167.5 -177t61.5 -245q0 -204 -134.5 -345.5t-326.5 -141.5zM844 55q106 0 194 56t138.5 151.5t50.5 208.5q0 172 -112 294t-271 122t-271 -122
t-112 -294t112 -294t271 -122z" />
    <glyph glyph-name="uni044F" unicode="&#x44f;" horiz-adv-x="923" 
d="M350 389q-103 25 -164 98t-61 172q0 123 90 203t227 80h318v-942h-76v379h-250l-252 -379h-90zM684 449v423h-242q-109 0 -175 -58t-66 -155q0 -94 66.5 -152t174.5 -58h242z" />
    <glyph glyph-name="uni0451" unicode="&#x451;" horiz-adv-x="1095" 
d="M584 -16q-210 0 -346 136t-136 349q0 209 131 349t324 140q192 0 319.5 -135t127.5 -338q0 -9 -3 -43h-821q12 -173 123.5 -280t282.5 -107q205 0 338 160l51 -43q-147 -188 -391 -188zM926 512q-4 164 -108.5 269.5t-258.5 105.5q-155 0 -260 -105t-117 -270h744z
M395 1159q-29 0 -46 18t-17 48q0 29 18 47t45 18q29 0 47.5 -18t18.5 -47t-19.5 -47.5t-46.5 -18.5zM709 1159q-27 0 -46.5 18.5t-19.5 47.5t18.5 47t47.5 18q27 0 45 -18t18 -47q0 -30 -17 -48t-46 -18z" />
    <glyph glyph-name="uni0452" unicode="&#x452;" horiz-adv-x="1054" 
d="M731 -512q-85 0 -147 72l49 53q44 -55 100 -55q54 0 83.5 40.5t29.5 118.5v738q0 153 -76 244.5t-203 91.5q-130 0 -218.5 -96.5t-88.5 -239.5v-455h-76v1102h-123v65h123v287h76v-287h348v-65h-348v-426q48 87 131 135.5t187 48.5q153 0 248.5 -107.5t95.5 -279.5v-754
q0 -110 -50 -170.5t-141 -60.5z" />
    <glyph glyph-name="uni0453" unicode="&#x453;" horiz-adv-x="737" 
d="M164 942h512v-70h-436v-872h-76v942zM383 1102l180 241l66 -55l-205 -219z" />
    <glyph glyph-name="uni0454" unicode="&#x454;" 
d="M573 -16q-206 0 -338.5 137.5t-132.5 349.5q0 211 130 349t333 138q223 0 371 -167l-49 -52q-146 146 -328 146q-159 0 -261 -103.5t-114 -269.5h574v-70h-576q12 -172 121.5 -278.5t282.5 -106.5q181 0 321 140l45 -43q-153 -170 -379 -170z" />
    <glyph glyph-name="uni0455" unicode="&#x455;" horiz-adv-x="911" 
d="M481 -16q-124 0 -228 52t-171 150l59 45q136 -178 344 -178q113 0 180.5 49t67.5 131q0 74 -62.5 123t-203.5 86q-165 43 -242.5 109.5t-77.5 165.5q0 109 84 175t220 66q209 0 348 -155l-58 -47q-112 133 -292 133q-103 0 -164.5 -46t-61.5 -124q0 -72 62.5 -120.5
t203.5 -86.5q166 -44 243 -110t77 -164q0 -115 -90 -184.5t-238 -69.5z" />
    <glyph glyph-name="uni0456" unicode="&#x456;" horiz-adv-x="415" 
d="M170 942h76v-942h-76v942zM209 1159q-27 0 -46.5 18.5t-19.5 47.5t18.5 47t47.5 18q27 0 45 -18t18 -47q0 -30 -17 -48t-46 -18z" />
    <glyph glyph-name="uni0457" unicode="&#x457;" horiz-adv-x="419" 
d="M172 942h76v-942h-76v942zM53 1159q-29 0 -46 18t-17 48q0 29 18 47t45 18q29 0 47.5 -18t18.5 -47t-19.5 -47.5t-46.5 -18.5zM367 1159q-27 0 -46.5 18.5t-19.5 47.5t18.5 47t47.5 18q27 0 45 -18t18 -47q0 -30 -17 -48t-46 -18z" />
    <glyph glyph-name="uni0458" unicode="&#x458;" horiz-adv-x="415" 
d="M55 -512q-85 0 -147 72l49 53q44 -55 100 -55q54 0 83.5 40.5t29.5 118.5v1225h76v-1223q0 -110 -50 -170.5t-141 -60.5zM209 1159q-27 0 -46.5 18.5t-19.5 47.5t18.5 47t47.5 18q27 0 45 -18t18 -47q0 -30 -17 -48t-46 -18z" />
    <glyph glyph-name="uni0459" unicode="&#x459;" horiz-adv-x="1490" 
d="M90 -6q-34 0 -49 6v76q10 -6 45 -6q74 0 114 57.5t40 167.5v647h610v-373h242q139 0 228 -80.5t89 -203.5t-90 -204t-227 -81h-318v872h-459v-567q0 -153 -57.5 -232t-167.5 -79zM1092 70q109 0 175 59t66 156t-66 156t-175 59h-242v-430h242z" />
    <glyph glyph-name="uni045A" unicode="&#x45a;" horiz-adv-x="1521" 
d="M164 942h76v-399h565v399h76v-399h241q139 0 228.5 -77t89.5 -194q0 -118 -90.5 -195t-227.5 -77h-317v473h-565v-473h-76v942zM1122 70q109 0 175.5 55t66.5 147q0 91 -66.5 146t-175.5 55h-241v-403h241z" />
    <glyph glyph-name="uni045B" unicode="&#x45b;" horiz-adv-x="1054" 
d="M184 1102h-123v65h123v287h76v-287h348v-65h-348v-426q48 87 131 135.5t187 48.5q153 0 248.5 -107.5t95.5 -279.5v-473h-76v455q0 153 -76 244.5t-203 91.5q-130 0 -218.5 -96.5t-88.5 -239.5v-455h-76v1102z" />
    <glyph glyph-name="uni045C" unicode="&#x45c;" horiz-adv-x="849" 
d="M164 942h76v-450l475 450h104l-493 -469l503 -473h-110l-479 453v-453h-76v942zM438 1102l180 241l66 -55l-205 -219z" />
    <glyph glyph-name="uni045E" unicode="&#x45e;" horiz-adv-x="901" 
d="M399 0l-348 942h84l307 -833l330 833h78l-576 -1454h-77zM455 1085q-92 0 -150.5 62t-58.5 160h71q0 -69 39 -111.5t99 -42.5t98.5 42.5t38.5 111.5h72q0 -98 -58.5 -160t-150.5 -62z" />
    <glyph glyph-name="uni045F" unicode="&#x45f;" horiz-adv-x="1024" 
d="M475 0h-311v942h76v-872h544v872h76v-942h-309v-266h-76v266z" />
    <glyph glyph-name="uni0490" unicode="&#x490;" horiz-adv-x="952" 
d="M205 1372h606v184h80v-258h-606v-1298h-80v1372z" />
    <glyph glyph-name="uni0491" unicode="&#x491;" horiz-adv-x="737" 
d="M164 942h436v154h76v-224h-436v-872h-76v942z" />
    <glyph glyph-name="Wgrave" unicode="&#x1e80;" horiz-adv-x="1966" 
d="M72 1372h84l385 -1210l426 1210h30l428 -1212l387 1212h82l-452 -1413h-31l-430 1219l-428 -1219h-31zM762 1718l65 56l181 -242l-41 -33z" />
    <glyph glyph-name="wgrave" unicode="&#x1e81;" horiz-adv-x="1341" 
d="M51 942h80l242 -797l276 818h31l274 -820l260 799h76l-321 -983h-31l-276 829l-279 -829h-31zM446 1288l66 55l180 -241l-41 -33z" />
    <glyph glyph-name="Wacute" unicode="&#x1e82;" horiz-adv-x="1966" 
d="M72 1372h84l385 -1210l426 1210h30l428 -1212l387 1212h82l-452 -1413h-31l-430 1219l-428 -1219h-31zM944 1532l180 242l66 -56l-205 -219z" />
    <glyph glyph-name="wacute" unicode="&#x1e83;" horiz-adv-x="1341" 
d="M51 942h80l242 -797l276 818h31l274 -820l260 799h76l-321 -983h-31l-276 829l-279 -829h-31zM629 1102l180 241l65 -55l-204 -219z" />
    <glyph glyph-name="Wdieresis" unicode="&#x1e84;" horiz-adv-x="1966" 
d="M72 1372h84l385 -1210l426 1210h30l428 -1212l387 1212h82l-452 -1413h-31l-430 1219l-428 -1219h-31zM825 1589q-29 0 -46 18t-17 48q0 29 18 47t45 18q29 0 47.5 -18t18.5 -47t-19.5 -47.5t-46.5 -18.5zM1139 1589q-27 0 -46.5 18.5t-19.5 47.5t18.5 47t47.5 18
q27 0 45 -18t18 -47q0 -30 -17 -48t-46 -18z" />
    <glyph glyph-name="wdieresis" unicode="&#x1e85;" horiz-adv-x="1341" 
d="M51 942h80l242 -797l276 818h31l274 -820l260 799h76l-321 -983h-31l-276 829l-279 -829h-31zM510 1159q-29 0 -46.5 18.5t-17.5 47.5t18.5 47t45.5 18q29 0 47 -18t18 -47t-19 -47.5t-46 -18.5zM823 1159q-27 0 -46 18.5t-19 47.5t18 47t47 18q27 0 45.5 -18t18.5 -47
t-17.5 -47.5t-46.5 -18.5z" />
    <glyph glyph-name="uni1E9E" unicode="&#x1e9e;" horiz-adv-x="1300" 
d="M782 -16q-62 0 -115.5 12t-76.5 31l26 67q53 -37 168 -37q155 0 248.5 92t93.5 242q0 158 -106 255t-281 97h-86v74l342 481h-393q-154 0 -241 -97t-87 -267v-934h-79v932q0 198 112 319t295 121h514v-33l-373 -522q210 -5 337.5 -119.5t127.5 -302.5q0 -184 -119 -297.5
t-307 -113.5z" />
    <glyph glyph-name="Ygrave" unicode="&#x1ef2;" horiz-adv-x="1064" 
d="M492 551l-431 821h91l380 -731l383 731h89l-431 -821v-551h-81v551zM311 1718l66 56l180 -242l-41 -33z" />
    <glyph glyph-name="ygrave" unicode="&#x1ef3;" horiz-adv-x="901" 
d="M399 0l-348 942h84l307 -833l330 833h78l-576 -1454h-77zM233 1288l66 55l180 -241l-41 -33z" />
    <glyph glyph-name="endash" unicode="&#x2013;" horiz-adv-x="983" 
d="M51 567h881v-69h-881v69z" />
    <glyph glyph-name="emdash" unicode="&#x2014;" horiz-adv-x="1433" 
d="M51 567h1331v-69h-1331v69z" />
    <glyph glyph-name="quoteleft" unicode="&#x2018;" horiz-adv-x="305" 
d="M72 1042l110 334l51 -14l-69 -344z" />
    <glyph glyph-name="quoteright" unicode="&#x2019;" horiz-adv-x="327" 
d="M72 1036l88 342l96 -30l-131 -330z" />
    <glyph glyph-name="quotesinglbase" unicode="&#x201a;" horiz-adv-x="327" 
d="M72 -219l88 342l96 -31l-131 -330z" />
    <glyph glyph-name="quotedblleft" unicode="&#x201c;" horiz-adv-x="542" 
d="M72 1049l131 329l53 -18l-88 -342zM287 1049l131 329l53 -18l-88 -342z" />
    <glyph glyph-name="quotedblright" unicode="&#x201d;" horiz-adv-x="542" 
d="M72 1036l88 342l96 -30l-131 -330zM287 1036l88 342l96 -30l-131 -330z" />
    <glyph glyph-name="quotedblbase" unicode="&#x201e;" horiz-adv-x="542" 
d="M72 -219l88 342l96 -31l-131 -330zM287 -219l88 342l96 -31l-131 -330z" />
    <glyph glyph-name="dagger" unicode="&#x2020;" horiz-adv-x="919" 
d="M420 868h-328v74h328v430h80v-430h327v-74h-327l-13 -1380h-55z" />
    <glyph glyph-name="daggerdbl" unicode="&#x2021;" horiz-adv-x="919" 
d="M428 0h-336v74h334l-6 794h-328v74h328v430h80v-430h327v-74h-327l-6 -794h333v-74h-335l-5 -512h-55z" />
    <glyph glyph-name="bullet" unicode="&#x2022;" horiz-adv-x="606" 
d="M301 422q-41 0 -68.5 28.5t-27.5 69.5t28.5 69.5t69.5 28.5t69.5 -28.5t28.5 -69.5t-29.5 -69.5t-70.5 -28.5z" />
    <glyph glyph-name="ellipsis" unicode="&#x2026;" horiz-adv-x="1341" 
d="M219 -10q-29 0 -47 19t-18 48t19 48.5t48 19.5t47.5 -19.5t18.5 -48.5t-19.5 -48t-48.5 -19zM670 -10q-29 0 -47.5 19t-18.5 48t19.5 48.5t48.5 19.5t47 -19t18 -49q0 -29 -19 -48t-48 -19zM1120 -10q-29 0 -47 19t-18 48t19 48.5t48 19.5t47.5 -19.5t18.5 -48.5
t-19.5 -48t-48.5 -19z" />
    <glyph glyph-name="perthousand" unicode="&#x2030;" horiz-adv-x="2084" 
d="M1010 1372h82l-713 -1372h-80zM1092 -16q-117 0 -197 80t-80 196q0 117 80 197t197 80q115 0 195.5 -80.5t80.5 -196.5t-80 -196t-196 -80zM1092 49q85 0 144.5 61t59.5 150t-59.5 150t-144.5 61q-88 0 -146.5 -61t-58.5 -150t58.5 -150t146.5 -61zM338 836
q-117 0 -197 80t-80 196q0 117 80 197t197 80q115 0 195.5 -80.5t80.5 -196.5t-80 -196t-196 -80zM338 901q85 0 145 61t60 150t-60 150t-145 61q-88 0 -146.5 -61t-58.5 -150t58.5 -150t146.5 -61zM1747 -16q-117 0 -197 80t-80 196q0 117 80 197t197 80q115 0 195.5 -80.5
t80.5 -196.5t-80.5 -196t-195.5 -80zM1747 49q85 0 145 61t60 150t-60 150t-145 61q-88 0 -146.5 -61t-58.5 -150t58.5 -150t146.5 -61z" />
    <glyph glyph-name="guilsinglleft" unicode="&#x2039;" horiz-adv-x="583" 
d="M72 512l348 348l51 -51l-295 -295l295 -297l-51 -51z" />
    <glyph glyph-name="guilsinglright" unicode="&#x203a;" horiz-adv-x="583" 
d="M113 217l295 297l-295 295l51 51l348 -348l-348 -346z" />
    <glyph glyph-name="fraction" unicode="&#x2044;" horiz-adv-x="157" 
d="M393 1372h82l-713 -1372h-79z" />
    <glyph glyph-name="uni2070" unicode="&#x2070;" horiz-adv-x="727" 
d="M365 883q-118 0 -195.5 110t-77.5 279q0 166 77.5 274.5t195.5 108.5q119 0 194.5 -108t75.5 -275q0 -170 -75.5 -279.5t-194.5 -109.5zM365 948q88 0 143 90.5t55 231.5t-55 230t-143 89q-90 0 -145.5 -88.5t-55.5 -230.5q0 -143 55.5 -232.5t145.5 -89.5z" />
    <glyph glyph-name="uni2074" unicode="&#x2074;" horiz-adv-x="655" 
d="M379 1026h-379v31l420 604h31v-567h102v-68h-102v-127h-72v127zM379 1094v389l-273 -389h273z" />
    <glyph glyph-name="uni2075" unicode="&#x2075;" horiz-adv-x="696" 
d="M340 883q-173 0 -248 166l62 32q59 -133 190 -133q80 0 129 50.5t49 136.5t-50 137t-136 51t-160 -63l-26 12l40 366h365v-69h-301l-23 -205q52 25 119 25q110 0 177 -70.5t67 -183.5q0 -112 -69 -182t-185 -70z" />
    <glyph glyph-name="uni2076" unicode="&#x2076;" horiz-adv-x="667" 
d="M322 883q-113 0 -181.5 73t-68.5 197q0 138 83.5 269t243.5 227l37 -58q-101 -62 -160.5 -126t-99.5 -160q61 61 160 61q104 0 171.5 -68t67.5 -172q0 -106 -70.5 -174.5t-182.5 -68.5zM326 948q79 0 128.5 48.5t49.5 127.5q0 78 -49.5 127t-128.5 49t-129 -49t-50 -127
t50 -127t129 -49z" />
    <glyph glyph-name="uni2077" unicode="&#x2077;" horiz-adv-x="634" 
d="M510 1569h-377v69h471v-30l-313 -709h-78z" />
    <glyph glyph-name="uni2078" unicode="&#x2078;" horiz-adv-x="716" 
d="M358 883q-115 0 -185.5 62.5t-70.5 162.5q0 64 36 119t95 78q-41 29 -64.5 68.5t-23.5 80.5q0 88 60.5 144.5t152.5 56.5t152.5 -56.5t60.5 -144.5q0 -41 -23.5 -80.5t-64.5 -68.5q59 -23 95 -78t36 -119q0 -100 -70.5 -162.5t-185.5 -62.5zM358 948q82 0 133.5 43.5
t51.5 114.5q0 72 -50.5 116t-134.5 44t-134 -44t-50 -116t51 -115t133 -43zM358 1331q63 0 102.5 36t39.5 93t-39.5 93t-102.5 36t-102 -36t-39 -93t39 -93t102 -36z" />
    <glyph glyph-name="uni2079" unicode="&#x2079;" horiz-adv-x="667" 
d="M231 940q101 62 161 126.5t100 160.5q-62 -62 -160 -62q-104 0 -172 68t-68 172q0 106 71 175t183 69q113 0 181.5 -73.5t68.5 -197.5q0 -138 -84 -268.5t-244 -226.5zM342 1231q79 0 128.5 49t49.5 127t-49.5 127t-128.5 49t-128.5 -48.5t-49.5 -127.5q0 -78 49.5 -127
t128.5 -49z" />
    <glyph glyph-name="uni2080" unicode="&#x2080;" horiz-adv-x="727" 
d="M365 -262q-118 0 -195.5 110t-77.5 279q0 166 77.5 274.5t195.5 108.5q119 0 194.5 -108t75.5 -275q0 -170 -75.5 -279.5t-194.5 -109.5zM365 -197q88 0 143 90.5t55 231.5t-55 230t-143 89q-90 0 -145.5 -88.5t-55.5 -230.5q0 -143 55.5 -232.5t145.5 -89.5z" />
    <glyph glyph-name="uni2081" unicode="&#x2081;" horiz-adv-x="634" 
d="M338 395l-182 -153l-43 49l266 225h31v-762h-72v641z" />
    <glyph glyph-name="uni2082" unicode="&#x2082;" horiz-adv-x="706" 
d="M82 -213l211 197q143 134 185 189.5t42 113.5q0 72 -45.5 114.5t-120.5 42.5q-154 0 -188 -180l-66 19q25 110 91.5 168.5t166.5 58.5q104 0 169 -61t65 -158q0 -76 -52 -149.5t-200 -209.5l-117 -108h391v-70h-532v33z" />
    <glyph glyph-name="uni2083" unicode="&#x2083;" horiz-adv-x="696" 
d="M350 -262q-175 0 -248 166l64 33q59 -134 188 -134q80 0 129 45.5t49 120.5q0 78 -54 123t-146 45h-90v31l223 256h-332v70h455v-31l-228 -260q115 -7 179.5 -68.5t64.5 -161.5q0 -104 -70.5 -169.5t-183.5 -65.5z" />
    <glyph glyph-name="uni2084" unicode="&#x2084;" horiz-adv-x="655" 
d="M379 -119h-379v31l420 604h31v-567h102v-68h-102v-127h-72v127zM379 -51v389l-273 -389h273z" />
    <glyph glyph-name="uni2085" unicode="&#x2085;" horiz-adv-x="696" 
d="M340 -262q-173 0 -248 166l62 33q59 -134 190 -134q80 0 129 50.5t49 136.5t-50 137t-136 51t-160 -63l-26 12l40 367h365v-70h-301l-23 -205q52 25 119 25q110 0 177 -70.5t67 -183.5q0 -112 -69 -182t-185 -70z" />
    <glyph glyph-name="uni2086" unicode="&#x2086;" horiz-adv-x="667" 
d="M322 -262q-113 0 -181.5 73t-68.5 197q0 138 83.5 269t243.5 227l37 -58q-101 -62 -160.5 -126t-99.5 -160q61 61 160 61q104 0 171.5 -67.5t67.5 -171.5q0 -106 -70.5 -175t-182.5 -69zM326 -197q78 0 128 49t50 128q0 78 -49.5 127t-128.5 49t-129 -49t-50 -127
t50 -127.5t129 -49.5z" />
    <glyph glyph-name="uni2087" unicode="&#x2087;" horiz-adv-x="634" 
d="M510 424h-377v70h471v-31l-313 -709h-78z" />
    <glyph glyph-name="uni2088" unicode="&#x2088;" horiz-adv-x="716" 
d="M358 -262q-115 0 -185.5 62.5t-70.5 162.5q0 64 36 119t95 78q-41 29 -64.5 68.5t-23.5 80.5q0 88 60.5 144.5t152.5 56.5t152.5 -56.5t60.5 -144.5q0 -41 -23.5 -80.5t-64.5 -68.5q59 -23 95 -78t36 -119q0 -100 -70.5 -162.5t-185.5 -62.5zM358 -197q82 0 133.5 43.5
t51.5 114.5q0 72 -50.5 116t-134.5 44t-134 -44t-50 -116t51 -115t133 -43zM358 186q63 0 102.5 36t39.5 93t-39.5 93t-102.5 36t-102 -36t-39 -93t39 -93t102 -36z" />
    <glyph glyph-name="uni2089" unicode="&#x2089;" horiz-adv-x="667" 
d="M231 -205q101 62 161 126.5t100 160.5q-62 -62 -160 -62q-104 0 -172 68t-68 172q0 106 71 175t183 69q113 0 181.5 -73.5t68.5 -197.5q0 -138 -84 -268.5t-244 -226.5zM342 86q79 0 128.5 49t49.5 127t-49.5 127t-128.5 49t-128.5 -48.5t-49.5 -127.5q0 -78 49.5 -127
t128.5 -49z" />
    <glyph glyph-name="Euro" unicode="&#x20ac;" horiz-adv-x="1288" 
d="M778 -16q-205 0 -349 145.5t-181 390.5h-176v74h168q-4 62 -4 90q0 32 4 94h-168v74h176q42 246 185 391.5t351 145.5q122 0 218 -52.5t182 -167.5l-60 -47q-135 189 -340 189q-176 0 -294.5 -123t-155.5 -336h512l-19 -74h-503q-5 -78 -5 -94q0 -12 5 -90h464l-18 -74
h-438q37 -213 157.5 -336t298.5 -123q211 0 355 197l53 -45q-168 -229 -418 -229z" />
    <glyph glyph-name="uni20B4" unicode="&#x20b4;" horiz-adv-x="991" 
d="M479 -16q-147 0 -241.5 85t-94.5 216q0 134 101 235h-142v74h787v-74h-543q-123 -99 -123 -233q0 -104 69.5 -166t186.5 -62q190 0 301 168l58 -43q-125 -200 -359 -200zM102 852h543q123 99 123 233q0 104 -69.5 166t-186.5 62q-190 0 -301 -168l-57 43q126 201 358 201
q147 0 241.5 -85.5t94.5 -216.5q0 -135 -100 -235h141v-74h-787v74z" />
    <glyph glyph-name="uni20BD" unicode="&#x20bd;" horiz-adv-x="1095" 
d="M246 336h-164v74h164v182h-164v74h164v706h293q206 0 335.5 -109t129.5 -282q0 -172 -130 -280.5t-335 -108.5h-213v-182h430v-74h-430v-336h-80v336zM537 666q173 0 279 86.5t106 228.5q0 143 -106 230t-279 87h-211v-632h211z" />
    <glyph glyph-name="uni2116" unicode="&#x2116;" horiz-adv-x="2211" 
d="M283 1212v-1212h-78v1413h31l956 -1253v1212h78v-1413h-31zM1526 676h532v-74h-532v74zM1792 836q-117 0 -196.5 80t-79.5 196q0 117 79.5 197t196.5 80q115 0 195.5 -80.5t80.5 -196.5t-80 -196t-196 -80zM1792 901q85 0 145 61t60 150t-60 150t-145 61
q-88 0 -146.5 -61t-58.5 -150t58.5 -150t146.5 -61z" />
    <glyph glyph-name="trademark" unicode="&#x2122;" horiz-adv-x="1155" 
d="M197 1329h-177v66h424v-66h-176v-543h-71v543zM506 1405h31l243 -350l242 350h31v-619h-72v437l-186 -269h-31l-186 267v-435h-72v619z" />
    <glyph glyph-name="arrowleft" unicode="&#x2190;" horiz-adv-x="2048" 
d="M881 205q-30 104 -78.5 189t-117.5 151.5t-164 103.5t-208 37h-6v41h6q221 0 364 132t204 349h82q-32 -144 -125.5 -261.5t-223.5 -205.5h1127v-69h-1127q130 -88 223.5 -205.5t125.5 -261.5h-82z" />
    <glyph glyph-name="arrowup" unicode="&#x2191;" horiz-adv-x="2048" 
d="M989 1126q-85 -130 -205 -225.5t-262 -122.5v82q104 30 189 78.5t152 117t104 163.5t37 208v7h40v-7q0 -113 37 -208t103.5 -164t152 -117.5t189.5 -77.5v-82q-142 27 -262 122.5t-205 225.5v-1126h-70v1126z" />
    <glyph glyph-name="arrowright" unicode="&#x2192;" horiz-adv-x="2048" 
d="M1085 205q27 142 123 262t226 205h-1127v69h1127q-130 85 -226 205t-123 262h82q61 -217 204 -349t364 -132h6v-41h-6q-113 0 -208 -37t-164 -103.5t-117.5 -151.5t-78.5 -189h-82z" />
    <glyph glyph-name="arrowdown" unicode="&#x2193;" horiz-adv-x="2048" 
d="M1004 6q0 113 -37 208t-104 163.5t-152 117t-189 78.5v82q144 -32 261.5 -125t205.5 -223v1127h70v-1127q88 130 205.5 223t261.5 125v-82q-104 -29 -189.5 -77.5t-152 -117.5t-103.5 -164t-37 -208v-6h-40v6z" />
    <glyph glyph-name="uni2196" unicode="&#x2196;" horiz-adv-x="2048" 
d="M705 920q21 -95 21.5 -191.5t-25.5 -200.5t-80 -186l-60 59q52 95 78 189t25 190.5t-41.5 189.5t-120.5 173l-6 4l30 29l4 -5q80 -80 173.5 -121t189.5 -42.5t190.5 24.5t188.5 78l57 -57q-82 -54 -184.5 -80t-198.5 -25.5t-192 21.5l796 -797l-51 -49z" />
    <glyph glyph-name="uni2197" unicode="&#x2197;" horiz-adv-x="2048" 
d="M496 172l796 797q-94 -21 -190.5 -22t-200.5 25t-184 81l57 57q94 -52 188.5 -78t190.5 -24.5t189.5 42.5t173.5 121l4 5l30 -29l-6 -4q-80 -80 -120.5 -173t-41.5 -189.5t25 -190.5t78 -189l-60 -59q-54 82 -80 186t-25.5 200.5t21.5 191.5l-794 -797z" />
    <glyph glyph-name="uni2198" unicode="&#x2198;" horiz-adv-x="2048" 
d="M1516 147q-105 105 -235 142t-255 14t-252 -94l-57 57q80 55 184 81t200.5 25t190.5 -22l-796 797l51 49l794 -797q-21 95 -21.5 191.5t25.5 200.5t80 186l60 -59q-52 -95 -78 -189t-25 -190.5t41.5 -189.5t120.5 -173l6 -4l-30 -29z" />
    <glyph glyph-name="uni2199" unicode="&#x2199;" horiz-adv-x="2048" 
d="M496 172l6 4q80 80 120.5 173t41.5 189.5t-25 190.5t-78 189l60 59q54 -82 80 -186t25.5 -200.5t-21.5 -191.5l794 797l51 -49l-796 -797q96 21 192 21.5t198.5 -25.5t184.5 -80l-57 -57q-127 71 -252 94t-255 -14t-235 -142l-4 -4z" />
    <glyph glyph-name="minus" unicode="&#x2212;" horiz-adv-x="880" 
d="M61 702h758v-73h-758v73z" />
    <glyph glyph-name="approxequal" unicode="&#x2248;" horiz-adv-x="880" 
d="M612 424q-77 0 -188 57q-59 30 -90.5 42t-63.5 12q-95 0 -145 -103l-64 29q31 69 86 108t121 39q78 0 189 -57q58 -30 89 -41.5t64 -11.5q96 0 146 102l63 -29q-31 -69 -86 -108t-121 -39zM612 711q-77 0 -188 57q-57 29 -89 41t-65 12q-96 0 -145 -102l-64 29
q31 69 86 108t121 39q78 0 189 -57q59 -31 90 -42.5t63 -11.5q96 0 146 103l63 -29q-31 -69 -86 -108t-121 -39z" />
    <glyph glyph-name="notequal" unicode="&#x2260;" horiz-adv-x="880" 
d="M254 479h-193v74h248l172 225h-420v74h476l145 192h90l-145 -192h192v-74h-248l-172 -225h420v-74h-475l-145 -192h-90z" />
    <glyph glyph-name="lessequal" unicode="&#x2264;" horiz-adv-x="880" 
d="M61 334h758v-74h-758v74zM61 729v80l725 336l33 -66l-676 -309l676 -311l-33 -66z" />
    <glyph glyph-name="greaterequal" unicode="&#x2265;" horiz-adv-x="880" 
d="M61 334h758v-74h-758v74zM61 459l676 311l-676 309l33 66l725 -336v-80l-725 -336z" />
    <glyph glyph-name="uniF6D1" unicode="&#xf6d1;" horiz-adv-x="471" 
d="M236 1085q-96 0 -156 61.5t-60 160.5h72q0 -69 40.5 -111.5t103.5 -42.5t103 42.5t40 111.5h72q0 -99 -59.5 -160.5t-155.5 -61.5z" />
    <glyph glyph-name="uniF6D4" unicode="&#xf6d4;" horiz-adv-x="458" 
d="M229 1085q-92 0 -150.5 62t-58.5 160h72q0 -69 38.5 -111.5t98.5 -42.5t99 42.5t39 111.5h71q0 -98 -58.5 -160t-150.5 -62z" />
    <glyph glyph-name="s_t" unicode="&#xfb06;" horiz-adv-x="1607" 
d="M481 -16q-124 0 -228 52t-171 150l59 45q136 -178 344 -178q113 0 180.5 49t67.5 131q0 74 -61.5 123t-200.5 84q-169 44 -246.5 111t-77.5 166q0 109 84 175t220 66q101 0 180 -36q-49 107 -49 196q0 141 93 236.5t234 95.5q136 0 225 -86.5t89 -220.5q0 -123 -72 -201
h362v-70h-290v-634q0 -88 39.5 -136.5t111.5 -48.5q80 0 139 62l43 -47q-75 -84 -188 -84q-104 0 -162.5 65t-58.5 182v641h-143v70q59 0 101 60t42 143q0 103 -66.5 166t-171.5 63q-112 0 -182 -72.5t-70 -185.5q0 -146 142 -313l-58 -47q-112 133 -292 133
q-103 0 -164.5 -46t-61.5 -124q0 -72 61.5 -120t200.5 -85q170 -47 247 -112.5t77 -163.5q0 -115 -90 -184.5t-238 -69.5z" />
    <glyph glyph-name="c_h" horiz-adv-x="2080" 
d="M586 -16q-210 0 -347 138t-137 349q0 209 135 348t338 139q109 0 199 -43q-59 109 -59 224q0 139 80 225t209 86q125 0 198.5 -83t73.5 -224v-369q48 87 130.5 135.5t186.5 48.5q153 0 248.5 -107.5t95.5 -279.5v-571h-75v553q0 153 -76 244.5t-203 91.5
q-130 0 -218.5 -96.5t-88.5 -239.5v-553h-76v1143q0 108 -53 169.5t-146 61.5q-97 0 -153.5 -64.5t-56.5 -170.5q0 -169 155 -348l-57 -52q-140 146 -318 146q-169 0 -279 -116.5t-110 -293.5q0 -184 116.5 -301t297.5 -117q175 0 309 140l49 -43q-147 -170 -368 -170z" />
    <glyph glyph-name="c_k" horiz-adv-x="1886" 
d="M586 -16q-210 0 -347 138t-137 349q0 209 135 348t338 139q109 0 199 -43q-59 109 -59 224q0 139 80 225t209 86q125 0 198.5 -83t73.5 -224v-643l475 442h104l-493 -459l504 -483h-109l-481 461v-461h-76v1143q0 108 -53 169.5t-146 61.5q-97 0 -153.5 -64.5
t-56.5 -170.5q0 -169 155 -348l-57 -52q-140 146 -318 146q-169 0 -279 -116.5t-110 -293.5q0 -184 116.5 -301t297.5 -117q175 0 309 140l49 -43q-147 -170 -368 -170z" />
    <glyph glyph-name="c_t" horiz-adv-x="1732" 
d="M586 -16q-210 0 -347 138t-137 349q0 209 135 348t338 139q109 0 199 -43q-59 109 -59 213q0 141 90.5 231.5t232.5 90.5q139 0 228.5 -85t89.5 -216q0 -123 -78 -207h360v-70h-290v-634q0 -88 38.5 -136.5t110.5 -48.5q82 0 141 62l43 -47q-75 -84 -188 -84
q-104 0 -162.5 65t-58.5 182v641h-144v70q55 0 103.5 58.5t48.5 146.5q0 102 -66 164.5t-172 62.5q-112 0 -181.5 -67.5t-69.5 -176.5q0 -157 155 -339l-57 -52q-140 146 -318 146q-169 0 -279 -116.5t-110 -293.5q0 -184 116.5 -301t297.5 -117q175 0 309 140l49 -43
q-147 -170 -368 -170z" />
    <glyph glyph-name="s_p" horiz-adv-x="2076" 
d="M1075 942q90 66 90 191q0 109 -71 175t-183 66q-115 0 -183.5 -68t-68.5 -176q0 -79 37.5 -167.5t102.5 -159.5l-58 -47q-112 133 -292 133q-103 0 -164.5 -46t-61.5 -124q0 -72 62.5 -120.5t203.5 -86.5q166 -44 243 -110t77 -164q0 -115 -90 -184.5t-238 -69.5
q-124 0 -228 52t-171 150l59 45q136 -178 344 -178q113 0 180.5 49t67.5 131q0 74 -62.5 123t-203.5 86q-165 43 -242.5 109.5t-77.5 165.5q0 109 84 175t220 66q94 0 178 -34q-45 93 -45 198q0 144 90.5 236t236.5 92q142 0 236 -87.5t94 -223.5q0 -135 -90 -221v-191
q55 108 153.5 169.5t223.5 61.5q192 0 319 -139t127 -348t-127 -348t-319 -139q-127 0 -224.5 61.5t-152.5 169.5v-727h-76v1454zM1520 55q165 0 270.5 118t105.5 298t-104.5 298t-267.5 118q-166 0 -269.5 -118t-103.5 -298q0 -182 103 -299t266 -117z" />
    <glyph glyph-name="I.alt" horiz-adv-x="612" 
d="M82 74h184v1224h-184v74h448v-74h-184v-1224h184v-74h-448v74z" />
    <glyph glyph-name="a.alt" horiz-adv-x="1165" 
d="M547 -16q-191 0 -318 139t-127 348q0 210 127 348.5t322 138.5q125 0 222.5 -61.5t152.5 -169.5v215h75v-942h-75v215q-55 -108 -153.5 -169.5t-225.5 -61.5zM553 55q163 0 268 118t105 298q0 182 -103 299t-266 117q-165 0 -271 -118t-106 -298t105 -298t268 -118z" />
    <glyph glyph-name="g.alt" horiz-adv-x="1165" 
d="M553 55q163 0 268 118t105 298q0 182 -103 299t-266 117q-165 0 -271 -118t-106 -298t105 -298t268 -118zM575 -512q-113 0 -207 45t-153 131l61 51q110 -155 304 -155q153 0 249.5 97.5t96.5 256.5v301q-55 -108 -153.5 -169.5t-225.5 -61.5q-191 0 -318 139t-127 348
q0 210 127 348.5t322 138.5q125 0 222.5 -61.5t152.5 -169.5v215h75v-1028q0 -190 -119 -308t-307 -118z" />
    <glyph glyph-name="l.alt" horiz-adv-x="542" 
d="M369 -16q-97 0 -151 64t-54 179v1227h76v-1221q0 -87 36 -133.5t103 -46.5q72 0 119 56l45 -46q-67 -79 -174 -79z" />
    <glyph glyph-name="y.alt" 
d="M481 -514q-203 0 -338 168l62 51q118 -147 282 -147q140 0 224 95t84 253v260q-48 -86 -130 -134t-184 -48q-152 0 -245 107.5t-93 279.5v571h76v-553q0 -152 75 -244t200 -92q129 0 215 96.5t86 239.5v553h75v-1036q0 -186 -108.5 -303t-280.5 -117z" />
    <glyph glyph-name="Igrave.alt" horiz-adv-x="612" 
d="M82 74h184v1224h-184v74h448v-74h-184v-1224h184v-74h-448v74zM86 1718l66 56l180 -242l-41 -33z" />
    <glyph glyph-name="Iacute.alt" horiz-adv-x="612" 
d="M82 74h184v1224h-184v74h448v-74h-184v-1224h184v-74h-448v74zM268 1532l181 242l65 -56l-205 -219z" />
    <glyph glyph-name="Icircumflex.alt" horiz-adv-x="612" 
d="M82 74h184v1224h-184v74h448v-74h-184v-1224h184v-74h-448v74zM61 1571l246 192l246 -192l-43 -51l-203 155l-203 -155z" />
    <glyph glyph-name="Idieresis.alt" horiz-adv-x="612" 
d="M82 74h184v1224h-184v74h448v-74h-184v-1224h184v-74h-448v74zM150 1589q-29 0 -46.5 18.5t-17.5 47.5t18.5 47t45.5 18q29 0 47 -18t18 -47t-19 -47.5t-46 -18.5zM463 1589q-27 0 -46.5 18.5t-19.5 47.5t18.5 47t47.5 18q27 0 45 -18t18 -47q0 -30 -17 -48t-46 -18z" />
    <glyph glyph-name="agrave.alt" horiz-adv-x="1165" 
d="M547 -16q-191 0 -318 139t-127 348q0 210 127 348.5t322 138.5q125 0 222.5 -61.5t152.5 -169.5v215h75v-942h-75v215q-55 -108 -153.5 -169.5t-225.5 -61.5zM553 55q163 0 268 118t105 298q0 182 -103 299t-266 117q-165 0 -271 -118t-106 -298t105 -298t268 -118z
M352 1288l66 55l180 -241l-41 -33z" />
    <glyph glyph-name="aacute.alt" horiz-adv-x="1165" 
d="M547 -16q-191 0 -318 139t-127 348q0 210 127 348.5t322 138.5q125 0 222.5 -61.5t152.5 -169.5v215h75v-942h-75v215q-55 -108 -153.5 -169.5t-225.5 -61.5zM553 55q163 0 268 118t105 298q0 182 -103 299t-266 117q-165 0 -271 -118t-106 -298t105 -298t268 -118z
M535 1102l180 241l65 -55l-205 -219z" />
    <glyph glyph-name="acircumflex.alt" horiz-adv-x="1165" 
d="M547 -16q-191 0 -318 139t-127 348q0 210 127 348.5t322 138.5q125 0 222.5 -61.5t152.5 -169.5v215h75v-942h-75v215q-55 -108 -153.5 -169.5t-225.5 -61.5zM553 55q163 0 268 118t105 298q0 182 -103 299t-266 117q-165 0 -271 -118t-106 -298t105 -298t268 -118z
M328 1141l245 192l246 -192l-43 -51l-203 155l-202 -155z" />
    <glyph glyph-name="atilde.alt" horiz-adv-x="1165" 
d="M547 -16q-191 0 -318 139t-127 348q0 210 127 348.5t322 138.5q125 0 222.5 -61.5t152.5 -169.5v215h75v-942h-75v215q-55 -108 -153.5 -169.5t-225.5 -61.5zM553 55q163 0 268 118t105 298q0 182 -103 299t-266 117q-165 0 -271 -118t-106 -298t105 -298t268 -118z
M334 1165q19 60 58 91.5t93 31.5q49 0 105 -39q49 -39 82 -39q52 0 80 78l63 -24q-19 -60 -58 -91.5t-93 -31.5q-49 0 -105 39q-49 39 -82 39q-52 0 -80 -78z" />
    <glyph glyph-name="adieresis.alt" horiz-adv-x="1165" 
d="M547 -16q-191 0 -318 139t-127 348q0 210 127 348.5t322 138.5q125 0 222.5 -61.5t152.5 -169.5v215h75v-942h-75v215q-55 -108 -153.5 -169.5t-225.5 -61.5zM553 55q163 0 268 118t105 298q0 182 -103 299t-266 117q-165 0 -271 -118t-106 -298t105 -298t268 -118z
M416 1159q-29 0 -46.5 18.5t-17.5 47.5t18.5 47t45.5 18q29 0 47 -18t18 -47t-19 -47.5t-46 -18.5zM729 1159q-27 0 -46 18.5t-19 47.5t18 47t47 18q27 0 45.5 -18t18.5 -47t-17.5 -47.5t-46.5 -18.5z" />
    <glyph glyph-name="aring.alt" horiz-adv-x="1165" 
d="M547 -16q-191 0 -318 139t-127 348q0 210 127 348.5t322 138.5q125 0 222.5 -61.5t152.5 -169.5v215h75v-942h-75v215q-55 -108 -153.5 -169.5t-225.5 -61.5zM553 55q163 0 268 118t105 298q0 182 -103 299t-266 117q-165 0 -271 -118t-106 -298t105 -298t268 -118z
M573 1049q-71 0 -122.5 51.5t-51.5 120.5t51.5 120.5t122.5 51.5q69 0 122 -52t53 -120q0 -69 -51.5 -120.5t-123.5 -51.5zM573 1110q44 0 74.5 31t30.5 80q0 48 -30.5 79t-74.5 31t-74 -30.5t-30 -79.5t30 -80t74 -31z" />
    <glyph glyph-name="yacute.alt" 
d="M481 -514q-203 0 -338 168l62 51q118 -147 282 -147q140 0 224 95t84 253v260q-48 -86 -130 -134t-184 -48q-152 0 -245 107.5t-93 279.5v571h76v-553q0 -152 75 -244t200 -92q129 0 215 96.5t86 239.5v553h75v-1036q0 -186 -108.5 -303t-280.5 -117zM467 1102l180 241
l66 -55l-205 -219z" />
    <glyph glyph-name="ydieresis.alt" 
d="M481 -514q-203 0 -338 168l62 51q118 -147 282 -147q140 0 224 95t84 253v260q-48 -86 -130 -134t-184 -48q-152 0 -245 107.5t-93 279.5v571h76v-553q0 -152 75 -244t200 -92q129 0 215 96.5t86 239.5v553h75v-1036q0 -186 -108.5 -303t-280.5 -117zM348 1159
q-29 0 -46 18t-17 48q0 29 18 47t45 18q29 0 47.5 -18t18.5 -47t-19.5 -47.5t-46.5 -18.5zM662 1159q-27 0 -46.5 18.5t-19.5 47.5t18.5 47t47.5 18q27 0 45 -18t18 -47q0 -30 -17 -48t-46 -18z" />
    <glyph glyph-name="amacron.alt" horiz-adv-x="1165" 
d="M547 -16q-191 0 -318 139t-127 348q0 210 127 348.5t322 138.5q125 0 222.5 -61.5t152.5 -169.5v215h75v-942h-75v215q-55 -108 -153.5 -169.5t-225.5 -61.5zM553 55q163 0 268 118t105 298q0 182 -103 299t-266 117q-165 0 -271 -118t-106 -298t105 -298t268 -118z
M379 1255h389v-69h-389v69z" />
    <glyph glyph-name="abreve.alt" horiz-adv-x="1165" 
d="M547 -16q-191 0 -318 139t-127 348q0 210 127 348.5t322 138.5q125 0 222.5 -61.5t152.5 -169.5v215h75v-942h-75v215q-55 -108 -153.5 -169.5t-225.5 -61.5zM553 55q163 0 268 118t105 298q0 182 -103 299t-266 117q-165 0 -271 -118t-106 -298t105 -298t268 -118z
M573 1085q-92 0 -148 61.5t-56 160.5h67q0 -68 38 -110t99 -42t99.5 42t38.5 110h67q0 -99 -56.5 -160.5t-148.5 -61.5z" />
    <glyph glyph-name="aogonek.alt" horiz-adv-x="1165" 
d="M553 55q163 0 268 118t105 298q0 182 -103 299t-266 117q-165 0 -271 -118t-106 -298t105 -298t268 -118zM889 -504q-96 0 -154.5 54.5t-58.5 142.5q0 179 252 307h-2v215q-55 -108 -153.5 -169.5t-225.5 -61.5q-191 0 -318 139t-127 348q0 210 127 348.5t322 138.5
q125 0 222.5 -61.5t152.5 -169.5v215h75v-942q-136 -95 -192.5 -159.5t-56.5 -135.5q0 -66 38.5 -102.5t104.5 -36.5q41 0 90 12v-67q-34 -15 -96 -15z" />
    <glyph glyph-name="gcircumflex.alt" horiz-adv-x="1165" 
d="M553 55q163 0 268 118t105 298q0 182 -103 299t-266 117q-165 0 -271 -118t-106 -298t105 -298t268 -118zM575 -512q-113 0 -207 45t-153 131l61 51q110 -155 304 -155q153 0 249.5 97.5t96.5 256.5v301q-55 -108 -153.5 -169.5t-225.5 -61.5q-191 0 -318 139t-127 348
q0 210 127 348.5t322 138.5q125 0 222.5 -61.5t152.5 -169.5v215h75v-1028q0 -190 -119 -308t-307 -118zM328 1141l245 192l246 -192l-43 -51l-203 155l-202 -155z" />
    <glyph glyph-name="gbreve.alt" horiz-adv-x="1165" 
d="M553 55q163 0 268 118t105 298q0 182 -103 299t-266 117q-165 0 -271 -118t-106 -298t105 -298t268 -118zM575 -512q-113 0 -207 45t-153 131l61 51q110 -155 304 -155q153 0 249.5 97.5t96.5 256.5v301q-55 -108 -153.5 -169.5t-225.5 -61.5q-191 0 -318 139t-127 348
q0 210 127 348.5t322 138.5q125 0 222.5 -61.5t152.5 -169.5v215h75v-1028q0 -190 -119 -308t-307 -118zM573 1085q-92 0 -148 61.5t-56 160.5h67q0 -68 38 -110t99 -42t99.5 42t38.5 110h67q0 -99 -56.5 -160.5t-148.5 -61.5z" />
    <glyph glyph-name="gdotaccent.alt" horiz-adv-x="1165" 
d="M553 55q163 0 268 118t105 298q0 182 -103 299t-266 117q-165 0 -271 -118t-106 -298t105 -298t268 -118zM575 -512q-113 0 -207 45t-153 131l61 51q110 -155 304 -155q153 0 249.5 97.5t96.5 256.5v301q-55 -108 -153.5 -169.5t-225.5 -61.5q-191 0 -318 139t-127 348
q0 210 127 348.5t322 138.5q125 0 222.5 -61.5t152.5 -169.5v215h75v-1028q0 -190 -119 -308t-307 -118zM575 1159q-27 0 -46 18.5t-19 47.5t18 47t47 18q27 0 45.5 -18t18.5 -47t-17.5 -47.5t-46.5 -18.5z" />
    <glyph glyph-name="gcommaaccent.alt" horiz-adv-x="1165" 
d="M553 55q163 0 268 118t105 298q0 182 -103 299t-266 117q-165 0 -271 -118t-106 -298t105 -298t268 -118zM575 -512q-113 0 -207 45t-153 131l61 51q110 -155 304 -155q153 0 249.5 97.5t96.5 256.5v301q-55 -108 -153.5 -169.5t-225.5 -61.5q-191 0 -318 139t-127 348
q0 210 127 348.5t322 138.5q125 0 222.5 -61.5t152.5 -169.5v215h75v-1028q0 -190 -119 -308t-307 -118zM532 1110l111 334l51 -14l-69 -345z" />
    <glyph glyph-name="Imacron.alt" horiz-adv-x="612" 
d="M82 74h184v1224h-184v74h448v-74h-184v-1224h184v-74h-448v74zM113 1686h389v-70h-389v70z" />
    <glyph glyph-name="Ibreve.alt" horiz-adv-x="612" 
d="M82 74h184v1224h-184v74h448v-74h-184v-1224h184v-74h-448v74zM307 1516q-92 0 -148.5 61t-56.5 160h68q0 -68 38 -110t99 -42t99 42t38 110h68q0 -99 -56.5 -160t-148.5 -61z" />
    <glyph glyph-name="Iogonek.alt" horiz-adv-x="612" 
d="M418 -504q-96 0 -154.5 54.5t-58.5 142.5q0 179 252 307h-375v74h184v1224h-184v74h448v-74h-184v-1224h184v-74q-136 -95 -192.5 -159.5t-56.5 -135.5q0 -66 38.5 -102.5t104.5 -36.5q40 0 90 12v-67q-34 -15 -96 -15z" />
    <glyph glyph-name="Idotaccent.alt" horiz-adv-x="612" 
d="M82 74h184v1224h-184v74h448v-74h-184v-1224h184v-74h-448v74zM309 1589q-27 0 -46 18.5t-19 47.5t18 47t47 18q27 0 45.5 -18t18.5 -47t-17.5 -47.5t-46.5 -18.5z" />
    <glyph glyph-name="lacute.alt" horiz-adv-x="542" 
d="M369 -16q-97 0 -151 64t-54 179v1227h76v-1221q0 -87 36 -133.5t103 -46.5q72 0 119 56l45 -46q-67 -79 -174 -79zM164 1569l180 241l66 -55l-205 -219z" />
    <glyph glyph-name="lcommaaccent.alt" horiz-adv-x="542" 
d="M369 -16q-97 0 -151 64t-54 179v1227h76v-1221q0 -87 36 -133.5t103 -46.5q72 0 119 56l45 -46q-67 -79 -174 -79zM217 -461l88 342l96 -31l-131 -329z" />
    <glyph glyph-name="lcaron.alt" horiz-adv-x="542" 
d="M369 -16q-97 0 -151 64t-54 179v1227h76v-1221q0 -87 36 -133.5t103 -46.5q72 0 119 56l45 -46q-67 -79 -174 -79zM346 1122l76 346l100 -26l-119 -334z" />
    <glyph glyph-name="ldot.alt" horiz-adv-x="542" 
d="M469 680q-29 0 -47.5 19.5t-18.5 48.5t19.5 48t48.5 19t47.5 -19t18.5 -48t-19.5 -48.5t-48.5 -19.5zM369 -16q-97 0 -151 64t-54 179v1227h76v-1221q0 -87 36 -133.5t103 -46.5q72 0 119 56l45 -46q-67 -79 -174 -79z" />
    <glyph glyph-name="lslash.alt" horiz-adv-x="563" 
d="M389 -16q-97 0 -151 64t-54 179v453l-143 -82v78l143 82v696h76v-651l205 117v-78l-205 -117v-492q0 -87 36 -133.5t103 -46.5q72 0 119 56l45 -46q-67 -79 -174 -79z" />
    <glyph glyph-name="ycircumflex.alt" 
d="M481 -514q-203 0 -338 168l62 51q118 -147 282 -147q140 0 224 95t84 253v260q-48 -86 -130 -134t-184 -48q-152 0 -245 107.5t-93 279.5v571h76v-553q0 -152 75 -244t200 -92q129 0 215 96.5t86 239.5v553h75v-1036q0 -186 -108.5 -303t-280.5 -117zM260 1141l246 192
l246 -192l-43 -51l-203 155l-203 -155z" />
    <glyph glyph-name="aringacute.alt" horiz-adv-x="1165" 
d="M547 -16q-191 0 -318 139t-127 348q0 210 127 348.5t322 138.5q125 0 222.5 -61.5t152.5 -169.5v215h75v-942h-75v215q-55 -108 -153.5 -169.5t-225.5 -61.5zM553 55q163 0 268 118t105 298q0 182 -103 299t-266 117q-165 0 -271 -118t-106 -298t105 -298t268 -118z
M573 1036q-73 0 -123.5 50t-50.5 122t50.5 122t123.5 50q74 0 124.5 -49.5t50.5 -122.5q0 -72 -51 -122t-124 -50zM573 1098q44 0 74.5 31.5t30.5 78.5t-30.5 79t-74.5 32t-74 -32t-30 -79t30 -78.5t74 -31.5zM518 1481l252 166l43 -76l-268 -135z" />
    <glyph glyph-name="uni0233.alt" 
d="M481 -514q-203 0 -338 168l62 51q118 -147 282 -147q140 0 224 95t84 253v260q-48 -86 -130 -134t-184 -48q-152 0 -245 107.5t-93 279.5v571h76v-553q0 -152 75 -244t200 -92q129 0 215 96.5t86 239.5v553h75v-1036q0 -186 -108.5 -303t-280.5 -117zM311 1255h389v-69
h-389v69z" />
    <glyph glyph-name="uni0406.alt" horiz-adv-x="612" 
d="M82 74h184v1224h-184v74h448v-74h-184v-1224h184v-74h-448v74z" />
    <glyph glyph-name="uni0407.alt" horiz-adv-x="612" 
d="M82 74h184v1224h-184v74h448v-74h-184v-1224h184v-74h-448v74zM150 1589q-29 0 -46.5 18.5t-17.5 47.5t18.5 47t45.5 18q29 0 47 -18t18 -47t-19 -47.5t-46 -18.5zM463 1589q-27 0 -46.5 18.5t-19.5 47.5t18.5 47t47.5 18q27 0 45 -18t18 -47q0 -30 -17 -48t-46 -18z" />
    <glyph glyph-name="uni0430.alt" horiz-adv-x="1165" 
d="M547 -16q-191 0 -318 139t-127 348q0 210 127 348.5t322 138.5q125 0 222.5 -61.5t152.5 -169.5v215h75v-942h-75v215q-55 -108 -153.5 -169.5t-225.5 -61.5zM553 55q163 0 268 118t105 298q0 182 -103 299t-266 117q-165 0 -271 -118t-106 -298t105 -298t268 -118z" />
    <glyph glyph-name="uni0443.alt" 
d="M481 -514q-203 0 -338 168l62 51q118 -147 282 -147q140 0 224 95t84 253v260q-48 -86 -130 -134t-184 -48q-152 0 -245 107.5t-93 279.5v571h76v-553q0 -152 75 -244t200 -92q129 0 215 96.5t86 239.5v553h75v-1036q0 -186 -108.5 -303t-280.5 -117z" />
    <glyph glyph-name="uni045E.alt" 
d="M481 -514q-203 0 -338 168l62 51q118 -147 282 -147q140 0 224 95t84 253v260q-48 -86 -130 -134t-184 -48q-152 0 -245 107.5t-93 279.5v571h76v-553q0 -152 75 -244t200 -92q129 0 215 96.5t86 239.5v553h75v-1036q0 -186 -108.5 -303t-280.5 -117zM506 1085
q-92 0 -150.5 62t-58.5 160h72q0 -69 38.5 -111.5t98.5 -42.5t98.5 42.5t38.5 111.5h72q0 -98 -58.5 -160t-150.5 -62z" />
    <glyph glyph-name="ygrave.alt" 
d="M481 -514q-203 0 -338 168l62 51q118 -147 282 -147q140 0 224 95t84 253v260q-48 -86 -130 -134t-184 -48q-152 0 -245 107.5t-93 279.5v571h76v-553q0 -152 75 -244t200 -92q129 0 215 96.5t86 239.5v553h75v-1036q0 -186 -108.5 -303t-280.5 -117zM285 1288l65 55
l180 -241l-41 -33z" />
    <glyph glyph-name="fl.alt" horiz-adv-x="1099" 
d="M926 -16q-97 0 -151 64t-54 179v906q0 112 -56.5 180.5t-148.5 68.5t-148.5 -68.5t-56.5 -180.5v-191h246v-70h-246v-872h-75v872h-144v70h144v191q0 143 78 232t202 89q125 0 203 -89.5t78 -231.5v-900q0 -87 36 -133.5t103 -46.5q72 0 119 56l45 -46q-67 -79 -174 -79z
" />
    <glyph glyph-name="ffl.alt" horiz-adv-x="1585" 
d="M1411 -16q-97 0 -151 64t-54 179v906q0 112 -56.5 180.5t-148.5 68.5t-148 -68t-56 -181v-191h245v-70h-245v-872h-76v872h-410v-872h-75v872h-144v70h144v252q0 123 58 191.5t161 68.5q107 0 184 -86l-49 -53q-57 69 -137 69q-68 0 -105 -49t-37 -141v-252h410v191
q0 143 78 232t202 89q125 0 203 -89.5t78 -231.5v-900q0 -87 36 -133.5t103 -46.5q72 0 119 56l45 -46q-67 -79 -174 -79z" />
    <glyph glyph-name="parenleft.case" horiz-adv-x="706" 
d="M606 -289q-201 177 -316.5 432.5t-115.5 522.5q0 269 115 521t317 433l49 -51q-191 -177 -295 -407t-104 -496t104.5 -496.5t294.5 -407.5z" />
    <glyph glyph-name="parenright.case" horiz-adv-x="706" 
d="M51 -238q191 178 295.5 408t104.5 496q0 265 -104.5 495t-295.5 408l49 51q202 -181 317 -433t115 -521q0 -267 -115.5 -522.5t-316.5 -432.5z" />
    <glyph glyph-name="hyphen.case" horiz-adv-x="614" 
d="M92 717h430v-82h-430v82z" />
    <glyph glyph-name="colon.case" horiz-adv-x="440" 
d="M219 133q-29 0 -47 19t-18 49q0 29 19 48t48 19t47.5 -19t18.5 -48t-19.5 -48.5t-48.5 -19.5zM219 961q-29 0 -47 19t-18 48t19 48.5t48 19.5t47.5 -19.5t18.5 -48.5t-19.5 -48t-48.5 -19z" />
    <glyph glyph-name="at.case" horiz-adv-x="1820" 
d="M874 -137q-211 27 -375.5 135.5t-254.5 276.5t-90 368q0 159 60.5 301.5t164 245t247.5 162t304 59.5q158 0 298.5 -57.5t241.5 -156t159.5 -236.5t58.5 -293q0 -189 -79 -301.5t-212 -112.5q-85 0 -144 46.5t-77 121.5q-36 -74 -115.5 -121t-175.5 -47
q-141 0 -234.5 106.5t-93.5 266.5q0 161 96 266.5t242 105.5q87 0 160 -37.5t116 -103.5v111h72v-471q0 -78 44 -125t116 -47q97 0 152 91.5t55 246.5q0 191 -87.5 345.5t-243 242t-349.5 87.5q-147 0 -277 -52.5t-222.5 -144.5t-146 -221t-53.5 -276q0 -189 85.5 -345
t235 -251.5t335.5 -114.5zM899 326q117 0 194.5 86t77.5 215q0 128 -77.5 214.5t-194.5 86.5q-115 0 -189.5 -85t-74.5 -216t74.5 -216t189.5 -85z" />
    <glyph glyph-name="bracketleft.case" horiz-adv-x="624" 
d="M215 1597h317v-69h-241v-1745h241v-70h-317v1884z" />
    <glyph glyph-name="bracketright.case" horiz-adv-x="624" 
d="M92 -217h242v1745h-242v69h318v-1884h-318v70z" />
    <glyph glyph-name="braceleft.case" horiz-adv-x="645" 
d="M487 -287q-99 0 -161 64t-62 166v520q0 72 -38.5 115t-104.5 43h-8v69h8q66 0 104.5 43t38.5 115v520q0 102 62 165.5t161 63.5h66v-69h-66q-66 0 -106.5 -44t-40.5 -116v-520q0 -150 -117 -191v-4q117 -41 117 -190v-520q0 -72 40.5 -116t106.5 -44h66v-70h-66z" />
    <glyph glyph-name="braceright.case" horiz-adv-x="645" 
d="M92 -217h66q66 0 106.5 44t40.5 116v520q0 149 117 190v4q-117 41 -117 191v520q0 72 -40.5 116t-106.5 44h-66v69h66q99 0 161 -63.5t62 -165.5v-520q0 -72 38.5 -115t104.5 -43h8v-69h-8q-66 0 -104.5 -43t-38.5 -115v-520q0 -102 -62 -166t-161 -64h-66v70z" />
    <glyph glyph-name="exclamdown.case" horiz-adv-x="440" 
d="M193 1065h55l20 -1065h-96zM221 1247q-29 0 -48 19.5t-19 48.5t18 48t47 19t48.5 -19t19.5 -48t-18.5 -48.5t-47.5 -19.5z" />
    <glyph glyph-name="guillemotleft.case" horiz-adv-x="847" 
d="M92 655l250 357l61 -41l-221 -316l221 -315l-61 -41zM403 655l250 357l62 -41l-221 -316l219 -313l-60 -43z" />
    <glyph glyph-name="periodcentered.case" horiz-adv-x="450" 
d="M223 592q-29 0 -47 19t-18 48t19 48.5t48 19.5t47.5 -19.5t18.5 -48.5t-19.5 -48t-48.5 -19z" />
    <glyph glyph-name="guillemotright.case" horiz-adv-x="847" 
d="M135 342l219 313l-221 316l62 41l249 -357l-249 -356zM444 340l222 315l-222 316l62 41l250 -357l-250 -356z" />
    <glyph glyph-name="questiondown.case" horiz-adv-x="858" 
d="M432 -12q-148 0 -244 83t-96 212q0 84 49.5 152t177.5 163q102 73 137.5 119t35.5 98q0 60 -39.5 96t-126.5 56l22 69q223 -46 223 -219q0 -71 -41.5 -127.5t-148.5 -132.5q-119 -84 -164 -143.5t-45 -126.5q0 -101 73 -165.5t191 -64.5q93 0 162.5 44.5t126.5 140.5
l61 -45q-55 -102 -146 -155.5t-208 -53.5zM430 1247q-29 0 -47 19t-18 49q0 29 19 48t48 19t47.5 -19t18.5 -48t-19.5 -48.5t-48.5 -19.5z" />
    <glyph glyph-name="endash.case" horiz-adv-x="983" 
d="M51 711h881v-70h-881v70z" />
    <glyph glyph-name="emdash.case" horiz-adv-x="1433" 
d="M51 711h1331v-70h-1331v70z" />
    <glyph glyph-name="bullet.case" horiz-adv-x="606" 
d="M301 565q-41 0 -68.5 28.5t-27.5 70.5q0 41 28.5 69.5t69.5 28.5t69.5 -28.5t28.5 -69.5t-29.5 -70t-70.5 -29z" />
    <glyph glyph-name="guilsinglleft.case" horiz-adv-x="583" 
d="M72 655l348 349l51 -52l-295 -295l295 -297l-51 -51z" />
    <glyph glyph-name="guilsinglright.case" horiz-adv-x="583" 
d="M113 360l295 297l-295 295l51 52l348 -349l-348 -346z" />
    <glyph glyph-name="zero.dnom" horiz-adv-x="727" 
d="M365 -16q-118 0 -195.5 110t-77.5 279q0 166 77.5 274.5t195.5 108.5q119 0 194.5 -108t75.5 -275q0 -170 -75.5 -279.5t-194.5 -109.5zM365 49q88 0 143 90.5t55 231.5t-55 230t-143 89q-90 0 -145.5 -88.5t-55.5 -230.5q0 -143 55.5 -232.5t145.5 -89.5z" />
    <glyph glyph-name="one.dnom" horiz-adv-x="634" 
d="M338 641l-182 -154l-43 50l266 225h31v-762h-72v641z" />
    <glyph glyph-name="two.dnom" horiz-adv-x="706" 
d="M82 33l211 196q143 134 185 189.5t42 113.5q0 72 -45.5 115t-120.5 43q-154 0 -188 -180l-66 18q25 110 91.5 169t166.5 59q104 0 169 -61t65 -158q0 -76 -52 -149.5t-200 -209.5l-117 -108h391v-70h-532v33z" />
    <glyph glyph-name="three.dnom" horiz-adv-x="696" 
d="M350 -16q-175 0 -248 166l64 32q59 -133 188 -133q80 0 129 45.5t49 120.5q0 78 -54 123t-146 45h-90v31l223 256h-332v69h455v-30l-228 -260q115 -7 179.5 -68.5t64.5 -161.5q0 -104 -70.5 -169.5t-183.5 -65.5z" />
    <glyph glyph-name="four.dnom" horiz-adv-x="655" 
d="M379 127h-379v31l420 604h31v-567h102v-68h-102v-127h-72v127zM379 195v389l-273 -389h273z" />
    <glyph glyph-name="five.dnom" horiz-adv-x="696" 
d="M340 -16q-173 0 -248 166l62 32q59 -133 190 -133q80 0 129 50.5t49 136.5t-50 137t-136 51q-85 0 -160 -64l-26 13l40 366h365v-69h-301l-23 -205q49 24 119 24q110 0 177 -70t67 -183q0 -112 -69 -182t-185 -70z" />
    <glyph glyph-name="six.dnom" horiz-adv-x="667" 
d="M322 -16q-113 0 -181.5 73t-68.5 197q0 138 83.5 269t243.5 227l37 -58q-101 -62 -160.5 -126t-99.5 -160q61 61 160 61q104 0 171.5 -68t67.5 -172q0 -106 -70.5 -174.5t-182.5 -68.5zM326 49q79 0 128.5 48.5t49.5 127.5q0 78 -49.5 127t-128.5 49t-129 -49t-50 -127
t50 -127t129 -49z" />
    <glyph glyph-name="seven.dnom" horiz-adv-x="634" 
d="M510 670h-377v69h471v-30l-313 -709h-78z" />
    <glyph glyph-name="eight.dnom" horiz-adv-x="716" 
d="M358 -16q-115 0 -185.5 62.5t-70.5 162.5q0 64 36 119t95 78q-41 29 -64.5 68.5t-23.5 80.5q0 88 60.5 144.5t152.5 56.5t152.5 -56.5t60.5 -144.5q0 -41 -23.5 -80.5t-64.5 -68.5q59 -23 95 -78t36 -119q0 -100 -70.5 -162.5t-185.5 -62.5zM358 49q82 0 133.5 43.5
t51.5 114.5q0 72 -50.5 116t-134.5 44t-134 -44t-50 -116t51 -115t133 -43zM358 432q63 0 102.5 36t39.5 93t-39.5 93t-102.5 36t-102 -36t-39 -93t39 -93t102 -36z" />
    <glyph glyph-name="nine.dnom" horiz-adv-x="667" 
d="M231 41q101 62 161 126.5t100 160.5q-62 -62 -160 -62q-104 0 -172 68t-68 172q0 106 71 175t183 69q113 0 181.5 -73.5t68.5 -197.5q0 -138 -84 -268.5t-244 -226.5zM342 332q79 0 128.5 49t49.5 127t-49.5 127t-128.5 49t-128.5 -48.5t-49.5 -127.5q0 -78 49.5 -127
t128.5 -49z" />
    <glyph glyph-name="Iacute_J.loclNLD" horiz-adv-x="1359" 
d="M205 1372h80v-1372h-80v1372zM846 -20q-185 0 -295 180l65 49q50 -80 105 -117t127 -37q112 0 174.5 79.5t62.5 219.5v944h-421v74h501v-1016q0 -174 -85 -275t-234 -101zM207 1532l180 242l66 -56l-205 -219zM887 1532l180 242l66 -56l-205 -219z" />
    <glyph glyph-name="iacute_j.loclNLD" horiz-adv-x="819" 
d="M164 942h76v-942h-76v942zM465 -512q-86 0 -148 72l50 53q44 -55 100 -55q54 0 83.5 40.5t29.5 118.5v1225h75v-1223q0 -110 -49.5 -170.5t-140.5 -60.5zM164 1102l180 241l66 -55l-205 -219zM580 1102l180 241l65 -55l-204 -219z" />
    <glyph glyph-name="zero.numr" horiz-adv-x="727" 
d="M365 616q-118 0 -195.5 110.5t-77.5 279.5q0 166 77.5 274.5t195.5 108.5q119 0 194.5 -108t75.5 -275q0 -170 -75.5 -280t-194.5 -110zM365 682q88 0 143 90.5t55 231.5t-55 230t-143 89q-90 0 -145.5 -88.5t-55.5 -230.5q0 -143 55.5 -232.5t145.5 -89.5z" />
    <glyph glyph-name="one.numr" horiz-adv-x="634" 
d="M338 1274l-182 -154l-43 49l266 226h31v-762h-72v641z" />
    <glyph glyph-name="two.numr" horiz-adv-x="706" 
d="M82 666l211 196q143 134 185 189.5t42 113.5q0 72 -45.5 115t-120.5 43q-154 0 -188 -180l-66 18q25 110 91.5 169t166.5 59q104 0 169 -61.5t65 -158.5q0 -76 -51.5 -149t-200.5 -209l-117 -109h391v-69h-532v33z" />
    <glyph glyph-name="three.numr" horiz-adv-x="696" 
d="M350 616q-175 0 -248 166l64 33q59 -133 188 -133q80 0 129 45.5t49 120.5q0 78 -54 123t-146 45h-90v31l223 256h-332v69h455v-31l-228 -260q115 -7 179.5 -68t64.5 -161q0 -104 -71 -170t-183 -66z" />
    <glyph glyph-name="four.numr" horiz-adv-x="655" 
d="M379 760h-379v31l420 604h31v-568h102v-67h-102v-127h-72v127zM379 827v390l-273 -390h273z" />
    <glyph glyph-name="five.numr" horiz-adv-x="696" 
d="M340 616q-173 0 -248 166l62 33q59 -133 190 -133q80 0 129 50.5t49 135.5q0 87 -50 138t-136 51q-85 0 -160 -64l-26 13l40 366h365v-69h-301l-23 -205q49 24 119 24q110 0 177 -70.5t67 -183.5q0 -112 -69 -182t-185 -70z" />
    <glyph glyph-name="six.numr" horiz-adv-x="667" 
d="M322 616q-113 0 -181.5 73.5t-68.5 197.5q0 138 83.5 268.5t243.5 226.5l37 -57q-101 -61 -160.5 -126t-99.5 -161q62 62 160 62q104 0 171.5 -68t67.5 -172q0 -106 -70.5 -175t-182.5 -69zM326 682q79 0 128.5 48.5t49.5 127.5q0 78 -49.5 127t-128.5 49t-129 -49
t-50 -127t50 -127t129 -49z" />
    <glyph glyph-name="seven.numr" horiz-adv-x="634" 
d="M510 1303h-377v69h471v-31l-313 -708h-78z" />
    <glyph glyph-name="eight.numr" horiz-adv-x="716" 
d="M358 616q-115 0 -185.5 63t-70.5 163q0 64 36 118.5t95 77.5q-41 29 -64.5 69t-23.5 81q0 88 60.5 144.5t152.5 56.5t152.5 -56.5t60.5 -144.5q0 -41 -23.5 -81t-64.5 -69q59 -23 95 -77.5t36 -118.5q0 -100 -70.5 -163t-185.5 -63zM358 682q82 0 133.5 43.5t51.5 114.5
q0 72 -50 115.5t-135 43.5q-84 0 -134 -43.5t-50 -115.5t51 -115t133 -43zM358 1065q63 0 102.5 36t39.5 93t-39.5 93t-102.5 36t-102 -36t-39 -93t39 -93t102 -36z" />
    <glyph glyph-name="nine.numr" horiz-adv-x="667" 
d="M231 674q101 62 161 126.5t100 160.5q-62 -62 -160 -62q-104 0 -172 68t-68 172q0 106 71 174.5t183 68.5q113 0 181.5 -73t68.5 -197q0 -138 -84 -269t-244 -227zM342 965q79 0 128.5 49t49.5 127t-49.5 127t-128.5 49t-128.5 -48.5t-49.5 -127.5q0 -78 49.5 -127
t128.5 -49z" />
    <glyph glyph-name="zero.osf" horiz-adv-x="1024" 
d="M514 -16q-173 0 -282 144.5t-109 373.5t109 373.5t282 144.5q172 0 279.5 -144.5t107.5 -373.5t-107.5 -373.5t-279.5 -144.5zM514 55q140 0 224.5 122.5t84.5 324.5t-84.5 324t-224.5 122q-141 0 -227 -123t-86 -323t86 -323.5t227 -123.5z" />
    <glyph glyph-name="one.osf" horiz-adv-x="583" 
d="M324 905l-234 -162l-39 56l318 225h30v-1024h-75v905z" />
    <glyph glyph-name="two.osf" horiz-adv-x="911" 
d="M113 41q0 51 11 96.5t27.5 80t46 67.5t56 55.5t68 48t71 40.5t76.5 38q47 22 75.5 37t66.5 41t59.5 50.5t37 60t15.5 75.5q0 97 -70.5 158t-181.5 61q-110 0 -178.5 -60.5t-91.5 -176.5l-74 14q23 135 116.5 214t229.5 79q142 0 234 -82.5t92 -210.5q0 -51 -18 -95
t-42 -74t-70 -62t-79 -50t-92 -47t-91.5 -47t-79.5 -50.5t-72 -62t-43.5 -73t-18.5 -92.5h626v-74h-706v41z" />
    <glyph glyph-name="three.osf" horiz-adv-x="911" 
d="M438 -307q-135 0 -243 76t-144 200l64 27q41 -110 127 -172t196 -62q134 0 219.5 88.5t85.5 225.5q0 146 -95 232.5t-255 86.5h-117v31l406 506h-545v72h670v-31l-408 -508q190 0 305 -105.5t115 -277.5q0 -167 -108 -278t-273 -111z" />
    <glyph glyph-name="four.osf" horiz-adv-x="911" 
d="M655 70v766l-505 -766h505zM655 0h-614v31l655 993h31v-954h133v-70h-133v-307h-72v307z" />
    <glyph glyph-name="five.osf" horiz-adv-x="921" 
d="M434 -307q-133 0 -234.5 75.5t-138.5 200.5l64 27q38 -110 120 -172t191 -62q140 0 229 97.5t89 251.5q0 149 -87.5 245.5t-222.5 96.5q-68 0 -138 -26t-113 -69l-29 15l82 631h547v-72h-482l-61 -463q87 53 207 53q160 0 266 -114.5t106 -290.5q0 -183 -113 -303.5
t-282 -120.5z" />
    <glyph glyph-name="six.osf" horiz-adv-x="983" 
d="M510 -16q-178 0 -287.5 123.5t-109.5 320.5q0 260 139 489t418 396l43 -56q-181 -106 -320 -266t-186 -350q45 73 128 117.5t181 44.5q163 0 274 -117.5t111 -290.5q0 -175 -112 -293t-279 -118zM510 53q137 0 226 96t89 244t-89 244t-226 96q-139 0 -228 -96t-89 -244
t89 -244t228 -96z" />
    <glyph glyph-name="seven.osf" horiz-adv-x="890" 
d="M717 932h-666v72h768v-31l-575 -1276h-84z" />
    <glyph glyph-name="eight.osf" horiz-adv-x="1024" 
d="M512 -16q-164 0 -281.5 113.5t-117.5 267.5q0 115 70.5 208.5t185.5 141.5q-86 43 -133.5 115.5t-47.5 160.5q0 135 92.5 225.5t231.5 90.5t231.5 -90.5t92.5 -225.5q0 -89 -41.5 -161.5t-118.5 -114.5q106 -48 170.5 -141.5t64.5 -208.5q0 -154 -117.5 -267.5
t-281.5 -113.5zM512 55q139 0 231.5 89.5t92.5 220.5t-92.5 220t-231.5 89t-231.5 -89t-92.5 -220t92.5 -220.5t231.5 -89.5zM512 743q109 0 178.5 69.5t69.5 178.5t-69.5 177.5t-178.5 68.5t-178.5 -68.5t-69.5 -177.5t69.5 -178.5t178.5 -69.5z" />
    <glyph glyph-name="nine.osf" horiz-adv-x="1003" 
d="M494 270q139 0 228 96t89 244t-89 244t-228 96q-137 0 -226.5 -96t-89.5 -244t89.5 -244t226.5 -96zM291 -254q181 106 320 266t186 350q-45 -73 -128.5 -117t-181.5 -44q-163 0 -274 117t-111 290q0 175 112.5 293.5t279.5 118.5q178 0 287.5 -124t109.5 -321
q0 -260 -139 -488.5t-418 -395.5z" />
    <glyph glyph-name="zero.tab" horiz-adv-x="1085" 
d="M545 -16q-202 0 -327.5 194t-125.5 508q0 316 124 509.5t327 193.5q135 0 237 -87.5t157.5 -247t55.5 -368.5q0 -207 -56 -366.5t-157.5 -247.5t-234.5 -88zM543 59q168 0 267 169.5t99 457.5t-99 457.5t-267 169.5q-169 0 -268 -169t-99 -458q0 -290 99 -458.5
t268 -168.5z" />
    <glyph glyph-name="one.tab" horiz-adv-x="1085" 
d="M176 76h389v1218l-370 -239l-41 59l460 299h31v-1337h348v-76h-817v76z" />
    <glyph glyph-name="two.tab" horiz-adv-x="1085" 
d="M154 76q0 160 88 279t303 255q180 116 252.5 207t72.5 203q0 134 -82.5 214.5t-218.5 80.5q-133 0 -220 -82.5t-118 -237.5l-73 13q25 179 134.5 280t276.5 101q169 0 275 -102.5t106 -266.5q0 -131 -82.5 -239t-279.5 -232q-195 -124 -272.5 -228t-77.5 -245h714v-76
h-798v76z" />
    <glyph glyph-name="three.tab" horiz-adv-x="1085" 
d="M514 -16q-142 0 -249 72t-173 214l70 41q114 -254 356 -254q158 0 256 93t98 241q0 154 -110.5 245t-296.5 91h-123v31l463 540h-606v74h741v-33l-461 -536q213 0 343 -113.5t130 -294.5q0 -179 -124 -295t-314 -116z" />
    <glyph glyph-name="four.tab" horiz-adv-x="1085" 
d="M731 313h-639v31l686 1069h31v-1028h174v-72h-174v-313h-78v313zM731 385v821l-526 -821h526z" />
    <glyph glyph-name="five.tab" horiz-adv-x="1085" 
d="M516 -16q-141 0 -249 72.5t-173 213.5l70 41q114 -254 354 -254q156 0 256 103t100 266q0 157 -91.5 255.5t-237.5 98.5q-85 0 -164.5 -33t-128.5 -88l-31 17l123 696h588v-76h-526l-89 -499q111 57 232 57q176 0 290.5 -121t114.5 -309q0 -192 -123.5 -316t-314.5 -124z
" />
    <glyph glyph-name="six.tab" horiz-adv-x="1085" 
d="M541 -16q-191 0 -309.5 130.5t-118.5 340.5q0 243 158 499t442 453l49 -61q-182 -118 -319.5 -285t-206.5 -352q126 153 319 153q183 0 305.5 -125.5t122.5 -310.5q0 -189 -126 -315.5t-316 -126.5zM551 57q152 0 252 105t100 262q0 156 -100 260t-252 104t-253 -104
t-101 -260q0 -158 101 -262.5t253 -104.5z" />
    <glyph glyph-name="seven.tab" horiz-adv-x="1085" 
d="M903 1296h-770v76h881v-31l-676 -1341h-86z" />
    <glyph glyph-name="eight.tab" horiz-adv-x="1085" 
d="M543 -16q-195 0 -318 112.5t-123 282.5q0 127 76 223t207 137q-99 51 -151 129t-52 176q0 148 101.5 246.5t259.5 98.5q156 0 258 -99t102 -246q0 -98 -52 -176t-151 -129q130 -42 206.5 -138t76.5 -222q0 -170 -124.5 -282.5t-315.5 -112.5zM543 57q158 0 259 90.5
t101 231.5q0 140 -100.5 229.5t-259.5 89.5q-163 0 -262 -89t-99 -230q0 -142 100 -232t261 -90zM543 770q126 0 203 76t77 196q0 122 -76.5 197.5t-203.5 75.5q-128 0 -204.5 -75.5t-76.5 -197.5q0 -120 77 -196t204 -76z" />
    <glyph glyph-name="nine.tab" horiz-adv-x="1085" 
d="M324 27q182 118 319.5 285t206.5 352q-127 -154 -320 -154q-183 0 -305.5 125.5t-122.5 310.5q0 189 126.5 316t316.5 127q191 0 309.5 -130.5t118.5 -340.5q0 -243 -158 -499.5t-442 -453.5zM535 584q152 0 253 104t101 260q0 158 -101 262.5t-253 104.5t-252.5 -105
t-100.5 -262q0 -156 100.5 -260t252.5 -104z" />
    <glyph glyph-name="zero.tabosf" horiz-adv-x="942" 
d="M473 -16q-173 0 -282 144.5t-109 373.5t109 373.5t282 144.5q172 0 279.5 -144.5t107.5 -373.5t-107.5 -373.5t-279.5 -144.5zM473 55q140 0 224.5 122.5t84.5 324.5t-84.5 324t-224.5 122q-141 0 -227 -123t-86 -323t86 -323.5t227 -123.5z" />
    <glyph glyph-name="one.tabosf" horiz-adv-x="942" 
d="M150 70h321v835l-289 -205l-39 56l373 268h31v-954h313v-70h-710v70z" />
    <glyph glyph-name="two.tabosf" horiz-adv-x="942" 
d="M123 41q0 51 11 96.5t27.5 80t46 67.5t56 55.5t68 48t71 40.5t76.5 38q47 22 75.5 37t66.5 41t59.5 50.5t37 60t15.5 75.5q0 97 -70.5 158t-181.5 61q-110 0 -178.5 -60.5t-91.5 -176.5l-74 14q23 135 116.5 214t229.5 79q142 0 234 -82.5t92 -210.5q0 -51 -18 -95
t-42 -74t-70 -62t-79 -50t-92 -47t-91.5 -47t-79.5 -50.5t-72 -62t-43.5 -73t-18.5 -92.5h626v-74h-706v41z" />
    <glyph glyph-name="three.tabosf" horiz-adv-x="942" 
d="M449 -307q-135 0 -243.5 76.5t-144.5 199.5l64 27q41 -110 127 -172t197 -62q134 0 219.5 88.5t85.5 225.5q0 146 -95.5 232.5t-255.5 86.5h-116v31l405 506h-545v72h670v-31l-407 -508q190 0 304.5 -105.5t114.5 -277.5q0 -167 -107.5 -278t-272.5 -111z" />
    <glyph glyph-name="four.tabosf" horiz-adv-x="942" 
d="M655 70v766l-505 -766h505zM655 0h-614v31l655 993h31v-954h133v-70h-133v-307h-72v307z" />
    <glyph glyph-name="five.tabosf" horiz-adv-x="942" 
d="M455 -307q-133 0 -234.5 75.5t-138.5 200.5l63 27q38 -110 120.5 -172t191.5 -62q140 0 228.5 97.5t88.5 251.5q0 149 -87 245.5t-222 96.5q-68 0 -138.5 -26t-113.5 -69l-29 15l82 631h547v-72h-481l-62 -463q87 53 207 53q161 0 267 -114.5t106 -290.5
q0 -183 -113 -303.5t-282 -120.5z" />
    <glyph glyph-name="six.tabosf" horiz-adv-x="942" 
d="M489 -16q-178 0 -287.5 123.5t-109.5 320.5q0 260 139 489t418 396l43 -56q-181 -106 -320 -266t-186 -350q45 73 128.5 117.5t181.5 44.5q163 0 274 -117.5t111 -290.5q0 -175 -112.5 -293t-279.5 -118zM489 53q137 0 226.5 96t89.5 244t-89.5 244t-226.5 96
q-139 0 -228 -96t-89 -244t89 -244t228 -96z" />
    <glyph glyph-name="seven.tabosf" horiz-adv-x="942" 
d="M758 932h-666v72h768v-31l-575 -1276h-84z" />
    <glyph glyph-name="eight.tabosf" horiz-adv-x="942" 
d="M471 -16q-164 0 -281.5 113.5t-117.5 267.5q0 115 70.5 208.5t185.5 141.5q-86 43 -133.5 115.5t-47.5 160.5q0 135 92.5 225.5t231.5 90.5t231.5 -90.5t92.5 -225.5q0 -89 -41.5 -161.5t-118.5 -114.5q106 -48 170.5 -141.5t64.5 -208.5q0 -154 -117.5 -267.5
t-281.5 -113.5zM471 55q139 0 231.5 89.5t92.5 220.5t-92.5 220t-231.5 89t-231.5 -89t-92.5 -220t92.5 -220.5t231.5 -89.5zM471 743q109 0 178.5 69.5t69.5 178.5t-69.5 177.5t-178.5 68.5t-178.5 -68.5t-69.5 -177.5t69.5 -178.5t178.5 -69.5z" />
    <glyph glyph-name="nine.tabosf" horiz-adv-x="942" 
d="M453 270q139 0 228 96t89 244t-89 244t-228 96q-137 0 -226.5 -96t-89.5 -244t89.5 -244t226.5 -96zM250 -254q181 106 320 266t186 350q-45 -73 -128.5 -117t-181.5 -44q-163 0 -274 117t-111 290q0 175 112.5 293.5t279.5 118.5q178 0 287.5 -124t109.5 -321
q0 -260 -139 -488.5t-418 -395.5z" />
    <glyph glyph-name="foundryicon" horiz-adv-x="3149" 
d="M350 879h-145v63h364v-63h-147v-408h-72v408zM590 346q-17 0 -21 2v58q49 0 64 40l12 33l-129 326h76l90 -238l90 238h76l-158 -389q-34 -70 -100 -70zM897 805h49l19 -39q38 45 98 45q66 0 112 -50t46 -122q0 -73 -46 -123.5t-112 -50.5q-59 0 -96 43v-162h-70v459z
M1057 528q39 0 67.5 32t28.5 79q0 43 -29 74.5t-67 31.5q-41 0 -68.5 -31.5t-27.5 -74.5q0 -47 27.5 -79t68.5 -32zM1436 465q-66 0 -113 50.5t-47 123.5q0 71 46.5 121.5t113.5 50.5q66 0 110.5 -49t44.5 -121q0 -3 -1 -9t-1 -9v-13h-243q5 -36 30 -60t60 -24q55 0 75 35
h72q-18 -46 -58 -71t-89 -25zM1526 666q-1 34 -29 58t-61 24q-34 0 -60 -22.5t-30 -59.5h180zM1704 879h-145v63h364v-63h-147v-408h-72v408zM1944 346q-17 0 -21 2v58q49 0 64 40l12 33l-129 326h76l90 -238l90 238h76l-158 -389q-34 -70 -100 -70zM2251 805h49l18 -39
q38 45 99 45q66 0 111.5 -50t45.5 -122q0 -73 -45.5 -123.5t-111.5 -50.5q-60 0 -97 43v-162h-69v459zM2410 528q39 0 68 32.5t29 78.5q0 43 -29.5 74.5t-67.5 31.5q-41 0 -68.5 -31.5t-27.5 -74.5q0 -47 27.5 -79t68.5 -32zM2789 465q-66 0 -112.5 50.5t-46.5 123.5
q0 71 46 121.5t113 50.5q66 0 111 -49t45 -121q0 -3 -1 -9t-1 -9v-13h-244q5 -36 30 -60t60 -24q56 0 76 35h72q-18 -46 -58.5 -71t-89.5 -25zM2879 666q-1 34 -29 58t-61 24q-34 0 -60 -22.5t-30 -59.5h180z" />
    </font>
</defs>
</svg>
