<?xml version="1.0" standalone="no"?>
<!DOCTYPE svg PUBLIC "-//W3C//DTD SVG 1.1//EN" "http://www.w3.org/Graphics/SVG/1.1/DTD/svg11.dtd" >
<svg xmlns="http://www.w3.org/2000/svg" xmlns:xlink="http://www.w3.org/1999/xlink" version="1.1">
<metadata>
Created by FontForge 20170731 at Fri Nov 20 17:46:47 2020
 By Aleksey,,,
Copyright (c) 2015-2019 by Typetype. Designers Yulia Gonina and Ivan Gladkikh, technical designers Kseniya Karataeva, Anna Tikhonova, Nadyr Rakhimov, Maria Mizeritskaya. New remastered version created in 2019 by Yulia Gonina. All rights reserved. |DCNT
</metadata>
<defs>
<font id="TTChocolates-MediumIt" horiz-adv-x="1069" >
  <font-face 
    font-family="TT Chocolates Light"
    font-weight="500"
    font-style="italic"
    font-stretch="normal"
    units-per-em="2048"
    panose-1="2 0 8 3 3 0 0 9 0 3"
    ascent="1638"
    descent="-410"
    x-height="942"
    cap-height="1372"
    bbox="-645 -543 3109 2054"
    underline-thickness="40"
    underline-position="-347"
    slope="-10"
    unicode-range="U+000D-FB06"
  />
<missing-glyph horiz-adv-x="0" 
 />
    <glyph glyph-name="ff" unicode="ff" horiz-adv-x="1241" 
d="M342 782h-143l28 160h144l41 236q24 126 107 201.5t204 74.5q162 0 250 -119l-119 -121q-31 43 -62.5 61.5t-74.5 18.5q-51 0 -85.5 -35.5t-45.5 -95.5l-39 -221h391l41 240q23 127 106 199.5t205 72.5q162 0 250 -119l-119 -121q-32 43 -64 61.5t-73 18.5
q-53 0 -86.5 -34t-44.5 -95l-39 -223h266l-28 -160h-267l-137 -782h-176l137 782h-391l-137 -782h-176z" />
    <glyph glyph-name="fi" unicode="fi" horiz-adv-x="1060" 
d="M342 782h-143l28 160h144l26 158q29 159 141.5 256.5t266.5 97.5q103 0 189.5 -41t129.5 -108l-123 -115q-74 104 -202 104q-88 0 -149.5 -56.5t-78.5 -154.5l-24 -141h547l-166 -942h-176l137 782h-371l-137 -782h-176z" />
    <glyph glyph-name="fl" unicode="fl" horiz-adv-x="1060" 
d="M342 782h-143l28 160h144l32 186q25 146 131.5 236t253.5 90q153 0 244.5 -89t91.5 -228q0 -4 -1 -13.5t-1 -13.5q-2 -6 -2 -14l-192 -1096h-176l192 1096q2 16 2 30q0 75 -44 121.5t-122 46.5q-79 0 -134 -47.5t-68 -132.5l-31 -172h248l-29 -160h-248l-137 -782h-176z
" />
    <glyph glyph-name="ffi" unicode="ffi" horiz-adv-x="1628" 
d="M342 782h-143l28 160h144l41 236q24 126 107 201.5t204 74.5q162 0 250 -119l-119 -121q-31 43 -62.5 61.5t-74.5 18.5q-51 0 -85.5 -35.5t-45.5 -95.5l-39 -221h391l27 158q29 160 141 257t266 97q103 0 190 -41t130 -108l-123 -115q-74 104 -203 104q-88 0 -149 -56.5
t-78 -154.5l-25 -141h547l-166 -942h-176l137 782h-371l-137 -782h-176l137 782h-391l-137 -782h-176z" />
    <glyph glyph-name="ffl" unicode="ffl" horiz-adv-x="1628" 
d="M342 782h-143l28 160h144l41 236q24 126 107 201.5t204 74.5q162 0 250 -119l-119 -121q-31 43 -62.5 61.5t-74.5 18.5q-51 0 -85.5 -35.5t-45.5 -95.5l-39 -221h391l33 186q25 146 131.5 236t253.5 90q153 0 244.5 -89t91.5 -228q0 -4 -1 -13.5t-1 -13.5q-2 -6 -2 -14
l-193 -1096h-176l192 1096q2 16 2 30q0 75 -43.5 121.5t-121.5 46.5q-79 0 -134.5 -47.5t-68.5 -132.5l-31 -172h248l-29 -160h-248l-137 -782h-176l137 782h-391l-137 -782h-176z" />
    <glyph glyph-name="f_f_j" unicode="ffj" horiz-adv-x="1628" 
d="M1159 -512q-129 0 -207 96l111 133q42 -63 96 -63q87 0 123 137l174 991h-371l-137 -782h-176l137 782h-391l-137 -782h-176l137 782h-143l28 160h144l41 236q24 126 107 201.5t204 74.5q162 0 250 -119l-119 -121q-31 43 -62.5 61.5t-74.5 18.5q-51 0 -85.5 -35.5
t-45.5 -95.5l-39 -221h391l27 158q29 160 141 257t266 97q103 0 190 -41t130 -108l-123 -115q-74 104 -203 104q-88 0 -149 -56.5t-78 -154.5l-25 -141h547l-207 -1175q-24 -125 -103 -202t-192 -77z" />
    <glyph glyph-name="f_j" unicode="fj" horiz-adv-x="1060" 
d="M592 -512q-129 0 -207 96l111 133q42 -63 96 -63q87 0 123 137l174 991h-371l-137 -782h-176l137 782h-143l28 160h144l26 158q29 159 141.5 256.5t266.5 97.5q103 0 189.5 -41t129.5 -108l-123 -115q-74 104 -202 104q-88 0 -149.5 -56.5t-78.5 -154.5l-24 -141h547
l-207 -1175q-24 -125 -103 -202t-192 -77z" />
    <glyph glyph-name=".notdef" horiz-adv-x="0" 
 />
    <glyph glyph-name=".null" horiz-adv-x="0" 
 />
    <glyph glyph-name="nonmarkingreturn" horiz-adv-x="682" 
 />
    <glyph glyph-name="NULL" horiz-adv-x="0" 
 />
    <glyph glyph-name="NULL" horiz-adv-x="0" 
 />
    <glyph glyph-name="CR" unicode="&#xd;" horiz-adv-x="0" 
 />
    <glyph glyph-name="space" unicode=" " horiz-adv-x="450" 
 />
    <glyph glyph-name="exclam" unicode="!" horiz-adv-x="512" 
d="M266 -12q-53 0 -84.5 32t-31.5 80q0 52 39.5 92.5t93.5 40.5q53 0 84.5 -31t31.5 -79q0 -57 -39.5 -96t-93.5 -39zM397 1372h201l-209 -1012h-139z" />
    <glyph glyph-name="quotedbl" unicode="&#x22;" horiz-adv-x="657" 
d="M344 1372h168l-106 -444h-115zM629 1372h168l-107 -444h-115z" />
    <glyph glyph-name="numbersign" unicode="#" horiz-adv-x="1361" 
d="M342 354h-240l64 152h242l159 360h-241l65 152h242l155 354h173l-158 -354h282l158 354h172l-158 -354h242l-65 -152h-242l-160 -360h242l-66 -152h-239l-156 -354h-170l154 354h-283l-156 -354h-170zM862 506l160 360h-285l-159 -360h284z" />
    <glyph glyph-name="dollar" unicode="$" horiz-adv-x="1030" 
d="M446 -14q-123 25 -215 102t-139 195l164 104q105 -240 319 -240q101 0 172.5 63t71.5 161q0 70 -49.5 127t-165.5 116q-153 79 -224 168t-71 199q0 169 110.5 284.5t274.5 127.5l37 209h158l-39 -224q191 -50 291 -237l-158 -107q-102 187 -270 187q-91 0 -150 -58
t-59 -151q0 -66 48.5 -119.5t158.5 -110.5q303 -160 303 -376q0 -175 -118 -293t-294 -136l-35 -206h-157z" />
    <glyph glyph-name="percent" unicode="%" horiz-adv-x="1615" 
d="M1282 1372h178l-882 -1372h-181zM539 748q-134 0 -218.5 86.5t-84.5 212.5q0 137 104.5 242.5t249.5 105.5q132 0 218.5 -84.5t86.5 -208.5q0 -146 -107 -250t-249 -104zM549 895q78 0 131 57.5t53 143.5q0 64 -42.5 107.5t-110.5 43.5q-73 0 -129 -57.5t-56 -138.5
q0 -63 42.5 -109.5t111.5 -46.5zM1272 -23q-134 0 -218.5 86.5t-84.5 212.5q0 137 104.5 243t249.5 106q132 0 218.5 -84.5t86.5 -208.5q0 -146 -107.5 -250.5t-248.5 -104.5zM1282 125q78 0 131 57.5t53 143.5q0 64 -42.5 107.5t-110.5 43.5q-73 0 -129 -57.5t-56 -138.5
q0 -63 42.5 -109.5t111.5 -46.5z" />
    <glyph glyph-name="ampersand" unicode="&#x26;" horiz-adv-x="1429" 
d="M1026 164q-94 -87 -209.5 -137t-230.5 -50q-189 0 -311.5 107.5t-122.5 263.5q0 150 107 275t280 182q-90 139 -90 239q0 148 106.5 249.5t255.5 101.5q145 0 238.5 -92.5t93.5 -223.5q0 -29 -6 -59l-185 16q2 14 2 35q0 68 -41.5 113t-111.5 45q-69 0 -116.5 -50
t-47.5 -122q0 -82 76 -176l329 -428q116 173 164 428h357l-27 -154h-188q-60 -217 -205 -399l182 -234l-151 -123zM618 143q79 0 162.5 38t151.5 102l-301 395q-131 -32 -210 -114t-79 -197q0 -100 74 -162t202 -62z" />
    <glyph glyph-name="quotesingle" unicode="'" horiz-adv-x="372" 
d="M344 1372h168l-106 -444h-115z" />
    <glyph glyph-name="parenleft" unicode="(" horiz-adv-x="741" 
d="M518 -461q-134 154 -208 360t-74 425q0 342 171 662.5t453 518.5l103 -110q-244 -179 -395.5 -472t-151.5 -581q0 -190 65 -379.5t176 -333.5z" />
    <glyph glyph-name="parenright" unicode=")" horiz-adv-x="741" 
d="M-39 -350q162 118 286.5 292.5t192.5 372.5t68 387q0 190 -65 379.5t-177 333.5l140 90q134 -154 208 -359.5t74 -424.5q0 -341 -171.5 -662.5t-453.5 -519.5z" />
    <glyph glyph-name="asterisk" unicode="*" horiz-adv-x="714" 
d="M307 903l117 158l-188 59l38 117l187 -61v196h121v-196l186 61l39 -117l-186 -59l114 -158l-98 -74l-115 160l-112 -160z" />
    <glyph glyph-name="plus" unicode="+" horiz-adv-x="911" 
d="M487 586h-313v159h313v306h160v-306h316v-159h-316v-322h-160v322z" />
    <glyph glyph-name="comma" unicode="," horiz-adv-x="503" 
d="M23 -274l215 489l178 -70l-291 -458z" />
    <glyph glyph-name="hyphen" unicode="-" horiz-adv-x="624" 
d="M190 621h461l-30 -179h-461z" />
    <glyph glyph-name="period" unicode="." horiz-adv-x="512" 
d="M264 -12q-53 0 -85 32t-32 80q0 52 39.5 92.5t94.5 40.5q53 0 84.5 -31t31.5 -79q0 -57 -39.5 -96t-93.5 -39z" />
    <glyph glyph-name="slash" unicode="/" horiz-adv-x="778" 
d="M831 1372h189l-877 -1618h-186z" />
    <glyph glyph-name="zero" unicode="0" horiz-adv-x="1241" 
d="M655 -23q-206 0 -324 150.5t-118 400.5q0 187 50 351t133.5 276t193 176t227.5 64q107 0 193.5 -45t140.5 -122t82.5 -175.5t28.5 -210.5q0 -186 -49.5 -349t-133 -275t-194 -176.5t-230.5 -64.5zM668 158q74 0 144 49.5t125 137.5t88.5 220.5t33.5 286.5
q0 169 -66 265.5t-188 96.5q-76 0 -146.5 -50t-125 -139t-87 -222.5t-32.5 -288.5q0 -63 13 -122t41 -113.5t79.5 -87.5t120.5 -33z" />
    <glyph glyph-name="one" unicode="1" horiz-adv-x="710" 
d="M516 1087l-199 -120l-77 161l454 281h70l-248 -1409h-190z" />
    <glyph glyph-name="two" unicode="2" horiz-adv-x="1126" 
d="M168 215q11 68 43 128t72.5 103t103 85.5t116 70.5t130.5 64q92 39 152.5 71.5t114 74.5t79 92.5t25.5 111.5q0 90 -65.5 145.5t-170.5 55.5q-193 0 -295 -234l-168 49q61 173 186 268t289 95q185 0 299.5 -102t114.5 -257q0 -77 -24 -143t-63.5 -117t-105.5 -99.5
t-135.5 -86.5t-167.5 -82q-61 -29 -101.5 -51t-89.5 -55t-79 -64t-51.5 -72.5t-24.5 -87.5h692l-30 -178h-883z" />
    <glyph glyph-name="three" unicode="3" horiz-adv-x="1095" 
d="M563 -23q-167 0 -286 84t-168 238l170 88q62 -231 301 -231q118 0 197 75.5t79 196.5q0 105 -79 173.5t-202 68.5h-178l13 69l444 455h-483l32 178h799l-12 -69l-473 -486q152 -32 241 -135t89 -244q0 -132 -65 -238t-175.5 -164.5t-243.5 -58.5z" />
    <glyph glyph-name="four" unicode="4" horiz-adv-x="1085" 
d="M705 250h-631l14 86l928 1073h84l-174 -981h172l-31 -178h-172l-43 -250h-190zM735 428l92 518l-448 -518h356z" />
    <glyph glyph-name="five" unicode="5" horiz-adv-x="1105" 
d="M573 -23q-165 0 -282 86t-164 240l168 88q33 -114 107.5 -174.5t185.5 -60.5q122 0 207.5 87.5t85.5 225.5q0 111 -75 177.5t-204 66.5q-54 0 -114.5 -20t-108.5 -52l-51 33l229 698h637l-33 -178h-487l-109 -326q12 7 46 15t61 8q179 0 290 -114.5t111 -284.5
q0 -110 -40 -207t-108 -164t-159.5 -105.5t-192.5 -38.5z" />
    <glyph glyph-name="six" unicode="6" horiz-adv-x="1105" 
d="M594 -23q-199 0 -319.5 117.5t-120.5 308.5q0 266 223.5 537t595.5 455l86 -142q-372 -200 -561 -426q104 58 194 58q186 0 303 -120t117 -292q0 -135 -71 -249.5t-190 -180.5t-257 -66zM614 156q124 0 215 89.5t91 217.5q0 105 -75.5 174.5t-193.5 69.5q-127 0 -218 -86
t-91 -213q0 -108 75.5 -180t196.5 -72z" />
    <glyph glyph-name="seven" unicode="7" horiz-adv-x="1064" 
d="M932 1194h-600l33 178h870l-12 -69l-826 -1303h-217z" />
    <glyph glyph-name="eight" unicode="8" horiz-adv-x="1146" 
d="M623 -23q-201 0 -331 110.5t-130 272.5q0 135 84 239t219 153q-60 44 -92.5 110.5t-32.5 141.5q0 163 129 277t303 114q167 0 277 -100t110 -242q0 -114 -62.5 -205t-162.5 -135q85 -51 131.5 -130t46.5 -175q0 -119 -66 -218t-178.5 -156t-244.5 -57zM631 150
q115 0 203 76.5t88 193.5q0 97 -75.5 158t-197.5 61q-123 0 -209 -72t-86 -186q0 -98 78 -164.5t199 -66.5zM735 811q94 0 163 64.5t69 160.5q0 80 -56 133.5t-147 53.5q-97 0 -166.5 -65.5t-69.5 -162.5q0 -80 57 -132t150 -52z" />
    <glyph glyph-name="nine" unicode="9" horiz-adv-x="1105" 
d="M260 92q370 201 580 451q-100 -56 -195 -56q-181 0 -299.5 120.5t-118.5 291.5q0 134 71.5 248.5t192.5 181t261 66.5q195 0 314.5 -120t119.5 -308q0 -268 -234 -549.5t-608 -466.5zM690 666q122 0 214.5 85.5t92.5 209.5q0 108 -77 182t-193 74q-126 0 -216.5 -87.5
t-90.5 -216.5q0 -109 74.5 -178t195.5 -69z" />
    <glyph glyph-name="colon" unicode=":" horiz-adv-x="512" 
d="M264 -12q-53 0 -85 32t-32 80q0 52 39.5 92.5t94.5 40.5q53 0 84.5 -31t31.5 -79q0 -57 -39.5 -96t-93.5 -39zM395 709q-53 0 -84.5 32t-31.5 80q0 52 39.5 92.5t93.5 40.5q53 0 84.5 -31t31.5 -79q0 -56 -39 -95.5t-94 -39.5z" />
    <glyph glyph-name="semicolon" unicode=";" horiz-adv-x="524" 
d="M23 -274l215 489l178 -70l-291 -458zM395 709q-53 0 -84.5 32t-31.5 80q0 52 39.5 92.5t93.5 40.5q53 0 84.5 -31t31.5 -79q0 -56 -39 -95.5t-94 -39.5z" />
    <glyph glyph-name="less" unicode="&#x3c;" horiz-adv-x="905" 
d="M174 592v147l715 336l67 -141l-575 -268l575 -267l-65 -141z" />
    <glyph glyph-name="equal" unicode="=" horiz-adv-x="911" 
d="M174 571h789v-157h-789v157zM174 920h789v-158h-789v158z" />
    <glyph glyph-name="greater" unicode="&#x3e;" horiz-adv-x="905" 
d="M174 399l576 267l-576 268l68 141l714 -336v-147l-716 -334z" />
    <glyph glyph-name="question" unicode="?" horiz-adv-x="917" 
d="M436 -12q-53 0 -85 32t-32 80q0 52 39.5 92.5t94.5 40.5q53 0 84.5 -31t31.5 -79q0 -57 -39.5 -96t-93.5 -39zM582 330q-112 36 -166 89t-54 130q0 91 57 156.5t202 148.5q115 65 158.5 114t43.5 109q0 65 -57 102.5t-145 37.5q-142 0 -256 -117l-105 123
q172 172 387 172q167 0 268 -84.5t101 -218.5q0 -109 -63.5 -190t-219.5 -161q-102 -54 -140 -92t-38 -86q0 -57 109 -98z" />
    <glyph glyph-name="at" unicode="@" horiz-adv-x="1943" 
d="M821 -338q-269 75 -437.5 284t-168.5 490q0 151 49 289.5t136.5 245.5t202.5 186.5t253 121.5t283 42q171 0 318 -53t249 -144.5t159.5 -219t57.5 -273.5q0 -123 -32.5 -225.5t-88 -170.5t-128 -105.5t-152.5 -37.5q-175 0 -246 133q-55 -63 -127 -98t-150 -35
q-142 0 -233.5 100.5t-91.5 243.5q0 169 120.5 294.5t278.5 125.5q153 0 238 -104l16 86h158l-80 -435q-4 -28 -4 -43q0 -122 129 -122q92 0 157.5 100t65.5 276q0 246 -174 400.5t-455 154.5q-149 0 -284.5 -54t-236.5 -148t-160.5 -231t-59.5 -294q0 -218 147 -400
t363 -235zM1042 238q101 0 176.5 74.5t75.5 181.5q0 91 -56.5 154t-150.5 63q-100 0 -172.5 -77.5t-72.5 -187.5q0 -80 55 -144t145 -64z" />
    <glyph glyph-name="A" unicode="A" horiz-adv-x="1224" 
d="M844 1409h71l289 -1409h-194l-62 313h-508l-168 -313h-211zM915 492l-98 516l-278 -516h376z" />
    <glyph glyph-name="B" unicode="B" horiz-adv-x="1130" 
d="M416 1372h340q165 0 274 -104t109 -244q0 -109 -60 -193t-166 -129q92 -47 141.5 -122.5t49.5 -167.5q0 -177 -148 -294.5t-358 -117.5h-49h-375zM580 178h45q122 0 204 65t82 171q0 86 -71.5 145t-180.5 59h-186l-78 -440h185zM696 797q110 0 179 57t69 154
q0 79 -61.5 132.5t-159.5 53.5h-150l-69 -397h192z" />
    <glyph glyph-name="C" unicode="C" horiz-adv-x="1374" 
d="M846 -23q-142 0 -264 49t-206 133.5t-131.5 200t-47.5 246.5q0 164 64.5 312t171 251.5t247 164.5t287.5 61q168 0 306.5 -76.5t227.5 -208.5l-158 -115q-67 100 -170.5 156.5t-228.5 56.5q-146 0 -270 -75t-197.5 -210t-73.5 -300q0 -200 126 -329.5t333 -129.5
q105 0 201 38.5t170 108.5l113 -135q-221 -199 -500 -199z" />
    <glyph glyph-name="D" unicode="D" horiz-adv-x="1468" 
d="M416 1372h477q169 0 311 -88t221.5 -232t79.5 -307q0 -158 -63 -297.5t-169 -237t-248.5 -154t-297.5 -56.5h-553zM737 178q150 0 279 72t206.5 200.5t77.5 284.5q0 123 -53.5 227t-155.5 168t-231 64h-287l-178 -1016h342z" />
    <glyph glyph-name="E" unicode="E" horiz-adv-x="1017" 
d="M416 1372h731l-33 -178h-541l-69 -397h409l-30 -179h-410l-78 -440h551l-31 -178h-741z" />
    <glyph glyph-name="F" unicode="F" horiz-adv-x="962" 
d="M416 1372h727l-33 -178h-537l-77 -442h403l-31 -179h-403l-100 -573h-191z" />
    <glyph glyph-name="G" unicode="G" horiz-adv-x="1466" 
d="M838 -20q-187 0 -334.5 84t-227 227.5t-79.5 318.5q0 161 64.5 307.5t170.5 250.5t246 165.5t287 61.5q168 0 308 -76.5t230 -208.5l-157 -117q-67 101 -172.5 158t-229.5 57q-107 0 -206.5 -44.5t-173.5 -121.5t-118.5 -186.5t-44.5 -232.5q0 -197 128.5 -327
t336.5 -130q195 0 346 129l52 278h-369l31 179h559l-92 -529q-107 -114 -252 -178.5t-303 -64.5z" />
    <glyph glyph-name="H" unicode="H" horiz-adv-x="1406" 
d="M416 1372h190l-104 -590h678l104 590h191l-242 -1372h-191l107 604h-678l-106 -604h-191z" />
    <glyph glyph-name="I" unicode="I" horiz-adv-x="538" 
d="M416 1372h190l-241 -1372h-191z" />
    <glyph glyph-name="J" unicode="J" horiz-adv-x="923" 
d="M393 -23q-127 0 -216 57.5t-130 166.5l164 104q58 -149 197 -149q85 0 147 64.5t82 174.5l141 799h-385l33 178h575l-176 -993q-32 -183 -150 -292.5t-282 -109.5z" />
    <glyph glyph-name="K" unicode="K" horiz-adv-x="1122" 
d="M416 1372h190l-110 -627l630 627h250l-684 -678l436 -694h-227l-420 666l-116 -666h-191z" />
    <glyph glyph-name="L" unicode="L" horiz-adv-x="915" 
d="M416 1372h190l-211 -1194h531l-31 -178h-721z" />
    <glyph glyph-name="M" unicode="M" horiz-adv-x="1681" 
d="M422 1409h70l438 -803l756 803h69l-248 -1409h-190l160 909l-557 -585h-66l-326 606l-163 -930h-191z" />
    <glyph glyph-name="N" unicode="N" horiz-adv-x="1482" 
d="M541 999l-176 -999h-191l248 1409h70l690 -1042l178 1005h190l-250 -1409h-69z" />
    <glyph glyph-name="O" unicode="O" horiz-adv-x="1572" 
d="M846 -23q-139 0 -260 50.5t-205.5 136t-133 203.5t-48.5 249q0 116 38 231t108.5 212.5t164 173.5t212.5 119t245 43q137 0 256.5 -51t203 -137.5t131.5 -204t48 -248.5q0 -156 -63 -300.5t-167 -248.5t-243.5 -166t-286.5 -62zM856 164q107 0 206.5 44.5t174 120.5
t119.5 185t45 231q0 198 -127 330.5t-328 132.5q-108 0 -208 -45t-173.5 -122.5t-117.5 -187t-44 -232.5q0 -122 56.5 -226t161.5 -167.5t235 -63.5z" />
    <glyph glyph-name="P" unicode="P" horiz-adv-x="1093" 
d="M416 1372h354q164 0 289 -118t125 -273q0 -133 -69 -240.5t-184.5 -167t-252.5 -59.5h-55h-168l-90 -514h-191zM649 692h41q128 0 214.5 74.5t86.5 198.5q0 92 -78 160.5t-176 68.5h-164l-88 -502h164z" />
    <glyph glyph-name="Q" unicode="Q" horiz-adv-x="1572" 
d="M856 164q107 0 206.5 44.5t174 120.5t119.5 185t45 231q0 198 -127 330.5t-328 132.5q-108 0 -208 -45t-173.5 -122.5t-117.5 -187t-44 -232.5q0 -122 56.5 -226t161.5 -167.5t235 -63.5zM1278 -393q-275 0 -435.5 101.5t-160.5 283.5v4q-216 49 -349.5 220.5
t-133.5 399.5q0 116 38 231t108.5 212.5t164 173.5t212.5 119t245 43q137 0 256.5 -51t203 -137.5t131.5 -204t48 -248.5q0 -152 -59 -292.5t-157 -242.5t-229.5 -166t-273.5 -73q6 -55 39 -93.5t91.5 -60.5t132 -31.5t169.5 -9.5q66 0 72 6l-11 -180q-32 -4 -102 -4z" />
    <glyph glyph-name="R" unicode="R" horiz-adv-x="1138" 
d="M416 1372h360q174 0 292 -113.5t118 -267.5q0 -157 -98.5 -275t-253.5 -155l264 -561h-211l-254 541h-174l-94 -541h-191zM653 719h45q129 0 212 70t83 186q0 94 -68.5 156.5t-183.5 62.5h-168l-84 -475h164z" />
    <glyph glyph-name="S" unicode="S" horiz-adv-x="1030" 
d="M555 -25q-160 0 -283 82.5t-180 225.5l164 104q102 -233 319 -233q102 0 173 60t71 157q0 70 -49.5 127t-165.5 116q-153 79 -224 168t-71 199q0 177 123.5 295.5t298.5 118.5q133 0 238 -66.5t172 -187.5l-158 -107q-100 183 -270 183q-92 0 -150.5 -56t-58.5 -149
q0 -66 48.5 -119.5t158.5 -110.5q303 -160 303 -376q0 -187 -134 -309t-325 -122z" />
    <glyph glyph-name="T" unicode="T" horiz-adv-x="1146" 
d="M678 1194h-438l32 178h1065l-32 -178h-437l-209 -1194h-190z" />
    <glyph glyph-name="U" unicode="U" horiz-adv-x="1366" 
d="M729 -23q-225 0 -350 134.5t-125 355.5q0 12 0.5 25.5t1.5 24.5t2 20t2 15v5l146 815h190l-143 -805q-7 -21 -7 -80q0 -154 75 -242.5t208 -88.5q141 0 242.5 101.5t132.5 277.5l149 837h191l-154 -862q-41 -241 -196 -387t-365 -146z" />
    <glyph glyph-name="V" unicode="V" horiz-adv-x="1173" 
d="M252 1372h194l179 -985l530 985h209l-772 -1409h-70z" />
    <glyph glyph-name="W" unicode="W" horiz-adv-x="1931" 
d="M262 1372h193l149 -971l539 971h78l196 -971l504 971h201l-731 -1409h-70l-201 1012l-559 -1012h-69z" />
    <glyph glyph-name="X" unicode="X" horiz-adv-x="1132" 
d="M569 690l-276 682h201l206 -526l406 526h231l-530 -674l295 -698h-203l-225 543l-422 -543h-232z" />
    <glyph glyph-name="Y" unicode="Y" horiz-adv-x="1052" 
d="M500 520l-269 852h187l200 -639l435 639h221l-584 -852l-90 -520h-190z" />
    <glyph glyph-name="Z" unicode="Z" horiz-adv-x="1185" 
d="M74 70l950 1124h-715l33 178h1024l-12 -69l-948 -1125h745l-31 -178h-1057z" />
    <glyph glyph-name="bracketleft" unicode="[" horiz-adv-x="663" 
d="M461 1454h407l-28 -160h-234l-276 -1564h233l-28 -160h-408z" />
    <glyph glyph-name="backslash" unicode="\" horiz-adv-x="778" 
d="M242 1372h188l303 -1618h-188z" />
    <glyph glyph-name="bracketright" unicode="]" horiz-adv-x="663" 
d="M2 -270h234l276 1564h-233l28 160h408l-334 -1884h-406z" />
    <glyph glyph-name="asciicircum" unicode="^" horiz-adv-x="913" 
d="M205 850l301 522h147l301 -522l-133 -74l-241 418l-242 -418z" />
    <glyph glyph-name="underscore" unicode="_" horiz-adv-x="593" 
d="M-45 -207h674l-31 -176h-674z" />
    <glyph glyph-name="grave" unicode="`" horiz-adv-x="393" 
d="M262 1339l141 93l168 -326l-104 -68z" />
    <glyph glyph-name="a" unicode="a" horiz-adv-x="1001" 
d="M432 -23q-142 0 -230.5 80t-88.5 199q0 139 111 232.5t270 93.5q172 0 294 -90l13 77q0 1 0.5 4t1 9t0.5 12q0 93 -60.5 152t-162.5 59q-111 0 -211 -100l-99 124q151 136 332 136q171 0 275 -100t104 -253q0 -8 -1 -19.5t-1 -14.5q-2 -6 -2 -15l-98 -563h-177l19 106
q-132 -129 -289 -129zM489 127q98 0 172 58t99 155q-113 102 -266 102q-91 0 -146 -47.5t-55 -126.5q0 -64 52.5 -102.5t143.5 -38.5z" />
    <glyph glyph-name="b" unicode="b" horiz-adv-x="1165" 
d="M662 -23q-108 0 -195 49.5t-135 133.5l-27 -160h-172l256 1454h176l-110 -627q141 138 313 138q176 0 292 -130.5t116 -312.5q0 -111 -43 -213t-114 -174t-164.5 -115t-192.5 -43zM657 143q134 0 234 106.5t100 262.5q0 126 -77 206.5t-203 80.5q-137 0 -237.5 -107.5
t-100.5 -263.5q0 -120 79.5 -202.5t204.5 -82.5z" />
    <glyph glyph-name="c" unicode="c" horiz-adv-x="1032" 
d="M610 -23q-198 0 -326 128t-128 317q0 147 73.5 272.5t197 198t265.5 72.5q132 0 236 -62.5t166 -169.5l-144 -98q-90 164 -272 164q-140 0 -239 -107t-99 -262q0 -126 80 -206.5t213 -80.5q144 0 264 117l100 -115q-76 -79 -177 -123.5t-210 -44.5z" />
    <glyph glyph-name="d" unicode="d" horiz-adv-x="1165" 
d="M563 -23q-178 0 -292.5 127.5t-114.5 311.5q0 148 70.5 275t188.5 200.5t253 73.5q107 0 192.5 -48.5t134.5 -130.5l117 668h176l-256 -1454h-170l21 119q-62 -65 -146 -103.5t-174 -38.5zM621 143q137 0 237 105.5t100 261.5q0 126 -79 207.5t-205 81.5
q-136 0 -236 -108t-100 -265q0 -118 79 -200.5t204 -82.5z" />
    <glyph glyph-name="e" unicode="e" horiz-adv-x="1089" 
d="M623 -23q-208 0 -335.5 124.5t-127.5 312.5q0 153 69.5 280t188.5 199t260 72q188 0 306 -115t118 -293q0 -39 -9 -81.5t-16 -55.5h-737q0 -124 81 -200.5t226 -76.5q158 0 275 111l94 -113q-169 -164 -393 -164zM922 565q-6 116 -74.5 179t-190.5 63
q-100 0 -179.5 -66.5t-110.5 -175.5h555z" />
    <glyph glyph-name="f" unicode="f" horiz-adv-x="673" 
d="M342 782h-143l28 160h144l41 236q24 126 107 201.5t204 74.5q162 0 250 -119l-119 -121q-31 43 -62.5 61.5t-74.5 18.5q-51 0 -85.5 -35.5t-45.5 -95.5l-39 -221h266l-29 -160h-266l-137 -782h-176z" />
    <glyph glyph-name="g" unicode="g" horiz-adv-x="1054" 
d="M545 -362q43 0 85 8.5t82.5 27.5t65.5 56t25 86q0 76 -82 121t-229 45q-114 0 -182 -43t-68 -127q0 -76 80 -125t223 -49zM541 -512q-216 0 -347 88t-131 223q0 95 53.5 164t147.5 105q-104 52 -104 147q0 60 38.5 106t102.5 70q-68 80 -68 189q0 167 120.5 276
t301.5 109q78 0 142 -23h383l-25 -139h-162q22 -29 35.5 -75.5t13.5 -84.5q0 -169 -120 -276t-297 -107q-124 0 -217 49q-37 -5 -58.5 -27t-21.5 -57q0 -38 41 -63t114 -29l129 -6q174 -7 272.5 -88.5t98.5 -206.5q0 -154 -123 -249t-319 -95zM629 410q93 0 164 60t71 159
q0 83 -60 134.5t-163 51.5q-100 0 -165.5 -62t-65.5 -163q0 -80 60 -130t159 -50z" />
    <glyph glyph-name="h" unicode="h" 
d="M389 1454h176l-108 -604q121 115 270 115q144 0 235 -95.5t91 -238.5q0 -40 -6 -64l-101 -567h-176l96 545q0 8 2 14q0 4 1 15t1 16q0 95 -57.5 155t-155.5 60t-164 -63.5t-85 -172.5l-99 -569h-176z" />
    <glyph glyph-name="i" unicode="i" horiz-adv-x="440" 
d="M297 942h176l-166 -942h-176zM424 1120q-46 0 -76.5 32.5t-30.5 76.5q0 50 38 88.5t91 38.5q47 0 79 -31t32 -76q0 -55 -39 -92t-94 -37z" />
    <glyph glyph-name="j" unicode="j" horiz-adv-x="442" 
d="M-27 -512q-128 0 -206 96l110 133q42 -63 96 -63q87 0 123 137l203 1151h176l-207 -1175q-24 -125 -103 -202t-192 -77zM424 1120q-46 0 -76.5 32.5t-30.5 76.5q0 50 38 88.5t91 38.5q47 0 79 -31t32 -76q0 -55 -39 -92t-94 -37z" />
    <glyph glyph-name="k" unicode="k" horiz-adv-x="905" 
d="M389 1454h176l-168 -950l463 438h236l-500 -467l324 -475h-222l-309 457l-80 -457h-176z" />
    <glyph glyph-name="l" unicode="l" horiz-adv-x="442" 
d="M389 1454h176l-256 -1454h-176z" />
    <glyph glyph-name="m" unicode="m" horiz-adv-x="1703" 
d="M299 942h172l-16 -94q120 117 274 117q99 0 174.5 -45.5t112.5 -124.5q60 78 147.5 124t177.5 46q155 0 250 -95.5t95 -240.5q0 -27 -5 -49l-100 -580h-176l96 547q0 10 2 16q0 4 1 15t1 16q0 99 -56 155t-155 56q-97 0 -165 -64.5t-87 -173.5l-96 -567h-176l94 535
q6 30 6 61q0 95 -56 152t-155 57q-98 0 -165 -61.5t-86 -170.5l-99 -573h-176z" />
    <glyph glyph-name="n" unicode="n" 
d="M299 942h172l-18 -96q122 119 276 119q144 0 234 -95.5t90 -238.5q0 -5 -4 -33q-2 -6 -2 -18l-101 -580h-176l96 547l1 7q1 7 2 18.5t1 21.5q0 95 -56.5 153t-154.5 58t-166 -62.5t-87 -171.5l-97 -571h-176z" />
    <glyph glyph-name="o" unicode="o" horiz-adv-x="1140" 
d="M610 -23q-197 0 -325.5 129.5t-128.5 317.5q0 101 42 199t112.5 173.5t171 122t210.5 46.5q194 0 323.5 -132t129.5 -319q0 -143 -77 -268t-200 -197t-258 -72zM625 143q136 0 236 106t100 263q0 126 -78.5 206.5t-204.5 80.5q-139 0 -239.5 -107t-100.5 -264
q0 -119 81.5 -202t205.5 -83z" />
    <glyph glyph-name="p" unicode="p" horiz-adv-x="1165" 
d="M657 143q134 0 237 106.5t103 262.5q0 125 -80 206t-206 81q-138 0 -238 -106t-100 -263q0 -119 80 -203t204 -84zM299 942h172l-22 -117q137 140 315 140t295 -128t117 -313q0 -111 -43 -213t-114 -174.5t-165 -116t-192 -43.5q-106 0 -191.5 48.5t-134.5 130.5
l-119 -668h-176z" />
    <glyph glyph-name="q" unicode="q" horiz-adv-x="1165" 
d="M621 143q137 0 237 105.5t100 261.5q0 126 -79 207.5t-205 81.5q-136 0 -236 -108t-100 -265q0 -118 79 -200.5t204 -82.5zM874 113q-139 -136 -311 -136q-176 0 -291.5 128t-115.5 311q0 148 70.5 275t188.5 200.5t253 73.5q110 0 195 -49t136 -136l29 162h170
l-258 -1454h-176z" />
    <glyph glyph-name="r" unicode="r" horiz-adv-x="645" 
d="M299 942h172l-20 -115q116 138 264 138q18 0 36.5 -2.5t34.5 -6.5t19 -4l-62 -188q-31 14 -94 14q-93 0 -157.5 -56t-81.5 -155l-101 -567h-176z" />
    <glyph glyph-name="s" unicode="s" horiz-adv-x="905" 
d="M508 -23q-141 0 -254 61t-174 171l137 108q105 -180 303 -180q79 0 129.5 32t50.5 87q0 41 -41 71.5t-135 63.5q-155 54 -226 120.5t-71 158.5q0 132 96.5 213.5t247.5 81.5q262 0 392 -199l-132 -107q-105 146 -280 146q-67 0 -105 -29.5t-38 -79.5q0 -41 39.5 -71.5
t132.5 -61.5q158 -54 229.5 -121t71.5 -159q0 -137 -106.5 -221.5t-266.5 -84.5z" />
    <glyph glyph-name="t" unicode="t" horiz-adv-x="749" 
d="M510 -23q-126 0 -194 68.5t-68 183.5q0 27 4 45l90 508h-143l28 160h144l43 254h176l-43 -254h268l-29 -160h-268l-90 -489q-4 -28 -4 -43q0 -113 123 -113q68 0 131 47l61 -121q-100 -86 -229 -86z" />
    <glyph glyph-name="u" unicode="u" 
d="M510 -23q-150 0 -239 95t-89 243q0 14 2 30t2 17l103 580h176l-96 -547l-1 -8q-1 -8 -2 -18.5t-1 -18.5q0 -100 53.5 -156.5t154.5 -56.5q98 0 166.5 63.5t85.5 172.5l101 569h176l-166 -942h-172l16 100q-120 -123 -270 -123z" />
    <glyph glyph-name="v" unicode="v" horiz-adv-x="931" 
d="M176 942h182l144 -631l370 631h195l-584 -979h-69z" />
    <glyph glyph-name="w" unicode="w" horiz-adv-x="1404" 
d="M186 942h164l101 -606l360 627h82l141 -627l318 606h178l-510 -979h-70l-145 676l-387 -676h-70z" />
    <glyph glyph-name="x" unicode="x" horiz-adv-x="874" 
d="M412 477l-217 465h190l145 -330l265 330h215l-381 -457l225 -485h-190l-156 346l-275 -346h-213z" />
    <glyph glyph-name="y" unicode="y" horiz-adv-x="940" 
d="M84 -512l274 498l-172 956h181l125 -717l393 717h190l-801 -1454h-194h4z" />
    <glyph glyph-name="z" unicode="z" horiz-adv-x="940" 
d="M82 70l645 712h-481l28 160h764l-12 -70l-643 -712h504l-27 -160h-788z" />
    <glyph glyph-name="braceleft" unicode="{" horiz-adv-x="673" 
d="M479 -430q-127 0 -198 89t-50 210l76 420q8 47 -29 95t-96 48h-14l27 160h34q60 0 101.5 38t54.5 105l76 441q23 130 108 204t213 74h97l-29 -160h-76q-54 0 -92 -35t-49 -92l-78 -446q-18 -84 -63.5 -138t-116.5 -67l-2 -8q64 -28 89.5 -87t14.5 -132l-74 -420
q-10 -61 20 -100t85 -39h65l-28 -160h-66z" />
    <glyph glyph-name="bar" unicode="|" horiz-adv-x="587" 
d="M338 1454h178v-1966h-178v1966z" />
    <glyph glyph-name="braceright" unicode="}" horiz-adv-x="673" 
d="M2 -270h76q54 0 92 35t49 92l78 446q18 84 63.5 138t116.5 67l2 8q-64 28 -89.5 87t-14.5 132l74 420q10 61 -20 100t-85 39h-65l28 160h66q127 0 198 -89t50 -210l-76 -420q-8 -47 29 -95t96 -48h14l-27 -160h-34q-60 0 -101.5 -38t-54.5 -105l-76 -441
q-23 -130 -108 -204t-213 -74h-97z" />
    <glyph glyph-name="asciitilde" unicode="~" horiz-adv-x="911" 
d="M715 532q-80 0 -187 60q-7 4 -19.5 10t-17.5 8.5t-14.5 7t-13 6t-10.5 4t-10.5 3.5t-8.5 2.5t-8.5 2t-8 1t-9.5 0.5q-72 0 -121 -98l-113 67q30 91 95 140t151 49q41 0 81.5 -13.5t106.5 -48.5q49 -26 72 -34.5t45 -8.5q40 0 69 23.5t54 74.5l115 -67q-30 -91 -96 -140
t-152 -49z" />
    <glyph glyph-name="nbspace" unicode="&#xa0;" horiz-adv-x="450" 
 />
    <glyph glyph-name="exclamdown" unicode="&#xa1;" horiz-adv-x="512" 
d="M289 582h139l-147 -1012h-201zM395 709q-53 0 -84.5 31t-31.5 79q0 57 39.5 96t93.5 39q53 0 84.5 -32t31.5 -80q0 -52 -39.5 -92.5t-93.5 -40.5z" />
    <glyph glyph-name="cent" unicode="&#xa2;" horiz-adv-x="1032" 
d="M469 -2q-143 41 -228 156t-85 268q0 104 39 199.5t104.5 166.5t155 117t188.5 56l35 210h160l-39 -219q195 -46 295 -219l-144 -98q-90 164 -272 164q-140 0 -239 -107t-99 -262q0 -126 80 -206.5t213 -80.5q144 0 264 117l100 -115q-73 -75 -169.5 -119.5t-200.5 -48.5
l-35 -206h-160z" />
    <glyph glyph-name="sterling" unicode="&#xa3;" horiz-adv-x="974" 
d="M94 80q153 102 252.5 239.5t95.5 290.5h-192l24 144h156q-3 38 -30 142.5t-27 145.5q0 147 111 250t274 103q219 0 338 -162l-131 -123q-53 59 -103 83t-112 24q-83 0 -135 -49t-52 -130q0 -21 27.5 -126.5t32.5 -157.5h272l-25 -144h-237q1 -126 -59 -240.5t-162 -191.5
h532l-31 -178h-831z" />
    <glyph glyph-name="currency" unicode="&#xa4;" horiz-adv-x="995" 
d="M184 367l150 151q-49 81 -49 178q0 100 49 176l-150 152l107 106l151 -151q76 49 176 49q98 0 179 -49l153 151l107 -106l-154 -152q49 -81 49 -176q0 -99 -51 -176l156 -153l-107 -107l-153 154q-81 -49 -179 -49t-174 49l-153 -154zM618 516q74 0 122 51t48 129
t-48.5 129.5t-121.5 51.5t-121 -51.5t-48 -129.5t48 -129t121 -51z" />
    <glyph glyph-name="yen" unicode="&#xa5;" horiz-adv-x="1052" 
d="M440 182h-219l27 144h219l18 108h-219l25 144h190l-250 794h187l200 -639l435 639h221l-547 -794h195l-25 -144h-221l-19 -108h222l-27 -144h-221l-31 -182h-190z" />
    <glyph glyph-name="brokenbar" unicode="&#xa6;" horiz-adv-x="587" 
d="M338 236h178v-748h-178v748zM338 1454h178v-747h-178v747z" />
    <glyph glyph-name="section" unicode="&#xa7;" horiz-adv-x="1003" 
d="M451 -289q-107 0 -185 52.5t-121 146.5l142 86q61 -125 164 -125q58 0 96.5 39t38.5 100q0 53 -48 110t-159 138q-148 109 -148 256q0 134 85 236t206 131q-98 110 -98 213q0 125 94 213t223 88q104 0 180.5 -55.5t120.5 -147.5l-139 -86q-63 129 -166 129
q-57 0 -96 -40.5t-39 -100.5q0 -54 48 -110t163 -144q145 -110 145 -252q0 -136 -85 -237t-207 -132q98 -110 98 -207q0 -126 -92.5 -213.5t-220.5 -87.5zM584 367q81 0 138.5 59t57.5 149q0 69 -47 116.5t-123 47.5q-80 0 -140 -61t-60 -146q0 -71 50 -118t124 -47z" />
    <glyph glyph-name="dieresis" unicode="&#xa8;" horiz-adv-x="665" 
d="M344 1120q-50 0 -80.5 30.5t-30.5 78.5q0 50 39.5 88.5t92.5 38.5q46 0 77 -32.5t31 -76.5q0 -54 -37.5 -90.5t-91.5 -36.5zM729 1120q-46 0 -76 31.5t-30 75.5q0 49 38 89t89 40q47 0 78.5 -32t31.5 -77q0 -54 -39.5 -90.5t-91.5 -36.5z" />
    <glyph glyph-name="copyright" unicode="&#xa9;" horiz-adv-x="1669" 
d="M956 -33q-141 0 -272 58.5t-227 156t-153.5 230t-57.5 274.5q0 191 97 357t261 264t352 98q142 0 273.5 -58t228 -155t154 -230t57.5 -276q0 -142 -58 -274.5t-154 -230t-228 -156t-273 -58.5zM956 113q112 0 215 45.5t178 122t119.5 182.5t44.5 223q0 156 -75 288
t-203.5 209t-278.5 77t-278 -77t-202.5 -209t-74.5 -288q0 -117 44 -223t118.5 -182.5t177.5 -122t215 -45.5zM963 340q-149 0 -247 100t-98 252t98 252t247 100q91 0 166.5 -41t125.5 -116l-98 -88q-40 59 -86 84.5t-104 25.5q-92 0 -146.5 -59t-54.5 -158
q0 -98 55.5 -157.5t149.5 -59.5q117 0 196 111l95 -86q-118 -160 -299 -160z" />
    <glyph glyph-name="ordfeminine" unicode="&#xaa;" horiz-adv-x="667" 
d="M410 748q-100 0 -158.5 53.5t-58.5 134.5q0 97 73 158t183 61q114 0 188 -55q2 8 2 28q0 62 -38.5 99t-104.5 37q-55 0 -121 -56l-70 109q110 78 215 78q126 0 201.5 -67t75.5 -173q0 -1 -1 -4t-1 -6v-10l-66 -375h-151l10 57q-79 -69 -178 -69zM451 864q59 0 102.5 32.5
t60.5 88.5q-61 53 -157 53q-49 0 -80 -24t-31 -66q0 -37 26.5 -60.5t78.5 -23.5z" />
    <glyph glyph-name="guillemotleft" unicode="&#xab;" horiz-adv-x="956" 
d="M193 512l337 391l117 -90l-276 -315l153 -295l-131 -82zM549 512l340 391l112 -90l-272 -315l152 -295l-129 -82z" />
    <glyph glyph-name="logicalnot" unicode="&#xac;" horiz-adv-x="911" 
d="M803 586h-629v159h789v-395h-160v236z" />
    <glyph glyph-name="uni00AD" unicode="&#xad;" horiz-adv-x="624" 
d="M190 621h461l-30 -179h-461z" />
    <glyph glyph-name="registered" unicode="&#xae;" horiz-adv-x="1669" 
d="M956 -33q-141 0 -272 58.5t-227 156t-153.5 230t-57.5 274.5q0 191 97 357t261 264t352 98q142 0 273.5 -58t228 -155t154 -230t57.5 -276q0 -142 -58 -274.5t-154 -230t-228 -156t-273 -58.5zM956 113q112 0 215 45.5t178 122t119.5 182.5t44.5 223q0 156 -75 288
t-203.5 209t-278.5 77t-278 -77t-202.5 -209t-74.5 -288q0 -117 44 -223t118.5 -182.5t177.5 -122t215 -45.5zM729 1034h246q113 0 184.5 -60.5t71.5 -156.5q0 -65 -35.5 -115t-97.5 -77l149 -275h-160l-131 248h-88v-248h-139v684zM969 719q56 0 88.5 25.5t32.5 72.5
q0 44 -32.5 70t-88.5 26h-101v-194h101z" />
    <glyph glyph-name="overscore" unicode="&#xaf;" horiz-adv-x="495" 
d="M250 1307h455l-25 -144h-455z" />
    <glyph glyph-name="degree" unicode="&#xb0;" horiz-adv-x="917" 
d="M602 748q-135 0 -230.5 95t-95.5 230t95.5 228.5t230.5 93.5q136 0 231 -94t95 -230t-93.5 -229.5t-232.5 -93.5zM602 895q72 0 119 50.5t47 125.5t-47 125.5t-119 50.5t-119 -50.5t-47 -125.5t47 -125.5t119 -50.5z" />
    <glyph glyph-name="plusminus" unicode="&#xb1;" horiz-adv-x="911" 
d="M174 414h313v258h-313v159h313v308h160v-308h316v-159h-316v-258h316v-160h-789v160z" />
    <glyph glyph-name="uni00B2" unicode="&#xb2;" horiz-adv-x="739" 
d="M229 952l293 215q125 91 163 137.5t38 100.5q0 52 -29 82.5t-82 30.5q-101 0 -151 -142l-148 54q41 111 122.5 171t189.5 60q119 0 191.5 -66t72.5 -168q0 -83 -55.5 -161t-196.5 -172l-115 -78h314l-25 -144h-594z" />
    <glyph glyph-name="uni00B3" unicode="&#xb3;" horiz-adv-x="729" 
d="M535 850q-110 0 -191.5 54.5t-101.5 142.5l141 67q35 -121 162 -121q58 0 96.5 33.5t38.5 89.5q0 48 -40.5 80.5t-102.5 32.5h-111l12 71l230 207h-291l24 131h514l-12 -69l-250 -234q88 -23 140.5 -82t52.5 -137q0 -115 -92 -190.5t-219 -75.5z" />
    <glyph glyph-name="acute" unicode="&#xb4;" horiz-adv-x="393" 
d="M215 1110l279 322l120 -109l-301 -297z" />
    <glyph glyph-name="uni00B5" unicode="&#xb5;" horiz-adv-x="1079" 
d="M299 942h176l-96 -547q-4 -28 -4 -43q0 -100 54 -157.5t153 -57.5q98 0 166.5 63.5t87.5 172.5l100 569h176l-166 -942h-172l17 100q-114 -123 -256 -123q-135 0 -213 93l-105 -582h-176z" />
    <glyph glyph-name="paragraph" unicode="&#xb6;" horiz-adv-x="862" 
d="M469 -512q-117 0 -199 82l88 133q52 -55 107 -55q53 0 80.5 37t27.5 102v875q-160 0 -264 101t-104 255t104 254t264 100h361v-166h-184v-1419q0 -134 -76.5 -216.5t-204.5 -82.5z" />
    <glyph glyph-name="middot" unicode="&#xb7;" horiz-adv-x="450" 
d="M305 401q-50 0 -82.5 32.5t-32.5 80.5q0 52 39.5 92.5t94.5 40.5q51 0 83.5 -31t32.5 -79q0 -56 -40 -96t-95 -40z" />
    <glyph glyph-name="cedilla" unicode="&#xb8;" horiz-adv-x="452" 
d="M131 -522q-51 0 -97.5 18.5t-67 34.5t-25.5 25l63 106q0 -5 13.5 -18.5t43 -28t62.5 -14.5q47 0 78.5 26t31.5 64q0 33 -28 58.5t-70 25.5h-82l111 248h133l-66 -144q69 -21 107.5 -67t38.5 -111q0 -97 -71 -160t-175 -63z" />
    <glyph glyph-name="uni00B9" unicode="&#xb9;" horiz-adv-x="600" 
d="M535 1411l-185 -117l-59 133l375 232h71l-137 -787h-160z" />
    <glyph glyph-name="ordmasculine" unicode="&#xba;" horiz-adv-x="753" 
d="M514 748q-134 0 -218.5 86t-84.5 210q0 138 104.5 244.5t249.5 106.5q131 0 218 -86t87 -207q0 -149 -106.5 -251.5t-249.5 -102.5zM524 895q78 0 131.5 57.5t53.5 143.5q0 64 -43 107.5t-111 43.5q-73 0 -128.5 -57.5t-55.5 -138.5q0 -63 42 -109.5t111 -46.5z" />
    <glyph glyph-name="guillemotright" unicode="&#xbb;" horiz-adv-x="956" 
d="M135 211l273 315l-152 295l129 82l203 -391l-340 -391zM489 211l277 315l-154 295l131 82l201 -391l-338 -391z" />
    <glyph glyph-name="onequarter" unicode="&#xbc;" horiz-adv-x="1413" 
d="M1161 1372h180l-884 -1372h-181zM481 1145l-184 -117l-59 133l374 232h72l-137 -789h-160zM1128 113h-387l15 77l561 598h74l-97 -544h99l-23 -131h-98l-19 -113h-143zM1153 244l43 245l-225 -245h182z" />
    <glyph glyph-name="onehalf" unicode="&#xbd;" horiz-adv-x="1507" 
d="M1161 1372h180l-884 -1372h-181zM481 1145l-184 -117l-59 133l374 232h72l-137 -789h-160zM854 80l293 215q125 91 163 137t38 100q0 52 -29 82.5t-82 30.5q-102 0 -152 -141l-147 53q41 111 122 171t189 60q120 0 192 -65.5t72 -167.5q0 -84 -55.5 -162.5t-195.5 -171.5
l-115 -78h313l-24 -143h-594z" />
    <glyph glyph-name="threequarters" unicode="&#xbe;" horiz-adv-x="1536" 
d="M1286 1372h180l-884 -1372h-181zM469 582q-110 0 -191.5 55t-101.5 143l141 68q17 -60 58.5 -91.5t103.5 -31.5q58 0 96.5 34.5t38.5 90.5q0 48 -40.5 80.5t-102.5 32.5h-111l13 71l229 205h-291l25 133h514l-12 -69l-250 -234q88 -23 140 -82t52 -137q0 -116 -92.5 -192
t-218.5 -76zM1251 113h-387l15 77l561 598h73l-96 -544h99l-23 -131h-98l-19 -113h-143zM1276 244l43 245l-225 -245h182z" />
    <glyph glyph-name="questiondown" unicode="&#xbf;" horiz-adv-x="917" 
d="M430 -453q-167 0 -268 84.5t-101 218.5q0 109 63.5 190t219.5 161q102 54 140 92t38 86q0 57 -108 98l82 135q111 -36 165 -89t54 -130q0 -91 -57.5 -159t-200.5 -146q-114 -65 -158.5 -115t-44.5 -108q0 -64 57 -101.5t146 -37.5q143 0 256 116l104 -123
q-172 -172 -387 -172zM625 709q-53 0 -85 31t-32 79q0 57 39 96t94 39q53 0 85 -32t32 -80q0 -52 -39.5 -92.5t-93.5 -40.5z" />
    <glyph glyph-name="Agrave" unicode="&#xc0;" horiz-adv-x="1224" 
d="M844 1409h71l289 -1409h-194l-62 313h-508l-168 -313h-211zM915 492l-98 516l-278 -516h376zM653 1769l142 93l168 -326l-105 -68z" />
    <glyph glyph-name="Aacute" unicode="&#xc1;" horiz-adv-x="1224" 
d="M844 1409h71l289 -1409h-194l-62 313h-508l-168 -313h-211zM915 492l-98 516l-278 -516h376zM825 1540l279 322l121 -109l-301 -297z" />
    <glyph glyph-name="Acircumflex" unicode="&#xc2;" horiz-adv-x="1224" 
d="M844 1409h71l289 -1409h-194l-62 313h-508l-168 -313h-211zM915 492l-98 516l-278 -516h376zM608 1614l326 192l256 -192l-82 -103l-188 138l-261 -152z" />
    <glyph glyph-name="Atilde" unicode="&#xc3;" horiz-adv-x="1224" 
d="M844 1409h71l289 -1409h-194l-62 313h-508l-168 -313h-211zM915 492l-98 516l-278 -516h376zM623 1632q36 70 91 109t120 39q38 0 101 -36t101 -36q50 0 97 72l100 -76q-36 -70 -88 -109t-111 -39q-49 0 -86.5 18t-67 36t-59.5 18q-51 0 -98 -72z" />
    <glyph glyph-name="Adieresis" unicode="&#xc4;" horiz-adv-x="1224" 
d="M844 1409h71l289 -1409h-194l-62 313h-508l-168 -313h-211zM915 492l-98 516l-278 -516h376zM705 1550q-50 0 -80.5 30.5t-30.5 78.5q0 50 39 88.5t92 38.5q46 0 77.5 -32.5t31.5 -76.5q0 -54 -37.5 -90.5t-91.5 -36.5zM1090 1550q-46 0 -76.5 31.5t-30.5 75.5
q0 49 38 89t89 40q47 0 79 -32t32 -77q0 -54 -39.5 -90.5t-91.5 -36.5z" />
    <glyph glyph-name="Aring" unicode="&#xc5;" horiz-adv-x="1224" 
d="M844 1409h71l289 -1409h-194l-62 313h-508l-168 -313h-211zM915 492l-98 516l-278 -516h376zM895 1444q-89 0 -146 54.5t-57 133.5q0 95 69.5 160.5t162.5 65.5q89 0 146.5 -55.5t57.5 -135.5q0 -91 -70 -157t-163 -66zM905 1556q42 0 71.5 28.5t29.5 74.5q0 36 -24 61
t-64 25q-43 0 -74 -29.5t-31 -75.5q0 -34 26 -59t66 -25z" />
    <glyph glyph-name="AE" unicode="&#xc6;" horiz-adv-x="1574" 
d="M883 1372h835l-32 -178h-605l-14 -397h432l-31 -179h-407l-17 -440h480l-31 -178h-627l11 313h-478l-194 -313h-225zM883 492l22 620l-393 -620h371z" />
    <glyph glyph-name="Ccedilla" unicode="&#xc7;" horiz-adv-x="1374" 
d="M678 -522q-51 0 -97.5 18.5t-67.5 34.5t-26 25l64 106q4 -7 16.5 -19.5t41.5 -27t61 -14.5q47 0 78.5 26t31.5 64q0 33 -28 58.5t-70 25.5h-82l96 217q-226 44 -362.5 214t-136.5 400q0 164 64.5 312t171 251.5t247 164.5t287.5 61q168 0 306.5 -76.5t227.5 -208.5
l-158 -115q-67 100 -170.5 156.5t-228.5 56.5q-146 0 -270 -75t-197.5 -210t-73.5 -300q0 -200 126 -329.5t333 -129.5q105 0 201 38.5t170 108.5l113 -135q-236 -209 -523 -196l-45 -101q69 -21 107.5 -67t38.5 -111q0 -97 -71 -160t-175 -63z" />
    <glyph glyph-name="Egrave" unicode="&#xc8;" horiz-adv-x="1017" 
d="M416 1372h731l-33 -178h-541l-69 -397h409l-30 -179h-410l-78 -440h551l-31 -178h-741zM569 1769l142 93l168 -326l-105 -68z" />
    <glyph glyph-name="Eacute" unicode="&#xc9;" horiz-adv-x="1017" 
d="M416 1372h731l-33 -178h-541l-69 -397h409l-30 -179h-410l-78 -440h551l-31 -178h-741zM705 1540l278 322l121 -109l-301 -297z" />
    <glyph glyph-name="Ecircumflex" unicode="&#xca;" horiz-adv-x="1017" 
d="M416 1372h731l-33 -178h-541l-69 -397h409l-30 -179h-410l-78 -440h551l-31 -178h-741zM518 1614l326 192l256 -192l-82 -103l-189 138l-260 -152z" />
    <glyph glyph-name="Edieresis" unicode="&#xcb;" horiz-adv-x="1017" 
d="M416 1372h731l-33 -178h-541l-69 -397h409l-30 -179h-410l-78 -440h551l-31 -178h-741zM610 1550q-50 0 -80 30.5t-30 78.5q0 50 39 88.5t92 38.5q46 0 77 -32.5t31 -76.5q0 -54 -37.5 -90.5t-91.5 -36.5zM995 1550q-46 0 -76 31.5t-30 75.5q0 49 38 89t89 40
q47 0 78.5 -32t31.5 -77q0 -54 -39.5 -90.5t-91.5 -36.5z" />
    <glyph glyph-name="Igrave" unicode="&#xcc;" horiz-adv-x="540" 
d="M416 1372h190l-241 -1372h-191zM289 1769l141 93l168 -326l-104 -68z" />
    <glyph glyph-name="Iacute" unicode="&#xcd;" horiz-adv-x="540" 
d="M416 1372h190l-241 -1372h-191zM459 1540l278 322l121 -109l-301 -297z" />
    <glyph glyph-name="Icircumflex" unicode="&#xce;" horiz-adv-x="540" 
d="M416 1372h190l-241 -1372h-191zM258 1614l326 192l256 -192l-82 -103l-189 138l-260 -152z" />
    <glyph glyph-name="Idieresis" unicode="&#xcf;" horiz-adv-x="542" 
d="M416 1372h190l-241 -1372h-191zM369 1550q-49 0 -79 29.5t-30 77.5q0 51 36 90t89 39q49 0 81 -31t32 -76q0 -53 -39 -91t-90 -38zM727 1550q-49 0 -79 29.5t-30 77.5q0 51 36 90t89 39q49 0 81 -31t32 -76q0 -53 -39 -91t-90 -38z" />
    <glyph glyph-name="Eth" unicode="&#xd0;" horiz-adv-x="1478" 
d="M291 608h-205l29 164h204l107 600h477q127 0 242 -52t195.5 -138t128 -200.5t47.5 -236.5q0 -210 -107.5 -382t-285.5 -267.5t-386 -95.5h-553zM748 178q150 0 279 72t206.5 200.5t77.5 284.5q0 122 -54 226.5t-156 168.5t-231 64h-286l-74 -422h276l-28 -164h-277
l-75 -430h342z" />
    <glyph glyph-name="Ntilde" unicode="&#xd1;" horiz-adv-x="1482" 
d="M541 999l-176 -999h-191l248 1409h70l690 -1042l178 1005h190l-250 -1409h-69zM698 1632q36 70 91 109t120 39q38 0 101.5 -36t101.5 -36q49 0 96 72l101 -76q-36 -70 -88 -109t-111 -39q-49 0 -86.5 18t-67 36t-59.5 18q-51 0 -98 -72z" />
    <glyph glyph-name="Ograve" unicode="&#xd2;" horiz-adv-x="1572" 
d="M846 -23q-139 0 -260 50.5t-205.5 136t-133 203.5t-48.5 249q0 116 38 231t108.5 212.5t164 173.5t212.5 119t245 43q137 0 256.5 -51t203 -137.5t131.5 -204t48 -248.5q0 -156 -63 -300.5t-167 -248.5t-243.5 -166t-286.5 -62zM856 164q107 0 206.5 44.5t174 120.5
t119.5 185t45 231q0 198 -127 330.5t-328 132.5q-108 0 -208 -45t-173.5 -122.5t-117.5 -187t-44 -232.5q0 -122 56.5 -226t161.5 -167.5t235 -63.5zM766 1769l141 93l168 -326l-104 -68z" />
    <glyph glyph-name="Oacute" unicode="&#xd3;" horiz-adv-x="1572" 
d="M846 -23q-139 0 -260 50.5t-205.5 136t-133 203.5t-48.5 249q0 116 38 231t108.5 212.5t164 173.5t212.5 119t245 43q137 0 256.5 -51t203 -137.5t131.5 -204t48 -248.5q0 -156 -63 -300.5t-167 -248.5t-243.5 -166t-286.5 -62zM856 164q107 0 206.5 44.5t174 120.5
t119.5 185t45 231q0 198 -127 330.5t-328 132.5q-108 0 -208 -45t-173.5 -122.5t-117.5 -187t-44 -232.5q0 -122 56.5 -226t161.5 -167.5t235 -63.5zM938 1540l279 322l120 -109l-301 -297z" />
    <glyph glyph-name="Ocircumflex" unicode="&#xd4;" horiz-adv-x="1572" 
d="M846 -23q-139 0 -260 50.5t-205.5 136t-133 203.5t-48.5 249q0 116 38 231t108.5 212.5t164 173.5t212.5 119t245 43q137 0 256.5 -51t203 -137.5t131.5 -204t48 -248.5q0 -156 -63 -300.5t-167 -248.5t-243.5 -166t-286.5 -62zM856 164q107 0 206.5 44.5t174 120.5
t119.5 185t45 231q0 198 -127 330.5t-328 132.5q-108 0 -208 -45t-173.5 -122.5t-117.5 -187t-44 -232.5q0 -122 56.5 -226t161.5 -167.5t235 -63.5zM745 1614l326 192l256 -192l-82 -103l-188 138l-260 -152z" />
    <glyph glyph-name="Otilde" unicode="&#xd5;" horiz-adv-x="1572" 
d="M846 -23q-139 0 -260 50.5t-205.5 136t-133 203.5t-48.5 249q0 116 38 231t108.5 212.5t164 173.5t212.5 119t245 43q137 0 256.5 -51t203 -137.5t131.5 -204t48 -248.5q0 -156 -63 -300.5t-167 -248.5t-243.5 -166t-286.5 -62zM856 164q107 0 206.5 44.5t174 120.5
t119.5 185t45 231q0 198 -127 330.5t-328 132.5q-108 0 -208 -45t-173.5 -122.5t-117.5 -187t-44 -232.5q0 -122 56.5 -226t161.5 -167.5t235 -63.5zM733 1632q36 70 91 109t120 39q38 0 101.5 -36t101.5 -36q49 0 96 72l100 -76q-36 -70 -87.5 -109t-110.5 -39
q-49 0 -86.5 18t-67 36t-59.5 18q-51 0 -98 -72z" />
    <glyph glyph-name="Odieresis" unicode="&#xd6;" horiz-adv-x="1572" 
d="M846 -23q-139 0 -260 50.5t-205.5 136t-133 203.5t-48.5 249q0 116 38 231t108.5 212.5t164 173.5t212.5 119t245 43q137 0 256.5 -51t203 -137.5t131.5 -204t48 -248.5q0 -156 -63 -300.5t-167 -248.5t-243.5 -166t-286.5 -62zM856 164q107 0 206.5 44.5t174 120.5
t119.5 185t45 231q0 198 -127 330.5t-328 132.5q-108 0 -208 -45t-173.5 -122.5t-117.5 -187t-44 -232.5q0 -122 56.5 -226t161.5 -167.5t235 -63.5zM840 1550q-50 0 -80.5 30.5t-30.5 78.5q0 50 39 88.5t92 38.5q46 0 77.5 -32.5t31.5 -76.5q0 -54 -37.5 -90.5t-91.5 -36.5
zM1225 1550q-46 0 -76.5 31.5t-30.5 75.5q0 49 38 89t89 40q47 0 79 -32t32 -77q0 -54 -39.5 -90.5t-91.5 -36.5z" />
    <glyph glyph-name="multiply" unicode="&#xd7;" horiz-adv-x="890" 
d="M205 418l248 248l-248 247l106 107l248 -248l248 248l104 -107l-245 -247l245 -248l-104 -107l-248 248l-248 -248z" />
    <glyph glyph-name="Oslash" unicode="&#xd8;" horiz-adv-x="1570" 
d="M203 14l153 174q-157 181 -157 428q0 116 38 231t108.5 212.5t164 173.5t212.5 119t245 43q198 0 354 -105l147 168l136 -102l-154 -176q156 -183 156 -426q0 -156 -63 -300.5t-167 -248.5t-243.5 -166t-286.5 -62q-201 0 -363 103l-145 -168zM1190 1141q-106 67 -244 67
q-108 0 -208 -45t-173.5 -122.5t-117.5 -187t-44 -232.5q0 -156 89 -277zM856 164q107 0 206.5 44.5t174 120.5t119.5 185t45 231q0 160 -86 281l-699 -797q108 -65 240 -65z" />
    <glyph glyph-name="Ugrave" unicode="&#xd9;" horiz-adv-x="1366" 
d="M729 -23q-225 0 -350 134.5t-125 355.5q0 12 0.5 25.5t1.5 24.5t2 20t2 15v5l146 815h190l-143 -805q-7 -21 -7 -80q0 -154 75 -242.5t208 -88.5q141 0 242.5 101.5t132.5 277.5l149 837h191l-154 -862q-41 -241 -196 -387t-365 -146zM690 1769l141 93l168 -326l-104 -68
z" />
    <glyph glyph-name="Uacute" unicode="&#xda;" horiz-adv-x="1366" 
d="M729 -23q-225 0 -350 134.5t-125 355.5q0 12 0.5 25.5t1.5 24.5t2 20t2 15v5l146 815h190l-143 -805q-7 -21 -7 -80q0 -154 75 -242.5t208 -88.5q141 0 242.5 101.5t132.5 277.5l149 837h191l-154 -862q-41 -241 -196 -387t-365 -146zM858 1540l279 322l120 -109
l-301 -297z" />
    <glyph glyph-name="Ucircumflex" unicode="&#xdb;" horiz-adv-x="1366" 
d="M729 -23q-225 0 -350 134.5t-125 355.5q0 12 0.5 25.5t1.5 24.5t2 20t2 15v5l146 815h190l-143 -805q-7 -21 -7 -80q0 -154 75 -242.5t208 -88.5q141 0 242.5 101.5t132.5 277.5l149 837h191l-154 -862q-41 -241 -196 -387t-365 -146zM666 1614l325 192l256 -192
l-82 -103l-188 138l-260 -152z" />
    <glyph glyph-name="Udieresis" unicode="&#xdc;" horiz-adv-x="1366" 
d="M729 -23q-225 0 -350 134.5t-125 355.5q0 12 0.5 25.5t1.5 24.5t2 20t2 15v5l146 815h190l-143 -805q-7 -21 -7 -80q0 -154 75 -242.5t208 -88.5q141 0 242.5 101.5t132.5 277.5l149 837h191l-154 -862q-41 -241 -196 -387t-365 -146zM756 1550q-50 0 -80.5 30.5
t-30.5 78.5q0 50 39 88.5t92 38.5q46 0 77.5 -32.5t31.5 -76.5q0 -54 -37.5 -90.5t-91.5 -36.5zM1141 1550q-46 0 -76.5 31.5t-30.5 75.5q0 49 38 89t89 40q47 0 79 -32t32 -77q0 -54 -39.5 -90.5t-91.5 -36.5z" />
    <glyph glyph-name="Yacute" unicode="&#xdd;" horiz-adv-x="1052" 
d="M500 520l-269 852h187l200 -639l435 639h221l-584 -852l-90 -520h-190zM668 1540l278 322l121 -109l-301 -297z" />
    <glyph glyph-name="Thorn" unicode="&#xde;" horiz-adv-x="1318" 
d="M416 1372h190l-47 -268h399q169 -4 282.5 -113.5t113.5 -259.5q0 -190 -138.5 -316t-345.5 -126h-61h-395l-49 -289h-191zM846 467h37q122 0 201 68t79 182q0 88 -67 148.5t-170 60.5h-400l-80 -459h400z" />
    <glyph glyph-name="germandbls" unicode="&#xdf;" horiz-adv-x="1095" 
d="M727 -23q-114 0 -190 35q-38 17 -54 35l84 137q6 -6 23 -15.5t55.5 -20.5t79.5 -11q83 0 141 46t58 114q0 36 -24.5 79.5t-60 87.5t-71 90.5t-60 102.5t-24.5 109q0 116 77 206.5t214 174.5q-12 67 -72.5 107t-148.5 40q-104 0 -173.5 -74.5t-93.5 -201.5l-178 -1018
h-176l180 1034q34 189 156 304.5t297 115.5q166 0 275.5 -90t109.5 -225q0 -44 -4 -56q-151 -87 -217 -151t-66 -148q0 -42 24.5 -88.5t59 -90.5t69 -89.5t59 -100t24.5 -106.5q0 -142 -107 -237t-266 -95z" />
    <glyph glyph-name="agrave" unicode="&#xe0;" horiz-adv-x="1001" 
d="M432 -23q-142 0 -230.5 80t-88.5 199q0 139 111 232.5t270 93.5q172 0 294 -90l13 77q0 1 0.5 4t1 9t0.5 12q0 93 -60.5 152t-162.5 59q-111 0 -211 -100l-99 124q151 136 332 136q171 0 275 -100t104 -253q0 -8 -1 -19.5t-1 -14.5q-2 -6 -2 -15l-98 -563h-177l19 106
q-132 -129 -289 -129zM489 127q98 0 172 58t99 155q-113 102 -266 102q-91 0 -146 -47.5t-55 -126.5q0 -64 52.5 -102.5t143.5 -38.5zM444 1339l142 93l168 -326l-105 -68z" />
    <glyph glyph-name="aacute" unicode="&#xe1;" horiz-adv-x="1001" 
d="M432 -23q-142 0 -230.5 80t-88.5 199q0 139 111 232.5t270 93.5q172 0 294 -90l13 77q0 1 0.5 4t1 9t0.5 12q0 93 -60.5 152t-162.5 59q-111 0 -211 -100l-99 124q151 136 332 136q171 0 275 -100t104 -253q0 -8 -1 -19.5t-1 -14.5q-2 -6 -2 -15l-98 -563h-177l19 106
q-132 -129 -289 -129zM489 127q98 0 172 58t99 155q-113 102 -266 102q-91 0 -146 -47.5t-55 -126.5q0 -64 52.5 -102.5t143.5 -38.5zM610 1110l279 322l121 -109l-301 -297z" />
    <glyph glyph-name="acircumflex" unicode="&#xe2;" horiz-adv-x="1001" 
d="M432 -23q-142 0 -230.5 80t-88.5 199q0 139 111 232.5t270 93.5q172 0 294 -90l13 77q0 1 0.5 4t1 9t0.5 12q0 93 -60.5 152t-162.5 59q-111 0 -211 -100l-99 124q151 136 332 136q171 0 275 -100t104 -253q0 -8 -1 -19.5t-1 -14.5q-2 -6 -2 -15l-98 -563h-177l19 106
q-132 -129 -289 -129zM489 127q98 0 172 58t99 155q-113 102 -266 102q-91 0 -146 -47.5t-55 -126.5q0 -64 52.5 -102.5t143.5 -38.5zM412 1184l325 192l256 -192l-82 -103l-188 138l-260 -152z" />
    <glyph glyph-name="atilde" unicode="&#xe3;" horiz-adv-x="1001" 
d="M432 -23q-142 0 -230.5 80t-88.5 199q0 139 111 232.5t270 93.5q172 0 294 -90l13 77q0 1 0.5 4t1 9t0.5 12q0 93 -60.5 152t-162.5 59q-111 0 -211 -100l-99 124q151 136 332 136q171 0 275 -100t104 -253q0 -8 -1 -19.5t-1 -14.5q-2 -6 -2 -15l-98 -563h-177l19 106
q-132 -129 -289 -129zM489 127q98 0 172 58t99 155q-113 102 -266 102q-91 0 -146 -47.5t-55 -126.5q0 -64 52.5 -102.5t143.5 -38.5zM416 1202q36 70 91 109t120 39q38 0 101 -36t101 -36q50 0 97 72l100 -76q-36 -70 -88 -109t-111 -39q-49 0 -86.5 18t-67 36t-59.5 18
q-51 0 -98 -72z" />
    <glyph glyph-name="adieresis" unicode="&#xe4;" horiz-adv-x="1001" 
d="M432 -23q-142 0 -230.5 80t-88.5 199q0 139 111 232.5t270 93.5q172 0 294 -90l13 77q0 1 0.5 4t1 9t0.5 12q0 93 -60.5 152t-162.5 59q-111 0 -211 -100l-99 124q151 136 332 136q171 0 275 -100t104 -253q0 -8 -1 -19.5t-1 -14.5q-2 -6 -2 -15l-98 -563h-177l19 106
q-132 -129 -289 -129zM489 127q98 0 172 58t99 155q-113 102 -266 102q-91 0 -146 -47.5t-55 -126.5q0 -64 52.5 -102.5t143.5 -38.5zM512 1120q-50 0 -80.5 30.5t-30.5 78.5q0 50 39 88.5t92 38.5q46 0 77.5 -32.5t31.5 -76.5q0 -54 -37.5 -90.5t-91.5 -36.5zM897 1120
q-46 0 -76 31.5t-30 75.5q0 49 38 89t89 40q47 0 78.5 -32t31.5 -77q0 -54 -39.5 -90.5t-91.5 -36.5z" />
    <glyph glyph-name="aring" unicode="&#xe5;" horiz-adv-x="1001" 
d="M432 -23q-142 0 -230.5 80t-88.5 199q0 139 111 232.5t270 93.5q172 0 294 -90l13 77q0 1 0.5 4t1 9t0.5 12q0 93 -60.5 152t-162.5 59q-111 0 -211 -100l-99 124q151 136 332 136q171 0 275 -100t104 -253q0 -8 -1 -19.5t-1 -14.5q-2 -6 -2 -15l-98 -563h-177l19 106
q-132 -129 -289 -129zM489 127q98 0 172 58t99 155q-113 102 -266 102q-91 0 -146 -47.5t-55 -126.5q0 -64 52.5 -102.5t143.5 -38.5zM694 1014q-89 0 -145.5 54t-56.5 134q0 95 69 160t162 65q89 0 147 -55.5t58 -134.5q0 -91 -70.5 -157t-163.5 -66zM705 1126
q42 0 71 28.5t29 74.5q0 36 -24 61t-64 25q-43 0 -74 -29.5t-31 -75.5q0 -33 26.5 -58.5t66.5 -25.5z" />
    <glyph glyph-name="ae" unicode="&#xe6;" horiz-adv-x="1714" 
d="M463 -23q-154 0 -251 81t-97 202q0 139 113 230.5t276 91.5q177 0 297 -88l10 67l2 38v1q0 93 -61.5 149t-165.5 56q-124 0 -215 -94l-99 125q144 129 334 129q111 0 195.5 -42t134.5 -118q166 166 360 166q187 0 307.5 -116.5t120.5 -295.5q0 -65 -18 -133h-743
q0 -126 79 -201t218 -75q153 0 272 110l94 -113q-172 -163 -397 -163q-126 0 -223 50.5t-152 139.5l-20 -22q-72 -81 -168 -128t-203 -47zM496 133q100 0 171.5 56t94.5 153q-62 53 -123 76.5t-143 23.5q-92 0 -146.5 -46.5t-54.5 -125.5q0 -63 54 -100t147 -37zM1546 571
q-7 112 -79.5 177t-188.5 65q-104 0 -183 -66t-108 -176h559z" />
    <glyph glyph-name="ccedilla" unicode="&#xe7;" horiz-adv-x="1032" 
d="M475 -522q-51 0 -97.5 18.5t-67 34.5t-25.5 25l63 106q4 -7 16.5 -19.5t41.5 -27t61 -14.5q47 0 79 26t32 64q0 33 -28.5 58.5t-70.5 25.5h-82l97 217q-154 37 -246 153.5t-92 276.5q0 147 73.5 272.5t197 198t265.5 72.5q132 0 236 -62.5t166 -169.5l-144 -98
q-90 164 -272 164q-140 0 -239 -107t-99 -262q0 -126 80 -206.5t213 -80.5q144 0 264 117l100 -115q-74 -76 -171 -120t-205 -48l-46 -98q69 -21 107.5 -67t38.5 -111q0 -97 -71 -160t-175 -63z" />
    <glyph glyph-name="egrave" unicode="&#xe8;" horiz-adv-x="1089" 
d="M623 -23q-208 0 -335.5 124.5t-127.5 312.5q0 153 69.5 280t188.5 199t260 72q188 0 306 -115t118 -293q0 -39 -9 -81.5t-16 -55.5h-737q0 -124 81 -200.5t226 -76.5q158 0 275 111l94 -113q-169 -164 -393 -164zM922 565q-6 116 -74.5 179t-190.5 63
q-100 0 -179.5 -66.5t-110.5 -175.5h555zM467 1339l141 93l168 -326l-104 -68z" />
    <glyph glyph-name="eacute" unicode="&#xe9;" horiz-adv-x="1089" 
d="M623 -23q-208 0 -335.5 124.5t-127.5 312.5q0 153 69.5 280t188.5 199t260 72q188 0 306 -115t118 -293q0 -39 -9 -81.5t-16 -55.5h-737q0 -124 81 -200.5t226 -76.5q158 0 275 111l94 -113q-169 -164 -393 -164zM922 565q-6 116 -74.5 179t-190.5 63
q-100 0 -179.5 -66.5t-110.5 -175.5h555zM647 1110l279 322l121 -109l-302 -297z" />
    <glyph glyph-name="ecircumflex" unicode="&#xea;" horiz-adv-x="1089" 
d="M623 -23q-208 0 -335.5 124.5t-127.5 312.5q0 153 69.5 280t188.5 199t260 72q188 0 306 -115t118 -293q0 -39 -9 -81.5t-16 -55.5h-737q0 -124 81 -200.5t226 -76.5q158 0 275 111l94 -113q-169 -164 -393 -164zM922 565q-6 116 -74.5 179t-190.5 63
q-100 0 -179.5 -66.5t-110.5 -175.5h555zM449 1184l325 192l256 -192l-82 -103l-188 138l-260 -152z" />
    <glyph glyph-name="edieresis" unicode="&#xeb;" horiz-adv-x="1089" 
d="M623 -23q-208 0 -335.5 124.5t-127.5 312.5q0 153 69.5 280t188.5 199t260 72q188 0 306 -115t118 -293q0 -39 -9 -81.5t-16 -55.5h-737q0 -124 81 -200.5t226 -76.5q158 0 275 111l94 -113q-169 -164 -393 -164zM922 565q-6 116 -74.5 179t-190.5 63
q-100 0 -179.5 -66.5t-110.5 -175.5h555zM541 1120q-50 0 -80.5 30.5t-30.5 78.5q0 50 39 88.5t92 38.5q46 0 77.5 -32.5t31.5 -76.5q0 -54 -37.5 -90.5t-91.5 -36.5zM926 1120q-46 0 -76.5 31.5t-30.5 75.5q0 49 38 89t89 40q47 0 79 -32t32 -77q0 -54 -39.5 -90.5
t-91.5 -36.5z" />
    <glyph glyph-name="igrave" unicode="&#xec;" horiz-adv-x="440" 
d="M297 942h176l-166 -942h-176zM180 1339l142 93l167 -326l-104 -68z" />
    <glyph glyph-name="iacute" unicode="&#xed;" horiz-adv-x="444" 
d="M301 942h176l-166 -942h-176zM336 1110l278 322l121 -109l-301 -297z" />
    <glyph glyph-name="icircumflex" unicode="&#xee;" horiz-adv-x="438" 
d="M295 942h176l-166 -942h-176zM143 1184l326 192l256 -192l-82 -103l-188 138l-260 -152z" />
    <glyph glyph-name="idieresis" unicode="&#xef;" horiz-adv-x="452" 
d="M303 942h176l-166 -942h-176zM268 1118q-50 0 -80 30.5t-30 78.5q0 50 39 88.5t92 38.5q46 0 77 -32.5t31 -76.5q0 -54 -37.5 -90.5t-91.5 -36.5zM596 1118q-46 0 -76.5 31.5t-30.5 75.5q0 49 38 89t89 40q47 0 79 -32t32 -77q0 -54 -39.5 -90.5t-91.5 -36.5z" />
    <glyph glyph-name="eth" unicode="&#xf0;" horiz-adv-x="1132" 
d="M604 -23q-189 0 -311.5 119t-122.5 299q0 108 41 204.5t109 164.5t157.5 107.5t184.5 39.5q107 0 190.5 -47.5t132.5 -128.5q-11 99 -60.5 199t-133.5 184l-297 -149l-48 127l238 112q-65 59 -162 117l101 131q107 -66 221 -166l225 115l49 -125l-164 -80
q99 -118 154 -260t55 -287q0 -191 -73 -346t-201 -242.5t-285 -87.5zM629 143q130 0 223.5 95.5t93.5 240.5q0 118 -77.5 192t-204.5 74q-129 0 -220.5 -96.5t-91.5 -242.5q0 -111 78.5 -187t198.5 -76z" />
    <glyph glyph-name="ntilde" unicode="&#xf1;" 
d="M299 942h172l-18 -96q122 119 276 119q144 0 234 -95.5t90 -238.5q0 -5 -4 -33q-2 -6 -2 -18l-101 -580h-176l96 547l1 7q1 7 2 18.5t1 21.5q0 95 -56.5 153t-154.5 58t-166 -62.5t-87 -171.5l-97 -571h-176zM455 1202q36 70 91 109t120 39q38 0 101 -36t101 -36
q50 0 97 72l100 -76q-36 -70 -88 -109t-111 -39q-49 0 -86.5 18t-67 36t-59.5 18q-51 0 -98 -72z" />
    <glyph glyph-name="ograve" unicode="&#xf2;" horiz-adv-x="1140" 
d="M610 -23q-197 0 -325.5 129.5t-128.5 317.5q0 101 42 199t112.5 173.5t171 122t210.5 46.5q194 0 323.5 -132t129.5 -319q0 -143 -77 -268t-200 -197t-258 -72zM625 143q136 0 236 106t100 263q0 126 -78.5 206.5t-204.5 80.5q-139 0 -239.5 -107t-100.5 -264
q0 -119 81.5 -202t205.5 -83zM475 1339l141 93l168 -326l-104 -68z" />
    <glyph glyph-name="oacute" unicode="&#xf3;" horiz-adv-x="1140" 
d="M610 -23q-197 0 -325.5 129.5t-128.5 317.5q0 101 42 199t112.5 173.5t171 122t210.5 46.5q194 0 323.5 -132t129.5 -319q0 -143 -77 -268t-200 -197t-258 -72zM625 143q136 0 236 106t100 263q0 126 -78.5 206.5t-204.5 80.5q-139 0 -239.5 -107t-100.5 -264
q0 -119 81.5 -202t205.5 -83zM651 1110l279 322l121 -109l-301 -297z" />
    <glyph glyph-name="ocircumflex" unicode="&#xf4;" horiz-adv-x="1140" 
d="M610 -23q-197 0 -325.5 129.5t-128.5 317.5q0 101 42 199t112.5 173.5t171 122t210.5 46.5q194 0 323.5 -132t129.5 -319q0 -143 -77 -268t-200 -197t-258 -72zM625 143q136 0 236 106t100 263q0 126 -78.5 206.5t-204.5 80.5q-139 0 -239.5 -107t-100.5 -264
q0 -119 81.5 -202t205.5 -83zM453 1184l325 192l256 -192l-82 -103l-188 138l-260 -152z" />
    <glyph glyph-name="otilde" unicode="&#xf5;" horiz-adv-x="1140" 
d="M610 -23q-197 0 -325.5 129.5t-128.5 317.5q0 101 42 199t112.5 173.5t171 122t210.5 46.5q194 0 323.5 -132t129.5 -319q0 -143 -77 -268t-200 -197t-258 -72zM625 143q136 0 236 106t100 263q0 126 -78.5 206.5t-204.5 80.5q-139 0 -239.5 -107t-100.5 -264
q0 -119 81.5 -202t205.5 -83zM444 1202q36 70 91 109t120 39q38 0 101.5 -36t101.5 -36q49 0 96 72l101 -76q-36 -70 -88 -109t-111 -39q-49 0 -86.5 18t-67 36t-59.5 18q-51 0 -98 -72z" />
    <glyph glyph-name="odieresis" unicode="&#xf6;" horiz-adv-x="1140" 
d="M610 -23q-197 0 -325.5 129.5t-128.5 317.5q0 101 42 199t112.5 173.5t171 122t210.5 46.5q194 0 323.5 -132t129.5 -319q0 -143 -77 -268t-200 -197t-258 -72zM625 143q136 0 236 106t100 263q0 126 -78.5 206.5t-204.5 80.5q-139 0 -239.5 -107t-100.5 -264
q0 -119 81.5 -202t205.5 -83zM543 1120q-50 0 -80.5 30.5t-30.5 78.5q0 50 39 88.5t92 38.5q46 0 77.5 -32.5t31.5 -76.5q0 -54 -37.5 -90.5t-91.5 -36.5zM928 1120q-46 0 -76.5 31.5t-30.5 75.5q0 49 38 89t89 40q47 0 79 -32t32 -77q0 -54 -39.5 -90.5t-91.5 -36.5z" />
    <glyph glyph-name="divide" unicode="&#xf7;" horiz-adv-x="911" 
d="M567 223q-47 0 -79.5 33t-32.5 82q0 47 33.5 81t80.5 34t81 -34t34 -81q0 -49 -33.5 -82t-83.5 -33zM174 745h789v-159h-789v159zM567 879q-47 0 -79.5 33.5t-32.5 80.5q0 49 33 82t81 33t81.5 -33t33.5 -82q0 -47 -34 -80.5t-83 -33.5z" />
    <glyph glyph-name="oslash" unicode="&#xf8;" horiz-adv-x="1140" 
d="M160 14l102 117q-106 125 -106 293q0 101 42 199t112.5 173.5t171 122t210.5 46.5q133 0 242 -68l102 119l113 -88l-109 -123q105 -127 105 -291q0 -143 -77 -268t-200 -197t-258 -72q-131 0 -239 62l-99 -111zM817 766q-59 33 -139 33q-139 0 -239.5 -107t-100.5 -264
q0 -90 45 -158zM625 143q136 0 236 106t100 263q0 85 -41 156l-433 -494q64 -31 138 -31z" />
    <glyph glyph-name="ugrave" unicode="&#xf9;" 
d="M510 -23q-150 0 -239 95t-89 243q0 14 2 30t2 17l103 580h176l-96 -547l-1 -8q-1 -8 -2 -18.5t-1 -18.5q0 -100 53.5 -156.5t154.5 -56.5q98 0 166.5 63.5t85.5 172.5l101 569h176l-166 -942h-172l16 100q-120 -123 -270 -123zM473 1339l141 93l168 -326l-104 -68z" />
    <glyph glyph-name="uacute" unicode="&#xfa;" 
d="M510 -23q-150 0 -239 95t-89 243q0 14 2 30t2 17l103 580h176l-96 -547l-1 -8q-1 -8 -2 -18.5t-1 -18.5q0 -100 53.5 -156.5t154.5 -56.5q98 0 166.5 63.5t85.5 172.5l101 569h176l-166 -942h-172l16 100q-120 -123 -270 -123zM635 1110l278 322l121 -109l-301 -297z" />
    <glyph glyph-name="ucircumflex" unicode="&#xfb;" 
d="M510 -23q-150 0 -239 95t-89 243q0 14 2 30t2 17l103 580h176l-96 -547l-1 -8q-1 -8 -2 -18.5t-1 -18.5q0 -100 53.5 -156.5t154.5 -56.5q98 0 166.5 63.5t85.5 172.5l101 569h176l-166 -942h-172l16 100q-120 -123 -270 -123zM434 1184l326 192l256 -192l-82 -103
l-189 138l-260 -152z" />
    <glyph glyph-name="udieresis" unicode="&#xfc;" 
d="M510 -23q-150 0 -239 95t-89 243q0 14 2 30t2 17l103 580h176l-96 -547l-1 -8q-1 -8 -2 -18.5t-1 -18.5q0 -100 53.5 -156.5t154.5 -56.5q98 0 166.5 63.5t85.5 172.5l101 569h176l-166 -942h-172l16 100q-120 -123 -270 -123zM524 1120q-50 0 -80 30.5t-30 78.5
q0 50 39 88.5t92 38.5q46 0 77 -32.5t31 -76.5q0 -54 -37.5 -90.5t-91.5 -36.5zM909 1120q-46 0 -76 31.5t-30 75.5q0 49 38 89t89 40q47 0 78.5 -32t31.5 -77q0 -54 -39.5 -90.5t-91.5 -36.5z" />
    <glyph glyph-name="yacute" unicode="&#xfd;" horiz-adv-x="940" 
d="M84 -512l274 498l-172 956h181l125 -717l393 717h190l-801 -1454h-194h4zM549 1110l278 322l121 -109l-301 -297z" />
    <glyph glyph-name="thorn" unicode="&#xfe;" horiz-adv-x="1169" 
d="M664 143q134 0 233.5 107t99.5 264q0 126 -76 205.5t-202 79.5q-139 0 -239.5 -106t-100.5 -263q0 -119 80 -203t205 -84zM389 1454h180l-108 -616q133 127 309 127q178 0 295 -128t117 -313q0 -110 -43 -212t-113.5 -175t-163.5 -116.5t-190 -43.5q-108 0 -196 49
t-136 130l-119 -668h-180z" />
    <glyph glyph-name="ydieresis" unicode="&#xff;" horiz-adv-x="940" 
d="M84 -512l274 498l-172 956h181l125 -717l393 717h190l-801 -1454h-194h4zM459 1120q-50 0 -80.5 30.5t-30.5 78.5q0 50 39 88.5t92 38.5q46 0 77.5 -32.5t31.5 -76.5q0 -54 -37.5 -90.5t-91.5 -36.5zM844 1120q-46 0 -76.5 31.5t-30.5 75.5q0 49 38 89t89 40q47 0 79 -32
t32 -77q0 -54 -39.5 -90.5t-91.5 -36.5z" />
    <glyph glyph-name="Amacron" unicode="&#x100;" horiz-adv-x="1224" 
d="M844 1409h71l289 -1409h-194l-62 313h-508l-168 -313h-211zM915 492l-98 516l-278 -516h376zM709 1737h454l-24 -144h-455z" />
    <glyph glyph-name="amacron" unicode="&#x101;" horiz-adv-x="1001" 
d="M432 -23q-142 0 -230.5 80t-88.5 199q0 139 111 232.5t270 93.5q172 0 294 -90l13 77q0 1 0.5 4t1 9t0.5 12q0 93 -60.5 152t-162.5 59q-111 0 -211 -100l-99 124q151 136 332 136q171 0 275 -100t104 -253q0 -8 -1 -19.5t-1 -14.5q-2 -6 -2 -15l-98 -563h-177l19 106
q-132 -129 -289 -129zM489 127q98 0 172 58t99 155q-113 102 -266 102q-91 0 -146 -47.5t-55 -126.5q0 -64 52.5 -102.5t143.5 -38.5zM502 1307h454l-24 -144h-455z" />
    <glyph glyph-name="Abreve" unicode="&#x102;" horiz-adv-x="1224" 
d="M844 1409h71l289 -1409h-194l-62 313h-508l-168 -313h-211zM915 492l-98 516l-278 -516h376zM901 1495q-118 0 -183 74.5t-54 199.5h139q-6 -62 24.5 -99.5t85.5 -37.5q56 0 94 37.5t44 99.5h139q-10 -126 -89.5 -200t-199.5 -74z" />
    <glyph glyph-name="abreve" unicode="&#x103;" horiz-adv-x="1001" 
d="M432 -23q-142 0 -230.5 80t-88.5 199q0 139 111 232.5t270 93.5q172 0 294 -90l13 77q0 1 0.5 4t1 9t0.5 12q0 93 -60.5 152t-162.5 59q-111 0 -211 -100l-99 124q151 136 332 136q171 0 275 -100t104 -253q0 -8 -1 -19.5t-1 -14.5q-2 -6 -2 -15l-98 -563h-177l19 106
q-132 -129 -289 -129zM489 127q98 0 172 58t99 155q-113 102 -266 102q-91 0 -146 -47.5t-55 -126.5q0 -64 52.5 -102.5t143.5 -38.5zM696 1065q-118 0 -183 74.5t-54 199.5h139q-6 -62 25 -99.5t86 -37.5q56 0 93.5 37t43.5 100h139q-10 -126 -89.5 -200t-199.5 -74z" />
    <glyph glyph-name="Aogonek" unicode="&#x104;" horiz-adv-x="1224" 
d="M1020 -522q-121 0 -189.5 55.5t-68.5 149.5q0 191 274 317h-26l-62 313h-508l-168 -313h-211l783 1409h71l289 -1409q-158 -86 -218 -151.5t-60 -133.5q0 -43 35.5 -70.5t99.5 -27.5q29 0 69 6l-24 -137q-36 -8 -86 -8zM915 492l-98 516l-278 -516h376z" />
    <glyph glyph-name="aogonek" unicode="&#x105;" horiz-adv-x="1001" 
d="M489 127q98 0 172 58t99 155q-113 102 -266 102q-91 0 -146 -47.5t-55 -126.5q0 -64 52.5 -102.5t143.5 -38.5zM694 -522q-121 0 -189.5 55.5t-68.5 149.5q0 187 281 317h-15l19 106q-132 -129 -289 -129q-142 0 -230.5 80t-88.5 199q0 139 111 232.5t270 93.5
q172 0 294 -90l13 77q0 1 0.5 4t1 9t0.5 12q0 93 -60.5 152t-162.5 59q-111 0 -211 -100l-99 124q151 136 332 136q171 0 275 -100t104 -253q0 -8 -1 -19.5t-1 -14.5q-2 -6 -2 -15l-98 -563q-159 -86 -219 -151.5t-60 -133.5q0 -43 35.5 -70.5t99.5 -27.5q29 0 70 6
l-25 -137q-36 -8 -86 -8z" />
    <glyph glyph-name="Cacute" unicode="&#x106;" horiz-adv-x="1374" 
d="M846 -23q-142 0 -264 49t-206 133.5t-131.5 200t-47.5 246.5q0 164 64.5 312t171 251.5t247 164.5t287.5 61q168 0 306.5 -76.5t227.5 -208.5l-158 -115q-67 100 -170.5 156.5t-228.5 56.5q-146 0 -270 -75t-197.5 -210t-73.5 -300q0 -200 126 -329.5t333 -129.5
q105 0 201 38.5t170 108.5l113 -135q-221 -199 -500 -199zM934 1540l278 322l121 -109l-301 -297z" />
    <glyph glyph-name="cacute" unicode="&#x107;" horiz-adv-x="1032" 
d="M610 -23q-198 0 -326 128t-128 317q0 147 73.5 272.5t197 198t265.5 72.5q132 0 236 -62.5t166 -169.5l-144 -98q-90 164 -272 164q-140 0 -239 -107t-99 -262q0 -126 80 -206.5t213 -80.5q144 0 264 117l100 -115q-76 -79 -177 -123.5t-210 -44.5zM672 1110l278 322
l121 -109l-301 -297z" />
    <glyph glyph-name="Ccircumflex" unicode="&#x108;" horiz-adv-x="1374" 
d="M846 -23q-142 0 -264 49t-206 133.5t-131.5 200t-47.5 246.5q0 164 64.5 312t171 251.5t247 164.5t287.5 61q168 0 306.5 -76.5t227.5 -208.5l-158 -115q-67 100 -170.5 156.5t-228.5 56.5q-146 0 -270 -75t-197.5 -210t-73.5 -300q0 -200 126 -329.5t333 -129.5
q105 0 201 38.5t170 108.5l113 -135q-221 -199 -500 -199zM737 1614l326 192l256 -192l-82 -103l-188 138l-261 -152z" />
    <glyph glyph-name="ccircumflex" unicode="&#x109;" horiz-adv-x="1032" 
d="M610 -23q-198 0 -326 128t-128 317q0 147 73.5 272.5t197 198t265.5 72.5q132 0 236 -62.5t166 -169.5l-144 -98q-90 164 -272 164q-140 0 -239 -107t-99 -262q0 -126 80 -206.5t213 -80.5q144 0 264 117l100 -115q-76 -79 -177 -123.5t-210 -44.5zM449 1184l325 192
l256 -192l-82 -103l-188 138l-260 -152z" />
    <glyph glyph-name="Cdotaccent" unicode="&#x10a;" horiz-adv-x="1374" 
d="M846 -23q-142 0 -264 49t-206 133.5t-131.5 200t-47.5 246.5q0 164 64.5 312t171 251.5t247 164.5t287.5 61q168 0 306.5 -76.5t227.5 -208.5l-158 -115q-67 100 -170.5 156.5t-228.5 56.5q-146 0 -270 -75t-197.5 -210t-73.5 -300q0 -200 126 -329.5t333 -129.5
q105 0 201 38.5t170 108.5l113 -135q-221 -199 -500 -199zM1022 1550q-50 0 -80.5 30.5t-30.5 78.5q0 50 39 88.5t92 38.5q46 0 77.5 -32.5t31.5 -76.5q0 -54 -37.5 -90.5t-91.5 -36.5z" />
    <glyph glyph-name="cdotaccent" unicode="&#x10b;" horiz-adv-x="1032" 
d="M610 -23q-198 0 -326 128t-128 317q0 147 73.5 272.5t197 198t265.5 72.5q132 0 236 -62.5t166 -169.5l-144 -98q-90 164 -272 164q-140 0 -239 -107t-99 -262q0 -126 80 -206.5t213 -80.5q144 0 264 117l100 -115q-76 -79 -177 -123.5t-210 -44.5zM737 1120
q-50 0 -80 30.5t-30 78.5q0 50 39 88.5t92 38.5q46 0 77 -32.5t31 -76.5q0 -54 -37.5 -90.5t-91.5 -36.5z" />
    <glyph glyph-name="Ccaron" unicode="&#x10c;" horiz-adv-x="1374" 
d="M846 -23q-142 0 -264 49t-206 133.5t-131.5 200t-47.5 246.5q0 164 64.5 312t171 251.5t247 164.5t287.5 61q168 0 306.5 -76.5t227.5 -208.5l-158 -115q-67 100 -170.5 156.5t-228.5 56.5q-146 0 -270 -75t-197.5 -210t-73.5 -300q0 -200 126 -329.5t333 -129.5
q105 0 201 38.5t170 108.5l113 -135q-221 -199 -500 -199zM754 1671l82 105l188 -142l262 154l49 -117l-323 -192z" />
    <glyph glyph-name="ccaron" unicode="&#x10d;" horiz-adv-x="1032" 
d="M610 -23q-198 0 -326 128t-128 317q0 147 73.5 272.5t197 198t265.5 72.5q132 0 236 -62.5t166 -169.5l-144 -98q-90 164 -272 164q-140 0 -239 -107t-99 -262q0 -126 80 -206.5t213 -80.5q144 0 264 117l100 -115q-76 -79 -177 -123.5t-210 -44.5zM494 1241l81 105
l189 -142l262 154l49 -117l-323 -192z" />
    <glyph glyph-name="Dcaron" unicode="&#x10e;" horiz-adv-x="1468" 
d="M416 1372h477q169 0 311 -88t221.5 -232t79.5 -307q0 -158 -63 -297.5t-169 -237t-248.5 -154t-297.5 -56.5h-553zM737 178q150 0 279 72t206.5 200.5t77.5 284.5q0 123 -53.5 227t-155.5 168t-231 64h-287l-178 -1016h342zM729 1671l82 105l188 -142l263 154l49 -117
l-324 -192z" />
    <glyph glyph-name="dcaron" unicode="&#x10f;" horiz-adv-x="1353" 
d="M563 -23q-178 0 -292.5 127.5t-114.5 311.5q0 148 70.5 275t188.5 200.5t253 73.5q107 0 192.5 -48.5t134.5 -130.5l117 668h176l-256 -1454h-170l21 119q-62 -65 -146 -103.5t-174 -38.5zM621 143q137 0 237 105.5t100 261.5q0 126 -79 207.5t-205 81.5
q-136 0 -236 -108t-100 -265q0 -118 79 -200.5t204 -82.5zM1327 1100l141 379l158 -41l-184 -367z" />
    <glyph glyph-name="Dcroat" unicode="&#x110;" horiz-adv-x="1478" 
d="M291 608h-205l29 164h204l107 600h477q127 0 242 -52t195.5 -138t128 -200.5t47.5 -236.5q0 -210 -107.5 -382t-285.5 -267.5t-386 -95.5h-553zM748 178q150 0 279 72t206.5 200.5t77.5 284.5q0 122 -54 226.5t-156 168.5t-231 64h-286l-74 -422h276l-28 -164h-277
l-75 -430h342z" />
    <glyph glyph-name="dslash" unicode="&#x111;" horiz-adv-x="1191" 
d="M561 -23q-178 0 -292.5 127.5t-114.5 311.5q0 148 70.5 275t188.5 200.5t253 73.5q107 0 192.5 -48.5t134.5 -130.5l58 328h-342l28 160h340l33 180h176l-33 -180h131l-28 -160h-129l-197 -1114h-170l21 119q-62 -65 -146 -103.5t-174 -38.5zM618 143q138 0 238 105.5
t100 261.5q0 126 -79 207.5t-205 81.5q-136 0 -236 -108t-100 -265q0 -118 78.5 -200.5t203.5 -82.5z" />
    <glyph glyph-name="Emacron" unicode="&#x112;" horiz-adv-x="1017" 
d="M416 1372h731l-33 -178h-541l-69 -397h409l-30 -179h-410l-78 -440h551l-31 -178h-741zM598 1737h455l-25 -144h-455z" />
    <glyph glyph-name="emacron" unicode="&#x113;" horiz-adv-x="1089" 
d="M623 -23q-208 0 -335.5 124.5t-127.5 312.5q0 153 69.5 280t188.5 199t260 72q188 0 306 -115t118 -293q0 -39 -9 -81.5t-16 -55.5h-737q0 -124 81 -200.5t226 -76.5q158 0 275 111l94 -113q-169 -164 -393 -164zM922 565q-6 116 -74.5 179t-190.5 63
q-100 0 -179.5 -66.5t-110.5 -175.5h555zM528 1307h455l-25 -144h-454z" />
    <glyph glyph-name="Ebreve" unicode="&#x114;" horiz-adv-x="1017" 
d="M416 1372h731l-33 -178h-541l-69 -397h409l-30 -179h-410l-78 -440h551l-31 -178h-741zM780 1495q-118 0 -183 74.5t-54 199.5h139q-6 -62 25 -99.5t86 -37.5q56 0 93.5 37t43.5 100h139q-10 -126 -89.5 -200t-199.5 -74z" />
    <glyph glyph-name="ebreve" unicode="&#x115;" horiz-adv-x="1089" 
d="M623 -23q-208 0 -335.5 124.5t-127.5 312.5q0 153 69.5 280t188.5 199t260 72q188 0 306 -115t118 -293q0 -39 -9 -81.5t-16 -55.5h-737q0 -124 81 -200.5t226 -76.5q158 0 275 111l94 -113q-169 -164 -393 -164zM922 565q-6 116 -74.5 179t-190.5 63
q-100 0 -179.5 -66.5t-110.5 -175.5h555zM713 1065q-119 0 -183.5 75t-54.5 199h139q-6 -62 25 -99.5t86 -37.5q56 0 93.5 37t43.5 100h139q-10 -126 -89 -200t-199 -74z" />
    <glyph glyph-name="Edotaccent" unicode="&#x116;" horiz-adv-x="1017" 
d="M416 1372h731l-33 -178h-541l-69 -397h409l-30 -179h-410l-78 -440h551l-31 -178h-741zM799 1550q-50 0 -80.5 30.5t-30.5 78.5q0 50 39 88.5t92 38.5q46 0 77.5 -32.5t31.5 -76.5q0 -54 -37.5 -90.5t-91.5 -36.5z" />
    <glyph glyph-name="edotaccent" unicode="&#x117;" horiz-adv-x="1089" 
d="M623 -23q-208 0 -335.5 124.5t-127.5 312.5q0 153 69.5 280t188.5 199t260 72q188 0 306 -115t118 -293q0 -39 -9 -81.5t-16 -55.5h-737q0 -124 81 -200.5t226 -76.5q158 0 275 111l94 -113q-169 -164 -393 -164zM922 565q-6 116 -74.5 179t-190.5 63
q-100 0 -179.5 -66.5t-110.5 -175.5h555zM735 1120q-50 0 -80 30.5t-30 78.5q0 50 39 88.5t92 38.5q46 0 77 -32.5t31 -76.5q0 -54 -37.5 -90.5t-91.5 -36.5z" />
    <glyph glyph-name="Eogonek" unicode="&#x118;" horiz-adv-x="1017" 
d="M731 -522q-121 0 -189.5 55.5t-68.5 149.5q0 190 275 317h-574l242 1372h731l-33 -178h-541l-69 -397h409l-30 -179h-410l-78 -440h551l-31 -178q-158 -86 -218 -151.5t-60 -133.5q0 -43 35.5 -70.5t99.5 -27.5q30 0 70 6l-25 -137q-36 -8 -86 -8z" />
    <glyph glyph-name="eogonek" unicode="&#x119;" horiz-adv-x="1089" 
d="M745 -520q-133 0 -210.5 61.5t-77.5 161.5q0 76 41 141t127 138l-25 -5q-129 0 -231 60t-155.5 159.5t-53.5 217.5q0 153 69.5 280t188.5 199t260 72q188 0 306 -115t118 -293q0 -39 -9 -81.5t-16 -55.5h-737q0 -126 81 -201.5t226 -75.5q159 0 277 109l94 -113
q-41 -39 -113 -86l-10 -6q-147 -91 -208.5 -161t-61.5 -138q0 -58 45 -93.5t125 -35.5q22 0 67 10l-24 -137q-44 -12 -93 -12zM922 565q-6 116 -74.5 179t-190.5 63q-100 0 -179.5 -66.5t-110.5 -175.5h555z" />
    <glyph glyph-name="Ecaron" unicode="&#x11a;" horiz-adv-x="1017" 
d="M416 1372h731l-33 -178h-541l-69 -397h409l-30 -179h-410l-78 -440h551l-31 -178h-741zM528 1671l82 105l189 -142l262 154l49 -117l-324 -192z" />
    <glyph glyph-name="ecaron" unicode="&#x11b;" horiz-adv-x="1089" 
d="M623 -23q-208 0 -335.5 124.5t-127.5 312.5q0 153 69.5 280t188.5 199t260 72q188 0 306 -115t118 -293q0 -39 -9 -81.5t-16 -55.5h-737q0 -124 81 -200.5t226 -76.5q158 0 275 111l94 -113q-169 -164 -393 -164zM922 565q-6 116 -74.5 179t-190.5 63
q-100 0 -179.5 -66.5t-110.5 -175.5h555zM467 1241l82 105l188 -142l262 154l50 -117l-324 -192z" />
    <glyph glyph-name="Gcircumflex" unicode="&#x11c;" horiz-adv-x="1466" 
d="M838 -20q-187 0 -334.5 84t-227 227.5t-79.5 318.5q0 161 64.5 307.5t170.5 250.5t246 165.5t287 61.5q168 0 308 -76.5t230 -208.5l-157 -117q-67 101 -172.5 158t-229.5 57q-107 0 -206.5 -44.5t-173.5 -121.5t-118.5 -186.5t-44.5 -232.5q0 -197 128.5 -327
t336.5 -130q195 0 346 129l52 278h-369l31 179h559l-92 -529q-107 -114 -252 -178.5t-303 -64.5zM731 1614l326 192l256 -192l-82 -103l-189 138l-260 -152z" />
    <glyph glyph-name="gcircumflex" unicode="&#x11d;" horiz-adv-x="1054" 
d="M545 -362q43 0 85 8.5t82.5 27.5t65.5 56t25 86q0 76 -82 121t-229 45q-114 0 -182 -43t-68 -127q0 -76 80 -125t223 -49zM541 -512q-216 0 -347 88t-131 223q0 95 53.5 164t147.5 105q-104 52 -104 147q0 60 38.5 106t102.5 70q-68 80 -68 189q0 167 120.5 276
t301.5 109q78 0 142 -23h383l-25 -139h-162q22 -29 35.5 -75.5t13.5 -84.5q0 -169 -120 -276t-297 -107q-124 0 -217 49q-37 -5 -58.5 -27t-21.5 -57q0 -38 41 -63t114 -29l129 -6q174 -7 272.5 -88.5t98.5 -206.5q0 -154 -123 -249t-319 -95zM629 410q93 0 164 60t71 159
q0 83 -60 134.5t-163 51.5q-100 0 -165.5 -62t-65.5 -163q0 -80 60 -130t159 -50zM449 1184l325 192l256 -192l-82 -103l-188 138l-260 -152z" />
    <glyph glyph-name="Gbreve" unicode="&#x11e;" horiz-adv-x="1466" 
d="M838 -20q-187 0 -334.5 84t-227 227.5t-79.5 318.5q0 161 64.5 307.5t170.5 250.5t246 165.5t287 61.5q168 0 308 -76.5t230 -208.5l-157 -117q-67 101 -172.5 158t-229.5 57q-107 0 -206.5 -44.5t-173.5 -121.5t-118.5 -186.5t-44.5 -232.5q0 -197 128.5 -327
t336.5 -130q195 0 346 129l52 278h-369l31 179h559l-92 -529q-107 -114 -252 -178.5t-303 -64.5zM991 1495q-118 0 -183 74.5t-54 199.5h139q-6 -62 25 -99.5t86 -37.5q56 0 93.5 37t43.5 100h139q-10 -126 -89.5 -200t-199.5 -74z" />
    <glyph glyph-name="gbreve" unicode="&#x11f;" horiz-adv-x="1054" 
d="M545 -362q43 0 85 8.5t82.5 27.5t65.5 56t25 86q0 76 -82 121t-229 45q-114 0 -182 -43t-68 -127q0 -76 80 -125t223 -49zM541 -512q-216 0 -347 88t-131 223q0 95 53.5 164t147.5 105q-104 52 -104 147q0 60 38.5 106t102.5 70q-68 80 -68 189q0 167 120.5 276
t301.5 109q78 0 142 -23h383l-25 -139h-162q22 -29 35.5 -75.5t13.5 -84.5q0 -169 -120 -276t-297 -107q-124 0 -217 49q-37 -5 -58.5 -27t-21.5 -57q0 -38 41 -63t114 -29l129 -6q174 -7 272.5 -88.5t98.5 -206.5q0 -154 -123 -249t-319 -95zM629 410q93 0 164 60t71 159
q0 83 -60 134.5t-163 51.5q-100 0 -165.5 -62t-65.5 -163q0 -80 60 -130t159 -50zM719 1065q-119 0 -183.5 75t-54.5 199h140q-6 -62 24.5 -99.5t85.5 -37.5q56 0 93.5 37t43.5 100h140q-10 -126 -89.5 -200t-199.5 -74z" />
    <glyph glyph-name="Gdotaccent" unicode="&#x120;" horiz-adv-x="1466" 
d="M838 -20q-187 0 -334.5 84t-227 227.5t-79.5 318.5q0 161 64.5 307.5t170.5 250.5t246 165.5t287 61.5q168 0 308 -76.5t230 -208.5l-157 -117q-67 101 -172.5 158t-229.5 57q-107 0 -206.5 -44.5t-173.5 -121.5t-118.5 -186.5t-44.5 -232.5q0 -197 128.5 -327
t336.5 -130q195 0 346 129l52 278h-369l31 179h559l-92 -529q-107 -114 -252 -178.5t-303 -64.5zM1010 1550q-50 0 -80.5 30.5t-30.5 78.5q0 50 39 88.5t92 38.5q46 0 77.5 -32.5t31.5 -76.5q0 -54 -37.5 -90.5t-91.5 -36.5z" />
    <glyph glyph-name="gdotaccent" unicode="&#x121;" horiz-adv-x="1054" 
d="M545 -362q43 0 85 8.5t82.5 27.5t65.5 56t25 86q0 76 -82 121t-229 45q-114 0 -182 -43t-68 -127q0 -76 80 -125t223 -49zM541 -512q-216 0 -347 88t-131 223q0 95 53.5 164t147.5 105q-104 52 -104 147q0 60 38.5 106t102.5 70q-68 80 -68 189q0 167 120.5 276
t301.5 109q78 0 142 -23h383l-25 -139h-162q22 -29 35.5 -75.5t13.5 -84.5q0 -169 -120 -276t-297 -107q-124 0 -217 49q-37 -5 -58.5 -27t-21.5 -57q0 -38 41 -63t114 -29l129 -6q174 -7 272.5 -88.5t98.5 -206.5q0 -154 -123 -249t-319 -95zM629 410q93 0 164 60t71 159
q0 83 -60 134.5t-163 51.5q-100 0 -165.5 -62t-65.5 -163q0 -80 60 -130t159 -50zM731 1120q-50 0 -80 30.5t-30 78.5q0 50 39 88.5t92 38.5q46 0 77 -32.5t31 -76.5q0 -54 -37.5 -90.5t-91.5 -36.5z" />
    <glyph glyph-name="Gcommaaccent" unicode="&#x122;" horiz-adv-x="1466" 
d="M838 -20q-187 0 -334.5 84t-227 227.5t-79.5 318.5q0 161 64.5 307.5t170.5 250.5t246 165.5t287 61.5q168 0 308 -76.5t230 -208.5l-157 -117q-67 101 -172.5 158t-229.5 57q-107 0 -206.5 -44.5t-173.5 -121.5t-118.5 -186.5t-44.5 -232.5q0 -197 128.5 -327
t336.5 -130q195 0 346 129l52 278h-369l31 179h559l-92 -529q-107 -114 -252 -178.5t-303 -64.5zM590 -510l153 408l158 -43l-201 -398z" />
    <glyph glyph-name="gcommaaccent" unicode="&#x123;" horiz-adv-x="1054" 
d="M545 -362q43 0 85 8.5t82.5 27.5t65.5 56t25 86q0 76 -82 121t-229 45q-114 0 -182 -43t-68 -127q0 -76 80 -125t223 -49zM541 -512q-216 0 -347 88t-131 223q0 95 53.5 164t147.5 105q-104 52 -104 147q0 60 38.5 106t102.5 70q-68 80 -68 189q0 167 120.5 276
t301.5 109q78 0 142 -23h383l-25 -139h-162q22 -29 35.5 -75.5t13.5 -84.5q0 -169 -120 -276t-297 -107q-124 0 -217 49q-37 -5 -58.5 -27t-21.5 -57q0 -38 41 -63t114 -29l129 -6q174 -7 272.5 -88.5t98.5 -206.5q0 -154 -123 -249t-319 -95zM629 410q93 0 164 60t71 159
q0 83 -60 134.5t-163 51.5q-100 0 -165.5 -62t-65.5 -163q0 -80 60 -130t159 -50zM641 1104l203 393l110 -31l-157 -409z" />
    <glyph glyph-name="Hcircumflex" unicode="&#x124;" horiz-adv-x="1406" 
d="M416 1372h190l-104 -590h678l104 590h191l-242 -1372h-191l107 604h-678l-106 -604h-191zM686 1614l326 192l256 -192l-82 -103l-189 138l-260 -152z" />
    <glyph glyph-name="hcircumflex" unicode="&#x125;" horiz-adv-x="1064" 
d="M389 1454h176l-108 -604q121 115 270 115q144 0 235 -95.5t91 -238.5q0 -40 -6 -64l-101 -567h-176l96 545q0 8 2 14q0 4 1 15t1 16q0 95 -57.5 155t-155.5 60t-164 -63.5t-85 -172.5l-99 -569h-176zM537 1655l325 192l256 -192l-82 -103l-188 138l-260 -152z" />
    <glyph glyph-name="Hbar" unicode="&#x126;" horiz-adv-x="1425" 
d="M358 993h-143l29 164h143l39 215h190l-38 -215h675l39 215h191l-39 -215h143l-28 -164h-144l-174 -993h-190l106 604h-676l-106 -604h-191zM1188 782l37 211h-676l-37 -211h676z" />
    <glyph glyph-name="hbar" unicode="&#x127;" horiz-adv-x="1081" 
d="M342 1114h-127l29 160h125l32 180h177l-33 -180h346l-29 -160h-346l-47 -264q121 115 268 115q144 0 235 -95.5t91 -238.5q0 -40 -6 -64l-101 -567h-176l97 545q0 8 2 14q0 4 1 15t1 16q0 95 -57.5 155t-155.5 60t-163.5 -63t-84.5 -173l-98 -569h-177z" />
    <glyph glyph-name="Imacron" unicode="&#x12a;" horiz-adv-x="536" 
d="M416 1372h190l-241 -1372h-191zM346 1737h455l-25 -144h-454z" />
    <glyph glyph-name="imacron" unicode="&#x12b;" horiz-adv-x="444" 
d="M303 942h176l-166 -942h-176zM229 1307h455l-25 -144h-454z" />
    <glyph glyph-name="Ibreve" unicode="&#x12c;" horiz-adv-x="546" 
d="M416 1372h190l-241 -1372h-191zM541 1495q-119 0 -183.5 75t-54.5 199h139q-6 -62 25 -99.5t86 -37.5q56 0 93.5 37t43.5 100h139q-10 -126 -89 -200t-199 -74z" />
    <glyph glyph-name="ibreve" unicode="&#x12d;" horiz-adv-x="444" 
d="M297 942h176l-166 -942h-176zM412 1065q-119 0 -183.5 75t-54.5 199h139q-6 -62 25 -99.5t86 -37.5q56 0 93.5 37t43.5 100h139q-10 -126 -89 -200t-199 -74z" />
    <glyph glyph-name="Iogonek" unicode="&#x12e;" horiz-adv-x="544" 
d="M184 -522q-121 0 -189.5 55.5t-68.5 149.5q0 190 275 317h-23l242 1372h190l-241 -1372q-159 -86 -219 -151.5t-60 -133.5q0 -43 35.5 -70.5t99.5 -27.5q29 0 70 6l-25 -137q-36 -8 -86 -8z" />
    <glyph glyph-name="iogonek" unicode="&#x12f;" horiz-adv-x="442" 
d="M123 -522q-121 0 -189.5 55.5t-68.5 149.5q0 185 285 317h-19l166 942h176l-166 -942q-158 -86 -218 -151.5t-60 -133.5q0 -43 35.5 -70.5t99.5 -27.5q29 0 69 6l-24 -137q-36 -8 -86 -8zM424 1120q-46 0 -76.5 32.5t-30.5 76.5q0 50 38 88.5t91 38.5q47 0 79 -31t32 -76
q0 -55 -39 -92t-94 -37z" />
    <glyph glyph-name="Idot" unicode="&#x130;" horiz-adv-x="542" 
d="M416 1372h190l-241 -1372h-191zM555 1550q-50 0 -80.5 30.5t-30.5 78.5q0 50 39 88.5t92 38.5q46 0 77.5 -32.5t31.5 -76.5q0 -54 -37.5 -90.5t-91.5 -36.5z" />
    <glyph glyph-name="dotlessi" unicode="&#x131;" horiz-adv-x="442" 
d="M299 942h176l-166 -942h-176z" />
    <glyph glyph-name="uni0132" unicode="&#x132;" horiz-adv-x="1462" 
d="M416 1372h190l-241 -1372h-191zM932 -23q-127 0 -216 57.5t-130 166.5l164 104q58 -149 196 -149q85 0 147.5 64.5t82.5 174.5l141 799h-385l33 178h575l-176 -993q-32 -183 -150 -292.5t-282 -109.5z" />
    <glyph glyph-name="uni0133" unicode="&#x133;" horiz-adv-x="888" 
d="M297 942h176l-166 -942h-176zM420 -512q-129 0 -207 96l111 133q42 -63 96 -63q87 0 123 137l202 1151h177l-207 -1175q-24 -125 -103 -202t-192 -77zM424 1120q-46 0 -76.5 32.5t-30.5 76.5q0 50 38 88.5t91 38.5q47 0 79 -31t32 -76q0 -55 -39 -92t-94 -37zM870 1120
q-46 0 -76 32.5t-30 76.5q0 50 38 88.5t91 38.5q47 0 79 -31t32 -76q0 -55 -39.5 -92t-94.5 -37z" />
    <glyph glyph-name="Jcircumflex" unicode="&#x134;" horiz-adv-x="923" 
d="M393 -23q-127 0 -216 57.5t-130 166.5l164 104q58 -149 197 -149q85 0 147 64.5t82 174.5l141 799h-385l33 178h575l-176 -993q-32 -183 -150 -292.5t-282 -109.5zM463 1614l325 192l256 -192l-81 -103l-189 138l-260 -152z" />
    <glyph glyph-name="jcircumflex" unicode="&#x135;" horiz-adv-x="440" 
d="M-27 -512q-128 0 -206 96l110 133q42 -63 96 -63q87 0 123 137l203 1151h176l-207 -1175q-24 -125 -103 -202t-192 -77zM129 1184l326 192l256 -192l-82 -103l-189 138l-260 -152z" />
    <glyph glyph-name="Kcommaaccent" unicode="&#x136;" horiz-adv-x="1122" 
d="M416 1372h190l-110 -627l630 627h250l-684 -678l436 -694h-227l-420 666l-116 -666h-191zM375 -510l153 408l158 -43l-201 -398z" />
    <glyph glyph-name="kcommaaccent" unicode="&#x137;" horiz-adv-x="905" 
d="M389 1454h176l-168 -950l463 438h236l-500 -467l324 -475h-222l-309 457l-80 -457h-176zM250 -510l153 408l158 -43l-201 -398z" />
    <glyph glyph-name="Lacute" unicode="&#x139;" horiz-adv-x="915" 
d="M416 1372h190l-211 -1194h531l-31 -178h-721zM461 1540l278 322l121 -109l-301 -297z" />
    <glyph glyph-name="lacute" unicode="&#x13a;" horiz-adv-x="444" 
d="M389 1454h176l-256 -1454h-176zM420 1581l278 322l121 -109l-301 -297z" />
    <glyph glyph-name="Lcommaaccent" unicode="&#x13b;" horiz-adv-x="915" 
d="M416 1372h190l-211 -1194h531l-31 -178h-721zM301 -510l154 408l157 -43l-200 -398z" />
    <glyph glyph-name="lcommaaccent" unicode="&#x13c;" horiz-adv-x="442" 
d="M389 1454h176l-256 -1454h-176zM-37 -510l154 408l157 -43l-200 -398z" />
    <glyph glyph-name="Lcaron" unicode="&#x13d;" horiz-adv-x="915" 
d="M416 1372h190l-211 -1194h531l-31 -178h-721zM645 1018l141 379l158 -41l-184 -367z" />
    <glyph glyph-name="lcaron" unicode="&#x13e;" horiz-adv-x="632" 
d="M389 1454h176l-256 -1454h-176zM610 1100l142 379l157 -41l-184 -367z" />
    <glyph glyph-name="Ldot" unicode="&#x13f;" horiz-adv-x="976" 
d="M879 610q-50 0 -82.5 32.5t-32.5 80.5q0 52 39.5 92.5t93.5 40.5q51 0 84 -31.5t33 -79.5q0 -56 -40 -95.5t-95 -39.5zM416 1372h190l-211 -1194h531l-31 -178h-721z" />
    <glyph glyph-name="ldot" unicode="&#x140;" horiz-adv-x="686" 
d="M682 604q-50 0 -82.5 32.5t-32.5 80.5q0 52 39.5 92.5t93.5 40.5q51 0 84 -31.5t33 -79.5q0 -56 -40 -95.5t-95 -39.5zM389 1454h176l-256 -1454h-176z" />
    <glyph glyph-name="Lslash" unicode="&#x141;" horiz-adv-x="923" 
d="M276 526l-157 -82l33 187l157 84l117 657h190l-98 -549l279 146l-33 -189l-279 -143l-79 -459h528l-31 -178h-719z" />
    <glyph glyph-name="lslash" unicode="&#x142;" horiz-adv-x="493" 
d="M264 629l-158 -82l33 182l158 82l113 643h176l-94 -541l157 82l-33 -182l-159 -82l-127 -731h-176z" />
    <glyph glyph-name="Nacute" unicode="&#x143;" horiz-adv-x="1482" 
d="M541 999l-176 -999h-191l248 1409h70l690 -1042l178 1005h190l-250 -1409h-69zM907 1540l279 322l121 -109l-301 -297z" />
    <glyph glyph-name="nacute" unicode="&#x144;" 
d="M299 942h172l-18 -96q122 119 276 119q144 0 234 -95.5t90 -238.5q0 -5 -4 -33q-2 -6 -2 -18l-101 -580h-176l96 547l1 7q1 7 2 18.5t1 21.5q0 95 -56.5 153t-154.5 58t-166 -62.5t-87 -171.5l-97 -571h-176zM651 1110l279 322l121 -109l-301 -297z" />
    <glyph glyph-name="Ncommaaccent" unicode="&#x145;" horiz-adv-x="1482" 
d="M541 999l-176 -999h-191l248 1409h70l690 -1042l178 1005h190l-250 -1409h-69zM516 -510l154 408l157 -43l-200 -398z" />
    <glyph glyph-name="ncommaaccent" unicode="&#x146;" 
d="M299 942h172l-18 -96q122 119 276 119q144 0 234 -95.5t90 -238.5q0 -5 -4 -33q-2 -6 -2 -18l-101 -580h-176l96 547l1 7q1 7 2 18.5t1 21.5q0 95 -56.5 153t-154.5 58t-166 -62.5t-87 -171.5l-97 -571h-176zM289 -510l153 408l158 -43l-201 -398z" />
    <glyph glyph-name="Ncaron" unicode="&#x147;" horiz-adv-x="1482" 
d="M541 999l-176 -999h-191l248 1409h70l690 -1042l178 1005h190l-250 -1409h-69zM723 1671l82 105l188 -142l262 154l50 -117l-324 -192z" />
    <glyph glyph-name="ncaron" unicode="&#x148;" 
d="M299 942h172l-18 -96q122 119 276 119q144 0 234 -95.5t90 -238.5q0 -5 -4 -33q-2 -6 -2 -18l-101 -580h-176l96 547l1 7q1 7 2 18.5t1 21.5q0 95 -56.5 153t-154.5 58t-166 -62.5t-87 -171.5l-97 -571h-176zM475 1241l82 105l188 -142l263 154l49 -117l-324 -192z" />
    <glyph glyph-name="napostrophe" unicode="&#x149;" horiz-adv-x="1128" 
d="M358 942h172l-18 -96q122 119 276 119q144 0 234 -95.5t90 -238.5q0 -5 -4 -33q-2 -6 -2 -18l-100 -580h-177l97 547l1 7q1 7 2 18.5t1 21.5q0 95 -56.5 153t-154.5 58q-99 0 -167 -63t-87 -171l-96 -571h-176zM203 1069l141 379l158 -41l-185 -367z" />
    <glyph glyph-name="Eng" unicode="&#x14a;" horiz-adv-x="1482" 
d="M858 -512q-261 0 -346 223l164 107q56 -152 201 -152q89 0 149 64.5t84 177.5l16 92l-589 979l-172 -979h-191l248 1409h70l677 -1124l191 1087h190l-262 -1483q-34 -185 -150.5 -293t-279.5 -108z" />
    <glyph glyph-name="eng" unicode="&#x14b;" 
d="M610 -512q-131 0 -207 98l111 135q42 -67 100 -67q43 0 74 36t43 95l135 762q4 20 4 45q0 95 -57.5 154t-155.5 59q-97 0 -164.5 -65t-86.5 -175l-97 -565h-176l166 942h172l-18 -96q122 119 274 119q144 0 234 -97t90 -239q0 -16 -2 -33l-2 -16l-144 -813
q-24 -126 -101.5 -202.5t-191.5 -76.5z" />
    <glyph glyph-name="Omacron" unicode="&#x14c;" horiz-adv-x="1572" 
d="M846 -23q-139 0 -260 50.5t-205.5 136t-133 203.5t-48.5 249q0 116 38 231t108.5 212.5t164 173.5t212.5 119t245 43q137 0 256.5 -51t203 -137.5t131.5 -204t48 -248.5q0 -156 -63 -300.5t-167 -248.5t-243.5 -166t-286.5 -62zM856 164q107 0 206.5 44.5t174 120.5
t119.5 185t45 231q0 198 -127 330.5t-328 132.5q-108 0 -208 -45t-173.5 -122.5t-117.5 -187t-44 -232.5q0 -122 56.5 -226t161.5 -167.5t235 -63.5zM825 1737h455l-25 -144h-454z" />
    <glyph glyph-name="omacron" unicode="&#x14d;" horiz-adv-x="1140" 
d="M610 -23q-197 0 -325.5 129.5t-128.5 317.5q0 101 42 199t112.5 173.5t171 122t210.5 46.5q194 0 323.5 -132t129.5 -319q0 -143 -77 -268t-200 -197t-258 -72zM625 143q136 0 236 106t100 263q0 126 -78.5 206.5t-204.5 80.5q-139 0 -239.5 -107t-100.5 -264
q0 -119 81.5 -202t205.5 -83zM528 1307h455l-25 -144h-454z" />
    <glyph glyph-name="Obreve" unicode="&#x14e;" horiz-adv-x="1572" 
d="M846 -23q-139 0 -260 50.5t-205.5 136t-133 203.5t-48.5 249q0 116 38 231t108.5 212.5t164 173.5t212.5 119t245 43q137 0 256.5 -51t203 -137.5t131.5 -204t48 -248.5q0 -156 -63 -300.5t-167 -248.5t-243.5 -166t-286.5 -62zM856 164q107 0 206.5 44.5t174 120.5
t119.5 185t45 231q0 198 -127 330.5t-328 132.5q-108 0 -208 -45t-173.5 -122.5t-117.5 -187t-44 -232.5q0 -122 56.5 -226t161.5 -167.5t235 -63.5zM1012 1495q-119 0 -183.5 75t-54.5 199h139q-6 -62 25 -99.5t86 -37.5q56 0 93.5 37t43.5 100h139q-10 -126 -89 -200
t-199 -74z" />
    <glyph glyph-name="obreve" unicode="&#x14f;" horiz-adv-x="1140" 
d="M610 -23q-197 0 -325.5 129.5t-128.5 317.5q0 101 42 199t112.5 173.5t171 122t210.5 46.5q194 0 323.5 -132t129.5 -319q0 -143 -77 -268t-200 -197t-258 -72zM625 143q136 0 236 106t100 263q0 126 -78.5 206.5t-204.5 80.5q-139 0 -239.5 -107t-100.5 -264
q0 -119 81.5 -202t205.5 -83zM719 1065q-119 0 -183.5 75t-54.5 199h140q-6 -62 24.5 -99.5t85.5 -37.5q56 0 93.5 37t43.5 100h140q-10 -126 -89.5 -200t-199.5 -74z" />
    <glyph glyph-name="Ohungarumlaut" unicode="&#x150;" horiz-adv-x="1572" 
d="M846 -23q-139 0 -260 50.5t-205.5 136t-133 203.5t-48.5 249q0 116 38 231t108.5 212.5t164 173.5t212.5 119t245 43q137 0 256.5 -51t203 -137.5t131.5 -204t48 -248.5q0 -156 -63 -300.5t-167 -248.5t-243.5 -166t-286.5 -62zM856 164q107 0 206.5 44.5t174 120.5
t119.5 185t45 231q0 198 -127 330.5t-328 132.5q-108 0 -208 -45t-173.5 -122.5t-117.5 -187t-44 -232.5q0 -122 56.5 -226t161.5 -167.5t235 -63.5zM801 1528l235 315l123 -84l-260 -297zM1079 1528l236 315l123 -84l-260 -297z" />
    <glyph glyph-name="ohungarumlaut" unicode="&#x151;" horiz-adv-x="1140" 
d="M610 -23q-197 0 -325.5 129.5t-128.5 317.5q0 101 42 199t112.5 173.5t171 122t210.5 46.5q194 0 323.5 -132t129.5 -319q0 -143 -77 -268t-200 -197t-258 -72zM625 143q136 0 236 106t100 263q0 126 -78.5 206.5t-204.5 80.5q-139 0 -239.5 -107t-100.5 -264
q0 -119 81.5 -202t205.5 -83zM502 1098l235 315l123 -84l-260 -297zM780 1098l236 315l123 -84l-260 -297z" />
    <glyph glyph-name="OE" unicode="&#x152;" horiz-adv-x="1644" 
d="M811 0q-274 25 -442 197.5t-168 423.5q0 128 40 245t112.5 208t169 158.5t212.5 103.5t240 36h809l-33 -178h-541l-69 -397h407l-30 -179h-408l-78 -440h551l-31 -178h-741zM1020 1194h-59q-113 0 -215 -42t-177 -115.5t-119 -180t-44 -229.5q0 -185 118.5 -308.5
t317.5 -140.5z" />
    <glyph glyph-name="oe" unicode="&#x153;" horiz-adv-x="1886" 
d="M610 -23q-197 0 -325.5 129.5t-128.5 317.5q0 101 42 199t112.5 173.5t171 122t210.5 46.5q121 0 220.5 -54.5t160.5 -148.5q73 96 177 149.5t225 53.5q188 0 305.5 -115t117.5 -293q0 -39 -8.5 -82t-15.5 -55h-737q0 -124 81 -200.5t226 -76.5q157 0 274 111l94 -113
q-169 -164 -393 -164q-134 0 -237.5 53.5t-161.5 147.5q-76 -93 -185 -147t-225 -54zM625 143q136 0 236 106t100 263q0 126 -78.5 206.5t-204.5 80.5q-139 0 -239.5 -107t-100.5 -264q0 -119 81.5 -202t205.5 -83zM1718 565q-6 116 -74 179t-190 63q-100 0 -180 -66.5
t-111 -175.5h555z" />
    <glyph glyph-name="Racute" unicode="&#x154;" horiz-adv-x="1138" 
d="M416 1372h360q174 0 292 -113.5t118 -267.5q0 -157 -98.5 -275t-253.5 -155l264 -561h-211l-254 541h-174l-94 -541h-191zM653 719h45q129 0 212 70t83 186q0 94 -68.5 156.5t-183.5 62.5h-168l-84 -475h164zM743 1540l279 322l121 -109l-301 -297z" />
    <glyph glyph-name="racute" unicode="&#x155;" horiz-adv-x="645" 
d="M299 942h172l-20 -115q116 138 264 138q18 0 36.5 -2.5t34.5 -6.5t19 -4l-62 -188q-31 14 -94 14q-93 0 -157.5 -56t-81.5 -155l-101 -567h-176zM489 1110l279 322l121 -109l-301 -297z" />
    <glyph glyph-name="Rcommaaccent" unicode="&#x156;" horiz-adv-x="1138" 
d="M416 1372h360q174 0 292 -113.5t118 -267.5q0 -157 -98.5 -275t-253.5 -155l264 -561h-211l-254 541h-174l-94 -541h-191zM653 719h45q129 0 212 70t83 186q0 94 -68.5 156.5t-183.5 62.5h-168l-84 -475h164zM379 -510l153 408l158 -43l-201 -398z" />
    <glyph glyph-name="rcommaaccent" unicode="&#x157;" horiz-adv-x="647" 
d="M299 942h172l-20 -115q116 138 264 138q18 0 36.5 -2.5t34.5 -6.5t19 -4l-62 -188q-31 14 -94 14q-93 0 -157.5 -56t-81.5 -155l-101 -567h-176zM-37 -510l154 408l157 -43l-200 -398z" />
    <glyph glyph-name="Rcaron" unicode="&#x158;" horiz-adv-x="1138" 
d="M416 1372h360q174 0 292 -113.5t118 -267.5q0 -157 -98.5 -275t-253.5 -155l264 -561h-211l-254 541h-174l-94 -541h-191zM653 719h45q129 0 212 70t83 186q0 94 -68.5 156.5t-183.5 62.5h-168l-84 -475h164zM561 1671l82 105l188 -142l263 154l49 -117l-324 -192z" />
    <glyph glyph-name="rcaron" unicode="&#x159;" horiz-adv-x="645" 
d="M299 942h172l-20 -115q116 138 264 138q18 0 36.5 -2.5t34.5 -6.5t19 -4l-62 -188q-31 14 -94 14q-93 0 -157.5 -56t-81.5 -155l-101 -567h-176zM315 1241l82 105l189 -142l262 154l49 -117l-324 -192z" />
    <glyph glyph-name="Sacute" unicode="&#x15a;" horiz-adv-x="1030" 
d="M555 -25q-160 0 -283 82.5t-180 225.5l164 104q102 -233 319 -233q102 0 173 60t71 157q0 70 -49.5 127t-165.5 116q-153 79 -224 168t-71 199q0 177 123.5 295.5t298.5 118.5q133 0 238 -66.5t172 -187.5l-158 -107q-100 183 -270 183q-92 0 -150.5 -56t-58.5 -149
q0 -66 48.5 -119.5t158.5 -110.5q303 -160 303 -376q0 -187 -134 -309t-325 -122zM707 1540l278 322l121 -109l-301 -297z" />
    <glyph glyph-name="sacute" unicode="&#x15b;" horiz-adv-x="905" 
d="M508 -23q-141 0 -254 61t-174 171l137 108q105 -180 303 -180q79 0 129.5 32t50.5 87q0 41 -41 71.5t-135 63.5q-155 54 -226 120.5t-71 158.5q0 132 96.5 213.5t247.5 81.5q262 0 392 -199l-132 -107q-105 146 -280 146q-67 0 -105 -29.5t-38 -79.5q0 -41 39.5 -71.5
t132.5 -61.5q158 -54 229.5 -121t71.5 -159q0 -137 -106.5 -221.5t-266.5 -84.5zM571 1110l279 322l121 -109l-301 -297z" />
    <glyph glyph-name="Scircumflex" unicode="&#x15c;" horiz-adv-x="1030" 
d="M555 -25q-160 0 -283 82.5t-180 225.5l164 104q102 -233 319 -233q102 0 173 60t71 157q0 70 -49.5 127t-165.5 116q-153 79 -224 168t-71 199q0 177 123.5 295.5t298.5 118.5q133 0 238 -66.5t172 -187.5l-158 -107q-100 183 -270 183q-92 0 -150.5 -56t-58.5 -149
q0 -66 48.5 -119.5t158.5 -110.5q303 -160 303 -376q0 -187 -134 -309t-325 -122zM508 1614l326 192l256 -192l-82 -103l-189 138l-260 -152z" />
    <glyph glyph-name="scircumflex" unicode="&#x15d;" horiz-adv-x="905" 
d="M508 -23q-141 0 -254 61t-174 171l137 108q105 -180 303 -180q79 0 129.5 32t50.5 87q0 41 -41 71.5t-135 63.5q-155 54 -226 120.5t-71 158.5q0 132 96.5 213.5t247.5 81.5q262 0 392 -199l-132 -107q-105 146 -280 146q-67 0 -105 -29.5t-38 -79.5q0 -41 39.5 -71.5
t132.5 -61.5q158 -54 229.5 -121t71.5 -159q0 -137 -106.5 -221.5t-266.5 -84.5zM383 1184l326 192l256 -192l-82 -103l-189 138l-260 -152z" />
    <glyph glyph-name="Scedilla" unicode="&#x15e;" horiz-adv-x="1030" 
d="M428 -522q-51 0 -97.5 18.5t-67 34.5t-25.5 25l63 106q4 -7 16.5 -19.5t41.5 -27t61 -14.5q47 0 78.5 26t31.5 64q0 33 -28 58.5t-70 25.5h-82l94 211q-123 25 -214 101.5t-138 195.5l164 104q102 -233 319 -233q102 0 173 60t71 157q0 70 -49.5 127t-165.5 116
q-153 79 -224 168t-71 199q0 177 123.5 295.5t298.5 118.5q133 0 238 -66.5t172 -187.5l-158 -107q-100 183 -270 183q-92 0 -150.5 -56t-58.5 -149q0 -66 48.5 -119.5t158.5 -110.5q303 -160 303 -376q0 -120 -60 -218.5t-161.5 -154t-221.5 -58.5l-43 -96
q69 -21 107.5 -67t38.5 -111q0 -97 -71 -160t-175 -63z" />
    <glyph glyph-name="scedilla" unicode="&#x15f;" horiz-adv-x="905" 
d="M377 -522q-51 0 -97.5 18.5t-67.5 34.5t-26 25l64 106q0 -5 13.5 -18.5t43 -28t62.5 -14.5q47 0 78.5 26t31.5 64q0 33 -28 58.5t-70 25.5h-82l94 213q-105 20 -185.5 77t-127.5 144l137 108q105 -180 303 -180q79 0 129.5 32t50.5 87q0 41 -41 71.5t-135 63.5
q-155 54 -226 120.5t-71 158.5q0 132 96.5 213.5t247.5 81.5q262 0 392 -199l-132 -107q-105 146 -280 146q-67 0 -105 -29.5t-38 -79.5q0 -41 39.5 -71.5t132.5 -61.5q158 -54 229.5 -121t71.5 -159q0 -133 -102 -217t-257 -89l-45 -98q69 -21 107.5 -67t38.5 -111
q0 -97 -71 -160t-175 -63z" />
    <glyph glyph-name="Scaron" unicode="&#x160;" horiz-adv-x="1030" 
d="M555 -25q-160 0 -283 82.5t-180 225.5l164 104q102 -233 319 -233q102 0 173 60t71 157q0 70 -49.5 127t-165.5 116q-153 79 -224 168t-71 199q0 177 123.5 295.5t298.5 118.5q133 0 238 -66.5t172 -187.5l-158 -107q-100 183 -270 183q-92 0 -150.5 -56t-58.5 -149
q0 -66 48.5 -119.5t158.5 -110.5q303 -160 303 -376q0 -187 -134 -309t-325 -122zM528 1671l82 105l189 -142l262 154l49 -117l-324 -192z" />
    <glyph glyph-name="scaron" unicode="&#x161;" horiz-adv-x="905" 
d="M508 -23q-141 0 -254 61t-174 171l137 108q105 -180 303 -180q79 0 129.5 32t50.5 87q0 41 -41 71.5t-135 63.5q-155 54 -226 120.5t-71 158.5q0 132 96.5 213.5t247.5 81.5q262 0 392 -199l-132 -107q-105 146 -280 146q-67 0 -105 -29.5t-38 -79.5q0 -41 39.5 -71.5
t132.5 -61.5q158 -54 229.5 -121t71.5 -159q0 -137 -106.5 -221.5t-266.5 -84.5zM393 1241l82 105l189 -142l262 154l49 -117l-324 -192z" />
    <glyph glyph-name="uni0162" unicode="&#x162;" horiz-adv-x="1146" 
d="M473 -522q-51 0 -97.5 18.5t-67 34.5t-25.5 25l63 106q0 -5 13.5 -18.5t43 -28t62.5 -14.5q47 0 78.5 26t31.5 64q0 33 -28 58.5t-70 25.5h-82l101 225h-27l209 1194h-438l32 178h1065l-32 -178h-437l-209 -1194h-30l-56 -121q69 -21 107.5 -67t38.5 -111q0 -97 -71 -160
t-175 -63z" />
    <glyph glyph-name="uni0163" unicode="&#x163;" horiz-adv-x="749" 
d="M358 -522q-51 0 -97.5 18.5t-67 34.5t-25.5 25l63 106q0 -5 13.5 -18.5t43 -28t62.5 -14.5q47 0 79 26t32 64q0 33 -28.5 58.5t-70.5 25.5h-81l100 227q-65 29 -99 88t-34 139q0 27 4 45l90 508h-143l28 160h144l43 254h176l-43 -254h268l-29 -160h-268l-90 -489
q-4 -28 -4 -43q0 -113 123 -113q68 0 131 47l61 -121q-100 -86 -229 -86h-6l-45 -98q68 -21 106.5 -67t38.5 -111q0 -97 -71 -160t-175 -63z" />
    <glyph glyph-name="Tcaron" unicode="&#x164;" horiz-adv-x="1146" 
d="M678 1194h-438l32 178h1065l-32 -178h-437l-209 -1194h-190zM559 1671l82 105l188 -142l263 154l49 -117l-324 -192z" />
    <glyph glyph-name="tcaron" unicode="&#x165;" horiz-adv-x="749" 
d="M510 -23q-126 0 -194 68.5t-68 183.5q0 27 4 45l90 508h-143l28 160h144l43 254h176l-43 -254h268l-29 -160h-268l-90 -489q-4 -28 -4 -43q0 -113 123 -113q68 0 131 47l61 -121q-100 -86 -229 -86zM680 1100l141 379l158 -41l-184 -367z" />
    <glyph glyph-name="Tbar" unicode="&#x166;" horiz-adv-x="1146" 
d="M571 590h-245l28 160h246l78 444h-438l32 178h1065l-32 -178h-437l-77 -444h245l-28 -160h-246l-103 -590h-190z" />
    <glyph glyph-name="tbar" unicode="&#x167;" horiz-adv-x="749" 
d="M510 -23q-126 0 -194 68.5t-68 183.5q0 27 4 45l29 166h-103l29 160h102l33 182h-143l28 160h144l43 254h176l-43 -254h268l-29 -160h-268l-35 -182h226l-29 -160h-225l-27 -147q-4 -28 -4 -43q0 -113 123 -113q68 0 131 47l61 -121q-100 -86 -229 -86z" />
    <glyph glyph-name="Umacron" unicode="&#x16a;" horiz-adv-x="1366" 
d="M729 -23q-225 0 -350 134.5t-125 355.5q0 12 0.5 25.5t1.5 24.5t2 20t2 15v5l146 815h190l-143 -805q-7 -21 -7 -80q0 -154 75 -242.5t208 -88.5q141 0 242.5 101.5t132.5 277.5l149 837h191l-154 -862q-41 -241 -196 -387t-365 -146zM748 1737h454l-24 -144h-455z" />
    <glyph glyph-name="umacron" unicode="&#x16b;" 
d="M510 -23q-150 0 -239 95t-89 243q0 14 2 30t2 17l103 580h176l-96 -547l-1 -8q-1 -8 -2 -18.5t-1 -18.5q0 -100 53.5 -156.5t154.5 -56.5q98 0 166.5 63.5t85.5 172.5l101 569h176l-166 -942h-172l16 100q-120 -123 -270 -123zM514 1307h455l-25 -144h-455z" />
    <glyph glyph-name="Ubreve" unicode="&#x16c;" horiz-adv-x="1366" 
d="M729 -23q-225 0 -350 134.5t-125 355.5q0 12 0.5 25.5t1.5 24.5t2 20t2 15v5l146 815h190l-143 -805q-7 -21 -7 -80q0 -154 75 -242.5t208 -88.5q141 0 242.5 101.5t132.5 277.5l149 837h191l-154 -862q-41 -241 -196 -387t-365 -146zM942 1495q-118 0 -183 74.5
t-54 199.5h139q-6 -62 24.5 -99.5t85.5 -37.5q56 0 94 37.5t44 99.5h139q-10 -126 -89.5 -200t-199.5 -74z" />
    <glyph glyph-name="ubreve" unicode="&#x16d;" 
d="M510 -23q-150 0 -239 95t-89 243q0 14 2 30t2 17l103 580h176l-96 -547l-1 -8q-1 -8 -2 -18.5t-1 -18.5q0 -100 53.5 -156.5t154.5 -56.5q98 0 166.5 63.5t85.5 172.5l101 569h176l-166 -942h-172l16 100q-120 -123 -270 -123zM709 1065q-119 0 -183.5 75t-54.5 199h139
q-6 -62 25 -99.5t86 -37.5q56 0 93.5 37t43.5 100h139q-10 -126 -89 -200t-199 -74z" />
    <glyph glyph-name="Uring" unicode="&#x16e;" horiz-adv-x="1366" 
d="M729 -23q-225 0 -350 134.5t-125 355.5q0 12 0.5 25.5t1.5 24.5t2 20t2 15v5l146 815h190l-143 -805q-7 -21 -7 -80q0 -154 75 -242.5t208 -88.5q141 0 242.5 101.5t132.5 277.5l149 837h191l-154 -862q-41 -241 -196 -387t-365 -146zM942 1444q-89 0 -146 54.5
t-57 133.5q0 95 69.5 160.5t162.5 65.5q89 0 147 -55.5t58 -135.5q0 -91 -70.5 -157t-163.5 -66zM952 1556q42 0 71.5 28.5t29.5 74.5q0 36 -24 61t-64 25q-43 0 -74 -29.5t-31 -75.5q0 -34 26 -59t66 -25z" />
    <glyph glyph-name="uring" unicode="&#x16f;" 
d="M510 -23q-150 0 -239 95t-89 243q0 14 2 30t2 17l103 580h176l-96 -547l-1 -8q-1 -8 -2 -18.5t-1 -18.5q0 -100 53.5 -156.5t154.5 -56.5q98 0 166.5 63.5t85.5 172.5l101 569h176l-166 -942h-172l16 100q-120 -123 -270 -123zM717 1014q-89 0 -146 54.5t-57 133.5
q0 95 69 160t162 65q89 0 147 -55.5t58 -134.5q0 -91 -70 -157t-163 -66zM727 1126q42 0 71 28.5t29 74.5q0 36 -24 61t-64 25q-43 0 -73.5 -29.5t-30.5 -75.5q0 -34 26 -59t66 -25z" />
    <glyph glyph-name="Uhungarumlaut" unicode="&#x170;" horiz-adv-x="1366" 
d="M729 -23q-225 0 -350 134.5t-125 355.5q0 12 0.5 25.5t1.5 24.5t2 20t2 15v5l146 815h190l-143 -805q-7 -21 -7 -80q0 -154 75 -242.5t208 -88.5q141 0 242.5 101.5t132.5 277.5l149 837h191l-154 -862q-41 -241 -196 -387t-365 -146zM719 1528l235 315l123 -84
l-260 -297zM997 1528l236 315l123 -84l-260 -297z" />
    <glyph glyph-name="uhungarumlaut" unicode="&#x171;" 
d="M510 -23q-150 0 -239 95t-89 243q0 14 2 30t2 17l103 580h176l-96 -547l-1 -8q-1 -8 -2 -18.5t-1 -18.5q0 -100 53.5 -156.5t154.5 -56.5q98 0 166.5 63.5t85.5 172.5l101 569h176l-166 -942h-172l16 100q-120 -123 -270 -123zM494 1098l235 315l123 -84l-260 -297z
M772 1098l236 315l122 -84l-260 -297z" />
    <glyph glyph-name="Uogonek" unicode="&#x172;" horiz-adv-x="1366" 
d="M721 -522q-121 0 -189.5 55.5t-68.5 149.5q0 178 229 297q-210 12 -324 143t-114 344q0 12 0.5 25.5t1.5 24.5t2 20t2 15v5l146 815h190l-143 -805q-7 -21 -7 -80q0 -154 75 -242.5t208 -88.5q141 0 242.5 101.5t132.5 277.5l149 837h191l-154 -862
q-35 -191 -129.5 -313.5t-226.5 -180.5q-157 -75 -232 -154t-75 -147q0 -43 35.5 -70.5t99.5 -27.5q28 0 69 6l-24 -137q-36 -8 -86 -8z" />
    <glyph glyph-name="uogonek" unicode="&#x173;" 
d="M752 -522q-121 0 -189.5 55.5t-68.5 149.5q0 95 71 172.5t215 144.5h-16l16 100q-120 -123 -270 -123t-239 95t-89 243q0 14 2 30t2 17l103 580h176l-96 -547l-1 -8q-1 -8 -2 -18.5t-1 -18.5q0 -100 53.5 -156.5t154.5 -56.5q98 0 166.5 63.5t85.5 172.5l101 569h176
l-166 -942q-159 -86 -219 -151.5t-60 -133.5q0 -43 36 -70.5t100 -27.5q29 0 69 6l-24 -137q-36 -8 -86 -8z" />
    <glyph glyph-name="Wcircumflex" unicode="&#x174;" horiz-adv-x="1931" 
d="M262 1372h193l149 -971l539 971h78l196 -971l504 971h201l-731 -1409h-70l-201 1012l-559 -1012h-69zM915 1614l326 192l256 -192l-82 -103l-188 138l-260 -152z" />
    <glyph glyph-name="wcircumflex" unicode="&#x175;" horiz-adv-x="1404" 
d="M186 942h164l101 -606l360 627h82l141 -627l318 606h178l-510 -979h-70l-145 676l-387 -676h-70zM580 1184l325 192l256 -192l-82 -103l-188 138l-260 -152z" />
    <glyph glyph-name="Ycircumflex" unicode="&#x176;" horiz-adv-x="1052" 
d="M500 520l-269 852h187l200 -639l435 639h221l-584 -852l-90 -520h-190zM483 1614l326 192l256 -192l-82 -103l-188 138l-260 -152z" />
    <glyph glyph-name="ycircumflex" unicode="&#x177;" horiz-adv-x="940" 
d="M84 -512l274 498l-172 956h181l125 -717l393 717h190l-801 -1454h-194h4zM367 1184l325 192l256 -192l-82 -103l-188 138l-260 -152z" />
    <glyph glyph-name="Ydieresis" unicode="&#x178;" horiz-adv-x="1052" 
d="M500 520l-269 852h187l200 -639l435 639h221l-584 -852l-90 -520h-190zM565 1550q-50 0 -80 30.5t-30 78.5q0 50 39 88.5t92 38.5q46 0 77 -32.5t31 -76.5q0 -54 -37.5 -90.5t-91.5 -36.5zM950 1550q-46 0 -76 31.5t-30 75.5q0 49 38 89t89 40q47 0 78.5 -32t31.5 -77
q0 -54 -39.5 -90.5t-91.5 -36.5z" />
    <glyph glyph-name="Zacute" unicode="&#x179;" horiz-adv-x="1185" 
d="M74 70l950 1124h-715l33 178h1024l-12 -69l-948 -1125h745l-31 -178h-1057zM772 1540l279 322l120 -109l-301 -297z" />
    <glyph glyph-name="zacute" unicode="&#x17a;" horiz-adv-x="940" 
d="M82 70l645 712h-481l28 160h764l-12 -70l-643 -712h504l-27 -160h-788zM567 1110l279 322l121 -109l-301 -297z" />
    <glyph glyph-name="Zdotaccent" unicode="&#x17b;" horiz-adv-x="1185" 
d="M74 70l950 1124h-715l33 178h1024l-12 -69l-948 -1125h745l-31 -178h-1057zM862 1550q-50 0 -80 30.5t-30 78.5q0 50 39 88.5t92 38.5q46 0 77 -32.5t31 -76.5q0 -54 -37.5 -90.5t-91.5 -36.5z" />
    <glyph glyph-name="zdotaccent" unicode="&#x17c;" horiz-adv-x="940" 
d="M82 70l645 712h-481l28 160h764l-12 -70l-643 -712h504l-27 -160h-788zM666 1120q-50 0 -80.5 30.5t-30.5 78.5q0 50 39 88.5t92 38.5q46 0 77.5 -32.5t31.5 -76.5q0 -54 -37.5 -90.5t-91.5 -36.5z" />
    <glyph glyph-name="Zcaron" unicode="&#x17d;" horiz-adv-x="1185" 
d="M74 70l950 1124h-715l33 178h1024l-12 -69l-948 -1125h745l-31 -178h-1057zM598 1671l82 105l188 -142l262 154l50 -117l-324 -192z" />
    <glyph glyph-name="zcaron" unicode="&#x17e;" horiz-adv-x="940" 
d="M82 70l645 712h-481l28 160h764l-12 -70l-643 -712h504l-27 -160h-788zM391 1241l82 105l189 -142l262 154l49 -117l-324 -192z" />
    <glyph glyph-name="uni018F" unicode="&#x18f;" horiz-adv-x="1499" 
d="M786 -23q-174 0 -310 81.5t-208.5 219t-72.5 306.5q0 90 22 170h1114q0 198 -122.5 326t-317.5 128q-193 0 -373 -149l-117 133q111 95 244.5 149t267.5 54q181 0 324 -85t221 -229.5t78 -320.5q0 -159 -62.5 -305t-165 -250t-240 -166t-282.5 -62zM807 164
q164 0 297 105.5t190 277.5l11 41h-916q0 -184 117 -304t301 -120z" />
    <glyph glyph-name="florin" unicode="&#x192;" horiz-adv-x="776" 
d="M23 -512q-70 0 -125.5 26t-81.5 52l102 137q51 -51 109 -51q51 0 90.5 40.5t58.5 112.5l262 990h-164l27 147h176l60 223q37 135 122 212.5t199 76.5q106 0 203 -74q2 -1 3.5 -2t2.5 -2l-104 -137q-11 16 -41.5 33.5t-69.5 17.5q-51 0 -88.5 -36.5t-54.5 -102.5l-56 -209
h226l-27 -147h-240l-266 -1018q-35 -135 -121 -212t-202 -77z" />
    <glyph glyph-name="Aringacute" unicode="&#x1fa;" horiz-adv-x="1224" 
d="M791 1315q-54 23 -83.5 68t-29.5 102q0 94 69 156.5t162 62.5q90 0 147.5 -52.5t57.5 -131.5q0 -76 -51.5 -137t-126.5 -80l268 -1303h-194l-62 313h-508l-168 -313h-211zM915 492l-98 516l-278 -516h376zM885 1411q47 0 76.5 28t29.5 72q0 36 -23.5 58t-64.5 22
q-43 0 -73.5 -26.5t-30.5 -71.5q0 -32 24.5 -57t61.5 -25zM846 1841l364 213l60 -141l-377 -180z" />
    <glyph glyph-name="aringacute" unicode="&#x1fb;" horiz-adv-x="1001" 
d="M432 -23q-142 0 -230.5 80t-88.5 199q0 139 111 232.5t270 93.5q172 0 294 -90l13 77q0 1 0.5 4t1 9t0.5 12q0 93 -60.5 152t-162.5 59q-111 0 -211 -100l-99 124q151 136 332 136q171 0 275 -100t104 -253q0 -8 -1 -19.5t-1 -14.5q-2 -6 -2 -15l-98 -563h-177l19 106
q-132 -129 -289 -129zM489 127q98 0 172 58t99 155q-113 102 -266 102q-91 0 -146 -47.5t-55 -126.5q0 -64 52.5 -102.5t143.5 -38.5zM696 1016q-89 0 -145.5 53.5t-56.5 132.5q0 95 69 158t162 63q90 0 147.5 -53.5t57.5 -132.5q0 -91 -70 -156t-164 -65zM707 1128
q43 0 71.5 27.5t28.5 73.5q0 36 -24 59t-64 23q-43 0 -74 -27.5t-31 -73.5q0 -33 26.5 -57.5t66.5 -24.5zM666 1559l364 213l60 -140l-377 -180z" />
    <glyph glyph-name="AEacute" unicode="&#x1fc;" horiz-adv-x="1595" 
d="M883 1372h835l-32 -178h-605l-14 -397h432l-31 -179h-407l-17 -440h480l-31 -178h-627l11 313h-478l-194 -313h-225zM883 492l22 620l-393 -620h371zM987 1540l279 322l120 -109l-301 -297z" />
    <glyph glyph-name="aeacute" unicode="&#x1fd;" horiz-adv-x="1714" 
d="M463 -23q-154 0 -251 81t-97 202q0 139 113 230.5t276 91.5q177 0 297 -88l10 67l2 38v1q0 93 -61.5 149t-165.5 56q-124 0 -215 -94l-99 125q144 129 334 129q111 0 195.5 -42t134.5 -118q166 166 360 166q187 0 307.5 -116.5t120.5 -295.5q0 -65 -18 -133h-743
q0 -126 79 -201t218 -75q153 0 272 110l94 -113q-172 -163 -397 -163q-126 0 -223 50.5t-152 139.5l-20 -22q-72 -81 -168 -128t-203 -47zM496 133q100 0 171.5 56t94.5 153q-62 53 -123 76.5t-143 23.5q-92 0 -146.5 -46.5t-54.5 -125.5q0 -63 54 -100t147 -37zM1546 571
q-7 112 -79.5 177t-188.5 65q-104 0 -183 -66t-108 -176h559zM909 1110l279 322l121 -109l-301 -297z" />
    <glyph glyph-name="Oslashacute" unicode="&#x1fe;" horiz-adv-x="1570" 
d="M203 14l153 174q-157 181 -157 428q0 116 38 231t108.5 212.5t164 173.5t212.5 119t245 43q198 0 354 -105l147 168l136 -102l-154 -176q156 -183 156 -426q0 -156 -63 -300.5t-167 -248.5t-243.5 -166t-286.5 -62q-201 0 -363 103l-145 -168zM1190 1141q-106 67 -244 67
q-108 0 -208 -45t-173.5 -122.5t-117.5 -187t-44 -232.5q0 -156 89 -277zM856 164q107 0 206.5 44.5t174 120.5t119.5 185t45 231q0 160 -86 281l-699 -797q108 -65 240 -65zM936 1540l278 322l121 -109l-301 -297z" />
    <glyph glyph-name="oslashacute" unicode="&#x1ff;" horiz-adv-x="1140" 
d="M160 14l102 117q-106 125 -106 293q0 101 42 199t112.5 173.5t171 122t210.5 46.5q133 0 242 -68l102 119l113 -88l-109 -123q105 -127 105 -291q0 -143 -77 -268t-200 -197t-258 -72q-131 0 -239 62l-99 -111zM817 766q-59 33 -139 33q-139 0 -239.5 -107t-100.5 -264
q0 -90 45 -158zM625 143q136 0 236 106t100 263q0 85 -41 156l-433 -494q64 -31 138 -31zM651 1110l279 322l121 -109l-301 -297z" />
    <glyph glyph-name="Scommaaccent" unicode="&#x218;" horiz-adv-x="1030" 
d="M555 -25q-160 0 -283 82.5t-180 225.5l164 104q102 -233 319 -233q102 0 173 60t71 157q0 70 -49.5 127t-165.5 116q-153 79 -224 168t-71 199q0 177 123.5 295.5t298.5 118.5q133 0 238 -66.5t172 -187.5l-158 -107q-100 183 -270 183q-92 0 -150.5 -56t-58.5 -149
q0 -66 48.5 -119.5t158.5 -110.5q303 -160 303 -376q0 -187 -134 -309t-325 -122zM303 -510l154 408l157 -43l-200 -398z" />
    <glyph glyph-name="scommaaccent" unicode="&#x219;" horiz-adv-x="905" 
d="M508 -23q-141 0 -254 61t-174 171l137 108q105 -180 303 -180q79 0 129.5 32t50.5 87q0 41 -41 71.5t-135 63.5q-155 54 -226 120.5t-71 158.5q0 132 96.5 213.5t247.5 81.5q262 0 392 -199l-132 -107q-105 146 -280 146q-67 0 -105 -29.5t-38 -79.5q0 -41 39.5 -71.5
t132.5 -61.5q158 -54 229.5 -121t71.5 -159q0 -137 -106.5 -221.5t-266.5 -84.5zM244 -510l153 408l158 -43l-201 -398z" />
    <glyph glyph-name="uni021A" unicode="&#x21a;" horiz-adv-x="1146" 
d="M678 1194h-438l32 178h1065l-32 -178h-437l-209 -1194h-190zM303 -510l154 408l157 -43l-200 -398z" />
    <glyph glyph-name="uni021B" unicode="&#x21b;" horiz-adv-x="749" 
d="M510 -23q-126 0 -194 68.5t-68 183.5q0 27 4 45l90 508h-143l28 160h144l43 254h176l-43 -254h268l-29 -160h-268l-90 -489q-4 -28 -4 -43q0 -113 123 -113q68 0 131 47l61 -121q-100 -86 -229 -86zM197 -510l153 408l158 -43l-201 -398z" />
    <glyph glyph-name="uni0232" unicode="&#x232;" horiz-adv-x="1052" 
d="M500 520l-269 852h187l200 -639l435 639h221l-584 -852l-90 -520h-190zM543 1737h454l-24 -144h-455z" />
    <glyph glyph-name="uni0233" unicode="&#x233;" horiz-adv-x="940" 
d="M84 -512l274 498l-172 956h181l125 -717l393 717h190l-801 -1454h-194h4zM449 1307h454l-24 -144h-455z" />
    <glyph glyph-name="uni0244" unicode="&#x244;" horiz-adv-x="1386" 
d="M739 -23q-225 0 -350 134.5t-125 355.5q0 12 0.5 25.5t1.5 24.5t2 20t2 15v5l29 168h-141l28 160h142l88 487h190l-88 -487h658l88 487h190l-88 -487h145l-28 -160h-146l-37 -215q-41 -241 -196 -387t-365 -146zM739 156q141 0 242.5 101.5t132.5 277.5l33 190h-658
l-26 -158q-6 -18 -6 -80q0 -154 74.5 -242.5t207.5 -88.5z" />
    <glyph glyph-name="uni0259" unicode="&#x259;" horiz-adv-x="1089" 
d="M573 -23q-186 0 -302.5 116t-116.5 296q0 83 18 133h739q0 130 -77.5 203.5t-217.5 73.5q-151 0 -270 -113l-92 119q168 160 389 160q209 0 331 -122t122 -311q0 -156 -71.5 -284t-191.5 -199.5t-260 -71.5zM590 131q103 0 188 69t113 177h-559q6 -116 73 -181t185 -65z
" />
    <glyph glyph-name="uni0289" unicode="&#x289;" horiz-adv-x="1097" 
d="M528 -23q-149 0 -237 95t-88 243q0 14 2 30t2 17l24 144h-100l27 147h100l51 289h176l-51 -289h459l51 289h176l-51 -289h102l-26 -147h-103l-88 -506h-172l17 100q-120 -123 -271 -123zM592 137q98 0 166.5 63.5t85.5 172.5l22 133h-458l-19 -111l-1 -8q-1 -8 -2 -18.5
t-1 -18.5q0 -100 53 -156.5t154 -56.5z" />
    <glyph glyph-name="uni02BC" unicode="&#x2bc;" horiz-adv-x="280" 
d="M199 1018l141 379l158 -41l-185 -367z" />
    <glyph glyph-name="circumflex" unicode="&#x2c6;" horiz-adv-x="622" 
d="M227 1184l326 192l256 -192l-82 -103l-188 138l-260 -152z" />
    <glyph glyph-name="caron" unicode="&#x2c7;" horiz-adv-x="622" 
d="M238 1241l81 105l189 -142l262 154l49 -117l-323 -192z" />
    <glyph glyph-name="breve" unicode="&#x2d8;" horiz-adv-x="567" 
d="M473 1065q-118 0 -183 74.5t-54 199.5h139q-6 -62 24.5 -99.5t85.5 -37.5q56 0 94 37.5t44 99.5h139q-10 -126 -89.5 -200t-199.5 -74z" />
    <glyph glyph-name="dotaccent" unicode="&#x2d9;" horiz-adv-x="276" 
d="M344 1120q-50 0 -80.5 30.5t-30.5 78.5q0 50 39.5 88.5t92.5 38.5q46 0 77 -32.5t31 -76.5q0 -54 -37.5 -90.5t-91.5 -36.5z" />
    <glyph glyph-name="ring" unicode="&#x2da;" horiz-adv-x="473" 
d="M432 1014q-89 0 -146 54.5t-57 133.5q0 95 69.5 160t162.5 65q89 0 147 -55.5t58 -134.5q0 -91 -70.5 -157t-163.5 -66zM442 1126q42 0 71.5 28.5t29.5 74.5q0 36 -24 61t-64 25q-43 0 -74 -29.5t-31 -75.5q0 -34 26 -59t66 -25z" />
    <glyph glyph-name="ogonek" unicode="&#x2db;" horiz-adv-x="423" 
d="M223 -522q-121 0 -189.5 55.5t-68.5 149.5q0 190 275 317h168q-159 -86 -219 -151.5t-60 -133.5q0 -43 35.5 -70.5t99.5 -27.5q30 0 70 6l-25 -137q-36 -8 -86 -8z" />
    <glyph glyph-name="tilde" unicode="&#x2dc;" horiz-adv-x="616" 
d="M225 1202q36 70 91 109t120 39q38 0 101.5 -36t101.5 -36q49 0 96 72l101 -76q-36 -70 -88 -109t-111 -39q-49 0 -86.5 18t-67 36t-59.5 18q-51 0 -98 -72z" />
    <glyph glyph-name="hungarumlaut" unicode="&#x2dd;" horiz-adv-x="636" 
d="M213 1098l236 315l122 -84l-260 -297zM492 1098l235 315l123 -84l-260 -297z" />
    <glyph glyph-name="uni0301" unicode="&#x301;" horiz-adv-x="0" 
d="M-530 1540l278 322l113 -99l-301 -297z" />
    <glyph glyph-name="uni030A" unicode="&#x30a;" horiz-adv-x="0" 
d="M-444 1444q-87 0 -144 54.5t-57 133.5q0 91 69 158.5t164 67.5q88 0 145.5 -56t57.5 -135q0 -93 -70 -158t-165 -65zM-432 1556q42 0 71 28.5t29 74.5q0 36 -24 61t-64 25q-43 0 -73.5 -28.5t-30.5 -74.5q0 -34 25.5 -60t66.5 -26z" />
    <glyph glyph-name="uni0326" unicode="&#x326;" horiz-adv-x="290" 
d="M-68 -510l154 408l158 -43l-201 -398z" />
    <glyph glyph-name="uni0401" unicode="&#x401;" horiz-adv-x="1017" 
d="M416 1372h731l-33 -178h-541l-69 -397h409l-30 -179h-410l-78 -440h551l-31 -178h-741zM606 1550q-50 0 -80 30.5t-30 78.5q0 50 39 88.5t92 38.5q46 0 77 -32.5t31 -76.5q0 -54 -37.5 -90.5t-91.5 -36.5zM991 1550q-46 0 -76 31.5t-30 75.5q0 49 38 89t89 40
q47 0 78.5 -32t31.5 -77q0 -54 -39.5 -90.5t-91.5 -36.5z" />
    <glyph glyph-name="uni0402" unicode="&#x402;" horiz-adv-x="1374" 
d="M928 -23q-115 0 -199 58l90 160q48 -39 117 -39q94 0 158.5 84t64.5 215q0 109 -63.5 167t-180.5 58q-112 0 -223 -39l-112 -641h-191l209 1194h-379l33 178h1003l-32 -178h-435l-65 -377q121 41 225 41q188 0 296 -104.5t108 -282.5q0 -216 -124 -355t-300 -139z" />
    <glyph glyph-name="uni0403" unicode="&#x403;" horiz-adv-x="921" 
d="M416 1372h737l-33 -178h-547l-208 -1194h-191zM713 1540l278 322l121 -109l-301 -297z" />
    <glyph glyph-name="uni0404" unicode="&#x404;" horiz-adv-x="1384" 
d="M846 -23q-142 0 -263.5 48.5t-204.5 133t-130 200t-47 247.5q0 165 61 312.5t163 251t240 164.5t287 61q176 0 316 -78t227 -215l-160 -109q-142 215 -397 215q-185 0 -324.5 -119t-171.5 -309h641l-32 -178h-643q5 -193 129 -315.5t325 -122.5q210 0 369 149l117 -133
q-226 -203 -502 -203z" />
    <glyph glyph-name="uni0405" unicode="&#x405;" horiz-adv-x="1030" 
d="M555 -25q-160 0 -283 82.5t-180 225.5l164 104q102 -233 319 -233q102 0 173 60t71 157q0 70 -49.5 127t-165.5 116q-153 79 -224 168t-71 199q0 177 123.5 295.5t298.5 118.5q133 0 238 -66.5t172 -187.5l-158 -107q-100 183 -270 183q-92 0 -150.5 -56t-58.5 -149
q0 -66 48.5 -119.5t158.5 -110.5q303 -160 303 -376q0 -187 -134 -309t-325 -122z" />
    <glyph glyph-name="uni0406" unicode="&#x406;" horiz-adv-x="538" 
d="M416 1372h190l-241 -1372h-191z" />
    <glyph glyph-name="uni0407" unicode="&#x407;" horiz-adv-x="542" 
d="M416 1372h190l-241 -1372h-191zM369 1550q-49 0 -79 29.5t-30 77.5q0 51 36 90t89 39q49 0 81 -31t32 -76q0 -53 -39 -91t-90 -38zM727 1550q-49 0 -79 29.5t-30 77.5q0 51 36 90t89 39q49 0 81 -31t32 -76q0 -53 -39 -91t-90 -38z" />
    <glyph glyph-name="uni0408" unicode="&#x408;" horiz-adv-x="923" 
d="M393 -23q-127 0 -216 57.5t-130 166.5l164 104q58 -149 197 -149q85 0 147 64.5t82 174.5l141 799h-385l33 178h575l-176 -993q-32 -183 -150 -292.5t-282 -109.5z" />
    <glyph glyph-name="uni0409" unicode="&#x409;" horiz-adv-x="1882" 
d="M172 -12q-69 0 -135 20l35 189q51 -23 92 -23q73 0 125.5 66t70.5 168l170 964h885l-90 -504h164q179 0 296.5 -116t117.5 -279q0 -100 -41.5 -188.5t-110.5 -150.5t-162 -98t-194 -36h-56h-356l209 1194h-504l-139 -803q-77 -403 -377 -403zM1366 166h35q131 0 219 83.5
t88 211.5q0 95 -72 162t-178 67h-164l-92 -524h164z" />
    <glyph glyph-name="uni040A" unicode="&#x40a;" horiz-adv-x="1941" 
d="M416 1372h190l-96 -543h678l96 543h191l-97 -545h172q88 0 164.5 -31.5t129 -83.5t82.5 -121.5t30 -144.5q0 -125 -67 -228t-180 -160.5t-247 -57.5h-420l113 649h-678l-112 -649h-191zM1473 178q125 0 207.5 70.5t82.5 185.5q0 89 -71 152t-174 63h-172l-82 -471h209z
" />
    <glyph glyph-name="uni040B" unicode="&#x40b;" horiz-adv-x="1394" 
d="M598 1194h-379l33 178h1003l-32 -178h-435l-65 -377q121 41 221 41q189 0 297.5 -102.5t108.5 -276.5q0 -37 -4 -57l-74 -422h-191l74 420q0 6 2 12q0 3 1 13t1 18q0 104 -63.5 160.5t-184.5 56.5q-114 0 -219 -37l-112 -643h-191z" />
    <glyph glyph-name="uni040C" unicode="&#x40c;" horiz-adv-x="1122" 
d="M416 1372h190l-110 -627l630 627h250l-684 -678l436 -694h-227l-420 666l-116 -666h-191zM793 1540l278 322l121 -109l-301 -297z" />
    <glyph glyph-name="uni040E" unicode="&#x40e;" horiz-adv-x="1110" 
d="M500 373l-238 999h191l184 -774l469 774h215l-834 -1372h-213zM791 1491q-124 0 -193 77.5t-59 205.5h151q-6 -68 25.5 -109t87.5 -41q55 0 92 41t43 109h152q-10 -128 -92.5 -205.5t-206.5 -77.5z" />
    <glyph glyph-name="uni040F" unicode="&#x40f;" horiz-adv-x="1349" 
d="M580 0h-406l242 1372h190l-211 -1194h621l211 1194h190l-241 -1372h-406l-55 -311h-191z" />
    <glyph glyph-name="uni0410" unicode="&#x410;" horiz-adv-x="1224" 
d="M844 1409h71l289 -1409h-194l-62 313h-508l-168 -313h-211zM915 492l-98 516l-278 -516h376z" />
    <glyph glyph-name="uni0411" unicode="&#x411;" horiz-adv-x="1114" 
d="M416 1372h729l-33 -178h-539l-63 -363h164q175 0 295.5 -113t120.5 -267q0 -128 -66.5 -232t-181 -161.5t-252.5 -57.5h-58h-358zM559 178h45q125 0 209 71.5t84 186.5q0 90 -73 153.5t-181 63.5h-164l-84 -475h164z" />
    <glyph glyph-name="uni0412" unicode="&#x412;" horiz-adv-x="1130" 
d="M416 1372h340q165 0 274 -104t109 -244q0 -109 -60 -193t-166 -129q92 -47 141.5 -122.5t49.5 -167.5q0 -177 -148 -294.5t-358 -117.5h-49h-375zM580 178h45q122 0 204 65t82 171q0 86 -71.5 145t-180.5 59h-186l-78 -440h185zM696 797q110 0 179 57t69 154
q0 79 -61.5 132.5t-159.5 53.5h-150l-69 -397h192z" />
    <glyph glyph-name="uni0413" unicode="&#x413;" horiz-adv-x="921" 
d="M416 1372h737l-33 -178h-547l-208 -1194h-191z" />
    <glyph glyph-name="uni0414" unicode="&#x414;" horiz-adv-x="1361" 
d="M66 176h10q102 0 189.5 152.5t131.5 414.5l113 629h874l-210 -1194h167l-86 -489h-190l55 311h-889l-55 -311h-188zM983 178l178 1016h-493l-82 -467q-37 -207 -84.5 -335t-120.5 -214h602z" />
    <glyph glyph-name="uni0415" unicode="&#x415;" horiz-adv-x="1017" 
d="M416 1372h731l-33 -178h-541l-69 -397h409l-30 -179h-410l-78 -440h551l-31 -178h-741z" />
    <glyph glyph-name="uni0416" unicode="&#x416;" horiz-adv-x="1622" 
d="M655 731l-401 641h205l393 -629l111 629h190l-111 -629l613 629h243l-669 -680l416 -692h-218l-399 664l-117 -664h-190l117 664l-633 -664h-246z" />
    <glyph glyph-name="uni0417" unicode="&#x417;" horiz-adv-x="1075" 
d="M573 -23q-173 0 -294 85t-168 239l170 90q65 -235 305 -235q114 0 191 67.5t77 179.5q0 98 -78 159t-211 61h-116l30 178h154q121 0 198.5 62.5t77.5 166.5q0 81 -59 134t-156 53q-132 0 -245 -138l-119 119q167 197 395 197q169 0 275 -95t106 -237q0 -121 -68 -215.5
t-182 -145.5q89 -48 137.5 -123.5t48.5 -172.5q0 -123 -63 -222t-170 -153t-236 -54z" />
    <glyph glyph-name="uni0418" unicode="&#x418;" horiz-adv-x="1482" 
d="M416 1372h190l-170 -971l1051 1008h69l-247 -1409h-191l170 973l-1052 -1010h-70z" />
    <glyph glyph-name="uni0419" unicode="&#x419;" horiz-adv-x="1482" 
d="M416 1372h190l-170 -971l1051 1008h69l-247 -1409h-191l170 973l-1052 -1010h-70zM1012 1491q-124 0 -193 77.5t-59 205.5h151q-6 -68 25.5 -109t87.5 -41q55 0 92 41t43 109h152q-10 -128 -92.5 -205.5t-206.5 -77.5z" />
    <glyph glyph-name="uni041A" unicode="&#x41a;" horiz-adv-x="1122" 
d="M416 1372h190l-110 -627l630 627h250l-684 -678l436 -694h-227l-420 666l-116 -666h-191z" />
    <glyph glyph-name="uni041B" unicode="&#x41b;" horiz-adv-x="1347" 
d="M172 -12q-69 0 -135 20l35 189q51 -23 92 -23q73 0 125.5 66t70.5 168l170 964h885l-241 -1372h-191l209 1194h-504l-139 -803q-77 -403 -377 -403z" />
    <glyph glyph-name="uni041C" unicode="&#x41c;" horiz-adv-x="1681" 
d="M422 1409h70l438 -803l756 803h69l-248 -1409h-190l160 909l-557 -585h-66l-326 606l-163 -930h-191z" />
    <glyph glyph-name="uni041D" unicode="&#x41d;" horiz-adv-x="1406" 
d="M416 1372h190l-104 -590h678l104 590h191l-242 -1372h-191l107 604h-678l-106 -604h-191z" />
    <glyph glyph-name="uni041E" unicode="&#x41e;" horiz-adv-x="1572" 
d="M846 -23q-139 0 -260 50.5t-205.5 136t-133 203.5t-48.5 249q0 116 38 231t108.5 212.5t164 173.5t212.5 119t245 43q137 0 256.5 -51t203 -137.5t131.5 -204t48 -248.5q0 -156 -63 -300.5t-167 -248.5t-243.5 -166t-286.5 -62zM856 164q107 0 206.5 44.5t174 120.5
t119.5 185t45 231q0 198 -127 330.5t-328 132.5q-108 0 -208 -45t-173.5 -122.5t-117.5 -187t-44 -232.5q0 -122 56.5 -226t161.5 -167.5t235 -63.5z" />
    <glyph glyph-name="uni041F" unicode="&#x41f;" horiz-adv-x="1370" 
d="M416 1372h1022l-242 -1372h-190l208 1194h-641l-208 -1194h-191z" />
    <glyph glyph-name="uni0420" unicode="&#x420;" horiz-adv-x="1093" 
d="M416 1372h354q164 0 289 -118t125 -273q0 -133 -69 -240.5t-184.5 -167t-252.5 -59.5h-55h-168l-90 -514h-191zM649 692h41q128 0 214.5 74.5t86.5 198.5q0 92 -78 160.5t-176 68.5h-164l-88 -502h164z" />
    <glyph glyph-name="uni0421" unicode="&#x421;" horiz-adv-x="1374" 
d="M846 -23q-142 0 -264 49t-206 133.5t-131.5 200t-47.5 246.5q0 164 64.5 312t171 251.5t247 164.5t287.5 61q168 0 306.5 -76.5t227.5 -208.5l-158 -115q-67 100 -170.5 156.5t-228.5 56.5q-146 0 -270 -75t-197.5 -210t-73.5 -300q0 -200 126 -329.5t333 -129.5
q105 0 201 38.5t170 108.5l113 -135q-221 -199 -500 -199z" />
    <glyph glyph-name="uni0422" unicode="&#x422;" horiz-adv-x="1146" 
d="M678 1194h-438l32 178h1065l-32 -178h-437l-209 -1194h-190z" />
    <glyph glyph-name="uni0423" unicode="&#x423;" horiz-adv-x="1110" 
d="M500 373l-238 999h191l184 -774l469 774h215l-834 -1372h-213z" />
    <glyph glyph-name="uni0424" unicode="&#x424;" horiz-adv-x="1624" 
d="M729 78q-237 20 -386.5 176t-149.5 375q0 138 56 262.5t150 212t220.5 139t263.5 51.5h61l33 185h190l-32 -185q244 -12 390 -169t146 -380q0 -185 -92.5 -339t-248.5 -241t-339 -87h-71l-33 -184h-191zM913 1116h-47q-127 0 -235 -63t-171 -174t-63 -244
q0 -154 97.5 -258t267.5 -121zM997 256q127 0 234.5 61.5t171 171t63.5 242.5q0 159 -98.5 268.5t-263.5 116.5l-152 -860h45z" />
    <glyph glyph-name="uni0425" unicode="&#x425;" horiz-adv-x="1132" 
d="M569 690l-276 682h201l206 -526l406 526h231l-530 -674l295 -698h-203l-225 543l-422 -543h-232z" />
    <glyph glyph-name="uni0426" unicode="&#x426;" horiz-adv-x="1370" 
d="M1139 0h-965l242 1372h190l-211 -1194h621l211 1194h190l-211 -1194h154l-86 -489h-191z" />
    <glyph glyph-name="uni0427" unicode="&#x427;" horiz-adv-x="1189" 
d="M909 479q-116 -39 -211 -39q-192 0 -303.5 101.5t-111.5 273.5q0 21 2 35q0 14 2 22l88 500h190l-88 -498l-1 -6q0 -6 -0.5 -15t-0.5 -17q0 -104 68.5 -161t191.5 -57q112 0 207 41l125 713h190l-241 -1372h-191z" />
    <glyph glyph-name="uni0428" unicode="&#x428;" horiz-adv-x="2082" 
d="M416 1372h190l-211 -1194h582l211 1194h190l-211 -1194h582l211 1194h190l-241 -1372h-1735z" />
    <glyph glyph-name="uni0429" unicode="&#x429;" horiz-adv-x="2101" 
d="M1870 0h-1696l242 1372h190l-211 -1194h582l211 1194h190l-211 -1194h582l211 1194h190l-211 -1194h152l-86 -489h-190z" />
    <glyph glyph-name="uni042A" unicode="&#x42a;" horiz-adv-x="1128" 
d="M438 1194h-219l33 178h410l-91 -504h166q164 4 288 -116.5t124 -280.5q0 -133 -68.5 -241.5t-185 -169t-254.5 -60.5h-412zM653 178q130 0 216.5 77t86.5 204q0 96 -70.5 163.5t-178.5 67.5h-166l-90 -512h202z" />
    <glyph glyph-name="uni042B" unicode="&#x42b;" horiz-adv-x="1538" 
d="M416 1372h190l-90 -504h148q169 0 290 -120t121 -281q0 -130 -68.5 -238t-185 -168.5t-254.5 -60.5h-393zM580 178q127 0 215 77t88 202q0 101 -68 167t-182 66h-148l-90 -512h185zM1415 1372h191l-242 -1372h-190z" />
    <glyph glyph-name="uni042C" unicode="&#x42c;" horiz-adv-x="1073" 
d="M416 1372h190l-90 -504h166q164 4 288 -116.5t124 -280.5q0 -133 -68.5 -241.5t-185 -169t-254.5 -60.5h-412zM598 178q130 0 216.5 77t86.5 204q0 96 -71 163.5t-179 67.5h-166l-90 -512h203z" />
    <glyph glyph-name="uni042D" unicode="&#x42d;" horiz-adv-x="1390" 
d="M678 -23q-183 0 -325 79.5t-230 217.5l156 115q140 -225 407 -225q117 0 222.5 52t184.5 152.5t111 233.5h-610l33 178h598q-5 187 -124.5 307.5t-309.5 120.5q-203 0 -369 -147l-117 133q107 95 236 148t266 53q182 0 325 -83t220.5 -225.5t77.5 -318.5
q0 -167 -61.5 -315.5t-164.5 -252t-240.5 -163.5t-285.5 -60z" />
    <glyph glyph-name="uni042E" unicode="&#x42e;" horiz-adv-x="1976" 
d="M1264 -23q-177 0 -319 83.5t-221 226.5t-79 317h-174l-106 -604h-191l242 1372h190l-104 -590h166q32 169 141 310t264.5 222t321.5 81q132 0 248 -50.5t196.5 -136.5t127 -203.5t46.5 -248.5q0 -157 -63 -302.5t-166 -249t-240 -165.5t-280 -62zM1282 164q101 0 197 45
t169 122t117.5 188t44.5 235q0 194 -121 324t-311 130q-141 0 -262.5 -77t-194.5 -214t-73 -301q0 -119 52.5 -221.5t153 -166.5t228.5 -64z" />
    <glyph glyph-name="uni042F" unicode="&#x42f;" horiz-adv-x="1157" 
d="M530 588q-99 48 -158 138.5t-59 199.5q0 97 40.5 181t109 141.5t160 90.5t192.5 33h55h355l-242 -1372h-190l94 541h-164l-412 -541h-229zM918 719l83 475h-159h-43q-125 0 -209 -71t-84 -185q0 -92 71.5 -155.5t180.5 -63.5h160z" />
    <glyph glyph-name="uni0430" unicode="&#x430;" horiz-adv-x="1001" 
d="M432 -23q-142 0 -230.5 80t-88.5 199q0 139 111 232.5t270 93.5q172 0 294 -90l13 77q0 1 0.5 4t1 9t0.5 12q0 93 -60.5 152t-162.5 59q-111 0 -211 -100l-99 124q151 136 332 136q171 0 275 -100t104 -253q0 -8 -1 -19.5t-1 -14.5q-2 -6 -2 -15l-98 -563h-177l19 106
q-132 -129 -289 -129zM489 127q98 0 172 58t99 155q-113 102 -266 102q-91 0 -146 -47.5t-55 -126.5q0 -64 52.5 -102.5t143.5 -38.5z" />
    <glyph glyph-name="uni0431" unicode="&#x431;" horiz-adv-x="1140" 
d="M623 -23q-203 0 -318 124.5t-115 340.5q0 91 35 285q61 333 205.5 495.5t394.5 166.5q133 0 204 19t128 60l66 -139q-59 -59 -140 -83.5t-243 -24.5q-187 0 -287.5 -114t-138.5 -349q63 74 149 117t182 43q174 0 288 -122t114 -296q0 -144 -72.5 -265t-193 -189.5
t-258.5 -68.5zM641 143q132 0 227 97.5t95 242.5q0 118 -74.5 193.5t-196.5 75.5q-132 0 -232 -97.5t-100 -240.5q0 -111 81.5 -191t199.5 -80z" />
    <glyph glyph-name="uni0432" unicode="&#x432;" horiz-adv-x="958" 
d="M299 942h360q119 0 204 -74.5t85 -171.5q0 -72 -38.5 -128.5t-106.5 -92.5q115 -68 115 -190t-100 -203.5t-243 -81.5h-442zM578 150q70 0 116.5 39.5t46.5 101.5q0 50 -40 82.5t-103 32.5h-219l-45 -256h244zM612 555q68 0 112 34t44 93q0 45 -39 78t-98 33h-182
l-43 -238h206z" />
    <glyph glyph-name="uni0433" unicode="&#x433;" horiz-adv-x="753" 
d="M299 942h580l-29 -160h-404l-137 -782h-176z" />
    <glyph glyph-name="uni0434" unicode="&#x434;" horiz-adv-x="1073" 
d="M68 160h10q74 0 127.5 89.5t93.5 303.5l70 389h692l-139 -782h127l-74 -426h-176l47 266h-629l-47 -266h-174zM745 160l111 622h-340l-43 -233q-56 -304 -141 -389h413z" />
    <glyph glyph-name="uni0435" unicode="&#x435;" horiz-adv-x="1089" 
d="M623 -23q-208 0 -335.5 124.5t-127.5 312.5q0 153 69.5 280t188.5 199t260 72q188 0 306 -115t118 -293q0 -39 -9 -81.5t-16 -55.5h-737q0 -124 81 -200.5t226 -76.5q158 0 275 111l94 -113q-169 -164 -393 -164zM922 565q-6 116 -74.5 179t-190.5 63
q-100 0 -179.5 -66.5t-110.5 -175.5h555z" />
    <glyph glyph-name="uni0436" unicode="&#x436;" horiz-adv-x="1310" 
d="M459 489l-277 453h201l270 -444l80 444h176l-80 -444l431 444h229l-473 -487l291 -455h-207l-279 444l-78 -444h-176l78 444l-434 -444h-238z" />
    <glyph glyph-name="uni0437" unicode="&#x437;" horiz-adv-x="919" 
d="M498 -23q-134 0 -245 60.5t-171 165.5l137 102q98 -168 287 -168q87 0 140.5 38t53.5 106q0 55 -52.5 86.5t-149.5 31.5h-111l29 160h135q85 0 134.5 34.5t49.5 94.5q0 54 -48.5 85.5t-133.5 31.5q-118 0 -219 -90l-90 121q155 129 340 129q145 0 237 -72.5t92 -183.5
q0 -154 -147 -236q54 -29 83.5 -80t29.5 -114q0 -130 -110 -216t-271 -86z" />
    <glyph glyph-name="uni0438" unicode="&#x438;" horiz-adv-x="1073" 
d="M299 942h176l-102 -586l671 607h64l-168 -963h-176l102 586l-671 -606h-66z" />
    <glyph glyph-name="uni0439" unicode="&#x439;" horiz-adv-x="1073" 
d="M299 942h176l-102 -586l671 607h64l-168 -963h-176l102 586l-671 -606h-66zM729 1061q-119 0 -184.5 76.5t-55.5 205.5h152q-6 -68 22 -108.5t78 -40.5q53 0 87 40.5t40 108.5h152q-12 -130 -91 -206t-200 -76z" />
    <glyph glyph-name="uni043A" unicode="&#x43a;" horiz-adv-x="901" 
d="M299 942h176l-80 -446l459 446h231l-495 -479l317 -463h-213l-307 446l-78 -446h-176z" />
    <glyph glyph-name="uni043B" unicode="&#x43b;" horiz-adv-x="1036" 
d="M135 -12q-52 0 -98 12l31 176q32 -12 63 -12q57 0 86.5 42.5t44.5 123.5l107 612h700l-166 -942h-176l137 782h-348l-82 -471q-56 -323 -299 -323z" />
    <glyph glyph-name="uni043C" unicode="&#x43c;" horiz-adv-x="1259" 
d="M301 963h64l331 -541l535 541h63l-168 -963h-176l99 565l-357 -358h-55l-227 373l-101 -580h-176z" />
    <glyph glyph-name="uni043D" unicode="&#x43d;" horiz-adv-x="1062" 
d="M299 942h176l-69 -387h444l70 387h176l-166 -942h-176l69 395h-444l-70 -395h-176z" />
    <glyph glyph-name="uni043E" unicode="&#x43e;" horiz-adv-x="1140" 
d="M610 -23q-197 0 -325.5 129.5t-128.5 317.5q0 101 42 199t112.5 173.5t171 122t210.5 46.5q194 0 323.5 -132t129.5 -319q0 -143 -77 -268t-200 -197t-258 -72zM625 143q136 0 236 106t100 263q0 126 -78.5 206.5t-204.5 80.5q-139 0 -239.5 -107t-100.5 -264
q0 -119 81.5 -202t205.5 -83z" />
    <glyph glyph-name="uni043F" unicode="&#x43f;" horiz-adv-x="1042" 
d="M299 942h776l-166 -942h-176l137 782h-424l-137 -782h-176z" />
    <glyph glyph-name="uni0440" unicode="&#x440;" horiz-adv-x="1165" 
d="M657 143q134 0 237 106.5t103 262.5q0 125 -80 206t-206 81q-138 0 -238 -106t-100 -263q0 -119 80 -203t204 -84zM299 942h172l-22 -117q137 140 315 140t295 -128t117 -313q0 -111 -43 -213t-114 -174.5t-165 -116t-192 -43.5q-106 0 -191.5 48.5t-134.5 130.5
l-119 -668h-176z" />
    <glyph glyph-name="uni0441" unicode="&#x441;" horiz-adv-x="1032" 
d="M610 -23q-198 0 -326 128t-128 317q0 147 73.5 272.5t197 198t265.5 72.5q132 0 236 -62.5t166 -169.5l-144 -98q-90 164 -272 164q-140 0 -239 -107t-99 -262q0 -126 80 -206.5t213 -80.5q144 0 264 117l100 -115q-76 -79 -177 -123.5t-210 -44.5z" />
    <glyph glyph-name="uni0442" unicode="&#x442;" horiz-adv-x="833" 
d="M465 782h-287l29 160h751l-28 -160h-289l-137 -782h-176z" />
    <glyph glyph-name="uni0443" unicode="&#x443;" horiz-adv-x="940" 
d="M84 -512l274 498l-172 956h181l125 -717l393 717h190l-801 -1454h-194h4z" />
    <glyph glyph-name="uni0444" unicode="&#x444;" horiz-adv-x="1294" 
d="M700 805h-26q-136 0 -234 -109.5t-98 -271.5q0 -119 64.5 -198t175.5 -89zM555 -23q-169 17 -282 145.5t-113 301.5q0 110 43.5 211t115.5 173t169 114.5t200 42.5h41l86 489h176l-86 -489q177 -17 287.5 -142t110.5 -303q0 -145 -76 -271.5t-198 -199t-255 -72.5h-43
l-88 -489h-176zM784 137q133 0 233.5 112t100.5 273q0 117 -65.5 195t-175.5 88l-119 -668h26z" />
    <glyph glyph-name="uni0445" unicode="&#x445;" horiz-adv-x="874" 
d="M412 477l-217 465h190l145 -330l265 330h215l-381 -457l225 -485h-190l-156 346l-275 -346h-213z" />
    <glyph glyph-name="uni0446" unicode="&#x446;" horiz-adv-x="1052" 
d="M836 0h-703l166 942h176l-139 -782h403l140 782h176l-140 -782h123l-73 -426h-177z" />
    <glyph glyph-name="uni0447" unicode="&#x447;" horiz-adv-x="948" 
d="M688 279q-88 -15 -141 -15q-171 0 -266 77.5t-95 217.5v21q0 10 2 14l60 348h176l-62 -346q-2 -2 -2 -8v-15q0 -68 55 -108.5t152 -40.5q65 0 148 12l90 506h176l-166 -942h-176z" />
    <glyph glyph-name="uni0448" unicode="&#x448;" horiz-adv-x="1538" 
d="M299 942h176l-139 -782h373l139 782h176l-139 -782h370l140 782h176l-166 -942h-1272z" />
    <glyph glyph-name="uni0449" unicode="&#x449;" horiz-adv-x="1568" 
d="M1352 0h-1219l166 942h176l-139 -782h373l139 782h176l-139 -782h370l140 782h176l-139 -782h122l-73 -426h-176z" />
    <glyph glyph-name="uni044A" unicode="&#x44a;" horiz-adv-x="980" 
d="M338 782h-191l29 160h367l-58 -319h185q127 0 218 -85.5t91 -201.5q0 -146 -106 -241t-263 -95h-409zM612 160q80 0 134.5 45.5t54.5 118.5q0 56 -48 97.5t-112 41.5h-184l-54 -303h209z" />
    <glyph glyph-name="uni044B" unicode="&#x44b;" horiz-adv-x="1259" 
d="M299 942h176l-57 -319h155q126 0 213.5 -85.5t87.5 -199.5q0 -146 -104 -242t-258 -96h-379zM512 160q80 0 132 45t52 121q0 56 -41 93.5t-110 43.5h-156l-53 -303h176zM1116 942h176l-166 -942h-176z" />
    <glyph glyph-name="uni044C" unicode="&#x44c;" horiz-adv-x="913" 
d="M299 942h176l-57 -319h184q127 0 218 -85.5t91 -201.5q0 -146 -105.5 -241t-262.5 -95h-410zM545 160q80 0 134 45.5t54 118.5q0 56 -48 97.5t-112 41.5h-184l-53 -303h209z" />
    <glyph glyph-name="uni044D" unicode="&#x44d;" horiz-adv-x="1032" 
d="M508 -23q-132 0 -242.5 64t-171.5 170l144 104q102 -172 284 -172q110 0 193 68.5t119 181.5h-420l28 160h412q-8 111 -81 178.5t-189 67.5q-69 0 -138.5 -29.5t-126.5 -83.5l-102 119q79 76 177.5 118t201.5 42q194 0 319 -126.5t125 -314.5q0 -151 -73.5 -277.5
t-195.5 -198t-263 -71.5z" />
    <glyph glyph-name="uni044E" unicode="&#x44e;" horiz-adv-x="1472" 
d="M948 -23q-184 0 -304 120t-132 298h-133l-70 -395h-176l166 942h176l-69 -387h120q45 173 191.5 291.5t320.5 118.5q191 0 315 -130t124 -317q0 -144 -74.5 -269.5t-196.5 -198.5t-258 -73zM963 143q133 0 230 107t97 268q0 121 -73 201t-193 80q-137 0 -234.5 -107
t-97.5 -266q0 -118 76.5 -200.5t194.5 -82.5z" />
    <glyph glyph-name="uni044F" unicode="&#x44f;" horiz-adv-x="974" 
d="M391 365q-76 35 -120 100.5t-44 142.5q0 146 103 240t262 94h416l-166 -942h-176l57 330h-150l-266 -330h-215zM752 489l51 293h-217q-79 0 -129.5 -43t-50.5 -114q0 -57 42 -93.5t117 -42.5h187z" />
    <glyph glyph-name="uni0451" unicode="&#x451;" horiz-adv-x="1089" 
d="M623 -23q-208 0 -335.5 124.5t-127.5 312.5q0 153 69.5 280t188.5 199t260 72q188 0 306 -115t118 -293q0 -39 -9 -81.5t-16 -55.5h-737q0 -124 81 -200.5t226 -76.5q158 0 275 111l94 -113q-169 -164 -393 -164zM922 565q-6 116 -74.5 179t-190.5 63
q-100 0 -179.5 -66.5t-110.5 -175.5h555zM539 1120q-50 0 -80.5 30.5t-30.5 78.5q0 50 39 88.5t92 38.5q46 0 77.5 -32.5t31.5 -76.5q0 -54 -37.5 -90.5t-91.5 -36.5zM924 1120q-46 0 -76.5 31.5t-30.5 75.5q0 49 38 89t89 40q47 0 79 -32t32 -77q0 -54 -39.5 -90.5
t-91.5 -36.5z" />
    <glyph glyph-name="uni0452" unicode="&#x452;" horiz-adv-x="1073" 
d="M600 -512q-148 0 -225 109l114 127q46 -70 111 -70q52 0 89.5 42t49.5 107l113 641q4 15 4 56q0 93 -52.5 147.5t-148.5 54.5q-93 0 -161.5 -64.5t-87.5 -172.5l-80 -465h-176l184 1049h-129l28 159h129l44 246h176l-43 -246h342l-29 -159h-342l-55 -308q118 121 260 121
q144 0 233.5 -94t89.5 -238q0 -32 -4 -53l-123 -700q-20 -127 -107.5 -208t-203.5 -81z" />
    <glyph glyph-name="uni0453" unicode="&#x453;" horiz-adv-x="753" 
d="M299 942h580l-29 -160h-404l-137 -782h-176zM514 1110l279 322l120 -109l-301 -297z" />
    <glyph glyph-name="uni0454" unicode="&#x454;" horiz-adv-x="1032" 
d="M612 -23q-200 0 -328 127t-128 318q0 110 43 210.5t115 173.5t170 116t204 43q132 0 236 -62.5t166 -169.5l-144 -98q-90 164 -272 164q-110 0 -196.5 -68.5t-115.5 -177.5h439l-29 -160h-432q11 -112 89.5 -181t203.5 -69q144 0 264 117l100 -115q-168 -168 -385 -168z
" />
    <glyph glyph-name="uni0455" unicode="&#x455;" horiz-adv-x="905" 
d="M508 -23q-141 0 -254 61t-174 171l137 108q105 -180 303 -180q79 0 129.5 32t50.5 87q0 41 -41 71.5t-135 63.5q-155 54 -226 120.5t-71 158.5q0 132 96.5 213.5t247.5 81.5q262 0 392 -199l-132 -107q-105 146 -280 146q-67 0 -105 -29.5t-38 -79.5q0 -41 39.5 -71.5
t132.5 -61.5q158 -54 229.5 -121t71.5 -159q0 -137 -106.5 -221.5t-266.5 -84.5z" />
    <glyph glyph-name="uni0456" unicode="&#x456;" horiz-adv-x="440" 
d="M297 942h176l-166 -942h-176zM424 1120q-46 0 -76.5 32.5t-30.5 76.5q0 50 38 88.5t91 38.5q47 0 79 -31t32 -76q0 -55 -39 -92t-94 -37z" />
    <glyph glyph-name="uni0457" unicode="&#x457;" horiz-adv-x="452" 
d="M303 942h176l-166 -942h-176zM268 1118q-50 0 -80 30.5t-30 78.5q0 50 39 88.5t92 38.5q46 0 77 -32.5t31 -76.5q0 -54 -37.5 -90.5t-91.5 -36.5zM596 1118q-46 0 -76.5 31.5t-30.5 75.5q0 49 38 89t89 40q47 0 79 -32t32 -77q0 -54 -39.5 -90.5t-91.5 -36.5z" />
    <glyph glyph-name="uni0458" unicode="&#x458;" horiz-adv-x="442" 
d="M-27 -512q-128 0 -206 96l110 133q42 -63 96 -63q87 0 123 137l203 1151h176l-207 -1175q-24 -125 -103 -202t-192 -77zM424 1120q-46 0 -76.5 32.5t-30.5 76.5q0 50 38 88.5t91 38.5q47 0 79 -31t32 -76q0 -55 -39 -92t-94 -37z" />
    <glyph glyph-name="uni0459" unicode="&#x459;" horiz-adv-x="1505" 
d="M135 -12q-52 0 -98 12l31 176q32 -12 63 -12q57 0 86.5 42.5t44.5 123.5l107 612h698l-57 -319h180q140 0 225.5 -84t85.5 -203q0 -146 -104 -241t-260 -95h-412l137 782h-346l-82 -471q-56 -323 -299 -323zM1133 147q79 0 134.5 51.5t55.5 125.5q0 61 -43.5 100
t-114.5 39h-184l-55 -316h207z" />
    <glyph glyph-name="uni045A" unicode="&#x45a;" horiz-adv-x="1533" 
d="M299 942h176l-63 -356h444l64 356h176l-64 -356h189q131 0 219 -82t88 -191q0 -136 -103 -224.5t-258 -88.5h-413l73 426h-444l-74 -426h-176zM1178 160q76 0 124 39t48 104q0 54 -43.5 90.5t-110.5 36.5h-190l-50 -270h222z" />
    <glyph glyph-name="uni045B" unicode="&#x45b;" horiz-adv-x="1073" 
d="M334 1049h-129l28 159h129l44 246h176l-43 -246h342l-29 -159h-342l-55 -308q118 121 260 121q144 0 233.5 -94t89.5 -238q0 -32 -4 -53l-84 -477h-176l78 444q4 15 4 56q0 93 -52.5 147.5t-148.5 54.5q-93 0 -161.5 -64.5t-87.5 -172.5l-80 -465h-176z" />
    <glyph glyph-name="uni045C" unicode="&#x45c;" horiz-adv-x="901" 
d="M299 942h176l-80 -446l459 446h231l-495 -479l317 -463h-213l-307 446l-78 -446h-176zM578 1110l278 322l121 -109l-301 -297z" />
    <glyph glyph-name="uni045E" unicode="&#x45e;" horiz-adv-x="940" 
d="M84 -512l274 498l-172 956h181l125 -717l393 717h190l-801 -1454h-194h4zM635 1061q-119 0 -184.5 76.5t-55.5 205.5h152q-6 -68 22 -108.5t78 -40.5q53 0 87 40.5t40 108.5h152q-12 -130 -91 -206t-200 -76z" />
    <glyph glyph-name="uni045F" unicode="&#x45f;" horiz-adv-x="1026" 
d="M424 0h-291l166 942h176l-139 -782h407l140 782h176l-166 -942h-293l-47 -266h-176z" />
    <glyph glyph-name="uni0490" unicode="&#x490;" horiz-adv-x="921" 
d="M416 1372h547l36 215h191l-70 -393h-547l-208 -1194h-191z" />
    <glyph glyph-name="uni0491" unicode="&#x491;" horiz-adv-x="751" 
d="M299 942h401l29 172h176l-57 -332h-402l-137 -782h-176z" />
    <glyph glyph-name="Wgrave" unicode="&#x1e80;" horiz-adv-x="1931" 
d="M262 1372h193l149 -971l539 971h78l196 -971l504 971h201l-731 -1409h-70l-201 1012l-559 -1012h-69zM924 1769l141 93l168 -326l-105 -68z" />
    <glyph glyph-name="wgrave" unicode="&#x1e81;" horiz-adv-x="1404" 
d="M186 942h164l101 -606l360 627h82l141 -627l318 606h178l-510 -979h-70l-145 676l-387 -676h-70zM598 1339l141 93l168 -326l-104 -68z" />
    <glyph glyph-name="Wacute" unicode="&#x1e82;" horiz-adv-x="1931" 
d="M262 1372h193l149 -971l539 971h78l196 -971l504 971h201l-731 -1409h-70l-201 1012l-559 -1012h-69zM1104 1540l278 322l121 -109l-301 -297z" />
    <glyph glyph-name="wacute" unicode="&#x1e83;" horiz-adv-x="1404" 
d="M186 942h164l101 -606l360 627h82l141 -627l318 606h178l-510 -979h-70l-145 676l-387 -676h-70zM772 1110l279 322l120 -109l-301 -297z" />
    <glyph glyph-name="Wdieresis" unicode="&#x1e84;" horiz-adv-x="1931" 
d="M262 1372h193l149 -971l539 971h78l196 -971l504 971h201l-731 -1409h-70l-201 1012l-559 -1012h-69zM1004 1550q-50 0 -80.5 30.5t-30.5 78.5q0 50 39 88.5t92 38.5q46 0 77.5 -32.5t31.5 -76.5q0 -54 -37.5 -90.5t-91.5 -36.5zM1389 1550q-46 0 -76.5 31.5t-30.5 75.5
q0 49 38 89t89 40q47 0 79 -32t32 -77q0 -54 -39.5 -90.5t-91.5 -36.5z" />
    <glyph glyph-name="wdieresis" unicode="&#x1e85;" horiz-adv-x="1404" 
d="M186 942h164l101 -606l360 627h82l141 -627l318 606h178l-510 -979h-70l-145 676l-387 -676h-70zM672 1120q-50 0 -80.5 30.5t-30.5 78.5q0 50 39 88.5t92 38.5q46 0 77.5 -32.5t31.5 -76.5q0 -54 -37.5 -90.5t-91.5 -36.5zM1057 1120q-46 0 -76.5 31.5t-30.5 75.5
q0 49 38 89t89 40q47 0 79 -32t32 -77q0 -54 -39.5 -90.5t-91.5 -36.5z" />
    <glyph glyph-name="uni1E9E" unicode="&#x1e9e;" horiz-adv-x="1359" 
d="M860 -23q-80 0 -147 19t-103 49l101 160q56 -49 168 -49q123 0 201.5 78t78.5 202q0 93 -73 159.5t-173 66.5h-145l25 133l309 399h-297q-110 0 -189.5 -72t-99.5 -190l-162 -932h-190l164 948q37 191 171.5 307.5t319.5 116.5h590l-12 -69l-377 -484q153 -32 242.5 -134
t89.5 -243q0 -128 -67 -235.5t-180 -168.5t-245 -61z" />
    <glyph glyph-name="Ygrave" unicode="&#x1ef2;" horiz-adv-x="1052" 
d="M500 520l-269 852h187l200 -639l435 639h221l-584 -852l-90 -520h-190zM500 1769l141 93l168 -326l-104 -68z" />
    <glyph glyph-name="ygrave" unicode="&#x1ef3;" horiz-adv-x="940" 
d="M84 -512l274 498l-172 956h181l125 -717l393 717h190l-801 -1454h-194h4zM377 1339l141 93l168 -326l-104 -68z" />
    <glyph glyph-name="endash" unicode="&#x2013;" horiz-adv-x="993" 
d="M147 610h912l-27 -155h-911z" />
    <glyph glyph-name="emdash" unicode="&#x2014;" horiz-adv-x="1443" 
d="M147 610h1362l-26 -155h-1362z" />
    <glyph glyph-name="quoteleft" unicode="&#x2018;" horiz-adv-x="385" 
d="M250 1014l192 399l115 -29l-147 -409z" />
    <glyph glyph-name="quoteright" unicode="&#x2019;" horiz-adv-x="385" 
d="M248 1001l145 412l162 -39l-197 -399z" />
    <glyph glyph-name="quotesinglbase" unicode="&#x201a;" horiz-adv-x="385" 
d="M27 -246l147 412l160 -39l-195 -399z" />
    <glyph glyph-name="quotedblleft" unicode="&#x201c;" horiz-adv-x="659" 
d="M250 1014l192 397l113 -27l-147 -411zM522 1010l195 399l112 -29l-147 -409z" />
    <glyph glyph-name="quotedblright" unicode="&#x201d;" horiz-adv-x="659" 
d="M248 1001l145 412l162 -39l-197 -399zM522 999l148 412l157 -41l-192 -397z" />
    <glyph glyph-name="quotedblbase" unicode="&#x201e;" horiz-adv-x="659" 
d="M27 -246l147 412l160 -39l-195 -399zM301 -248l150 412l157 -41l-192 -397z" />
    <glyph glyph-name="dagger" unicode="&#x2020;" horiz-adv-x="1009" 
d="M543 764h-328l33 178h327l76 430h191l-76 -430h328l-33 -178h-328l-246 -1276h-149z" />
    <glyph glyph-name="daggerdbl" unicode="&#x2021;" horiz-adv-x="1009" 
d="M422 0h-340l31 178h338l92 586h-328l33 178h327l76 430h191l-76 -430h328l-33 -178h-328l-110 -586h335l-30 -178h-338l-103 -512h-149z" />
    <glyph glyph-name="bullet" unicode="&#x2022;" horiz-adv-x="714" 
d="M434 373q-62 0 -102.5 38.5t-40.5 96.5q0 63 48.5 116.5t117.5 53.5q62 0 102.5 -39.5t40.5 -99.5q0 -67 -49 -116.5t-117 -49.5z" />
    <glyph glyph-name="ellipsis" unicode="&#x2026;" horiz-adv-x="1568" 
d="M264 -12q-53 0 -85 32t-32 80q0 52 39.5 92.5t94.5 40.5q53 0 84.5 -31t31.5 -79q0 -57 -39.5 -96t-93.5 -39zM795 -12q-53 0 -85 32t-32 80q0 52 39.5 92.5t93.5 40.5q53 0 85 -31t32 -79q0 -57 -39 -96t-94 -39zM1323 -12q-53 0 -85 32t-32 80q0 52 39.5 92.5
t93.5 40.5q53 0 85 -31t32 -79q0 -57 -39 -96t-94 -39z" />
    <glyph glyph-name="perthousand" unicode="&#x2030;" horiz-adv-x="2359" 
d="M1282 1372h178l-882 -1372h-181zM539 748q-134 0 -218.5 86.5t-84.5 212.5q0 137 104.5 242.5t249.5 105.5q132 0 218.5 -84.5t86.5 -208.5q0 -146 -107 -250t-249 -104zM549 895q78 0 131 57.5t53 143.5q0 64 -42.5 107.5t-110.5 43.5q-73 0 -129 -57.5t-56 -138.5
q0 -63 42.5 -109.5t111.5 -46.5zM1272 -23q-134 0 -218.5 86.5t-84.5 212.5q0 137 104.5 243t249.5 106q132 0 218.5 -84.5t86.5 -208.5q0 -146 -107.5 -250.5t-248.5 -104.5zM1282 125q78 0 131 57.5t53 143.5q0 64 -42.5 107.5t-110.5 43.5q-73 0 -129 -57.5t-56 -138.5
q0 -63 42.5 -109.5t111.5 -46.5zM2021 -23q-134 0 -218.5 86.5t-84.5 212.5q0 137 105 243t250 106q132 0 218.5 -84.5t86.5 -208.5q0 -146 -107.5 -250.5t-249.5 -104.5zM2032 125q78 0 131 57.5t53 143.5q0 64 -43 107.5t-111 43.5q-73 0 -128.5 -57.5t-55.5 -138.5
q0 -63 42.5 -109.5t111.5 -46.5z" />
    <glyph glyph-name="guilsinglleft" unicode="&#x2039;" horiz-adv-x="653" 
d="M172 512l449 393l98 -114l-336 -295l221 -277l-121 -100z" />
    <glyph glyph-name="guilsinglright" unicode="&#x203a;" horiz-adv-x="653" 
d="M131 233l336 295l-221 277l121 100l311 -393l-449 -393z" />
    <glyph glyph-name="fraction" unicode="&#x2044;" horiz-adv-x="229" 
d="M588 1372h180l-885 -1372h-180z" />
    <glyph glyph-name="uni2070" unicode="&#x2070;" horiz-adv-x="765" 
d="M555 850q-128 0 -206.5 95t-78.5 243q0 200 112 336.5t263 136.5q124 0 203.5 -99.5t79.5 -234.5q0 -203 -111 -340t-262 -137zM563 995q79 0 140 95.5t61 236.5q0 87 -35 138t-96 51q-77 0 -138 -95.5t-61 -236.5q0 -42 10.5 -82t41.5 -73.5t77 -33.5z" />
    <glyph glyph-name="uni2074" unicode="&#x2074;" horiz-adv-x="688" 
d="M547 985h-385l14 78l559 596h74l-94 -543h98l-25 -131h-98l-18 -113h-144zM571 1116l43 246l-225 -246h182z" />
    <glyph glyph-name="uni2075" unicode="&#x2075;" horiz-adv-x="718" 
d="M520 850q-110 0 -188.5 55t-98.5 146l140 69q11 -58 51.5 -92.5t99.5 -34.5q62 0 107 40.5t45 105.5q0 55 -42.5 89t-115.5 34q-31 0 -68 -16t-57 -36l-55 31l119 397h430l-25 -131h-305l-35 -125q26 11 74 11q110 0 178 -70.5t68 -171.5q0 -132 -94.5 -216.5
t-227.5 -84.5z" />
    <glyph glyph-name="uni2076" unicode="&#x2076;" horiz-adv-x="684" 
d="M506 850q-124 0 -199.5 70t-75.5 186q0 155 138 314.5t340 232.5l61 -117q-155 -62 -278 -188q41 18 92 18q101 0 167 -68t66 -165q0 -123 -90.5 -203t-220.5 -80zM512 981q61 0 103 40t42 105q0 51 -34.5 80t-94.5 29q-62 0 -100.5 -35.5t-38.5 -99.5q0 -49 34 -84
t89 -35z" />
    <glyph glyph-name="uni2077" unicode="&#x2077;" horiz-adv-x="595" 
d="M664 1495h-351l27 143h555l-12 -69l-432 -697h-175z" />
    <glyph glyph-name="uni2078" unicode="&#x2078;" horiz-adv-x="747" 
d="M553 850q-124 0 -205.5 66.5t-81.5 160.5q0 67 40.5 125t109.5 96q-58 58 -58 129q0 99 80.5 166.5t192.5 67.5q108 0 181 -62t73 -151q0 -56 -31 -103t-86 -77q86 -67 86 -166q0 -109 -89.5 -180.5t-211.5 -71.5zM559 981q61 0 100 37t39 92q0 48 -36 76t-101 28
q-58 0 -96.5 -33t-38.5 -89q0 -51 39.5 -81t93.5 -30zM618 1339q46 0 76.5 27.5t30.5 73.5q0 37 -26.5 63.5t-71.5 26.5q-47 0 -79 -31t-32 -76q0 -36 28 -60t74 -24z" />
    <glyph glyph-name="uni2079" unicode="&#x2079;" horiz-adv-x="681" 
d="M346 975q171 68 281 188q-56 -18 -95 -18q-103 0 -168 66.5t-65 162.5q0 124 91 205.5t218 81.5q124 0 199.5 -70.5t75.5 -183.5q0 -158 -136.5 -317t-338.5 -232zM588 1276q61 0 99 36t38 101q0 49 -34 83t-89 34q-60 0 -101.5 -41.5t-41.5 -104.5q0 -48 35 -78t94 -30z
" />
    <glyph glyph-name="uni2080" unicode="&#x2080;" horiz-adv-x="765" 
d="M371 -268q-128 0 -206.5 95t-78.5 243q0 200 112 336.5t263 136.5q124 0 203 -99.5t79 -234.5q0 -203 -110.5 -340t-261.5 -137zM379 -123q79 0 140 95.5t61 236.5q0 87 -35 137.5t-96 50.5q-77 0 -138 -95t-61 -236q0 -42 10.5 -82t41.5 -73.5t77 -33.5z" />
    <glyph glyph-name="uni2081" unicode="&#x2081;" horiz-adv-x="600" 
d="M350 293l-184 -117l-60 133l375 232h72l-137 -787h-160z" />
    <glyph glyph-name="uni2082" unicode="&#x2082;" horiz-adv-x="739" 
d="M45 -166l293 215q125 91 163 137.5t38 100.5q0 52 -29 82t-82 30q-102 0 -152 -141l-147 53q41 111 122 171.5t189 60.5q120 0 192.5 -66t72.5 -168q0 -83 -55.5 -162t-196.5 -172l-115 -77h313l-24 -144h-594z" />
    <glyph glyph-name="uni2083" unicode="&#x2083;" horiz-adv-x="729" 
d="M350 -268q-110 0 -191.5 54t-101.5 142l142 68q35 -121 161 -121q58 0 97 33.5t39 89.5q0 48 -41 80.5t-103 32.5h-110l12 71l229 207h-290l24 131h514l-12 -69l-250 -234q88 -23 140.5 -82t52.5 -137q0 -115 -92.5 -190.5t-219.5 -75.5z" />
    <glyph glyph-name="uni2084" unicode="&#x2084;" horiz-adv-x="688" 
d="M362 -133h-385l15 78l559 596h74l-95 -543h99l-25 -131h-98l-19 -113h-143zM387 -2l43 246l-225 -246h182z" />
    <glyph glyph-name="uni2085" unicode="&#x2085;" horiz-adv-x="718" 
d="M336 -268q-110 0 -188.5 54.5t-98.5 145.5l139 70q11 -58 52 -92.5t100 -34.5q63 0 107.5 40t44.5 105q0 55 -42.5 89t-115.5 34q-31 0 -68 -15.5t-57 -35.5l-55 31l118 397h430l-24 -131h-305l-35 -125q23 10 74 10q110 0 177.5 -70t67.5 -171q0 -132 -94 -216.5
t-227 -84.5z" />
    <glyph glyph-name="uni2086" unicode="&#x2086;" horiz-adv-x="684" 
d="M322 -268q-124 0 -199.5 70t-75.5 186q0 155 137.5 314.5t339.5 232.5l62 -117q-155 -62 -279 -189q44 19 92 19q101 0 167.5 -68.5t66.5 -165.5q0 -122 -90.5 -202t-220.5 -80zM328 -137q61 0 103 40t42 105q0 51 -34.5 80t-94.5 29q-62 0 -100.5 -35.5t-38.5 -99.5
q0 -49 34 -84t89 -35z" />
    <glyph glyph-name="uni2087" unicode="&#x2087;" horiz-adv-x="595" 
d="M479 377h-350l27 143h555l-13 -69l-432 -697h-174z" />
    <glyph glyph-name="uni2088" unicode="&#x2088;" horiz-adv-x="747" 
d="M369 -268q-124 0 -205.5 66.5t-81.5 160.5q0 68 40 125.5t109 95.5q-57 57 -57 129q0 99 80 166.5t192 67.5q108 0 181 -62t73 -151q0 -56 -30.5 -103t-85.5 -77q86 -67 86 -166q0 -109 -89.5 -180.5t-211.5 -71.5zM375 -137q61 0 100 37t39 92q0 48 -36 76t-101 28
q-58 0 -96.5 -33.5t-38.5 -89.5q0 -51 39 -80.5t94 -29.5zM434 221q46 0 76.5 27.5t30.5 73.5q0 37 -27 63.5t-72 26.5q-47 0 -78.5 -31t-31.5 -76q0 -36 28 -60t74 -24z" />
    <glyph glyph-name="uni2089" unicode="&#x2089;" horiz-adv-x="681" 
d="M162 -143q169 67 280 188q-56 -18 -94 -18q-103 0 -168 66.5t-65 162.5q0 124 91 205.5t218 81.5q124 0 199 -70.5t75 -183.5q0 -158 -136.5 -317t-338.5 -232zM403 158q62 0 100 36.5t38 100.5q0 49 -34 83t-89 34q-60 0 -102 -42t-42 -104q0 -48 35 -78t94 -30z" />
    <glyph glyph-name="Euro" unicode="&#x20ac;" horiz-adv-x="1222" 
d="M788 -23q-211 0 -345.5 139.5t-159.5 366.5h-158l27 146h139q1 3 7 43t11 63h-139l25 146h153q66 223 236 368.5t370 145.5q291 0 457 -287l-162 -109q-67 112 -137.5 160.5t-171.5 48.5q-125 0 -225.5 -88t-155.5 -239h442l-57 -146h-430q-16 -66 -18 -106h407l-57 -146
h-352q17 -151 100 -235t221 -84q76 0 148.5 37.5t156.5 117.5l113 -131q-214 -211 -445 -211z" />
    <glyph glyph-name="uni20B4" unicode="&#x20b4;" horiz-adv-x="1105" 
d="M612 -23q-175 0 -283 88.5t-108 221.5q0 105 62 194h-97l25 144h901l-25 -144h-595q-74 -68 -74 -157q0 -79 59.5 -125.5t163.5 -46.5q146 0 252 124l113 -118q-76 -87 -177 -134t-217 -47zM256 874h586q90 72 90 175q0 77 -55.5 124.5t-151.5 47.5q-145 0 -252 -125
l-117 125q72 85 171.5 129.5t215.5 44.5q175 0 280 -88.5t105 -223.5q0 -117 -69 -209h98l-27 -143h-901z" />
    <glyph glyph-name="uni20BD" unicode="&#x20bd;" horiz-adv-x="1099" 
d="M225 266h-139l27 142h139l18 108h-139l31 174h139l121 682h354q105 0 200.5 -53t154.5 -144t59 -194q0 -132 -67.5 -239.5t-183 -167.5t-253.5 -60h-225l-19 -106h377l-26 -142h-377l-45 -266h-191zM696 692q131 0 216 75t85 202q0 91 -75.5 158t-178.5 67h-163l-88 -502
h204z" />
    <glyph glyph-name="uni2116" unicode="&#x2116;" horiz-adv-x="2269" 
d="M541 999l-176 -999h-191l248 1409h70l690 -1042l178 1005h190l-250 -1409h-69zM1640 649h629l-26 -160h-629zM1991 748q-130 0 -214.5 85.5t-84.5 208.5q0 138 105.5 245.5t250.5 107.5q128 0 214.5 -84.5t86.5 -208.5q0 -148 -106 -251t-252 -103zM2007 895
q71 0 126.5 57.5t55.5 141.5q0 67 -42 110t-109 43q-72 0 -128.5 -57t-56.5 -137q0 -64 42 -111t112 -47z" />
    <glyph glyph-name="trademark" unicode="&#x2122;" horiz-adv-x="1271" 
d="M369 1268h-174v127h485v-127h-174v-494h-137v494zM735 1405h70l239 -318l240 318h70v-631h-137v332l-142 -191h-61l-142 191v-332h-137v631z" />
    <glyph glyph-name="arrowleft" unicode="&#x2190;" horiz-adv-x="2048" 
d="M983 143q-25 88 -53.5 156.5t-71.5 135.5t-94.5 110.5t-125 70.5t-161.5 27h-6v127h6q88 0 161 26.5t125.5 71t95.5 110.5t71.5 135.5t52.5 156.5h225q-63 -316 -299 -473h996v-181h-996q236 -157 299 -473h-225z" />
    <glyph glyph-name="arrowup" unicode="&#x2191;" horiz-adv-x="2048" 
d="M1098 995q-157 -236 -473 -299v226q88 25 156.5 53t135 71t110.5 95t70.5 125t26.5 161v7h127v-7q0 -88 26.5 -161t71 -125t110.5 -95t135.5 -71t156.5 -53v-226q-316 63 -473 299v-995h-180v995z" />
    <glyph glyph-name="arrowright" unicode="&#x2192;" horiz-adv-x="2048" 
d="M1167 143q63 316 299 473h-995v181h995q-236 157 -299 473h226q25 -87 53 -156.5t71 -135.5t95 -110.5t125 -71t161 -26.5h7v-127h-7q-88 0 -161 -27t-125 -70.5t-95 -110.5t-71 -135.5t-53 -156.5h-226z" />
    <glyph glyph-name="arrowdown" unicode="&#x2193;" horiz-adv-x="2048" 
d="M1124 6q0 88 -26.5 161.5t-70.5 125t-110.5 94.5t-135 71.5t-156.5 53.5v225q316 -63 473 -299v996h180v-996q157 236 473 299v-225q-87 -24 -156.5 -52.5t-135.5 -71.5t-110.5 -95.5t-71 -125.5t-26.5 -161v-6h-127v6z" />
    <glyph glyph-name="uni2196" unicode="&#x2196;" horiz-adv-x="2048" 
d="M918 825q58 -273 -123 -544l-158 157q44 80 73 149t45.5 146.5t10.5 145.5t-39 138.5t-96 133.5l-4 4l90 90l4 -4q63 -63 133.5 -96t138.5 -39t145 10.5t145.5 45.5t148.5 73l159 -158q-271 -181 -544 -123l702 -704l-127 -127z" />
    <glyph glyph-name="uni2197" unicode="&#x2197;" horiz-adv-x="2048" 
d="M627 250l702 704q-135 -29 -274.5 3.5t-270.5 119.5l160 158q80 -44 148.5 -73t145.5 -45.5t145 -10.5t138.5 39t133.5 96l4 4l90 -90l-4 -4q-63 -63 -96 -133.5t-39 -138.5t10.5 -145.5t45.5 -146.5t73 -149l-158 -157q-181 271 -123 544l-704 -702z" />
    <glyph glyph-name="uni2198" unicode="&#x2198;" horiz-adv-x="2048" 
d="M1655 147q-78 78 -165.5 111.5t-180.5 23.5t-178.5 -41t-186.5 -87l-160 157q131 87 270.5 119.5t274.5 3.5l-702 705l127 127l704 -703q-29 135 3.5 274.5t119.5 270.5l158 -158q-44 -80 -73 -149t-45.5 -146.5t-10.5 -145t39 -138t96 -133.5l4 -5l-90 -90z" />
    <glyph glyph-name="uni2199" unicode="&#x2199;" horiz-adv-x="2048" 
d="M627 233l4 5q63 63 96 133.5t39 138t-10.5 145t-45.5 146.5t-73 149l158 158q87 -131 119.5 -270.5t3.5 -274.5l704 703l127 -127l-702 -705q273 58 544 -123l-159 -157q-101 56 -186.5 87t-178.5 41t-180.5 -23.5t-165.5 -111.5l-4 -4z" />
    <glyph glyph-name="minus" unicode="&#x2212;" horiz-adv-x="911" 
d="M174 745h789v-159h-789v159z" />
    <glyph glyph-name="approxequal" unicode="&#x2248;" horiz-adv-x="911" 
d="M715 371q-82 0 -187 59q-7 4 -19.5 10t-17.5 8.5t-14.5 7t-13 6t-10.5 4t-10.5 3.5t-8.5 2.5t-8.5 2t-8 1t-9.5 0.5q-72 0 -121 -100l-113 69q30 91 95 140t151 49q41 0 81.5 -13.5t106.5 -48.5q77 -43 117 -43q41 0 69.5 23.5t53.5 75.5l115 -70q-30 -90 -95.5 -138
t-152.5 -48zM715 694q-80 0 -187 60q-54 29 -75.5 37t-44.5 8q-74 0 -121 -99l-113 70q30 90 95 138t151 48q42 0 82.5 -13t105.5 -48q49 -26 72 -34.5t45 -8.5q40 0 69 23.5t54 74.5l115 -69q-30 -91 -96 -139t-152 -48z" />
    <glyph glyph-name="notequal" unicode="&#x2260;" horiz-adv-x="911" 
d="M317 416h-143v155h248l127 189h-375v160h481l103 151h164l-103 -151h144v-160h-250l-127 -189h377v-155h-482l-102 -156h-164z" />
    <glyph glyph-name="lessequal" unicode="&#x2264;" horiz-adv-x="911" 
d="M174 344h789v-160h-789v160zM174 705v147l715 336l67 -141l-575 -267l575 -268l-65 -141z" />
    <glyph glyph-name="greaterequal" unicode="&#x2265;" horiz-adv-x="911" 
d="M174 344h789v-160h-789v160zM180 512l574 268l-574 267l68 141l715 -336v-147l-717 -334z" />
    <glyph glyph-name="uniF6D1" unicode="&#xf6d1;" horiz-adv-x="591" 
d="M489 1061q-124 0 -192.5 77t-58.5 205h151q-6 -68 25.5 -108.5t87.5 -40.5q55 0 92 40.5t43 108.5h151q-10 -128 -92.5 -205t-206.5 -77z" />
    <glyph glyph-name="uniF6D4" unicode="&#xf6d4;" horiz-adv-x="571" 
d="M477 1061q-119 0 -184 76.5t-55 205.5h151q-6 -68 22 -108.5t78 -40.5q53 0 87 40.5t40 108.5h152q-12 -130 -91 -206t-200 -76z" />
    <glyph glyph-name="s_t" unicode="&#xfb06;" horiz-adv-x="1660" 
d="M508 -23q-141 0 -254 61t-174 171l137 108q105 -180 303 -180q79 0 129.5 32t50.5 87q0 41 -41 71.5t-135 63.5q-155 54 -226 120.5t-71 158.5q0 132 96.5 213.5t247.5 81.5q73 0 164 -27q-30 99 -30 166q0 164 120 270.5t289 106.5q165 0 266 -89.5t101 -226.5
q0 -128 -82 -223h317l-28 -160h-269l-90 -489q-4 -28 -4 -43q0 -113 123 -113q68 0 131 47l61 -121q-100 -86 -229 -86q-126 0 -194 68.5t-68 183.5q0 27 4 45l90 508h-143l24 160q75 0 132 59.5t57 147.5q0 81 -53 130.5t-148 49.5q-100 0 -167.5 -68t-67.5 -182
q0 -69 22 -156.5t64 -156.5l-132 -107q-105 146 -280 146q-67 0 -105 -29.5t-38 -79.5q0 -41 39.5 -71.5t132.5 -61.5q158 -54 229.5 -121t71.5 -159q0 -137 -106.5 -221.5t-266.5 -84.5z" />
    <glyph glyph-name="c_h" horiz-adv-x="2101" 
d="M610 -23q-198 0 -326 128t-128 317q0 147 73.5 272.5t197 198t265.5 72.5q79 0 164 -29q-7 25 -14.5 78.5t-7.5 83.5q0 164 115.5 273.5t275.5 109.5q146 0 233.5 -81.5t87.5 -211.5q0 -38 -4 -55l-51 -283q121 115 270 115q144 0 235 -95.5t91 -238.5q0 -40 -6 -64
l-101 -567h-176l97 545q0 8 2 14q0 4 1 15t1 16q0 95 -57.5 155t-155.5 60t-164.5 -63.5t-85.5 -172.5l-99 -569h-176l203 1149q2 16 2 27q0 71 -44 112t-118 41q-89 0 -146.5 -73t-57.5 -189q0 -75 25 -169t63 -165l-144 -98q-90 164 -272 164q-140 0 -239 -107t-99 -262
q0 -126 80 -206.5t213 -80.5q144 0 264 117l100 -115q-76 -79 -177 -123.5t-210 -44.5z" />
    <glyph glyph-name="c_k" horiz-adv-x="1949" 
d="M610 -23q-198 0 -326 128t-128 317q0 147 73.5 272.5t197 198t265.5 72.5q79 0 164 -29q-7 25 -14.5 78.5t-7.5 83.5q0 164 115.5 273.5t275.5 109.5q146 0 233.5 -81.5t87.5 -211.5q0 -38 -4 -55l-110 -629l462 438h236l-500 -467l324 -475h-221l-310 457l-80 -457h-176
l203 1149q2 16 2 27q0 71 -44 112t-118 41q-89 0 -146.5 -73t-57.5 -189q0 -168 88 -334l-144 -98q-90 164 -272 164q-140 0 -239 -107t-99 -262q0 -126 80 -206.5t213 -80.5q144 0 264 117l100 -115q-76 -79 -177 -123.5t-210 -44.5z" />
    <glyph glyph-name="c_t" horiz-adv-x="1787" 
d="M610 -23q-198 0 -326 128t-128 317q0 147 73.5 272.5t197 198t265.5 72.5q91 0 170 -31q-11 24 -19.5 71.5t-8.5 81.5q0 171 121 282.5t300 111.5q161 0 262 -89.5t101 -226.5q0 -129 -84 -223h311l-28 -160h-269l-90 -489q-4 -28 -4 -43q0 -113 123 -113q68 0 131 47
l61 -121q-100 -86 -229 -86q-126 0 -194 68.5t-68 183.5q0 27 4 45l90 508h-143q7 52 14 80q2 9 4.5 22.5t4 21.5t3.5 16t3.5 11.5t3.5 2.5q69 -5 127.5 60t58.5 155q0 77 -54.5 127.5t-146.5 50.5q-99 0 -171 -72.5t-72 -195.5q0 -182 92 -326l-146 -100q-90 164 -272 164
q-140 0 -239 -107t-99 -262q0 -126 80 -206.5t213 -80.5q144 0 264 117l100 -115q-76 -79 -177 -123.5t-210 -44.5z" />
    <glyph glyph-name="s_p" horiz-adv-x="2072" 
d="M1206 934q58 29 85.5 86.5t27.5 126.5q0 82 -56 132t-149 50q-104 0 -170.5 -71.5t-66.5 -184.5q0 -71 23.5 -157.5t62.5 -149.5l-132 -107q-105 146 -280 146q-67 0 -105 -29.5t-38 -79.5q0 -41 39.5 -71.5t132.5 -61.5q158 -54 229.5 -121t71.5 -159
q0 -137 -106.5 -221.5t-266.5 -84.5q-141 0 -254 61t-174 171l137 108q105 -180 303 -180q79 0 129.5 32t50.5 87q0 41 -41 71.5t-135 63.5q-155 54 -226 120.5t-71 158.5q0 132 96.5 213.5t247.5 81.5q80 0 166 -27q-11 21 -21.5 76.5t-10.5 87.5q0 112 57 199.5t150 133.5
t204 46q165 0 270 -89t105 -229q0 -146 -123 -266l-12 -70q135 138 315 138q178 0 295 -126.5t117 -312.5q0 -111 -43 -213t-114 -175.5t-165 -117t-192 -43.5q-106 0 -191.5 49.5t-134.5 131.5l-110 -627h-177zM1565 143q134 0 237 108t103 263q0 124 -80.5 204.5
t-206.5 80.5q-138 0 -238 -105.5t-100 -261.5q0 -119 80.5 -204t204.5 -85z" />
    <glyph glyph-name="I.alt" horiz-adv-x="710" 
d="M98 160h189l186 1052h-188l28 160h568l-29 -160h-188l-187 -1052h189l-27 -160h-567z" />
    <glyph glyph-name="a.alt" horiz-adv-x="1165" 
d="M563 -23q-176 0 -291.5 128.5t-115.5 312.5q0 148 70.5 274.5t188.5 199.5t253 73q110 0 195 -48t136 -135l29 160h170l-166 -942h-170l21 121q-65 -68 -147.5 -106t-172.5 -38zM621 143q138 0 237.5 106t99.5 263q0 126 -79 206.5t-205 80.5q-136 0 -236 -107t-100 -264
q0 -117 79.5 -201t203.5 -84z" />
    <glyph glyph-name="g.alt" horiz-adv-x="1165" 
d="M621 143q138 0 237.5 106t99.5 263q0 126 -79 206.5t-205 80.5q-136 0 -236 -107t-100 -264q0 -117 79.5 -201t203.5 -84zM518 -512q-135 0 -241.5 56.5t-163.5 158.5l145 102q77 -151 266 -151q121 2 209 75t111 199l33 193q-137 -144 -314 -144q-176 0 -291.5 128.5
t-115.5 312.5q0 148 70.5 274.5t188.5 199.5t253 73q110 0 195 -48t136 -135l29 160h170l-180 -1030q-32 -190 -171 -307t-329 -117z" />
    <glyph glyph-name="l.alt" horiz-adv-x="593" 
d="M430 -23q-118 0 -185 67.5t-67 184.5q0 25 2 33q0 10 2 14l207 1178h176l-207 -1175q-2 -4 -2 -15q-2 -8 -2 -20q0 -47 24.5 -74.5t67.5 -32.5q70 0 123 41l62 -123q-100 -78 -201 -78z" />
    <glyph glyph-name="y.alt" 
d="M438 -512q-123 0 -221.5 56t-155.5 159l146 104q77 -153 244 -153q111 0 193.5 76t105.5 204l28 162q-125 -119 -270 -119q-147 0 -236.5 95.5t-89.5 242.5q0 19 4 47l103 580h176l-96 -547q-4 -28 -4 -43q0 -99 55 -154t158 -55q96 0 163 61t84 169l101 569h176
l-180 -1026q-32 -190 -167.5 -309t-316.5 -119z" />
    <glyph glyph-name="Igrave.alt" horiz-adv-x="710" 
d="M98 160h189l186 1052h-188l28 160h568l-29 -160h-188l-187 -1052h189l-27 -160h-567zM379 1769l141 93l168 -326l-104 -68z" />
    <glyph glyph-name="Iacute.alt" horiz-adv-x="710" 
d="M98 160h189l186 1052h-188l28 160h568l-29 -160h-188l-187 -1052h189l-27 -160h-567zM541 1540l278 322l121 -109l-301 -297z" />
    <glyph glyph-name="Icircumflex.alt" horiz-adv-x="710" 
d="M98 160h189l186 1052h-188l28 160h568l-29 -160h-188l-187 -1052h189l-27 -160h-567zM334 1614l325 192l256 -192l-81 -103l-189 138l-260 -152z" />
    <glyph glyph-name="Idieresis.alt" horiz-adv-x="710" 
d="M98 160h189l186 1052h-188l28 160h568l-29 -160h-188l-187 -1052h189l-27 -160h-567zM438 1550q-50 0 -80 30.5t-30 78.5q0 50 39 88.5t92 38.5q46 0 77 -32.5t31 -76.5q0 -54 -37.5 -90.5t-91.5 -36.5zM823 1550q-46 0 -76 31.5t-30 75.5q0 49 38 89t89 40
q47 0 78.5 -32t31.5 -77q0 -54 -39.5 -90.5t-91.5 -36.5z" />
    <glyph glyph-name="agrave.alt" horiz-adv-x="1165" 
d="M563 -23q-176 0 -291.5 128.5t-115.5 312.5q0 148 70.5 274.5t188.5 199.5t253 73q110 0 195 -48t136 -135l29 160h170l-166 -942h-170l21 121q-65 -68 -147.5 -106t-172.5 -38zM621 143q138 0 237.5 106t99.5 263q0 126 -79 206.5t-205 80.5q-136 0 -236 -107t-100 -264
q0 -117 79.5 -201t203.5 -84zM494 1339l141 93l168 -326l-105 -68z" />
    <glyph glyph-name="aacute.alt" horiz-adv-x="1165" 
d="M563 -23q-176 0 -291.5 128.5t-115.5 312.5q0 148 70.5 274.5t188.5 199.5t253 73q110 0 195 -48t136 -135l29 160h170l-166 -942h-170l21 121q-65 -68 -147.5 -106t-172.5 -38zM621 143q138 0 237.5 106t99.5 263q0 126 -79 206.5t-205 80.5q-136 0 -236 -107t-100 -264
q0 -117 79.5 -201t203.5 -84zM672 1110l278 322l121 -109l-301 -297z" />
    <glyph glyph-name="acircumflex.alt" horiz-adv-x="1165" 
d="M563 -23q-176 0 -291.5 128.5t-115.5 312.5q0 148 70.5 274.5t188.5 199.5t253 73q110 0 195 -48t136 -135l29 160h170l-166 -942h-170l21 121q-65 -68 -147.5 -106t-172.5 -38zM621 143q138 0 237.5 106t99.5 263q0 126 -79 206.5t-205 80.5q-136 0 -236 -107t-100 -264
q0 -117 79.5 -201t203.5 -84zM479 1184l326 192l256 -192l-82 -103l-188 138l-261 -152z" />
    <glyph glyph-name="atilde.alt" horiz-adv-x="1165" 
d="M563 -23q-176 0 -291.5 128.5t-115.5 312.5q0 148 70.5 274.5t188.5 199.5t253 73q110 0 195 -48t136 -135l29 160h170l-166 -942h-170l21 121q-65 -68 -147.5 -106t-172.5 -38zM621 143q138 0 237.5 106t99.5 263q0 126 -79 206.5t-205 80.5q-136 0 -236 -107t-100 -264
q0 -117 79.5 -201t203.5 -84zM467 1202q36 70 91 109t120 39q38 0 101.5 -36t101.5 -36q49 0 96 72l100 -76q-36 -70 -87.5 -109t-110.5 -39q-49 0 -86.5 18t-67 36t-59.5 18q-52 0 -99 -72z" />
    <glyph glyph-name="adieresis.alt" horiz-adv-x="1165" 
d="M563 -23q-176 0 -291.5 128.5t-115.5 312.5q0 148 70.5 274.5t188.5 199.5t253 73q110 0 195 -48t136 -135l29 160h170l-166 -942h-170l21 121q-65 -68 -147.5 -106t-172.5 -38zM621 143q138 0 237.5 106t99.5 263q0 126 -79 206.5t-205 80.5q-136 0 -236 -107t-100 -264
q0 -117 79.5 -201t203.5 -84zM569 1120q-50 0 -80 30.5t-30 78.5q0 50 39 88.5t92 38.5q46 0 77 -32.5t31 -76.5q0 -54 -37.5 -90.5t-91.5 -36.5zM954 1120q-46 0 -76 31.5t-30 75.5q0 49 38 89t89 40q47 0 78.5 -32t31.5 -77q0 -54 -39.5 -90.5t-91.5 -36.5z" />
    <glyph glyph-name="aring.alt" horiz-adv-x="1165" 
d="M563 -23q-176 0 -291.5 128.5t-115.5 312.5q0 148 70.5 274.5t188.5 199.5t253 73q110 0 195 -48t136 -135l29 160h170l-166 -942h-170l21 121q-65 -68 -147.5 -106t-172.5 -38zM621 143q138 0 237.5 106t99.5 263q0 126 -79 206.5t-205 80.5q-136 0 -236 -107t-100 -264
q0 -117 79.5 -201t203.5 -84zM750 1014q-89 0 -146 54.5t-57 133.5q0 95 69 160t162 65q89 0 147 -55.5t58 -134.5q0 -91 -70 -157t-163 -66zM760 1126q42 0 71 28.5t29 74.5q0 36 -24 61t-64 25q-43 0 -73.5 -29.5t-30.5 -75.5q0 -34 26 -59t66 -25z" />
    <glyph glyph-name="yacute.alt" 
d="M438 -512q-123 0 -221.5 56t-155.5 159l146 104q77 -153 244 -153q111 0 193.5 76t105.5 204l28 162q-125 -119 -270 -119q-147 0 -236.5 95.5t-89.5 242.5q0 19 4 47l103 580h176l-96 -547q-4 -28 -4 -43q0 -99 55 -154t158 -55q96 0 163 61t84 169l101 569h176
l-180 -1026q-32 -190 -167.5 -309t-316.5 -119zM635 1110l278 322l121 -109l-301 -297z" />
    <glyph glyph-name="ydieresis.alt" 
d="M438 -512q-123 0 -221.5 56t-155.5 159l146 104q77 -153 244 -153q111 0 193.5 76t105.5 204l28 162q-125 -119 -270 -119q-147 0 -236.5 95.5t-89.5 242.5q0 19 4 47l103 580h176l-96 -547q-4 -28 -4 -43q0 -99 55 -154t158 -55q96 0 163 61t84 169l101 569h176
l-180 -1026q-32 -190 -167.5 -309t-316.5 -119zM524 1120q-50 0 -80 30.5t-30 78.5q0 50 39 88.5t92 38.5q46 0 77 -32.5t31 -76.5q0 -54 -37.5 -90.5t-91.5 -36.5zM909 1120q-46 0 -76 31.5t-30 75.5q0 49 38 89t89 40q47 0 78.5 -32t31.5 -77q0 -54 -39.5 -90.5
t-91.5 -36.5z" />
    <glyph glyph-name="amacron.alt" horiz-adv-x="1165" 
d="M563 -23q-176 0 -291.5 128.5t-115.5 312.5q0 148 70.5 274.5t188.5 199.5t253 73q110 0 195 -48t136 -135l29 160h170l-166 -942h-170l21 121q-65 -68 -147.5 -106t-172.5 -38zM621 143q138 0 237.5 106t99.5 263q0 126 -79 206.5t-205 80.5q-136 0 -236 -107t-100 -264
q0 -117 79.5 -201t203.5 -84zM559 1307h455l-25 -144h-454z" />
    <glyph glyph-name="abreve.alt" horiz-adv-x="1165" 
d="M563 -23q-176 0 -291.5 128.5t-115.5 312.5q0 148 70.5 274.5t188.5 199.5t253 73q110 0 195 -48t136 -135l29 160h170l-166 -942h-170l21 121q-65 -68 -147.5 -106t-172.5 -38zM621 143q138 0 237.5 106t99.5 263q0 126 -79 206.5t-205 80.5q-136 0 -236 -107t-100 -264
q0 -117 79.5 -201t203.5 -84zM743 1065q-118 0 -183 74.5t-54 199.5h139q-6 -62 25 -99.5t86 -37.5q56 0 93.5 37t43.5 100h139q-10 -126 -89.5 -200t-199.5 -74z" />
    <glyph glyph-name="aogonek.alt" horiz-adv-x="1165" 
d="M621 143q138 0 237.5 106t99.5 263q0 126 -79 206.5t-205 80.5q-136 0 -236 -107t-100 -264q0 -117 79.5 -201t203.5 -84zM848 -522q-121 0 -189.5 55.5t-68.5 149.5q0 185 284 317h-12l21 121q-65 -68 -147.5 -106t-172.5 -38q-176 0 -291.5 128.5t-115.5 312.5
q0 148 70.5 274.5t188.5 199.5t253 73q110 0 195 -48t136 -135l29 160h170l-166 -942q-158 -86 -218 -151.5t-60 -133.5q0 -43 35.5 -70.5t99.5 -27.5q29 0 69 6l-24 -137q-36 -8 -86 -8z" />
    <glyph glyph-name="gcircumflex.alt" horiz-adv-x="1165" 
d="M621 143q138 0 237.5 106t99.5 263q0 126 -79 206.5t-205 80.5q-136 0 -236 -107t-100 -264q0 -117 79.5 -201t203.5 -84zM518 -512q-135 0 -241.5 56.5t-163.5 158.5l145 102q77 -151 266 -151q121 2 209 75t111 199l33 193q-137 -144 -314 -144q-176 0 -291.5 128.5
t-115.5 312.5q0 148 70.5 274.5t188.5 199.5t253 73q110 0 195 -48t136 -135l29 160h170l-180 -1030q-32 -190 -171 -307t-329 -117zM477 1184l326 192l256 -192l-82 -103l-189 138l-260 -152z" />
    <glyph glyph-name="gbreve.alt" horiz-adv-x="1165" 
d="M621 143q138 0 237.5 106t99.5 263q0 126 -79 206.5t-205 80.5q-136 0 -236 -107t-100 -264q0 -117 79.5 -201t203.5 -84zM518 -512q-135 0 -241.5 56.5t-163.5 158.5l145 102q77 -151 266 -151q121 2 209 75t111 199l33 193q-137 -144 -314 -144q-176 0 -291.5 128.5
t-115.5 312.5q0 148 70.5 274.5t188.5 199.5t253 73q110 0 195 -48t136 -135l29 160h170l-180 -1030q-32 -190 -171 -307t-329 -117zM750 1065q-119 0 -183.5 75t-54.5 199h139q-6 -62 25 -99.5t86 -37.5q56 0 93.5 37t43.5 100h139q-10 -126 -89 -200t-199 -74z" />
    <glyph glyph-name="gdotaccent.alt" horiz-adv-x="1165" 
d="M621 143q138 0 237.5 106t99.5 263q0 126 -79 206.5t-205 80.5q-136 0 -236 -107t-100 -264q0 -117 79.5 -201t203.5 -84zM518 -512q-135 0 -241.5 56.5t-163.5 158.5l145 102q77 -151 266 -151q121 2 209 75t111 199l33 193q-137 -144 -314 -144q-176 0 -291.5 128.5
t-115.5 312.5q0 148 70.5 274.5t188.5 199.5t253 73q110 0 195 -48t136 -135l29 160h170l-180 -1030q-32 -190 -171 -307t-329 -117zM764 1120q-50 0 -80.5 30.5t-30.5 78.5q0 50 39 88.5t92 38.5q46 0 77.5 -32.5t31.5 -76.5q0 -54 -37.5 -90.5t-91.5 -36.5z" />
    <glyph glyph-name="gcommaaccent.alt" horiz-adv-x="1165" 
d="M621 143q138 0 237.5 106t99.5 263q0 126 -79 206.5t-205 80.5q-136 0 -236 -107t-100 -264q0 -117 79.5 -201t203.5 -84zM518 -512q-135 0 -241.5 56.5t-163.5 158.5l145 102q77 -151 266 -151q121 2 209 75t111 199l33 193q-137 -144 -314 -144q-176 0 -291.5 128.5
t-115.5 312.5q0 148 70.5 274.5t188.5 199.5t253 73q110 0 195 -48t136 -135l29 160h170l-180 -1030q-32 -190 -171 -307t-329 -117zM684 1104l203 393l110 -31l-157 -409z" />
    <glyph glyph-name="Imacron.alt" horiz-adv-x="710" 
d="M98 160h189l186 1052h-188l28 160h568l-29 -160h-188l-187 -1052h189l-27 -160h-567zM422 1737h455l-25 -144h-455z" />
    <glyph glyph-name="Ibreve.alt" horiz-adv-x="710" 
d="M98 160h189l186 1052h-188l28 160h568l-29 -160h-188l-187 -1052h189l-27 -160h-567zM612 1495q-118 0 -183 74.5t-54 199.5h139q-6 -62 25 -99.5t86 -37.5q56 0 93.5 37t43.5 100h139q-10 -126 -89.5 -200t-199.5 -74z" />
    <glyph glyph-name="Iogonek.alt" horiz-adv-x="710" 
d="M455 -522q-121 0 -189.5 55.5t-68.5 149.5q0 191 274 317h-399l26 160h189l186 1052h-188l28 160h568l-29 -160h-188l-187 -1052h189l-27 -160q-159 -86 -219 -151.5t-60 -133.5q0 -43 36 -70.5t100 -27.5q28 0 69 6l-24 -137q-36 -8 -86 -8z" />
    <glyph glyph-name="Idotaccent.alt" horiz-adv-x="710" 
d="M98 160h189l186 1052h-188l28 160h568l-29 -160h-188l-187 -1052h189l-27 -160h-567zM623 1550q-50 0 -80.5 30.5t-30.5 78.5q0 50 39 88.5t92 38.5q46 0 77.5 -32.5t31.5 -76.5q0 -54 -37.5 -90.5t-91.5 -36.5z" />
    <glyph glyph-name="lacute.alt" horiz-adv-x="595" 
d="M432 -23q-118 0 -185 67.5t-67 184.5q0 25 2 33q0 10 2 14l207 1178h176l-207 -1175q-2 -4 -2 -15q-2 -8 -2 -20q0 -47 25 -74.5t68 -32.5q69 0 122 41l62 -123q-100 -78 -201 -78zM428 1581l279 322l120 -109l-301 -297z" />
    <glyph glyph-name="lcommaaccent.alt" horiz-adv-x="593" 
d="M430 -23q-118 0 -185 67.5t-67 184.5q0 25 2 33q0 10 2 14l207 1178h176l-207 -1175q-2 -4 -2 -15q-2 -8 -2 -20q0 -47 24.5 -74.5t67.5 -32.5q70 0 123 41l62 -123q-100 -78 -201 -78zM127 -510l154 408l157 -43l-200 -398z" />
    <glyph glyph-name="lcaron.alt" horiz-adv-x="651" 
d="M430 -23q-118 0 -185 67.5t-67 184.5q0 25 2 33q0 10 2 14l207 1178h176l-207 -1175q-2 -4 -2 -15q-2 -8 -2 -20q0 -47 24.5 -74.5t67.5 -32.5q70 0 123 41l62 -123q-100 -78 -201 -78zM602 1100l141 379l158 -41l-184 -367z" />
    <glyph glyph-name="ldot.alt" horiz-adv-x="696" 
d="M686 631q-50 0 -82.5 32t-32.5 80q0 52 40 93t94 41q51 0 83.5 -31.5t32.5 -79.5q0 -56 -40 -95.5t-95 -39.5zM430 -23q-118 0 -185 67.5t-67 184.5q0 25 2 33q0 10 2 14l207 1178h176l-207 -1175q-2 -4 -2 -15q-2 -8 -2 -20q0 -47 24.5 -74.5t67.5 -32.5q70 0 123 41
l62 -123q-100 -78 -201 -78z" />
    <glyph glyph-name="lslash.alt" horiz-adv-x="634" 
d="M455 -23q-118 0 -185 67.5t-67 184.5q0 25 2 33q0 10 2 14l61 351l-151 -80l30 182l152 80l115 645h176l-96 -545l208 111l-30 -182l-211 -111l-78 -448q-2 -4 -2 -15q-2 -8 -2 -20q0 -47 24.5 -74.5t67.5 -32.5q70 0 123 41l61 -123q-100 -78 -200 -78z" />
    <glyph glyph-name="ycircumflex.alt" 
d="M438 -512q-123 0 -221.5 56t-155.5 159l146 104q77 -153 244 -153q111 0 193.5 76t105.5 204l28 162q-125 -119 -270 -119q-147 0 -236.5 95.5t-89.5 242.5q0 19 4 47l103 580h176l-96 -547q-4 -28 -4 -43q0 -99 55 -154t158 -55q96 0 163 61t84 169l101 569h176
l-180 -1026q-32 -190 -167.5 -309t-316.5 -119zM432 1184l326 192l256 -192l-82 -103l-189 138l-260 -152z" />
    <glyph glyph-name="aringacute.alt" horiz-adv-x="1165" 
d="M563 -23q-176 0 -291.5 128.5t-115.5 312.5q0 148 70.5 274.5t188.5 199.5t253 73q110 0 195 -48t136 -135l29 160h170l-166 -942h-170l21 121q-65 -68 -147.5 -106t-172.5 -38zM621 143q138 0 237.5 106t99.5 263q0 126 -79 206.5t-205 80.5q-136 0 -236 -107t-100 -264
q0 -117 79.5 -201t203.5 -84zM774 1016q-89 0 -146 53.5t-57 132.5q0 94 69.5 157.5t162.5 63.5q90 0 147.5 -53.5t57.5 -132.5q0 -91 -70 -156t-164 -65zM784 1128q43 0 72 27.5t29 73.5q0 36 -24 59t-64 23q-43 0 -74 -27.5t-31 -73.5q0 -33 26 -57.5t66 -24.5zM741 1559
l365 213l59 -140l-377 -180z" />
    <glyph glyph-name="uni0233.alt" 
d="M438 -512q-123 0 -221.5 56t-155.5 159l146 104q77 -153 244 -153q111 0 193.5 76t105.5 204l28 162q-125 -119 -270 -119q-147 0 -236.5 95.5t-89.5 242.5q0 19 4 47l103 580h176l-96 -547q-4 -28 -4 -43q0 -99 55 -154t158 -55q96 0 163 61t84 169l101 569h176
l-180 -1026q-32 -190 -167.5 -309t-316.5 -119zM514 1307h455l-25 -144h-455z" />
    <glyph glyph-name="uni0406.alt" horiz-adv-x="710" 
d="M98 160h189l186 1052h-188l28 160h568l-29 -160h-188l-187 -1052h189l-27 -160h-567z" />
    <glyph glyph-name="uni0407.alt" horiz-adv-x="710" 
d="M98 160h189l186 1052h-188l28 160h568l-29 -160h-188l-187 -1052h189l-27 -160h-567zM432 1550q-50 0 -80 30.5t-30 78.5q0 50 39 88.5t92 38.5q46 0 77 -32.5t31 -76.5q0 -54 -37.5 -90.5t-91.5 -36.5zM817 1550q-46 0 -76 31.5t-30 75.5q0 49 38 89t89 40
q47 0 78.5 -32t31.5 -77q0 -54 -39.5 -90.5t-91.5 -36.5z" />
    <glyph glyph-name="uni0430.alt" horiz-adv-x="1165" 
d="M563 -23q-176 0 -291.5 128.5t-115.5 312.5q0 148 70.5 274.5t188.5 199.5t253 73q110 0 195 -48t136 -135l29 160h170l-166 -942h-170l21 121q-65 -68 -147.5 -106t-172.5 -38zM621 143q138 0 237.5 106t99.5 263q0 126 -79 206.5t-205 80.5q-136 0 -236 -107t-100 -264
q0 -117 79.5 -201t203.5 -84z" />
    <glyph glyph-name="uni0443.alt" 
d="M438 -512q-123 0 -221.5 56t-155.5 159l146 104q77 -153 244 -153q111 0 193.5 76t105.5 204l28 162q-125 -119 -270 -119q-147 0 -236.5 95.5t-89.5 242.5q0 19 4 47l103 580h176l-96 -547q-4 -28 -4 -43q0 -99 55 -154t158 -55q96 0 163 61t84 169l101 569h176
l-180 -1026q-32 -190 -167.5 -309t-316.5 -119z" />
    <glyph glyph-name="uni045E.alt" 
d="M438 -512q-123 0 -221.5 56t-155.5 159l146 104q77 -153 244 -153q111 0 193.5 76t105.5 204l28 162q-125 -119 -270 -119q-147 0 -236.5 95.5t-89.5 242.5q0 19 4 47l103 580h176l-96 -547q-4 -28 -4 -43q0 -99 55 -154t158 -55q96 0 163 61t84 169l101 569h176
l-180 -1026q-32 -190 -167.5 -309t-316.5 -119zM707 1061q-119 0 -184.5 76.5t-55.5 205.5h151q-6 -68 22.5 -108.5t78.5 -40.5q53 0 87 40.5t40 108.5h151q-12 -130 -90.5 -206t-199.5 -76z" />
    <glyph glyph-name="ygrave.alt" 
d="M438 -512q-123 0 -221.5 56t-155.5 159l146 104q77 -153 244 -153q111 0 193.5 76t105.5 204l28 162q-125 -119 -270 -119q-147 0 -236.5 95.5t-89.5 242.5q0 19 4 47l103 580h176l-96 -547q-4 -28 -4 -43q0 -99 55 -154t158 -55q96 0 163 61t84 169l101 569h176
l-180 -1026q-32 -190 -167.5 -309t-316.5 -119zM473 1339l141 93l168 -326l-104 -68z" />
    <glyph glyph-name="fl.alt" horiz-adv-x="1212" 
d="M1049 -23q-118 0 -185 67.5t-67 184.5q0 25 2 33q0 10 2 14l78 449l65 371q2 16 2 30q0 75 -44 121.5t-122 46.5q-79 0 -134 -47.5t-68 -132.5l-31 -172h248l-29 -160h-248l-137 -782h-176l137 782h-143l28 160h144l32 186q25 146 131.5 236t253.5 90q153 0 244.5 -89
t91.5 -228q0 -4 -1 -13.5t-1 -13.5q-2 -6 -2 -14l-65 -371l-78 -446q-2 -4 -2 -15q-2 -8 -2 -20q0 -47 24.5 -74.5t67.5 -32.5q70 0 123 41l61 -123q-100 -78 -200 -78z" />
    <glyph glyph-name="ffl.alt" horiz-adv-x="1779" 
d="M1616 -23q-118 0 -185 67.5t-67 184.5q0 25 2 33q0 10 2 14l70 404l73 416q2 16 2 30q0 75 -43.5 121.5t-121.5 46.5q-79 0 -134.5 -47.5t-68.5 -132.5l-31 -172h248l-29 -160h-248l-137 -782h-176l137 782h-391l-137 -782h-176l137 782h-143l28 160h144l41 236
q24 126 107 201.5t204 74.5q162 0 250 -119l-119 -121q-31 43 -62.5 61.5t-74.5 18.5q-51 0 -85.5 -35.5t-45.5 -95.5l-39 -221h391l33 186q25 146 131.5 236t253.5 90q153 0 244.5 -89t91.5 -228q0 -4 -1 -13.5t-1 -13.5q-2 -6 -2 -14l-74 -416l-70 -401q-2 -4 -2 -15
q-2 -8 -2 -20q0 -47 24.5 -74.5t67.5 -32.5q70 0 123 41l62 -123q-100 -78 -201 -78z" />
    <glyph glyph-name="parenleft.case" horiz-adv-x="741" 
d="M539 -317q-134 154 -208.5 359.5t-74.5 424.5q0 341 171.5 662.5t453.5 519.5l102 -111q-244 -179 -395.5 -472t-151.5 -581q0 -190 65 -379t177 -333z" />
    <glyph glyph-name="parenright.case" horiz-adv-x="741" 
d="M-59 -207q244 179 395 472t151 581q0 190 -65 379.5t-176 333.5l139 90q134 -154 208.5 -360t74.5 -425q0 -341 -171.5 -662t-453.5 -519z" />
    <glyph glyph-name="hyphen.case" horiz-adv-x="624" 
d="M211 764h461l-31 -178h-461z" />
    <glyph glyph-name="colon.case" horiz-adv-x="512" 
d="M285 131q-53 0 -85 32.5t-32 80.5q0 52 39.5 92.5t93.5 40.5q53 0 85 -31.5t32 -79.5q0 -56 -39 -95.5t-94 -39.5zM416 852q-53 0 -85 32.5t-32 80.5q0 52 39.5 92.5t93.5 40.5q53 0 85 -31.5t32 -79.5q0 -57 -39.5 -96t-93.5 -39z" />
    <glyph glyph-name="at.case" horiz-adv-x="1943" 
d="M842 -195q-269 75 -437.5 284.5t-168.5 490.5q0 189 76 355t202.5 281t295 181.5t349.5 66.5q228 0 408 -90.5t278.5 -247.5t98.5 -352q0 -243 -117.5 -390.5t-284.5 -147.5q-175 0 -246 133q-117 -133 -276 -133q-142 0 -234 100.5t-92 243.5q0 111 56 208t148.5 154
t195.5 57q152 0 237 -104l17 86h157l-80 -434q-4 -28 -4 -43q0 -123 129 -123q92 0 158 100.5t66 276.5q0 246 -174 400.5t-455 154.5q-200 0 -369 -91t-271 -259t-102 -377q0 -218 147 -400t363 -235zM1063 381q101 0 176.5 74.5t75.5 181.5q0 91 -56.5 154t-150.5 63
q-100 0 -173 -77t-73 -187q0 -80 55.5 -144.5t145.5 -64.5z" />
    <glyph glyph-name="bracketleft.case" horiz-adv-x="663" 
d="M481 1597h408l-29 -159h-233l-277 -1565h234l-29 -160h-408z" />
    <glyph glyph-name="bracketright.case" horiz-adv-x="663" 
d="M-18 -127h233l277 1565h-234l29 159h407l-334 -1884h-405z" />
    <glyph glyph-name="braceleft.case" horiz-adv-x="673" 
d="M489 -287q-127 0 -197.5 89t-49.5 210l75 420q8 47 -28.5 95t-95.5 48h-15l27 160h35q60 0 100.5 38t54.5 106l76 440q23 130 108.5 204t213.5 74h96l-29 -159h-76q-54 0 -92 -35t-49 -92l-78 -447q-18 -84 -63.5 -138t-116.5 -67l-2 -8q64 -28 89.5 -87t14.5 -132
l-73 -420q-10 -61 19.5 -100t84.5 -39h66l-29 -160h-66z" />
    <glyph glyph-name="braceright.case" horiz-adv-x="673" 
d="M-8 -127h76q54 0 92 35t49 92l78 446q18 84 63.5 138t116.5 67l2 8q-64 28 -89.5 87.5t-14.5 132.5l73 419q10 61 -19.5 100.5t-84.5 39.5h-66l29 159h65q127 0 198 -89t50 -210l-75 -419q-8 -47 28.5 -95.5t95.5 -48.5h15l-27 -160h-35q-60 0 -100.5 -37.5t-54.5 -105.5
l-76 -440q-23 -130 -108.5 -204.5t-213.5 -74.5h-96z" />
    <glyph glyph-name="exclamdown.case" horiz-adv-x="512" 
d="M371 1012h139l-148 -1012h-200zM477 1139q-53 0 -85 31t-32 79q0 56 39.5 95.5t94.5 39.5q53 0 84.5 -32t31.5 -80q0 -52 -39.5 -92.5t-93.5 -40.5z" />
    <glyph glyph-name="guillemotleft.case" horiz-adv-x="956" 
d="M203 655l338 392l116 -91l-276 -315l154 -295l-132 -82zM559 655l340 392l113 -91l-273 -315l152 -295l-129 -82z" />
    <glyph glyph-name="periodcentered.case" horiz-adv-x="450" 
d="M326 545q-50 0 -82.5 32t-32.5 80q0 52 39.5 93t93.5 41q51 0 84 -31.5t33 -79.5q0 -56 -40 -95.5t-95 -39.5z" />
    <glyph glyph-name="guillemotright.case" horiz-adv-x="956" 
d="M135 354l273 316l-152 295l129 82l203 -392l-340 -391zM489 354l277 316l-154 295l131 82l201 -392l-338 -391z" />
    <glyph glyph-name="questiondown.case" horiz-adv-x="917" 
d="M532 -23q-167 0 -267.5 85t-100.5 219q0 109 63 189.5t219 160.5q102 54 140.5 92.5t38.5 85.5q0 57 -109 98l82 135q111 -36 165 -89t54 -130q0 -91 -57.5 -159t-200.5 -146q-114 -65 -158.5 -115t-44.5 -108q0 -64 57 -101.5t146 -37.5q143 0 256 116l105 -122
q-173 -173 -388 -173zM727 1139q-53 0 -85 31t-32 79q0 57 39 96t94 39q53 0 85 -32t32 -80q0 -52 -39.5 -92.5t-93.5 -40.5z" />
    <glyph glyph-name="endash.case" horiz-adv-x="993" 
d="M168 754h911l-26 -156h-912z" />
    <glyph glyph-name="emdash.case" horiz-adv-x="1443" 
d="M168 754h1362l-27 -156h-1362z" />
    <glyph glyph-name="bullet.case" horiz-adv-x="714" 
d="M455 516q-62 0 -103 39t-41 96q0 63 48.5 116.5t117.5 53.5q62 0 103 -39.5t41 -99.5q0 -68 -49.5 -117t-116.5 -49z" />
    <glyph glyph-name="guilsinglleft.case" horiz-adv-x="653" 
d="M182 655l449 394l98 -115l-336 -295l221 -277l-120 -100z" />
    <glyph glyph-name="guilsinglright.case" horiz-adv-x="653" 
d="M131 377l336 295l-221 276l121 101l311 -394l-449 -393z" />
    <glyph glyph-name="zero.dnom" horiz-adv-x="765" 
d="M391 -23q-128 0 -206.5 95t-78.5 243q0 200 112 336.5t263 136.5q124 0 203.5 -99t79.5 -234q0 -203 -111 -340.5t-262 -137.5zM399 123q79 0 140 95.5t61 236.5q0 87 -35 137.5t-96 50.5q-77 0 -138 -95.5t-61 -236.5q0 -30 6.5 -60.5t20 -60t40.5 -48.5t62 -19z" />
    <glyph glyph-name="one.dnom" horiz-adv-x="600" 
d="M371 539l-185 -117l-59 133l375 231h71l-137 -786h-160z" />
    <glyph glyph-name="two.dnom" horiz-adv-x="739" 
d="M66 80l292 215q125 91 163 137t38 100q0 52 -28.5 82.5t-81.5 30.5q-102 0 -152 -141l-147 53q41 111 122 171t189 60q120 0 192 -65.5t72 -167.5q0 -83 -55.5 -162t-196.5 -172l-115 -78h314l-25 -143h-594z" />
    <glyph glyph-name="three.dnom" horiz-adv-x="729" 
d="M371 -23q-110 0 -191.5 54.5t-101.5 142.5l141 68q35 -121 162 -121q58 0 96.5 33.5t38.5 89.5q0 48 -40.5 80t-102.5 32h-111l12 72l230 207h-291l25 131h514l-13 -70l-250 -233q88 -23 140.5 -82t52.5 -137q0 -116 -92 -191.5t-219 -75.5z" />
    <glyph glyph-name="four.dnom" horiz-adv-x="688" 
d="M383 113h-385l14 77l559 596h74l-94 -542h98l-24 -131h-99l-18 -113h-143zM408 244l43 245l-226 -245h183z" />
    <glyph glyph-name="five.dnom" horiz-adv-x="718" 
d="M356 -23q-110 0 -188 55t-98 146l139 70q11 -58 51.5 -92.5t99.5 -34.5q63 0 107.5 40t44.5 105q0 55 -42.5 89t-115.5 34q-31 0 -68 -15.5t-57 -35.5l-55 31l119 397h430l-25 -131h-305l-35 -125q23 10 74 10q110 0 178 -70t68 -171q0 -132 -94.5 -217t-227.5 -85z" />
    <glyph glyph-name="six.dnom" horiz-adv-x="684" 
d="M342 -23q-124 0 -199 70t-75 186q0 155 137.5 314.5t339.5 232.5l61 -116q-154 -61 -278 -189q44 19 92 19q101 0 167 -68.5t66 -165.5q0 -123 -90.5 -203t-220.5 -80zM348 109q62 0 104 40t42 105q0 51 -34.5 79.5t-94.5 28.5q-62 0 -101 -35.5t-39 -99.5
q0 -49 34 -83.5t89 -34.5z" />
    <glyph glyph-name="seven.dnom" horiz-adv-x="595" 
d="M500 623h-350l26 143h555l-12 -70l-432 -696h-174z" />
    <glyph glyph-name="eight.dnom" horiz-adv-x="747" 
d="M389 -23q-124 0 -205.5 67t-81.5 161q0 67 40.5 125t109.5 96q-57 57 -57 129q0 99 80 166t192 67q108 0 181 -62t73 -151q0 -56 -31 -103t-86 -77q86 -67 86 -166q0 -109 -89.5 -180.5t-211.5 -71.5zM395 109q61 0 100.5 37t39.5 92q0 48 -36.5 76t-101.5 28
q-58 0 -96.5 -33.5t-38.5 -89.5q0 -51 39 -80.5t94 -29.5zM455 467q46 0 76 27t30 73q0 37 -26.5 63.5t-71.5 26.5q-47 0 -79 -31t-32 -75q0 -36 28.5 -60t74.5 -24z" />
    <glyph glyph-name="nine.dnom" horiz-adv-x="681" 
d="M182 102q169 67 281 189q-59 -19 -94 -19q-103 0 -168.5 67t-65.5 163q0 124 91 205t218 81q124 0 199.5 -70t75.5 -183q0 -158 -136.5 -317t-338.5 -232zM424 403q61 0 99 36.5t38 101.5q0 49 -34 82.5t-89 33.5q-60 0 -101.5 -41.5t-41.5 -103.5q0 -48 35 -78.5
t94 -30.5z" />
    <glyph glyph-name="Iacute_J.loclNLD" horiz-adv-x="1462" 
d="M416 1372h190l-241 -1372h-191zM932 -23q-127 0 -216 57.5t-130 166.5l164 104q58 -149 196 -149q85 0 147.5 64.5t82.5 174.5l141 799h-385l33 178h575l-176 -993q-32 -183 -150 -292.5t-282 -109.5zM479 1540l279 322l121 -109l-301 -297zM1190 1540l278 322l121 -109
l-301 -297z" />
    <glyph glyph-name="iacute_j.loclNLD" horiz-adv-x="892" 
d="M301 942h176l-166 -942h-176zM422 -512q-129 0 -207 96l111 133q42 -63 96 -63q87 0 123 137l203 1151h176l-207 -1175q-24 -125 -103 -202t-192 -77zM350 1110l279 322l121 -109l-301 -297zM797 1110l278 322l121 -109l-301 -297z" />
    <glyph glyph-name="zero.numr" horiz-adv-x="765" 
d="M504 584q-128 0 -206.5 95t-78.5 243q0 200 112 336.5t263 136.5q124 0 203.5 -99.5t79.5 -234.5q0 -203 -111 -340t-262 -137zM512 729q79 0 140 95.5t61 236.5q0 87 -35 137.5t-96 50.5q-77 0 -138 -95t-61 -236q0 -42 10.5 -82t41.5 -73.5t77 -33.5z" />
    <glyph glyph-name="one.numr" horiz-adv-x="600" 
d="M483 1145l-184 -117l-59 133l374 232h72l-137 -787h-160z" />
    <glyph glyph-name="two.numr" horiz-adv-x="739" 
d="M178 686l293 215q125 91 163 137.5t38 100.5q0 52 -29 82t-82 30q-101 0 -151 -141l-148 53q41 111 122 171.5t189 60.5q120 0 192.5 -66t72.5 -168q0 -83 -55.5 -162t-196.5 -172l-115 -77h313l-24 -144h-594z" />
    <glyph glyph-name="three.numr" horiz-adv-x="729" 
d="M483 584q-110 0 -191.5 54t-101.5 142l142 68q35 -121 162 -121q58 0 96.5 33.5t38.5 89.5q0 48 -41 80.5t-103 32.5h-110l12 71l229 207h-290l24 131h514l-12 -69l-250 -234q88 -23 140.5 -82t52.5 -137q0 -115 -92.5 -190.5t-219.5 -75.5z" />
    <glyph glyph-name="four.numr" horiz-adv-x="688" 
d="M496 719h-385l14 78l559 596h74l-94 -543h98l-25 -131h-98l-18 -113h-144zM520 850l43 246l-225 -246h182z" />
    <glyph glyph-name="five.numr" horiz-adv-x="718" 
d="M469 584q-110 0 -188.5 54.5t-98.5 145.5l140 70q11 -58 51.5 -92.5t99.5 -34.5q63 0 107.5 40t44.5 105q0 55 -42.5 89t-115.5 34q-31 0 -68 -15.5t-57 -35.5l-55 31l119 397h430l-25 -131h-305l-35 -125q23 10 74 10q110 0 178 -70t68 -171q0 -132 -94.5 -216.5
t-227.5 -84.5z" />
    <glyph glyph-name="six.numr" horiz-adv-x="684" 
d="M455 584q-124 0 -199.5 70t-75.5 186q0 155 137.5 314t339.5 232l62 -116q-155 -62 -279 -189q44 19 92 19q101 0 167.5 -68.5t66.5 -165.5q0 -122 -90.5 -202t-220.5 -80zM461 715q61 0 103 40t42 105q0 51 -34.5 80t-94.5 29q-62 0 -100.5 -35.5t-38.5 -99.5
q0 -49 34 -84t89 -35z" />
    <glyph glyph-name="seven.numr" horiz-adv-x="595" 
d="M612 1229h-350l27 143h555l-13 -69l-432 -697h-174z" />
    <glyph glyph-name="eight.numr" horiz-adv-x="747" 
d="M502 584q-124 0 -205.5 66.5t-81.5 160.5q0 67 40.5 125t109.5 96q-58 58 -58 129q0 99 80.5 166.5t192.5 67.5q108 0 181 -62t73 -151q0 -56 -31 -103.5t-86 -77.5q86 -67 86 -165q0 -109 -89.5 -180.5t-211.5 -71.5zM508 715q61 0 100 37t39 92q0 48 -36 76t-101 28
q-58 0 -96.5 -33.5t-38.5 -89.5q0 -51 39 -80.5t94 -29.5zM567 1073q46 0 76.5 27.5t30.5 73.5q0 37 -27 63.5t-72 26.5q-47 0 -78.5 -31t-31.5 -76q0 -36 28 -60t74 -24z" />
    <glyph glyph-name="nine.numr" horiz-adv-x="681" 
d="M295 709q169 67 280 188q-56 -18 -94 -18q-103 0 -168 66.5t-65 162.5q0 124 91 205.5t218 81.5q124 0 199 -70.5t75 -183.5q0 -158 -136.5 -317t-338.5 -232zM537 1010q61 0 99 36t38 101q0 49 -34 83t-89 34q-60 0 -101.5 -41.5t-41.5 -104.5q0 -48 35 -78t94 -30z" />
    <glyph glyph-name="zero.osf" horiz-adv-x="1054" 
d="M557 -23q-170 0 -274.5 123t-104.5 316q0 126 40.5 240t107.5 194.5t156.5 128t185.5 47.5q167 0 273 -130t106 -314q0 -167 -69.5 -307.5t-182 -219t-238.5 -78.5zM565 139q120 0 209.5 127.5t89.5 319.5q0 125 -56 201.5t-153 76.5q-121 0 -208 -129t-87 -321
q0 -45 10.5 -90t33 -88t64.5 -70t97 -27z" />
    <glyph glyph-name="one.osf" horiz-adv-x="641" 
d="M430 739l-209 -129l-67 146l432 266h69l-178 -1022h-178z" />
    <glyph glyph-name="two.osf" horiz-adv-x="931" 
d="M104 147q11 64 41.5 117t64.5 87t91 67t96 50t105 42q163 56 218.5 101t55.5 116q0 62 -47 99.5t-131 37.5q-163 0 -233 -180l-150 53q50 139 155.5 214t241.5 75q152 0 250.5 -83.5t98.5 -207.5q0 -72 -27.5 -128.5t-84 -98.5t-120.5 -71.5t-158 -61.5
q-55 -18 -94 -35.5t-78 -43t-61.5 -59.5t-28.5 -77h557l-26 -160h-758z" />
    <glyph glyph-name="three.osf" horiz-adv-x="962" 
d="M442 -309q-164 0 -276 89.5t-137 235.5l161 66q19 -109 88 -169t177 -60q111 0 187.5 77t76.5 193q0 93 -66 157t-168 64h-194l12 70l416 430h-457l29 160h751l-12 -70l-434 -447q137 -29 222 -126t85 -228q0 -92 -38 -175t-101 -141t-147.5 -92t-174.5 -34z" />
    <glyph glyph-name="four.osf" horiz-adv-x="983" 
d="M614 0h-594l11 70l854 952h67l-153 -872h157l-24 -150h-158l-55 -309h-160zM639 150l82 462l-414 -462h332z" />
    <glyph glyph-name="five.osf" horiz-adv-x="983" 
d="M444 -309q-160 0 -273 91.5t-138 235.5l164 64q21 -106 89.5 -167.5t172.5 -61.5q115 0 196.5 87t81.5 216q0 105 -68 170t-184 65q-50 0 -107 -21t-104 -57l-55 35l187 656h624l-29 -160l-475 2l-88 -314q46 21 97 21q172 0 279.5 -108t107.5 -275q0 -132 -66.5 -243
t-176 -173.5t-235.5 -62.5z" />
    <glyph glyph-name="six.osf" horiz-adv-x="1044" 
d="M567 -23q-187 0 -298 111.5t-111 290.5q0 270 209 529t546 407l78 -133q-168 -81 -285.5 -179t-211.5 -225q27 21 76.5 37t91.5 16q172 0 278.5 -108.5t106.5 -271.5q0 -132 -66.5 -241.5t-176.5 -171t-237 -61.5zM582 139q116 0 198 84t82 211q0 102 -66 169t-178 67
q-117 0 -198.5 -86t-81.5 -215q0 -99 69.5 -164.5t174.5 -65.5z" />
    <glyph glyph-name="seven.osf" horiz-adv-x="911" 
d="M774 844h-596l29 160h840l-13 -70l-788 -1243h-201z" />
    <glyph glyph-name="eight.osf" horiz-adv-x="1054" 
d="M569 -23q-182 0 -302 106.5t-120 262.5q0 124 76 223.5t195 145.5q-103 86 -103 223q0 156 119 265.5t281 109.5q153 0 254.5 -94.5t101.5 -229.5q0 -101 -53 -182.5t-144 -130.5q73 -50 113.5 -123t40.5 -160q0 -115 -64.5 -211.5t-170 -150.5t-224.5 -54zM575 135
q109 0 190 76.5t81 189.5q0 94 -67 152.5t-175 58.5q-113 0 -193.5 -72.5t-80.5 -187.5q0 -93 68.5 -155t176.5 -62zM676 770q83 0 147 59t64 148q0 76 -50 127t-130 51q-86 0 -148.5 -63.5t-62.5 -155.5q0 -72 50.5 -119t129.5 -47z" />
    <glyph glyph-name="nine.osf" horiz-adv-x="1044" 
d="M199 -178q337 163 520 399q-70 -49 -170 -49q-170 0 -275.5 106.5t-105.5 268.5q0 132 65 242.5t175 173.5t239 63q185 0 296.5 -114t111.5 -291t-101 -356t-278 -328.5t-402 -247.5zM592 334q118 0 200 81.5t82 209.5q0 103 -67 171t-176 68q-117 0 -199 -88t-82 -215
q0 -99 69 -163t173 -64z" />
    <glyph glyph-name="zero.tab" horiz-adv-x="1126" 
d="M594 -23q-197 0 -309.5 150.5t-112.5 394.5q0 188 49 352.5t130 277.5t188.5 178t222.5 65q88 0 161 -31.5t121 -84.5t81.5 -124t48 -147.5t14.5 -157.5q0 -188 -49 -352.5t-131 -277.5t-190 -178t-224 -65zM608 156q71 0 138.5 51t121 140.5t86.5 224.5t33 290
q0 168 -61 261.5t-176 93.5q-72 0 -140 -51t-120.5 -141.5t-84.5 -226.5t-32 -294q0 -64 12.5 -123t39 -111t74 -83t109.5 -31z" />
    <glyph glyph-name="one.tab" horiz-adv-x="1126" 
d="M184 178h363l162 926l-318 -176l-78 159l570 322h71l-217 -1231h328l-31 -178h-880z" />
    <glyph glyph-name="two.tab" horiz-adv-x="1126" 
d="M158 215q11 68 43 128t72.5 103t103 85.5t116 70.5t130.5 64q73 31 124 56.5t100.5 58.5t79.5 66.5t48 76.5t18 92q0 90 -65 145.5t-170 55.5q-193 0 -295 -234l-168 49q61 173 186 268t289 95q185 0 299.5 -102t114.5 -257q0 -77 -24 -143t-63.5 -117t-105.5 -99.5
t-135.5 -86.5t-167.5 -82q-61 -29 -101.5 -51t-89.5 -55t-79 -64t-51.5 -72.5t-24.5 -87.5h692l-30 -178h-883z" />
    <glyph glyph-name="three.tab" horiz-adv-x="1126" 
d="M594 -23q-167 0 -286.5 84t-168.5 238l170 88q61 -231 301 -231q118 0 197.5 75.5t79.5 196.5q0 105 -79 173.5t-202 68.5h-178l12 69l445 455h-484l33 178h799l-12 -69l-473 -486q152 -32 240.5 -134.5t88.5 -244.5q0 -132 -64.5 -238t-175 -164.5t-243.5 -58.5z" />
    <glyph glyph-name="four.tab" horiz-adv-x="1126" 
d="M725 250h-631l15 86l927 1073h84l-174 -981h172l-31 -178h-172l-43 -250h-190zM756 428l92 518l-449 -518h357z" />
    <glyph glyph-name="five.tab" horiz-adv-x="1126" 
d="M584 -23q-165 0 -282.5 86t-164.5 240l168 88q33 -114 107.5 -174.5t185.5 -60.5q122 0 207.5 87.5t85.5 225.5q0 111 -75 177.5t-204 66.5q-54 0 -114.5 -20t-108.5 -52l-51 33l229 698h637l-33 -178h-487l-109 -326q12 7 46 15t61 8q179 0 290 -114.5t111 -284.5
q0 -222 -146 -368.5t-353 -146.5z" />
    <glyph glyph-name="six.tab" horiz-adv-x="1126" 
d="M604 -23q-199 0 -319.5 117.5t-120.5 308.5q0 266 223.5 537t595.5 455l86 -142q-372 -200 -561 -426q104 58 194 58q186 0 303 -120t117 -292q0 -135 -71 -249.5t-190 -180.5t-257 -66zM625 156q124 0 214.5 89.5t90.5 217.5q0 105 -75 174.5t-193 69.5
q-127 0 -218.5 -86t-91.5 -213q0 -108 76 -180t197 -72z" />
    <glyph glyph-name="seven.tab" horiz-adv-x="1126" 
d="M1006 1194h-664l33 178h932l-13 -69l-882 -1303h-219z" />
    <glyph glyph-name="eight.tab" horiz-adv-x="1126" 
d="M612 -23q-201 0 -330.5 110.5t-129.5 272.5q0 135 84 239t219 153q-60 44 -92.5 110.5t-32.5 141.5q0 163 129 277t303 114q167 0 277 -100t110 -242q0 -114 -62.5 -205t-162.5 -135q85 -51 131.5 -130t46.5 -175q0 -180 -144 -305.5t-346 -125.5zM621 150
q115 0 202.5 76.5t87.5 193.5q0 97 -75 158t-197 61q-123 0 -209 -72t-86 -186q0 -98 78 -164.5t199 -66.5zM725 811q94 0 162.5 64.5t68.5 160.5q0 80 -56 133.5t-146 53.5q-97 0 -166.5 -65.5t-69.5 -162.5q0 -80 57 -132t150 -52z" />
    <glyph glyph-name="nine.tab" horiz-adv-x="1126" 
d="M270 92q370 201 580 451q-100 -56 -195 -56q-181 0 -299 120.5t-118 291.5q0 100 42 192t112.5 158.5t167.5 106t202 39.5q195 0 314.5 -120t119.5 -308q0 -268 -234 -549.5t-608 -466.5zM700 666q122 0 215 85.5t93 209.5q0 108 -77.5 182t-193.5 74
q-126 0 -216.5 -87.5t-90.5 -216.5q0 -109 74.5 -178t195.5 -69z" />
    <glyph glyph-name="zero.tabosf" horiz-adv-x="993" 
d="M526 -23q-170 0 -274.5 123t-104.5 316q0 126 40.5 240t107.5 194.5t156.5 128t185.5 47.5q167 0 273 -130t106 -314q0 -167 -69.5 -307.5t-182 -219t-238.5 -78.5zM535 139q120 0 209.5 127.5t89.5 319.5q0 125 -56 201.5t-153 76.5q-121 0 -208 -129t-87 -321
q0 -45 10.5 -90t33 -88t64.5 -70t97 -27z" />
    <glyph glyph-name="one.tabosf" horiz-adv-x="993" 
d="M156 160h315l100 567l-262 -164l-71 154l489 305h74l-152 -862h279l-27 -160h-772z" />
    <glyph glyph-name="two.tabosf" horiz-adv-x="993" 
d="M145 147q11 64 41.5 117t64.5 87t91 67t96 50t105 42q163 56 218.5 101t55.5 116q0 62 -47 99.5t-131 37.5q-163 0 -233 -180l-150 53q50 139 155.5 214t241.5 75q152 0 250 -83.5t98 -207.5q0 -72 -27.5 -128.5t-83.5 -98.5t-120 -71.5t-158 -61.5q-55 -18 -94 -35.5
t-78 -43t-61.5 -59.5t-28.5 -77h557l-26 -160h-758z" />
    <glyph glyph-name="three.tabosf" horiz-adv-x="993" 
d="M453 -309q-164 0 -276.5 89.5t-137.5 235.5l162 66q19 -109 87.5 -169t176.5 -60q111 0 187.5 77t76.5 193q0 93 -66 157t-167 64h-195l12 70l416 430h-457l29 160h752l-13 -70l-434 -447q137 -29 222 -126t85 -228q0 -123 -64 -225.5t-169.5 -159.5t-226.5 -57z" />
    <glyph glyph-name="four.tabosf" horiz-adv-x="993" 
d="M614 0h-594l11 70l854 952h67l-153 -872h157l-24 -150h-158l-55 -309h-160zM639 150l82 462l-414 -462h332z" />
    <glyph glyph-name="five.tabosf" horiz-adv-x="993" 
d="M455 -309q-160 0 -273.5 91.5t-138.5 235.5l164 64q21 -106 89.5 -167.5t172.5 -61.5q115 0 197 87t82 216q0 105 -68 170t-184 65q-50 0 -107 -21t-104 -57l-56 35l187 656h624l-28 -160l-475 2l-88 -314q47 21 96 21q172 0 279.5 -108t107.5 -275q0 -99 -39 -188.5
t-104 -152.5t-152.5 -100.5t-181.5 -37.5z" />
    <glyph glyph-name="six.tabosf" horiz-adv-x="993" 
d="M537 -23q-187 0 -298.5 111.5t-111.5 290.5q0 270 209.5 529t546.5 407l78 -133q-169 -81 -286.5 -179.5t-211.5 -224.5q27 21 76.5 37t91.5 16q172 0 278.5 -108.5t106.5 -271.5q0 -132 -66 -241.5t-176 -171t-237 -61.5zM551 139q116 0 198 84t82 211q0 102 -65.5 169
t-177.5 67q-117 0 -199 -86t-82 -215q0 -99 69.5 -164.5t174.5 -65.5z" />
    <glyph glyph-name="seven.tabosf" horiz-adv-x="993" 
d="M825 844h-596l29 160h840l-13 -70l-788 -1243h-201z" />
    <glyph glyph-name="eight.tabosf" horiz-adv-x="993" 
d="M539 -23q-183 0 -302.5 106.5t-119.5 262.5q0 124 75.5 223.5t194.5 145.5q-102 85 -102 223q0 156 118.5 265.5t280.5 109.5q153 0 254.5 -94.5t101.5 -229.5q0 -102 -53 -183t-143 -130q73 -50 113 -123t40 -160q0 -115 -64.5 -211.5t-169.5 -150.5t-224 -54zM545 135
q108 0 189 76.5t81 189.5q0 94 -67 152.5t-175 58.5q-113 0 -193.5 -72.5t-80.5 -187.5q0 -93 69 -155t177 -62zM645 770q83 0 147 59t64 148q0 76 -50 127t-130 51q-86 0 -148.5 -63.5t-62.5 -155.5q0 -72 50.5 -119t129.5 -47z" />
    <glyph glyph-name="nine.tabosf" horiz-adv-x="993" 
d="M178 -178q337 163 520 399q-70 -49 -170 -49q-170 0 -275.5 106.5t-105.5 268.5q0 132 65 242.5t175.5 173.5t239.5 63q185 0 296 -113.5t111 -291.5q0 -177 -101 -356t-277.5 -328.5t-401.5 -247.5zM571 334q118 0 200.5 81.5t82.5 209.5q0 103 -67.5 171t-176.5 68
q-117 0 -198.5 -88t-81.5 -215q0 -99 69 -163t172 -64z" />
    <glyph glyph-name="foundryicon" horiz-adv-x="3149" 
d="M514 879h-145v63h364v-63h-147v-408h-72v408zM754 346q-17 0 -21 2v58q49 0 64 40l12 33l-129 326h76l90 -238l90 238h76l-158 -389q-34 -70 -100 -70zM1061 805h49l18 -39q38 45 99 45q66 0 111.5 -50t45.5 -122q0 -73 -45.5 -123.5t-111.5 -50.5q-60 0 -97 43v-162h-69
v459zM1221 528q39 0 67.5 32t28.5 79q0 43 -29 74.5t-67 31.5q-41 0 -69 -31.5t-28 -74.5q0 -47 28 -79t69 -32zM1599 465q-66 0 -112.5 50.5t-46.5 123.5q0 71 46 121.5t113 50.5q66 0 111 -49t45 -121q0 -3 -1 -9t-1 -9v-13h-244q5 -36 30 -60t60 -24q56 0 76 35h72
q-18 -46 -58.5 -71t-89.5 -25zM1690 666q-1 34 -29 58t-62 24t-60 -22.5t-30 -59.5h181zM1868 879h-146v63h365v-63h-148v-408h-71v408zM2107 346q-16 0 -20 2v58q48 0 63 40l13 33l-129 326h75l91 -238l90 238h75l-157 -389q-34 -70 -101 -70zM2415 805h49l18 -39
q38 45 98 45q66 0 112 -50t46 -122q0 -73 -46 -123.5t-112 -50.5q-59 0 -96 43v-162h-69v459zM2574 528q39 0 68 32.5t29 78.5q0 43 -29.5 74.5t-67.5 31.5q-41 0 -68.5 -31.5t-27.5 -74.5q0 -47 27.5 -79t68.5 -32zM2953 465q-66 0 -113 50.5t-47 123.5q0 71 46.5 121.5
t113.5 50.5q66 0 111 -49t45 -121q0 -3 -1 -9t-1 -9v-13h-244q5 -36 30 -60t60 -24q56 0 76 35h72q-18 -46 -58.5 -71t-89.5 -25zM3043 666q-1 34 -29 58t-61 24q-34 0 -60 -22.5t-30 -59.5h180z" />
    </font>
</defs>
</svg>
