<?xml version="1.0" standalone="no"?>
<!DOCTYPE svg PUBLIC "-//W3C//DTD SVG 1.1//EN" "http://www.w3.org/Graphics/SVG/1.1/DTD/svg11.dtd" >
<svg xmlns="http://www.w3.org/2000/svg" xmlns:xlink="http://www.w3.org/1999/xlink" version="1.1">
<metadata>
Created by FontForge 20170731 at Fri Nov 20 17:46:50 2020
 By Aleksey,,,
Copyright (c) 1994, 2001 Adobe Systems Incorporated.  All Rights Reserved.
</metadata>
<defs>
<font id="ITCGaramondStd-LtNarrowIta" horiz-adv-x="946" >
  <font-face 
    font-family="ITC Garamond Std Lt Narrow"
    font-weight="300"
    font-style="italic"
    font-stretch="semi-condensed"
    units-per-em="2048"
    panose-1="2 2 4 5 5 7 6 9 3 4"
    ascent="1440"
    descent="-608"
    x-height="948"
    cap-height="1288"
    bbox="-387 -512 2036 1755"
    underline-thickness="102"
    underline-position="-307"
    slope="-16"
    unicode-range="U+0020-FB02"
  />
<missing-glyph horiz-adv-x="1253" 
d="M229 0v1434h1024v-1434h-1024zM741 809l349 522h-697zM803 717l348 -522v1044zM393 102h697l-349 523zM332 1239v-1044l348 522z" />
    <glyph glyph-name="fi" unicode="fi" horiz-adv-x="1046" 
d="M291 872h-125q-16 0 -16 11q0 19 6 28q4 11 24 11h125q19 73 30 110t40 106.5t63 118.5q134 189 348 189q87 0 142 -35.5t55 -97.5q0 -40 -23 -62t-59 -22q-68 0 -72 63q-1 15 4.5 33t4.5 29q-3 17 -29.5 29t-63.5 12q-44 0 -81 -18.5t-65.5 -50t-54 -82.5t-45.5 -106
t-42 -132q-1 -3 -10.5 -35t-14.5 -49h348q56 0 99 6q54 4 61 4q18 0 18 -23q0 -13 -36 -116q-25 -78 -94.5 -273.5t-94.5 -269.5q-28 -98 -28 -113q0 -31 18 -31q49 0 133 123q12 17 24.5 36t19 30.5t13.5 21.5t12.5 14.5t10.5 4.5q14 0 14 -14q0 -13 -31 -66.5t-75 -115
t-101 -110t-100 -48.5q-70 0 -70 90q0 38 35 166q25 80 82.5 243t73.5 213q29 92 29 117q0 37 -31.5 49t-114.5 12h-227q-8 -29 -146 -536q-39 -154 -60 -231.5t-54 -174.5t-66 -161q-112 -213 -289 -213q-58 0 -96.5 30t-38.5 90q0 38 19.5 59t48.5 21q46 0 61 -49
q2 -10 3 -34t3 -33q6 -35 43 -35q38 0 65 24t52 86q52 115 178 609q28 106 80.5 298.5t67.5 249.5z" />
    <glyph glyph-name="fl" unicode="fl" horiz-adv-x="1046" 
d="M291 872h-125q-16 0 -16 11q0 19 6 28q4 11 24 11h125q19 73 30 110t40 106.5t63 118.5q132 189 353 189q47 0 91 -16.5t68 -45.5q23 9 61 25.5t62.5 26.5t32.5 10q10 0 10 -16q0 -4 -7 -18.5t-17.5 -38t-16.5 -44.5q-8 -28 -139.5 -456.5t-181.5 -604.5
q-31 -109 -31 -133q0 -31 18 -31q25 0 60.5 37t68.5 92q7 13 17 32t16 30t13.5 22.5t14 17t13.5 5.5q17 0 17 -16q0 -29 -47 -110.5t-120 -156.5t-130 -75q-40 0 -56 24.5t-16 71.5q0 19 2.5 40.5t8.5 49.5t10 43t13 49t11 41q20 67 123.5 407t157.5 521q-17 0 -27.5 1
t-27.5 6.5t-26.5 19.5t-11.5 36q-1 15 4.5 33t4.5 29q-3 17 -29.5 29t-61.5 12q-104 0 -169.5 -97.5t-116.5 -291.5q-1 -3 -23 -84h158q16 0 16 -11q0 -2 -6 -26q-4 -13 -27 -13h-153q-21 -79 -45.5 -168.5t-54 -198t-46.5 -169.5q-43 -165 -62 -234t-53 -169.5t-67 -163.5
q-112 -213 -289 -213q-58 0 -96.5 30t-38.5 90q0 38 19.5 59t48.5 21q46 0 61 -49q2 -10 3 -34t3 -33q6 -35 43 -35q38 0 64 23.5t53 86.5q52 115 178 609q28 106 80.5 298.5t67.5 249.5z" />
    <glyph glyph-name=".notdef" horiz-adv-x="1253" 
d="M229 0v1434h1024v-1434h-1024zM741 809l349 522h-697zM803 717l348 -522v1044zM393 102h697l-349 523zM332 1239v-1044l348 522z" />
    <glyph glyph-name=".null" horiz-adv-x="0" 
 />
    <glyph glyph-name="nonmarkingreturn" horiz-adv-x="682" 
 />
    <glyph glyph-name="space" unicode=" " horiz-adv-x="473" 
 />
    <glyph glyph-name="exclam" unicode="!" horiz-adv-x="563" 
d="M586 1249v-2q0 -36 -43 -131q-144 -340 -285 -719q-23 -62 -34 -71q-7 -7 -17 -7q-19 0 -19 21q0 4 11 53q38 137 116 448.5t93 360.5q16 55 39.5 83t72.5 28q31 0 48.5 -19t17.5 -45zM59 57v2q0 49 23.5 89t64.5 40q31 0 49.5 -21.5t18.5 -55.5q0 -52 -23 -91.5
t-65 -39.5q-31 0 -49.5 21.5t-18.5 55.5z" />
    <glyph glyph-name="quotedbl" unicode="&#x22;" horiz-adv-x="686" 
d="M258 692h-2q-17 0 -23 64q-30 296 -30 444q0 67 13.5 91t41.5 24q29 0 43 -24.5t14 -90.5q0 -128 -32 -444q-6 -64 -25 -64zM555 692h-2q-17 0 -23 64q-30 296 -30 444q0 67 13.5 91t41.5 24q29 0 43 -24.5t14 -90.5q0 -128 -32 -444q-6 -64 -25 -64z" />
    <glyph glyph-name="numbersign" unicode="#" 
d="M102 670h193q28 -1 35 4t16 33l49 147q13 35 13 39q-2 12 -43 12h-172q-26 0 -37 2.5t-11 12.5q0 5 3 13.5t4 10.5l16 47q5 9 13.5 12t31.5 3h195q29 0 35.5 4.5t15.5 31.5l69 201q8 24 13 30.5t18 6.5q27 0 27 -14q0 -7 -8 -35l-64 -176q-6 -21 -6 -35q0 -10 8.5 -12
t32.5 -2h174q29 0 35.5 4.5t15.5 31.5l70 201q8 25 12.5 31t17.5 6q27 0 27 -14q0 -7 -8 -35l-64 -176q-6 -21 -6 -35t43 -14h170q27 0 37 -2.5t10 -12.5l-6 -24l-16 -47q-3 -9 -11.5 -12t-33.5 -3h-193q-29 0 -35.5 -5t-15.5 -32l-53 -149q-10 -30 -10 -37q0 -12 43 -12
h172q27 0 37 -2.5t10 -12.5q0 -8 -4 -24l-19 -47q-3 -9 -11.5 -12t-31.5 -3h-194q-28 0 -36.5 -5.5t-15.5 -31.5l-75 -227q-8 -26 -12.5 -31.5t-18.5 -5.5q-25 0 -25 15q0 3 9 34l67 203q8 28 8 35q-1 10 -9 12t-38 2h-168q-29 0 -36.5 -5.5t-16.5 -31.5l-76 -227
q-10 -32 -16 -35q-4 -2 -14 -2q-25 0 -25 15q0 6 8 34l68 203q8 28 8 35q0 10 -8.5 12t-34.5 2h-172q-27 0 -36.5 2.5t-10.5 12.5q0 8 4 24l18 47q3 9 11.5 12t33.5 3zM678 905h-172q-27 0 -34.5 -6t-16.5 -33l-52 -149q-10 -20 -10 -37q0 -12 45 -12h174q27 0 34 5t16 32
l51 149q12 24 12 37q0 10 -10 12t-37 2z" />
    <glyph glyph-name="dollar" unicode="$" 
d="M279 98l137 574q-56 71 -87.5 134.5t-31.5 131.5q0 111 69 204t193 122l39 172q4 18 10 26t11 9.5t16 1.5q17 0 21 -5t-1 -34l-37 -158q16 2 52 2q37 0 75 -10l39 168q4 17 10 24.5t10.5 8.5t16.5 1q18 0 22 -4t-1 -32l-43 -181q59 -23 101 -50.5t42 -47.5q0 -22 -16 -72
q-4 -19 -16.5 -62.5t-18.5 -68.5q-12 -47 -33 -47q-14 0 -20 5t-9.5 27t-3.5 71q0 124 -43 172l-133 -547q60 -70 92.5 -136t32.5 -143q0 -104 -69 -196.5t-199 -128.5l-47 -203q-4 -18 -10 -26t-11.5 -9.5t-17.5 -1.5q-16 0 -20 5t1 34l43 186q-46 -4 -69 -4q-10 0 -58 6
l-45 -190q-5 -24 -12.5 -29.5t-23.5 -5.5q-18 0 -22 4.5t1 32.5l47 199q-64 19 -107.5 46.5t-43.5 57.5q0 19 12 72q1 8 11.5 58t17.5 91q5 27 10.5 37t21.5 10q20 0 25.5 -19t5.5 -58q0 -5 0.5 -26t1 -29t1.5 -28t3 -29.5t5 -26.5t7.5 -27t11 -22t15 -21t19.5 -15z
M608 1227l-102 -424q17 -24 53 -66t45 -53l127 528q-33 17 -82 17q-27 0 -41 -2zM463 864l82 346q-56 -26 -89.5 -80t-33.5 -131q0 -70 41 -135zM457 66l104 432q-14 17 -30.5 37t-37.5 44t-32 37l-131 -546q37 -13 67 -13q33 0 60 9zM602 434l-82 -342q56 27 91.5 80.5
t35.5 128.5q0 66 -45 133z" />
    <glyph glyph-name="percent" unicode="%" horiz-adv-x="1314" 
d="M188 -18v2q0 9 35 55l883 1237q16 24 23 30.5t20 6.5h25q26 0 26 -13q0 -8 -37 -57l-880 -1237q-14 -18 -18.5 -24t-10.5 -9.5t-14 -3.5h-25q-27 0 -27 13zM496 1276h-2q-47 0 -91 -34t-76 -87t-56.5 -115t-37 -119t-12.5 -98q0 -170 115 -170q58 0 112 51.5t88 125
t54 148t20 126.5q0 35 -4 62t-15 54t-35 41.5t-60 14.5zM1055 631h-2q-58 0 -111.5 -51.5t-88 -125.5t-55 -149t-20.5 -127q0 -172 115 -172q59 0 113.5 52t88.5 126t54 148.5t20 126.5q0 172 -114 172zM336 614h-2q-98 0 -157.5 71t-59.5 187q0 104 51.5 206t140.5 168.5
t187 66.5q102 0 160.5 -70.5t58.5 -187.5q0 -73 -30 -151t-79.5 -142.5t-121 -106t-148.5 -41.5zM893 -31h-2q-98 0 -156.5 71t-58.5 187q0 104 51.5 206t140.5 168.5t187 66.5q100 0 158.5 -71t58.5 -187q0 -73 -30 -151t-79.5 -142.5t-121 -106t-148.5 -41.5z" />
    <glyph glyph-name="ampersand" unicode="&#x26;" horiz-adv-x="1171" 
d="M29 375v2q0 165 108 279.5t271 146.5q-62 77 -62 178q0 131 105.5 231.5t267.5 100.5q54 0 99.5 -14t70.5 -33.5t39 -37t14 -28.5q0 -33 -22 -129q-1 -4 -3 -13t-3 -14.5t-3 -14.5t-4 -14.5t-5 -12.5t-6 -11.5t-6.5 -9t-8 -6.5t-9.5 -2q-11 0 -17.5 6t-10.5 19.5t-6 26.5
t-5.5 35t-7.5 38q-13 54 -57.5 83t-105.5 29q-98 0 -178.5 -76t-80.5 -182q0 -77 56 -139q9 1 24 2.5t27 2.5t22 1q125 0 125 -53q0 -39 -75 -39q-83 0 -136 39q-121 -34 -194.5 -140t-73.5 -229q0 -156 95 -259t233 -103q93 0 182.5 49t146 129.5t56.5 167.5q0 61 -37 95
t-102 34q-53 0 -98.5 -23t-69 -51t-41.5 -51t-23 -23q-10 0 -10 19q0 24 16.5 56t44.5 59q105 98 299 98q123 0 166 10.5t64 52.5q3 6 6.5 14.5t5.5 13.5t4.5 10t5.5 7.5t6 2.5q9 0 12 -7.5t3 -33.5q0 -74 -55 -129.5t-125 -55.5q-17 0 -33 4q16 -46 16 -100
q0 -77 -40 -153.5t-109 -133.5q-150 -127 -357 -127q-79 0 -147 24t-115.5 64.5t-81.5 93t-50.5 110t-16.5 114.5z" />
    <glyph glyph-name="quotesingle" unicode="'" horiz-adv-x="442" 
d="M299 692h-2q-19 0 -25 64q-30 296 -30 444q0 67 13.5 91t43.5 24q28 0 41.5 -24t13.5 -91q0 -148 -30 -444q-6 -64 -25 -64z" />
    <glyph glyph-name="parenleft" unicode="(" horiz-adv-x="700" 
d="M961 1430v-3q0 -6 -28.5 -14t-92.5 -35t-129 -71q-96 -66 -184 -188t-149.5 -262.5t-108.5 -291t-69.5 -280.5t-23.5 -224q0 -154 63 -263t146 -134q5 -1 11 -2.5t9.5 -2t8 -1.5t7 -1.5t5.5 -1.5t4.5 -2t3 -2.5t2 -3t0.5 -3.5q0 -17 -18 -17q-48 0 -96 25.5t-91.5 77.5
t-76.5 123t-52.5 169.5t-19.5 210.5q0 277 120.5 553t323.5 453q117 102 237.5 154.5t178.5 52.5q19 0 19 -16z" />
    <glyph glyph-name="parenright" unicode=")" horiz-adv-x="700" 
d="M-272 -356v2q0 6 28.5 14t92 35.5t128.5 71.5q96 66 184 188t149.5 262t108.5 290.5t69.5 280.5t23.5 224q0 154 -62.5 263t-146.5 134q-9 2 -18.5 4.5t-14.5 3.5t-10 3t-6.5 4t-1.5 6q0 16 18 16q48 0 96 -25.5t91.5 -77.5t76.5 -123t52.5 -169.5t19.5 -210.5
q0 -277 -119.5 -553.5t-322.5 -452.5q-119 -103 -239 -155t-179 -52q-18 0 -18 17z" />
    <glyph glyph-name="asterisk" unicode="*" horiz-adv-x="770" 
d="M551 1315h2q29 0 47 -17.5t18 -46.5q0 -43 -57 -123t-57 -114q0 -15 20 -15q22 0 105 55.5t121 55.5q31 0 50 -15.5t19 -45.5q0 -72 -94 -72q-26 0 -77.5 6t-74.5 6q-55 0 -55 -20q0 -19 36 -41.5t80 -41t80 -48.5t36 -62q0 -67 -66 -67q-32 0 -61.5 37.5t-47.5 83
t-39 83t-38 37.5q-23 0 -23 -61q0 -42 8.5 -91t8.5 -65q0 -90 -76 -90q-31 0 -49.5 18.5t-18.5 47.5q0 28 18.5 62t40 60.5t40 58t18.5 54.5q0 14 -21 14q-26 0 -107 -57t-118 -57q-33 0 -51 16.5t-18 46.5q0 72 92 72q26 0 77 -5t74 -5q56 0 56 20q0 19 -36.5 40.5
t-79.5 39.5t-79.5 48t-36.5 63q0 30 17.5 48.5t48.5 18.5q32 0 61 -37.5t47 -82t39.5 -82t40.5 -37.5q18 0 18 57q0 37 -7 86.5t-7 69.5q0 94 76 94z" />
    <glyph glyph-name="plus" unicode="+" horiz-adv-x="1216" 
d="M569 571v465h105v-465h465v-106h-465v-465h-105v465h-463v106h463z" />
    <glyph glyph-name="comma" unicode="," horiz-adv-x="473" 
d="M47 66v2q0 35 24.5 76.5t69.5 41.5q72 0 72 -118q0 -66 -33.5 -145t-78 -138.5t-87.5 -100t-63 -40.5q-12 0 -12 14q0 8 13 21t45 46t64 76q31 38 55.5 88.5t24.5 73.5q0 15 -4 22t-16 11h-31q-43 0 -43 70z" />
    <glyph glyph-name="hyphen" unicode="-" horiz-adv-x="587" 
d="M96 508h389q27 0 27 -10q0 -4 -31 -66q-8 -16 -26 -16h-394q-26 0 -26 10q0 3 31 63q4 9 5.5 11.5t7.5 5t17 2.5z" />
    <glyph glyph-name="period" unicode="." horiz-adv-x="473" 
d="M219 111v-2q0 -51 -23.5 -90t-66.5 -39q-29 0 -47.5 20.5t-18.5 54.5q0 52 24 92.5t65 40.5q30 0 48.5 -21.5t18.5 -55.5z" />
    <glyph glyph-name="slash" unicode="/" horiz-adv-x="575" 
d="M797 1421v-2q0 -4 -3.5 -11.5t-9.5 -18t-8 -13.5l-964 -1689q-15 -28 -23 -36.5t-20 -8.5h-29q-23 0 -23 10q0 3 21 45l962 1689q15 27 25 36.5t23 9.5h26q23 0 23 -11z" />
    <glyph glyph-name="zero" unicode="0" 
d="M82 424v2q0 146 50 305t130 287t190.5 211.5t221.5 83.5q125 0 195.5 -116t70.5 -335q0 -146 -49 -305.5t-128 -289t-188.5 -214t-220.5 -84.5q-128 0 -200 116.5t-72 338.5zM815 1026v2q0 236 -149 236q-189 0 -338 -430q-55 -156 -88 -320.5t-33 -253.5
q0 -242 153 -242q69 0 134 62.5t112 154.5t88 214q54 158 87.5 326.5t33.5 250.5z" />
    <glyph glyph-name="one" unicode="1" 
d="M111 16v2q0 25 76 29h8q48 0 77 18.5t43 69.5q141 457 279 912q20 73 20 83q0 17 -16 17q-11 0 -91.5 -35t-100.5 -35q-27 0 -27 25q0 16 14 24.5t53 22.5q160 61 295 139q42 25 56 25q10 0 10 -15q0 -7 -25 -84q-185 -612 -299 -976q-26 -93 -26 -127q0 -60 88 -64
q5 0 14 -1t14 -1.5t13 -1.5t12.5 -2t11 -3t10 -4t7 -5.5t5 -7.5t1.5 -9q0 -20 -29 -20q-26 0 -115 4t-131 4q-46 0 -114.5 -4t-91.5 -4q-22 0 -31.5 5t-9.5 19z" />
    <glyph glyph-name="two" unicode="2" 
d="M131 133l6 -8h117q139 0 207 4q81 4 122 35.5t81 111.5q4 8 10.5 23t10 21.5t9 17t9.5 15.5t9 10.5t10.5 7.5t12.5 2q27 0 27 -25q0 -15 -15 -71t-36 -126.5t-27 -95.5q-9 -39 -20.5 -51t-40.5 -12q-31 0 -140.5 4t-183.5 4q-77 0 -177 -4t-134 -4q-37 0 -37 20
q0 22 137 152q52 50 175 165t183 173q167 163 236.5 296.5t69.5 227.5q0 106 -42.5 163.5t-125.5 57.5q-72 0 -136 -41.5t-106 -107.5q-23 -38 -44.5 -82.5t-31.5 -59t-22 -14.5q-25 0 -25 25q0 21 15.5 60.5t48 88.5t75.5 93t107.5 74t134.5 30q139 0 222 -78.5t83 -214.5
q0 -49 -10.5 -94.5t-24 -81t-44.5 -78t-53.5 -69t-71 -70.5t-75.5 -67t-88 -73q-38 -31 -57 -47q-215 -179 -350 -307z" />
    <glyph glyph-name="three" unicode="3" 
d="M885 1096v-2q0 -70 -34 -130.5t-111 -114t-117 -76t-132 -66.5q-8 -5 -13 -7t-12 -5.5l-13 -6.5l2 -2q42 0 82 -6q122 -22 191 -102.5t69 -206.5q0 -118 -60.5 -232.5t-155 -197t-214 -133t-234.5 -50.5q-98 0 -161.5 44t-63.5 98q0 38 21 59t57 21q64 0 86 -89
q9 -39 35.5 -61.5t64.5 -22.5q113 0 220.5 79.5t175 213.5t67.5 281q0 110 -58 183t-159 73q-45 0 -84 -12t-60.5 -27t-41 -27t-29.5 -12t-15.5 6.5t-5.5 14.5q0 11 15 25t46 31.5t64 34t83 40.5q28 13 42 20q146 69 222.5 172.5t76.5 196.5q0 67 -36.5 107t-104.5 40
q-44 0 -88 -20.5t-76 -52.5q-29 -30 -53.5 -66.5t-37 -54t-24.5 -17.5q-20 0 -20 27q0 8 12.5 33.5t41 63t67.5 71.5t100.5 58t130.5 24q103 0 172.5 -59t69.5 -158z" />
    <glyph glyph-name="four" unicode="4" 
d="M510 414h-428q-19 0 -25 2.5t-6 11.5q0 19 8 43q10 23 27 43q279 295 795 868q25 25 47 25h22q29 0 29 -16q0 -10 -35 -45q-128 -135 -815 -865h410q19 0 25.5 6t13.5 33l120 420q3 14 11 21t24 14q91 31 105 31q8 0 8 -13q0 -7 -21 -75q-60 -210 -108 -373
q-10 -40 -10 -53q0 -11 24 -11h96q33 0 33 -10q0 -6 -10 -41q-3 -10 -8.5 -13t-22.5 -3h-112q-18 0 -23.5 -6t-13.5 -33q-7 -28 -21 -78.5t-19.5 -71t-13 -50.5t-10 -46.5t-2.5 -28.5q0 -26 18.5 -39.5t45.5 -15.5q20 -1 30.5 -2.5t20.5 -7.5t10 -17q0 -15 -11 -20.5
t-40 -5.5q-28 0 -86 4t-88 4q-38 0 -98.5 -4t-88.5 -4q-34 0 -34 20q0 18 17.5 23.5t55.5 7.5q46 3 70 20t41 72q74 257 74 266q0 13 -31 13z" />
    <glyph glyph-name="five" unicode="5" 
d="M866 1178l-389 -23q-71 -3 -86 -18q-12 -14 -51 -126.5t-39 -125.5q0 -2 0.5 -4t2.5 -3.5t4 -2.5t5.5 -2.5t6.5 -2t8.5 -1.5t9 -1.5l10.5 -1.5t12 -2q150 -14 244 -65q201 -103 201 -334q0 -129 -67.5 -246t-184.5 -201q-236 -170 -610 -170q-31 0 -43.5 4.5t-12.5 20.5
q0 15 19.5 19t67.5 6h8q132 4 251.5 41.5t214.5 104t151 168t56 224.5q0 286 -387 307q-37 0 -52 2.5t-15 12.5q0 4 2 11t5.5 16t4.5 14q11 32 67 196t85 250q8 26 16.5 33t38.5 8q251 15 487 27q33 0 33 -13q0 -18 -25 -90q-6 -22 -13.5 -26t-35.5 -6z" />
    <glyph glyph-name="six" unicode="6" 
d="M872 487v-2q0 -93 -34 -185.5t-92 -165.5t-143 -119t-179 -46q-107 0 -186.5 62.5t-118.5 162.5t-39 220q0 229 110 438.5t293 349.5q150 113 321 172.5t257 59.5q29 0 29 -23q0 -13 -17.5 -20t-69.5 -18q-3 -1 -5 -1t-4.5 -1t-4.5 -1q-370 -85 -583 -401
q-89 -128 -137 -287t-48 -330q0 -150 54.5 -242t150.5 -92q86 0 157 74t108.5 185t37.5 229q0 121 -48 197.5t-126 76.5q-37 0 -62.5 -14t-40 -27.5t-24.5 -13.5q-16 0 -16 16q0 34 53.5 70.5t122.5 36.5q87 0 153.5 -54.5t98.5 -135.5t32 -171z" />
    <glyph glyph-name="seven" unicode="7" 
d="M819 1157h-432h-100q-27 0 -39 11.5t-12 27.5q0 32 18 88q8 19 10 31q36 -22 98 -25q176 -8 293 -8q56 0 164 4t139 4q24 0 33.5 -2t9.5 -10q0 -14 -45 -92q-468 -799 -704 -1274q-10 -18 -17 -22.5t-34 -4.5q-35 0 -35 13q0 9 20 45q234 460 652 1159q20 36 20 45
q0 10 -39 10z" />
    <glyph glyph-name="eight" unicode="8" 
d="M840 371v-2q0 -73 -31 -144t-86.5 -128.5t-141.5 -92.5t-188 -35q-148 0 -257 92.5t-109 247.5q0 64 25 118t61 90.5t92.5 69t103 51.5t109.5 40q-182 113 -182 276q0 103 62 187t156.5 128t198.5 44q141 0 236.5 -82t95.5 -209q0 -38 -14.5 -73t-36 -61.5t-56.5 -51
t-65.5 -41t-74 -33.5t-71.5 -26t-67 -21q41 -26 68.5 -45.5t63 -53t57 -66.5t36.5 -80t15 -99zM362 1012v-2q0 -54 14 -95.5t45 -73.5t58.5 -51.5t75.5 -46.5q125 31 214 113.5t89 202.5q0 99 -63 158t-162 59q-108 0 -189.5 -79.5t-81.5 -184.5zM154 274v-2q0 -110 68 -188
t177 -78q125 0 217.5 102.5t92.5 229.5q0 32 -7.5 61.5t-16 51.5t-29.5 46.5t-33.5 38t-44 36t-44 31t-50.5 32.5q-16 11 -25 16q-305 -101 -305 -377z" />
    <glyph glyph-name="nine" unicode="9" 
d="M940 858v-2q0 -361 -319 -717q-75 -83 -178.5 -148t-202.5 -100t-181.5 -52t-140.5 -17q-27 0 -34 2.5t-7 15.5q0 9 6 14.5t20.5 9t29.5 5.5t44 6.5t54 9.5q189 38 334.5 149t246.5 275q92 148 139.5 320t47.5 325q0 65 -11 119t-34 98t-63 68.5t-93 24.5
q-88 0 -161.5 -76t-113.5 -193.5t-40 -244.5q0 -107 46.5 -172.5t121.5 -65.5q35 0 62.5 11t43.5 21.5t23 10.5q18 0 18 -23q0 -13 -21.5 -33t-66.5 -37.5t-96 -17.5q-115 0 -194 99t-79 241q0 113 37 213t99 168.5t143 108t168 39.5q165 0 258.5 -121.5t93.5 -333.5z" />
    <glyph glyph-name="colon" unicode=":" horiz-adv-x="473" 
d="M365 766v-2q0 -50 -24.5 -90.5t-66.5 -40.5q-30 0 -47.5 21.5t-17.5 56.5q0 51 23.5 91t64.5 40q31 0 49.5 -21t18.5 -55zM195 111v-2q0 -50 -24 -89.5t-65 -39.5q-31 0 -49 20.5t-18 54.5q0 52 23.5 92.5t66.5 40.5q29 0 47.5 -21.5t18.5 -55.5z" />
    <glyph glyph-name="semicolon" unicode=";" horiz-adv-x="473" 
d="M362 764v-2q0 -49 -23.5 -89t-64.5 -40q-30 0 -48.5 22t-18.5 56q0 51 23.5 91t66.5 40q29 0 47 -22t18 -56zM41 66v2q0 35 24.5 76.5t69.5 41.5q72 0 72 -118q0 -66 -33.5 -145t-78 -138.5t-87.5 -100t-63 -40.5q-13 0 -13 14q0 8 13.5 21t45.5 46t64 76
q31 38 55.5 88.5t24.5 73.5q0 15 -4 22t-16 11h-31q-43 0 -43 70z" />
    <glyph glyph-name="less" unicode="&#x3c;" horiz-adv-x="1216" 
d="M1143 98v-114l-1041 479v110l1041 480v-115l-912 -420z" />
    <glyph glyph-name="equal" unicode="=" horiz-adv-x="1216" 
d="M1139 770v-106h-1033v106h1033zM1139 373v-107h-1033v107h1033z" />
    <glyph glyph-name="greater" unicode="&#x3e;" horiz-adv-x="1216" 
d="M102 98l910 420l-910 420v115l1041 -480v-110l-1041 -479v114z" />
    <glyph glyph-name="question" unicode="?" horiz-adv-x="686" 
d="M729 1040v-2q0 -110 -75 -208t-193 -173q-83 -54 -116 -83.5t-55 -72.5t-44 -130q-8 -33 -13 -44.5t-14 -11.5q-16 0 -16 15q0 7 4 47q14 105 39 215q13 67 29.5 91t72.5 60q8 5 45 28.5t52.5 34t49.5 36t51.5 42.5t43 45.5t38 53t22 56.5t9.5 65q0 75 -35 117.5
t-81 42.5q-78 0 -162 -152q-9 -18 -19.5 -39.5t-15 -31t-10.5 -19.5t-12 -13t-15 -3q-12 0 -17 5.5t-5 22.5q0 38 12 105q17 101 31 121q15 24 62 38.5t112 14.5q106 0 165.5 -79t59.5 -194zM236 111v-2q0 -51 -24 -90t-67 -39q-29 0 -47 20.5t-18 54.5q0 52 23.5 92.5
t64.5 40.5q31 0 49.5 -21.5t18.5 -55.5z" />
    <glyph glyph-name="at" unicode="@" horiz-adv-x="1599" 
d="M1239 958l-127 -493q-8 -28 -8 -51q0 -84 80 -84q81 0 144 66.5t92.5 157t29.5 181.5q0 95 -38 187t-108.5 166.5t-182.5 120.5t-247 46q-162 0 -292.5 -81t-204.5 -226t-74 -327q0 -123 41 -230.5t116 -187.5t190.5 -126t256.5 -46q32 0 63 2.5t53 5t50.5 10t42.5 11
t43.5 15t38 15t42 18t40.5 17.5l27 -55q-116 -50 -212.5 -77.5t-199.5 -27.5q-148 0 -272.5 39t-208 103.5t-142.5 149t-85.5 174t-26.5 179.5q0 154 56.5 286.5t153 223t227.5 142t277 51.5q282 0 462 -163.5t180 -414.5q0 -76 -24.5 -156t-69 -149t-115.5 -113.5
t-154 -44.5q-36 0 -67.5 12t-50.5 29.5t-32.5 37.5t-19 35.5t-4.5 23.5h-4q-13 -18 -31 -37t-47.5 -44t-68.5 -41t-78 -16q-189 0 -189 244q0 103 48.5 209.5t139.5 181t197 74.5q52 0 83.5 -23.5t57.5 -76.5l21 77h131zM696 510v-2q0 -78 34.5 -118t90.5 -40q71 0 146 117
t94 313q0 59 -22.5 91t-65.5 32q-38 0 -85 -27.5t-90 -76t-72.5 -125.5t-29.5 -164z" />
    <glyph glyph-name="A" unicode="A" horiz-adv-x="886" 
d="M563 473h-305q-13 0 -18 -2t-11 -12q-30 -47 -131 -226q-57 -105 -57 -131q0 -20 10.5 -31.5t25.5 -16.5t46 -11q47 -11 53 -18q4 -5 4 -11q0 -22 -41 -22q-26 0 -88 4t-92 4q-24 0 -72 -4t-69 -4q-16 0 -21.5 4t-5.5 14q0 13 11.5 19.5t37.5 11.5q46 9 77.5 41.5
t94.5 134.5q106 169 312.5 509t312.5 509q37 61 49 61q10 0 13 -7.5t3 -26.5q1 -66 -3 -562.5t-3 -574.5q0 -44 13 -60.5t41 -19.5q3 -1 10.5 -1.5t11 -1.5t9 -2t8.5 -3t6 -4.5t4.5 -6t1.5 -8.5q0 -15 -6.5 -20.5t-26.5 -5.5q-19 0 -74 4t-88 4q-37 0 -92 -4t-70 -4
q-13 0 -18.5 0.5t-10.5 5.5t-5 14q0 6 2 10t6.5 7t8.5 5t12 4t13.5 2.5t16 2t16.5 2.5q76 12 76 72q0 49 1 171t1 185zM563 530l8 498l-4 2q-26 -44 -91.5 -154t-112.5 -190t-89 -156h289z" />
    <glyph glyph-name="B" unicode="B" horiz-adv-x="1071" 
d="M614 698v-4q151 -2 246.5 -72.5t95.5 -211.5q0 -186 -129 -306q-62 -57 -156 -84.5t-192 -27.5q-47 0 -153 4t-160 4q-36 0 -114 -4t-89 -4q-27 0 -38 4t-11 16t8.5 18.5t18 8t32.5 4.5q48 5 75 34t42 93q34 133 75 281t94.5 335t80.5 283q29 107 29 117q0 45 -60 53
q-36 3 -49.5 7.5t-13.5 17.5q0 24 28 24q32 0 92 -4t85 -4q43 0 136.5 4t162.5 4q292 0 292 -241q0 -146 -117 -238t-311 -111zM694 1239h-2q-148 0 -168 -14q-10 -8 -30 -86l-76 -283q-6 -22 -18.5 -67t-18.5 -68q25 -2 76 -2q210 0 327 92q119 96 119 260q0 168 -209 168z
M338 569l-78 -284q-35 -128 -35 -176q0 -66 133 -66q54 0 90.5 2.5t84.5 10.5t87 28t70 51q58 58 86.5 140t28.5 171q0 57 -14.5 97t-40.5 65t-71.5 38.5t-97 18.5t-126.5 5q-82 0 -88 -4q-7 -7 -29 -97z" />
    <glyph glyph-name="C" unicode="C" horiz-adv-x="976" 
d="M66 414v2q0 191 83.5 358t223.5 291q127 117 288.5 182.5t311.5 65.5q60 0 85 -8.5t25 -30.5q0 -27 -14 -76q-23 -96 -59 -209q-1 -5 -3.5 -14t-4 -12.5t-3.5 -10t-4 -9t-5.5 -6t-7.5 -4.5t-9 -1q-29 0 -29 26q0 10 13.5 124.5t13.5 134.5q0 47 -47 47
q-101 -2 -225 -65.5t-228 -174.5q-115 -123 -184.5 -287.5t-69.5 -359.5q0 -167 61 -263t168 -96q92 0 166 57t121 156q16 35 37 86q25 58 33.5 72t23.5 14q23 0 23 -22q0 -19 -25 -105q-47 -173 -65 -227q-12 -21 -127.5 -50.5t-194.5 -29.5q-175 0 -270 115
q-102 120 -102 330z" />
    <glyph glyph-name="D" unicode="D" horiz-adv-x="1200" 
d="M98 162l246 854q2 7 11 38t12.5 45t7.5 36.5t4 38.5q0 36 -17.5 47t-66.5 18q-22 2 -30.5 6.5t-8.5 18.5q0 11 9 17.5t24 6.5q29 0 96 -4t109 -4q52 0 156.5 4t156.5 4q163 0 266 -106q109 -106 109 -301q0 -159 -52 -324t-151 -303q-96 -129 -234 -195.5t-301 -66.5
q-52 0 -157.5 4t-145.5 4q-49 0 -110 -4t-72 -4h-4h-6t-6 0.5t-6.5 1t-5.5 2.5t-4.5 4t-3 5.5t-1.5 8.5q0 12 11 19.5t28 7.5q65 6 90.5 29t46.5 92zM506 1102l-238 -832q-28 -100 -28 -149q0 -45 31.5 -63.5t99.5 -18.5q166 0 276 45t197 172q87 126 142.5 317.5
t55.5 348.5q0 158 -71 237.5t-226 79.5q-169 0 -192 -18q-6 -5 -11.5 -14.5t-10.5 -24t-8.5 -26t-9 -29.5t-7.5 -25z" />
    <glyph glyph-name="E" unicode="E" 
d="M367 647l-113 -393q-27 -103 -27 -131q0 -43 32.5 -59.5t137.5 -16.5q182 0 267 64q61 50 118 188q11 26 20 37.5t25 11.5q23 0 23 -24q0 -13 -10 -58q-8 -34 -28 -109.5t-30 -115.5q-11 -39 -18 -44q-8 -5 -25 -5q-45 0 -184 4t-215 4q-101 0 -227 -4t-160 -4
q-24 0 -32.5 4.5t-8.5 19.5q0 13 8 18t27 7q53 3 77.5 14t36 32t27.5 77q85 300 167.5 588.5t92.5 322.5q23 88 23 105q0 56 -62 59q-46 3 -54 12q-5 6 -5 13q0 24 31 24q23 0 110 -4t158 -4q61 0 214 4t208 4q34 0 41.5 -2t7.5 -14q0 -5 -45 -185q-22 -92 -33 -114.5
t-31 -22.5q-13 0 -17.5 8.5t-4.5 32.5q0 68 -8 152q-6 56 -46 73t-165 17q-114 0 -127 -8q-9 -4 -35 -95l-123 -425h123q55 0 92.5 5t59 10t39 22t24 27.5t22.5 39.5q7 11 16 29t14 27t13.5 16.5t18.5 7.5q22 0 22 -23q0 -3 -3 -12.5t-9.5 -27.5t-11.5 -35
q-48 -142 -88 -324q-6 -43 -37 -43q-16 0 -21.5 10.5t-5.5 36.5q0 15 4.5 46t4.5 44q0 45 -33.5 65.5t-130.5 20.5h-131z" />
    <glyph glyph-name="F" unicode="F" horiz-adv-x="937" 
d="M371 647l-121 -401q-33 -103 -33 -137q0 -65 100 -68q51 0 61 -8q7 -6 7 -17q0 -24 -41 -24q-14 0 -73 4t-111 4q-78 0 -141.5 -4t-73.5 -4q-14 0 -19 0.5t-12 2.5t-9.5 7t-2.5 14q0 4 1 8t3.5 6.5t5 4.5t7 3.5t8 2.5t9.5 2t9.5 1.5l10.5 1.5t11 1q58 7 77 29t38 88
q178 610 258 876q37 115 37 140q0 28 -14 41t-44 18q-8 2 -20 4t-17.5 3t-12 3.5t-9 6t-2.5 8.5q0 24 29 24q33 0 134 -4t165 -4q74 0 217 4t205 4q38 0 47.5 -2t9.5 -12q0 -7 -16 -55q-26 -80 -64 -226q-12 -51 -41 -51q-16 0 -20 13t-4 38q0 12 0.5 36.5t0.5 48.5t-1 48
q-5 52 -50.5 79.5t-160.5 27.5q-37 0 -82.5 -1t-57.5 -1q-17 0 -22 -4t-10 -19l-146 -501q84 0 127 -2q133 0 179.5 18t78.5 84q4 8 8.5 18t7 16t6 12t6 9.5t5.5 6.5t6.5 4t7.5 1q21 0 21 -18q0 -16 -15 -59q-62 -170 -84 -310q-7 -35 -15.5 -50t-27.5 -15q-20 0 -20 24
q0 8 2 49t2 50q0 69 -32 85.5t-148 16.5h-135z" />
    <glyph glyph-name="G" unicode="G" horiz-adv-x="1099" 
d="M37 426v2q0 191 84.5 357t226.5 288q134 114 303 177t338 63q92 0 137 -19q29 -11 29 -26q0 -22 -14 -60q-12 -37 -37.5 -108.5t-38.5 -108.5q-11 -31 -20 -43t-23 -12q-13 0 -18 6.5t-5 24.5t20.5 113t20.5 132q0 26 -21 39t-71 13q-113 0 -252.5 -64t-251.5 -176
q-125 -126 -190.5 -296.5t-65.5 -311.5q0 -187 99 -301q93 -97 233 -97q47 0 87 19.5t52 40.5q21 38 35 96l70 238q14 57 14 71q0 25 -16 38t-55 16q-59 6 -66 13q-4 4 -4 13q0 23 31 23q30 0 91 -4t91 -4q39 0 103 4t83 4q35 0 35 -21q0 -11 -7 -17t-12.5 -7t-23.5 -4
q-61 -9 -80 -24.5t-33 -63.5l-114 -400q-3 -16 -78 -43q-104 -37 -234 -37q-193 0 -319 117q-133 124 -133 340z" />
    <glyph glyph-name="H" unicode="H" horiz-adv-x="1202" 
d="M362 645l-122 -432q-25 -92 -25 -115q0 -30 20 -40.5t54 -12.5q52 -3 62 -14q7 -6 7 -17q0 -22 -41 -22q-14 0 -76 4t-104 4q-32 0 -95.5 -4t-92.5 -4q-18 0 -25.5 4.5t-7.5 17.5q0 27 43 27q62 0 82 18q22 15 43 88l268 949q23 80 23 92q0 28 -18 39.5t-60 11.5
q-26 0 -35.5 4.5t-9.5 18.5q0 26 39 26q25 0 85 -4t91 -4q33 0 93.5 4t84.5 4q10 0 16.5 -6.5t6.5 -15.5q0 -17 -11.5 -22t-40.5 -5q-54 -3 -78 -27t-42 -88l-117 -422h268h256l111 398q16 65 16 100q0 39 -63 39q-47 -3 -47 25q0 24 28 24q25 0 82 -4t86 -4q38 0 98 4t78 4
q25 0 25 -22q0 -3 -0.5 -6t-2.5 -5t-4 -3.5t-5.5 -3t-6 -2.5t-8 -2t-9 -1.5l-10.5 -1.5t-11 -2q-50 -7 -68.5 -28.5t-34.5 -80.5l-258 -927q-20 -82 -20 -103q0 -27 19 -39.5t60 -19.5q16 -1 24.5 -2.5t16 -7.5t7.5 -17q0 -22 -29 -22q-26 0 -90 4t-101 4q-35 0 -97.5 -4
t-84.5 -4q-31 0 -31 20q0 16 13 21.5t41 9.5q4 1 18.5 2.5t22 2.5t19 4.5t19.5 8.5t13 13q5 7 9.5 15.5t10 23t8.5 25t11 36t12 39.5l117 432h-266h-259z" />
    <glyph glyph-name="I" unicode="I" horiz-adv-x="485" 
d="M193 84v-2q0 -38 57 -41q36 -1 48.5 -7.5t12.5 -21.5q0 -20 -32 -20q-9 0 -60 4t-115 4q-69 0 -118 -4t-54 -4q-32 0 -32 20q0 26 45 29q60 4 81.5 21t36.5 71l269 957q22 87 22 98q0 23 -13.5 33t-49.5 18q-38 7 -43 14q-4 6 -4 13q0 22 35 22q11 0 59 -4t100 -4
q54 0 106 4t60 4q31 0 31 -22q0 -11 -9 -16.5t-32 -10.5q-53 -10 -76.5 -31t-36.5 -63l-248 -881q-40 -141 -40 -180z" />
    <glyph glyph-name="J" unicode="J" horiz-adv-x="483" 
d="M348 1171v3q0 36 -20 47.5t-84 17.5q-31 0 -31 23q0 11 11 18.5t24 7.5q18 0 77.5 -4t100.5 -4q48 0 113 4t82 4q26 0 26 -24q0 -12 -8.5 -16t-33.5 -8q-5 -1 -7 -1q-59 -10 -79 -28t-32 -70q-151 -629 -233 -908q-35 -127 -63.5 -209t-42 -109.5t-42.5 -80.5
q-136 -254 -301 -254q-62 0 -98.5 37.5t-36.5 95.5q0 37 18.5 61.5t57.5 24.5q29 0 45.5 -19t18.5 -48q1 -5 1 -18.5t1 -22.5q2 -22 15 -37.5t30 -15.5q39 0 80 44t71 134q37 108 68 270q14 59 113 433t135 525q24 101 24 127z" />
    <glyph glyph-name="K" unicode="K" horiz-adv-x="978" 
d="M369 1186v2q0 20 -19 34t-57 17q-32 2 -43.5 7t-11.5 22q0 20 38 20q10 0 73.5 -4t111.5 -4q35 0 98 4t84 4q37 0 37 -22q0 -5 -2 -8.5t-6.5 -6t-8.5 -4.5t-12.5 -3t-13.5 -1.5t-15.5 -1.5t-15.5 -2q-52 -7 -73 -30.5t-37 -80.5q-52 -182 -138 -479q4 0 4 -4q8 7 26 22.5
t26 22.5q290 253 393 348q67 65 97 99.5t30 54.5q0 19 -19.5 31.5t-50.5 15.5q-39 0 -39 23q0 10 7 18t20 8q22 0 80.5 -4t99.5 -4q38 0 94 4t72 4q25 0 25 -22q0 -24 -49 -33q-55 -8 -164 -92q-127 -101 -435 -377q11 -24 43 -107l191 -495q27 -72 44.5 -94t47.5 -27
q7 -2 18 -4t16.5 -3.5t11.5 -4t8.5 -6t2.5 -9.5q0 -22 -24 -22q-4 0 -35.5 4t-52.5 4q-13 0 -46 -4t-48 -4q-19 0 -27 11t-21 48l-1.5 3t-1 3t-1.5 4q-124 320 -194 519q-30 86 -39 88q-10 -3 -53.5 -41t-81.5 -76l-90 -346q-25 -91 -25 -109q0 -30 20 -41.5t54 -15.5
q4 0 14 -0.5t14.5 -1t12.5 -1.5t11.5 -2.5t8 -4.5t6.5 -7t2 -10q0 -20 -28 -20q-25 0 -95.5 4t-105.5 4q-42 0 -107 -4t-81 -4q-14 0 -22.5 7t-8.5 17q0 13 9.5 19t20 7t33.5 1q14 0 25 1.5t20 6.5t15 8t12.5 13t9.5 14t8 19t7 20t7 24t7 25q164 567 262 916q3 13 8.5 36
t9 38t3.5 22z" />
    <glyph glyph-name="L" unicode="L" horiz-adv-x="823" 
d="M375 1184v2q0 25 -15.5 35.5t-48.5 17.5q-11 2 -24.5 3.5t-20 2.5t-13 3t-9 6.5t-2.5 11.5q0 22 26 22q16 0 82.5 -4t122.5 -4q42 0 108 4t89 4q16 0 22 -3.5t6 -14.5q0 -22 -57 -29q-3 -1 -4.5 -1t-4.5 -0.5t-5 -0.5q-65 -7 -86 -26t-41 -80q-7 -25 -269 -912
q-6 -22 -20.5 -70.5t-20.5 -74.5q-9 -27 17 -27h104q80 0 128.5 6t95 25t79.5 56.5t64 99.5q7 15 14 29t11.5 23.5l9 19t7.5 15t5.5 11t4.5 8.5t4 5t4 3t4.5 1.5t5.5 0.5q20 0 20 -16q0 -23 -66 -242q-22 -75 -29 -88.5t-24 -13.5q-16 0 -64.5 2t-146.5 4t-233 2
q-95 0 -182.5 -4t-94.5 -4q-21 0 -29 4.5t-8 17.5q0 14 15.5 20t58.5 9q42 3 64.5 27.5t38.5 76.5q183 614 272 900q35 122 35 137z" />
    <glyph glyph-name="M" unicode="M" horiz-adv-x="1318" 
d="M291 1262v2q0 11 9 17.5t24 6.5q8 0 46 -4t64 -4t68 4t61 4q13 0 16 -11.5t3 -45.5q3 -274 -2 -924l4 -4q140 231 254.5 423t190 321.5t97.5 166.5q4 6 11.5 19.5t12 20.5t11.5 16t13.5 13t13.5 5q10 0 45 -4t63 -4q16 0 49 4t50 4q16 0 22 -4.5t6 -17.5q0 -7 -2.5 -11
t-8.5 -6.5t-11 -4t-14.5 -3t-14.5 -2.5q-43 -8 -61 -33t-33 -84q-109 -462 -221 -886q-29 -122 -29 -136q0 -27 19 -42t49 -17q47 -3 47 -27q0 -12 -6 -17t-23 -5q-10 0 -66.5 4t-103.5 4q-48 0 -110.5 -4t-81.5 -4q-27 0 -27 18q0 12 9 16.5t40 12.5q4 1 6 2q38 9 58.5 17
t34.5 23.5t20 32.5t14 54q31 124 117 464.5t133 526.5h-4q-130 -214 -374.5 -623t-278.5 -466q-2 -3 -5 -8q-28 -45 -40 -48q-10 0 -12.5 17t-2.5 67q0 63 8 387.5t7 450.5q0 46 -2 119t-2 104h-5q-72 -212 -164.5 -485t-93.5 -277q-51 -155 -66.5 -208t-15.5 -78
q0 -60 66 -70q7 -1 17 -2t15 -2t12 -2t10 -3t6.5 -4.5t4.5 -6.5t1 -9q0 -20 -35 -20q-8 0 -60 4t-88 4q-39 0 -94 -4t-65 -4q-23 0 -23 20q0 13 10.5 19t48.5 10q44 3 69.5 32t51.5 99q107 312 212 608t114 324q27 76 27 98q0 29 -60 33q-42 3 -50 13q-5 6 -5 14z" />
    <glyph glyph-name="N" unicode="N" horiz-adv-x="1175" 
d="M852 274h4q147 476 231 777q29 98 29 123q0 32 -17.5 45.5t-62.5 19.5q-26 2 -36.5 7.5t-10.5 19.5q0 22 33 22q23 0 78 -4t82 -4q28 0 72.5 4t62.5 4q22 0 22 -22q0 -7 -2.5 -11t-8.5 -6.5t-10.5 -4t-15 -3t-16.5 -2.5q-45 -10 -69.5 -36t-49.5 -103
q-155 -479 -307 -994q-22 -79 -31.5 -101.5t-21.5 -22.5q-3 0 -5.5 1.5t-5.5 5t-5 7t-4.5 9.5t-4.5 11t-4.5 13t-4.5 13.5t-4.5 14.5t-4.5 15l-322 1065h-4q-214 -661 -248 -772q-61 -199 -61 -250q0 -61 76 -68q51 -9 60 -20q5 -6 5 -13q0 -22 -28 -22q-17 0 -75.5 4
t-103.5 4q-38 0 -89 -4t-70 -4q-27 0 -27 24q0 22 29 25q47 5 73 13.5t44 27.5q6 8 12 18.5t10 19t10.5 26t10 27t11 33t11.5 34.5q54 166 116.5 355t101.5 306.5t59 185.5q22 86 22 103q0 24 -12 32.5t-53 16.5q-39 3 -39 25q0 24 26 24q17 0 56 -2t59 -2q21 0 56 2t46 2
q16 0 23 -15t20 -69q38 -140 81 -283t113 -365t89 -282z" />
    <glyph glyph-name="O" unicode="O" horiz-adv-x="1105" 
d="M1085 782v-2q0 -107 -28.5 -221t-84 -218.5t-130 -188t-174 -133.5t-207.5 -50q-204 0 -303 174q-86 140 -86 359q0 108 28.5 222t84 218.5t130 188t174 133t207.5 49.5q125 0 214 -70t132 -188.5t43 -272.5zM696 1264h-2q-111 0 -207 -101.5t-163 -267.5
q-53 -125 -84 -266.5t-31 -259.5q0 -155 65.5 -253t186.5 -98q112 0 208.5 102t161.5 267q53 125 84 265.5t31 256.5q0 158 -63.5 256.5t-186.5 98.5z" />
    <glyph glyph-name="P" unicode="P" horiz-adv-x="958" 
d="M1020 1032v-2q0 -89 -49.5 -192t-153.5 -176q-82 -56 -181.5 -75.5t-227.5 -21.5h-76q-73 -250 -103 -360q-20 -85 -20 -105q0 -33 18 -44.5t58 -14.5q27 -1 39 -3t20 -7.5t8 -16.5q0 -22 -33 -22q-3 0 -63.5 4t-138.5 4q-75 0 -130.5 -4t-56.5 -4q-30 0 -30 20
q0 14 16 20t57 9q49 4 69 27.5t36 85.5q78 285 258 917q29 101 29 117q0 30 -16 39t-62 12q-37 4 -37 27q0 22 35 22q20 0 84.5 -4t103.5 -4q45 0 133 4t125 4q133 0 205 -55q84 -60 84 -201zM868 1065v2q0 93 -51.5 132.5t-173.5 39.5q-64 0 -87.5 -2t-32.5 -8t-13 -23
q-30 -110 -87 -316t-71 -257q-3 -11 2.5 -15t30.5 -4q126 0 202 20.5t142 84.5q65 63 102 160.5t37 185.5z" />
    <glyph glyph-name="Q" unicode="Q" horiz-adv-x="1105" 
d="M-84 -264v2q0 44 57 77.5t152 55.5q8 4 49 24t67.5 32.5t68 29t75.5 25.5q-106 20 -179 97t-104.5 184t-31.5 239q0 134 45.5 278t126.5 260q88 126 204 199.5t250 73.5q125 0 214 -70t132 -188.5t43 -272.5q0 -172 -70 -353.5t-190 -301.5q-146 -143 -346 -164
q-150 -44 -246 -96v-4q57 0 140 -33q33 -15 86.5 -46t92 -48t71.5 -17q143 0 204 154q1 1 2 4q17 24 27 25q7 0 12.5 -5.5t5.5 -13.5q0 -18 -17.5 -58t-43.5 -81q-46 -67 -110 -111.5t-142 -44.5q-68 0 -123 30t-112 81q-11 9 -34.5 30.5t-35 31t-29.5 22.5t-32.5 18.5
t-28.5 5.5q-36 0 -100 -55q-71 -53 -109 -53q-17 0 -29 11t-12 26zM946 911v2q0 157 -63.5 254t-186.5 97q-105 0 -195 -86.5t-159 -233.5q-61 -131 -97 -287.5t-36 -287.5q0 -156 65.5 -254.5t186.5 -98.5q102 0 193.5 88t158.5 232q61 133 97 288.5t36 286.5z" />
    <glyph glyph-name="R" unicode="R" horiz-adv-x="1052" 
d="M1034 1059v-2q0 -118 -66.5 -217t-187.5 -168q-79 -47 -137 -60v-4q25 -8 41 -69q19 -71 41 -159.5t35.5 -140t23.5 -85.5q18 -66 30.5 -87t39.5 -24q7 -1 17 -3t15.5 -3t13 -2.5t11.5 -3.5t8 -5t5.5 -7t1.5 -9q0 -18 -31 -18q-15 0 -47 4t-51 4q-13 0 -42.5 -1t-45.5 -1
q-24 0 -35 56q-1 5 -2 7q-79 330 -113 441q-20 73 -47 73q-10 0 -80.5 -6t-91.5 -6q-8 -21 -16 -55l-84 -324q-21 -74 -21 -102q0 -34 43 -41l28.5 -4.5t21.5 -5t17 -8.5t5 -11q0 -20 -33 -20q-28 0 -90 4t-98 4q-27 0 -81 -4t-81 -4q-29 0 -29 20q0 4 1.5 7.5t4.5 6
t6.5 4.5t9 3.5t10.5 2t12.5 1.5t12.5 1.5t13.5 1.5t13.5 1q33 3 50.5 25t35.5 88q244 879 256 923q21 85 21 103q0 20 -10.5 32.5t-22 16.5t-29.5 6q-4 1 -15.5 2t-16.5 2t-12 3.5t-10 6t-3 8.5q0 31 33 31t98 -4t98 -4q46 0 142 4t141 4q119 0 195.5 -57t76.5 -172z
M895 1063v2q0 104 -51 139t-162 35q-80 0 -110.5 -5.5t-41.5 -18.5t-22 -54l-123 -424q-4 -15 -11.5 -40t-13.5 -45.5t-10 -39.5q51 0 78 2q166 10 264 76q86 58 144.5 161t58.5 212z" />
    <glyph glyph-name="S" unicode="S" horiz-adv-x="729" 
d="M178 938v2q0 81 35 152.5t91.5 119t126.5 74.5t142 27q99 0 191 -41q43 -19 43 -33q0 -13 -14 -74q-4 -17 -13 -52.5t-10 -41.5q-27 -104 -36 -115q-6 -8 -15 -8q-19 0 -19 33q0 16 2 46t2 53.5t-4 43.5q-2 16 -3 22t-6 25.5t-10.5 29.5t-16.5 26.5t-25 25t-35 15
t-47 6.5q-106 0 -176 -72.5t-70 -175.5q0 -38 10.5 -73t38 -76.5t42.5 -61t57 -70.5q39 -46 63 -77.5t52 -78t41.5 -95t13.5 -101.5q0 -116 -62 -215t-159.5 -154t-202.5 -55q-57 0 -116.5 17.5t-98.5 44.5q-39 19 -39 47q0 5 26 233q6 46 12.5 59t24.5 13q7 0 11.5 -3.5
t7 -14t3 -19.5t1.5 -29q0 -133 16 -192q15 -49 59.5 -78t102.5 -29q122 0 200.5 90.5t78.5 227.5q0 69 -35.5 132.5t-102.5 143.5q-3 4 -25 30.5t-27 32.5t-24 30t-24.5 32.5t-20.5 30.5t-20 33.5t-14.5 31.5t-13 35t-6.5 33.5t-3 36.5z" />
    <glyph glyph-name="T" unicode="T" horiz-adv-x="851" 
d="M240 178l321 1055h-137q-101 0 -172 -80q-31 -40 -82 -154q-22 -53 -41 -53q-23 0 -23 27q0 26 105 334q5 21 8 30t11.5 18t21.5 9q12 0 18 -7.5t7 -13t2 -22.5q4 -41 53 -41h604q56 0 80 35q7 7 14.5 20t14.5 21t16 8q18 0 18 -23q0 -27 -92 -329q-10 -39 -19 -51.5
t-24 -12.5q-20 0 -20 23q0 11 11 75t11 91q0 63 -27 79.5t-128 16.5h-93l-323 -1073q-13 -43 -13 -68q0 -23 17.5 -33.5t52.5 -17.5q26 -3 36.5 -8t10.5 -15q0 -26 -41 -26q-20 0 -79 4t-101 4q-37 0 -91 -4t-69 -4q-35 0 -35 18q0 28 41 31q72 13 92 34t44 103z" />
    <glyph glyph-name="U" unicode="U" horiz-adv-x="1165" 
d="M137 236v2q0 63 60 290q29 109 87 308.5t70 240.5q21 95 21 99q0 32 -13.5 44.5t-48.5 18.5l-18 3t-16 3t-10.5 3.5t-8.5 6.5t-2 11q0 10 10 16t23 6q15 0 79 -4t105 -4q39 0 104.5 4t94.5 4q21 0 28 -5.5t7 -16.5q0 -5 -2.5 -8.5t-8.5 -6t-11 -4.5t-15 -3t-16.5 -2
t-19 -1.5t-18.5 -1.5q-47 -5 -73 -37t-53 -127q-40 -142 -85.5 -304t-69 -246t-38.5 -138q-29 -116 -29 -168q0 -95 71 -148t171 -53q91 0 158.5 27t114.5 81.5t77.5 122t55.5 163.5q33 130 91.5 345.5t75.5 280.5q29 114 29 136q0 38 -20.5 51.5t-79.5 13.5q-31 0 -40 4
t-9 21q0 24 32 24q17 0 68.5 -4t87.5 -4q35 0 89 4t69 4q32 0 32 -18q0 -4 -1 -7.5t-3.5 -6t-5.5 -4.5t-7.5 -3.5t-8.5 -2.5t-11 -2t-12 -1.5t-13.5 -1.5t-14.5 -2q-52 -8 -68.5 -33t-40.5 -112q-36 -134 -101.5 -378.5t-88.5 -330.5q-49 -189 -136 -283
q-122 -133 -342 -133q-155 0 -253.5 66.5t-98.5 200.5z" />
    <glyph glyph-name="V" unicode="V" horiz-adv-x="882" 
d="M410 240h6q139 256 283.5 520t174.5 321q46 88 46 111q0 25 -18 33.5t-68 13.5q-41 0 -41 25q0 24 32 24q21 0 64.5 -4t75.5 -4q52 0 101.5 4t55.5 4q23 0 23 -20q0 -11 -10.5 -17t-38.5 -12q-25 -7 -44 -17.5t-30.5 -17.5t-25 -26.5t-18 -26.5t-20 -37t-20.5 -39
q-100 -179 -299.5 -537.5t-298.5 -537.5q-17 -31 -33 -31q-12 0 -15 21t-5 80q-7 145 -22 504.5t-25 555.5q-3 68 -13 85.5t-43 23.5q-7 1 -18 2.5t-18.5 3t-15 4t-11.5 6.5t-4 11q0 9 10 15.5t25 6.5q11 0 59 -4t90 -4q35 0 103 4t85 4q27 0 27 -20q0 -25 -67 -29
q-50 -5 -63.5 -18.5t-12.5 -57.5v-61q20 -420 37 -862z" />
    <glyph glyph-name="W" unicode="W" horiz-adv-x="1355" 
d="M707 563l-355 -563q-21 -31 -35 -31q-20 0 -20 33l-49 1118q-3 54 -8 76.5t-14 31t-31 11.5q-33 5 -43.5 10t-10.5 19q0 9 8 14.5t19 5.5q24 0 76 -4t78 -4q28 0 78.5 4t66.5 4q29 0 29 -20q0 -4 -1.5 -7.5t-3 -6t-5 -4t-6 -2.5t-7.5 -2l-7.5 -1.5t-7.5 -1t-7 -0.5
q-31 -4 -46.5 -17.5t-15.5 -49.5q0 -16 1 -61t1 -60l29 -838h4l283 442l-25 467q-3 60 -16.5 84.5t-47.5 28.5q-18 1 -26 2.5t-14.5 7.5t-6.5 17q0 22 37 22q16 0 61 -4t76 -4q27 0 76.5 4t67.5 4q29 0 29 -20q0 -8 -3.5 -13.5t-15 -8.5t-16.5 -4t-23 -3q-25 -5 -39 -19.5
t-14 -48.5q0 -13 16 -325h4l170 272q43 73 43 94q0 27 -39 27q-17 2 -25.5 6.5t-8.5 18.5q0 11 9.5 17.5t22.5 6.5q14 0 56.5 -4t70.5 -4q24 0 65.5 4t57.5 4q25 0 25 -22q0 -24 -49 -27q-54 -6 -88.5 -33t-87.5 -108l-218 -338l29 -514h4l479 815q41 69 54.5 98t13.5 49
q0 14 -8.5 21t-28.5 10q-41 4 -41 27q0 9 7.5 15.5t19.5 6.5q22 0 66.5 -4t64.5 -4q23 0 60 4t51 4q22 0 22 -22q0 -16 -12 -22t-45 -13q-65 -13 -133 -127l-654 -1110q-14 -25 -30 -25q-19 0 -19 35l-20 559h-4z" />
    <glyph glyph-name="X" unicode="X" horiz-adv-x="983" 
d="M141 1266v2q0 20 37 20q2 0 55.5 -4t116.5 -4q45 0 110.5 4t84.5 4q24 0 24 -20q0 -15 -9.5 -19.5t-44.5 -7.5q-12 -1 -19 -2q-34 -5 -52 -16.5t-18 -38.5q0 -7 29 -111q23 -72 98 -332q155 189 268 318q66 84 76 107q8 17 8 32q0 34 -65 41q-60 6 -68 11t-8 20
q0 18 35 18l61 -4q62 -4 131 -4q60 0 108.5 4t55.5 4q35 0 35 -22q0 -14 -10.5 -20t-36.5 -7q-22 -2 -40 -7t-39 -18t-34 -22t-38.5 -34t-38 -38t-47.5 -51t-52 -57q-65 -69 -285 -328l148 -455q36 -119 54 -150.5t60 -37.5q10 -2 23.5 -3.5t20.5 -2.5t14.5 -3.5t10.5 -6.5
t3 -11q0 -12 -5.5 -17t-20.5 -5q-16 0 -81.5 4t-127.5 4q-34 0 -101.5 -4t-93.5 -4q-29 0 -29 18q0 5 1 8.5t4 6t5 4t8 2.5t9.5 1.5t11.5 1t13 1.5q26 2 42.5 4t33 7.5t24.5 15t8 24.5q0 27 -37 168q-18 53 -51.5 159.5t-50.5 159.5q-261 -322 -266 -329q-97 -132 -97 -158
q0 -37 45 -45q12 -3 25.5 -5t21.5 -3t15.5 -3t10.5 -6.5t3 -11.5q0 -20 -30 -20q-13 0 -74 4t-92 4q-34 0 -99.5 -4t-81.5 -4q-19 0 -25.5 4t-6.5 16q0 4 1.5 7.5t5 6t7 4t10.5 3t11.5 2.5t15 3t16.5 3q52 10 94.5 43t114.5 113q78 85 359 428q-93 336 -146 481
q-25 79 -44 103.5t-52 29.5q-7 1 -15.5 2.5t-13 2t-10.5 1.5t-9 2t-6.5 2t-5.5 2.5t-3.5 4t-2 5t-0.5 5.5z" />
    <glyph glyph-name="Y" unicode="Y" horiz-adv-x="866" 
d="M397 1178v-2q0 -20 17 -117q9 -48 23 -114.5t34.5 -160t34.5 -159.5q246 319 323 428q5 8 17 26l17 25.5t14 22t13 21.5t8.5 16.5t6.5 16t2 11.5q0 35 -61 47q-56 9 -62 16q-4 5 -4 11q0 22 27 22q3 0 52.5 -4t121.5 -4q30 0 69.5 4t51.5 4q26 0 26 -20q0 -25 -36 -29
q-43 -8 -75 -33.5t-91 -107.5q-121 -160 -416 -547q-62 -212 -104 -344q-23 -87 -23 -109q0 -28 16 -39t52 -18q7 -1 16 -2t14 -2t11.5 -2t10 -2.5t7 -4t5 -6t1.5 -8.5q0 -13 -7.5 -17.5t-29.5 -4.5q-17 0 -83.5 4t-106.5 4q-48 0 -117.5 -4t-79.5 -4q-33 0 -33 18
q0 8 4.5 13t14.5 7.5t20 4t27 3t29 3.5q39 7 59 33t41 90q99 330 121 407q-50 250 -99 467q-24 126 -38.5 157.5t-57.5 43.5q-9 2 -21 4.5t-17.5 4t-12 4t-8.5 6t-2 8.5q0 22 31 22q6 0 50.5 -4t108.5 -4q85 0 146.5 4t66.5 4q27 0 27 -20q0 -7 -3.5 -11t-12 -7t-15.5 -4
t-23 -3t-26 -4q-41 -8 -56.5 -20.5t-15.5 -40.5z" />
    <glyph glyph-name="Z" unicode="Z" horiz-adv-x="868" 
d="M-82 14v2q0 12 94 144q315 412 693 952q10 14 22.5 32t20.5 29t15.5 22.5t11 18t3.5 9.5q0 6 -24 7t-136 1q-137 0 -211 -41t-124 -141q-14 -26 -24.5 -50t-15 -36t-9.5 -21.5t-10 -12.5t-15 -3q-19 0 -19 20q0 7 13.5 63t33 131.5t23.5 90.5q9 39 15 48t24 9
q33 0 153.5 -4t202.5 -4q67 0 160 4t125 4q29 0 29 -14q0 -11 -60 -100q-283 -375 -676 -932q-120 -171 -120 -183q0 -7 29.5 -8.5t172.5 -1.5q82 0 131 6.5t96.5 28t82.5 63.5t69 113q11 22 19.5 43.5t12 33t7.5 21.5t9.5 13.5t13.5 3.5t14 -5t6 -14q0 -13 -32.5 -142
t-45.5 -173q-9 -34 -16 -41.5t-27 -7.5q-35 0 -157.5 4t-233.5 4q-86 0 -181.5 -4t-119.5 -4q-26 0 -35.5 4.5t-9.5 17.5z" />
    <glyph glyph-name="bracketleft" unicode="[" horiz-adv-x="645" 
d="M551 1432h248q24 0 24 -21q0 -10 -9 -19.5t-23 -9.5h-101q-70 0 -91 -16.5t-44 -93.5l-391 -1411q-29 -102 -29 -125q0 -22 17.5 -31.5t72.5 -9.5h123q20 0 25.5 -5.5t5.5 -17.5q0 -26 -33 -26h-278q-48 0 -63 6.5t-15 25.5q0 14 4.5 34.5t16 61t16.5 60.5l436 1573
q4 17 19 21t69 4z" />
    <glyph glyph-name="backslash" unicode="\" horiz-adv-x="653" 
d="M96 1421v2q0 9 23 9h18q14 0 21.5 -10t13.5 -36l463 -1689q10 -30 10 -45q0 -10 -22 -10h-21q-12 0 -19 9t-14 36l-465 1689q0 1 -4 19.5t-4 25.5z" />
    <glyph glyph-name="bracketright" unicode="]" horiz-adv-x="645" 
d="M78 -354h-248q-25 0 -25 20q0 10 9.5 19.5t23.5 9.5h101q71 0 92.5 17t42.5 93l391 1412q29 101 29 124q0 22 -18 31.5t-73 9.5h-122q-20 0 -25.5 5.5t-5.5 17.5q0 27 33 27h280q46 0 61 -7t15 -26q0 -14 -4.5 -34.5t-16 -61t-16.5 -60.5l-436 -1573q-4 -17 -19 -20.5
t-69 -3.5z" />
    <glyph glyph-name="asciicircum" unicode="^" horiz-adv-x="1216" 
d="M571 1280h99l424 -819h-117l-356 686l-357 -686h-114z" />
    <glyph glyph-name="underscore" unicode="_" horiz-adv-x="1024" 
d="M0 -154h1024v-102h-1024v102z" />
    <glyph glyph-name="grave" unicode="`" horiz-adv-x="516" 
d="M117 1348v2q0 23 14.5 36t36.5 13q27 0 49.5 -16.5t50.5 -51.5l170 -192q45 -52 45 -62q0 -16 -16 -16q-15 0 -59 35l-226 170q-21 17 -31 25.5t-21.5 25t-12.5 31.5z" />
    <glyph glyph-name="a" unicode="a" horiz-adv-x="954" 
d="M-27 162v2q0 127 62.5 265t159.5 255q97 114 208.5 184t208.5 70q27 0 51 -5.5t39 -13t25.5 -15.5t16 -13.5t6.5 -5.5q4 0 22 53q5 11 12 15.5t23 4.5h61q23 0 23 -14q0 -13 -8 -33q-88 -273 -201 -614q-39 -121 -39 -154q0 -30 23 -30q38 0 135 149q11 18 20.5 35
t13.5 26t8 16.5t7.5 10t9.5 2.5q14 0 14 -16q0 -22 -33.5 -81.5t-76.5 -117.5q-50 -68 -108 -115t-107 -47q-55 0 -55 72q0 47 24 123q4 15 100 311l-4 2q-35 -54 -67.5 -102.5t-94 -128.5t-115.5 -136t-117.5 -98.5t-113.5 -42.5q-68 0 -100.5 51t-32.5 136zM717 803v2
q0 46 -28 71t-75 25q-78 0 -165.5 -78t-165.5 -198q-73 -111 -122.5 -236t-49.5 -207q0 -96 69 -96q58 0 149 90t179 217q83 118 146 238t63 172z" />
    <glyph glyph-name="b" unicode="b" horiz-adv-x="937" 
d="M881 686v-2q0 -117 -48.5 -243.5t-129 -231t-195.5 -172.5t-236 -68q-108 0 -169.5 65t-61.5 173q0 76 49 242q37 140 123 416.5t96 308.5q25 102 25 106q0 23 -12 34.5t-43 14.5q-28 2 -40 7t-12 18q0 24 62 24q105 0 198 58q13 10 19 10q14 0 14 -16q0 -6 -3.5 -17
t-15 -45t-22.5 -68l-233 -763h6q24 38 38.5 60.5t48.5 71.5t61 81.5t67.5 74.5t75.5 67.5t77.5 43.5t81.5 18q52 0 89.5 -24.5t55.5 -66.5t26 -85t8 -92zM741 700v2q0 74 -26 117t-76 43q-79 0 -198.5 -137.5t-207.5 -313t-88 -280.5q0 -54 33.5 -85.5t93.5 -31.5
q86 0 174.5 74.5t151.5 181.5t103 224.5t40 205.5z" />
    <glyph glyph-name="c" unicode="c" horiz-adv-x="729" 
d="M729 825v-2q0 -34 -25 -57t-63 -23q-48 0 -66 35q-14 28 -20 68q-5 22 -9 32.5t-15.5 19.5t-30.5 9q-47 0 -106 -46.5t-109 -121.5q-60 -83 -95.5 -197.5t-35.5 -240.5q0 -104 45.5 -165.5t126.5 -61.5q59 0 119 46.5t108 115.5q17 23 37.5 57t31.5 49t19 16q14 0 14 -20
q0 -6 -4 -18t-9 -22.5t-14 -29t-14 -28.5q-26 -47 -59.5 -90t-77.5 -84t-99.5 -66t-113.5 -25q-112 0 -179 86t-67 240q0 129 45 248.5t123 212.5q77 88 173 140t190 52q78 0 129 -34.5t51 -94.5z" />
    <glyph glyph-name="d" unicode="d" horiz-adv-x="954" 
d="M-10 186v2q0 143 62.5 282t166.5 251q96 106 215.5 169.5t227.5 63.5q67 0 120 -41q42 130 90 289q21 66 21 76q0 41 -62 47q-27 1 -37 7t-10 18q0 24 60 24q105 0 172 43q46 29 55 29q10 0 10 -14q0 -2 -26 -89q-289 -880 -344 -1046q-43 -125 -43 -166q0 -27 22 -27
q50 0 137 156q7 11 15 26t13 24t10.5 18t11 13.5t10.5 4.5q16 0 16 -16q0 -33 -67 -142q-53 -85 -118.5 -149t-121.5 -64q-64 0 -64 88q0 42 25 144q33 122 72 242l-4 4q-152 -233 -270.5 -355.5t-217.5 -122.5q-67 0 -107 51.5t-40 159.5zM743 823v2q0 42 -26 67.5
t-72 25.5q-81 0 -173.5 -71.5t-170.5 -182.5q-77 -111 -126.5 -237.5t-49.5 -229.5q0 -123 82 -123q57 0 148 92.5t180 224.5q84 126 146 249.5t62 182.5z" />
    <glyph glyph-name="e" unicode="e" horiz-adv-x="720" 
d="M725 778v-2q0 -311 -537 -377q-4 0 -12 -1t-12 -1q-14 -57 -14 -121q0 -100 35.5 -152t103.5 -52q64 0 134.5 48t135.5 136q16 21 28 41t16.5 25.5t10.5 5.5t11.5 -5t5.5 -14q0 -19 -45 -86q-29 -43 -66 -84t-83.5 -79.5t-101 -61.5t-106.5 -23q-104 0 -160.5 78.5
t-56.5 227.5q0 132 50.5 258.5t127.5 216t171 144t180 54.5q88 0 136 -52t48 -124zM526 918h-2q-99 0 -204.5 -135t-147.5 -345q158 23 258.5 86t140.5 144q39 79 39 157q0 42 -22 67.5t-62 25.5z" />
    <glyph glyph-name="f" unicode="f" horiz-adv-x="483" 
d="M811 1346v-3q0 -37 -23.5 -59t-54.5 -22q-35 0 -53.5 18.5t-20.5 50.5q-5 32 -6 39q-7 27 -32 27q-46 0 -99 -60q-58 -72 -104 -245q-14 -67 -43 -170h153q8 0 12.5 -0.5t7 -3.5t1.5 -9q-4 -12 -6 -20q-3 -17 -27 -17h-154q-94 -356 -141 -536q-52 -212 -92.5 -343.5
t-89.5 -223.5q-112 -213 -291 -213q-58 0 -96.5 30t-38.5 90q0 38 19.5 59t48.5 21q46 0 61 -49q2 -10 3 -34t3 -33q9 -35 45 -35q37 0 63.5 24t51.5 86q52 115 178 609q49 184 147 548h-127q-17 0 -14 17q0 13 6 22q4 11 25 11h125q63 263 162 385q112 139 276 139
q52 0 88.5 -25.5t36.5 -74.5z" />
    <glyph glyph-name="g" unicode="g" horiz-adv-x="831" 
d="M121 604v2q0 139 99 243.5t243 104.5q63 0 129 -30q20 -10 35 -19h217h8t5 -0.5t3 -2v-3.5q-4 -34 -8 -47q-3 -8 -6 -10t-12 -2l-150 -6q47 -89 47 -185q0 -138 -97 -248t-239 -110q-106 0 -178 57q-22 -10 -40.5 -32.5t-18.5 -45.5q0 -18 11 -34.5t25.5 -27.5t42 -24
t48 -20t57 -19.5t55.5 -19.5q45 -17 77.5 -31.5t71 -39t63 -51t41 -65t16.5 -83.5q0 -50 -27 -102t-76 -96.5t-128.5 -72.5t-174.5 -28q-98 0 -184 29.5t-144.5 93.5t-58.5 151q0 39 14.5 72t41.5 57.5t57 43t71 33t73.5 23t72.5 17.5q-119 52 -119 145q0 96 106 158
q-69 89 -69 225zM616 731v2q0 90 -38.5 137.5t-108.5 47.5q-64 0 -118 -60t-83.5 -152t-29.5 -190q0 -96 36.5 -142t100.5 -46q67 0 124.5 70.5t87 162t29.5 170.5zM270 -408h2q66 0 128 22t107.5 72.5t45.5 118.5q0 107 -123 168q-27 16 -61.5 31t-75.5 30t-60 23
q-40 -12 -71 -24.5t-65 -33t-57 -45t-37.5 -59.5t-14.5 -77q0 -68 44 -121t107.5 -79t130.5 -26z" />
    <glyph glyph-name="h" unicode="h" horiz-adv-x="858" 
d="M791 694v-2q0 -155 -67 -325.5t-170 -284t-198 -113.5q-40 0 -65 29t-25 76q0 33 18.5 55.5t45.5 22.5q48 0 51 -70q3 -49 33 -49q47 0 105 138.5t96 301.5t40 252q1 65 -15 94t-52 29q-49 0 -120 -79.5t-140 -197.5q-153 -271 -222 -512q-11 -41 -20.5 -50t-46.5 -9
q-56 0 -62 5q-4 3 -4 9q0 4 4.5 18.5t6.5 26.5q159 535 319 1100q31 114 31 131t-10 24.5t-35 10.5q-34 3 -47 6q-15 3 -15 21q0 16 29 20q127 14 184 51q40 23 49 23q15 0 15 -19q0 -3 -1.5 -9.5t-5 -19t-5.5 -24.5q-1 -2 -47.5 -154.5t-98 -329t-113.5 -398.5l5 -5
q39 75 84 147.5t101.5 149t115 123.5t106.5 47q44 0 74.5 -21.5t45 -60.5t20.5 -81t6 -97z" />
    <glyph glyph-name="i" unicode="i" horiz-adv-x="483" 
d="M512 1237v-2q0 -48 -31.5 -91.5t-70.5 -43.5q-25 0 -39.5 20t-14.5 51q0 50 31.5 94t69.5 44q25 0 40 -20.5t15 -51.5zM408 874v-2q0 -53 -39 -165q-63 -186 -168 -484q-23 -74 -23 -90q0 -27 27 -27q22 0 54 36t85 122q10 17 19.5 35t13.5 27.5t9.5 15.5t12.5 6
q17 0 17 -14q0 -34 -74 -146q-53 -84 -115.5 -145t-117.5 -61q-33 0 -48.5 25t-15.5 61q0 58 47 190q71 204 137 399q43 117 43 148q0 29 -24 29q-31 0 -98 -86q-22 -29 -39.5 -55.5t-25.5 -41t-14.5 -26t-11.5 -15.5t-12 -4q-14 0 -14 15q0 13 26.5 59.5t59.5 93.5
q53 75 113 127.5t110 52.5q66 0 66 -80z" />
    <glyph glyph-name="j" unicode="j" horiz-adv-x="471" 
d="M539 1237v-2q0 -49 -31 -92t-70 -43q-25 0 -39 20t-14 51q0 51 30.5 94.5t69.5 43.5q25 0 39.5 -20.5t14.5 -51.5zM428 883v-2q0 -32 -37 -176q-24 -88 -59.5 -207.5t-83.5 -276.5t-74 -246q-55 -187 -131 -297q-96 -137 -231 -137q-55 0 -93 33.5t-38 91.5q0 33 19 58.5
t56 25.5q30 0 43.5 -18.5t16.5 -55.5q7 -88 53 -88q22 0 39.5 18t38.5 64q12 25 61 187q159 560 244 821q39 121 39 129q0 27 -19 27q-36 0 -104 -80q-27 -32 -49 -65.5t-31 -47.5t-16 -14q-21 0 -21 12q0 34 88 147q54 69 117 118.5t113 49.5q59 0 59 -71z" />
    <glyph glyph-name="k" unicode="k" horiz-adv-x="833" 
d="M791 762v-2q0 -66 -33 -130.5t-91.5 -116.5t-145.5 -86.5t-187 -41.5l-2 -4q26 -13 46 -34t35.5 -52.5t22.5 -50.5t19 -58q31 -97 51 -124q23 -31 55 -31q31 0 50.5 27t19.5 55q0 33 -33 64.5t-33 64.5q0 28 15 45.5t38 17.5q64 0 64 -112q0 -82 -44 -146.5t-128 -64.5
q-40 0 -72.5 16t-52.5 38.5t-38 59t-27 65t-21.5 70.5t-19.5 62q-22 69 -56 69q-12 0 -20 -10.5t-19 -46.5q-8 -26 -33.5 -116t-41.5 -140q-8 -32 -13.5 -40.5t-23.5 -8.5h-84q-19 0 -19 12q0 10 15 60q65 214 183.5 607.5t149.5 496.5q21 79 21 104q0 24 -13 36t-46 15
q-27 1 -37.5 7t-10.5 18q3 22 60 22q106 0 186 47q31 21 37 21q14 0 14 -14q0 -5 -4 -17t-15.5 -46t-23.5 -71l-229 -745l2 -4q237 399 397 399q64 0 100 -52t36 -134zM657 768v2q0 36 -16 59t-45 23q-52 0 -136.5 -89t-150.5 -193.5t-82 -161.5q23 0 60 6q67 10 127.5 37.5
t104 65t75 81.5t47.5 87.5t16 82.5z" />
    <glyph glyph-name="l" unicode="l" horiz-adv-x="468" 
d="M14 82v2q0 62 41 213q38 144 127 449.5t109 379.5q33 132 33 150q0 22 -13.5 34t-46.5 15q-28 1 -38.5 7t-10.5 18q3 24 61 24q104 0 183 49q38 23 39 23q16 0 16 -16q0 -4 -5 -18t-14 -39.5t-16 -49.5q-85 -297 -299 -1036q-30 -100 -30 -148q0 -35 26 -35
q24 0 54.5 33.5t74.5 106.5q11 18 28 51t28 51.5t18 18.5q14 0 14 -17q0 -14 -22.5 -61.5t-53.5 -98.5q-51 -84 -113.5 -145t-119.5 -61q-70 0 -70 100z" />
    <glyph glyph-name="m" unicode="m" horiz-adv-x="1521" 
d="M436 881v-2q0 -88 -108 -390l4 -2q9 14 40 62.5t55 83.5t61.5 87t72 89t74 72.5t80 54t78.5 18.5q48 0 76 -38t28 -105q0 -93 -94 -340l4 -4q121 208 215 317q147 170 260 170q55 0 86 -33.5t31 -86.5q0 -65 -53 -205q-28 -78 -91 -228.5t-81 -201.5q-21 -48 -21 -78
q0 -29 27 -29q58 0 145 123q24 31 45 65t30 47t15 13q15 0 15 -14q0 -17 -29 -67.5t-68 -100.5q-53 -72 -118.5 -124t-124.5 -52q-35 0 -53.5 22t-18.5 59q0 80 61 230q23 58 69 169t56 136q60 159 60 205q0 25 -14.5 40t-39.5 15q-50 0 -122 -70.5t-150 -183.5
q-169 -250 -272 -532q-19 -50 -27.5 -61t-22.5 -11h-75q-27 0 -27 12q0 4 18 56t65.5 182t85 236.5t54.5 166.5q29 111 29 142q0 63 -49 63q-39 0 -104 -62t-130 -155q-90 -123 -172.5 -274.5t-124.5 -282.5q-22 -62 -29.5 -73t-29.5 -11h-70q-22 0 -22 12q0 10 16 56
q29 82 103.5 294t115.5 328q33 94 33 121q0 33 -35 33q-32 0 -133 -125q-10 -13 -28.5 -42t-31 -45t-18.5 -16q-14 0 -14 15q0 14 28.5 60.5t63.5 90.5q142 172 240 172q31 0 46 -20t15 -53z" />
    <glyph glyph-name="n" unicode="n" horiz-adv-x="1064" 
d="M948 842v-2q0 -56 -37 -152q-27 -74 -83.5 -219t-84.5 -219q-32 -84 -32 -123q0 -33 26 -33q51 0 131 105q19 26 36 51.5t25.5 40t15.5 26.5t12 16.5t10 4.5q12 0 12 -19q0 -36 -78 -141q-56 -79 -121.5 -137.5t-117.5 -58.5q-45 0 -66 26.5t-21 69.5q0 91 76 282
q106 268 133 340q29 85 29 117q0 29 -13.5 44.5t-37.5 15.5q-53 0 -130 -68t-163 -184q-87 -119 -166.5 -275t-130.5 -301q-13 -35 -19.5 -42t-23.5 -7h-63q-25 0 -25 12q0 18 35 111q76 211 182 559q27 80 27 119q0 43 -35 43q-25 0 -63.5 -35t-82.5 -98
q-10 -15 -26.5 -44.5t-26.5 -42t-18 -12.5q-15 0 -15 15q0 13 25 56.5t57 86.5q51 74 115.5 129t118.5 55q84 0 84 -96q0 -49 -27 -151q-65 -208 -72 -238l5 -4q26 52 64 111.5t92.5 128t111 123t122.5 90.5t124 36q48 0 79 -30.5t31 -81.5z" />
    <glyph glyph-name="o" unicode="o" horiz-adv-x="837" 
d="M764 588v-2q0 -98 -33 -199.5t-90 -185.5q-67 -104 -161 -168t-193 -64q-126 0 -197.5 100t-71.5 265q0 108 39 219.5t102.5 200t152 144.5t180.5 56q126 0 199 -100.5t73 -265.5zM647 664v2q0 241 -153 241q-62 0 -123 -56t-111 -149q-57 -99 -91 -219.5t-34 -220.5
q0 -246 156 -246q60 0 120 56t113 151q55 100 89 221.5t34 219.5z" />
    <glyph glyph-name="p" unicode="p" horiz-adv-x="839" 
d="M786 680v-2q0 -117 -46 -241.5t-122 -225.5q-79 -103 -176.5 -164t-199.5 -61q-91 0 -156 65q-54 -182 -68 -246q-30 -111 -30 -129q0 -30 15 -43t44 -18q7 -1 26 -3t26.5 -3.5t19 -4.5t16 -8t4.5 -12q0 -10 -6 -14t-24 -4q-27 0 -97 4t-102 4q-40 0 -114 -5t-97 -5
t-23 14q0 17 14 23.5t52 9.5q63 4 82 29t53 137l322 1069q1 4 1 6.5t-4 2.5t-14 -3q-28 -12 -62 -28t-51 -23.5t-26 -7.5q-14 0 -14 14q0 13 43 37q70 36 129 57q14 5 18 19l64 202q5 18 22 23q8 2 45 2h41q12 0 12 -12q0 -1 -4 -25q-36 -122 -47 -170q27 8 74 12q25 2 74 2
q130 0 208 -68.5t78 -205.5zM467 905h-2q-64 0 -129 -18q-10 -35 -29 -96t-24 -78q-82 -282 -127 -428q-33 -108 -33 -156q0 -51 35.5 -77.5t85.5 -26.5q80 0 152.5 63t131.5 170q56 100 89.5 222.5t33.5 236.5q0 102 -47 145t-137 43z" />
    <glyph glyph-name="q" unicode="q" horiz-adv-x="843" 
d="M-49 190v3q0 123 56.5 258t146.5 247q92 114 202 185t209 71q40 0 94 -16q47 -14 62 -14q31 0 59 28q31 27 41 27q13 0 13 -16q0 -9 -8 -31t-24 -68t-30 -98q-71 -269 -260 -936q-39 -130 -39 -160q0 -40 70 -55q52 -13 57 -19q4 -5 4 -12q0 -18 -31 -18q-17 0 -75 4
t-103 4q-46 0 -120 -5t-91 -5q-24 0 -24 14q0 4 1 8t4 6.5t5.5 4.5t8 4t10 3t12.5 2.5t13.5 2t16 2l17.5 2.5q49 6 67.5 25t34.5 75l187 666l-5 4q-54 -84 -100 -146t-102.5 -123.5t-114.5 -94.5t-113 -33q-73 0 -112 59t-39 145zM659 811v2q0 50 -27 77.5t-75 27.5
q-76 0 -159 -75.5t-154 -193.5q-68 -115 -113 -242t-45 -221q0 -118 80 -118q57 0 144 92t163 214.5t131 248t55 188.5z" />
    <glyph glyph-name="r" unicode="r" horiz-adv-x="702" 
d="M735 844v-2q0 -74 -35.5 -126t-76.5 -52q-48 0 -48 41q-2 22 10 51.5t11 48.5q0 31 -25 31q-21 0 -67 -65t-101 -167q-132 -258 -221 -534q-16 -49 -26.5 -59.5t-51.5 -10.5q-39 0 -51 2t-12 10q0 4 12 54q97 342 166 608q2 8 9 35.5t11.5 50t4.5 35.5q0 32 -21 32
q-38 0 -110 -106q-7 -11 -43 -84q-5 -12 -8 -17.5t-8.5 -9.5t-14.5 -4q-16 0 -16 19q0 12 26.5 62.5t59.5 100.5q43 63 93 106.5t95 43.5q39 0 59.5 -25.5t20.5 -68.5q0 -15 -3.5 -36.5t-12.5 -57t-18 -70t-25.5 -96.5t-30.5 -115l4 -4q219 483 368 483q37 0 56.5 -27.5
t19.5 -76.5z" />
    <glyph glyph-name="s" unicode="s" horiz-adv-x="598" 
d="M465 266v-2q0 -56 -25 -109t-65 -92q-91 -88 -225 -88q-98 0 -185 56q-37 26 -37 45q0 40 31 174q10 49 16.5 64.5t20.5 15.5q13 0 18.5 -14t8.5 -56q3 -65 20 -115t57.5 -85t100.5 -35q59 0 104 49t45 110q0 65 -31 119t-90 119q-56 63 -87 117.5t-31 119.5
q0 118 81 206.5t197 88.5q69 0 138 -24t69 -49q0 -27 -21 -121q-20 -80 -28 -89q-5 -7 -17 -7q-13 0 -20 13.5t-15.5 54.5t-11.5 54q-33 121 -131 121q-59 0 -99 -43.5t-40 -105.5q0 -12 2 -24.5t4.5 -23t8.5 -24t9.5 -22t13 -23.5t13.5 -21.5t16.5 -23t16 -21.5t18 -23
t17.5 -22q34 -41 50 -62.5t39.5 -58.5t33.5 -71.5t10 -71.5z" />
    <glyph glyph-name="t" unicode="t" horiz-adv-x="477" 
d="M6 68v2q0 69 49 233q43 131 189 569h-117q-17 0 -14 15q0 15 6 24q3 11 20 11h123l86 262q4 17 11 24t24 11q8 2 27 2h41q28 0 28 -13q0 -20 -18 -75q-27 -86 -68 -211h144q12 0 15.5 -2.5t0.5 -12.5q0 -7 -6 -22q-3 -13 -23 -13h-147q-39 -121 -180 -544
q-58 -163 -58 -189q0 -16 9 -25.5t20 -9.5q17 0 40.5 23.5t68.5 79.5q5 7 8 10q16 21 29.5 43t20.5 34.5t13.5 23.5t12 15.5t12.5 4.5q14 0 14 -16q0 -26 -74 -134q-57 -83 -122.5 -144.5t-118.5 -61.5q-66 0 -66 86z" />
    <glyph glyph-name="u" unicode="u" horiz-adv-x="1062" 
d="M66 80v2q0 60 38 172q30 87 96.5 251.5t82.5 205.5q30 84 30 98q0 29 -22 29q-43 0 -139 -127q-14 -20 -29 -42.5t-23 -34t-15.5 -22t-12.5 -14.5t-9 -4q-16 0 -16 16q0 11 33 64t80 114.5t107.5 110.5t105.5 49q73 0 73 -90q0 -41 -43 -158q-27 -73 -86 -223.5
t-77 -197.5q-41 -112 -41 -146q0 -43 43 -43q44 0 125.5 62t160.5 157q207 250 308 574q8 22 13 30t15 9q16 4 84 4q19 0 19 -21q0 -6 -5 -19.5t-6 -17.5q-15 -45 -104 -292.5t-121 -352.5q-20 -72 -20 -96q0 -14 7 -23.5t17 -9.5q45 0 150 139q15 20 27.5 39t18.5 29.5
t12 19t9.5 12t8.5 3.5q18 0 18 -19q0 -11 -21 -48t-57.5 -85t-79 -93.5t-93 -77t-91.5 -31.5q-30 0 -46 21.5t-16 51.5q0 18 3 39t9.5 49.5t12.5 50.5t18.5 60.5t19.5 60.5t23 68.5t23 67.5l-4 2q-40 -60 -85 -119.5t-103.5 -124.5t-114 -114t-115 -81t-108.5 -32
q-42 0 -65 26t-23 72z" />
    <glyph glyph-name="v" unicode="v" horiz-adv-x="821" 
d="M41 129v2q0 66 53 209q26 70 80.5 202t71.5 177q28 72 28 96q0 35 -26 35q-30 0 -92 -77.5t-93 -129.5q-16 -25 -26 -25q-14 0 -14 15q0 19 22 53q25 39 38 58.5t41.5 55t55.5 60.5q84 88 162 88q33 0 49.5 -25t16.5 -63q0 -51 -35 -147q-23 -66 -80.5 -210.5
t-79.5 -205.5q-41 -112 -41 -158q0 -39 19 -63.5t57 -24.5q63 0 134 51t129.5 128.5t107 162.5t75.5 158t27 111q0 48 -21 88q-2 4 -10.5 21.5t-11.5 25.5t-6.5 24.5t-3.5 34.5q0 43 18 67.5t45 24.5q29 0 50.5 -34.5t21.5 -92.5q0 -92 -36 -206.5t-99.5 -224t-140.5 -202
t-167 -149.5t-172 -57q-147 0 -147 147z" />
    <glyph glyph-name="w" unicode="w" horiz-adv-x="1200" 
d="M752 926h47q22 0 29.5 -5t7.5 -18q0 -6 -17 -59q-12 -41 -71 -208.5t-97.5 -302.5t-38.5 -206q0 -31 15 -53.5t45 -22.5q65 0 143.5 77.5t139 180t102 201.5t41.5 145q0 45 -27 98t-27 97q0 45 16 71.5t46 26.5q72 0 72 -143q0 -68 -30.5 -172t-87 -216t-126.5 -210
t-158 -161.5t-172 -63.5q-50 0 -79 31t-29 89q0 82 49 254l-4 4q-22 -40 -35 -63t-41 -68.5t-50 -73.5t-55 -64.5t-63 -57.5t-67 -36t-74 -15q-129 0 -129 147q0 64 58.5 215.5t116.5 293t58 181.5q0 31 -22 31q-20 0 -47.5 -25.5t-73.5 -85.5q-21 -28 -39 -53.5t-26.5 -38
t-15.5 -23t-11.5 -13.5t-10.5 -3q-14 0 -14 15q0 10 20 45.5t55 82.5t75 91.5t86 75t83 30.5q40 0 58 -25t18 -63q0 -44 -36.5 -150t-81 -211t-81 -211.5t-36.5 -152.5q0 -74 55 -74q57 0 124.5 69.5t125.5 170.5t108 221q36 84 125 336q15 43 25 55.5t29 12.5z" />
    <glyph glyph-name="x" unicode="x" horiz-adv-x="847" 
d="M858 846v-2q0 -59 -26.5 -104.5t-67.5 -45.5q-47 0 -51 49q0 15 12 45t12 37q0 11 -7 18t-19 7q-21 0 -78 -76q-20 -25 -44 -60t-62 -95t-56 -87q48 -251 59 -313q15 -76 28.5 -101.5t35.5 -25.5q53 0 88 154q3 13 5 26t3.5 21t2.5 15.5t2.5 11.5t3.5 7t5 4t7 1
q18 0 18 -25q0 -27 -12.5 -78t-34 -107.5t-58.5 -98t-79 -41.5q-45 0 -69 24.5t-40 75.5q-7 23 -14.5 57.5t-13 65t-15.5 88.5t-18 98q-135 -212 -230 -315q-87 -94 -163 -94q-82 0 -82 98q0 64 29 108.5t65 44.5q59 0 59 -63q0 -22 -16.5 -53.5t-16.5 -34.5q0 -21 25 -21
q38 0 130.5 114t189.5 271q-36 203 -64 306q-15 46 -29 66t-39 20q-67 0 -94 -142q-4 -16 -6.5 -33.5t-4 -26.5t-3.5 -17.5t-5.5 -11.5t-8.5 -3q-19 0 -19 21q0 13 4.5 44.5t19 80.5t35.5 92t59 74.5t85 31.5q50 0 76 -34t45 -123q33 -147 43 -211q123 209 193 288.5
t132 79.5q74 0 74 -102z" />
    <glyph glyph-name="y" unicode="y" horiz-adv-x="827" 
d="M813 819v-2q0 -125 -96 -307.5t-303 -468.5q-90 -115 -113 -147q-70 -92 -115 -146t-96 -102.5t-96 -69t-94 -20.5q-54 0 -85.5 36.5t-31.5 92.5q0 31 18.5 54t48.5 23q28 0 43 -19t25 -69q8 -41 53 -41q38 0 88 39t93 99q95 129 114 274q15 123 15 324q0 269 -15.5 375
t-56.5 106q-26 0 -50.5 -30t-54.5 -87q-14 -24 -26.5 -56.5t-20.5 -45.5t-20 -13q-17 0 -17 23q0 27 60 133q95 174 180 174q68 0 98.5 -79.5t32.5 -250.5q4 -115 4 -301q-1 -52 -10 -239l6 -4q6 9 45.5 63t75 104.5t66.5 100.5q137 219 137 346q0 23 -21 84q-22 64 -22 86
q0 39 18.5 64.5t48.5 25.5q74 0 74 -129z" />
    <glyph glyph-name="z" unicode="z" horiz-adv-x="839" 
d="M-53 20v3q0 41 53 75q45 29 106 43q8 4 27.5 29.5t59 78t71.5 93.5q211 268 424 438l-4 4q-80 -26 -125 -26q-59 0 -153 28.5t-125 28.5q-53 0 -81.5 -36.5t-27.5 -110.5q0 -58 -16 -58q-21 0 -21 43q0 54 11.5 105t35 96t65.5 72.5t97 27.5q49 0 154 -63
q39 -22 61.5 -33t56.5 -21.5t62 -9.5q18 1 28.5 3.5t19.5 10t13 13t14 21.5t17 26q41 60 80 60q31 0 31 -23q0 -26 -21 -49.5t-64 -56.5t-63 -52q-52 -45 -121 -123q-24 -26 -88.5 -99.5t-105.5 -119.5q-2 -2 -262 -280l4 -4q43 14 116 14q54 0 140 -23q74 -24 125 -24
q114 0 114 127q0 23 -2 48.5t-2 29.5q0 18 15 18q7 0 13 -9.5t10.5 -33.5t4.5 -59q0 -113 -69 -185q-69 -75 -174 -75q-78 0 -172 63q-4 3 -16 11l-16.5 11t-15 9.5t-15.5 9.5t-14.5 8t-16 7.5t-14.5 5t-15.5 3.5t-14.5 1q-38 0 -86 -64q-4 -5 -14 -17t-15 -17.5t-13 -13
t-15 -10.5t-14 -3q-37 0 -37 34z" />
    <glyph glyph-name="braceleft" unicode="{" horiz-adv-x="655" 
d="M35 -240v2q0 42 28 140q52 207 103 381q24 99 24 131q0 81 -55 92q-4 1 -12.5 3t-12.5 3t-10.5 3t-9 4.5l-6 6t-5 7.5t-1.5 10q0 8 6 14t21.5 10t22.5 5.5t28 5.5q59 7 89 55.5t56 144.5l119 430q16 59 39.5 101.5t52 69t68 41.5t80.5 20.5t96 5.5q28 0 28 -25
q0 -24 -34 -24q-88 0 -131 -34t-68 -124l-117 -430q-33 -123 -82 -183.5t-157 -86.5l-2 -4q59 -14 87.5 -49.5t28.5 -82.5q0 -45 -30 -153q-12 -49 -46.5 -171.5t-48.5 -180.5q-26 -96 -26 -140q0 -43 29 -62.5t87 -19.5q27 0 27 -24q0 -25 -35 -25q-113 0 -172 30t-59 103z
" />
    <glyph glyph-name="bar" unicode="|" horiz-adv-x="579" 
d="M358 -512h-104v2048h104v-2048z" />
    <glyph glyph-name="braceright" unicode="}" horiz-adv-x="655" 
d="M606 1313v-2q0 -42 -28 -140q-44 -174 -103 -380q-24 -99 -24 -132q0 -81 55 -92q21 -4 29.5 -6.5t18 -9.5t9.5 -19q0 -15 -18.5 -22.5t-51.5 -12.5q-5 -1 -8 -1q-59 -7 -89 -56t-56 -145l-119 -430q-16 -59 -39.5 -101.5t-52 -69t-68 -41.5t-80.5 -20.5t-96 -5.5
q-28 0 -28 25q0 24 34 24q88 0 131 34t68 124l117 430q33 124 82.5 185t156.5 86l3 4q-117 33 -117 131q0 45 30 153q7 25 43 157t52 196q26 96 26 139t-29 62.5t-87 19.5q-27 0 -27 24q0 25 35 25q113 0 172 -30t59 -103z" />
    <glyph glyph-name="asciitilde" unicode="~" horiz-adv-x="1216" 
d="M219 387l-76 74q97 178 256 178q37 0 82.5 -12t73 -23t82.5 -35q5 -2 24.5 -11t25.5 -12t23 -10.5t24 -10t21.5 -8t22.5 -7.5l20 -5t21.5 -4t18.5 -1q29 0 55 11.5t49.5 36.5t38 43.5t37.5 53.5l74 -74q-29 -41 -49.5 -66t-52.5 -54t-70.5 -43t-83.5 -13q-38 0 -81 11.5
t-72 24t-73 34.5q-47 24 -72.5 35t-67.5 23t-79 12q-104 0 -172 -148z" />
    <glyph glyph-name="uni00A0" unicode="&#xa0;" horiz-adv-x="473" 
 />
    <glyph glyph-name="exclamdown" unicode="&#xa1;" horiz-adv-x="563" 
d="M295 786v2q0 61 27.5 95.5t62.5 34.5q29 0 46.5 -22t17.5 -56q0 -66 -23 -98.5t-61 -32.5q-32 0 -51 21.5t-19 55.5zM-76 -354v2q0 37 41 131q151 353 287 721q15 42 25 58.5t24 16.5q21 0 21 -18q0 -8 -13 -55q-34 -128 -112.5 -442t-94.5 -367q-16 -55 -40 -83t-74 -28
q-29 0 -46.5 19t-17.5 45z" />
    <glyph glyph-name="cent" unicode="&#xa2;" 
d="M631 1040l-215 -673q20 -5 35 -5q65 3 127 54t104 119q17 30 31 30t14 -18q0 -23 -27.5 -65t-72 -86t-110 -78t-130.5 -37l-82 -252q-7 -23 -13.5 -28t-23.5 -5q-10 0 -14 1t-8 7.5t2 20.5l86 262q-84 21 -125 86.5t-41 161.5q0 82 34 172.5t89.5 167.5t134.5 133.5
t162 70.5l57 178q7 22 14 27.5t23 5.5q9 0 12.5 -0.5t7.5 -2.5t4 -8t-4 -17l-57 -181q67 -4 117.5 -31t50.5 -85q0 -35 -18 -56.5t-52 -21.5q-50 0 -57 51q-2 14 -1.5 38.5t-0.5 33.5q-2 23 -53 30zM365 381l210 661q-86 -25 -154.5 -110t-102 -185t-33.5 -190
q0 -71 19 -112.5t61 -63.5z" />
    <glyph glyph-name="sterling" unicode="&#xa3;" 
d="M430 594h-174q-20 0 -20 8q0 11 10 31q6 10 30 10h146q-12 68 -12 184q0 80 25.5 165t70.5 157t114.5 118t149.5 46q56 0 89.5 -28.5t33.5 -82.5q0 -38 -21 -64t-57 -26q-39 0 -57 49q-4 10 -8.5 33.5t-8.5 32.5q-10 30 -47 30q-60 0 -111 -92.5t-51 -199.5
q0 -67 16 -175.5t19 -146.5h185q22 0 22 -6t-10 -31q-6 -12 -31 -12h-162q0 -220 -137 -385q6 -4 44.5 -30.5t55 -36t49 -27t58.5 -24.5t51 -7q69 0 116.5 42t47.5 116q0 31 -11 60t-11 32q0 7 6.5 12.5t15.5 5.5q15 0 31 -35t16 -69q0 -112 -81 -192.5t-187 -80.5
q-130 0 -270 144q-144 -137 -289 -137q-74 0 -127 40t-53 113q0 87 70 135.5t161 48.5q65 0 124.5 -21.5t139.5 -66.5q58 79 58 213q0 53 -19 150zM18 137v-2q0 -43 31 -73.5t78 -30.5q48 0 106.5 34t100.5 85q-43 41 -64.5 59.5t-56.5 35.5t-70 17q-59 0 -92 -33t-33 -92z
" />
    <glyph glyph-name="currency" unicode="&#xa4;" 
d="M92 143l-78 78l172 174q-80 96 -80 242q0 69 22 132.5t58 107.5l-172 172l78 79l172 -174q101 82 240 82q143 0 246 -82l172 174l77 -79l-172 -172q36 -44 58 -107.5t22 -132.5q0 -70 -22 -134t-58 -108l172 -174l-77 -78l-172 174q-104 -84 -246 -84q-143 0 -240 84z
M504 942h-2q-122 0 -210.5 -91.5t-88.5 -213.5q0 -124 89 -216.5t212 -92.5q127 0 217 92t90 217q0 123 -90 214t-217 91z" />
    <glyph glyph-name="yen" unicode="&#xa5;" 
d="M426 1178v-2q0 -30 16 -115q9 -44 28 -137t34 -163.5t31 -135.5q271 352 325 428q5 8 17 26l17 25.5t14 22t13 21.5t8.5 16.5t6.5 16t2 11.5q0 19 -18.5 31.5t-45.5 15.5q-39 5 -51 9.5t-12 17.5q0 22 25 22q15 0 66.5 -4t88.5 -4q30 0 78.5 4t63.5 4q26 0 26 -20
q0 -25 -39 -29q-40 -5 -72 -31t-94 -110l-235 -312h182q25 0 25 -8q0 -13 -6 -28t-31 -15h-209q-43 -57 -117 -149h279q26 0 26 -8q0 -17 -6 -29q-6 -14 -33 -14h-297q-78 -269 -98 -328q-22 -83 -22 -109q0 -28 15.5 -39t51.5 -18l21 -3t19.5 -3t13 -3.5t10 -6.5t2.5 -11
q0 -13 -7.5 -17.5t-29.5 -4.5q-17 0 -82.5 4t-101.5 4q-47 0 -117 -4t-80 -4q-33 0 -33 18q0 8 4.5 13t15 7.5t20 4t26.5 3t28 3.5q40 7 60 33t41 90q13 43 35.5 117.5t40.5 137t34 116.5h-272q-27 0 -27 8q0 13 6 28t33 15h271q-6 31 -35 149h-189q-26 0 -26 8q0 17 6 29
q6 14 33 14h166l-52 252q-26 130 -40 161t-58 40q-51 8 -58 17q-3 4 -3 10q0 22 30 22q15 0 71.5 -4t96.5 -4q41 0 107.5 4t91.5 4q27 0 27 -20q0 -8 -5 -13.5t-18.5 -8.5t-23 -4t-33.5 -3q-40 -5 -56 -18.5t-16 -42.5z" />
    <glyph glyph-name="brokenbar" unicode="&#xa6;" horiz-adv-x="579" 
d="M358 666h-104v716h104v-716zM358 -358h-104v716h104v-716z" />
    <glyph glyph-name="section" unicode="&#xa7;" horiz-adv-x="972" 
d="M817 422v-2q0 -107 -68.5 -184.5t-179.5 -77.5q-29 0 -67 12q-10 0 -10 -10q26 -32 38.5 -48.5t35 -52t33.5 -70.5t11 -69q0 -132 -92 -215.5t-227 -83.5q-107 0 -179.5 59t-72.5 138q0 56 26 95.5t74 39.5q34 0 55 -23.5t21 -62.5q0 -27 -11.5 -48t-26 -31t-27 -24.5
t-13.5 -29.5q0 -28 52 -51t94 -23q94 0 161.5 58t67.5 149q0 51 -39.5 115t-96 128t-113.5 132t-96.5 147.5t-39.5 153.5q0 114 70 179.5t165 65.5q48 0 91 -16q6 0 6 10q-121 160 -121 273q0 83 46 143t115 87.5t150 27.5q114 0 176 -61t62 -128q0 -46 -26.5 -80t-69.5 -34
q-34 0 -57 21t-23 56q0 33 32.5 66t32.5 55q0 27 -35.5 47.5t-89.5 20.5q-95 0 -154 -53.5t-59 -135.5q0 -51 28 -107.5t70 -105.5t91.5 -106.5t91.5 -109.5t70 -114.5t28 -121.5zM565 195h2q70 0 110 53.5t40 118.5q0 37 -30 101t-77 128q-50 69 -110 112.5t-119 43.5
q-64 0 -110 -44t-46 -106q0 -52 22.5 -104.5t98.5 -153.5q111 -149 219 -149z" />
    <glyph glyph-name="dieresis" unicode="&#xa8;" horiz-adv-x="503" 
d="M207 1128h-2q-28 0 -44 22.5t-16 53.5q0 42 31 85.5t74 43.5q30 0 46.5 -20t16.5 -51q0 -47 -31 -90.5t-75 -43.5zM510 1128h-2q-28 0 -42.5 22t-14.5 54q0 42 30.5 85.5t71.5 43.5q30 0 46.5 -20t16.5 -51q0 -47 -31 -90.5t-75 -43.5z" />
    <glyph glyph-name="copyright" unicode="&#xa9;" horiz-adv-x="1626" 
d="M1556 715v-2q0 -198 -97 -368t-264 -270t-364 -100q-148 0 -282 59t-231 158.5t-154.5 236t-57.5 286.5q0 201 97 372t264 271t364 100t364 -99.5t264 -270.5t97 -373zM211 715v-2q0 -127 50 -247t133 -209.5t198 -143.5t239 -54q166 0 310 91.5t227.5 242.5t83.5 322
q0 129 -49.5 250t-133 211t-198.5 144t-240 54t-240 -54.5t-198 -144.5t-132.5 -211t-49.5 -249zM1192 528l-35 -145q-4 -17 -15.5 -25t-37.5 -16q-112 -35 -227 -35q-95 0 -174.5 23.5t-143 73t-99.5 133.5t-36 196q0 55 18 111.5t56 111t91.5 97t131.5 68.5t168 26
q53 0 97.5 -6.5t66 -13t59.5 -19.5q45 -16 45 -45v-150h-39q-2 77 -60 129t-179 52q-144 0 -226 -96.5t-84 -256.5q-2 -178 80.5 -279.5t247.5 -101.5q192 0 256 168h39z" />
    <glyph glyph-name="ordfeminine" unicode="&#xaa;" horiz-adv-x="630" 
d="M532 993h-4q-37 -52 -63 -86t-71 -83.5t-88.5 -76t-82.5 -26.5q-44 0 -65 30t-21 80q0 78 40.5 164t101.5 152t134.5 109.5t135.5 43.5q54 0 86 -28q11 30 16 35.5t21 5.5h47q18 0 18 -8q0 -7 -79.5 -225t-79.5 -257q0 -12 10 -12q8 0 30 24t46 60q6 10 12.5 20t9.5 16
t6.5 11.5t7 7.5t7.5 2q7 0 11.5 -4.5t4.5 -9.5q0 -21 -32 -72t-84.5 -98t-98.5 -47q-43 0 -43 43q0 34 32 125t35 104zM608 1212v2q0 25 -17 37.5t-44 12.5q-47 0 -104.5 -48t-103 -114t-77 -136.5t-31.5 -113.5q0 -51 43 -51t125.5 90t145.5 189.5t63 131.5z" />
    <glyph glyph-name="guillemotleft" unicode="&#xab;" horiz-adv-x="847" 
d="M369 205h-78q-46 0 -60 39l-53 139q-10 27 -26 49q-11 15 -11 19q0 2 2.5 4l7.5 6t9 8q23 20 45 49l112 139q32 39 78 39h82q19 0 19 -8t-27 -8q-31 0 -86 -66l-100 -125q-20 -26 -39 -40q5 -7 18 -37l49 -125q21 -66 56 -66q24 0 24 -8t-22 -8zM602 205h-78
q-45 0 -57 39l-55 139q-11 29 -25 49q-12 16 -12 19q0 2 2.5 4l7.5 6t8 8q19 14 45 49l113 139q32 39 80 39h82q18 0 18 -8t-26 -8q-34 0 -89 -66l-98 -125q-25 -29 -41 -40q9 -9 21 -37l47 -125q25 -66 57 -66q25 0 25 -8t-25 -8z" />
    <glyph glyph-name="logicalnot" unicode="&#xac;" horiz-adv-x="1216" 
d="M1032 221v443h-926v106h1033v-549h-107z" />
    <glyph glyph-name="uni00AD" unicode="&#xad;" horiz-adv-x="587" 
d="M96 508h389q27 0 27 -10q0 -4 -31 -66q-8 -16 -26 -16h-394q-26 0 -26 10q0 3 31 63q4 9 5.5 11.5t7.5 5t17 2.5z" />
    <glyph glyph-name="registered" unicode="&#xae;" horiz-adv-x="1626" 
d="M1556 715v-2q0 -198 -97 -368t-264 -270t-364 -100q-148 0 -282 59t-231 158.5t-154.5 236t-57.5 286.5q0 201 97 372t264 271t364 100t364 -99.5t264 -270.5t97 -373zM211 715v-2q0 -127 50 -247t133 -209.5t198 -143.5t239 -54q166 0 310 91.5t227.5 242.5t83.5 322
q0 129 -49.5 250t-133 211t-198.5 144t-240 54t-240 -54.5t-198 -144.5t-132.5 -211t-49.5 -249zM487 1094v28h365q67 0 122.5 -19.5t93.5 -64.5t38 -108q0 -84 -49 -144t-127 -86l125 -170q47 -63 95.5 -114.5t80.5 -69.5v-16h-119q-21 0 -41 13.5t-44 47t-46.5 69t-64 101
t-80.5 121.5h-119v-211q0 -74 15 -89.5t93 -21.5v-30h-338v30q77 6 92 22t15 89v512q0 73 -15 89t-92 22zM717 1085v-368h104q80 0 121 53t41 150q0 86 -47 125.5t-123 39.5h-96z" />
    <glyph glyph-name="macron" unicode="&#xaf;" horiz-adv-x="512" 
d="M201 1245h448q17 0 17 -6q0 -5 -25 -49q-11 -21 -18 -26t-25 -5h-448q-17 0 -17 6q0 5 25 49q11 21 18 26t25 5z" />
    <glyph glyph-name="degree" unicode="&#xb0;" horiz-adv-x="819" 
d="M504 1313h2q122 0 206.5 -85t84.5 -208t-85 -208t-208 -85t-209 85t-86 208t86 208t209 85zM504 1251h-2q-90 0 -154.5 -69t-64.5 -162t65 -162.5t156 -69.5t156 69.5t65 162.5t-65 162t-156 69z" />
    <glyph glyph-name="plusminus" unicode="&#xb1;" horiz-adv-x="1216" 
d="M569 659v379h105v-379h465v-104h-465v-381h-105v381h-463v104h463zM106 -27v105h1033v-105h-1033z" />
    <glyph glyph-name="twosuperior" unicode="&#xb2;" horiz-adv-x="567" 
d="M162 614l4 -4h57q88 0 133 2q53 1 81 18.5t50 61.5q10 23 15.5 32.5t14.5 18.5t20 9q20 0 20 -19q0 -9 -9.5 -41.5t-24 -76.5t-17.5 -56q-6 -25 -13 -32t-26 -7q-18 0 -93 3t-130 3q-50 0 -115.5 -3t-87.5 -3q-23 0 -23 12q0 15 88 93q220 190 234 202q197 173 197 312
q0 57 -25.5 92t-79.5 35q-86 0 -151 -82q-12 -16 -27 -42t-25 -39t-20 -13q-14 0 -14 16q0 17 15.5 49t44.5 68.5t82 63t116 26.5q91 0 145.5 -47t54.5 -129q0 -66 -37.5 -126t-76.5 -93t-131 -102q-22 -16 -33 -25q-122 -95 -213 -177z" />
    <glyph glyph-name="threesuperior" unicode="&#xb3;" horiz-adv-x="567" 
d="M371 942v-4q33 0 51 -2q75 -14 120.5 -63.5t45.5 -124.5q0 -94 -66.5 -180t-170 -136.5t-210.5 -50.5q-66 0 -106.5 24.5t-40.5 61.5q0 53 55 53q48 0 62 -51q12 -51 59 -51q111 0 203 102.5t92 231.5q0 64 -37 107.5t-102 43.5q-36 0 -65.5 -11.5t-48 -23.5t-26.5 -12
q-16 0 -16 16q0 23 148 87q12 5 18 8q93 40 142.5 101t49.5 112q0 40 -22.5 64t-61.5 24q-59 0 -108 -45q-18 -17 -34 -39t-25 -32.5t-19 -10.5q-16 0 -16 20q0 6 7.5 21.5t26.5 38t45.5 43t69.5 35t94 14.5q68 0 114 -35.5t46 -95.5q0 -35 -20 -68.5t-41 -54t-66.5 -46.5
t-64 -34.5t-64.5 -28.5q-4 -2 -6.5 -3t-5.5 -2.5t-6 -2.5z" />
    <glyph glyph-name="acute" unicode="&#xb4;" horiz-adv-x="495" 
d="M238 1061h-2q-15 0 -15 16q0 17 46 56l3.5 3.5t3.5 2.5l224 186q68 59 106 59q23 0 38 -12.5t15 -36.5q0 -15 -5.5 -26.5t-21.5 -23.5t-21.5 -15.5t-28.5 -16.5l-281 -163q-47 -29 -61 -29z" />
    <glyph glyph-name="mu" unicode="&#xb5;" horiz-adv-x="1062" 
d="M684 451l-4 2q-116 -164 -153 -209q-184 -230 -354 -258q-26 -4 -52 -4q-49 -93 -72 -236q-7 -43 -12.5 -66t-18 -56.5t-33 -49.5t-48.5 -16q-58 0 -58 65q0 39 70 191.5t80 193.5q11 35 80 246q28 87 93.5 251.5t80.5 205.5q30 84 30 98q0 29 -22 29q-43 0 -139 -127
q-14 -20 -29 -42.5t-23 -34t-15.5 -22t-12.5 -14.5t-9 -4q-16 0 -16 16q0 11 33 64t80 114.5t107.5 110.5t105.5 49q73 0 73 -90q0 -41 -43 -158q-27 -73 -86 -223.5t-77 -197.5q-41 -112 -41 -146q0 -43 43 -43q44 0 125.5 62t160.5 157q207 250 308 574q8 22 13 30t15 9
q16 4 84 4q19 0 19 -21q0 -6 -5 -19.5t-6 -17.5q-15 -45 -104 -292.5t-121 -352.5q-20 -72 -20 -96q0 -14 7 -23.5t17 -9.5q45 0 150 139q15 20 27.5 39t18.5 29.5t12 19t9.5 12t8.5 3.5q18 0 18 -19q0 -11 -21 -48t-57.5 -85t-79 -93.5t-93 -77t-91.5 -31.5q-30 0 -46 21.5
t-16 51.5q0 18 3 39t9.5 49.5t12.5 50.5t18.5 60.5t19.5 60.5t23 68.5t23 67.5z" />
    <glyph glyph-name="paragraph" unicode="&#xb6;" horiz-adv-x="1232" 
d="M332 -332l217 791q-84 0 -147.5 25t-100.5 69.5t-54.5 98.5t-17.5 118q0 136 81.5 255t210 187t265.5 68h445q47 0 47 -25q0 -26 -51 -26q-25 0 -44 -1.5t-35 -7.5t-26.5 -9.5t-20.5 -16.5t-15 -19t-12.5 -27t-10.5 -31t-12 -38l-387 -1411h-107l426 1549h-119
l-426 -1549h-106z" />
    <glyph glyph-name="periodcentered" unicode="&#xb7;" horiz-adv-x="473" 
d="M324 545v-2q0 -49 -23.5 -89t-64.5 -40q-30 0 -49 22t-19 56q0 51 23.5 91t66.5 40q29 0 47.5 -22t18.5 -56z" />
    <glyph glyph-name="cedilla" unicode="&#xb8;" horiz-adv-x="493" 
d="M92 0l-61 -106q28 4 47 4q61 0 107 -35.5t46 -102.5q0 -59 -37.5 -103.5t-86 -63.5t-97.5 -19q-58 0 -119 29.5t-61 79.5q0 16 10 27t27 11q19 0 34 -16.5t25 -35.5t33.5 -35.5t56.5 -16.5q48 0 84.5 38t36.5 93q0 47 -30 66.5t-70 19.5q-15 0 -40.5 -4t-33.5 -4
q-14 0 -14 12q0 16 18 43l72 119h53z" />
    <glyph glyph-name="onesuperior" unicode="&#xb9;" horiz-adv-x="567" 
d="M354 592v-2q0 -12 8.5 -19t19 -9t28.5 -3q57 -4 57 -24q0 -15 -21 -15q-14 0 -75.5 3t-98.5 3q-30 0 -75 -3t-60 -3q-14 0 -20 4t-6 15q0 16 46 19q2 1 3.5 1h3.5q65 3 80 49q33 101 94.5 287t85.5 258q12 32 12 49q0 6 -6 6q-8 0 -61 -20.5t-66 -20.5q-18 0 -18 19
q0 14 20 22q2 1 23 9q119 40 192 81q30 15 45 15t15 -8q0 -7 -17 -50q-126 -390 -192 -587q-17 -47 -17 -76z" />
    <glyph glyph-name="ordmasculine" unicode="&#xba;" horiz-adv-x="524" 
d="M618 1104v-2q0 -90 -42 -178t-113.5 -144.5t-149.5 -56.5q-79 0 -127.5 64t-48.5 149q0 90 41.5 177.5t113 143.5t150.5 56q78 0 127 -64t49 -145zM227 893v-2q0 -54 22 -90.5t66 -36.5q51 0 102.5 72.5t81 162t29.5 150.5q0 53 -22 88t-64 35q-54 0 -106 -71
t-80.5 -158.5t-28.5 -149.5z" />
    <glyph glyph-name="guillemotright" unicode="&#xbb;" horiz-adv-x="847" 
d="M248 696h78q45 0 59 -39l53 -139q9 -24 27 -49q10 -13 10 -18q0 -1 -18 -19q-23 -20 -45 -49l-113 -139q-32 -39 -78 -39h-82q-18 0 -18 8t26 8q31 0 86 66l101 125q21 28 39 41q-8 11 -19 36l-49 125q-21 66 -55 66q-25 0 -25 8t23 8zM483 696h78q46 0 60 -39l53 -139
q8 -20 24 -49q2 -3 5.5 -6.5t5.5 -6t2 -5.5q0 -2 -3 -4.5t-8 -6.5t-8 -8q-23 -20 -45 -49l-112 -139q-32 -39 -80 -39h-80q-21 0 -21 8t29 8q31 0 86 66l100 125q21 28 39 41q-8 8 -20 36l-47 125q-25 66 -56 66q-24 0 -24 8t22 8z" />
    <glyph glyph-name="onequarter" unicode="&#xbc;" horiz-adv-x="1421" 
d="M565 1313h2q13 0 13 -8q0 -7 -17 -50q-126 -390 -192 -587q-17 -47 -17 -76q0 -18 14.5 -24.5t41.5 -8.5q57 -4 57 -24q0 -15 -21 -15q-14 0 -75.5 3t-98.5 3q-30 0 -75 -3t-60 -3q-14 0 -20 4t-6 15q0 16 46 19q2 1 3.5 1h3.5q65 3 80 49q33 101 94.5 287t85.5 258
q12 32 12 49q0 6 -6 6q-8 0 -61 -20.5t-66 -20.5q-18 0 -18 19q0 14 20 22q2 1 23 9q129 44 192 81q26 15 45 15zM332 -31h-25q-26 0 -26 13q0 12 34 57l883 1237q16 24 23 30.5t20 6.5h25q26 0 26 -13q0 -8 -37 -57l-880 -1237q-14 -18 -18.5 -24t-10.5 -9.5t-14 -3.5z
M1339 244h-73q-10 0 -14 -3.5t-9 -17.5q-45 -132 -45 -164q0 -11 13 -17.5t28 -6.5q41 0 41 -23q0 -10 -6.5 -13t-26.5 -3q-17 0 -58 2t-71 2q-25 0 -64 -2t-55 -2q-24 0 -24 14q0 12 11 16.5t36 8.5q29 0 45.5 9t26.5 36q5 19 17.5 58t21 66.5t8.5 31.5q0 8 -21 8h-276
q-21 0 -21 12q0 9 6 27q11 18 19 26q91 89 254.5 255.5t263.5 264.5q19 15 35 15h20q25 0 25 -10q0 -7 -23 -27q-77 -76 -165 -162t-195 -190t-166 -162h244q12 0 16.5 3t7.5 15l76 244q10 26 31 31q56 18 78 18q8 0 8 -6q0 -4 -15 -47q-3 -11 -28.5 -94.5t-40.5 -128.5
q-6 -12 -6 -27q0 -8 16 -8h59q23 0 23 -6q0 -12 -6 -33q-5 -10 -21 -10z" />
    <glyph glyph-name="onehalf" unicode="&#xbd;" horiz-adv-x="1421" 
d="M580 1305v-2q0 -5 -17 -48q-126 -390 -192 -587q-17 -47 -17 -76q0 -18 14.5 -24.5t41.5 -8.5q57 -4 57 -24q0 -15 -21 -15q-14 0 -75.5 3t-98.5 3q-30 0 -75 -3t-60 -3q-14 0 -20 4t-6 15q0 16 46 19q2 1 3.5 1h3.5q65 3 80 49q33 101 94.5 287t85.5 258q12 32 12 49
q0 6 -6 6q-8 0 -61 -20.5t-66 -20.5q-18 0 -18 19q0 14 20 22q2 1 23 9q129 44 192 81q26 15 45 15q15 0 15 -8zM307 -31h-24q-27 0 -27 13q0 8 37 57l881 1237q14 18 18.5 24t10.5 9.5t14 3.5h24q27 0 27 -13q0 -11 -35 -57l-883 -1237q-16 -24 -23 -30.5t-20 -6.5zM905 88
l4 -4h58q90 0 133 2q53 1 81 18.5t50 61.5q3 5 7.5 14l6.5 13t5.5 10.5t6.5 9.5l6.5 6.5t7.5 4.5t9 1q20 0 20 -16q0 -9 -9.5 -42t-24 -78t-17.5 -56q-6 -25 -13 -32t-26 -7q-18 0 -92.5 3t-130.5 3q-50 0 -115.5 -3t-87.5 -3t-22 12q0 14 88 92q25 22 105.5 92.5
t127.5 110.5q79 69 138 151.5t59 159.5q0 127 -104 127q-90 0 -152 -82q-12 -16 -26.5 -42t-24.5 -39t-21 -13q-14 0 -14 17t15.5 49t44.5 69t82 63.5t116 26.5q91 0 146 -47.5t55 -128.5q0 -51 -16.5 -93t-56 -84t-72.5 -69t-99 -76q-23 -17 -35 -26q-130 -101 -213 -176z
" />
    <glyph glyph-name="threequarters" unicode="&#xbe;" horiz-adv-x="1421" 
d="M371 942v-4q33 0 51 -2q75 -14 120.5 -63.5t45.5 -124.5q0 -94 -66.5 -180t-170 -136.5t-210.5 -50.5q-66 0 -106.5 24.5t-40.5 61.5q0 53 55 53q48 0 62 -51q12 -51 59 -51q111 0 203 102.5t92 231.5q0 64 -37 107.5t-102 43.5q-36 0 -65.5 -11.5t-48 -23.5t-26.5 -12
q-16 0 -16 16q0 23 148 87q12 5 18 8q93 40 142.5 101t49.5 112q0 40 -22.5 64t-61.5 24q-59 0 -108 -45q-18 -17 -34.5 -39t-25.5 -32.5t-18 -10.5q-16 0 -16 20q0 6 8 21.5t27 38t45.5 43t69.5 35t93 14.5q68 0 114 -35.5t46 -95.5q0 -35 -20 -68.5t-41 -54t-66.5 -46.5
t-64 -34.5t-64.5 -28.5q-4 -2 -6.5 -3t-5.5 -2.5t-6 -2.5zM338 -31h-25q-26 0 -26 13q0 7 35 57l882 1237q14 18 18.5 24t10.5 9.5t14 3.5h25q26 0 26 -13q0 -8 -34 -57l-883 -1237q-14 -18 -18.5 -24t-10.5 -9.5t-14 -3.5zM1339 244h-73q-10 0 -14 -3.5t-9 -17.5
q-45 -132 -45 -164q0 -11 13 -17.5t28 -6.5q41 0 41 -23q0 -10 -6.5 -13t-26.5 -3q-17 0 -58 2t-71 2q-25 0 -64 -2t-55 -2q-24 0 -24 14q0 12 11 16.5t36 8.5q29 0 45.5 9t26.5 36q5 19 17.5 58t21 66.5t8.5 31.5q0 8 -21 8h-276q-21 0 -21 12q0 9 6 27q11 18 19 26
q91 89 254.5 255.5t263.5 264.5q19 15 35 15h20q25 0 25 -10q0 -7 -23 -27q-77 -76 -165 -162t-195 -190t-166 -162h244q12 0 16.5 3t7.5 15l76 244q10 26 31 31q56 18 78 18q8 0 8 -6q0 -4 -15 -47q-3 -11 -28.5 -94.5t-40.5 -128.5q-6 -12 -6 -27q0 -8 16 -8h59
q23 0 23 -6q0 -12 -6 -33q-5 -10 -21 -10z" />
    <glyph glyph-name="questiondown" unicode="&#xbf;" horiz-adv-x="686" 
d="M397 784v2q0 51 23.5 91.5t64.5 40.5q30 0 49 -22t19 -56q0 -52 -24 -91.5t-66 -39.5q-31 0 -48.5 20.5t-17.5 54.5zM-98 -145v2q0 110 75 208t193 173q117 75 151 119.5t64 166.5q10 36 14 46t13 10q18 0 18 -15q0 -4 -2.5 -19.5t-3.5 -25.5q-8 -88 -37 -217
q-15 -66 -32 -90.5t-72 -58.5q-12 -8 -45 -29.5t-51.5 -34t-50.5 -36.5t-51 -42t-43 -45.5t-37 -53t-22.5 -57.5t-9.5 -65q0 -75 34.5 -117.5t82.5 -42.5q78 0 162 154l19.5 39t15 30.5t10.5 19t12 12.5t15 3q11 0 15.5 -5.5t4.5 -22.5q0 -49 -10 -105q-17 -98 -33 -121
q-14 -22 -61.5 -37.5t-110.5 -15.5q-107 0 -167 79t-60 194z" />
    <glyph glyph-name="Agrave" unicode="&#xc0;" horiz-adv-x="886" 
d="M563 473h-305q-13 0 -18 -2t-11 -12q-30 -47 -131 -226q-57 -105 -57 -131q0 -20 10.5 -31.5t25.5 -16.5t46 -11q47 -11 53 -18q4 -5 4 -11q0 -22 -41 -22q-26 0 -88 4t-92 4q-24 0 -72 -4t-69 -4q-16 0 -21.5 4t-5.5 14q0 13 11.5 19.5t37.5 11.5q46 9 77.5 41.5
t94.5 134.5q106 169 312.5 509t312.5 509q37 61 49 61q10 0 13 -7.5t3 -26.5q1 -66 -3 -562.5t-3 -574.5q0 -44 13 -60.5t41 -19.5q3 -1 10.5 -1.5t11 -1.5t9 -2t8.5 -3t6 -4.5t4.5 -6t1.5 -8.5q0 -15 -6.5 -20.5t-26.5 -5.5q-19 0 -74 4t-88 4q-37 0 -92 -4t-70 -4
q-13 0 -18.5 0.5t-10.5 5.5t-5 14q0 6 2 10t6.5 7t8.5 5t12 4t13.5 2.5t16 2t16.5 2.5q76 12 76 72q0 49 1 171t1 185zM563 530l8 498l-4 2q-26 -44 -91.5 -154t-112.5 -190t-89 -156h289zM434 1647v2q0 23 13.5 36t35.5 13q28 0 50.5 -16t52.5 -52l170 -192q6 -8 14.5 -18
t13 -15t9 -11t6.5 -10.5t2 -7.5q0 -16 -17 -16q-14 0 -59 33l-227 172q-2 2 -9.5 8t-10.5 8t-9.5 7.5t-9.5 8.5t-8 8.5t-7 10t-5 9.5t-4 10.5t-1 11.5z" />
    <glyph glyph-name="Aacute" unicode="&#xc1;" horiz-adv-x="886" 
d="M563 473h-305q-13 0 -18 -2t-11 -12q-30 -47 -131 -226q-57 -105 -57 -131q0 -20 10.5 -31.5t25.5 -16.5t46 -11q47 -11 53 -18q4 -5 4 -11q0 -22 -41 -22q-26 0 -88 4t-92 4q-24 0 -72 -4t-69 -4q-16 0 -21.5 4t-5.5 14q0 13 11.5 19.5t37.5 11.5q46 9 77.5 41.5
t94.5 134.5q106 169 312.5 509t312.5 509q37 61 49 61q10 0 13 -7.5t3 -26.5q1 -66 -3 -562.5t-3 -574.5q0 -44 13 -60.5t41 -19.5q3 -1 10.5 -1.5t11 -1.5t9 -2t8.5 -3t6 -4.5t4.5 -6t1.5 -8.5q0 -15 -6.5 -20.5t-26.5 -5.5q-19 0 -74 4t-88 4q-37 0 -92 -4t-70 -4
q-13 0 -18.5 0.5t-10.5 5.5t-5 14q0 6 2 10t6.5 7t8.5 5t12 4t13.5 2.5t16 2t16.5 2.5q76 12 76 72q0 49 1 171t1 185zM563 530l8 498l-4 2q-26 -44 -91.5 -154t-112.5 -190t-89 -156h289zM543 1360h-2q-15 0 -15 16q0 3 1 5.5t2.5 5.5t3.5 6t6 6.5t6.5 6.5t7.5 7t8.5 7t9 8
t9.5 8l223 188q68 59 106 59q23 0 39.5 -13t16.5 -36q0 -19 -14.5 -36t-27.5 -25t-38 -21l-279 -163q-50 -29 -63 -29z" />
    <glyph glyph-name="Acircumflex" unicode="&#xc2;" horiz-adv-x="886" 
d="M563 473h-305q-13 0 -18 -2t-11 -12q-30 -47 -131 -226q-57 -105 -57 -131q0 -20 10.5 -31.5t25.5 -16.5t46 -11q47 -11 53 -18q4 -5 4 -11q0 -22 -41 -22q-26 0 -88 4t-92 4q-24 0 -72 -4t-69 -4q-16 0 -21.5 4t-5.5 14q0 13 11.5 19.5t37.5 11.5q46 9 77.5 41.5
t94.5 134.5q106 169 312.5 509t312.5 509q37 61 49 61q10 0 13 -7.5t3 -26.5q1 -66 -3 -562.5t-3 -574.5q0 -44 13 -60.5t41 -19.5q3 -1 10.5 -1.5t11 -1.5t9 -2t8.5 -3t6 -4.5t4.5 -6t1.5 -8.5q0 -15 -6.5 -20.5t-26.5 -5.5q-19 0 -74 4t-88 4q-37 0 -92 -4t-70 -4
q-13 0 -18.5 0.5t-10.5 5.5t-5 14q0 6 2 10t6.5 7t8.5 5t12 4t13.5 2.5t16 2t16.5 2.5q76 12 76 72q0 49 1 171t1 185zM563 530l8 498l-4 2q-26 -44 -91.5 -154t-112.5 -190t-89 -156h289zM715 1599l-271 -208q-39 -31 -55 -31t-16 16q0 17 49 66l192 192q43 43 58 54.5
t33 11.5h40q19 0 26 -8t26 -50l98 -208q20 -40 20 -56q0 -18 -16 -18t-45 45z" />
    <glyph glyph-name="Atilde" unicode="&#xc3;" horiz-adv-x="886" 
d="M563 473h-305q-13 0 -18 -2t-11 -12q-30 -47 -131 -226q-57 -105 -57 -131q0 -20 10.5 -31.5t25.5 -16.5t46 -11q47 -11 53 -18q4 -5 4 -11q0 -22 -41 -22q-26 0 -88 4t-92 4q-24 0 -72 -4t-69 -4q-16 0 -21.5 4t-5.5 14q0 13 11.5 19.5t37.5 11.5q46 9 77.5 41.5
t94.5 134.5q106 169 312.5 509t312.5 509q37 61 49 61q10 0 13 -7.5t3 -26.5q1 -66 -3 -562.5t-3 -574.5q0 -44 13 -60.5t41 -19.5q3 -1 10.5 -1.5t11 -1.5t9 -2t8.5 -3t6 -4.5t4.5 -6t1.5 -8.5q0 -15 -6.5 -20.5t-26.5 -5.5q-19 0 -74 4t-88 4q-37 0 -92 -4t-70 -4
q-13 0 -18.5 0.5t-10.5 5.5t-5 14q0 6 2 10t6.5 7t8.5 5t12 4t13.5 2.5t16 2t16.5 2.5q76 12 76 72q0 49 1 171t1 185zM563 530l8 498l-4 2q-26 -44 -91.5 -154t-112.5 -190t-89 -156h289zM805 1415h-2q-39 0 -80 21.5t-70 47t-64 47t-63 21.5q-30 0 -59 -19t-46 -41
t-32 -41t-20 -19q-11 0 -11 12q0 48 70.5 113t153.5 65q39 0 81.5 -21.5t72.5 -47t64.5 -47t59.5 -21.5q39 0 74 30.5t56.5 60.5t27.5 30q10 0 10 -11q0 -49 -70 -114.5t-153 -65.5z" />
    <glyph glyph-name="Adieresis" unicode="&#xc4;" horiz-adv-x="886" 
d="M563 473h-305q-13 0 -18 -2t-11 -12q-30 -47 -131 -226q-57 -105 -57 -131q0 -20 10.5 -31.5t25.5 -16.5t46 -11q47 -11 53 -18q4 -5 4 -11q0 -22 -41 -22q-26 0 -88 4t-92 4q-24 0 -72 -4t-69 -4q-16 0 -21.5 4t-5.5 14q0 13 11.5 19.5t37.5 11.5q46 9 77.5 41.5
t94.5 134.5q106 169 312.5 509t312.5 509q37 61 49 61q10 0 13 -7.5t3 -26.5q1 -66 -3 -562.5t-3 -574.5q0 -44 13 -60.5t41 -19.5q3 -1 10.5 -1.5t11 -1.5t9 -2t8.5 -3t6 -4.5t4.5 -6t1.5 -8.5q0 -15 -6.5 -20.5t-26.5 -5.5q-19 0 -74 4t-88 4q-37 0 -92 -4t-70 -4
q-13 0 -18.5 0.5t-10.5 5.5t-5 14q0 6 2 10t6.5 7t8.5 5t12 4t13.5 2.5t16 2t16.5 2.5q76 12 76 72q0 49 1 171t1 185zM563 530l8 498l-4 2q-26 -44 -91.5 -154t-112.5 -190t-89 -156h289zM522 1427h-2q-28 0 -43.5 22.5t-15.5 53.5q0 42 30.5 84.5t71.5 42.5q30 0 48 -20
t18 -49q0 -47 -31.5 -90.5t-75.5 -43.5zM825 1427h-2q-28 0 -43.5 22.5t-15.5 53.5q0 42 30.5 84.5t73.5 42.5q30 0 47 -20t17 -49q0 -47 -31.5 -90.5t-75.5 -43.5z" />
    <glyph glyph-name="Aring" unicode="&#xc5;" horiz-adv-x="886" 
d="M563 473h-305q-13 0 -18 -2t-11 -12q-30 -47 -131 -226q-57 -105 -57 -131q0 -20 10.5 -31.5t25.5 -16.5t46 -11q47 -11 53 -18q4 -5 4 -11q0 -22 -41 -22q-26 0 -88 4t-92 4q-24 0 -72 -4t-69 -4q-16 0 -21.5 4t-5.5 14q0 13 11.5 19.5t37.5 11.5q46 9 77.5 41.5
t94.5 134.5q106 169 312.5 509t312.5 509q37 61 49 61q10 0 13 -7.5t3 -26.5q1 -66 -3 -562.5t-3 -574.5q0 -44 13 -60.5t41 -19.5q3 -1 10.5 -1.5t11 -1.5t9 -2t8.5 -3t6 -4.5t4.5 -6t1.5 -8.5q0 -15 -6.5 -20.5t-26.5 -5.5q-19 0 -74 4t-88 4q-37 0 -92 -4t-70 -4
q-13 0 -18.5 0.5t-10.5 5.5t-5 14q0 6 2 10t6.5 7t8.5 5t12 4t13.5 2.5t16 2t16.5 2.5q76 12 76 72q0 49 1 171t1 185zM563 530l8 498l-4 2q-26 -44 -91.5 -154t-112.5 -190t-89 -156h289zM713 1350h-2q-83 0 -142 59t-59 143q0 85 59 144t144 59t143.5 -59t58.5 -144
t-58.5 -143.5t-143.5 -58.5zM713 1413h2q57 0 97 40.5t40 98.5q0 59 -40.5 99.5t-98.5 40.5q-59 0 -99.5 -41t-40.5 -99t40.5 -98.5t99.5 -40.5z" />
    <glyph glyph-name="AE" unicode="&#xc6;" horiz-adv-x="1415" 
d="M737 643h-280q-12 0 -18 -4t-17 -18l-285 -375q-63 -85 -72 -107q-6 -14 -6 -26q0 -33 23 -48.5t74 -21.5q36 -5 41 -12q4 -6 4 -15q0 -24 -33 -24q-13 0 -72.5 4t-101.5 4q-40 0 -96.5 -4t-71.5 -4q-12 0 -19.5 6.5t-7.5 17.5q0 13 7 20.5t16 10t26 4.5q62 10 107 66
l817 1018q57 70 57 84q0 17 -49 20q-34 1 -46.5 7t-12.5 18q0 24 35 24q53 0 160.5 -4t160.5 -4q68 0 187.5 4t173.5 4q34 0 41.5 -2.5t7.5 -15.5q0 -5 -6.5 -29.5t-19 -71t-21.5 -82.5q-22 -92 -33 -114.5t-29 -22.5q-15 0 -19.5 8.5t-4.5 32.5q0 89 -6 152q-7 54 -39.5 71
t-120.5 17q-115 0 -125 -6q-2 -1 -4 -4t-4.5 -8t-4.5 -10.5t-5 -14.5t-5.5 -16t-6.5 -20t-7 -22l-131 -428h96q59 0 94.5 5t58.5 22t32 30t28 48q7 12 16 30l13.5 27t12.5 16t18 7q22 0 22 -23q0 -6 -24 -73q-58 -173 -95 -326q-3 -21 -11 -31t-26 -10q-13 0 -17.5 8.5
t-4.5 28.5q0 13 5 50.5t5 53.5q0 41 -28 61.5t-109 20.5h-102l-117 -395q-27 -91 -27 -135q0 -37 26.5 -52.5t102.5 -15.5q177 0 256 62q76 60 121 180q20 51 45 51q23 0 23 -27q0 -5 -11 -55q-8 -35 -57 -219q-9 -32 -16 -40.5t-27 -8.5q-47 0 -181 4t-200 4q-71 0 -195 -4
t-180 -4q-39 0 -39 20q0 16 11 21.5t32 7.5q54 4 83 19t39.5 35.5t25.5 68.5zM483 700h271l135 437q12 35 12 47q0 10 -8 10q-14 0 -41 -37q-308 -380 -369 -457z" />
    <glyph glyph-name="Ccedilla" unicode="&#xc7;" horiz-adv-x="976" 
d="M412 -31l-47 -75q32 4 49 4q61 0 107 -35.5t46 -102.5q0 -59 -37.5 -103.5t-86 -63.5t-97.5 -19q-58 0 -119 29.5t-61 79.5q0 16 10 27t27 11q19 0 34 -16.5t25 -35.5t33 -35.5t55 -16.5q50 0 86.5 38t36.5 93q0 47 -30 66.5t-70 19.5q-15 0 -40.5 -4t-33.5 -4
q-14 0 -14 12q0 16 18 43l57 94q-116 20 -192 109q-102 120 -102 330q0 192 83.5 359.5t223.5 291.5q127 117 288.5 182.5t311.5 65.5q60 0 85 -8.5t25 -30.5q0 -27 -14 -76q-23 -96 -59 -209q-1 -5 -3.5 -14t-4 -12.5t-3.5 -10t-4 -9t-5.5 -6t-7.5 -4.5t-9 -1q-29 0 -29 26
q0 10 13.5 124.5t13.5 134.5q0 47 -47 47q-101 -2 -225 -65.5t-228 -174.5q-115 -123 -184.5 -287.5t-69.5 -359.5q0 -167 61 -263t168 -96q92 0 166 57t121 156q16 35 37 86q25 58 33.5 72t23.5 14q23 0 23 -22q0 -19 -25 -105q-47 -173 -65 -227q-12 -21 -127.5 -50.5
t-194.5 -29.5h-26z" />
    <glyph glyph-name="Egrave" unicode="&#xc8;" 
d="M367 647l-113 -393q-27 -103 -27 -131q0 -43 32.5 -59.5t137.5 -16.5q182 0 267 64q61 50 118 188q11 26 20 37.5t25 11.5q23 0 23 -24q0 -13 -10 -58q-8 -34 -28 -109.5t-30 -115.5q-11 -39 -18 -44q-8 -5 -25 -5q-45 0 -184 4t-215 4q-101 0 -227 -4t-160 -4
q-24 0 -32.5 4.5t-8.5 19.5q0 13 8 18t27 7q53 3 77.5 14t36 32t27.5 77q85 300 167.5 588.5t92.5 322.5q23 88 23 105q0 56 -62 59q-46 3 -54 12q-5 6 -5 13q0 24 31 24q23 0 110 -4t158 -4q61 0 214 4t208 4q34 0 41.5 -2t7.5 -14q0 -5 -45 -185q-22 -92 -33 -114.5
t-31 -22.5q-13 0 -17.5 8.5t-4.5 32.5q0 68 -8 152q-6 56 -46 73t-165 17q-114 0 -127 -8q-9 -4 -35 -95l-123 -425h123q55 0 92.5 5t59 10t39 22t24 27.5t22.5 39.5q7 11 16 29t14 27t13.5 16.5t18.5 7.5q22 0 22 -23q0 -3 -3 -12.5t-9.5 -27.5t-11.5 -35
q-48 -142 -88 -324q-6 -43 -37 -43q-16 0 -21.5 10.5t-5.5 36.5q0 15 4.5 46t4.5 44q0 45 -33.5 65.5t-130.5 20.5h-131zM451 1647v2q0 23 14.5 36t36.5 13q28 0 49.5 -16t52.5 -52l168 -192q45 -51 45 -62q0 -16 -16 -16q-13 0 -58 33l-227 172q-1 1 -8.5 6.5t-9.5 7.5
t-8.5 7t-8.5 7.5t-7.5 8t-7.5 8.5t-5.5 8t-5 9.5t-3 9.5t-1.5 10z" />
    <glyph glyph-name="Eacute" unicode="&#xc9;" 
d="M367 647l-113 -393q-27 -103 -27 -131q0 -43 32.5 -59.5t137.5 -16.5q182 0 267 64q61 50 118 188q11 26 20 37.5t25 11.5q23 0 23 -24q0 -13 -10 -58q-8 -34 -28 -109.5t-30 -115.5q-11 -39 -18 -44q-8 -5 -25 -5q-45 0 -184 4t-215 4q-101 0 -227 -4t-160 -4
q-24 0 -32.5 4.5t-8.5 19.5q0 13 8 18t27 7q53 3 77.5 14t36 32t27.5 77q85 300 167.5 588.5t92.5 322.5q23 88 23 105q0 56 -62 59q-46 3 -54 12q-5 6 -5 13q0 24 31 24q23 0 110 -4t158 -4q61 0 214 4t208 4q34 0 41.5 -2t7.5 -14q0 -5 -45 -185q-22 -92 -33 -114.5
t-31 -22.5q-13 0 -17.5 8.5t-4.5 32.5q0 68 -8 152q-6 56 -46 73t-165 17q-114 0 -127 -8q-9 -4 -35 -95l-123 -425h123q55 0 92.5 5t59 10t39 22t24 27.5t22.5 39.5q7 11 16 29t14 27t13.5 16.5t18.5 7.5q22 0 22 -23q0 -3 -3 -12.5t-9.5 -27.5t-11.5 -35
q-48 -142 -88 -324q-6 -43 -37 -43q-16 0 -21.5 10.5t-5.5 36.5q0 15 4.5 46t4.5 44q0 45 -33.5 65.5t-130.5 20.5h-131zM592 1360h-2q-15 0 -15 16q0 15 44 50q2 2 6 5l6 5l221 188q57 46 84 55q13 4 25 4q22 0 37.5 -13t15.5 -36q0 -19 -14.5 -36t-27.5 -25t-38 -21
l-279 -163q-50 -29 -63 -29z" />
    <glyph glyph-name="Ecircumflex" unicode="&#xca;" 
d="M367 647l-113 -393q-27 -103 -27 -131q0 -43 32.5 -59.5t137.5 -16.5q182 0 267 64q61 50 118 188q11 26 20 37.5t25 11.5q23 0 23 -24q0 -13 -10 -58q-8 -34 -28 -109.5t-30 -115.5q-11 -39 -18 -44q-8 -5 -25 -5q-45 0 -184 4t-215 4q-101 0 -227 -4t-160 -4
q-24 0 -32.5 4.5t-8.5 19.5q0 13 8 18t27 7q53 3 77.5 14t36 32t27.5 77q85 300 167.5 588.5t92.5 322.5q23 88 23 105q0 56 -62 59q-46 3 -54 12q-5 6 -5 13q0 24 31 24q23 0 110 -4t158 -4q61 0 214 4t208 4q34 0 41.5 -2t7.5 -14q0 -5 -45 -185q-22 -92 -33 -114.5
t-31 -22.5q-13 0 -17.5 8.5t-4.5 32.5q0 68 -8 152q-6 56 -46 73t-165 17q-114 0 -127 -8q-9 -4 -35 -95l-123 -425h123q55 0 92.5 5t59 10t39 22t24 27.5t22.5 39.5q7 11 16 29t14 27t13.5 16.5t18.5 7.5q22 0 22 -23q0 -3 -3 -12.5t-9.5 -27.5t-11.5 -35
q-48 -142 -88 -324q-6 -43 -37 -43q-16 0 -21.5 10.5t-5.5 36.5q0 15 4.5 46t4.5 44q0 45 -33.5 65.5t-130.5 20.5h-131zM756 1599l-269 -208q-39 -31 -57 -31q-16 0 -16 16q0 15 51 66l192 192q40 42 55.5 54t32.5 12h43q17 0 24 -8t26 -50l98 -208q22 -44 22 -56
q0 -18 -18 -18q-14 0 -43 45z" />
    <glyph glyph-name="Edieresis" unicode="&#xcb;" 
d="M367 647l-113 -393q-27 -103 -27 -131q0 -43 32.5 -59.5t137.5 -16.5q182 0 267 64q61 50 118 188q11 26 20 37.5t25 11.5q23 0 23 -24q0 -13 -10 -58q-8 -34 -28 -109.5t-30 -115.5q-11 -39 -18 -44q-8 -5 -25 -5q-45 0 -184 4t-215 4q-101 0 -227 -4t-160 -4
q-24 0 -32.5 4.5t-8.5 19.5q0 13 8 18t27 7q53 3 77.5 14t36 32t27.5 77q85 300 167.5 588.5t92.5 322.5q23 88 23 105q0 56 -62 59q-46 3 -54 12q-5 6 -5 13q0 24 31 24q23 0 110 -4t158 -4q61 0 214 4t208 4q34 0 41.5 -2t7.5 -14q0 -5 -45 -185q-22 -92 -33 -114.5
t-31 -22.5q-13 0 -17.5 8.5t-4.5 32.5q0 68 -8 152q-6 56 -46 73t-165 17q-114 0 -127 -8q-9 -4 -35 -95l-123 -425h123q55 0 92.5 5t59 10t39 22t24 27.5t22.5 39.5q7 11 16 29t14 27t13.5 16.5t18.5 7.5q22 0 22 -23q0 -3 -3 -12.5t-9.5 -27.5t-11.5 -35
q-48 -142 -88 -324q-6 -43 -37 -43q-16 0 -21.5 10.5t-5.5 36.5q0 15 4.5 46t4.5 44q0 45 -33.5 65.5t-130.5 20.5h-131zM543 1427h-2q-28 0 -43 22t-15 54q0 42 31 84.5t72 42.5q30 0 46.5 -20t16.5 -49q0 -47 -31 -90.5t-75 -43.5zM848 1427h-2q-28 0 -44 22.5t-16 53.5
q0 42 31 84.5t72 42.5q30 0 47.5 -20t17.5 -49q0 -47 -31 -90.5t-75 -43.5z" />
    <glyph glyph-name="Igrave" unicode="&#xcc;" horiz-adv-x="485" 
d="M193 84v-2q0 -38 57 -41q36 -1 48.5 -7.5t12.5 -21.5q0 -20 -32 -20q-9 0 -60 4t-115 4q-69 0 -118 -4t-54 -4q-32 0 -32 20q0 26 45 29q60 4 81.5 21t36.5 71l269 957q22 87 22 98q0 23 -13.5 33t-49.5 18q-38 7 -43 14q-4 6 -4 13q0 22 35 22q11 0 59 -4t100 -4
q54 0 106 4t60 4q31 0 31 -22q0 -11 -9 -16.5t-32 -10.5q-53 -10 -76.5 -31t-36.5 -63l-248 -881q-40 -141 -40 -180zM217 1647v2q0 23 14.5 36t36.5 13q27 0 50 -17t51 -51l170 -192q45 -51 45 -62q0 -16 -17 -16q-11 0 -59 33l-225 172q-1 1 -10.5 8.5t-12 9.5t-10.5 8.5
t-10.5 10t-8 10t-7.5 11.5t-4.5 11.5t-2.5 12.5z" />
    <glyph glyph-name="Iacute" unicode="&#xcd;" horiz-adv-x="485" 
d="M193 84v-2q0 -38 57 -41q36 -1 48.5 -7.5t12.5 -21.5q0 -20 -32 -20q-9 0 -60 4t-115 4q-69 0 -118 -4t-54 -4q-32 0 -32 20q0 26 45 29q60 4 81.5 21t36.5 71l269 957q22 87 22 98q0 23 -13.5 33t-49.5 18q-38 7 -43 14q-4 6 -4 13q0 22 35 22q11 0 59 -4t100 -4
q54 0 106 4t60 4q31 0 31 -22q0 -11 -9 -16.5t-32 -10.5q-53 -10 -76.5 -31t-36.5 -63l-248 -881q-40 -141 -40 -180zM352 1360h-2q-14 0 -14 16q0 15 45 53q2 2 3 2.5t2.5 2l2.5 2.5l221 188q73 59 109 59q23 0 38 -12.5t15 -36.5q0 -19 -14.5 -36.5t-26.5 -24.5t-37 -21
l-280 -163q-47 -29 -62 -29z" />
    <glyph glyph-name="Icircumflex" unicode="&#xce;" horiz-adv-x="485" 
d="M193 84v-2q0 -38 57 -41q36 -1 48.5 -7.5t12.5 -21.5q0 -20 -32 -20q-9 0 -60 4t-115 4q-69 0 -118 -4t-54 -4q-32 0 -32 20q0 26 45 29q60 4 81.5 21t36.5 71l269 957q22 87 22 98q0 23 -13.5 33t-49.5 18q-38 7 -43 14q-4 6 -4 13q0 22 35 22q11 0 59 -4t100 -4
q54 0 106 4t60 4q31 0 31 -22q0 -11 -9 -16.5t-32 -10.5q-53 -10 -76.5 -31t-36.5 -63l-248 -881q-40 -141 -40 -180zM518 1599l-268 -208q-39 -31 -57 -31q-17 0 -17 16q0 15 51 66l193 192q44 44 58 55t30 11h43q17 0 23.5 -8t25.5 -50l98 -208q23 -46 23 -56
q0 -18 -19 -18q-14 0 -43 45z" />
    <glyph glyph-name="Idieresis" unicode="&#xcf;" horiz-adv-x="485" 
d="M193 84v-2q0 -38 57 -41q36 -1 48.5 -7.5t12.5 -21.5q0 -20 -32 -20q-9 0 -60 4t-115 4q-69 0 -118 -4t-54 -4q-32 0 -32 20q0 26 45 29q60 4 81.5 21t36.5 71l269 957q22 87 22 98q0 23 -13.5 33t-49.5 18q-38 7 -43 14q-4 6 -4 13q0 22 35 22q11 0 59 -4t100 -4
q54 0 106 4t60 4q31 0 31 -22q0 -11 -9 -16.5t-32 -10.5q-53 -10 -76.5 -31t-36.5 -63l-248 -881q-40 -141 -40 -180zM313 1427h-2q-28 0 -43.5 22.5t-15.5 53.5q0 42 30.5 84.5t73.5 42.5q30 0 47 -20t17 -49q0 -47 -31.5 -90.5t-75.5 -43.5zM616 1427h-2q-28 0 -42.5 22
t-14.5 54q0 42 30.5 84.5t71.5 42.5q30 0 48 -20t18 -49q0 -46 -32 -90t-77 -44z" />
    <glyph glyph-name="Eth" unicode="&#xd0;" horiz-adv-x="1200" 
d="M254 702l90 314q2 7 11 38t12.5 45t7.5 36.5t4 38.5q0 36 -17.5 47t-66.5 18q-22 2 -30.5 6.5t-8.5 18.5q0 11 9 17.5t24 6.5q29 0 96 -4t109 -4q52 0 156.5 4t156.5 4q163 0 266 -106q109 -106 109 -301q0 -159 -52 -324t-151 -303q-96 -129 -234 -195.5t-301 -66.5
q-52 0 -157.5 4t-145.5 4q-50 0 -111 -4t-71 -4q-12 0 -17.5 0.5t-12.5 5.5t-7 16q0 12 11 19.5t28 7.5q66 6 92 29.5t45 91.5l140 483h-160q-21 0 -21 10q0 3 4.5 16t4.5 15q3 10 7.5 13t18.5 3h162zM375 645l-107 -375q-28 -100 -28 -149q0 -45 31.5 -63.5t99.5 -18.5
q166 0 276 45t197 172q87 126 142.5 317.5t55.5 348.5q0 158 -71 237.5t-226 79.5q-169 0 -192 -18q-6 -5 -11.5 -14.5t-10.5 -24t-8.5 -26t-9 -29.5t-7.5 -25l-113 -400h312q22 0 22 -10q0 -3 -1.5 -8.5t-3.5 -12t-3 -9.5q-3 -11 -8.5 -14t-20.5 -3h-315z" />
    <glyph glyph-name="Ntilde" unicode="&#xd1;" horiz-adv-x="1175" 
d="M852 274h4q147 476 231 777q29 98 29 123q0 32 -17.5 45.5t-62.5 19.5q-26 2 -36.5 7.5t-10.5 19.5q0 22 33 22q23 0 78 -4t82 -4q28 0 72.5 4t62.5 4q22 0 22 -22q0 -7 -2.5 -11t-8.5 -6.5t-10.5 -4t-15 -3t-16.5 -2.5q-45 -10 -69.5 -36t-49.5 -103
q-155 -479 -307 -994q-22 -79 -31.5 -101.5t-21.5 -22.5q-3 0 -5.5 1.5t-5.5 5t-5 7t-4.5 9.5t-4.5 11t-4.5 13t-4.5 13.5t-4.5 14.5t-4.5 15l-322 1065h-4q-214 -661 -248 -772q-61 -199 -61 -250q0 -61 76 -68q51 -9 60 -20q5 -6 5 -13q0 -22 -28 -22q-17 0 -75.5 4
t-103.5 4q-38 0 -89 -4t-70 -4q-27 0 -27 24q0 22 29 25q47 5 73 13.5t44 27.5q6 8 12 18.5t10 19t10.5 26t10 27t11 33t11.5 34.5q54 166 116.5 355t101.5 306.5t59 185.5q22 86 22 103q0 24 -12 32.5t-53 16.5q-39 3 -39 25q0 24 26 24q17 0 56 -2t59 -2q21 0 56 2t46 2
q16 0 23 -15t20 -69q38 -140 81 -283t113 -365t89 -282zM975 1415h-2q-39 0 -80 21.5t-70 47t-64 47t-63 21.5q-30 0 -59 -19t-46 -41t-32 -41t-20 -19q-9 0 -9 12q0 48 69.5 113t152.5 65q39 0 81.5 -21.5t72.5 -47t64.5 -47t59.5 -21.5q39 0 74 30.5t56.5 60.5t27.5 30
q10 0 10 -11q0 -49 -70 -114.5t-153 -65.5z" />
    <glyph glyph-name="Ograve" unicode="&#xd2;" horiz-adv-x="1105" 
d="M1085 782v-2q0 -107 -28.5 -221t-84 -218.5t-130 -188t-174 -133.5t-207.5 -50q-204 0 -303 174q-86 140 -86 359q0 108 28.5 222t84 218.5t130 188t174 133t207.5 49.5q125 0 214 -70t132 -188.5t43 -272.5zM696 1264h-2q-111 0 -207 -101.5t-163 -267.5
q-53 -125 -84 -266.5t-31 -259.5q0 -155 65.5 -253t186.5 -98q112 0 208.5 102t161.5 267q53 125 84 265.5t31 256.5q0 158 -63.5 256.5t-186.5 98.5zM485 1647v2q0 23 14 36t38 13q27 0 49.5 -16.5t50.5 -51.5l170 -192q6 -8 14.5 -18t13 -15t9 -11t6.5 -10.5t2 -7.5
q0 -16 -16 -16q-12 0 -60 33l-225 172q-21 16 -31.5 24.5t-22 25t-12.5 32.5z" />
    <glyph glyph-name="Oacute" unicode="&#xd3;" horiz-adv-x="1105" 
d="M1085 782v-2q0 -107 -28.5 -221t-84 -218.5t-130 -188t-174 -133.5t-207.5 -50q-204 0 -303 174q-86 140 -86 359q0 108 28.5 222t84 218.5t130 188t174 133t207.5 49.5q125 0 214 -70t132 -188.5t43 -272.5zM696 1264h-2q-111 0 -207 -101.5t-163 -267.5
q-53 -125 -84 -266.5t-31 -259.5q0 -155 65.5 -253t186.5 -98q112 0 208.5 102t161.5 267q53 125 84 265.5t31 256.5q0 158 -63.5 256.5t-186.5 98.5zM612 1360h-2q-14 0 -14 16q0 15 45 53q2 2 3 2.5t2.5 2l2.5 2.5l223 188q68 59 107 59q23 0 38 -12.5t15 -36.5
q0 -19 -13.5 -36t-27 -25.5t-37.5 -20.5l-280 -163q-47 -29 -62 -29z" />
    <glyph glyph-name="Ocircumflex" unicode="&#xd4;" horiz-adv-x="1105" 
d="M1085 782v-2q0 -107 -28.5 -221t-84 -218.5t-130 -188t-174 -133.5t-207.5 -50q-204 0 -303 174q-86 140 -86 359q0 108 28.5 222t84 218.5t130 188t174 133t207.5 49.5q125 0 214 -70t132 -188.5t43 -272.5zM696 1264h-2q-111 0 -207 -101.5t-163 -267.5
q-53 -125 -84 -266.5t-31 -259.5q0 -155 65.5 -253t186.5 -98q112 0 208.5 102t161.5 267q53 125 84 265.5t31 256.5q0 158 -63.5 256.5t-186.5 98.5zM778 1599l-268 -208q-39 -31 -55 -31q-19 0 -19 16q0 15 51 66l193 192q44 44 58 55t30 11h43q17 0 23.5 -8t27.5 -50
l99 -208q20 -40 20 -56q0 -18 -16 -18t-45 45z" />
    <glyph glyph-name="Otilde" unicode="&#xd5;" horiz-adv-x="1105" 
d="M1085 782v-2q0 -107 -28.5 -221t-84 -218.5t-130 -188t-174 -133.5t-207.5 -50q-204 0 -303 174q-86 140 -86 359q0 108 28.5 222t84 218.5t130 188t174 133t207.5 49.5q125 0 214 -70t132 -188.5t43 -272.5zM696 1264h-2q-111 0 -207 -101.5t-163 -267.5
q-53 -125 -84 -266.5t-31 -259.5q0 -155 65.5 -253t186.5 -98q112 0 208.5 102t161.5 267q53 125 84 265.5t31 256.5q0 158 -63.5 256.5t-186.5 98.5zM856 1415h-2q-38 0 -79 21.5t-70 47t-63.5 47t-61.5 21.5q-40 0 -75.5 -30t-57 -60t-27.5 -30q-8 0 -8 12
q0 49 69.5 113.5t153.5 64.5q38 0 80 -21.5t72 -47t64.5 -47t59.5 -21.5q31 0 60.5 19t47 41.5t32.5 41.5t20 19q8 0 8 -11q0 -49 -69.5 -114.5t-153.5 -65.5z" />
    <glyph glyph-name="Odieresis" unicode="&#xd6;" horiz-adv-x="1105" 
d="M1085 782v-2q0 -107 -28.5 -221t-84 -218.5t-130 -188t-174 -133.5t-207.5 -50q-204 0 -303 174q-86 140 -86 359q0 108 28.5 222t84 218.5t130 188t174 133t207.5 49.5q125 0 214 -70t132 -188.5t43 -272.5zM696 1264h-2q-111 0 -207 -101.5t-163 -267.5
q-53 -125 -84 -266.5t-31 -259.5q0 -155 65.5 -253t186.5 -98q112 0 208.5 102t161.5 267q53 125 84 265.5t31 256.5q0 158 -63.5 256.5t-186.5 98.5zM573 1427h-2q-28 0 -43.5 22.5t-15.5 53.5q0 42 31 84.5t73 42.5q30 0 47 -20t17 -49q0 -47 -31.5 -90.5t-75.5 -43.5z
M879 1427h-2q-28 0 -44 22.5t-16 53.5q0 42 31 84.5t72 42.5q30 0 47.5 -20t17.5 -49q0 -47 -31 -90.5t-75 -43.5z" />
    <glyph glyph-name="multiply" unicode="&#xd7;" horiz-adv-x="1216" 
d="M547 518l-400 397l76 76l398 -399l399 399l76 -76l-402 -397l402 -397l-76 -76l-399 399l-398 -399l-76 76z" />
    <glyph glyph-name="Oslash" unicode="&#xd8;" horiz-adv-x="1103" 
d="M33 -170h-29q-16 0 -16 8q0 9 28 49l152 232q-98 146 -98 381q0 108 28.5 222.5t84.5 219.5t130.5 188.5t174 133t206.5 49.5q154 0 250 -99l135 205q13 21 21 27t22 6h29q16 0 16 -8q0 -9 -28 -49l-152 -232q98 -143 98 -381q0 -108 -28.5 -222.5t-84.5 -219.5
t-130.5 -188.5t-174 -133t-206.5 -49.5q-151 0 -250 99l-135 -205q-13 -21 -21 -27t-22 -6zM240 176l641 991q-29 47 -78.5 72t-108.5 25q-93 0 -175 -70t-137 -175.5t-95.5 -230t-59 -232.5t-18.5 -183q0 -112 31 -197zM915 1106l-641 -991q29 -47 78.5 -72t108.5 -25
q93 0 175 70t137 175.5t95.5 230t59 232.5t18.5 183q0 112 -31 197z" />
    <glyph glyph-name="Ugrave" unicode="&#xd9;" horiz-adv-x="1165" 
d="M137 236v2q0 63 60 290q29 109 87 308.5t70 240.5q21 95 21 99q0 32 -13.5 44.5t-48.5 18.5l-18 3t-16 3t-10.5 3.5t-8.5 6.5t-2 11q0 10 10 16t23 6q15 0 79 -4t105 -4q39 0 104.5 4t94.5 4q21 0 28 -5.5t7 -16.5q0 -5 -2.5 -8.5t-8.5 -6t-11 -4.5t-15 -3t-16.5 -2
t-19 -1.5t-18.5 -1.5q-47 -5 -73 -37t-53 -127q-40 -142 -85.5 -304t-69 -246t-38.5 -138q-29 -116 -29 -168q0 -95 71 -148t171 -53q91 0 158.5 27t114.5 81.5t77.5 122t55.5 163.5q33 130 91.5 345.5t75.5 280.5q29 114 29 136q0 38 -20.5 51.5t-79.5 13.5q-31 0 -40 4
t-9 21q0 24 32 24q17 0 68.5 -4t87.5 -4q35 0 89 4t69 4q32 0 32 -18q0 -4 -1 -7.5t-3.5 -6t-5.5 -4.5t-7.5 -3.5t-8.5 -2.5t-11 -2t-12 -1.5t-13.5 -1.5t-14.5 -2q-52 -8 -68.5 -33t-40.5 -112q-36 -134 -101.5 -378.5t-88.5 -330.5q-49 -189 -136 -283
q-122 -133 -342 -133q-155 0 -253.5 66.5t-98.5 200.5zM582 1647v2q0 23 13.5 36t35.5 13q28 0 49.5 -16t52.5 -52l170 -192q6 -8 14.5 -18t13 -15t9 -11t6.5 -10.5t2 -7.5q0 -16 -16 -16q-15 0 -60 33l-227 172q-21 17 -30 25t-20.5 24.5t-12.5 32.5z" />
    <glyph glyph-name="Uacute" unicode="&#xda;" horiz-adv-x="1165" 
d="M137 236v2q0 63 60 290q29 109 87 308.5t70 240.5q21 95 21 99q0 32 -13.5 44.5t-48.5 18.5l-18 3t-16 3t-10.5 3.5t-8.5 6.5t-2 11q0 10 10 16t23 6q15 0 79 -4t105 -4q39 0 104.5 4t94.5 4q21 0 28 -5.5t7 -16.5q0 -5 -2.5 -8.5t-8.5 -6t-11 -4.5t-15 -3t-16.5 -2
t-19 -1.5t-18.5 -1.5q-47 -5 -73 -37t-53 -127q-40 -142 -85.5 -304t-69 -246t-38.5 -138q-29 -116 -29 -168q0 -95 71 -148t171 -53q91 0 158.5 27t114.5 81.5t77.5 122t55.5 163.5q33 130 91.5 345.5t75.5 280.5q29 114 29 136q0 38 -20.5 51.5t-79.5 13.5q-31 0 -40 4
t-9 21q0 24 32 24q17 0 68.5 -4t87.5 -4q35 0 89 4t69 4q32 0 32 -18q0 -4 -1 -7.5t-3.5 -6t-5.5 -4.5t-7.5 -3.5t-8.5 -2.5t-11 -2t-12 -1.5t-13.5 -1.5t-14.5 -2q-52 -8 -68.5 -33t-40.5 -112q-36 -134 -101.5 -378.5t-88.5 -330.5q-49 -189 -136 -283
q-122 -133 -342 -133q-155 0 -253.5 66.5t-98.5 200.5zM735 1360h-2q-14 0 -14 16q0 15 45 53q2 2 3 2.5t2.5 2l2.5 2.5l223 188q68 59 107 59q23 0 38 -12.5t15 -36.5q0 -19 -13.5 -36t-27 -25.5t-37.5 -20.5l-278 -163q-50 -29 -64 -29z" />
    <glyph glyph-name="Ucircumflex" unicode="&#xdb;" horiz-adv-x="1165" 
d="M137 236v2q0 63 60 290q29 109 87 308.5t70 240.5q21 95 21 99q0 32 -13.5 44.5t-48.5 18.5l-18 3t-16 3t-10.5 3.5t-8.5 6.5t-2 11q0 10 10 16t23 6q15 0 79 -4t105 -4q39 0 104.5 4t94.5 4q21 0 28 -5.5t7 -16.5q0 -5 -2.5 -8.5t-8.5 -6t-11 -4.5t-15 -3t-16.5 -2
t-19 -1.5t-18.5 -1.5q-47 -5 -73 -37t-53 -127q-40 -142 -85.5 -304t-69 -246t-38.5 -138q-29 -116 -29 -168q0 -95 71 -148t171 -53q91 0 158.5 27t114.5 81.5t77.5 122t55.5 163.5q33 130 91.5 345.5t75.5 280.5q29 114 29 136q0 38 -20.5 51.5t-79.5 13.5q-31 0 -40 4
t-9 21q0 24 32 24q17 0 68.5 -4t87.5 -4q35 0 89 4t69 4q32 0 32 -18q0 -4 -1 -7.5t-3.5 -6t-5.5 -4.5t-7.5 -3.5t-8.5 -2.5t-11 -2t-12 -1.5t-13.5 -1.5t-14.5 -2q-52 -8 -68.5 -33t-40.5 -112q-36 -134 -101.5 -378.5t-88.5 -330.5q-49 -189 -136 -283
q-122 -133 -342 -133q-155 0 -253.5 66.5t-98.5 200.5zM907 1599l-270 -208q-39 -31 -55 -31q-17 0 -17 16q0 17 49 66l193 192q44 44 58 55t32 11h41q18 0 25 -8t26 -50l98 -208q21 -42 21 -56q0 -18 -16 -18t-45 45z" />
    <glyph glyph-name="Udieresis" unicode="&#xdc;" horiz-adv-x="1165" 
d="M137 236v2q0 63 60 290q29 109 87 308.5t70 240.5q21 95 21 99q0 32 -13.5 44.5t-48.5 18.5l-18 3t-16 3t-10.5 3.5t-8.5 6.5t-2 11q0 10 10 16t23 6q15 0 79 -4t105 -4q39 0 104.5 4t94.5 4q21 0 28 -5.5t7 -16.5q0 -5 -2.5 -8.5t-8.5 -6t-11 -4.5t-15 -3t-16.5 -2
t-19 -1.5t-18.5 -1.5q-47 -5 -73 -37t-53 -127q-40 -142 -85.5 -304t-69 -246t-38.5 -138q-29 -116 -29 -168q0 -95 71 -148t171 -53q91 0 158.5 27t114.5 81.5t77.5 122t55.5 163.5q33 130 91.5 345.5t75.5 280.5q29 114 29 136q0 38 -20.5 51.5t-79.5 13.5q-31 0 -40 4
t-9 21q0 24 32 24q17 0 68.5 -4t87.5 -4q35 0 89 4t69 4q32 0 32 -18q0 -4 -1 -7.5t-3.5 -6t-5.5 -4.5t-7.5 -3.5t-8.5 -2.5t-11 -2t-12 -1.5t-13.5 -1.5t-14.5 -2q-52 -8 -68.5 -33t-40.5 -112q-36 -134 -101.5 -378.5t-88.5 -330.5q-49 -189 -136 -283
q-122 -133 -342 -133q-155 0 -253.5 66.5t-98.5 200.5zM676 1427h-2q-28 0 -43 22t-15 54q0 42 31 84.5t72 42.5q30 0 47.5 -20t17.5 -49q0 -46 -31.5 -90t-76.5 -44zM981 1427h-2q-28 0 -43.5 22.5t-15.5 53.5q0 42 30.5 84.5t73.5 42.5q30 0 46.5 -20t16.5 -49
q0 -47 -31 -90.5t-75 -43.5z" />
    <glyph glyph-name="Yacute" unicode="&#xdd;" horiz-adv-x="866" 
d="M397 1178v-2q0 -20 17 -117q9 -48 23 -114.5t34.5 -160t34.5 -159.5q246 319 323 428q5 8 17 26l17 25.5t14 22t13 21.5t8.5 16.5t6.5 16t2 11.5q0 35 -61 47q-56 9 -62 16q-4 5 -4 11q0 22 27 22q3 0 52.5 -4t121.5 -4q30 0 69.5 4t51.5 4q26 0 26 -20q0 -25 -36 -29
q-43 -8 -75 -33.5t-91 -107.5q-121 -160 -416 -547q-62 -212 -104 -344q-23 -87 -23 -109q0 -28 16 -39t52 -18q7 -1 16 -2t14 -2t11.5 -2t10 -2.5t7 -4t5 -6t1.5 -8.5q0 -13 -7.5 -17.5t-29.5 -4.5q-17 0 -83.5 4t-106.5 4q-48 0 -117.5 -4t-79.5 -4q-33 0 -33 18
q0 8 4.5 13t14.5 7.5t20 4t27 3t29 3.5q39 7 59 33t41 90q99 330 121 407q-50 250 -99 467q-24 126 -38.5 157.5t-57.5 43.5q-9 2 -21 4.5t-17.5 4t-12 4t-8.5 6t-2 8.5q0 22 31 22q6 0 50.5 -4t108.5 -4q85 0 146.5 4t66.5 4q27 0 27 -20q0 -7 -3.5 -11t-12 -7t-15.5 -4
t-23 -3t-26 -4q-41 -8 -56.5 -20.5t-15.5 -40.5zM563 1360h-2q-14 0 -14 16q0 17 53 60l221 188q57 46 84 55q13 4 25 4q23 0 38 -12.5t15 -36.5q0 -19 -14.5 -36.5t-26.5 -24.5t-37 -21l-280 -163q-47 -29 -62 -29z" />
    <glyph glyph-name="Thorn" unicode="&#xde;" horiz-adv-x="958" 
d="M950 784v-2q0 -89 -49 -192t-153 -174q-143 -99 -390 -99h-96q-53 -174 -53 -217q0 -33 18 -44.5t58 -14.5q27 -1 39 -3t20 -7.5t8 -16.5q0 -22 -33 -22q-3 0 -63 4t-137 4q-76 0 -132 -4t-57 -4q-30 0 -30 20q0 15 15 20.5t56 8.5q49 4 69 26.5t38 86.5q135 492 264 940
q23 74 23 94q0 30 -16 38t-66 13q-35 0 -35 27q0 22 41 22q17 0 72 -4t90 -4q39 0 98 4t76 4q20 0 20 -22q0 -12 -8.5 -18.5t-32.5 -10.5q-66 -10 -88 -44t-51 -157q15 0 71.5 3t100.5 3q170 0 240 -55q73 -61 73 -203zM432 930l-135 -492q-12 -54 -12 -59q0 -12 32 -12
q125 0 201.5 21t143.5 85q64 63 100.5 160t36.5 186q0 93 -52.5 133.5t-177.5 40.5q-87 0 -106 -8.5t-31 -54.5z" />
    <glyph glyph-name="germandbls" unicode="&#xdf;" horiz-adv-x="962" 
d="M238 872h-129q-17 0 -17 17q4 16 8 22q4 11 25 11h125q28 108 75 201t112 166t152 115t185 42q119 0 193.5 -63.5t74.5 -168.5q0 -69 -24 -120.5t-63 -81.5t-85.5 -51.5t-93 -35.5t-85.5 -28.5t-63 -36.5t-24 -53q0 -37 26 -81t63.5 -88t75 -92.5t63.5 -112t26 -130.5
q0 -131 -79 -224t-206 -93q-54 0 -113.5 20.5t-96.5 47.5t-37 48q0 55 18 179q6 54 13 73t22 19q6 0 10.5 -0.5t8 -2.5t6 -4t4.5 -7t3.5 -9.5t3.5 -13.5t3.5 -16.5t4.5 -21.5t5 -26q25 -127 57 -183t103 -56q73 0 122.5 60t49.5 153q0 49 -28 102.5t-68 101.5t-79.5 97
t-67.5 106t-28 111q0 45 23.5 76.5t61 50t83 35t91 36.5t83 48t61 76.5t23.5 115.5q0 88 -40.5 142.5t-126.5 54.5q-75 0 -136 -37.5t-107 -110.5t-79.5 -161.5t-63.5 -210.5q-41 -166 -143 -543q-96 -406 -180 -567q-112 -213 -289 -213q-58 0 -96.5 30t-38.5 90
q0 38 19.5 59t48.5 21q50 0 61 -49q2 -10 3 -34t3 -33q9 -35 45 -35q37 0 63.5 24t51.5 86q52 115 178 609q68 256 150 548z" />
    <glyph glyph-name="agrave" unicode="&#xe0;" horiz-adv-x="954" 
d="M-27 162v2q0 127 62.5 265t159.5 255q97 114 208.5 184t208.5 70q27 0 51 -5.5t39 -13t25.5 -15.5t16 -13.5t6.5 -5.5q4 0 22 53q5 11 12 15.5t23 4.5h61q23 0 23 -14q0 -13 -8 -33q-88 -273 -201 -614q-39 -121 -39 -154q0 -30 23 -30q38 0 135 149q11 18 20.5 35
t13.5 26t8 16.5t7.5 10t9.5 2.5q14 0 14 -16q0 -22 -33.5 -81.5t-76.5 -117.5q-50 -68 -108 -115t-107 -47q-55 0 -55 72q0 47 24 123q4 15 100 311l-4 2q-35 -54 -67.5 -102.5t-94 -128.5t-115.5 -136t-117.5 -98.5t-113.5 -42.5q-68 0 -100.5 51t-32.5 136zM717 803v2
q0 46 -28 71t-75 25q-78 0 -165.5 -78t-165.5 -198q-73 -111 -122.5 -236t-49.5 -207q0 -96 69 -96q58 0 149 90t179 217q83 118 146 238t63 172zM412 1348v2q0 23 14.5 36t36.5 13q27 0 49.5 -16.5t50.5 -51.5l170 -192q45 -52 45 -62q0 -16 -16 -16t-60 35l-225 170
q-21 17 -31 25.5t-21.5 25t-12.5 31.5z" />
    <glyph glyph-name="aacute" unicode="&#xe1;" horiz-adv-x="954" 
d="M-27 162v2q0 127 62.5 265t159.5 255q97 114 208.5 184t208.5 70q27 0 51 -5.5t39 -13t25.5 -15.5t16 -13.5t6.5 -5.5q4 0 22 53q5 11 12 15.5t23 4.5h61q23 0 23 -14q0 -13 -8 -33q-88 -273 -201 -614q-39 -121 -39 -154q0 -30 23 -30q38 0 135 149q11 18 20.5 35
t13.5 26t8 16.5t7.5 10t9.5 2.5q14 0 14 -16q0 -22 -33.5 -81.5t-76.5 -117.5q-50 -68 -108 -115t-107 -47q-55 0 -55 72q0 47 24 123q4 15 100 311l-4 2q-35 -54 -67.5 -102.5t-94 -128.5t-115.5 -136t-117.5 -98.5t-113.5 -42.5q-68 0 -100.5 51t-32.5 136zM717 803v2
q0 46 -28 71t-75 25q-78 0 -165.5 -78t-165.5 -198q-73 -111 -122.5 -236t-49.5 -207q0 -96 69 -96q58 0 149 90t179 217q83 118 146 238t63 172zM516 1061h-2q-14 0 -14 16q0 18 55 62l221 186q68 59 109 59q22 0 37.5 -13t15.5 -36q0 -7 -2.5 -14.5t-5 -12.5t-9 -11.5
l-10 -10t-13 -9.5t-13 -8t-14.5 -8.5t-13 -7.5l-278 -163q-50 -29 -64 -29z" />
    <glyph glyph-name="acircumflex" unicode="&#xe2;" horiz-adv-x="954" 
d="M-27 162v2q0 127 62.5 265t159.5 255q97 114 208.5 184t208.5 70q27 0 51 -5.5t39 -13t25.5 -15.5t16 -13.5t6.5 -5.5q4 0 22 53q5 11 12 15.5t23 4.5h61q23 0 23 -14q0 -13 -8 -33q-88 -273 -201 -614q-39 -121 -39 -154q0 -30 23 -30q38 0 135 149q11 18 20.5 35
t13.5 26t8 16.5t7.5 10t9.5 2.5q14 0 14 -16q0 -22 -33.5 -81.5t-76.5 -117.5q-50 -68 -108 -115t-107 -47q-55 0 -55 72q0 47 24 123q4 15 100 311l-4 2q-35 -54 -67.5 -102.5t-94 -128.5t-115.5 -136t-117.5 -98.5t-113.5 -42.5q-68 0 -100.5 51t-32.5 136zM717 803v2
q0 46 -28 71t-75 25q-78 0 -165.5 -78t-165.5 -198q-73 -111 -122.5 -236t-49.5 -207q0 -96 69 -96q58 0 149 90t179 217q83 118 146 238t63 172zM684 1300l-268 -208q-39 -31 -58 -31q-16 0 -16 16q0 15 51 66l193 192q40 42 55.5 54t32.5 12h43q17 0 23.5 -8t25.5 -50
l98 -208q23 -46 23 -56q0 -18 -19 -18q-14 0 -43 45z" />
    <glyph glyph-name="atilde" unicode="&#xe3;" horiz-adv-x="954" 
d="M-27 162v2q0 127 62.5 265t159.5 255q97 114 208.5 184t208.5 70q27 0 51 -5.5t39 -13t25.5 -15.5t16 -13.5t6.5 -5.5q4 0 22 53q5 11 12 15.5t23 4.5h61q23 0 23 -14q0 -13 -8 -33q-88 -273 -201 -614q-39 -121 -39 -154q0 -30 23 -30q38 0 135 149q11 18 20.5 35
t13.5 26t8 16.5t7.5 10t9.5 2.5q14 0 14 -16q0 -22 -33.5 -81.5t-76.5 -117.5q-50 -68 -108 -115t-107 -47q-55 0 -55 72q0 47 24 123q4 15 100 311l-4 2q-35 -54 -67.5 -102.5t-94 -128.5t-115.5 -136t-117.5 -98.5t-113.5 -42.5q-68 0 -100.5 51t-32.5 136zM717 803v2
q0 46 -28 71t-75 25q-78 0 -165.5 -78t-165.5 -198q-73 -111 -122.5 -236t-49.5 -207q0 -96 69 -96q58 0 149 90t179 217q83 118 146 238t63 172zM756 1116h-2q-38 0 -79 21.5t-70 47t-64 47t-62 21.5q-39 0 -74.5 -30t-57.5 -60t-28 -30q-8 0 -8 12q0 48 70.5 113t153.5 65
q38 0 80 -21.5t72 -47t64.5 -47t59.5 -21.5q31 0 60.5 19t47 41.5t32.5 41.5t20 19q8 0 8 -11q0 -49 -69.5 -114.5t-153.5 -65.5z" />
    <glyph glyph-name="adieresis" unicode="&#xe4;" horiz-adv-x="954" 
d="M-27 162v2q0 127 62.5 265t159.5 255q97 114 208.5 184t208.5 70q27 0 51 -5.5t39 -13t25.5 -15.5t16 -13.5t6.5 -5.5q4 0 22 53q5 11 12 15.5t23 4.5h61q23 0 23 -14q0 -13 -8 -33q-88 -273 -201 -614q-39 -121 -39 -154q0 -30 23 -30q38 0 135 149q11 18 20.5 35
t13.5 26t8 16.5t7.5 10t9.5 2.5q14 0 14 -16q0 -22 -33.5 -81.5t-76.5 -117.5q-50 -68 -108 -115t-107 -47q-55 0 -55 72q0 47 24 123q4 15 100 311l-4 2q-35 -54 -67.5 -102.5t-94 -128.5t-115.5 -136t-117.5 -98.5t-113.5 -42.5q-68 0 -100.5 51t-32.5 136zM717 803v2
q0 46 -28 71t-75 25q-78 0 -165.5 -78t-165.5 -198q-73 -111 -122.5 -236t-49.5 -207q0 -96 69 -96q58 0 149 90t179 217q83 118 146 238t63 172zM489 1128h-2q-28 0 -42.5 22t-14.5 54q0 42 30.5 85.5t71.5 43.5q30 0 48 -20.5t18 -50.5q0 -46 -32 -90t-77 -44zM795 1128
h-2q-28 0 -44 22.5t-16 53.5q0 42 31 85.5t74 43.5q30 0 46.5 -20t16.5 -51q0 -47 -31 -90.5t-75 -43.5z" />
    <glyph glyph-name="aring" unicode="&#xe5;" horiz-adv-x="954" 
d="M-27 162v2q0 127 62.5 265t159.5 255q97 114 208.5 184t208.5 70q27 0 51 -5.5t39 -13t25.5 -15.5t16 -13.5t6.5 -5.5q4 0 22 53q5 11 12 15.5t23 4.5h61q23 0 23 -14q0 -13 -8 -33q-88 -273 -201 -614q-39 -121 -39 -154q0 -30 23 -30q38 0 135 149q11 18 20.5 35
t13.5 26t8 16.5t7.5 10t9.5 2.5q14 0 14 -16q0 -22 -33.5 -81.5t-76.5 -117.5q-50 -68 -108 -115t-107 -47q-55 0 -55 72q0 47 24 123q4 15 100 311l-4 2q-35 -54 -67.5 -102.5t-94 -128.5t-115.5 -136t-117.5 -98.5t-113.5 -42.5q-68 0 -100.5 51t-32.5 136zM717 803v2
q0 46 -28 71t-75 25q-78 0 -165.5 -78t-165.5 -198q-73 -111 -122.5 -236t-49.5 -207q0 -96 69 -96q58 0 149 90t179 217q83 118 146 238t63 172zM649 1051h-2q-83 0 -142 58.5t-59 143.5t59 144t144 59t144 -59t59 -144t-59 -143.5t-144 -58.5zM649 1114h2q57 0 97 40.5
t40 98.5q0 59 -40.5 99.5t-98.5 40.5t-98.5 -40.5t-40.5 -99.5t40 -99t99 -40z" />
    <glyph glyph-name="ae" unicode="&#xe6;" horiz-adv-x="1312" 
d="M604 387l-4 4q-23 -46 -71 -111.5t-112.5 -136.5t-142 -119.5t-143.5 -48.5q-80 0 -119 54.5t-39 142.5q0 111 41.5 226.5t110 210t151 170t171 117.5t163.5 42q106 0 150 -66q3 7 8.5 22.5t8.5 21.5t8.5 14.5t12.5 12t17 3.5h53q29 0 29 -14q0 -3 -18 -78
q63 47 118.5 73.5t118.5 26.5q92 0 146.5 -54.5t54.5 -139.5q0 -133 -101.5 -212t-289.5 -124q-84 -17 -189 -33q-12 -47 -12 -94q0 -94 42 -159.5t130 -65.5q101 0 221 149q12 15 22.5 30.5t16 24t10.5 16t8.5 10.5t8.5 3q14 0 14 -18q0 -9 -16.5 -43.5t-40.5 -67.5
q-62 -83 -141.5 -142t-165.5 -59q-105 0 -171.5 79.5t-66.5 232.5q0 56 8 100zM1184 815v2q0 47 -22.5 74t-67.5 27t-96.5 -33t-101.5 -92.5t-92 -154t-63 -206.5q89 11 164 36t140 69t102 115t37 163zM723 799v2q0 98 -92 98q-74 0 -166.5 -71t-170 -175.5t-130.5 -234.5
t-53 -238q0 -46 22.5 -76t65.5 -30q61 0 153 83.5t173 197.5t139.5 240t58.5 204z" />
    <glyph glyph-name="ccedilla" unicode="&#xe7;" horiz-adv-x="729" 
d="M270 -23l-49 -83q28 4 47 4q61 0 107.5 -35.5t46.5 -102.5q0 -59 -37.5 -103.5t-86 -63.5t-97.5 -19q-35 0 -75 11t-73 37.5t-33 60.5q0 16 10 27t27 11q19 0 34 -16.5t25.5 -35.5t34 -35.5t56.5 -16.5q48 0 84.5 38t36.5 93q0 47 -30 66.5t-71 19.5q-15 0 -40 -4t-33 -4
q-15 0 -15 12q0 14 19 43l59 99q-94 19 -146.5 102t-52.5 219q0 129 45 248.5t123 212.5q77 88 173 140t190 52q78 0 129 -34.5t51 -94.5q0 -35 -25 -58.5t-63 -23.5q-48 0 -66 35q-14 28 -20 68q-5 22 -9 32.5t-15.5 19.5t-30.5 9q-47 0 -106 -46.5t-109 -121.5
q-60 -83 -95.5 -197.5t-35.5 -240.5q0 -104 45.5 -165.5t126.5 -61.5q59 0 119 46.5t108 115.5q17 23 37.5 57t31.5 49t19 16q14 0 14 -20q0 -6 -4 -18t-9 -22.5t-14 -29t-14 -28.5q-26 -47 -58.5 -88.5t-76 -83t-98 -66t-111.5 -25.5z" />
    <glyph glyph-name="egrave" unicode="&#xe8;" horiz-adv-x="720" 
d="M725 778v-2q0 -311 -537 -377q-4 0 -12 -1t-12 -1q-14 -57 -14 -121q0 -100 35.5 -152t103.5 -52q64 0 134.5 48t135.5 136q16 21 28 41t16.5 25.5t10.5 5.5t11.5 -5t5.5 -14q0 -19 -45 -86q-29 -43 -66 -84t-83.5 -79.5t-101 -61.5t-106.5 -23q-104 0 -160.5 78.5
t-56.5 227.5q0 132 50.5 258.5t127.5 216t171 144t180 54.5q88 0 136 -52t48 -124zM526 918h-2q-99 0 -204.5 -135t-147.5 -345q158 23 258.5 86t140.5 144q39 79 39 157q0 42 -22 67.5t-62 25.5zM287 1348v2q0 23 14.5 36t36.5 13q28 0 49.5 -16t52.5 -52l170 -192
q43 -49 43 -62q0 -16 -16 -16t-57 35l-228 170q-21 17 -31 25.5t-21.5 25t-12.5 31.5z" />
    <glyph glyph-name="eacute" unicode="&#xe9;" horiz-adv-x="720" 
d="M725 778v-2q0 -311 -537 -377q-4 0 -12 -1t-12 -1q-14 -57 -14 -121q0 -100 35.5 -152t103.5 -52q64 0 134.5 48t135.5 136q16 21 28 41t16.5 25.5t10.5 5.5t11.5 -5t5.5 -14q0 -19 -45 -86q-29 -43 -66 -84t-83.5 -79.5t-101 -61.5t-106.5 -23q-104 0 -160.5 78.5
t-56.5 227.5q0 132 50.5 258.5t127.5 216t171 144t180 54.5q88 0 136 -52t48 -124zM526 918h-2q-99 0 -204.5 -135t-147.5 -345q158 23 258.5 86t140.5 144q39 79 39 157q0 42 -22 67.5t-62 25.5zM418 1061h-2q-15 0 -15 16q0 3 1 6t3 6.5t3.5 6t5.5 6.5l6.5 6.5t7.5 7
t8 7.5t9.5 8t9.5 8l223 186q68 59 106 59q23 0 38.5 -12.5t15.5 -36.5q0 -6 -1.5 -12t-3 -10.5t-6 -9.5t-7 -8.5t-8.5 -8.5t-9 -7t-11 -7t-10.5 -6.5t-11 -6.5t-10.5 -6l-281 -163q-47 -29 -61 -29z" />
    <glyph glyph-name="ecircumflex" unicode="&#xea;" horiz-adv-x="720" 
d="M725 778v-2q0 -311 -537 -377q-4 0 -12 -1t-12 -1q-14 -57 -14 -121q0 -100 35.5 -152t103.5 -52q64 0 134.5 48t135.5 136q16 21 28 41t16.5 25.5t10.5 5.5t11.5 -5t5.5 -14q0 -19 -45 -86q-29 -43 -66 -84t-83.5 -79.5t-101 -61.5t-106.5 -23q-104 0 -160.5 78.5
t-56.5 227.5q0 132 50.5 258.5t127.5 216t171 144t180 54.5q88 0 136 -52t48 -124zM526 918h-2q-99 0 -204.5 -135t-147.5 -345q158 23 258.5 86t140.5 144q39 79 39 157q0 42 -22 67.5t-62 25.5zM580 1300l-269 -208q-39 -31 -57 -31q-16 0 -16 16q0 17 49 66l194 192
q42 43 56 54.5t32 11.5h41q19 0 26 -8t26 -50l98 -208q20 -40 20 -56q0 -18 -16 -18q-13 0 -45 45z" />
    <glyph glyph-name="edieresis" unicode="&#xeb;" horiz-adv-x="720" 
d="M725 778v-2q0 -311 -537 -377q-4 0 -12 -1t-12 -1q-14 -57 -14 -121q0 -100 35.5 -152t103.5 -52q64 0 134.5 48t135.5 136q16 21 28 41t16.5 25.5t10.5 5.5t11.5 -5t5.5 -14q0 -19 -45 -86q-29 -43 -66 -84t-83.5 -79.5t-101 -61.5t-106.5 -23q-104 0 -160.5 78.5
t-56.5 227.5q0 132 50.5 258.5t127.5 216t171 144t180 54.5q88 0 136 -52t48 -124zM526 918h-2q-99 0 -204.5 -135t-147.5 -345q158 23 258.5 86t140.5 144q39 79 39 157q0 42 -22 67.5t-62 25.5zM383 1128h-2q-28 0 -43.5 22.5t-15.5 53.5q0 42 31.5 85.5t72.5 43.5
q30 0 46.5 -20t16.5 -51q0 -47 -31 -90.5t-75 -43.5zM686 1128h-2q-28 0 -42.5 22t-14.5 54q0 42 30.5 85.5t71.5 43.5q30 0 48 -20.5t18 -50.5q0 -46 -32 -90t-77 -44z" />
    <glyph glyph-name="igrave" unicode="&#xec;" horiz-adv-x="483" 
d="M408 874v-2q0 -53 -39 -165q-63 -186 -168 -484q-23 -74 -23 -90q0 -27 27 -27q22 0 54 36t85 122q10 17 19.5 35t13.5 27.5t9.5 15.5t12.5 6q17 0 17 -14q0 -34 -74 -146q-53 -84 -115.5 -145t-117.5 -61q-33 0 -48.5 25t-15.5 61q0 58 47 190q71 204 137 399
q43 117 43 148q0 29 -24 29q-31 0 -98 -86q-22 -29 -39.5 -55.5t-25.5 -41t-14.5 -26t-11.5 -15.5t-12 -4q-14 0 -14 15q0 13 26.5 59.5t59.5 93.5q53 75 113 127.5t110 52.5q66 0 66 -80zM160 1348v2q0 23 14 36t37 13q27 0 48 -16t52 -52l170 -192q45 -52 45 -62
q0 -16 -16 -16q-18 0 -59 35l-226 170q-63 47 -65 82z" />
    <glyph glyph-name="iacute" unicode="&#xed;" horiz-adv-x="483" 
d="M408 874v-2q0 -53 -39 -165q-63 -186 -168 -484q-23 -74 -23 -90q0 -27 27 -27q22 0 54 36t85 122q10 17 19.5 35t13.5 27.5t9.5 15.5t12.5 6q17 0 17 -14q0 -34 -74 -146q-53 -84 -115.5 -145t-117.5 -61q-33 0 -48.5 25t-15.5 61q0 58 47 190q71 204 137 399
q43 117 43 148q0 29 -24 29q-31 0 -98 -86q-22 -29 -39.5 -55.5t-25.5 -41t-14.5 -26t-11.5 -15.5t-12 -4q-14 0 -14 15q0 13 26.5 59.5t59.5 93.5q53 75 113 127.5t110 52.5q66 0 66 -80zM268 1061h-2q-14 0 -14 16q0 18 55 62l221 186q57 46 84 55q13 4 25 4
q22 0 37.5 -13t15.5 -36q0 -9 -2.5 -16.5t-8 -14.5t-9.5 -12t-13.5 -11.5t-14 -9.5t-16 -9.5t-14.5 -8.5l-280 -163q-50 -29 -64 -29z" />
    <glyph glyph-name="icircumflex" unicode="&#xee;" horiz-adv-x="483" 
d="M408 874v-2q0 -53 -39 -165q-63 -186 -168 -484q-23 -74 -23 -90q0 -27 27 -27q22 0 54 36t85 122q10 17 19.5 35t13.5 27.5t9.5 15.5t12.5 6q17 0 17 -14q0 -34 -74 -146q-53 -84 -115.5 -145t-117.5 -61q-33 0 -48.5 25t-15.5 61q0 58 47 190q71 204 137 399
q43 117 43 148q0 29 -24 29q-31 0 -98 -86q-22 -29 -39.5 -55.5t-25.5 -41t-14.5 -26t-11.5 -15.5t-12 -4q-14 0 -14 15q0 13 26.5 59.5t59.5 93.5q53 75 113 127.5t110 52.5q66 0 66 -80zM414 1300l-269 -208q-39 -31 -55 -31q-18 0 -18 16q0 15 51 66l192 192q44 44 58 55
t30 11h43q17 0 24.5 -8t27.5 -50l96 -208q22 -44 22 -56q0 -18 -18 -18q-14 0 -43 45z" />
    <glyph glyph-name="idieresis" unicode="&#xef;" horiz-adv-x="483" 
d="M408 874v-2q0 -53 -39 -165q-63 -186 -168 -484q-23 -74 -23 -90q0 -27 27 -27q22 0 54 36t85 122q10 17 19.5 35t13.5 27.5t9.5 15.5t12.5 6q17 0 17 -14q0 -34 -74 -146q-53 -84 -115.5 -145t-117.5 -61q-33 0 -48.5 25t-15.5 61q0 58 47 190q71 204 137 399
q43 117 43 148q0 29 -24 29q-31 0 -98 -86q-22 -29 -39.5 -55.5t-25.5 -41t-14.5 -26t-11.5 -15.5t-12 -4q-14 0 -14 15q0 13 26.5 59.5t59.5 93.5q53 75 113 127.5t110 52.5q66 0 66 -80zM213 1128h-2q-28 0 -42.5 22t-14.5 54q0 42 30.5 85.5t71.5 43.5q30 0 48 -20.5
t18 -50.5q0 -46 -32 -90t-77 -44zM518 1128h-2q-28 0 -43.5 22.5t-15.5 53.5q0 43 30.5 86t73.5 43q30 0 47 -20.5t17 -50.5q0 -47 -31.5 -90.5t-75.5 -43.5z" />
    <glyph glyph-name="eth" unicode="&#xf0;" horiz-adv-x="837" 
d="M635 1274l213 110q35 15 39 15q9 0 17.5 -15.5t8.5 -25.5q0 -8 -30 -23l-217 -114q108 -175 108 -476q0 -156 -31 -288t-81 -220.5t-115 -150t-130.5 -89.5t-129.5 -28q-126 0 -197.5 100t-71.5 265q0 108 39 219.5t102.5 200t152 144.5t180.5 56q96 0 163 -67
q-6 177 -65 295l-205 -103q-33 -14 -39 -14q-11 0 -19 14.5t-8 24.5t29 24l217 109q-48 83 -82 119q-12 14 -29.5 30.5t-23.5 24.5t-6 14q0 8 6 14.5t16 6.5q29 0 88 -49.5t101 -122.5zM647 664v2q0 241 -153 241q-62 0 -123 -56t-111 -149q-57 -99 -91 -219.5t-34 -220.5
q0 -246 156 -246q60 0 120 56t113 151q55 100 89 221.5t34 219.5z" />
    <glyph glyph-name="ntilde" unicode="&#xf1;" horiz-adv-x="1064" 
d="M948 842v-2q0 -56 -37 -152q-27 -74 -83.5 -219t-84.5 -219q-32 -84 -32 -123q0 -33 26 -33q51 0 131 105q19 26 36 51.5t25.5 40t15.5 26.5t12 16.5t10 4.5q12 0 12 -19q0 -36 -78 -141q-56 -79 -121.5 -137.5t-117.5 -58.5q-45 0 -66 26.5t-21 69.5q0 91 76 282
q106 268 133 340q29 85 29 117q0 29 -13.5 44.5t-37.5 15.5q-53 0 -130 -68t-163 -184q-87 -119 -166.5 -275t-130.5 -301q-13 -35 -19.5 -42t-23.5 -7h-63q-25 0 -25 12q0 18 35 111q76 211 182 559q27 80 27 119q0 43 -35 43q-25 0 -63.5 -35t-82.5 -98
q-10 -15 -26.5 -44.5t-26.5 -42t-18 -12.5q-15 0 -15 15q0 13 25 56.5t57 86.5q51 74 115.5 129t118.5 55q84 0 84 -96q0 -49 -27 -151q-65 -208 -72 -238l5 -4q26 52 64 111.5t92.5 128t111 123t122.5 90.5t124 36q48 0 79 -30.5t31 -81.5zM788 1116h-2q-39 0 -80 21.5
t-70.5 47t-64 47t-61.5 21.5q-39 0 -74 -30t-56.5 -60t-27.5 -30q-10 0 -10 12q0 48 70 113t153 65q39 0 81.5 -21.5t72.5 -47t64.5 -47t58.5 -21.5q31 0 60 19t46.5 41.5t32.5 41.5t20 19q9 0 9 -11q0 -49 -69.5 -114.5t-152.5 -65.5z" />
    <glyph glyph-name="ograve" unicode="&#xf2;" horiz-adv-x="837" 
d="M764 588v-2q0 -98 -33 -199.5t-90 -185.5q-67 -104 -161 -168t-193 -64q-126 0 -197.5 100t-71.5 265q0 108 39 219.5t102.5 200t152 144.5t180.5 56q126 0 199 -100.5t73 -265.5zM647 664v2q0 241 -153 241q-62 0 -123 -56t-111 -149q-57 -99 -91 -219.5t-34 -220.5
q0 -246 156 -246q60 0 120 56t113 151q55 100 89 221.5t34 219.5zM297 1348v2q0 23 13.5 36t35.5 13q28 0 50.5 -16t52.5 -52l169 -192q44 -51 44 -62q0 -16 -17 -16q-16 0 -57 35l-228 170q-21 17 -30.5 25.5t-21 25t-11.5 31.5z" />
    <glyph glyph-name="oacute" unicode="&#xf3;" horiz-adv-x="837" 
d="M764 588v-2q0 -98 -33 -199.5t-90 -185.5q-67 -104 -161 -168t-193 -64q-126 0 -197.5 100t-71.5 265q0 108 39 219.5t102.5 200t152 144.5t180.5 56q126 0 199 -100.5t73 -265.5zM647 664v2q0 241 -153 241q-62 0 -123 -56t-111 -149q-57 -99 -91 -219.5t-34 -220.5
q0 -246 156 -246q60 0 120 56t113 151q55 100 89 221.5t34 219.5zM410 1061h-2q-15 0 -15 16q0 17 46 56l3.5 3.5t3.5 2.5l224 186q68 59 106 59q23 0 38 -12.5t15 -36.5q0 -15 -5.5 -26.5t-21.5 -23.5t-21.5 -15.5t-28.5 -16.5l-281 -163q-47 -29 -61 -29z" />
    <glyph glyph-name="ocircumflex" unicode="&#xf4;" horiz-adv-x="837" 
d="M764 588v-2q0 -98 -33 -199.5t-90 -185.5q-67 -104 -161 -168t-193 -64q-126 0 -197.5 100t-71.5 265q0 108 39 219.5t102.5 200t152 144.5t180.5 56q126 0 199 -100.5t73 -265.5zM647 664v2q0 241 -153 241q-62 0 -123 -56t-111 -149q-57 -99 -91 -219.5t-34 -220.5
q0 -246 156 -246q60 0 120 56t113 151q55 100 89 221.5t34 219.5zM569 1300l-268 -208q-39 -31 -57 -31q-17 0 -17 16q0 3 0.5 5.5t2.5 6t4 6t5.5 7t6 7t7.5 8t7.5 8l9 9l9.5 9.5l192 192q44 44 58 55t30 11h43q17 0 23.5 -8t27.5 -50l97 -208q22 -44 22 -56q0 -18 -18 -18
q-14 0 -43 45z" />
    <glyph glyph-name="otilde" unicode="&#xf5;" horiz-adv-x="837" 
d="M764 588v-2q0 -98 -33 -199.5t-90 -185.5q-67 -104 -161 -168t-193 -64q-126 0 -197.5 100t-71.5 265q0 108 39 219.5t102.5 200t152 144.5t180.5 56q126 0 199 -100.5t73 -265.5zM647 664v2q0 241 -153 241q-62 0 -123 -56t-111 -149q-57 -99 -91 -219.5t-34 -220.5
q0 -246 156 -246q60 0 120 56t113 151q55 100 89 221.5t34 219.5zM657 1116h-2q-38 0 -79 21.5t-70 47t-63.5 47t-61.5 21.5q-39 0 -75 -30t-57.5 -60t-27.5 -30q-8 0 -8 12q0 49 69.5 113.5t153.5 64.5q38 0 80 -21.5t72.5 -47t65 -47t59.5 -21.5q30 0 59 19t47 41.5
t33 41.5t20 19q9 0 9 -11q0 -48 -70.5 -114t-153.5 -66z" />
    <glyph glyph-name="odieresis" unicode="&#xf6;" horiz-adv-x="837" 
d="M764 588v-2q0 -98 -33 -199.5t-90 -185.5q-67 -104 -161 -168t-193 -64q-126 0 -197.5 100t-71.5 265q0 108 39 219.5t102.5 200t152 144.5t180.5 56q126 0 199 -100.5t73 -265.5zM647 664v2q0 241 -153 241q-62 0 -123 -56t-111 -149q-57 -99 -91 -219.5t-34 -220.5
q0 -246 156 -246q60 0 120 56t113 151q55 100 89 221.5t34 219.5zM367 1128h-2q-28 0 -43 22t-15 54q0 42 31 85.5t72 43.5q30 0 47.5 -20.5t17.5 -50.5q0 -46 -31.5 -90t-76.5 -44zM672 1128h-2q-28 0 -44 22.5t-16 53.5q0 42 31 85.5t74 43.5q30 0 46.5 -20t16.5 -51
q0 -47 -31 -90.5t-75 -43.5z" />
    <glyph glyph-name="divide" unicode="&#xf7;" horiz-adv-x="1216" 
d="M506 942v2q0 46 35 80.5t82 34.5q45 0 79.5 -35.5t34.5 -81.5q0 -44 -34 -80.5t-78 -36.5q-49 0 -84 35.5t-35 81.5zM1139 465h-1033v106h1033v-106zM506 94v2q0 46 35 80.5t82 34.5q45 0 79.5 -35.5t34.5 -81.5q0 -44 -34 -80.5t-78 -36.5q-49 0 -84 35.5t-35 81.5z" />
    <glyph glyph-name="oslash" unicode="&#xf8;" horiz-adv-x="837" 
d="M-23 -166h-26q-19 0 -19 10q0 4 4.5 12t14.5 22.5t14 21.5l117 176q-66 95 -66 258q0 108 39 219.5t102.5 200t152.5 144.5t182 56q90 0 163 -61l109 164q20 33 35 33h26q21 0 21 -11q0 -5 -35 -55l-115 -178q66 -95 66 -258q0 -92 -35 -199t-95 -201t-151.5 -156.5
t-193.5 -62.5q-99 0 -164 62l-109 -164q-20 -33 -37 -33zM141 139l465 703q-38 65 -117 65q-76 -1 -146 -76.5t-114 -181.5t-70 -211.5t-26 -175.5q0 -76 8 -123zM637 784l-465 -702q38 -66 117 -66q76 0 146 76t114 182.5t70 212.5t26 175q0 75 -8 122z" />
    <glyph glyph-name="ugrave" unicode="&#xf9;" horiz-adv-x="1062" 
d="M66 80v2q0 60 38 172q30 87 96.5 251.5t82.5 205.5q30 84 30 98q0 29 -22 29q-43 0 -139 -127q-14 -20 -29 -42.5t-23 -34t-15.5 -22t-12.5 -14.5t-9 -4q-16 0 -16 16q0 11 33 64t80 114.5t107.5 110.5t105.5 49q73 0 73 -90q0 -41 -43 -158q-27 -73 -86 -223.5
t-77 -197.5q-41 -112 -41 -146q0 -43 43 -43q44 0 125.5 62t160.5 157q207 250 308 574q8 22 13 30t15 9q16 4 84 4q19 0 19 -21q0 -6 -5 -19.5t-6 -17.5q-15 -45 -104 -292.5t-121 -352.5q-20 -72 -20 -96q0 -14 7 -23.5t17 -9.5q45 0 150 139q15 20 27.5 39t18.5 29.5
t12 19t9.5 12t8.5 3.5q18 0 18 -19q0 -11 -21 -48t-57.5 -85t-79 -93.5t-93 -77t-91.5 -31.5q-30 0 -46 21.5t-16 51.5q0 18 3 39t9.5 49.5t12.5 50.5t18.5 60.5t19.5 60.5t23 68.5t23 67.5l-4 2q-40 -60 -85 -119.5t-103.5 -124.5t-114 -114t-115 -81t-108.5 -32
q-42 0 -65 26t-23 72zM422 1348v2q0 23 14.5 36t36.5 13q27 0 49.5 -16.5t50.5 -51.5l170 -192q45 -48 45 -62q0 -16 -16 -16q-15 0 -59 35l-226 170q-21 17 -31 25.5t-21.5 25t-12.5 31.5z" />
    <glyph glyph-name="uacute" unicode="&#xfa;" horiz-adv-x="1062" 
d="M66 80v2q0 60 38 172q30 87 96.5 251.5t82.5 205.5q30 84 30 98q0 29 -22 29q-43 0 -139 -127q-14 -20 -29 -42.5t-23 -34t-15.5 -22t-12.5 -14.5t-9 -4q-16 0 -16 16q0 11 33 64t80 114.5t107.5 110.5t105.5 49q73 0 73 -90q0 -41 -43 -158q-27 -73 -86 -223.5
t-77 -197.5q-41 -112 -41 -146q0 -43 43 -43q44 0 125.5 62t160.5 157q207 250 308 574q8 22 13 30t15 9q16 4 84 4q19 0 19 -21q0 -6 -5 -19.5t-6 -17.5q-15 -45 -104 -292.5t-121 -352.5q-20 -72 -20 -96q0 -14 7 -23.5t17 -9.5q45 0 150 139q15 20 27.5 39t18.5 29.5
t12 19t9.5 12t8.5 3.5q18 0 18 -19q0 -11 -21 -48t-57.5 -85t-79 -93.5t-93 -77t-91.5 -31.5q-30 0 -46 21.5t-16 51.5q0 18 3 39t9.5 49.5t12.5 50.5t18.5 60.5t19.5 60.5t23 68.5t23 67.5l-4 2q-40 -60 -85 -119.5t-103.5 -124.5t-114 -114t-115 -81t-108.5 -32
q-42 0 -65 26t-23 72zM575 1061h-2q-14 0 -14 16q0 17 46 56l3.5 3.5t3.5 2.5l224 186q68 59 106 59q23 0 39 -12.5t16 -36.5q0 -7 -1.5 -13t-5 -12t-6 -10t-9 -9.5t-10 -8.5t-12 -8t-11.5 -7t-12.5 -7.5t-11.5 -6.5l-279 -163q-50 -29 -64 -29z" />
    <glyph glyph-name="ucircumflex" unicode="&#xfb;" horiz-adv-x="1062" 
d="M66 80v2q0 60 38 172q30 87 96.5 251.5t82.5 205.5q30 84 30 98q0 29 -22 29q-43 0 -139 -127q-14 -20 -29 -42.5t-23 -34t-15.5 -22t-12.5 -14.5t-9 -4q-16 0 -16 16q0 11 33 64t80 114.5t107.5 110.5t105.5 49q73 0 73 -90q0 -41 -43 -158q-27 -73 -86 -223.5
t-77 -197.5q-41 -112 -41 -146q0 -43 43 -43q44 0 125.5 62t160.5 157q207 250 308 574q8 22 13 30t15 9q16 4 84 4q19 0 19 -21q0 -6 -5 -19.5t-6 -17.5q-15 -45 -104 -292.5t-121 -352.5q-20 -72 -20 -96q0 -14 7 -23.5t17 -9.5q45 0 150 139q15 20 27.5 39t18.5 29.5
t12 19t9.5 12t8.5 3.5q18 0 18 -19q0 -11 -21 -48t-57.5 -85t-79 -93.5t-93 -77t-91.5 -31.5q-30 0 -46 21.5t-16 51.5q0 18 3 39t9.5 49.5t12.5 50.5t18.5 60.5t19.5 60.5t23 68.5t23 67.5l-4 2q-40 -60 -85 -119.5t-103.5 -124.5t-114 -114t-115 -81t-108.5 -32
q-42 0 -65 26t-23 72zM729 1300l-268 -208q-39 -31 -55 -31q-19 0 -19 16q0 15 51 66l193 192q44 44 58 55t30 11h43q17 0 23.5 -8t27.5 -50l96 -208q23 -46 23 -56q0 -18 -19 -18q-14 0 -43 45z" />
    <glyph glyph-name="udieresis" unicode="&#xfc;" horiz-adv-x="1062" 
d="M66 80v2q0 60 38 172q30 87 96.5 251.5t82.5 205.5q30 84 30 98q0 29 -22 29q-43 0 -139 -127q-14 -20 -29 -42.5t-23 -34t-15.5 -22t-12.5 -14.5t-9 -4q-16 0 -16 16q0 11 33 64t80 114.5t107.5 110.5t105.5 49q73 0 73 -90q0 -41 -43 -158q-27 -73 -86 -223.5
t-77 -197.5q-41 -112 -41 -146q0 -43 43 -43q44 0 125.5 62t160.5 157q207 250 308 574q8 22 13 30t15 9q16 4 84 4q19 0 19 -21q0 -6 -5 -19.5t-6 -17.5q-15 -45 -104 -292.5t-121 -352.5q-20 -72 -20 -96q0 -14 7 -23.5t17 -9.5q45 0 150 139q15 20 27.5 39t18.5 29.5
t12 19t9.5 12t8.5 3.5q18 0 18 -19q0 -11 -21 -48t-57.5 -85t-79 -93.5t-93 -77t-91.5 -31.5q-30 0 -46 21.5t-16 51.5q0 18 3 39t9.5 49.5t12.5 50.5t18.5 60.5t19.5 60.5t23 68.5t23 67.5l-4 2q-40 -60 -85 -119.5t-103.5 -124.5t-114 -114t-115 -81t-108.5 -32
q-42 0 -65 26t-23 72zM526 1128h-2q-28 0 -42.5 22t-14.5 54q0 42 30.5 85.5t71.5 43.5q30 0 48 -20.5t18 -50.5q0 -46 -32 -90t-77 -44zM831 1128h-2q-28 0 -43.5 22.5t-15.5 53.5q0 43 30.5 86t73.5 43q30 0 47 -20.5t17 -50.5q0 -47 -31.5 -90.5t-75.5 -43.5z" />
    <glyph glyph-name="yacute" unicode="&#xfd;" horiz-adv-x="827" 
d="M813 819v-2q0 -125 -96 -307.5t-303 -468.5q-90 -115 -113 -147q-70 -92 -115 -146t-96 -102.5t-96 -69t-94 -20.5q-54 0 -85.5 36.5t-31.5 92.5q0 31 18.5 54t48.5 23q28 0 43 -19t25 -69q8 -41 53 -41q38 0 88 39t93 99q95 129 114 274q15 123 15 324q0 269 -15.5 375
t-56.5 106q-26 0 -50.5 -30t-54.5 -87q-14 -24 -26.5 -56.5t-20.5 -45.5t-20 -13q-17 0 -17 23q0 27 60 133q95 174 180 174q68 0 98.5 -79.5t32.5 -250.5q4 -115 4 -301q-1 -52 -10 -239l6 -4q6 9 45.5 63t75 104.5t66.5 100.5q137 219 137 346q0 23 -21 84q-22 64 -22 86
q0 39 18.5 64.5t48.5 25.5q74 0 74 -129zM444 1061h-2q-14 0 -14 16q0 17 46 56l3.5 3.5t3.5 2.5l224 186q68 59 106 59q23 0 39 -12.5t16 -36.5q0 -7 -2.5 -14.5t-5 -12.5t-9 -11.5l-10 -10t-13 -9.5t-13 -8t-14.5 -8.5t-13 -7.5l-278 -163q-50 -29 -64 -29z" />
    <glyph glyph-name="thorn" unicode="&#xfe;" horiz-adv-x="839" 
d="M786 680v-2q0 -117 -46 -241.5t-122 -225.5q-79 -103 -176.5 -164t-199.5 -61q-92 0 -154 65q-13 -42 -35.5 -124.5t-34.5 -121.5q-30 -98 -30 -129q0 -30 15 -43t44 -18q7 -1 26 -3t26.5 -3.5t19 -4.5t16 -8t4.5 -12q0 -10 -6 -14t-24 -4q-27 0 -97 4t-102 4
q-40 0 -114 -5t-97 -5t-23 14q0 17 14 23.5t52 9.5q63 4 82 29t53 137l322 1069q1 4 0 6.5t-5 2.5t-12 -3q-28 -12 -62 -28t-51 -23.5t-26 -7.5q-14 0 -14 14q0 13 43 37q70 36 129 57q16 5 22 31l80 266q16 60 16 78q0 43 -65 49q-26 1 -36.5 7t-10.5 20q0 22 61 22
q107 0 183 49q34 23 38 23q15 0 15 -16q0 -3 -2 -9l-6 -18t-7 -25q-101 -324 -137 -438q27 8 74 12q25 2 74 2q130 0 208 -68.5t78 -205.5zM651 717v2q0 101 -47 143.5t-137 42.5q-78 0 -127 -18q-31 -95 -55 -174q-49 -170 -129 -428q-33 -108 -33 -156q0 -51 35.5 -77.5
t85.5 -26.5q80 0 152.5 63t131.5 170q56 100 89.5 222.5t33.5 236.5z" />
    <glyph glyph-name="ydieresis" unicode="&#xff;" horiz-adv-x="827" 
d="M813 819v-2q0 -125 -96 -307.5t-303 -468.5q-90 -115 -113 -147q-70 -92 -115 -146t-96 -102.5t-96 -69t-94 -20.5q-54 0 -85.5 36.5t-31.5 92.5q0 31 18.5 54t48.5 23q28 0 43 -19t25 -69q8 -41 53 -41q38 0 88 39t93 99q95 129 114 274q15 123 15 324q0 269 -15.5 375
t-56.5 106q-26 0 -50.5 -30t-54.5 -87q-14 -24 -26.5 -56.5t-20.5 -45.5t-20 -13q-17 0 -17 23q0 27 60 133q95 174 180 174q68 0 98.5 -79.5t32.5 -250.5q4 -115 4 -301q-1 -52 -10 -239l6 -4q6 9 45.5 63t75 104.5t66.5 100.5q137 219 137 346q0 23 -21 84q-22 64 -22 86
q0 39 18.5 64.5t48.5 25.5q74 0 74 -129zM379 1128h-2q-28 0 -44 22.5t-16 53.5q0 42 31 85.5t74 43.5q30 0 46.5 -20t16.5 -51q0 -47 -31 -90.5t-75 -43.5zM682 1128h-2q-28 0 -42.5 22t-14.5 54q0 42 30.5 85.5t71.5 43.5q30 0 46.5 -20t16.5 -51q0 -47 -31 -90.5
t-75 -43.5z" />
    <glyph glyph-name="dotlessi" unicode="&#x131;" horiz-adv-x="483" 
d="M408 874v-2q0 -53 -39 -165q-63 -186 -168 -484q-23 -74 -23 -90q0 -27 27 -27q22 0 54 36t85 122q10 17 19.5 35t13.5 27.5t9.5 15.5t12.5 6q17 0 17 -14q0 -34 -74 -146q-53 -84 -115.5 -145t-117.5 -61q-33 0 -48.5 25t-15.5 61q0 58 47 190q71 204 137 399
q43 117 43 148q0 29 -24 29q-31 0 -98 -86q-22 -29 -39.5 -55.5t-25.5 -41t-14.5 -26t-11.5 -15.5t-12 -4q-14 0 -14 15q0 13 26.5 59.5t59.5 93.5q53 75 113 127.5t110 52.5q66 0 66 -80z" />
    <glyph glyph-name="Lslash" unicode="&#x141;" horiz-adv-x="825" 
d="M365 670l-134 -449q-41 -138 -41 -151q0 -21 35 -21h86q80 0 128.5 6t95 25t79.5 56.5t64 99.5q7 15 14 29t11.5 23.5l9 19t7.5 15t5.5 11t4.5 8.5t4 5t4 3t4.5 1.5t5.5 0.5q20 0 20 -16q0 -23 -66 -242q-22 -75 -29 -88.5t-24 -13.5q-16 0 -64.5 2t-146.5 4t-233 2
q-95 0 -182.5 -4t-94.5 -4q-21 0 -29 4.5t-8 17.5q0 14 15.5 20t58.5 9q42 3 64.5 27.5t38.5 76.5q21 70 63 210.5t64 209.5l-177 -102q-21 -14 -32 -14q-9 0 -9 10q0 8 11 41q3 15 22 26l209 123l121 396q35 122 35 137q0 26 -15.5 37t-48.5 18q-11 2 -24.5 3.5t-20 2.5
t-13 3t-9 6.5t-2.5 11.5q0 22 26 22q16 0 82.5 -4t122.5 -4q42 0 108 4t89 4q16 0 22 -3.5t6 -14.5q0 -22 -57 -29q-3 -1 -4.5 -1t-4.5 -0.5t-5 -0.5q-65 -7 -86 -26t-41 -80l-111 -381l309 182q21 14 33 14q8 0 8 -10q0 -11 -10 -41q-3 -16 -22 -27z" />
    <glyph glyph-name="lslash" unicode="&#x142;" horiz-adv-x="479" 
d="M18 82v2q0 62 41 213q26 103 107 385l-154 -121q-37 -26 -41 -26q-8 0 -8 14q0 15 6 39q5 15 23 30l203 154q75 268 100 354q33 132 33 150q0 22 -13.5 34t-46.5 15q-28 1 -38.5 7t-10.5 18q3 24 62 24q103 0 182 49q38 23 41 23q14 0 14 -16q0 -4 -5 -18t-14 -39.5
t-16 -49.5q-31 -106 -76 -264l-45 -158l154 119q36 29 41 29q8 0 8 -15q0 -18 -6 -39q-4 -15 -22 -30l-203 -156q-51 -184 -97.5 -342.5t-52.5 -179.5q-30 -108 -30 -148q0 -15 7 -25t19 -10q47 0 129 140q11 17 28 50.5t28.5 52t19.5 18.5q12 0 12 -17q0 -14 -22.5 -62
t-52.5 -98q-51 -84 -114 -145t-120 -61q-70 0 -70 100z" />
    <glyph glyph-name="OE" unicode="&#x152;" horiz-adv-x="1458" 
d="M913 647l-118 -405q-25 -94 -25 -127q0 -66 123 -66q152 0 224.5 28t115.5 113q14 28 35 71q29 61 39 75t24 14q19 0 19 -18q0 -12 -33 -139q-8 -31 -21.5 -81.5t-17.5 -68.5q-7 -25 -10.5 -33.5t-10 -13t-20.5 -4.5q-13 0 -55 2t-80 2q-148 4 -359 4q-83 0 -168 -10
t-135 -10q-107 0 -192 71.5t-131.5 192t-46.5 266.5t50 289t134.5 255t206.5 181.5t256 69.5q37 0 139 -13q79 -12 287 -12q31 0 157 4t162 4q48 0 59 -2.5t11 -15.5q0 -8 -15.5 -61t-34 -113.5t-22.5 -77.5q-8 -33 -15 -46.5t-20 -13.5q-27 0 -30 41q0 21 3.5 67.5
t2.5 63.5q-4 69 -37.5 86t-157.5 17q-108 0 -121 -8q-12 -5 -34 -92l-127 -431h120q59 0 94 4.5t57.5 20.5t32.5 31t27 49q2 5 6 14t6.5 13.5t6 12t6 11.5t6 9.5t7 8.5t7.5 6t8 4t9 1q20 0 20 -23q0 -2 -22 -73q-52 -155 -90 -326q-10 -43 -35 -43q-16 0 -21.5 10t-5.5 35
q0 15 4 48t4 48q0 48 -29 66t-114 18h-115zM190 385v-2q0 -161 67.5 -258.5t191.5 -97.5q93 0 131 41.5t71 154.5q53 186 127 445q77 268 96 340t19 104q0 69 -50 105t-136 36q-71 0 -134 -29.5t-111.5 -81.5t-85 -109t-65.5 -124q-52 -118 -86.5 -262.5t-34.5 -261.5z" />
    <glyph glyph-name="oe" unicode="&#x153;" horiz-adv-x="1419" 
d="M16 350v2q0 82 26 168t74 163t111.5 138t144 97t165.5 36q105 0 183 -67.5t105 -175.5q65 98 169.5 170.5t217.5 72.5q88 0 142.5 -55.5t54.5 -142.5q0 -211 -272 -303q-130 -43 -322 -70q-8 -50 -8 -86q0 -103 40 -163t124 -60q135 0 252 151q12 16 22 31t15 23.5
t9.5 15.5t8 9.5t8.5 2.5q6 0 11.5 -4.5t5.5 -11.5q0 -17 -48 -88q-30 -43 -59 -76.5t-72 -71.5t-95 -59t-109 -21q-93 0 -152.5 60t-75.5 149q-63 -90 -166 -149.5t-204 -59.5q-67 0 -120 20.5t-87.5 54.5t-57 83t-32 102t-9.5 115zM1294 791v2q0 58 -30 92.5t-78 34.5
q-63 0 -126.5 -54t-110.5 -133t-80 -161.5t-44 -147.5q238 38 355 127q114 89 114 240zM725 680v2q0 112 -53 174t-131 62q-83 0 -160.5 -67t-130.5 -168t-85 -216.5t-32 -214.5q0 -240 186 -240q67 0 139.5 55.5t131.5 145t97 214.5t38 253z" />
    <glyph glyph-name="Scaron" unicode="&#x160;" horiz-adv-x="729" 
d="M178 938v2q0 81 35 152.5t91.5 119t126.5 74.5t142 27q99 0 191 -41q43 -19 43 -33q0 -13 -14 -74q-4 -17 -13 -52.5t-10 -41.5q-27 -104 -36 -115q-6 -8 -15 -8q-19 0 -19 33q0 16 2 46t2 53.5t-4 43.5q-2 16 -3 22t-6 25.5t-10.5 29.5t-16.5 26.5t-25 25t-35 15
t-47 6.5q-106 0 -176 -72.5t-70 -175.5q0 -38 10.5 -73t38 -76.5t42.5 -61t57 -70.5q39 -46 63 -77.5t52 -78t41.5 -95t13.5 -101.5q0 -116 -62 -215t-159.5 -154t-202.5 -55q-57 0 -116.5 17.5t-98.5 44.5q-39 19 -39 47q0 5 26 233q6 46 12.5 59t24.5 13q7 0 11.5 -3.5
t7 -14t3 -19.5t1.5 -29q0 -133 16 -192q15 -49 59.5 -78t102.5 -29q122 0 200.5 90.5t78.5 227.5q0 69 -35.5 132.5t-102.5 143.5q-3 4 -25 30.5t-27 32.5t-24 30t-24.5 32.5t-20.5 30.5t-20 33.5t-14.5 31.5t-13 35t-6.5 33.5t-3 36.5zM567 1458l269 211q39 31 57 31
q16 0 16 -17q0 -4 -1 -7.5t-4 -8t-6 -8.5t-8 -9.5t-9 -9t-11 -10.5l-12 -12l-192 -195q-43 -42 -57.5 -52.5t-30.5 -10.5h-43q-17 0 -24.5 7.5t-27.5 47.5l-96 211q-22 44 -22 55q0 19 18 19q14 0 43 -45z" />
    <glyph glyph-name="scaron" unicode="&#x161;" horiz-adv-x="598" 
d="M465 266v-2q0 -56 -25 -109t-65 -92q-91 -88 -225 -88q-98 0 -185 56q-37 26 -37 45q0 40 31 174q10 49 16.5 64.5t20.5 15.5q13 0 18.5 -14t8.5 -56q3 -65 20 -115t57.5 -85t100.5 -35q59 0 104 49t45 110q0 65 -31 119t-90 119q-56 63 -87 117.5t-31 119.5
q0 118 81 206.5t197 88.5q69 0 138 -24t69 -49q0 -27 -21 -121q-20 -80 -28 -89q-5 -7 -17 -7q-13 0 -20 13.5t-15.5 54.5t-11.5 54q-33 121 -131 121q-59 0 -99 -43.5t-40 -105.5q0 -12 2 -24.5t4.5 -23t8.5 -24t9.5 -22t13 -23.5t13.5 -21.5t16.5 -23t16 -21.5t18 -23
t17.5 -22q34 -41 50 -62.5t39.5 -58.5t33.5 -71.5t10 -71.5zM426 1161l268 209q39 31 58 31q16 0 16 -17q0 -16 -49 -65l-195 -193q-41 -42 -55.5 -53.5t-32.5 -11.5h-41q-19 0 -25.5 7.5t-25.5 49.5l-98 209q-21 42 -21 55q0 8 5 13.5t12 5.5q13 0 45 -45z" />
    <glyph glyph-name="Ydieresis" unicode="&#x178;" horiz-adv-x="866" 
d="M397 1178v-2q0 -20 17 -117q9 -48 23 -114.5t34.5 -160t34.5 -159.5q246 319 323 428q5 8 17 26l17 25.5t14 22t13 21.5t8.5 16.5t6.5 16t2 11.5q0 35 -61 47q-56 9 -62 16q-4 5 -4 11q0 22 27 22q3 0 52.5 -4t121.5 -4q30 0 69.5 4t51.5 4q26 0 26 -20q0 -25 -36 -29
q-43 -8 -75 -33.5t-91 -107.5q-121 -160 -416 -547q-62 -212 -104 -344q-23 -87 -23 -109q0 -28 16 -39t52 -18q7 -1 16 -2t14 -2t11.5 -2t10 -2.5t7 -4t5 -6t1.5 -8.5q0 -13 -7.5 -17.5t-29.5 -4.5q-17 0 -83.5 4t-106.5 4q-48 0 -117.5 -4t-79.5 -4q-33 0 -33 18
q0 8 4.5 13t14.5 7.5t20 4t27 3t29 3.5q39 7 59 33t41 90q99 330 121 407q-50 250 -99 467q-24 126 -38.5 157.5t-57.5 43.5q-9 2 -21 4.5t-17.5 4t-12 4t-8.5 6t-2 8.5q0 22 31 22q6 0 50.5 -4t108.5 -4q85 0 146.5 4t66.5 4q27 0 27 -20q0 -7 -3.5 -11t-12 -7t-15.5 -4
t-23 -3t-26 -4q-41 -8 -56.5 -20.5t-15.5 -40.5zM487 1427h-2q-28 0 -43.5 22.5t-15.5 53.5q0 42 31 84.5t73 42.5q30 0 47 -20t17 -49q0 -47 -31.5 -90.5t-75.5 -43.5zM793 1427h-2q-28 0 -44 22.5t-16 53.5q0 42 31 84.5t72 42.5q30 0 47.5 -20t17.5 -49q0 -47 -31 -90.5
t-75 -43.5z" />
    <glyph glyph-name="Zcaron" unicode="&#x17d;" horiz-adv-x="868" 
d="M-82 14v2q0 12 94 144q315 412 693 952q10 14 22.5 32t20.5 29t15.5 22.5t11 18t3.5 9.5q0 6 -24 7t-136 1q-137 0 -211 -41t-124 -141q-14 -26 -24.5 -50t-15 -36t-9.5 -21.5t-10 -12.5t-15 -3q-19 0 -19 20q0 7 13.5 63t33 131.5t23.5 90.5q9 39 15 48t24 9
q33 0 153.5 -4t202.5 -4q67 0 160 4t125 4q29 0 29 -14q0 -11 -60 -100q-283 -375 -676 -932q-120 -171 -120 -183q0 -7 29.5 -8.5t172.5 -1.5q82 0 131 6.5t96.5 28t82.5 63.5t69 113q11 22 19.5 43.5t12 33t7.5 21.5t9.5 13.5t13.5 3.5t14 -5t6 -14q0 -13 -32.5 -142
t-45.5 -173q-9 -34 -16 -41.5t-27 -7.5q-35 0 -157.5 4t-233.5 4q-86 0 -181.5 -4t-119.5 -4q-26 0 -35.5 4.5t-9.5 17.5zM612 1458l269 211q39 31 57 31q16 0 16 -17q0 -9 -7.5 -19.5t-15 -18.5t-28.5 -27l-192 -195q-40 -40 -55.5 -51.5t-32.5 -11.5h-41q-19 0 -26 7.5
t-26 47.5l-98 211q-20 40 -20 55q0 19 16 19q13 0 45 -45z" />
    <glyph glyph-name="zcaron" unicode="&#x17e;" horiz-adv-x="839" 
d="M-53 20v3q0 41 53 75q45 29 106 43q8 4 27.5 29.5t59 78t71.5 93.5q211 268 424 438l-4 4q-80 -26 -125 -26q-59 0 -153 28.5t-125 28.5q-53 0 -81.5 -36.5t-27.5 -110.5q0 -58 -16 -58q-21 0 -21 43q0 54 11.5 105t35 96t65.5 72.5t97 27.5q49 0 154 -63
q39 -22 61.5 -33t56.5 -21.5t62 -9.5q18 1 28.5 3.5t19.5 10t13 13t14 21.5t17 26q41 60 80 60q31 0 31 -23q0 -26 -21 -49.5t-64 -56.5t-63 -52q-52 -45 -121 -123q-24 -26 -88.5 -99.5t-105.5 -119.5q-2 -2 -262 -280l4 -4q43 14 116 14q54 0 140 -23q74 -24 125 -24
q114 0 114 127q0 23 -2 48.5t-2 29.5q0 18 15 18q7 0 13 -9.5t10.5 -33.5t4.5 -59q0 -113 -69 -185q-69 -75 -174 -75q-78 0 -172 63q-4 3 -16 11l-16.5 11t-15 9.5t-15.5 9.5t-14.5 8t-16 7.5t-14.5 5t-15.5 3.5t-14.5 1q-38 0 -86 -64q-4 -5 -14 -17t-15 -17.5t-13 -13
t-15 -10.5t-14 -3q-37 0 -37 34zM539 1161l268 209q39 31 57 31q17 0 17 -17q0 -15 -41 -56l-4 -4l-5 -5l-194 -193q-40 -41 -55.5 -53t-32.5 -12h-41q-19 0 -25.5 7.5t-25.5 49.5l-99 209q-20 40 -20 55q0 19 16 19q13 0 45 -45z" />
    <glyph glyph-name="florin" unicode="&#x192;" 
d="M449 739h-127q-18 0 -15 17q2 10 6 22q4 13 25 13h123q34 126 71 220.5t93 162.5q110 139 274 139q51 0 87 -25.5t36 -73.5q0 -39 -22.5 -61.5t-53.5 -22.5q-71 0 -74 70q-4 25 -6 37q-7 27 -35 27q-46 0 -96 -60q-58 -68 -104 -246q-7 -28 -21.5 -84t-21.5 -83h153
q21 0 21 -13q-3 -12 -8 -22q-3 -17 -25 -17h-156q-20 -76 -56.5 -217.5t-47.5 -185.5q-2 -9 -13.5 -54t-15 -59t-14.5 -56.5t-16 -60.5t-16 -57t-18.5 -60.5t-19 -56t-21 -58.5t-22 -52t-24.5 -53q-110 -213 -285 -213q-57 0 -98 30t-41 90q0 39 19.5 59.5t49.5 20.5
q49 0 60 -51q3 -10 4 -33.5t4 -31.5q6 -37 43 -37q38 0 63.5 23.5t51.5 86.5q90 224 180 611q16 59 52.5 199.5t56.5 215.5z" />
    <glyph glyph-name="circumflex" unicode="&#x2c6;" horiz-adv-x="530" 
d="M416 1300l-269 -208q-39 -31 -57 -31q-16 0 -16 16q0 17 49 66l194 192q41 43 56 54.5t33 11.5h40q19 0 26 -8t26 -50l98 -208q20 -40 20 -56q0 -18 -16 -18q-13 0 -45 45z" />
    <glyph glyph-name="caron" unicode="&#x2c7;" horiz-adv-x="530" 
d="M383 1161l268 209q39 31 58 31q16 0 16 -17t-51 -65l-193 -193q-40 -41 -55.5 -53t-32.5 -12h-41q-19 0 -25.5 7.5t-25.5 49.5l-98 209q-21 42 -21 55q0 8 5 13.5t12 5.5q13 0 45 -45z" />
    <glyph glyph-name="uni02C9" unicode="&#x2c9;" horiz-adv-x="512" 
d="M201 1245h448q17 0 17 -6q0 -5 -25 -49q-11 -21 -18 -26t-25 -5h-448q-17 0 -17 6q0 5 25 49q11 21 18 26t25 5z" />
    <glyph glyph-name="breve" unicode="&#x2d8;" horiz-adv-x="528" 
d="M391 1065h-2q-105 0 -173.5 68t-68.5 184q0 41 23 41q20 0 20 -31q0 -62 58.5 -116t142.5 -54q90 0 164 45.5t104 128.5q9 27 23 27q18 0 18 -33q0 -38 -22 -82t-59.5 -84.5t-98 -67t-129.5 -26.5z" />
    <glyph glyph-name="dotaccent" unicode="&#x2d9;" horiz-adv-x="448" 
d="M338 1126h-2q-30 0 -47 23t-17 55q0 42 32 86.5t75 44.5q30 0 48.5 -21t18.5 -52q0 -47 -32 -91.5t-76 -44.5z" />
    <glyph glyph-name="ring" unicode="&#x2da;" horiz-adv-x="479" 
d="M379 1051h-2q-83 0 -142 58.5t-59 143.5t59 144t144 59t144 -59t59 -144t-59 -143.5t-144 -58.5zM379 1114h2q57 0 97 40.5t40 98.5q0 59 -40.5 99.5t-98.5 40.5t-98.5 -40.5t-40.5 -99.5t40 -99t99 -40z" />
    <glyph glyph-name="ogonek" unicode="&#x2db;" horiz-adv-x="479" 
d="M147 0h52q-43 -35 -71 -80t-28 -90q0 -72 74 -72q35 0 74 24.5t43 24.5q7 0 11.5 -5.5t4.5 -12.5q0 -33 -57 -65.5t-119 -32.5q-60 0 -96.5 33.5t-36.5 95.5q0 50 44 100t105 80z" />
    <glyph glyph-name="tilde" unicode="&#x2dc;" horiz-adv-x="540" 
d="M508 1116h-2q-39 0 -80 21.5t-70 47t-63.5 47t-61.5 21.5q-31 0 -60 -18.5t-46.5 -41.5t-32.5 -41.5t-20 -18.5q-9 0 -9 12q0 48 69.5 113t152.5 65q39 0 81.5 -21.5t72.5 -47t64.5 -47t59.5 -21.5q39 0 74 30t56.5 60.5t27.5 30.5q10 0 10 -11q0 -49 -70 -114.5
t-153 -65.5z" />
    <glyph glyph-name="hungarumlaut" unicode="&#x2dd;" horiz-adv-x="491" 
d="M451 1399h2q49 0 49 -51q-2 -35 -66 -82l-225 -170q-41 -35 -59 -35q-17 0 -17 16q0 10 45 62l170 192q30 35 52 51.5t49 16.5zM752 1399h2q22 0 35.5 -13t13.5 -38q-1 -15 -13.5 -32t-21.5 -24.5t-31 -25.5l-225 -170q-44 -35 -59 -35q-17 0 -17 16q0 14 45 62l168 192
q30 36 52.5 52t50.5 16z" />
    <glyph glyph-name="uni03A9" unicode="&#x3a9;" horiz-adv-x="1239" 
d="M1098 236l-107 -236h-389l-2 29q14 18 81 98.5t105 130.5t94 132t94.5 163t61.5 162q41 143 41.5 252.5t-33.5 173t-87 94.5t-123 31q-75 0 -147 -32t-141 -96.5t-129 -174.5t-102 -256q-12 -40 -19 -82.5t-12 -76t-3.5 -78t1 -70t7.5 -72.5t10 -64t14 -65.5t14 -57
t16.5 -59t14.5 -51.5l-22 -31h-383l29 236l36 4q0 -90 19 -118t69 -28h189q-203 294 -109 623q51 179 156.5 316t237.5 208.5t270 71.5q215 0 306 -156t15 -426q-88 -304 -473 -637h191q56 0 86 24.5t86 121.5z" />
    <glyph glyph-name="uni03BC" unicode="&#x3bc;" horiz-adv-x="1062" 
d="M684 451l-4 2q-116 -164 -153 -209q-184 -230 -354 -258q-26 -4 -52 -4q-49 -93 -72 -236q-7 -43 -12.5 -66t-18 -56.5t-33 -49.5t-48.5 -16q-58 0 -58 65q0 39 70 191.5t80 193.5q11 35 80 246q28 87 93.5 251.5t80.5 205.5q30 84 30 98q0 29 -22 29q-43 0 -139 -127
q-14 -20 -29 -42.5t-23 -34t-15.5 -22t-12.5 -14.5t-9 -4q-16 0 -16 16q0 11 33 64t80 114.5t107.5 110.5t105.5 49q73 0 73 -90q0 -41 -43 -158q-27 -73 -86 -223.5t-77 -197.5q-41 -112 -41 -146q0 -43 43 -43q44 0 125.5 62t160.5 157q207 250 308 574q8 22 13 30t15 9
q16 4 84 4q19 0 19 -21q0 -6 -5 -19.5t-6 -17.5q-15 -45 -104 -292.5t-121 -352.5q-20 -72 -20 -96q0 -14 7 -23.5t17 -9.5q45 0 150 139q15 20 27.5 39t18.5 29.5t12 19t9.5 12t8.5 3.5q18 0 18 -19q0 -11 -21 -48t-57.5 -85t-79 -93.5t-93 -77t-91.5 -31.5q-30 0 -46 21.5
t-16 51.5q0 18 3 39t9.5 49.5t12.5 50.5t18.5 60.5t19.5 60.5t23 68.5t23 67.5z" />
    <glyph glyph-name="pi" unicode="&#x3c0;" horiz-adv-x="968" 
d="M981 874l33 -16q-38 -74 -99 -135q-31 -6 -127 -6q-40 -110 -143 -475q-50 -176 31 -176q28 0 52 14.5t60 48.5l15 -31q-99 -121 -203 -121q-46 0 -70 20t-29.5 72t21.5 142q62 211 168 510q-218 4 -295 4l-12 -43q-42 -149 -93.5 -279t-95 -209t-74 -124.5t-46.5 -59.5
q-67 -28 -103 -33l-2 27q64 59 124.5 153t107.5 198.5t80.5 195t58.5 176.5q-59 0 -107.5 -13.5t-75 -28.5t-73.5 -48l-14 33q1 1 19.5 17.5t23 20t24 19t28 21t29.5 18.5t35 18t36.5 14t42 13t44 7t49.5 3q6 0 178.5 -4t276.5 -4q43 0 67 11t58 50z" />
    <glyph glyph-name="endash" unicode="&#x2013;" horiz-adv-x="1024" 
d="M6 506h987q19 0 19 -6q0 -8 -6 -23l-17 -45q-3 -8 -7 -10t-17 -2h-988q-16 0 -16 6q0 2 2.5 10t3.5 13l17 45q3 8 6.5 10t15.5 2z" />
    <glyph glyph-name="emdash" unicode="&#x2014;" horiz-adv-x="2048" 
d="M6 506h2011q19 0 19 -6q0 -8 -6 -23l-17 -45q-3 -8 -7 -10t-17 -2h-2012q-16 0 -16 6q0 2 2.5 10t3.5 13l17 45q3 8 6.5 10t15.5 2z" />
    <glyph glyph-name="quoteleft" unicode="&#x2018;" horiz-adv-x="462" 
d="M434 1061v-2q0 -38 -23 -62t-53 -24q-43 0 -64.5 34t-21.5 89q0 61 26.5 125t62.5 108.5t70 73.5t50 29q17 0 17 -15q0 -8 -13.5 -18t-42 -37t-55.5 -66q-23 -31 -37 -69.5t-14 -61.5q0 -27 26 -30q20 -3 35 -11q37 -13 37 -63z" />
    <glyph glyph-name="quoteright" unicode="&#x2019;" horiz-adv-x="462" 
d="M313 1225v2q0 39 23.5 62.5t54.5 23.5q43 0 63.5 -33.5t20.5 -87.5q0 -61 -26.5 -125.5t-62.5 -109.5t-70 -74t-50 -29q-6 0 -10 5t-4 11q0 7 12.5 17t41 37t56.5 65q22 33 36 72t14 59q0 29 -25 33q-23 4 -35 10q-39 12 -39 62z" />
    <glyph glyph-name="quotesinglbase" unicode="&#x201a;" horiz-adv-x="462" 
d="M41 98v2q0 38 23 62t53 24q45 0 65.5 -33t20.5 -87q0 -62 -26.5 -127t-62.5 -110t-70 -74t-50 -29q-7 0 -12 5t-5 11q0 7 13.5 17.5t42 38t55.5 65.5q22 30 36.5 69.5t14.5 61.5q0 26 -20 31q-27 4 -41 10q-37 13 -37 63z" />
    <glyph glyph-name="quotedblleft" unicode="&#x201c;" horiz-adv-x="804" 
d="M418 1061v-2q0 -38 -23 -62t-53 -24q-86 0 -86 123q0 61 26.5 125t62.5 108.5t70 73.5t50 29t16 -15q0 -8 -13 -18t-41.5 -37t-55.5 -66q-23 -32 -37.5 -70.5t-14.5 -60.5q0 -27 27 -30q19 -3 35 -11q37 -13 37 -63zM791 1061v-2q0 -38 -23 -62t-53 -24q-86 0 -86 123
q0 61 26.5 125t62.5 108.5t70 73.5t50 29t16 -15q0 -8 -13.5 -18t-42 -37t-55.5 -66q-23 -31 -37 -69.5t-14 -61.5q0 -27 27 -30q20 -3 35 -11q37 -13 37 -63z" />
    <glyph glyph-name="quotedblright" unicode="&#x201d;" horiz-adv-x="804" 
d="M303 1225v2q0 39 22.5 62.5t53.5 23.5q43 0 64.5 -34t21.5 -87q0 -61 -26.5 -125.5t-62.5 -109.5t-70 -74t-50 -29t-16 16q0 7 13 17t41.5 37t55.5 65q22 33 36.5 72t14.5 59q0 29 -26 33q-23 4 -35 10q-37 12 -37 62zM676 1225v2q0 39 22.5 62.5t53.5 23.5
q43 0 64.5 -34t21.5 -87q0 -61 -26.5 -125.5t-62.5 -109.5t-70 -74t-50 -29q-7 0 -12 5t-5 11q0 7 13.5 17t42 36.5t55.5 65.5q23 33 37 71.5t14 59.5q0 30 -26 33q-23 4 -35 10q-37 12 -37 62z" />
    <glyph glyph-name="quotedblbase" unicode="&#x201e;" horiz-adv-x="804" 
d="M27 96v2q0 40 23 64t54 24q43 0 63.5 -34t20.5 -89q0 -61 -26.5 -125.5t-62 -109t-68.5 -73.5t-49 -29q-7 0 -12 5t-5 11q0 7 13 17.5t41.5 37.5t56.5 64q21 33 36 72.5t15 60.5q0 27 -27 31q-20 3 -34 10q-39 12 -39 61zM399 96v2q0 39 23.5 63.5t54.5 24.5
q43 0 63.5 -34t20.5 -89q0 -61 -26.5 -125.5t-62.5 -109t-69 -73.5t-49 -29t-16 16q0 7 13 17.5t41.5 37.5t56.5 64q21 32 35 72t14 61q0 27 -25 31q-24 3 -35 10q-39 12 -39 61z" />
    <glyph glyph-name="dagger" unicode="&#x2020;" horiz-adv-x="995" 
d="M291 -369h-45q62 252 109.5 476t47.5 272q0 63 -8 104q49 61 77 126t73 218q-70 0 -123 -14.5t-91.5 -28.5t-72.5 -14q-41 0 -65.5 21.5t-24.5 54.5q0 34 26.5 55t69.5 21q18 0 34.5 -3t23.5 -5.5t25 -10.5t22 -10q72 -29 184 -29q33 140 33 185q0 25 -6.5 71.5
t-6.5 69.5q0 62 26 93.5t71 31.5q34 0 52.5 -25.5t18.5 -62.5q0 -32 -18.5 -69.5t-42.5 -71.5t-51 -94t-41 -128q91 0 188 29q13 4 32 10t30 9.5t24 6.5t23 3q40 0 63 -20t23 -58q0 -32 -23 -55t-59 -23q-41 0 -77.5 15t-91 30.5t-140.5 15.5q-37 -160 -37 -239
q0 -84 20 -111q-63 -67 -118.5 -248t-153.5 -598z" />
    <glyph glyph-name="daggerdbl" unicode="&#x2021;" horiz-adv-x="995" 
d="M971 844v-2q0 -32 -25 -52t-61 -20q-30 0 -73 15t-101.5 30.5t-126.5 15.5q-35 -158 -35 -249q0 -64 12 -119q-60 -67 -93.5 -152t-57.5 -200q70 0 164 30.5t124 30.5q41 0 65.5 -21.5t24.5 -54.5q0 -34 -26.5 -55t-69.5 -21q-33 0 -59.5 9t-45.5 20t-66.5 20t-117.5 9
q-32 -136 -32 -184q0 -25 6 -72t6 -70q0 -62 -25.5 -93.5t-70.5 -31.5q-34 0 -53 25.5t-19 62.5q0 32 18.5 69.5t43 71.5t51.5 94t41 128q-71 0 -133 -14.5t-102.5 -29t-61.5 -14.5q-40 0 -63 20t-23 58q0 33 25 53.5t61 20.5q34 0 76.5 -15t99 -30.5t125.5 -15.5
q3 17 12 59t13 63.5t8 55.5t4 63q0 60 -9 115q34 34 59 82.5t35.5 84t27 103t24.5 94.5q-70 0 -164.5 -30.5t-124.5 -30.5q-41 0 -65.5 21.5t-24.5 54.5q0 34 26.5 55t69.5 21q17 0 33.5 -3.5t23 -5.5t27 -10.5t23.5 -9.5q77 -29 182 -29q33 140 33 185q0 25 -6.5 71.5
t-6.5 69.5q0 62 26 93.5t71 31.5q34 0 52.5 -25.5t18.5 -62.5q0 -32 -18.5 -69.5t-42.5 -71.5t-51 -94t-41 -128q84 0 186 29q14 4 42 13t43 12.5t26 3.5q40 0 63 -20t23 -58z" />
    <glyph glyph-name="bullet" unicode="&#x2022;" horiz-adv-x="1067" 
d="M549 897h2q106 0 181 -74t75 -182q0 -107 -75.5 -182.5t-182.5 -75.5q-106 0 -181 75.5t-75 182.5q-3 107 73 181.5t183 74.5z" />
    <glyph glyph-name="ellipsis" unicode="&#x2026;" horiz-adv-x="2048" 
d="M307 111v-2q0 -51 -23.5 -90t-64.5 -39q-31 0 -49 20.5t-18 54.5q0 52 23.5 92.5t66.5 40.5q29 0 47 -21.5t18 -55.5zM989 111v-2q0 -51 -23.5 -90t-64.5 -39q-31 0 -49 20.5t-18 54.5q0 52 23.5 92.5t66.5 40.5q29 0 47 -21.5t18 -55.5zM1671 111v-2q0 -51 -23.5 -90
t-64.5 -39q-31 0 -49 20.5t-18 54.5q0 52 23.5 92.5t66.5 40.5q29 0 47 -21.5t18 -55.5z" />
    <glyph glyph-name="perthousand" unicode="&#x2030;" horiz-adv-x="1941" 
d="M180 -18v2q0 6 37 55l881 1237q14 18 18.5 24t10.5 9.5t14 3.5h24q27 0 27 -13q0 -7 -35 -57l-883 -1237q-14 -18 -18.5 -24t-10.5 -9.5t-14 -3.5h-24q-27 0 -27 13zM496 1276h-2q-47 0 -91 -34t-76 -87t-56.5 -115t-37 -119t-12.5 -98q0 -170 115 -170q58 0 112 51.5
t88 125t54 148t20 126.5q0 35 -4 62t-15 54t-35 41.5t-60 14.5zM1036 631h-2q-58 0 -111 -51.5t-87 -125.5t-54 -149t-20 -127q0 -172 115 -172q58 0 112 52t88 126t54 148.5t20 126.5q0 172 -115 172zM336 614h-2q-98 0 -157.5 71t-59.5 187q0 104 51.5 206t140.5 168.5
t187 66.5q102 0 160.5 -70.5t58.5 -187.5q0 -73 -30 -151t-79.5 -142.5t-121 -106t-148.5 -41.5zM877 -31h-3q-98 0 -157.5 71t-59.5 187q0 104 51.5 206t140.5 168.5t187 66.5q101 0 160 -71t59 -187q0 -99 -49 -200t-138 -171t-191 -70zM1522 -31h-2q-98 0 -156.5 71
t-58.5 187q0 104 51.5 206t140 168.5t186.5 66.5q100 0 159 -71.5t59 -186.5q0 -73 -30 -151t-79.5 -142.5t-121 -106t-148.5 -41.5zM1683 631h-2q-58 0 -111.5 -51.5t-87.5 -125.5t-54.5 -149t-20.5 -127q0 -172 115 -172q59 0 113.5 52t88.5 126t54 148.5t20 126.5
q0 172 -115 172z" />
    <glyph glyph-name="guilsinglleft" unicode="&#x2039;" horiz-adv-x="526" 
d="M326 205h-78q-46 0 -60 39l-53 139q-10 27 -26 49q-11 15 -11 19q0 2 2.5 4l7.5 6t9 8q23 20 45 49l112 139q32 39 78 39h82q19 0 19 -8t-27 -8q-31 0 -86 -66l-100 -125q-20 -26 -39 -40q10 -10 18 -37l49 -125q21 -66 56 -66q24 0 24 -8t-22 -8z" />
    <glyph glyph-name="guilsinglright" unicode="&#x203a;" horiz-adv-x="526" 
d="M205 696h78q45 0 59 -39l53 -139q9 -24 27 -49q10 -13 10 -18q0 -1 -18 -19q-23 -20 -45 -49l-113 -139q-32 -39 -78 -39h-82q-18 0 -18 8t26 8q31 0 86 66l101 125q21 28 39 41q-8 11 -19 36l-49 125q-21 66 -55 66q-25 0 -25 8t23 8z" />
    <glyph glyph-name="fraction" unicode="&#x2044;" horiz-adv-x="323" 
d="M-305 -18v2q0 5 35 55l882 1237q14 18 18.5 24t10.5 9.5t14 3.5h25q27 0 27 -13q0 -7 -35 -57l-883 -1237q-14 -18 -18.5 -24t-10.5 -9.5t-14 -3.5h-25q-26 0 -26 13z" />
    <glyph glyph-name="Euro" unicode="&#x20ac;" 
d="M678 575q0 -12 -12 -26t-21 -14h-311q-12 -86 -12 -175q0 -166 47.5 -254t132.5 -88q169 0 256 209q15 37 38 90q28 68 37 83.5t23 15.5q18 0 18 -23q0 -22 -26 -117l-64 -227q-3 -10 -36 -28.5t-80 -30.5q-79 -21 -191 -21q-150 0 -228.5 114.5t-78.5 317.5q0 77 8 134
h-119q-20 0 -20 12q0 16 12 28.5t23 12.5h114q15 74 39 147h-135q-20 0 -20 13q0 16 12 28t22 12h142q96 238 302 381.5t425 143.5q108 0 108 -39q0 -32 -73 -293q-11 -44 -19 -51q-6 -6 -18 -6q-25 0 -25 22q0 10 16.5 134.5t16.5 144.5q0 17 -12.5 28t-32.5 11
q-83 0 -183 -55t-197 -167t-153 -254h326q12 0 17 -0.5t8.5 -3t3.5 -8.5q0 -13 -10 -27t-23 -14h-340q-29 -90 -41 -147h305q29 0 29 -13z" />
    <glyph glyph-name="afii61289" unicode="&#x2113;" horiz-adv-x="688" 
d="M530 182l25 -24q-144 -185 -322 -185q-110 0 -147 72q-18 37 -13 98.5t36 169.5l49 172l-129 -86l-13 37l158 111l66 229q72 248 117.5 348.5t119.5 167.5q82 76 154 76q69 0 88.5 -70t-12.5 -170q-80 -277 -418 -563l-58 -196q-38 -123 -34.5 -192.5t29.5 -95.5t79 -26
q108 0 225 127zM381 891l-70 -250q112 106 200.5 238.5t121.5 250.5q24 82 16.5 135.5t-49.5 53.5q-51 0 -102 -99.5t-117 -328.5z" />
    <glyph glyph-name="trademark" unicode="&#x2122;" horiz-adv-x="1992" 
d="M242 1108h-41v172h622v-172h-41q-8 58 -38.5 94.5t-81.5 36.5h-97v-561q0 -70 13 -86t79 -23v-41h-290v41q63 7 75.5 23.5t12.5 85.5v561h-93q-50 0 -81 -37t-39 -94zM907 1280h203l301 -598l295 598h188v-41q-56 -3 -80 -30.5t-24 -80.5v-481q0 -49 12 -59t78 -19v-41
h-291v41q66 9 78 19t12 59v457h-4l-286 -582h-17l-289 582h-4v-416q0 -60 20 -86t79 -33v-41h-242v41q58 7 76 32.5t18 86.5v463q-12 38 -47.5 63t-75.5 25v41z" />
    <glyph glyph-name="Omega" unicode="&#x2126;" horiz-adv-x="1239" 
d="M1098 236l-107 -236h-389l-2 29q14 18 81 98.5t105 130.5t94 132t94.5 163t61.5 162q41 143 41.5 252.5t-33.5 173t-87 94.5t-123 31q-75 0 -147 -32t-141 -96.5t-129 -174.5t-102 -256q-12 -40 -19 -82.5t-12 -76t-3.5 -78t1 -70t7.5 -72.5t10 -64t14 -65.5t14 -57
t16.5 -59t14.5 -51.5l-22 -31h-383l29 236l36 4q0 -90 19 -118t69 -28h189q-203 294 -109 623q51 179 156.5 316t237.5 208.5t270 71.5q215 0 306 -156t15 -426q-88 -304 -473 -637h191q56 0 86 24.5t86 121.5z" />
    <glyph glyph-name="estimated" unicode="&#x212e;" horiz-adv-x="1845" 
d="M1782 621h-1207q-10 0 -10 -9v-364q0 -21 17 -41q90 -93 208 -146t248 -53q141 0 265.5 59t214.5 162h108q-102 -119 -257.5 -188.5t-332.5 -69.5q-152 0 -289.5 53t-237 142.5t-158 213t-58.5 259.5q0 137 58.5 261t158 214.5t237 143.5t289.5 53q204 0 375.5 -90
t271 -244.5t99.5 -337.5v-18zM1509 670v366q0 25 -18 43q-91 89 -208 140t-245 51q-129 0 -246.5 -52.5t-207.5 -144.5q-19 -19 -19 -45v-358q0 -4 3 -8.5t7 -4.5h926q8 0 8 13z" />
    <glyph glyph-name="partialdiff" unicode="&#x2202;" horiz-adv-x="894" 
d="M528 788h2q67 0 123.5 -33.5t79.5 -101.5q48 128 68 197q48 149 39 301q-5 80 -55 142.5t-132 62.5q-120 0 -252 -92q-13 -2 -22 12.5t-8.5 37t12.5 40.5q130 76 258 76q114 0 178 -67t88 -196q33 -171 -41 -430q-85 -289 -217 -477q-203 -287 -420 -287
q-138 0 -192.5 100t-5.5 273q51 175 186 303q64 61 148 100t163 39zM539 725h-2q-123 0 -234 -111q-118 -130 -172 -327q-19 -70 -15.5 -128.5t37 -97t89.5 -38.5q130 0 270 196q57 80 96.5 158.5t91.5 202.5q-7 51 -50 98t-111 47z" />
    <glyph glyph-name="Delta" unicode="&#x2206;" horiz-adv-x="1075" 
d="M866 0h-950l10 35l805 1261l55 17l91 -1278zM743 72l-67 1042l-660 -1042h727z" />
    <glyph glyph-name="product" unicode="&#x220f;" horiz-adv-x="1372" 
d="M1325 1292v-41q-49 -3 -74.5 -7t-44.5 -9.5t-25.5 -19t-9 -28t-2.5 -44.5v-1141q0 -42 3.5 -62t20.5 -35.5t45 -20.5t83 -9v-39h-412v39q40 3 60 5t40 8t27.5 12.5t14 22t7.5 32t1 47.5v1184q0 36 -11 45.5t-49 9.5h-401q-37 0 -47 -8.5t-10 -40.5v-1190v-34t2 -25.5
t4.5 -21.5t10 -14.5t16 -12t24.5 -7.5t34 -7t46 -5v-39h-399v39q102 8 125.5 28t23.5 99v1141q0 37 -3 53.5t-20.5 29.5t-45.5 17t-87 8v41h1053z" />
    <glyph glyph-name="summation" unicode="&#x2211;" horiz-adv-x="1163" 
d="M1122 141l-71 -307h-775v35l398 676l-387 712v35h766q1 -15 4 -57.5t8 -108t8 -108.5l-41 -8q-20 123 -53 176q-15 33 -49.5 44t-130.5 11h-367l344 -623l-393 -679h461q42 0 64 1.5t46.5 9.5t37 19.5t29 38t29 59t31.5 87.5z" />
    <glyph glyph-name="minus" unicode="&#x2212;" horiz-adv-x="1216" 
d="M1139 465h-1033v106h1033v-106z" />
    <glyph glyph-name="uni2215" unicode="&#x2215;" horiz-adv-x="323" 
d="M-305 -18v2q0 5 35 55l882 1237q14 18 18.5 24t10.5 9.5t14 3.5h25q27 0 27 -13q0 -7 -35 -57l-883 -1237q-14 -18 -18.5 -24t-10.5 -9.5t-14 -3.5h-25q-26 0 -26 13z" />
    <glyph glyph-name="uni2219" unicode="&#x2219;" horiz-adv-x="473" 
d="M324 545v-2q0 -49 -23.5 -89t-64.5 -40q-30 0 -49 22t-19 56q0 51 23.5 91t66.5 40q29 0 47.5 -22t18.5 -56z" />
    <glyph glyph-name="radical" unicode="&#x221a;" horiz-adv-x="1175" 
d="M1139 1673l-279 -1933l-29 -19l-382 1029l-150 -72l-18 51l247 117l308 -852h4l239 1696z" />
    <glyph glyph-name="infinity" unicode="&#x221e;" horiz-adv-x="1409" 
d="M1323 541v-2q0 -120 -77 -195.5t-183 -75.5q-78 0 -148.5 47.5t-166.5 155.5q-42 -48 -71 -76.5t-71 -61.5t-87 -49t-95 -16q-105 0 -179.5 76t-74.5 188q0 117 74.5 193t191.5 76q88 0 162 -54t156 -151q86 96 124 128q94 78 197 77q110 0 179 -72t69 -188zM434 344h2
q23 0 45 5.5t45 18.5t39 23.5t39.5 33t34 33t35.5 37t31 33.5q-80 97 -116 129q-81 70 -165 70q-80 0 -126 -57.5t-46 -139.5q0 -79 51 -132.5t131 -53.5zM1067 727h-2q-33 0 -66 -13t-63.5 -37.5t-51.5 -45t-49.5 -52t-39.5 -42.5q100 -109 154.5 -151t119.5 -42
q78 0 125 57t47 131q0 90 -48.5 142.5t-125.5 52.5z" />
    <glyph glyph-name="integral" unicode="&#x222b;" horiz-adv-x="862" 
d="M514 45l-33 786q-8 133 -3 238t14 183.5t29 134.5t41 93t50 58.5t57 30t62 8.5t63 -19t29 -53q0 -30 -18 -46.5t-45 -16.5q-17 0 -29.5 10.5t-18.5 23t-17 23t-25 10.5q-13 0 -26 -8.5t-25.5 -31t-21.5 -57t-13.5 -93t-1.5 -133.5l32 -729q9 -147 3.5 -261t-14.5 -199
t-29 -145t-41 -98.5t-50 -60.5t-56 -30.5t-60 -8.5q-43 0 -69 21.5t-26 52.5q-1 29 20.5 49t53.5 20q15 0 26.5 -11t18 -23.5t17 -23.5t24.5 -11q43 0 66 87t16 230z" />
    <glyph glyph-name="approxequal" unicode="&#x2248;" horiz-adv-x="1013" 
d="M885 774l53 -43q-80 -164 -217 -164q-32 0 -65.5 10t-56 22t-73.5 40q-94 57 -155 57q-54 0 -92.5 -33.5t-73.5 -95.5l-55 43q37 76 98 120t133 44q23 0 45 -4t45 -13.5t35 -15.5t35.5 -20t27.5 -16q5 -3 23.5 -13.5t24 -13.5t20.5 -10.5t22.5 -10t20 -6.5t24 -5t23.5 -1
q49 0 85 31t73 98zM885 489l53 -45q-80 -163 -217 -163q-47 0 -85.5 15.5t-109.5 55.5q-38 22 -54 31t-45.5 19t-55.5 10q-54 0 -92.5 -34.5t-73.5 -96.5l-55 41q37 78 97.5 121.5t133.5 43.5q24 0 46.5 -4t44.5 -13.5t34.5 -16t35 -19.5t27.5 -16t20 -11.5t20 -11.5
t18 -9.5t20 -9t18.5 -7t20 -6.5t19.5 -3.5t22 -1.5q49 0 85 31.5t73 99.5z" />
    <glyph glyph-name="notequal" unicode="&#x2260;" horiz-adv-x="1056" 
d="M784 897l-75 -166h262v-82h-293l-115 -248h408v-82h-439l-90 -196l-63 29l76 167h-250v82h284l111 248h-395v82h426l90 195z" />
    <glyph glyph-name="lessequal" unicode="&#x2264;" horiz-adv-x="1097" 
d="M1006 197l-752 393v82l752 393v-98l-664 -332v-4l664 -336v-98zM1012 41h-766v84h766v-84z" />
    <glyph glyph-name="greaterequal" unicode="&#x2265;" horiz-adv-x="1095" 
d="M256 1065l752 -393v-82l-752 -393v98l664 334v4l-664 334v98zM1010 41h-762v84h762v-84z" />
    <glyph glyph-name="lozenge" unicode="&#x25ca;" horiz-adv-x="1189" 
d="M1102 629l-344 -750h-94l-347 750l347 753h94zM1012 629l-297 659h-6l-299 -657l299 -662h6z" />
    </font>
</defs>
</svg>
