<?xml version="1.0" standalone="no"?>
<!DOCTYPE svg PUBLIC "-//W3C//DTD SVG 1.1//EN" "http://www.w3.org/Graphics/SVG/1.1/DTD/svg11.dtd" >
<svg xmlns="http://www.w3.org/2000/svg" xmlns:xlink="http://www.w3.org/1999/xlink" version="1.1">
<metadata>
Created by FontForge 20170731 at Fri Nov 20 17:46:44 2020
 By Aleksey,,,
Copyright (c) 1994, 2001 Adobe Systems Incorporated.  All Rights Reserved.
</metadata>
<defs>
<font id="ITCGaramondStd-LtCond" horiz-adv-x="796" >
  <font-face 
    font-family="ITC Garamond Std Lt Cond"
    font-weight="300"
    font-stretch="condensed"
    units-per-em="2048"
    panose-1="2 2 4 6 6 5 6 2 3 4"
    ascent="1440"
    descent="-608"
    x-height="934"
    cap-height="1290"
    bbox="-315 -512 2044 1778"
    underline-thickness="102"
    underline-position="-307"
    unicode-range="U+0020-FB02"
  />
<missing-glyph horiz-adv-x="1024" 
d="M0 0v1434h1024v-1434h-1024zM512 809l348 522h-696zM573 717l349 -522v1044zM164 102h696l-348 523zM102 1239v-1044l349 522z" />
    <glyph glyph-name="fi" unicode="fi" horiz-adv-x="909" 
d="M481 856h-119q-53 0 -66 -10.5t-13 -42.5v-637q0 -66 19 -91t69 -34q46 -8 53 -18q4 -4 4 -11q0 -20 -33 -20q-13 0 -71 4t-99 4q-36 0 -84 -4t-57 -4q-51 0 -51 20q0 24 41 29q50 6 68 28.5t18 90.5v653q0 23 -12.5 32t-34.5 13q-16 3 -23.5 5t-15.5 8.5t-8 17.5
q0 7 2 12t7.5 9.5t9.5 7t13.5 7t14.5 7.5q45 27 47 92q4 102 38 184t89.5 134t125.5 80t148 28q71 0 137 -21t66 -53q0 -82 -13.5 -123t-45.5 -41q-7 0 -12.5 2.5t-10 8.5t-7.5 11.5t-6 15.5t-4.5 17.5t-4.5 20t-5 19.5q-11 44 -31 69t-65 25q-136 0 -206 -97t-70 -311
q0 -44 12 -55.5t59 -11.5h187q51 0 157 12q10 1 32.5 6.5t27.5 5.5q14 0 14 -22q0 -61 -2 -92v-691q0 -22 0.5 -32t4 -24.5t11 -22t21.5 -14.5t35 -11q30 -6 40.5 -11.5t10.5 -17.5q0 -11 -6.5 -15.5t-24.5 -4.5q-13 0 -65 4t-90 4t-91 -4t-63 -4q-25 0 -25 22t35 27
q56 9 70 24.5t14 69.5v572q0 86 -35.5 117.5t-130.5 31.5z" />
    <glyph glyph-name="fl" unicode="fl" horiz-adv-x="909" 
d="M160 160v653q0 23 -12.5 32t-34.5 13q-16 3 -23.5 5t-15.5 8.5t-8 17.5q0 7 2 12t7.5 9.5t9.5 7t13.5 7t14.5 7.5q45 27 47 92q4 108 37.5 192t87.5 134t118 75t134 25q39 0 69.5 -10t48 -20.5t25.5 -10.5t18 5t25 16.5t18 13.5q9 6 17 6q12 0 12 -20v-1319q0 -36 18 -48
t74 -22q39 -7 39 -25q0 -24 -22 -24q-6 0 -71 4t-97 4q-38 0 -92 -4t-66 -4q-9 0 -17 6t-8 18q0 9 10 16t23 9q53 7 69.5 25t16.5 61v1090q-14 1 -22 10t-11.5 20t-10 35t-13.5 43q-28 76 -105 76q-42 0 -75 -17.5t-54 -42t-35.5 -65.5t-22 -73t-11 -81t-4 -73t-0.5 -64
t7 -49.5t38 -9.5h141q20 0 25.5 -6.5t5.5 -28.5t-6 -28.5t-27 -6.5h-131q-34 0 -43.5 -9.5t-9.5 -43.5v-637q0 -66 19 -91t69 -34q46 -8 53 -18q4 -4 4 -11q0 -20 -33 -20q-13 0 -71 4t-99 4q-36 0 -84 -4t-57 -4q-51 0 -51 20q0 24 41 29q50 6 68 28.5t18 90.5z" />
    <glyph glyph-name=".notdef" horiz-adv-x="1024" 
d="M0 0v1434h1024v-1434h-1024zM512 809l348 522h-696zM573 717l349 -522v1044zM164 102h696l-348 523zM102 1239v-1044l349 522z" />
    <glyph glyph-name=".null" horiz-adv-x="0" 
 />
    <glyph glyph-name="nonmarkingreturn" horiz-adv-x="682" 
 />
    <glyph glyph-name="space" unicode=" " horiz-adv-x="397" 
 />
    <glyph glyph-name="exclam" unicode="!" horiz-adv-x="454" 
d="M227 315h-2q-12 0 -16 16.5t-6 63.5q-2 22 -6.5 94.5t-8.5 128.5q-41 544 -41 574q0 66 16 94.5t64 28.5t64 -28.5t16 -94.5q0 -30 -41 -574q-9 -147 -12 -206q-3 -58 -8.5 -77.5t-18.5 -19.5zM227 -25h-2q-35 0 -56.5 30.5t-21.5 68.5t22 68t58 30t58 -30t22 -68
t-22 -68.5t-58 -30.5z" />
    <glyph glyph-name="quotedbl" unicode="&#x22;" horiz-adv-x="681" 
d="M195 1315h2q29 0 43 -18t14 -66v-37q-8 -139 -29 -285q-3 -25 -8.5 -35t-21.5 -10t-22 10t-9 35q-24 158 -27 281q-2 16 -2 41q0 48 15 66t45 18zM487 1315h2q29 0 43.5 -18t14.5 -66v-37q-8 -139 -29 -285q-3 -25 -9 -35t-22 -10t-21.5 10t-8.5 35q-24 158 -27 281
q-2 16 -2 41q0 48 14.5 66t44.5 18z" />
    <glyph glyph-name="numbersign" unicode="#" 
d="M612 1077l68 193q8 23 14 31t17 8q26 0 26 -15q0 -14 -10 -34l-59 -170q0 -1 -5.5 -16t-5.5 -21q0 -8 7.5 -10.5t27.5 -2.5h94q30 0 36.5 -1.5t6.5 -10.5q0 -10 -16 -63q-5 -13 -9.5 -17t-17.5 -4h-149q-15 0 -19.5 -5.5t-15.5 -33.5l-51 -147q-10 -30 -10 -33
q0 -10 7 -12t32 -2h106q27 0 35 -2.5t8 -12.5q0 -9 -16 -59q-5 -14 -9.5 -18.5t-17.5 -4.5h-166q-15 0 -19 -4t-11 -25q0 -2 -0.5 -3t-1 -3t-1.5 -4l-73 -219q-7 -23 -13.5 -28.5t-23.5 -5.5q-21 0 -21 12q0 6 5 18.5t6 16.5l65 194q12 42 12 43q0 6 -7 7t-34 1h-176h-6.5
t-5.5 -0.5t-4 -1t-3 -2.5t-2.5 -3.5t-2 -5t-2.5 -6.5t-2.5 -9t-3.5 -11l-74 -219q-7 -23 -13.5 -28.5t-23.5 -5.5q-21 0 -21 12q0 6 5 18.5t6 16.5l65 194q1 5 4.5 14.5t6 17t2.5 11.5q0 6 -7 7t-34 1h-99q-24 0 -30.5 2t-6.5 11q0 8 19 63q5 12 9.5 16.5t14.5 4.5h162
q10 0 14 5.5t13 31.5l51 145q12 32 12 41q0 7 -7.5 8.5t-35.5 1.5h-110q-27 0 -33 1.5t-6 10.5q0 12 18 64q5 13 9.5 16.5t17.5 3.5h166q14 0 19 5.5t14 31.5l67 193q8 23 14 31t17 8q26 0 26 -15q0 -14 -10 -34l-59 -170q-1 -2 -3.5 -10t-4.5 -15.5t-2 -11.5q0 -9 7 -11
t27 -2h179q14 0 18.5 5.5t13.5 31.5zM289 709h180q12 0 17 6t12 30l51 148q12 32 12 39t-7.5 8.5t-33.5 1.5h-180q-10 0 -14.5 -6.5t-12.5 -30.5l-53 -147q-10 -30 -10 -35q0 -10 7 -12t32 -2z" />
    <glyph glyph-name="dollar" unicode="$" 
d="M545 1192l-43 -535q82 -73 128 -146.5t46 -162.5q0 -117 -55.5 -206.5t-165.5 -123.5l-23 -264q-2 -17 -6.5 -22.5t-17.5 -5.5q-28 0 -25 26l20 254q-37 -6 -67 -6q-27 0 -45 2l-19 -248q-2 -17 -6.5 -22.5t-17.5 -5.5q-28 0 -25 26l19 256q-83 11 -123 43
q-10 9 -14.5 21t-4.5 43q0 133 2 184q2 70 31 70q10 0 16 -6.5t16 -38.5t21 -95q16 -106 62 -147l45 561q-76 66 -118 136.5t-42 166.5q0 112 55 202t154 126l14 190q2 17 7 23t18 6q28 0 25 -27l-15 -180q33 4 58 4q28 0 53 -2l14 176q2 17 7 23t18 6q27 0 24 -27l-14 -188
q27 -4 78 -27q43 -21 54 -34t11 -46q0 -73 -10 -178q-3 -34 -10.5 -46.5t-22.5 -12.5q-4 0 -7.5 1.5t-6.5 5t-5 8t-5 12.5t-5 16.5t-5 22t-6 26.5l-7.5 32.5t-9.5 37.5q-15 62 -49 96zM457 698l41 527q-25 14 -58 14q-32 0 -53 -6l-35 -442q18 -17 56 -49t49 -44zM307 838
l31 379q-109 -55 -109 -203q0 -91 78 -176zM338 604l-43 -547q15 -6 39 -6q38 0 74 10l34 447q-50 50 -104 96zM487 461l-28 -379q102 55 102 194q0 94 -74 185z" />
    <glyph glyph-name="percent" unicode="%" horiz-adv-x="1138" 
d="M121 -23v3q0 7 26 49l797 1265q15 21 35 21h20q21 0 21 -10q0 -9 -27 -52l-796 -1265q-15 -21 -35 -21h-21q-20 0 -20 10zM287 717h2q57 0 93 71.5t36 210.5t-36.5 211t-94.5 72t-94.5 -72t-36.5 -211t36.5 -210.5t94.5 -71.5zM852 0h2q57 0 93 72t36 211t-36.5 210.5
t-94.5 71.5t-94.5 -71.5t-36.5 -210.5t36.5 -211t94.5 -72zM287 684h-2q-108 0 -178 95.5t-70 219.5q0 125 70.5 220.5t179.5 95.5t179.5 -95.5t70.5 -220.5q0 -80 -30 -151.5t-88.5 -117.5t-131.5 -46zM852 -33h-2q-108 0 -178 96t-70 220q0 80 30 151.5t88.5 117.5
t131.5 46t131.5 -46t88.5 -117.5t30 -151.5q0 -125 -70.5 -220.5t-179.5 -95.5z" />
    <glyph glyph-name="ampersand" unicode="&#x26;" horiz-adv-x="1138" 
d="M209 1051v2q0 119 83.5 190.5t203.5 71.5q127 0 202.5 -67.5t75.5 -168.5q0 -35 -11 -67t-24 -53t-42 -46t-46 -37t-55 -36.5t-53 -34.5q-51 -33 -51 -43q0 -8 22 -37q28 -37 61 -84t73 -106t63 -91q35 -53 47 -53q15 0 67 114t52 148q0 29 -15 40.5t-41 15.5q-3 1 -13 2
t-13.5 1.5t-10.5 2.5t-10 5t-5.5 7.5t-2.5 11.5q0 27 37 27q19 0 68 -4t73 -4q20 0 75.5 4t61.5 4q20 0 26.5 -7t6.5 -22q0 -13 -14 -19t-39.5 -10t-36.5 -8q-22 -8 -38.5 -24.5t-25.5 -32t-30 -55.5q-43 -85 -101 -180q-2 -3 -10 -15.5t-12 -19.5t-8 -17t-4 -16
q0 -15 22 -51q20 -33 86 -115q50 -63 81 -90t75 -35q59 -11 68 -19q6 -6 6 -16q0 -14 -8.5 -18t-34.5 -4q-12 0 -66.5 4t-110.5 4q-82 0 -129.5 -4t-50.5 -4q-28 0 -28 24q0 25 49 29t49 29q0 20 -39 78.5t-51 58.5q-10 0 -20.5 -11t-29.5 -37t-34 -44q-115 -131 -269 -131
q-153 0 -242 95.5t-89 250.5q0 202 180 321q26 17 61 36.5t50.5 30t15.5 17.5q0 10 -20 39t-43.5 63.5t-43.5 92.5t-20 117zM487 1266h-2q-68 0 -110.5 -51.5t-42.5 -127.5q0 -58 29.5 -126.5t59 -109t38.5 -40.5q5 0 24.5 9t48 30t55 49t45.5 71.5t19 92.5q0 91 -40 147
t-124 56zM152 385v-2q0 -52 16.5 -105.5t47 -99.5t81.5 -75t113 -29q45 0 88.5 18.5t73.5 44.5t53.5 54.5t35 48.5t11.5 26q0 10 -55.5 88t-123.5 170.5t-81 112.5q-34 51 -50 51q-5 0 -26 -10t-52.5 -34.5t-60.5 -57.5t-50 -86.5t-21 -114.5z" />
    <glyph glyph-name="quotesingle" unicode="'" horiz-adv-x="454" 
d="M227 1315h2q29 0 43.5 -18t14.5 -66v-37q-8 -139 -29 -285q-3 -25 -9 -35t-22 -10t-21.5 10t-8.5 35q-24 158 -27 281q-2 16 -2 41q0 48 14.5 66t44.5 18z" />
    <glyph glyph-name="parenleft" unicode="(" horiz-adv-x="681" 
d="M184 573v2q0 111 23.5 218.5t61.5 192t85 160.5t95 130.5t91.5 94.5t74 59.5t42.5 19.5q17 0 17 -14q0 -6 -9 -15.5t-27 -24t-22 -18.5q-292 -263 -292 -805q0 -541 292 -804q4 -4 22 -18.5t27 -24t9 -15.5q0 -14 -17 -14q-12 0 -42.5 19.5t-74 59.5t-91.5 94.5
t-95 130.5t-85 160.5t-61.5 192.5t-23.5 219z" />
    <glyph glyph-name="parenright" unicode=")" horiz-adv-x="681" 
d="M498 573v-2q0 -98 -18 -193t-48.5 -172t-69.5 -149t-81.5 -126.5t-83.5 -99.5t-76.5 -74t-60.5 -44.5t-35 -15.5q-17 0 -17 14q0 6 9 15.5t27 24t22 18.5q292 263 292 804q0 542 -292 805q-4 4 -22 18.5t-27 24t-9 15.5q0 14 17 14q12 0 42.5 -19.5t74 -59.5t91.5 -94.5
t95 -130.5t85 -161t61.5 -193t23.5 -219z" />
    <glyph glyph-name="asterisk" unicode="*" 
d="M399 641h-2q-33 0 -54 19t-21 55q0 37 32.5 118.5t32.5 92.5q0 20 -18 20q-4 0 -8.5 -1.5t-9.5 -4.5t-9 -6t-9 -9t-9 -10.5t-10 -12.5t-10 -13t-10.5 -14.5t-10.5 -14.5q-23 -27 -37 -41.5t-36.5 -28.5t-43.5 -14q-29 0 -50.5 22t-21.5 50q0 72 135 88q10 1 28 3t27.5 3
t24 3.5t22.5 5t16 6t11.5 9t3.5 11.5q0 19 -28.5 27t-83.5 14q-14 1 -21 2q-62 7 -98.5 26t-36.5 62q0 28 21.5 50t50.5 22q52 0 115 -86q8 -9 19.5 -24t19 -23.5t16.5 -18t17 -14t16 -4.5q18 0 18 20q0 11 -32.5 92.5t-32.5 120.5q0 34 21 53t56 19t56.5 -19t21.5 -55
q0 -37 -32.5 -118.5t-32.5 -92.5q0 -20 18 -20q16 0 34.5 19.5t43.5 54.5q5 8 8 12q61 84 117 84q29 0 50.5 -22t21.5 -50q0 -74 -136 -90q-11 -1 -28 -3t-27.5 -3t-24 -3t-22 -4.5t-16.5 -6t-11.5 -9t-3.5 -12.5q0 -6 3.5 -11.5t11.5 -9t16 -6t22.5 -5t24 -3.5t27.5 -3
t28 -3q136 -16 136 -88q0 -28 -21.5 -50t-50.5 -22q-47 0 -115 84q-29 42 -49.5 64t-38.5 22t-18 -20q0 -11 32.5 -93t32.5 -122q0 -33 -21.5 -51.5t-56.5 -18.5z" />
    <glyph glyph-name="plus" unicode="+" horiz-adv-x="1228" 
d="M563 569v467h103v-467h464v-102h-464v-467h-103v467h-465v102h465z" />
    <glyph glyph-name="comma" unicode="," horiz-adv-x="397" 
d="M190 172h3q38 0 63 -26.5t33 -59.5t8 -72q0 -112 -90 -256q-45 -73 -60 -89.5t-32 -16.5q-15 0 -15 18q0 7 8.5 21t26.5 39.5t29 44.5q55 89 55 176q0 8 -2.5 14t-5.5 9.5t-10 7t-11 5t-14.5 5l-13.5 4.5q-25 9 -39 27t-14 57q0 38 21.5 65t59.5 27z" />
    <glyph glyph-name="hyphen" unicode="-" horiz-adv-x="569" 
d="M113 512h379q28 0 28 -10q0 -9 -31 -68q-10 -20 -26 -20h-387q-27 0 -27 10q0 5 29 65q4 10 6 13t9 6.5t20 3.5z" />
    <glyph glyph-name="period" unicode="." horiz-adv-x="397" 
d="M119 74v2q0 37 22 66.5t58 29.5t58 -30t22 -68t-22 -68.5t-58 -30.5t-58 30.5t-22 68.5z" />
    <glyph glyph-name="slash" unicode="/" horiz-adv-x="569" 
d="M-72 -303h-30q-17 0 -17 8q0 3 21 55l653 1663q6 16 11.5 21.5t15.5 5.5h39q16 0 16 -8q0 -9 -21 -56l-653 -1662q-6 -17 -13 -22t-22 -5z" />
    <glyph glyph-name="zero" unicode="0" 
d="M45 641v2q0 137 22 251.5t57.5 191t82 129.5t94.5 76.5t96 23.5t96 -23.5t94.5 -77t82.5 -129.5t58 -191t22 -253t-22 -253t-58 -191t-82.5 -129.5t-94.5 -77t-96 -23.5t-96 23.5t-94.5 77t-82 129.5t-57.5 191t-22 253zM193 641v-2q0 -333 48 -478t156 -145t156.5 145.5
t48.5 479.5t-48.5 479.5t-156.5 145.5t-156 -145t-48 -480z" />
    <glyph glyph-name="one" unicode="1" 
d="M362 221v901q0 62 -26 62q-20 0 -80 -27q-12 -5 -29.5 -13.5t-28 -13t-14.5 -4.5q-8 0 -14 7t-6 16q0 11 41 37q48 31 125.5 71t115.5 54q16 4 19 4q12 0 16 -7t4 -26v-1116q0 -69 20 -90t83 -27q42 -5 58 -11t16 -18q0 -18 -10 -23t-38 -5q-6 0 -63 4t-135 4
q-76 0 -122.5 -4t-47.5 -4q-30 0 -40.5 5t-10.5 19q0 16 11.5 23t53.5 10q71 4 86.5 31t15.5 141z" />
    <glyph glyph-name="two" unicode="2" 
d="M688 995v-2q0 -44 -12.5 -92t-29 -86t-47 -88t-51.5 -79.5t-58 -80.5t-52 -73q-22 -31 -89.5 -122t-100.5 -143q-49 -79 -49 -90q0 -16 59 -16q147 0 213 10q81 12 121 47.5t55 114.5q13 69 17 76q7 10 18 10q20 0 20 -64v-278q0 -29 -6.5 -38t-25.5 -9l-70 4
q-58 4 -84 4h-420q-8 0 -14 7t-6 18q0 7 7 21.5t14.5 27t18.5 29t13 20.5q29 45 88.5 136t89.5 136q135 208 184.5 339.5t49.5 256.5t-50 189.5t-143 64.5q-54 0 -97.5 -27.5t-68.5 -69.5t-38 -86.5t-13 -84.5q0 -37 -29 -37q-20 0 -20 35q0 63 19.5 122.5t56.5 108.5
t97.5 79t135.5 30q141 0 219 -84t78 -236z" />
    <glyph glyph-name="three" unicode="3" 
d="M719 322v-3q0 -73 -19.5 -148t-58.5 -144t-92.5 -122.5t-126.5 -85.5t-154 -32q-97 0 -152 41t-55 98q0 36 19 57t45 21q21 0 35 -7t23 -23t12.5 -27t9.5 -35l1.5 -4.5t0.5 -3.5q10 -42 31.5 -55t68.5 -13q117 0 197 119t80 291q0 181 -77 283t-192 102q-36 0 -71.5 -15
t-46.5 -24t-41 -33q-22 -18 -33 -18q-17 0 -17 20t21 41q103 103 125 123q9 8 39 35.5t39.5 37l34.5 34.5t34.5 38t28 37t26 42.5t17 43t13 50t3.5 53.5q0 149 -133 149q-54 0 -99.5 -36t-72.5 -95q-10 -22 -19 -51t-15 -42t-15 -13q-20 0 -20 28q0 18 7.5 48t28.5 71t52 76
t83.5 59.5t116.5 24.5q102 0 168 -51t66 -148q0 -127 -135 -244q-30 -26 -60 -50t-56.5 -44.5t-35.5 -27.5q-4 -3 -9.5 -7t-8 -6.5t-6.5 -5.5l-6 -4.5t-4 -4t-2.5 -4t-0.5 -3.5q0 -8 8 -8q4 0 30.5 5t49.5 5q132 0 226 -107t94 -288z" />
    <glyph glyph-name="four" unicode="4" 
d="M737 430h-98q-18 0 -24.5 -6.5t-6.5 -28.5v-217q0 -78 14.5 -101.5t67.5 -29.5q38 -4 50 -11t12 -20q0 -14 -10.5 -19t-36.5 -5q-6 0 -71.5 4t-96.5 4q-49 0 -104 -4t-66 -4q-35 0 -35 26q0 15 17.5 21t74.5 12q36 3 48.5 25.5t12.5 97.5v225q0 20 -6 25.5t-24 5.5h-299
h-82q-39 0 -39 27q0 40 3.5 53.5t18.5 42.5q80 145 241 434t241 434q4 8 9 17t8.5 14.5t7 12t5.5 10t4.5 7.5t4 6t3.5 4t3.5 2.5t3.5 0.5h35q14 0 6 -14q-6 -13 -19.5 -36t-19.5 -36q-210 -381 -434 -778q-45 -80 -45 -115q0 -16 22 -16h322q18 0 24 6t6 26v426q0 11 4 16
t17 9q72 27 88 27q14 0 14 -29v-449q0 -20 6.5 -26t24.5 -6h96q15 0 20 -5.5t5 -23.5q0 -26 -4.5 -33.5t-18.5 -7.5z" />
    <glyph glyph-name="five" unicode="5" 
d="M700 393v-2q0 -247 -221 -411q-83 -62 -185.5 -97t-164.5 -35q-23 0 -23 21q0 20 68 33q180 34 293 153q111 117 111 291q0 183 -132 270q-109 72 -307 72q-28 0 -28 25q0 21 8 57q17 78 56.5 231.5t57.5 231.5q5 22 10.5 33.5t9.5 14t13 3.5q110 14 422 14q21 0 21 -12
q0 -26 -27 -104q-1 -5 -3.5 -7.5t-13.5 -4.5t-32 -3q-90 -4 -303 -4q-36 0 -52.5 -16t-27.5 -57q-62 -245 -62 -248q0 -29 48 -31q215 -10 331 -106q133 -110 133 -312z" />
    <glyph glyph-name="six" unicode="6" 
d="M743 434v-2q0 -203 -92 -334t-231 -131q-103 0 -188 85.5t-131 222t-46 290.5q0 237 75.5 436.5t213.5 350.5q86 93 196.5 151t155.5 58q27 0 27 -21q0 -8 -11.5 -15t-43 -18t-37.5 -14q-88 -37 -162.5 -107t-135.5 -177t-95.5 -264t-34.5 -347q0 -287 67 -434.5
t160 -147.5q86 0 132 100t46 273q0 182 -61 292t-125 110q-31 0 -54 -13.5t-33.5 -29.5t-22 -29.5t-21.5 -13.5q-19 0 -19 20q0 12 12 33t33 43.5t58 38.5t80 16q59 0 109 -29.5t82 -75.5t55 -103.5t32.5 -111.5t9.5 -102z" />
    <glyph glyph-name="seven" unicode="7" 
d="M752 1276v-2q0 -8 -11 -33q-113 -257 -301 -868q-60 -194 -118 -398q-21 -83 -31 -95q-7 -9 -17 -9h-36q-7 0 -12 5t-5 11q0 4 5.5 21t16 49t17.5 53q148 458 320 1018q18 60 18 102q0 11 -7.5 15.5t-31 7t-74.5 2.5h-247q-45 0 -77.5 -5t-45.5 -10.5t-24.5 -10.5
t-18.5 -5q-11 0 -11 62q0 29 5 69q3 22 11 28.5t21 6.5q4 0 38.5 -2t110 -4t177.5 -2q76 0 184 4t125 4q19 0 19 -14z" />
    <glyph glyph-name="eight" unicode="8" 
d="M418 1315h2q140 0 226.5 -90.5t86.5 -216.5q0 -39 -14.5 -75t-33.5 -61t-50.5 -52t-50.5 -40t-49 -32q-48 -30 -48 -41q0 -6 3 -9t13.5 -8.5t24.5 -12.5t43 -25.5t62 -43.5q71 -54 100 -116t29 -148q0 -160 -108 -268.5t-263 -108.5q-80 0 -149.5 29t-114 75t-69.5 100.5
t-25 107.5q0 27 3.5 51t8 43.5t14.5 39t18 33.5t24 31.5t26 28t31 28t33 26t37 27.5t38 29q41 32 41 39q0 6 -9 12t-39 26.5t-66 51.5q-46 40 -78.5 104.5t-32.5 133.5q0 145 94.5 238.5t241.5 93.5zM430 737h2q6 0 24.5 11t45 35t50.5 54.5t41 75.5t17 93
q0 113 -49.5 186.5t-154.5 73.5q-95 0 -148 -65t-53 -161q0 -80 29 -131t96 -108q73 -64 100 -64zM403 16h3q104 0 168.5 78t64.5 201q0 77 -27.5 127.5t-87.5 95.5q-136 105 -164 105q-16 0 -49 -26t-68 -67t-61 -102t-26 -121q0 -128 62.5 -209.5t184.5 -81.5z" />
    <glyph glyph-name="nine" unicode="9" 
d="M53 848v2q0 203 92.5 334t231.5 131q103 0 187.5 -85.5t130.5 -222t46 -290.5q0 -237 -75.5 -437t-212.5 -350q-86 -94 -196.5 -151.5t-160.5 -57.5q-22 0 -22 19q0 20 24 27q77 22 147 67.5t134.5 122t111.5 177.5t75 242.5t28 307.5q0 287 -67 434.5t-160 147.5
q-86 0 -132.5 -100.5t-46.5 -272.5q0 -181 61 -291t124 -110q31 0 54.5 13.5t34 29.5t22.5 29.5t22 13.5q8 0 13 -7.5t5 -17.5q0 -29 -51.5 -78t-126.5 -49q-76 0 -135.5 44t-92 111.5t-49 136.5t-16.5 130z" />
    <glyph glyph-name="colon" unicode=":" horiz-adv-x="397" 
d="M199 680h-2q-35 0 -56.5 30t-21.5 68t22 68.5t58 30.5t58 -30.5t22 -68.5t-22 -68t-58 -30zM199 -25h-2q-35 0 -56.5 30.5t-21.5 68.5t22 68t58 30t58 -30t22 -68t-22 -68.5t-58 -30.5z" />
    <glyph glyph-name="semicolon" unicode=";" horiz-adv-x="397" 
d="M199 680h-2q-35 0 -56.5 30t-21.5 68t22 68.5t58 30.5t58 -30.5t22 -68.5t-22 -68t-58 -30zM190 172h3q38 0 63 -26.5t33 -59.5t8 -72q0 -112 -90 -256q-45 -73 -60 -89.5t-32 -16.5q-15 0 -15 18q0 7 8.5 21t26.5 39.5t29 44.5q55 89 55 176q0 8 -2.5 14t-5.5 9.5t-10 7
t-11 5t-14.5 5l-13.5 4.5q-25 9 -39 27t-14 57q0 38 21.5 65t59.5 27z" />
    <glyph glyph-name="less" unicode="&#x3c;" horiz-adv-x="1228" 
d="M1135 96v-112l-1041 479v110l1041 480v-113l-914 -422z" />
    <glyph glyph-name="equal" unicode="=" horiz-adv-x="1228" 
d="M1130 768v-102h-1032v102h1032zM1130 371v-103h-1032v103h1032z" />
    <glyph glyph-name="greater" unicode="&#x3e;" horiz-adv-x="1228" 
d="M94 96l914 422l-914 422v113l1041 -480v-110l-1041 -479v112z" />
    <glyph glyph-name="question" unicode="?" horiz-adv-x="569" 
d="M113 1184v2q0 37 2 53q6 44 36.5 60t110.5 16q112 0 193.5 -94.5t81.5 -245.5q0 -95 -28.5 -160t-88.5 -137q-5 -6 -37 -43.5t-53.5 -64.5t-42.5 -58q-24 -33 -28.5 -44t-4.5 -40q0 -49 -1 -74.5t-4.5 -39t-7 -16.5t-12.5 -3q-11 0 -17.5 10t-10.5 37q-8 47 -8 199
q0 65 6 84t28 43q112 120 165.5 206.5t53.5 169.5q0 92 -38 152.5t-89 60.5q-36 0 -58.5 -30.5t-41.5 -81.5l-6 -18l-6 -18l-5.5 -16.5t-6 -16t-6 -13t-7 -11.5t-7.5 -8.5t-8 -6t-9 -1.5q-28 0 -36.5 27t-8.5 121zM227 -25h-2q-35 0 -56.5 30.5t-21.5 68.5t22 68t58 30
t58 -30t22 -68t-22 -68.5t-58 -30.5z" />
    <glyph glyph-name="at" unicode="@" horiz-adv-x="1638" 
d="M1221 961l-127 -494q-9 -34 -9 -51q0 -84 80 -84q62 0 114 39t84.5 99.5t50.5 130.5t18 136q0 95 -38 187t-108.5 166.5t-182.5 120.5t-247 46q-162 0 -292.5 -81t-204.5 -226t-74 -327q0 -123 41 -230.5t116 -187.5t190.5 -126t256.5 -46q32 0 63 2.5t53 5t50.5 10
t42.5 11t43.5 15t38 15t42 18t40.5 17.5l26 -55q-116 -50 -212 -77.5t-199 -27.5q-148 0 -272.5 39t-208.5 103.5t-143 149t-85.5 174t-26.5 179.5q0 205 97 367t259.5 249t358.5 87q282 0 461.5 -163.5t179.5 -414.5q0 -76 -24.5 -156t-68.5 -149t-115 -113.5t-154 -44.5
q-36 0 -67.5 12t-50.5 29.5t-32.5 37.5t-19 35.5t-4.5 23.5h-5q-13 -18 -31 -37t-47.5 -44t-68.5 -41t-78 -16q-188 0 -188 244q0 42 14.5 99t46 121.5t75 118.5t109 90t140.5 36q33 0 56.5 -7.5t40.5 -26.5t23.5 -29t20.5 -37l21 78h131zM678 512v-2q0 -81 35.5 -119.5
t91.5 -38.5q68 0 143 117.5t94 312.5q0 59 -22.5 91t-65.5 32q-38 0 -84.5 -27.5t-90 -76t-72.5 -125.5t-29 -164z" />
    <glyph glyph-name="A" unicode="A" 
d="M483 455h-235q-26 0 -38 -17.5t-30 -89.5q-53 -219 -53 -250q0 -22 12 -36t47 -19q5 -1 15.5 -2.5t15 -2t11.5 -2t10.5 -3.5t7 -4.5t5 -6t1.5 -8.5q0 -22 -35 -22q-16 0 -58 4t-67 4t-52 -2t-44 -4t-19 -2q-22 0 -22 22q0 20 27 27q47 10 57 43q120 386 299 1102
q16 65 16 67q4 21 7 32t10.5 20.5t19.5 9.5q16 0 22 -10t13 -39q53 -190 159.5 -572t159.5 -573q18 -68 52 -80q4 -1 16 -4.5t17.5 -5t13.5 -5t11 -8t3 -10.5q0 -16 -43 -16q-22 0 -61.5 4t-63.5 4q-28 0 -77.5 -4t-67.5 -4q-35 0 -35 22q0 27 53 27q25 0 39 10.5t14 40.5
q0 11 -65 260q-18 66 -29.5 84.5t-38.5 18.5zM270 504h189q27 0 34 3.5t7 12.5q0 14 -8 45q-5 19 -22 77t-39 138.5t-44 167.5q-10 41 -29 41q-10 0 -14.5 -10.5t-15.5 -56.5q-79 -322 -80 -324q-19 -77 -19 -80q0 -5 2 -7.5t11.5 -4.5t27.5 -2z" />
    <glyph glyph-name="B" unicode="B" horiz-adv-x="909" 
d="M156 127v999q0 49 -18.5 71.5t-67.5 23.5q-27 0 -33 4q-8 3 -8 14q0 19 71 39q130 37 273 37q200 0 309 -74q113 -77 113 -227q0 -106 -68 -177.5t-180 -109.5v-4q59 -11 92 -25q100 -37 160.5 -118t60.5 -211q0 -179 -100 -279q-98 -98 -281 -98q-38 0 -112.5 4
t-112.5 4q-37 0 -94.5 -4t-71.5 -4q-43 0 -43 26q0 10 9 15.5t29.5 9.5t25.5 6q30 9 38.5 24.5t8.5 53.5zM291 1190v-422q0 -18 10.5 -22.5t46.5 -4.5q104 0 172 31q123 55 123 238q0 116 -54.5 186t-162.5 70q-78 0 -106.5 -17t-28.5 -59zM291 674v-496q0 -68 33.5 -102.5
t113.5 -34.5q152 0 219 113q52 85 52 233q0 123 -58 203q-76 102 -229 102q-88 0 -108 -3t-23 -15z" />
    <glyph glyph-name="C" unicode="C" horiz-adv-x="909" 
d="M844 352l-2 -258q0 -28 -5.5 -40t-21.5 -23q-30 -26 -108 -45t-150 -19q-217 0 -356.5 181t-139.5 491q0 305 135.5 490.5t358.5 185.5q82 0 154 -21.5t96 -40.5q14 -14 16 -59q2 -31 2 -164q0 -70 -2.5 -83t-15.5 -13q-14 0 -22 15t-31 85q-75 232 -226 232
q-42 0 -82.5 -19t-80.5 -65t-70.5 -113t-49 -171.5t-18.5 -233.5q0 -141 18 -253.5t48.5 -185.5t72 -121t86.5 -68t95 -20q174 0 227 260q22 112 25 120q6 14 16 14q11 0 16.5 -2.5t10 -16t4.5 -39.5z" />
    <glyph glyph-name="D" unicode="D" horiz-adv-x="1024" 
d="M172 160v989q0 31 -11 45t-40 20q-40 6 -55 7q-21 2 -29 5t-8 13q0 13 9.5 18t57.5 21q110 37 314 37q249 0 399 -176q154 -178 154 -467q0 -325 -133 -502.5t-394 -177.5q-28 0 -99.5 4t-119.5 4q-41 0 -90.5 -4t-58.5 -4q-39 0 -39 24q0 16 11 21.5t54 11.5
q44 7 61 32.5t17 78.5zM307 1155v-971q0 -143 133 -143q186 0 275 133q96 143 96 473q0 167 -29.5 289.5t-83 193t-120 103.5t-148.5 33q-74 0 -98.5 -25t-24.5 -86z" />
    <glyph glyph-name="E" unicode="E" horiz-adv-x="909" 
d="M172 160v1005q0 33 -9 48t-30 20q-12 3 -27 5.5t-23 3.5t-15.5 4t-11 7.5t-3.5 12.5q0 24 51 24q8 0 109 -4t203 -4q120 0 231 4t113 4q33 0 40 -13t7 -75q0 -58 -1 -121.5t-1 -72.5q0 -30 -5.5 -38.5t-17.5 -8.5q-15 0 -26 32q-6 18 -21 58q-40 105 -106.5 147.5
t-190.5 42.5q-64 0 -100 -8q-31 -7 -31 -47v-441q0 -25 13 -30.5t75 -5.5q101 0 142.5 18.5t58.5 71.5q6 17 13 41q10 31 14 38t14 7t13 -8.5t3 -32.5q0 -28 -4 -82t-4 -80q0 -31 4 -98.5t4 -96.5q0 -30 -18 -30q-10 0 -17 13.5t-16 51.5q-21 81 -55 109t-119 28
q-60 0 -85.5 -4t-30.5 -10t-5 -22v-441q0 -72 43.5 -106.5t138.5 -34.5q73 0 122 13.5t81.5 47t51.5 76t38 113.5q11 44 18.5 56.5t18.5 12.5q8 0 12 -3.5t5 -14.5q4 -40 4 -188v-101q0 -22 -4 -35t-14 -18.5t-18 -6.5t-24 -1q-60 0 -200.5 4t-202.5 4q-45 0 -136.5 -4
t-136.5 -4q-35 0 -49 5t-14 21q0 13 12 19.5t41 11.5q47 7 62.5 29.5t15.5 81.5z" />
    <glyph glyph-name="F" unicode="F" 
d="M307 602v-418q0 -75 21.5 -102t77.5 -33q55 -6 72.5 -12t17.5 -19q0 -14 -8.5 -20t-30.5 -6q-6 0 -67.5 4t-141.5 4q-76 0 -127.5 -4t-52.5 -4q-22 0 -30.5 5t-8.5 23q0 13 8.5 18.5t34.5 10.5q66 12 83 30.5t17 78.5v975q0 52 -13 73.5t-44 26.5q-72 11 -79 16
q-7 6 -7 17q0 14 10.5 19t34.5 5t126.5 -4t157.5 -4q65 0 171.5 4t168.5 4h29t19 -4.5t12.5 -9t6 -20t3.5 -30v-46.5q0 -135 -2 -166q-3 -34 -6 -41.5t-12 -7.5q-12 0 -19 10t-10.5 25.5t-13 45.5t-23.5 58q-36 72 -98 104.5t-174 32.5q-62 0 -82.5 -10.5t-20.5 -38.5v-459
q0 -22 11.5 -27.5t58.5 -5.5q101 0 142.5 19.5t58.5 75.5q5 15 11 38q10 34 14.5 42t14.5 8t13.5 -10t3.5 -37q0 -15 -4 -66.5t-4 -95.5q0 -31 4 -98.5t4 -96.5q0 -30 -19 -30q-10 0 -16.5 13.5t-15.5 51.5q-21 81 -55.5 109t-120.5 28q-70 0 -85.5 -8.5t-15.5 -40.5z" />
    <glyph glyph-name="G" unicode="G" horiz-adv-x="1024" 
d="M868 459v-369q0 -16 -10 -33q-12 -22 -43 -37q-88 -53 -246 -53q-100 0 -191.5 44.5t-162 126t-112.5 205t-42 271.5q0 130 30.5 244t82.5 196t120 142t143.5 89.5t152.5 29.5q187 0 258 -58q16 -13 16 -131q0 -102 -2 -127q-3 -33 -8 -41t-18 -8t-22.5 17.5t-31.5 74.5
q-46 124 -89 174t-120 50q-96 0 -177 -88t-126 -228t-45 -295q0 -304 99.5 -471.5t265.5 -167.5q94 0 125 58q18 37 18 104v252q0 56 -6 81.5t-17.5 34t-39.5 11.5q-62 6 -71 11q-13 9 -13 26q0 20 39 20q164 -8 170 -8q48 0 95.5 4t55.5 4q35 0 35 -18q0 -12 -4.5 -17.5
t-11 -7.5t-23.5 -5.5t-33 -8.5q-25 -8 -33 -24.5t-8 -73.5z" />
    <glyph glyph-name="H" unicode="H" horiz-adv-x="1024" 
d="M723 655h-422q-16 0 -16 -24v-496q0 -76 57 -86q4 -1 13 -2.5t13 -2.5t11 -2.5t10 -3.5t7 -5t5.5 -6.5t1.5 -8.5q0 -13 -7.5 -19.5t-30.5 -6.5q-5 0 -42 4t-106 4q-67 0 -109 -4t-49 -4q-30 0 -30 31q0 18 26 24q62 13 78.5 30t16.5 62v1022q0 38 -6.5 52.5t-24.5 19.5
t-35.5 8t-26 4t-15.5 3t-9 6t-2 12q0 24 41 24q12 0 63 -4t80 -4q32 0 79.5 4t63.5 4q24 0 32.5 -5.5t8.5 -18.5q0 -6 -1 -10.5t-4 -7.5t-5.5 -5t-9.5 -3.5t-11 -2.5t-14 -2t-16 -2q-53 -7 -53 -55v-443q0 -22 18 -22h420q10 0 13 5t3 21v410q0 42 -9 61t-36 23
q-7 1 -15.5 2.5t-14 2t-12 2t-10.5 2.5t-8.5 2.5t-7 3t-4.5 4t-3 5.5t-1 7q0 26 48 26q16 0 59.5 -4t87.5 -4q58 0 99.5 4t52.5 4q30 0 30 -18q0 -29 -77 -39q-20 -3 -32 -14t-12 -25v-1059q0 -71 35 -86q14 -6 36.5 -10t33 -9t10.5 -16q0 -22 -33 -22q-10 0 -56 4t-91 4
q-54 0 -89 -4t-42 -4q-34 0 -44.5 5.5t-10.5 22.5q0 11 11 16.5t48 12.5q34 7 45.5 24.5t11.5 59.5v502q0 20 -16 20z" />
    <glyph glyph-name="I" unicode="I" horiz-adv-x="569" 
d="M352 1159v-1003q0 -47 13.5 -73t52.5 -34q5 -1 22.5 -4t24 -5t17 -6t14.5 -10t4 -14q0 -18 -45 -18q-4 0 -18 2t-52 4t-100 2t-99.5 -2t-51.5 -4t-19 -2q-16 0 -22 0.5t-11.5 5.5t-5.5 16q0 7 3.5 12t12.5 9t15 5.5t21.5 4.5t21.5 4q45 10 56 26t11 70v1014
q0 40 -12.5 54.5t-44.5 19.5q-12 2 -26 3.5t-21 2t-15 2t-11.5 3t-7 4.5t-4.5 7t-1 11q0 24 43 24q25 0 81 -4t87 -4q34 0 94 4t80 4q45 0 45 -26q0 -5 -1.5 -9t-5.5 -6.5t-8 -4t-13 -3t-16.5 -2.5t-22.5 -2.5t-27 -3.5q-58 -8 -58 -74z" />
    <glyph glyph-name="J" unicode="J" horiz-adv-x="454" 
d="M307 1047v-879q0 -140 -23 -231t-91 -191q-50 -73 -112.5 -112.5t-129.5 -39.5q-60 0 -89.5 32.5t-29.5 78.5q0 39 22 62.5t58 23.5q32 0 47.5 -15.5t24.5 -43.5q1 -4 4 -12.5t4.5 -12.5t4 -10.5t5.5 -10t6.5 -7.5t8 -5.5t10.5 -1.5q64 0 106 103q39 92 39 256v1097
q0 62 -16 81t-60 24q-68 8 -76 13t-8 22q0 22 47 22q14 0 80.5 -4t114.5 -4q59 0 108 4t52 4q41 0 41 -24q0 -9 -2.5 -14t-10 -7t-16 -3t-24.5 -3t-31 -6q-45 -11 -54.5 -43.5t-9.5 -142.5z" />
    <glyph glyph-name="K" unicode="K" horiz-adv-x="909" 
d="M172 162v973q0 55 -7.5 73.5t-31.5 24.5q-11 3 -26 5.5t-22 4t-14.5 4.5t-10.5 8t-3 13q0 9 9 15.5t24 6.5q10 0 64.5 -4t93.5 -4q28 0 76 4t67 4q33 0 33 -24q0 -9 -2 -13.5t-8 -7t-12.5 -3.5t-21 -3.5t-28.5 -5.5q-45 -12 -45 -66v-385q0 -65 6 -65t39 45q7 8 45.5 56
t71.5 89t75.5 96.5t69.5 94.5q52 75 52 94q0 20 -13.5 30.5t-44.5 16.5q-29 5 -40 10.5t-11 18.5q0 22 39 22q16 0 67.5 -4t77.5 -4q33 0 80 4t56 4q43 0 43 -22q0 -7 -2 -11.5t-7.5 -6.5t-11 -3t-17.5 -2.5t-22 -3.5q-55 -12 -160 -129q-121 -135 -196 -244
q-31 -44 -31 -57q0 -9 27 -59q44 -81 252 -496q47 -95 72.5 -137.5t36 -52.5t30.5 -17q7 -3 24 -6.5t24 -8.5t7 -16q0 -26 -41 -26q-17 0 -61.5 4t-77.5 4q-39 0 -91 -4t-63 -4q-29 0 -40 6.5t-11 21.5q0 5 1.5 9t5.5 7t7.5 4.5t10 3t10.5 2t12.5 1.5t12.5 2q19 2 30 5.5
t20 13.5t9 26t-9.5 39t-47.5 98q-38 74 -107 210t-94 186q-32 65 -45 65t-41.5 -34.5t-28.5 -57.5v-432q0 -115 60 -123q3 0 12 -1.5t12.5 -2t10 -2t9.5 -3t6.5 -4.5t5 -7t1.5 -9q0 -14 -11.5 -19t-43.5 -5q-10 0 -52 4t-73 4q-42 0 -88 -4t-62 -4q-37 0 -37 26q0 13 8 20
t31 11q51 9 63.5 27t12.5 86z" />
    <glyph glyph-name="L" unicode="L" 
d="M172 143v953q0 79 -11.5 106.5t-41.5 30.5q-69 7 -80 13q-10 7 -10 20q0 24 41 24q13 0 72.5 -4t123.5 -4q62 0 109.5 4t50.5 4q35 0 35 -22q0 -8 -3.5 -13t-12.5 -8t-17.5 -4.5t-26 -4t-30.5 -5.5q-40 -9 -52 -25.5t-12 -60.5v-952q0 -81 32.5 -117.5t109.5 -36.5
q205 0 272 229q3 11 6.5 23.5t5.5 19.5t4.5 14.5t4 11.5t4 7.5t5.5 4.5t7 1q11 0 14.5 -11.5t3.5 -59.5q0 -146 -2 -220q-1 -47 -7 -58t-22 -11q-11 0 -124 4t-302 4q-98 0 -170.5 -4t-78.5 -4q-41 0 -41 22q0 15 15 23t56 12q40 4 56 25.5t16 68.5z" />
    <glyph glyph-name="M" unicode="M" horiz-adv-x="1251" 
d="M831 16v2q0 12 15 18.5t59 12.5q42 6 52 26.5t10 86.5q0 251 -31 905q-3 41 -8 41q-8 0 -17 -25q-7 -21 -27 -91t-73.5 -253t-120.5 -409q-22 -74 -38.5 -139.5t-23 -97t-12.5 -55.5t-11 -31t-15 -7q-16 0 -33 74q-16 68 -60 226t-85 297.5t-89.5 304t-54.5 185.5t-18 21
q-2 0 -3 -1t-2 -3t-1.5 -4.5t-1.5 -7t-1.5 -8t-1 -10t-1.5 -11.5q-8 -91 -14.5 -309.5t-6.5 -370.5q0 -22 -0.5 -66t-0.5 -67t1 -59t4.5 -55.5t9.5 -41t16.5 -32.5t24.5 -13q7 -1 22 -2.5t27 -3t24 -4.5t19 -8t7 -13q0 -26 -37 -26q-10 0 -51 4t-95 4q-36 0 -64 -2t-43 -4
t-20 -2q-12 0 -17 0.5t-10 6t-5 17.5q0 13 7.5 18.5t29 9t30.5 5.5q38 11 48.5 48.5t15.5 135.5q7 127 15.5 424t8.5 424q0 95 -8 120.5t-47 31.5q-5 1 -13.5 2t-13 1.5t-12 2t-12 2.5t-9.5 3t-8.5 4t-6 4.5t-4 6t-1.5 7.5q0 24 39 24q17 0 59.5 -3t59.5 -3q14 0 50.5 3
t47.5 3q18 0 24.5 -4t12.5 -22q41 -138 123 -416t123 -416q3 -11 8.5 -31t8.5 -30t7 -21.5t8 -16.5t9 -5q10 0 17 16t20 62q39 137 116.5 411.5t116.5 411.5q9 35 18.5 48t24.5 13q9 0 42.5 -3t47.5 -3q17 0 60.5 3t58.5 3q29 0 29 -22q0 -16 -19.5 -23t-70.5 -12
q-29 -3 -29 -125q0 -85 18.5 -489.5t20.5 -471.5q3 -89 51 -98q60 -12 68 -20q4 -4 4 -11q0 -16 -8.5 -21t-28.5 -5q-5 0 -23 2t-51.5 4t-77.5 2q-47 0 -103.5 -4t-60.5 -4q-39 0 -39 24z" />
    <glyph glyph-name="N" unicode="N" horiz-adv-x="1024" 
d="M150 168v952q0 57 -10 83t-38 30q-7 1 -16 2.5t-13.5 2t-11 1.5t-9.5 2t-7 2.5t-5.5 3.5t-3.5 5t-2.5 6t-0.5 8q0 24 45 24q11 0 40.5 -2t43.5 -2t43 2t43 2q7 0 12 -1t9 -2.5t8 -6.5t7 -8.5t8 -13t8.5 -16.5t10.5 -22t13 -26q57 -115 211 -409t223 -418q38 -68 45 -68
q10 0 10 29v753q0 82 -17 114.5t-55 37.5q-69 10 -69 33q0 10 7.5 17t18.5 7q3 0 46 -4t98 -4q23 0 64.5 4t60.5 4q20 0 26 -5t6 -19q0 -15 -11.5 -20.5t-42.5 -10.5q-3 0 -5 -0.5t-4.5 -1t-5.5 -0.5q-34 -6 -47 -31t-13 -78v-1110q0 -44 -2.5 -51.5t-19.5 -7.5
q-11 0 -22 16.5t-50 91.5q-6 12 -18.5 35t-18.5 35q-30 58 -204.5 381t-260.5 498q-35 72 -46 79q-3 3 -7 3q-8 0 -11 -8.5t-3 -36.5v-721q0 -154 12.5 -213t50.5 -66q14 -3 32.5 -5t29.5 -3t22 -4t16 -9t5 -16q0 -20 -31 -20q-1 0 -37.5 4t-105.5 4q-60 0 -108 -4t-56 -4
q-23 0 -23 20q0 11 15.5 18t41.5 12t31 7q48 17 48 119z" />
    <glyph glyph-name="O" unicode="O" horiz-adv-x="1024" 
d="M61 641v2q0 186 63.5 342t167 243t220.5 87t220.5 -87t167 -243.5t63.5 -343.5t-63.5 -343.5t-167 -243.5t-220.5 -87t-220.5 87t-167 243.5t-63.5 343.5zM799 641v2q0 133 -17 241t-45.5 178t-66.5 117t-77 67t-81 20t-81 -20t-77 -67t-66.5 -117t-45.5 -178.5
t-17 -242.5t17 -242.5t45.5 -178.5t66.5 -117t77 -67t81 -20t81 20t77 67t66.5 117t45.5 178.5t17 242.5z" />
    <glyph glyph-name="P" unicode="P" horiz-adv-x="909" 
d="M315 567v-413q0 -51 14 -76t46 -29q12 -2 27.5 -3.5t24 -3t18.5 -3t15.5 -3t10 -4t6.5 -6t2 -8.5q0 -26 -37 -26q-5 0 -60 4t-124 4q-52 0 -88 -2t-53.5 -4t-24.5 -2q-43 0 -43 20q0 18 14.5 24.5t67.5 12.5q27 3 38 23t11 61v1002q0 51 -13 73t-42 25q-63 8 -70 15
q-6 5 -6 16q0 26 33 26q31 0 86.5 -4t79.5 -4q38 0 117 4t116 4q165 0 272 -97.5t107 -272.5q0 -150 -105 -246t-257 -96q-69 0 -107 10t-55 10q-21 0 -21 -31zM315 1174v-465q0 -30 27 -54q32 -28 92 -28q132 0 203.5 82.5t71.5 220.5q0 143 -73.5 227t-207.5 84
q-62 0 -87.5 -15.5t-25.5 -51.5z" />
    <glyph glyph-name="Q" unicode="Q" horiz-adv-x="1024" 
d="M61 641v2q0 186 63.5 342t167 243t220.5 87t220.5 -87t167 -243.5t63.5 -343.5q0 -242 -102 -424t-255 -233q-3 -1 -10 -3.5t-10 -3.5q7 -17 10 -40q19 -133 83.5 -211t164.5 -78q30 0 56.5 12t44 23.5t24.5 11.5q22 0 22 -29q0 -23 -47.5 -49.5t-116.5 -26.5
q-168 0 -277.5 95.5t-109.5 253.5q0 20 6 38q-41 7 -81 29q-135 79 -219.5 245t-84.5 390zM512 16h2q41 0 80 20t76.5 67t66 117t45.5 178.5t17 242.5t-17 242.5t-45.5 178.5t-66.5 117t-77 67t-81 20t-81 -20t-77 -67t-66.5 -117t-45.5 -178.5t-17 -242.5t17 -242.5
t45.5 -178.5t66.5 -117t77 -67t81 -20z" />
    <glyph glyph-name="R" unicode="R" horiz-adv-x="1024" 
d="M328 578v-428q0 -87 63 -99q74 -14 83 -20q11 -6 11 -17q0 -22 -36 -22q-5 0 -24.5 2t-59.5 4t-95 2q-82 0 -131.5 -4t-50.5 -4q-27 0 -37 4t-10 16q0 15 11.5 20t50.5 11q22 4 36 6q30 6 42 30t12 77v964q0 58 -10 82t-44 31q-13 3 -41.5 6t-38.5 8t-10 17q0 26 43 26
q26 0 77 -4t77 -4q43 0 122.5 4t116.5 4q179 0 285.5 -90.5t106.5 -228.5q0 -185 -175 -275q-34 -18 -64.5 -25.5t-42 -9t-11.5 -6.5q0 -4 4.5 -7t11 -7t16.5 -15.5t19 -29.5q50 -104 113.5 -252t85.5 -192q49 -96 84 -103q8 -2 23 -4t25.5 -4t22 -5t17.5 -8.5t6 -13.5
q0 -22 -31 -22q-9 0 -38.5 4t-59.5 4q-19 0 -57 -4t-54 -4q-13 0 -23.5 17t-37.5 81q-7 17 -62.5 155.5t-109.5 266.5q-25 60 -53 81t-85 21q-45 0 -59 -7t-14 -29zM328 1151v-457q0 -19 12.5 -24.5t69.5 -5.5q134 0 224.5 76.5t90.5 217.5q0 142 -69 212.5t-199 70.5
q-82 0 -105.5 -18.5t-23.5 -71.5z" />
    <glyph glyph-name="S" unicode="S" 
d="M745 352v-2q0 -172 -110 -277.5t-285 -105.5q-158 0 -239 51q-20 13 -28 43.5t-9 124.5q0 147 6 181q3 14 7.5 18t14.5 4q9 0 14.5 -1t8.5 -7.5t3.5 -8.5t2.5 -14q37 -182 102 -262t160 -80q100 0 165 79t65 196q0 106 -55 177t-156 136q-14 9 -44 29t-44 29
q-55 35 -92 64.5t-74.5 72t-56.5 95.5t-19 116q0 126 101.5 215.5t246.5 89.5q62 0 133 -20.5t92 -41.5q11 -11 13 -63v-131q0 -79 -3 -95t-18 -16q-13 0 -18.5 7.5t-9.5 32.5t-7 36q-37 129 -90.5 185.5t-124.5 56.5q-77 0 -134.5 -59t-57.5 -138q0 -63 20.5 -114
t62.5 -91.5t79.5 -66.5t98.5 -63q4 -2 6.5 -3.5t6 -3.5t6.5 -4q49 -31 78.5 -51.5t68.5 -56t60.5 -70t37 -85t15.5 -108.5z" />
    <glyph glyph-name="T" unicode="T" horiz-adv-x="909" 
d="M387 156v1048q0 20 -15 24.5t-87 4.5q-116 0 -181 -164q-8 -19 -21 -58.5t-21.5 -54t-18.5 -14.5q-13 0 -18 8.5t-5 38.5q0 2 1 8.5t2 16.5l2 20q8 117 30 226q17 79 35 79q8 0 15 -5t9.5 -9t8.5 -14t9 -14.5t11.5 -9.5t20.5 -5h600q63 0 80 29q1 1 3.5 5.5t3.5 6t3 5
t4 5t5 3.5t6.5 2.5t7.5 0.5q14 0 19 -12t5 -45q0 -15 -1 -40.5t-1 -37.5q-4 -101 -14 -186q-8 -76 -33 -76q-5 0 -9.5 3t-7.5 9.5t-5.5 13.5t-5 18.5t-4.5 21t-4.5 24.5t-4.5 25q-6 28 -13 49.5t-21 46.5t-31.5 41.5t-46 27.5t-64.5 11h-66q-30 0 -38.5 -7t-8.5 -22v-1052
q0 -93 51 -103q12 -2 30 -4.5t28.5 -4t21.5 -4.5t16 -8t5 -12q0 -16 -10.5 -20t-32.5 -4q-1 0 -55 4t-121 4q-77 0 -125 -4t-49 -4q-24 0 -32.5 5.5t-8.5 18.5q0 9 4.5 14.5t24 10.5t57.5 8q37 3 49 25t12 82z" />
    <glyph glyph-name="U" unicode="U" horiz-adv-x="1024" 
d="M291 1114v-817q0 -83 14 -125.5t43 -75.5q35 -40 84.5 -60t99.5 -20q71 0 132.5 33t99.5 101q47 86 47 223v698q0 93 -18 126.5t-64 35.5q-24 1 -34.5 3t-16.5 8.5t-6 19.5q0 26 37 26q8 0 43 -4t75 -4q53 0 93.5 4t44.5 4q26 0 26 -26q0 -7 -2 -11.5t-9 -7.5t-13 -4
t-19.5 -3.5t-23.5 -4.5q-34 -8 -45 -33.5t-11 -107.5v-693q0 -168 -59 -274q-87 -158 -297 -158q-164 0 -262 86q-94 87 -94 244v856q0 51 -6 65.5t-37 18.5q-37 6 -48.5 12.5t-11.5 20.5q0 20 37 20q24 0 70 -4t69 -4q53 0 103 4t59 4q27 0 38 -4t11 -18q0 -13 -14 -18.5
t-49 -10.5q-25 -3 -34 -5.5t-24.5 -14t-21.5 -37t-6 -68.5z" />
    <glyph glyph-name="V" unicode="V" 
d="M315 1266v-2q0 -13 -12 -17t-67 -14q-18 -4 -28.5 -18.5t-10.5 -32.5q0 -21 20 -88l191 -666q14 -48 22.5 -75t14.5 -41t9 -17.5t7 -3.5q9 0 19.5 37.5t60.5 242.5l116 467q23 99 23 142q0 50 -49 55q-35 3 -48.5 8.5t-13.5 18.5t9.5 20.5t23.5 7.5q2 0 38.5 -4t70.5 -4
q20 0 51 4t43 4q18 0 25.5 -4.5t7.5 -17.5q0 -5 -2.5 -9t-9 -7.5t-11 -5.5t-16.5 -6.5t-17 -6.5q-15 -6 -23 -26t-32 -107q-112 -404 -264 -1045q-20 -88 -45 -88q-23 0 -41 94q-17 87 -65.5 263.5t-130.5 453.5t-109 373q-13 45 -22.5 63t-26.5 21q-50 10 -50 33
q0 22 27 22q14 0 53 -4t76 -4q47 0 99 4t61 4q26 0 26 -24z" />
    <glyph glyph-name="W" unicode="W" horiz-adv-x="1251" 
d="M639 549l-172 -522q-15 -48 -26 -55q-6 -5 -15 -5q-15 0 -23 17t-25 74q-1 5 -2 8l-2.5 7.5t-2.5 8.5l-297 1032q-31 107 -58 119q-3 1 -10 4l-10.5 4.5t-9 3.5t-8 4t-6 4.5t-4.5 5t-1 5.5q0 26 33 26q24 0 64.5 -4t54.5 -4q25 0 61.5 4t48.5 4q26 0 33.5 -5.5t7.5 -20.5
q0 -11 -6.5 -17t-13 -7.5t-19.5 -2.5q-38 -4 -38 -43q0 -25 20 -96l223 -748q24 -80 37 -80t25 41l100 291q14 38 14 55q0 4 -22 78l-139 426q-20 66 -60 72q-26 3 -36.5 9.5t-10.5 23.5q0 24 41 24q8 0 47.5 -4t75.5 -4q38 0 81 4t44 4q19 0 26 -5.5t7 -22.5
q0 -13 -12 -19.5t-40 -9.5t-28 -45q0 -22 15 -73t35.5 -112.5t25.5 -78.5q18 -62 23 -65q2 -1 3 -1q6 0 35 80q78 217 78 256t-39 43t-39 31q0 22 25 22q8 0 36 -4t43 -4q27 0 66 4t47 4q25 0 25 -24q0 -5 -1 -8.5t-2 -6t-4 -4.5l-4.5 -3t-6.5 -2.5t-7 -2t-8 -1.5t-8 -1
q-14 -4 -24 -9t-23 -20t-21 -39l-115 -319q-3 -9 -10 -27.5t-11.5 -31.5t-4.5 -17q0 -2 18 -67l113 -369q18 -68 26 -68t31 80l213 737q19 67 19 103q0 15 -8 24.5t-17 13t-25 5.5q-38 6 -45 16q-4 6 -4 13q0 28 27 28q13 0 50 -4t63 -4q18 0 51 4t45 4q26 0 26 -26
q0 -25 -43 -31q-14 -2 -25.5 -13t-23 -39.5t-17 -44t-18.5 -61.5q-4 -13 -6 -20l-297 -1026q-7 -24 -10 -33.5t-10.5 -19t-18.5 -9.5q-16 0 -22 9.5t-14 41.5l-150 531h-4z" />
    <glyph glyph-name="X" unicode="X" horiz-adv-x="909" 
d="M541 18v2q0 26 37 29q81 10 81 55q0 16 -84 189q-44 92 -90 195q-25 56 -32.5 68.5t-16.5 12.5q-7 0 -19.5 -22t-54.5 -103q-28 -56 -47 -92q-14 -27 -31.5 -60.5t-25.5 -49t-18 -36t-14 -30t-8.5 -21t-5.5 -19t-1 -15.5q0 -35 17.5 -50t54.5 -22q3 0 13.5 -1.5t14.5 -2
t12 -2t11.5 -3.5t8 -5t6 -7t1.5 -10q0 -26 -37 -26q-2 0 -54 4t-91 4t-92 -4t-66 -4q-39 0 -39 26q0 22 29 31q47 14 71 31t61 71t101 173q59 110 138 264q22 50 22 67t-20 54q-24 43 -176 340q-60 118 -84.5 148t-63.5 36q-19 3 -26.5 4.5t-15 8.5t-7.5 20q0 11 9 17.5
t20 6.5q3 0 55.5 -4t114.5 -4q54 0 90 2t51 4t18 2q31 0 31 -22q0 -17 -15.5 -23.5t-56.5 -11.5q-43 -6 -43 -27q0 -14 15.5 -50t81.5 -167q67 -132 82 -159t22 -27q8 0 20 21t66 128q68 137 84.5 174.5t16.5 61.5q0 18 -11.5 31t-29.5 14q-40 3 -55 10t-15 21q0 26 31 26
q4 0 57 -4t123 -4q21 0 64.5 4t66.5 4q31 0 31 -24q0 -8 -3.5 -13.5t-11.5 -8t-15.5 -4t-21.5 -3.5t-24 -4q-31 -7 -56 -27.5t-67.5 -85.5t-106.5 -186q-15 -30 -33 -64t-29 -54.5t-17 -33.5q-27 -46 -27 -61q0 -7 31 -66q49 -97 149 -301q70 -144 103 -202t53 -76t55 -27
q19 -5 27 -11.5t8 -19.5q0 -26 -31 -26q-17 0 -64.5 4t-84.5 4q-32 0 -93.5 -4t-89.5 -4q-34 0 -34 26z" />
    <glyph glyph-name="Y" unicode="Y" 
d="M330 147v398q0 24 -5.5 43.5t-25.5 62.5q-25 55 -100.5 229t-118.5 265q-23 49 -38 65t-38 23q-4 1 -12 2.5t-11.5 2.5t-9 3t-8 4.5t-4.5 6t-2 8.5q0 14 9 22t24 8q7 0 59 -4t86 -4q41 0 75 2t52.5 4t20.5 2q16 0 28.5 -7t12.5 -21q0 -10 -5 -15t-11 -6.5t-19.5 -3.5
t-22.5 -4q-35 -9 -45 -17.5t-10 -29.5q0 -24 88 -232q41 -98 65 -153t38 -83t20 -35t12 -7q9 0 18.5 15.5t38.5 78.5q10 21 16 34t17.5 37.5t22.5 47.5q117 244 117 295q0 21 -16 31.5t-64 17.5q-43 6 -43 24q0 15 10 24t27 9q19 0 60 -4t62 -4q39 0 71.5 4t45.5 4
q23 0 23 -26q0 -5 -0.5 -9t-2.5 -7l-3 -4.5t-5 -3.5l-5 -2.5t-7 -2.5t-8 -2q-30 -8 -49.5 -29t-52.5 -88q-32 -64 -66.5 -138t-75.5 -164.5t-65 -141.5q-23 -49 -29 -69t-6 -42v-426q0 -78 55 -86q6 -1 16.5 -2.5t16.5 -2t14 -2.5t12.5 -4t9.5 -5t7 -7t2 -10
q0 -16 -10.5 -20t-38.5 -4q-13 0 -61 4t-87 4q-41 0 -97.5 -4t-74.5 -4q-26 0 -33.5 5.5t-7.5 18.5q0 14 18 21t60 12q39 4 51.5 23.5t12.5 74.5z" />
    <glyph glyph-name="Z" unicode="Z" 
d="M233 57h3q162 0 247 15q97 17 145 65t74 152q23 90 30 99q5 5 13 5q17 0 22 -11.5t5 -62.5q0 -205 -4 -262q-3 -42 -10 -53.5t-25 -11.5q-14 0 -59.5 2t-137.5 4t-219 2q-93 0 -160 -2t-98 -4t-36 -2q-9 0 -16 12.5t-7 20.5q0 3 29 63l526 1020q43 88 43 98
q0 8 -5.5 13.5t-28.5 9.5t-64 4q-109 0 -160 -12q-121 -28 -178 -142q-11 -21 -22.5 -64t-24 -66t-35.5 -23q-21 0 -21 53q0 23 7 74q4 31 11.5 118t14.5 127q12 66 35 66q7 0 12.5 -2t9.5 -7t6 -8.5t5.5 -12t5.5 -11.5q20 -41 94 -41h252h252q14 0 14 -12q0 -8 -43 -92
q-286 -560 -514 -1012q-43 -88 -43 -96t9.5 -10.5t45.5 -2.5z" />
    <glyph glyph-name="bracketleft" unicode="[" horiz-adv-x="681" 
d="M233 -250v1651q0 31 8 40t40 9q23 0 67 -2t66 -2t66 2t67 2q47 0 47 -33q0 -20 -10.5 -26.5t-38.5 -6.5q-25 0 -76 1t-76 1q-22 0 -31.5 -9t-9.5 -31v-1541q0 -23 10 -32t31 -9q25 0 76 1.5t76 1.5q28 0 38.5 -7.5t10.5 -27.5q0 -31 -47 -31q-23 0 -67 2t-66 2t-66 -2
t-67 -2q-32 0 -40 9t-8 40z" />
    <glyph glyph-name="backslash" unicode="\" horiz-adv-x="569" 
d="M676 -303h-31q-15 0 -22 5t-13 22l-653 1662q-20 45 -20 56q0 8 16 8h39q9 0 14.5 -5t11.5 -22l654 -1663q20 -50 20 -55q0 -8 -16 -8z" />
    <glyph glyph-name="bracketright" unicode="]" horiz-adv-x="681" 
d="M449 1401v-1651q0 -31 -8 -40t-40 -9q-23 0 -67 2t-66 2t-66 -2t-67 -2q-47 0 -47 33q0 20 10.5 26.5t38.5 6.5q25 0 76 -1.5t76 -1.5q22 0 31.5 9.5t9.5 31.5v1541q0 22 -10 31t-31 9q-25 0 -76 -1t-76 -1q-28 0 -38.5 7.5t-10.5 27.5q0 31 47 31q23 0 67 -2t66 -2t66 2
t67 2q32 0 40 -9t8 -40z" />
    <glyph glyph-name="asciicircum" unicode="^" horiz-adv-x="1228" 
d="M567 1282h95l413 -819h-112l-349 688l-348 -688h-112z" />
    <glyph glyph-name="underscore" unicode="_" horiz-adv-x="1024" 
d="M0 -256v102h1024v-102h-1024z" />
    <glyph glyph-name="grave" unicode="`" horiz-adv-x="454" 
d="M375 1077v-2q0 -5 -4.5 -8.5t-10.5 -3.5q-14 0 -57 24l-268 158q-4 3 -15 9t-15.5 9t-14 9t-14.5 9.5t-12 9.5t-10.5 10.5t-7.5 10t-5.5 11.5t-1.5 12q0 24 14 40t35 16q8 0 15.5 -2t16.5 -6.5l15 -7.5t16 -11.5t13.5 -11t15 -12.5t12.5 -11l244 -209q1 -1 12.5 -10
t19 -17.5t7.5 -15.5z" />
    <glyph glyph-name="a" unicode="a" 
d="M514 643v117q0 79 -20 110t-66 31q-78 0 -121 -50.5t-69 -145.5q-14 -47 -43 -76q-34 -31 -80 -31q-24 0 -33.5 10t-9.5 35q0 43 30 95t81 100t129.5 80t164.5 32q99 0 131 -35q29 -29 29 -106v-641q0 -82 57 -82q51 0 66 47q14 39 22 43q3 2 6 2q17 0 17 -33
q0 -16 -9.5 -41t-27.5 -53t-51.5 -47.5t-75.5 -19.5q-30 0 -52 10.5t-34 30.5t-17 34t-10 37q-7 29 -18 29q-7 0 -19 -11t-34 -32.5t-41 -36.5q-81 -70 -187 -70q-66 0 -107.5 47.5t-41.5 133.5q0 72 45.5 128t169.5 146q144 103 156 113q38 28 50.5 48t12.5 52zM215 182v-2
q0 -58 28.5 -88.5t73.5 -30.5q59 0 136 70q34 31 47.5 59t13.5 70v225q0 27 -14 27q-18 0 -54 -25q-77 -52 -127 -102q-104 -96 -104 -203z" />
    <glyph glyph-name="b" unicode="b" 
d="M225 1432v-521q0 -34 17 -34q6 0 18 4q11 4 41.5 23t66 32.5t74.5 13.5q84 0 152 -65t104.5 -167.5t36.5 -217.5q0 -239 -104.5 -382t-278.5 -143q-18 0 -36 4.5t-25.5 7t-27.5 13t-21 10.5q-30 15 -49 15q-26 0 -43 -29q-1 -1 -5.5 -11t-6 -12.5t-6 -8.5t-9.5 -7.5
t-12 -1.5q-23 0 -23 29q0 6 4 29t4 30q6 105 6 227v985q0 36 -11.5 49t-47.5 19q-26 5 -34.5 9t-8.5 14t5.5 15t23.5 11q86 32 149 62q31 16 37 16q10 0 10 -18zM600 442v2q0 428 -242 428q-72 0 -112 -61q-21 -35 -21 -68v-555q0 -80 37.5 -121.5t97.5 -41.5
q113 0 176.5 104.5t63.5 312.5z" />
    <glyph glyph-name="c" unicode="c" horiz-adv-x="681" 
d="M31 428v2q0 225 112 372.5t285 147.5q94 0 143 -24q38 -20 46 -32.5t8 -55.5v-76q0 -10 -7 -66q-3 -27 -12.5 -36t-30.5 -9q-9 0 -14.5 4t-11 15.5t-10 23.5t-13.5 37.5t-18 48.5q-23 58 -47.5 81.5t-69.5 23.5q-96 0 -160.5 -107.5t-64.5 -273.5q0 -223 63 -328.5
t168 -105.5q115 0 172 92q12 19 25.5 48t22 45.5t14.5 16.5q18 0 18 -24q0 -61 -31.5 -122t-98.5 -106t-154 -45q-154 0 -244 124.5t-90 328.5z" />
    <glyph glyph-name="d" unicode="d" 
d="M668 1421v-1278q0 -77 16 -77q22 0 37.5 24t25.5 48t19 24q10 0 14 -9t4 -34q0 -36 -4.5 -51t-21.5 -27q-14 -10 -58 -29q-84 -37 -104 -37q-26 0 -31 31q-12 66 -18 71q-1 1 -4 1q-4 0 -10.5 -6.5t-19 -20t-24.5 -24.5q-60 -52 -145 -52q-155 0 -233 128t-78 350
q0 130 41 242t121.5 183.5t183.5 71.5q64 0 119 -35q8 -5 17 -11.5t14 -9.5t8 -3q8 0 8 10v371q0 24 -12 34.5t-48 16.5q-26 5 -34.5 9t-8.5 14t5.5 15t23.5 11q80 30 143 60q10 4 20 9.5t14 7t9 1.5q11 0 11 -29zM168 483v-2q0 -219 52.5 -323.5t160.5 -104.5q67 0 111 33
q53 39 53 107v505q0 89 -45 146q-48 57 -121 57q-28 0 -56 -13t-56.5 -44t-50 -77.5t-35 -119.5t-13.5 -164z" />
    <glyph glyph-name="e" unicode="e" horiz-adv-x="681" 
d="M582 500h-375q-26 0 -36.5 -9t-10.5 -30q0 -182 66.5 -291t174.5 -109q139 0 185 117q4 10 8.5 23t7 20t5.5 14t6.5 10t7.5 3q14 0 14 -25q0 -40 -23 -96q-29 -69 -93 -110.5t-138 -41.5q-167 0 -261.5 127.5t-94.5 339.5q0 124 29.5 223.5t79 160t110.5 92.5t129 32
q113 0 185.5 -86.5t72.5 -236.5q0 -92 -6.5 -109.5t-42.5 -17.5zM164 602v-2q0 -28 14 -35.5t76 -7.5q44 0 106 4q106 6 129 25q27 21 27 92q0 104 -43.5 163.5t-112.5 59.5q-83 0 -139.5 -86.5t-56.5 -212.5z" />
    <glyph glyph-name="f" unicode="f" horiz-adv-x="454" 
d="M246 803v-637q0 -66 19 -91t69 -34q46 -8 53 -18q4 -4 4 -11q0 -20 -33 -20q-13 0 -71 4t-99 4q-36 0 -84.5 -4t-58.5 -4q-49 0 -49 20q0 24 41 29q50 6 68 28.5t18 90.5v653q0 23 -12.5 32t-34.5 13q-16 3 -23.5 5t-15.5 8.5t-8 17.5q0 7 2 12t7.5 9.5t9.5 7t13.5 7
t14.5 7.5q45 27 47 92q9 215 76 322q67 104 182 104q66 0 98.5 -23.5t32.5 -76.5q0 -30 -8 -80q-5 -27 -16.5 -44.5t-24.5 -17.5q-12 0 -21 7.5t-16 25t-10.5 28.5t-9.5 36q-11 46 -25.5 71t-42.5 25q-45 0 -68.5 -78.5t-23.5 -261.5v-109q0 -15 4 -20.5t16 -5.5h142
q20 0 25 -6.5t5 -28.5t-5 -28.5t-23 -6.5h-111q-34 0 -43.5 -9.5t-9.5 -43.5z" />
    <glyph glyph-name="g" unicode="g" 
d="M102 645v2q0 72 34 140.5t101 115.5t150 47q55 0 131 -39q24 -12 70 -12h106q74 0 74 -39q0 -20 -11 -29.5t-40 -9.5h-43q-35 0 -35 -8q0 -3 2 -9.5t6.5 -19.5t7.5 -26q17 -70 17 -127q0 -111 -49.5 -194t-143.5 -111q-115 -36 -164 -56t-63 -34t-14 -39q0 -36 32.5 -53
t69.5 -17q22 0 64.5 2t66.5 2q176 0 250 -63.5t74 -194.5t-122.5 -223t-295.5 -92q-35 0 -71.5 6.5t-77 24.5t-72 44.5t-52 70.5t-20.5 99q0 98 78 156q17 12 37.5 23t30.5 17t10 9q0 4 -8 12.5t-30.5 30.5t-29.5 29q-70 66 -70 86q0 7 1.5 13t3 10.5t6.5 9.5l8 8t12 8.5
t14 9t18 11t21 12.5q5 3 20.5 11t29 15.5t28 16t23 14.5t8.5 8t-5.5 5t-19 9.5t-26.5 16.5q-142 99 -142 301zM397 344h2q57 0 97.5 66t40.5 200q0 142 -44 222.5t-116 80.5q-58 0 -98.5 -66.5t-40.5 -201.5q0 -142 43.5 -221.5t115.5 -79.5zM422 -393h2q114 0 184 67
q72 69 72 183q0 47 -16.5 79t-49 48t-70 22t-89.5 6q-136 0 -168 -16q-42 -23 -65 -75t-23 -99q0 -99 61.5 -157t161.5 -58z" />
    <glyph glyph-name="h" unicode="h" horiz-adv-x="909" 
d="M141 147v1125q0 24 -11.5 34.5t-47.5 16.5q-26 5 -34.5 9t-8.5 14t5.5 15t23.5 11q96 36 147 62q33 16 39 16q10 0 10 -29v-600q0 -14 10 -14q13 0 25 12q119 119 236 119q95 0 162 -59t71 -174v-568q0 -49 14.5 -71t48.5 -25q31 -3 43.5 -9.5t12.5 -19.5q0 -20 -29 -20
q-1 0 -22.5 2t-57 4t-71.5 2q-62 0 -101.5 -4t-40.5 -4q-17 0 -23.5 5t-6.5 17q0 13 9 18.5t29 8.5q42 6 57 21t15 53v573q0 77 -41 121q-48 51 -127 51q-82 0 -149 -57q-64 -57 -64 -127v-551q0 -37 19.5 -57t68.5 -27q28 -4 36.5 -10t8.5 -19q0 -20 -28 -20q-2 0 -17 2
t-54.5 4t-100.5 2q-55 0 -94.5 -4t-45.5 -4q-26 0 -26 24q0 8 7.5 16t20.5 9q51 6 66.5 26t15.5 80z" />
    <glyph glyph-name="i" unicode="i" horiz-adv-x="454" 
d="M227 1085h-2q-31 0 -52 25.5t-21 77.5q0 51 21.5 76.5t53.5 25.5q33 0 54.5 -25.5t21.5 -76.5q0 -52 -21.5 -77.5t-54.5 -25.5zM166 135v600q0 36 -16.5 51t-69.5 25q-19 4 -19 20t60 37q49 17 119 62q27 20 32 20q17 0 17 -22v-92v-691q0 -23 0.5 -32t4 -24.5t10.5 -22
t21 -14t35 -11.5q31 -6 41.5 -11.5t10.5 -17.5q0 -11 -6.5 -15.5t-24.5 -4.5q-4 0 -48.5 4t-107.5 4q-49 0 -83 -2t-49.5 -4t-20.5 -2q-25 0 -25 22t35 27q56 9 70 24.5t14 69.5z" />
    <glyph glyph-name="j" unicode="j" horiz-adv-x="454" 
d="M227 1085h-2q-31 0 -52 25.5t-21 77.5q0 51 21.5 76.5t53.5 25.5q33 0 54.5 -25.5t21.5 -76.5q0 -52 -21.5 -77.5t-54.5 -25.5zM289 922v-918q0 -127 -18 -199t-78 -151q-96 -129 -132 -129q-10 0 -10 16q0 5 2.5 10.5t8 14t10.5 15.5t14.5 19.5t15.5 20.5q64 87 64 252
v899q0 24 -12 34.5t-48 16.5q-26 5 -34.5 9t-8.5 14t5.5 15t23.5 11q78 28 141 58q41 20 46 20q10 0 10 -28z" />
    <glyph glyph-name="k" unicode="k" 
d="M139 100v1172q0 24 -11.5 34.5t-47.5 16.5q-26 5 -34.5 9t-8.5 14t5.5 15t23.5 11q85 30 143 60q36 18 43 18q10 0 10 -29v-854q0 -27 1.5 -40t3.5 -16t7 -3q17 0 43 33q21 25 61 71.5t73 86.5t61 77q27 36 27 60q0 21 -14.5 32.5t-63.5 16.5q-33 3 -33 26q0 13 8 18
t29 5q17 0 66 -4t75 -4q35 0 80 4t66 4q20 0 27 -4.5t7 -16.5q0 -10 -9.5 -15.5t-33.5 -12.5q-42 -11 -129 -90q-58 -52 -149 -154q-31 -36 -31 -47q0 -7 23 -45q33 -52 108 -185.5t111 -193.5q51 -83 69.5 -104.5t36.5 -24.5q43 -9 48 -15q4 -5 4 -12q0 -13 -7.5 -17.5
t-25.5 -4.5q-3 0 -50.5 4t-84.5 4q-36 0 -84.5 -4t-53.5 -4q-26 0 -26 20q0 9 7 15t13.5 7.5t22.5 4.5q41 8 41 27q0 17 -35 79q-70 131 -158 275q-41 67 -47 67q-4 0 -24 -16.5t-40 -44.5t-20 -53v-242q0 -37 10 -57.5t21 -25t31 -7.5q47 -6 56 -16q5 -6 5 -15
q0 -7 -6.5 -12.5t-13.5 -5.5q-9 0 -68 4t-86 4q-36 0 -88 -4t-57 -4q-25 0 -25 24q0 10 8.5 15.5t34.5 9.5q19 3 30.5 8t17 13.5t6.5 16t1 21.5z" />
    <glyph glyph-name="l" unicode="l" horiz-adv-x="454" 
d="M166 127v1145q0 24 -12 34.5t-48 16.5q-26 5 -34.5 9t-8.5 14t5.5 15t23.5 11q101 38 144 60q35 18 43 18q10 0 10 -29v-1310q0 -8 1 -14t2 -11t4.5 -9.5t5 -7t8 -6t9.5 -5t12.5 -4t13.5 -4t17 -4.5t19 -5q33 -9 38 -18q1 -3 1 -7q0 -24 -23 -24q-4 0 -20 2t-54 4t-94 2
q-50 0 -84.5 -2t-50.5 -4t-22 -2q-9 0 -17 6t-8 18q0 9 10 16t23 9q53 7 69.5 25t16.5 61z" />
    <glyph glyph-name="m" unicode="m" horiz-adv-x="1366" 
d="M135 147v586q0 41 -10 52t-51 14q-3 0 -9 0.5t-9 1t-7.5 1t-6.5 1.5t-4.5 3t-3.5 4.5t-1 6.5q0 14 39 31q71 32 133 82q23 20 28 20q15 0 15 -24v-58q0 -22 0.5 -33.5t1.5 -18t3 -8t5 -1.5q5 0 12 3t17 10.5t18 14t22 18.5t23 19q90 66 162 66q28 0 51.5 -4t41.5 -13.5
t31 -17t24.5 -22.5t17 -21.5t14.5 -22.5t10 -18q12 -18 21 -18q7 0 25 14q5 4 30 25.5t43 34t48 29.5t64 25.5t71 8.5q88 0 149 -49q76 -59 76 -162v-590q0 -49 13 -67t52 -29q52 -14 52 -27q0 -12 -7 -17t-26 -5q-13 0 -67.5 4t-92.5 4q-35 0 -85.5 -4t-63.5 -4
q-37 0 -37 22q0 19 39 27q62 13 81 32.5t19 82.5v524q0 91 -45 135.5t-125 44.5q-79 0 -135 -47q-58 -51 -58 -125v-567q0 -45 13 -58t71 -22q21 -3 29 -8t8 -17q0 -24 -41 -24q-11 0 -60 4t-83 4q-37 0 -86.5 -4t-63.5 -4q-32 0 -32 18q0 10 8 19t22 12q35 7 49 11.5
t26.5 17t15 31t2.5 55.5v503q0 87 -31 138q-37 63 -119 63q-81 0 -145 -51q-68 -58 -68 -133v-563q0 -37 11 -51.5t46 -20.5q6 -1 13 -3t11 -2.5t9 -2t7.5 -2t5.5 -2t4 -3t2 -4t1.5 -5t0.5 -5.5q0 -20 -29 -20q-2 0 -17 2t-54.5 4t-100.5 2q-43 0 -74 -4t-33 -4
q-36 0 -36 24q0 8 7.5 16t20.5 9q51 6 66.5 26t15.5 80z" />
    <glyph glyph-name="n" unicode="n" horiz-adv-x="909" 
d="M141 147v586q0 42 -10 52.5t-51 13.5q-26 2 -33.5 5t-7.5 13q0 14 39 31q71 32 133 82q23 20 29 20q14 0 14 -24v-84q1 -12 1.5 -19t2 -10.5t2.5 -4.5t4 -1q6 0 16.5 5.5t20 13t27 21.5t30.5 23q93 68 177 68q99 0 163 -61q67 -64 70 -172v-568q0 -50 13 -71.5t44 -24.5
q35 -3 48.5 -9.5t13.5 -19.5q0 -20 -29 -20l-14 2q-15 2 -50.5 4t-86.5 2q-62 0 -101.5 -4t-40.5 -4q-17 0 -23.5 5t-6.5 17q0 21 38 27q42 6 57 20.5t15 53.5v573q0 77 -41 121q-45 51 -127 51q-86 0 -147 -55q-66 -59 -66 -129v-563q0 -37 11 -51.5t47 -20.5
q64 -10 70 -15q5 -4 5 -14q0 -20 -28 -20q-2 0 -17 2t-54.5 4t-100.5 2q-41 0 -69 -2t-41.5 -4t-18.5 -2q-37 0 -37 24q0 8 7.5 16t20.5 9q51 6 66.5 26t15.5 80z" />
    <glyph glyph-name="o" unicode="o" 
d="M397 -25h-2q-102 0 -183.5 68t-125 179t-43.5 241t43.5 241t125.5 178.5t185 67.5t185.5 -67.5t126 -178.5t43.5 -241t-43.5 -241t-126 -179t-185.5 -68zM397 25h2q70 0 121 68t73.5 165t22.5 205t-22.5 205t-74 165t-122.5 68t-122.5 -68t-74 -165t-22.5 -205t22.5 -205
t74 -165t122.5 -68z" />
    <glyph glyph-name="p" unicode="p" 
d="M244 -25v-284q0 -48 20.5 -65.5t79.5 -26.5q16 -3 22 -4.5t11.5 -7.5t5.5 -17q0 -21 -47 -21q-8 0 -46.5 4.5t-90.5 4.5q-48 0 -98.5 -4.5t-57.5 -4.5q-43 0 -43 23q0 21 29 27q64 14 78 29t14 79v1024q0 23 -9 34t-38 21q-46 16 -49 20q-2 2 -2 5q0 7 1 11t6 8t8 5.5
l13 6.5q72 36 133 80q10 7 20.5 15t14.5 10.5t8 2.5q15 0 15 -26v-88q0 -13 12 -13q8 0 49 41q83 74 146 74q132 0 218.5 -136t86.5 -353q0 -207 -94 -340.5t-242 -133.5q-53 0 -115 23q-41 18 -47 18q-12 0 -12 -41zM618 457v2q0 183 -49.5 292t-148.5 109q-70 0 -123 -47
q-53 -43 -53 -104v-508q0 -101 47 -148q41 -41 108 -41q98 0 158.5 110t60.5 335z" />
    <glyph glyph-name="q" unicode="q" 
d="M571 -233v258q0 38 -20 38q-6 0 -13.5 -3.5t-13 -7.5t-17 -12t-18.5 -13q-57 -39 -131 -39q-98 0 -166.5 61.5t-99.5 161t-31 229.5q0 117 31.5 215t83.5 161.5t117.5 98.5t134.5 35q57 0 115 -24q8 -3 21 -8.5t20 -8.5t16.5 -5.5t17.5 -2.5q30 0 48 35q0 1 2.5 6.5
t3 6.5t3 5.5t4 6l4 4t5 3.5t6.5 2t8 1q19 0 19 -21q0 -6 -12 -80q-15 -88 -15 -135v-1063q0 -38 12.5 -50.5t65.5 -22.5q24 -4 33.5 -10t9.5 -17q0 -23 -45 -23q-6 0 -19.5 2.5t-46 4.5t-83.5 2q-61 0 -104.5 -4.5t-45.5 -4.5q-41 0 -41 25q0 20 31 25q33 5 51 11t31.5 15
t18.5 29t7 44t2 69zM197 451v-2q0 -172 62.5 -277.5t156.5 -105.5q105 0 133 63q22 45 22 174v414q0 106 -41 147q-34 37 -108 37q-85 0 -155 -120.5t-70 -329.5z" />
    <glyph glyph-name="r" unicode="r" horiz-adv-x="569" 
d="M160 152v555q0 54 -17 71t-63 17q-21 0 -21 16q0 21 33 31q63 19 105 63q6 7 14.5 16.5t12 13t9 8t9 6t8.5 1.5q13 0 16 -30q2 -20 2 -89q0 -57 8 -57q7 0 14.5 11.5t20 36t23.5 40.5q27 41 58.5 64.5t78.5 23.5q51 0 79 -36t28 -99q0 -52 -19 -82.5t-57 -30.5
q-72 0 -72 82q0 18 -0.5 25.5t-2 20t-6.5 17.5t-13 5q-57 0 -95 -107q-30 -85 -30 -147v-426q0 -75 11.5 -98.5t61.5 -32.5q38 -7 53 -12t15 -15q0 -13 -9.5 -17.5t-37.5 -4.5q-4 0 -18.5 2t-50 4t-89.5 2q-41 0 -70.5 -2t-43 -4t-17.5 -2q-39 0 -39 20q0 14 10 20t33 9
q44 6 56 24t12 87z" />
    <glyph glyph-name="s" unicode="s" horiz-adv-x="569" 
d="M37 705v2q0 63 24.5 111.5t65.5 76.5t88.5 41.5t99.5 13.5q105 0 154 -32q7 -5 10 -35q2 -18 2 -80v-58q-3 -49 -20 -49q-6 0 -10 3.5t-8 13t-7.5 20l-10.5 31.5t-15 41q-19 46 -46 71t-71 25q-66 0 -110 -40.5t-44 -100.5q0 -16 3 -30.5t11.5 -29t14.5 -25t21.5 -24.5
t23.5 -21.5t29.5 -21.5t29.5 -19.5t33.5 -21t32.5 -20.5q44 -27 73.5 -50.5t60.5 -57.5t47 -77t16 -94q0 -137 -83.5 -215t-222.5 -78q-69 0 -123 15q-6 2 -18.5 5t-19.5 5q-21 7 -25 55q-4 50 -4 111q0 52 2.5 78t6.5 34.5t13 8.5q4 0 7 -1.5t6 -5.5t5 -9t5 -15.5l6 -21
t9 -29t12 -37.5q49 -143 151 -143q71 0 114.5 45t43.5 118q0 45 -14 81t-44.5 65.5t-54 46t-68.5 43.5q-7 4 -10 6q-45 27 -72 47t-58.5 53t-46.5 76.5t-15 98.5z" />
    <glyph glyph-name="t" unicode="t" horiz-adv-x="454" 
d="M258 819v-676q0 -49 15 -65.5t46 -16.5q47 0 80 60q2 4 6.5 12t7 12.5t6 10.5t6 10t6 7.5t7 5t6.5 1.5q19 0 19 -16q0 -12 -6.5 -37.5t-22.5 -62t-53.5 -63t-89.5 -26.5q-76 0 -115 39q-41 44 -41 138v688q0 21 -20 28q-12 4 -45 4q-12 0 -17.5 1t-10.5 6.5t-5 17.5
q0 10 37 53q72 91 131 205q4 7 7.5 15t5.5 12t4.5 8.5t4 6.5t4 4t4.5 2.5t5 0.5q10 0 14 -9.5t4 -41.5v-182q0 -25 9 -35t32 -10h82q29 0 40 -6.5t11 -24.5q0 -21 -12 -30t-43 -9h-92q-16 0 -21.5 -7t-5.5 -30z" />
    <glyph glyph-name="u" unicode="u" horiz-adv-x="909" 
d="M264 854v-616q0 -81 46.5 -126.5t121.5 -45.5q98 0 168 73q45 52 45 111v555q0 38 -10.5 53t-46.5 19q-8 1 -18 2l-15 1.5t-11.5 1t-9.5 1.5t-6.5 3t-4.5 5t-2 6.5t-1 9.5q0 10 9 18.5t26 8.5q15 0 43 -1t43 -1q17 0 48 1t48 1t24 -8.5t7 -38.5v-78v-614q0 -56 9 -75
t38 -22q34 -3 44.5 -7.5t10.5 -16.5q0 -17 -39 -31q-40 -16 -88 -37t-55 -24q-18 -7 -24 -7q-9 0 -9 21v92q0 27 -14 27q-9 0 -29 -17q-2 -2 -16.5 -14.5t-21 -18t-23 -17.5t-27.5 -18.5t-30 -15.5t-36 -14t-39 -8.5t-44 -3.5q-107 0 -164 49q-70 63 -70 172v606
q0 32 -12 45.5t-45 16.5q-31 3 -42 9t-11 19q0 12 10.5 20.5t32.5 8.5q16 0 48 -1t48 -1q10 0 30.5 1t30.5 1q23 0 28 -16t5 -64z" />
    <glyph glyph-name="v" unicode="v" horiz-adv-x="681" 
d="M309 909v-2q0 -10 -47 -22q-34 -9 -45.5 -18t-11.5 -25q0 -11 18 -80l105 -375q16 -59 25 -88t13.5 -36t8.5 -7q7 0 13 7t19 42t31 103q17 60 51 171t43 140q27 91 27 108q0 52 -57 56q-4 0 -13 0.5t-13 1t-10.5 1t-10 2.5t-7 4.5t-5 6.5t-1.5 10q0 15 8.5 20t32.5 5
q16 0 49 -4t52 -4q24 0 56 4t44 4q39 0 39 -19q0 -20 -39 -30q-10 -3 -18.5 -7t-16 -13.5t-12 -16t-11.5 -23.5t-10.5 -27t-12 -34.5t-13.5 -38.5q-43 -125 -207 -647q-4 -13 -8 -31t-7 -29t-7 -22t-9.5 -16t-13.5 -5q-7 0 -12.5 7t-10 20t-8 25.5t-7.5 30t-7 26.5
q-31 104 -96 327t-88 298q-40 127 -50 145q-14 26 -41 31q-38 7 -38 26q0 23 40 23q8 0 55 -4t75 -4q20 0 57 4t59 4q28 0 35.5 -5t7.5 -20z" />
    <glyph glyph-name="w" unicode="w" horiz-adv-x="1024" 
d="M528 549l-163 -510q-1 -4 -4 -13l-4.5 -13.5t-4 -11.5t-5 -10.5t-5.5 -8t-6.5 -6t-7.5 -1.5t-7.5 2t-6.5 6t-5.5 7.5t-5 11t-3.5 11.5t-3.5 12.5t-3.5 11.5l-246 766q-23 70 -57 78q-31 7 -31 28q0 25 37 25q20 0 56 -4t54 -4q20 0 57 4t54 4q37 0 37 -23q0 -18 -47 -26
q-49 -8 -49 -51q0 -24 24 -95l154 -448q11 -37 22 -37q15 0 31 53l96 301q15 51 15 64q0 22 -51 153q-14 42 -66 54q-39 9 -44 19q-1 3 -1 7q0 29 41 29q18 0 61 -4t64 -4q26 0 69 4t56 4q25 0 33 -6.5t8 -20.5q0 -3 -1 -6t-3 -5t-4 -3.5t-6 -3t-6 -2.5t-7.5 -2t-8 -1.5
t-8.5 -1.5t-8 -1q-53 -8 -53 -43q0 -16 17 -72l139 -455q18 -57 29 -57q9 0 32 86l121 422q10 36 10 63q0 44 -59 52q-15 2 -23 3.5t-18.5 4.5t-15 8t-4.5 12q0 12 8 20.5t20 8.5q17 0 52.5 -4t54.5 -4q25 0 61.5 4t46.5 4q29 0 29 -27q0 -6 -1.5 -11t-3 -7.5t-6.5 -5.5
t-6.5 -3.5l-9 -3t-8.5 -2.5q-39 -13 -55 -65l-221 -772q-14 -51 -25 -59q-4 -3 -10 -3q-5 0 -9 2t-7 6t-5.5 7.5t-5 11t-3.5 11.5t-3.5 13.5t-3.5 12.5l-150 510h-4z" />
    <glyph glyph-name="x" unicode="x" 
d="M444 20v3q0 12 29 18q41 7 53.5 16t12.5 29q0 12 -72 143q-25 45 -54 99q-19 35 -24.5 43t-13.5 8q-13 0 -25.5 -20t-75.5 -138q-53 -99 -53 -139q0 -19 11.5 -28.5t37.5 -12.5q47 -8 47 -25q0 -12 -9 -18t-36 -6q-6 0 -44 4t-81 4q-50 0 -82.5 -4t-33.5 -4
q-20 0 -27.5 4t-7.5 18q0 20 43 27q12 2 23 5.5t19.5 6.5t18 10t15 11t15.5 16t14.5 17.5t16 23t16.5 25.5t20 31.5t22 35.5q92 146 117 203q6 14 6 23q0 7 -14 34q-7 12 -24.5 41t-49.5 83t-68 116q-71 119 -88 138q-19 20 -39 24q-47 7 -53 15q-2 4 -2 9q0 25 41 25
q12 0 62.5 -4t80.5 -4q38 0 80 4t49 4q35 0 35 -21q0 -14 -11 -18.5t-50 -9.5q-37 -5 -37 -29q0 -18 74 -158q76 -141 88 -141q9 0 25 24.5t45 77.5q1 3 2 5t3 5t3 5q84 146 84 178q0 23 -54 33q-33 6 -43 11.5t-10 16.5q0 10 7.5 15.5t17.5 5.5q13 0 58 -4t83 -4q34 0 75 4
t46 4q26 0 26 -27q0 -9 -11 -13t-40 -9q-39 -6 -76.5 -47t-89.5 -131q-28 -49 -53 -91t-37.5 -62.5t-17.5 -29.5q-10 -20 -10 -30q0 -6 14 -33q7 -13 20.5 -35.5t41.5 -69t55 -92.5q62 -105 89.5 -146t46 -55.5t48.5 -21.5q39 -9 39 -29q0 -8 -8 -14t-21 -6q-2 0 -17 2
t-47.5 4t-78.5 2q-45 0 -76 -2t-46 -4t-20 -2q-45 0 -45 28z" />
    <glyph glyph-name="y" unicode="y" horiz-adv-x="681" 
d="M82 -342v2q0 50 59 61q4 1 15 3t16 3t13.5 3t14 4.5t11.5 6t10 7.5q14 14 51 123q39 115 39 154q0 36 -5.5 59.5t-29.5 97.5q-28 87 -88 279.5t-92 292.5q-26 81 -43 105t-35 26q-26 3 -34.5 8.5t-8.5 21.5q0 19 31 19q24 0 72 -4t72 -4q22 0 66 4t50 4q35 0 35 -25
q0 -3 -1 -5.5t-4.5 -4.5t-6.5 -3.5t-9.5 -3t-11.5 -2t-15 -2.5t-17 -3q-43 -7 -43 -47q0 -21 43 -166q38 -133 86 -279.5t57 -146.5t60 161.5t83 280.5q33 118 33 152q0 21 -17 30.5t-59 14.5q-2 0 -7 0.5t-7.5 1t-7 1.5t-7 2.5t-5.5 3t-4 4.5t-1 7q0 29 31 29q1 0 43.5 -4
t77.5 -4q12 0 40 4t48 4q27 0 27 -25q0 -17 -33 -24q-22 -4 -39 -36t-45 -116q-206 -632 -260 -817q-16 -55 -66 -244q-22 -69 -40.5 -91.5t-55.5 -22.5q-57 0 -71.5 19t-14.5 81z" />
    <glyph glyph-name="z" unicode="z" horiz-adv-x="681" 
d="M625 305h2q22 0 22 -53q0 -18 -1 -107t-1 -110q0 -23 -7 -30t-22 -7q-47 0 -142 1t-142 1q-48 0 -143.5 -1t-143.5 -1q-16 0 -16 18q0 7 2.5 14t6 13t13.5 22t19 31l391 697q35 61 35 67q0 17 -70 17q-76 0 -115 -5q-74 -9 -109.5 -32.5t-64.5 -83.5q-9 -19 -17.5 -37.5
t-12 -27t-8 -16t-8 -9.5t-9.5 -2q-18 0 -18 20q0 28 43 248q6 27 11.5 37t14.5 10t15.5 -4.5t9 -8.5t6.5 -14q13 -26 47 -26h203h202q33 0 33 -19q0 -16 -35 -76l-421 -743q-11 -20 -11 -29q0 -4 1.5 -5t10 -2.5t27.5 -2.5q141 0 170 2q92 7 128 35t61 98q11 31 16.5 64
t9.5 45t17 12z" />
    <glyph glyph-name="braceleft" unicode="{" horiz-adv-x="681" 
d="M279 8v311q0 47 -4 82t-14 65.5t-29.5 48.5t-47.5 24q-32 7 -46.5 14t-14.5 20q0 23 61 35q28 6 47.5 24t29.5 48t14 65t4 82v312q0 172 64.5 241.5t188.5 69.5q29 0 29 -23q0 -22 -33 -22q-72 0 -101.5 -62.5t-29.5 -191.5v-291q0 -128 -32 -192.5t-129 -92.5v-4
q97 -28 129 -92t32 -192v-291q0 -129 29.5 -191.5t101.5 -62.5q33 0 33 -23q0 -22 -29 -22q-124 0 -188.5 69.5t-64.5 241.5z" />
    <glyph glyph-name="bar" unicode="|" horiz-adv-x="454" 
d="M279 -512h-103v2048h103v-2048z" />
    <glyph glyph-name="braceright" unicode="}" horiz-adv-x="681" 
d="M406 1139v-312q0 -98 20 -153t74 -66q61 -13 61 -35q0 -13 -14 -20.5t-47 -13.5q-54 -11 -74 -66.5t-20 -153.5v-311q0 -172 -65 -241.5t-189 -69.5q-29 0 -29 22q0 23 33 23q72 0 101.5 62.5t29.5 191.5v291q0 128 32.5 192t129.5 92v4q-97 28 -129.5 92.5t-32.5 192.5
v291q0 129 -29.5 191.5t-101.5 62.5q-33 0 -33 22q0 23 29 23q124 0 189 -69.5t65 -241.5z" />
    <glyph glyph-name="asciitilde" unicode="~" horiz-adv-x="1228" 
d="M215 389l-74 74q92 176 256 176q81 0 228 -66q12 -5 44 -19.5t48 -21t40.5 -15.5t42.5 -13t34 -4q29 0 55 11.5t49.5 36t38 44.5t37.5 55l73 -74q-23 -32 -38.5 -52t-41 -46.5t-49.5 -41t-57 -25.5t-70 -11q-52 0 -99 17t-109 51q-128 72 -236 72q-61 0 -101.5 -41
t-70.5 -107z" />
    <glyph glyph-name="uni00A0" unicode="&#xa0;" horiz-adv-x="397" 
 />
    <glyph glyph-name="exclamdown" unicode="&#xa1;" horiz-adv-x="454" 
d="M227 979h2q35 0 56.5 -30t21.5 -68t-22 -68.5t-58 -30.5t-58 30.5t-22 68.5t22 68t58 30zM227 639h2q12 0 16.5 -17t6.5 -63q2 -20 6 -92.5t8 -130.5q41 -544 41 -574q0 -66 -16 -94t-64 -28t-64 28t-16 94q0 30 41 574q13 196 13 207q3 58 8 77t18 19z" />
    <glyph glyph-name="cent" unicode="&#xa2;" 
d="M373 260v-266q0 -15 -5 -21t-20 -6q-14 0 -19 5.5t-5 19.5v268q-65 4 -116.5 38t-81.5 86.5t-45 113t-15 123.5q0 159 71 271.5t187 137.5v258q0 16 4.5 21.5t19.5 5.5t20 -5.5t5 -19.5v-252q86 0 131 -20q30 -15 36.5 -25t6.5 -43q0 -17 -2.5 -56t-3.5 -56
q-2 -37 -31 -37q-12 0 -21 16t-26 62l-3 7.5t-2.5 6.5t-2.5 8q-14 40 -32 59t-50 23v-645q24 0 45 6q37 9 62.5 35t35 52t19.5 46.5t20 20.5t13 -5t3 -18q0 -81 -56 -143.5t-142 -71.5zM324 340v641q-66 -15 -109 -98t-43 -201q0 -150 42 -236t110 -106z" />
    <glyph glyph-name="sterling" unicode="&#xa3;" 
d="M303 590h-276q-14 0 -18.5 3t-4.5 13q0 14 8.5 25.5t20.5 11.5h243q-60 96 -91 173t-31 161q0 81 37 157.5t109 128.5t161 52q66 0 127 -26t61 -58q0 -23 -2 -51t-7 -65.5t-17 -62t-29 -24.5q-21 0 -32 23.5t-17.5 57t-16 67.5t-37 57.5t-71.5 23.5q-156 0 -156 -204
q0 -35 9 -75.5t19.5 -71.5t31.5 -75t33 -66t37.5 -66.5t31.5 -55.5h242q30 0 30 -18q0 -13 -7.5 -24t-18.5 -11h-217q13 -23 18 -33t14 -45t9 -74q0 -60 -17.5 -115.5t-35 -87t-17.5 -32.5q0 -2 1 -4t3.5 -4.5t5 -4.5l7.5 -6t8.5 -6.5l10.5 -7.5t11 -8q38 -29 56.5 -42
t55 -29.5t66.5 -16.5q52 0 90.5 33t38.5 100q0 25 -15 40t-33 21t-33 23t-15 45q0 31 20 52.5t46 21.5q38 0 64 -34.5t26 -86.5q0 -73 -27 -143t-85.5 -120.5t-135.5 -50.5q-43 0 -84.5 17.5t-66.5 38t-45.5 38t-26.5 17.5t-26 -18.5t-45.5 -41t-75.5 -41t-109 -18.5
q-80 0 -139.5 43t-59.5 111q0 82 67 131t169 49q50 0 104 -17t88 -34t35 -17q8 0 14 29.5t6 71.5q0 123 -94 256zM20 133v-2q0 -46 38 -78.5t96 -32.5q42 0 87 26t70 52.5t25 34.5t-29.5 36t-77 54.5t-86.5 26.5q-56 0 -89.5 -31t-33.5 -86z" />
    <glyph glyph-name="currency" unicode="&#xa4;" 
d="M-14 143l-78 78l174 176q-80 96 -80 240q0 67 22 130t58 107l-174 175l78 77l174 -174q100 80 237 80q69 0 133 -22t109 -58l174 174l78 -77l-174 -175q36 -44 58 -107t22 -130q0 -143 -80 -240l174 -176l-78 -78l-174 176q-101 -81 -242 -81q-143 0 -237 81zM397 940h-2
q-122 0 -209.5 -91t-87.5 -212q0 -123 88 -215t211 -92q126 0 214.5 92t88.5 215q0 122 -88.5 212.5t-214.5 90.5z" />
    <glyph glyph-name="yen" unicode="&#xa5;" 
d="M465 537v-402q0 -78 55 -86q6 -1 16.5 -2.5t16.5 -2t14 -2.5t12.5 -4t9.5 -5t7 -7t2 -10q0 -16 -10.5 -20t-38.5 -4q-13 0 -61 4t-87 4q-41 0 -97.5 -4t-74.5 -4q-26 0 -33.5 5.5t-7.5 18.5q0 14 18 21t60 12q39 4 51.5 23.5t12.5 74.5v390h-287q-7 0 -9.5 2.5t-2.5 9.5
v33q0 8 2.5 10t9.5 2h279q-9 23 -29 68t-29 67h-221q-7 0 -9.5 2.5t-2.5 9.5v33q0 8 2.5 10t9.5 2h197q-120 273 -160 359q-23 49 -38 65t-38 23q-4 1 -12 2.5t-11.5 2.5t-9 3t-8 4.5t-4.5 6t-2 8.5q0 14 9 22t24 8q20 0 70.5 -4t74.5 -4q33 0 86 4t62 4q16 0 28.5 -7
t12.5 -21q0 -10 -5 -15t-11 -6.5t-19.5 -3.5t-22.5 -4q-35 -9 -45 -17.5t-10 -29.5q0 -24 88 -232q41 -98 65 -153t38 -83t20 -35t12 -7q9 0 18.5 15.5t38.5 78.5q10 21 16 34t17.5 37.5t22.5 47.5q117 244 117 295q0 21 -16 31.5t-64 17.5q-43 6 -43 24q0 15 10 24t27 9
q20 0 61 -4t61 -4q29 0 66 4t51 4q23 0 23 -28q0 -5 -0.5 -8.5t-2.5 -6.5l-3 -4.5t-4.5 -3t-5 -2t-7.5 -2t-8 -2.5q-30 -8 -49.5 -29t-52.5 -88q-43 -89 -154 -330h199q8 0 10 -2t2 -10v-33q0 -9 -2 -10.5t-10 -1.5h-226q-9 -22 -28.5 -67t-28.5 -68h283q8 0 10 -2t2 -10
v-33q0 -9 -2 -10.5t-10 -1.5h-287z" />
    <glyph glyph-name="brokenbar" unicode="&#xa6;" horiz-adv-x="454" 
d="M279 666h-103v716h103v-716zM279 -358h-103v716h103v-716z" />
    <glyph glyph-name="section" unicode="&#xa7;" horiz-adv-x="1024" 
d="M598 174l-4 -4q87 -55 144 -131.5t57 -165.5q0 -128 -85 -196t-208 -68q-59 0 -120 23.5t-106 72.5t-45 111q0 41 27 72.5t66 31.5q43 0 67.5 -24t24.5 -68q0 -27 -32 -62t-32 -42q0 -28 48.5 -53t105.5 -25q86 0 137 46.5t51 125.5q0 37 -19 74t-56.5 75t-75 69.5
t-91.5 73.5q-20 15 -30 23q-64 50 -103.5 85t-84 83.5t-66 97.5t-21.5 99q0 51 13.5 92t33 67t49 44.5t53.5 27t56 13.5t46.5 5.5t33.5 0.5l2 6q-59 44 -100 85t-73 102.5t-32 125.5q0 104 76 173t193 69q120 0 194 -54t74 -141q0 -49 -25 -78.5t-73 -29.5q-34 0 -60 23
t-26 63q0 29 11 48.5t23.5 26.5t23.5 15t11 18q0 30 -37.5 51t-101.5 21q-90 0 -136 -44t-46 -120q0 -17 4.5 -33.5t15 -34.5t20.5 -33t29.5 -35t33 -33t40 -35t41 -34t45.5 -37t45 -36q61 -48 103 -85.5t85 -86.5t65 -99.5t22 -101.5q0 -126 -74 -188t-207 -62zM248 565v-2
q0 -60 35.5 -116t142.5 -146q61 -53 100.5 -71.5t83.5 -18.5q83 0 125.5 42.5t42.5 117.5q0 51 -26 95.5t-93 106.5q-147 138 -266 138q-65 0 -105 -42t-40 -104z" />
    <glyph glyph-name="dieresis" unicode="&#xa8;" horiz-adv-x="454" 
d="M68 1092h-2q-37 0 -59.5 27.5t-22.5 64.5q0 41 22 66.5t62 25.5q37 0 60.5 -27t23.5 -65t-23.5 -65t-60.5 -27zM387 1092h-2q-37 0 -59.5 27.5t-22.5 64.5q0 41 22 66.5t62 25.5q37 0 60.5 -27t23.5 -65t-23.5 -65t-60.5 -27z" />
    <glyph glyph-name="copyright" unicode="&#xa9;" horiz-adv-x="1638" 
d="M1544 715v-2q0 -198 -97 -368t-264 -270t-364 -100q-147 0 -281 59t-231.5 158.5t-155 236t-57.5 286.5q0 201 97.5 372t264.5 271t363 100q197 0 364 -99.5t264 -270.5t97 -373zM197 715v-2q0 -127 50 -247.5t133.5 -210t199 -144t239.5 -54.5q166 0 310.5 92
t228.5 243.5t84 322.5q0 173 -83.5 325t-228 244t-311.5 92q-125 0 -240.5 -54.5t-198.5 -145t-133 -212t-50 -249.5zM1180 528l-35 -145q-4 -17 -15.5 -25t-37.5 -16q-112 -35 -228 -35q-94 0 -173 23.5t-143 72.5t-100 133t-36 197q0 69 30 140t85 133t147 101.5t203 39.5
q53 0 97.5 -6.5t66 -13t59.5 -19.5q45 -16 45 -45v-150h-37q-2 77 -60.5 129t-181.5 52q-144 0 -226.5 -97t-84.5 -256q-2 -178 81.5 -279.5t248.5 -101.5q196 0 256 168h39z" />
    <glyph glyph-name="ordfeminine" unicode="&#xaa;" horiz-adv-x="526" 
d="M434 1231v-389q0 -39 35 -39q7 0 12 1.5t9 6.5t6 7t5.5 9.5t4.5 8.5q10 16 22 16q13 0 13 -14q0 -20 -15 -47q-32 -58 -92 -58q-36 0 -55 23q-7 8 -12.5 21t-9.5 20.5t-9 7.5q-4 0 -9.5 -4t-16 -12t-17.5 -13q-68 -47 -135 -47q-46 0 -73 29t-27 82q0 49 29 92t110 96
q23 15 53 33.5t37 23.5q26 18 33.5 31t7.5 35v68q0 26 -10 36.5t-35 10.5q-51 0 -78.5 -29.5t-44.5 -85.5q-21 -64 -80 -64q-29 0 -29 43q0 59 76.5 122t188.5 63q60 0 82.5 -17.5t23.5 -66.5zM223 799h2q31 0 73 33t42 81v107q0 20 -4 20q-5 0 -30 -14.5t-54 -36.5
q-80 -60 -80 -135q0 -55 51 -55z" />
    <glyph glyph-name="guillemotleft" unicode="&#xab;" horiz-adv-x="909" 
d="M485 205h-82q-43 0 -67 39l-84 139q-13 22 -37 49q-12 12 -12 19q0 6 12 18q24 27 37 49l84 139q24 39 67 39h82q21 0 21 -8t-25 -8q-18 0 -34.5 -16.5t-36.5 -49.5l-76 -125q-12 -21 -29 -38q16 -16 29 -39l76 -125q20 -33 36.5 -49.5t34.5 -16.5q25 0 25 -8t-21 -8z
M686 205h-82q-43 0 -67 39l-84 139q-13 22 -37 49q-13 13 -13 19q0 5 13 18q24 27 37 49l84 139q24 39 67 39h82q21 0 21 -8t-25 -8q-31 0 -72 -66l-75 -125q-12 -21 -29 -38q16 -16 29 -39l75 -125q41 -66 72 -66q25 0 25 -8t-21 -8z" />
    <glyph glyph-name="logicalnot" unicode="&#xac;" horiz-adv-x="1228" 
d="M1028 221v445h-930v102h1032v-547h-102z" />
    <glyph glyph-name="uni00AD" unicode="&#xad;" horiz-adv-x="569" 
d="M113 512h379q28 0 28 -10q0 -9 -31 -68q-10 -20 -26 -20h-387q-27 0 -27 10q0 5 29 65q4 10 6 13t9 6.5t20 3.5z" />
    <glyph glyph-name="registered" unicode="&#xae;" horiz-adv-x="1638" 
d="M1544 715v-2q0 -198 -97 -368t-264 -270t-364 -100q-147 0 -281 59t-231.5 158.5t-155 236t-57.5 286.5q0 201 97.5 372t264.5 271t363 100q197 0 364 -99.5t264 -270.5t97 -373zM197 715v-2q0 -127 50 -247.5t133.5 -210t199 -144t239.5 -54.5q166 0 310.5 92
t228.5 243.5t84 322.5q0 173 -83.5 325t-228 244t-311.5 92q-125 0 -240.5 -54.5t-198.5 -145t-133 -212t-50 -249.5zM475 1094v28h365q67 0 122.5 -19.5t93.5 -64.5t38 -108q0 -84 -49 -144t-127 -86l124 -170q48 -64 97 -115.5t80 -68.5v-16h-117q-22 0 -41.5 13.5
t-44 46.5t-47 68.5t-65 101t-81.5 122.5h-118v-211q0 -74 15 -89.5t93 -21.5v-30h-338v30q78 6 93.5 22t15.5 89v510q0 75 -15.5 91t-93.5 22zM705 1085v-368h104q81 0 122.5 52.5t41.5 150.5q0 87 -47.5 126t-124.5 39h-96z" />
    <glyph glyph-name="macron" unicode="&#xaf;" horiz-adv-x="454" 
d="M23 1212h430q26 0 26 -10q0 -17 -12 -45q-9 -21 -15 -25t-28 -4h-432q-17 0 -17 9q0 2 15 43q1 4 3 10.5t2 8.5t2 5.5t3.5 4t5 2t7 1.5h10.5z" />
    <glyph glyph-name="degree" unicode="&#xb0;" horiz-adv-x="819" 
d="M410 1315h2q122 0 206 -85t84 -208t-84.5 -208t-207.5 -85t-208 85t-85 208t85 208t208 85zM410 1253h-2q-90 0 -155 -69t-65 -162t65.5 -162t156.5 -69t156 69t65 162t-65 162t-156 69z" />
    <glyph glyph-name="plusminus" unicode="&#xb1;" horiz-adv-x="1228" 
d="M563 655v381h103v-381h464v-102h-464v-381h-103v381h-465v102h465zM98 -25v103h1032v-103h-1032z" />
    <glyph glyph-name="twosuperior" unicode="&#xb2;" horiz-adv-x="477" 
d="M436 717v-170q0 -16 -4.5 -21.5t-15.5 -5.5q-32 0 -95 2t-94 2t-91 -2t-91 -2q-20 0 -20 27q0 6 26 47q19 30 72 104t61 86q72 103 103.5 182.5t31.5 166.5q0 64 -30 98.5t-86 34.5q-58 0 -94.5 -46.5t-36.5 -109.5q0 -12 -7.5 -21.5t-15.5 -9.5q-22 0 -22 33
q0 78 54 140.5t142 62.5q100 0 152.5 -49.5t52.5 -141.5q0 -70 -37.5 -133.5t-145.5 -200.5q-6 -8 -9.5 -12.5t-8.5 -11t-10 -12.5q-12 -15 -28.5 -36.5t-24.5 -32.5t-17 -24t-12.5 -21t-3.5 -15q0 -11 53 -11h92q98 0 115 91q5 28 10.5 40.5t16.5 12.5q10 0 14 -9t4 -32z
" />
    <glyph glyph-name="threesuperior" unicode="&#xb3;" horiz-adv-x="477" 
d="M186 956l7 -6q20 6 65 6q74 0 134.5 -66.5t60.5 -170.5q0 -57 -21 -114.5t-57.5 -103.5t-91.5 -75t-119 -29t-104 25t-40 61q0 25 12.5 40.5t35.5 15.5q44 0 51 -45q5 -30 18 -43t49 -13q69 0 117.5 68.5t48.5 169.5q0 99 -44 161t-118 62q-32 0 -59 -13.5t-43 -27.5
t-22 -14q-17 0 -17 22q0 12 10.5 25t42.5 39q5 4 35 28.5t39 33t33.5 31t34 37t23.5 37t19 45t5 46.5q0 35 -21.5 56.5t-60.5 21.5q-36 0 -67.5 -28.5t-41.5 -72.5q-6 -24 -12 -31.5t-16 -7.5q-21 0 -21 23q0 55 52.5 110.5t140.5 55.5q70 0 112.5 -31.5t42.5 -95.5
q0 -81 -75 -135q-24 -18 -71.5 -50.5t-66.5 -46.5z" />
    <glyph glyph-name="acute" unicode="&#xb4;" horiz-adv-x="454" 
d="M94 1063h-2q-12 0 -12 14q0 7 7.5 15.5t19 17.5t12.5 10l243 209q72 62 105 62q23 0 36 -15t13 -39q0 -6 -1.5 -12t-5.5 -12t-7.5 -11t-11 -11t-12 -9.5t-14 -9.5t-14 -9t-15.5 -9.5t-15 -8.5l-268 -158q-43 -24 -58 -24z" />
    <glyph glyph-name="mu" unicode="&#xb5;" horiz-adv-x="909" 
d="M264 854v-616q0 -81 46.5 -126.5t121.5 -45.5q98 0 168 73q45 52 45 111v555q0 38 -10.5 53t-46.5 19q-8 1 -18 2l-15 1.5t-11.5 1t-9.5 1.5t-6.5 3t-4.5 5t-2 6.5t-1 9.5q0 10 9 18.5t26 8.5q15 0 43 -1t43 -1q17 0 48 1t48 1t24 -8.5t7 -38.5v-78v-614q0 -56 9 -75
t38 -22q34 -3 44.5 -7.5t10.5 -16.5q0 -17 -39 -31q-40 -16 -88 -37t-55 -24q-18 -7 -20 -7q-5 0 -9 7t-4 14v92q0 27 -14 27q-9 0 -29 -17q-1 0 -19 -16.5t-25 -21.5t-26.5 -19.5t-34 -21t-35.5 -15.5t-43 -12.5t-46 -3.5q-108 0 -170 96l-4 -4v-51q0 -83 20.5 -180.5
t20.5 -149.5q0 -62 -19 -101.5t-55 -39.5q-74 0 -74 141q0 52 19.5 149.5t19.5 180.5v192v594q0 32 -12 45.5t-45 16.5q-31 3 -42 9t-11 19q0 12 10.5 20.5t32.5 8.5q16 0 48 -1t48 -1q10 0 30.5 1t30.5 1q23 0 28 -16t5 -64z" />
    <glyph glyph-name="paragraph" unicode="&#xb6;" horiz-adv-x="1228" 
d="M584 1282h448q43 0 43 -22q0 -27 -41 -27q-28 0 -49 -3.5t-35.5 -8t-23.5 -15.5t-14.5 -19.5t-7.5 -28t-2.5 -32t-0.5 -39.5v-1415h-102v1549h-121v-1549h-103v789q-85 0 -156.5 24.5t-119 65t-80.5 95t-48 112.5t-15 119q0 72 28 143t80 130t135.5 95.5t184.5 36.5z" />
    <glyph glyph-name="periodcentered" unicode="&#xb7;" horiz-adv-x="397" 
d="M199 420h-2q-35 0 -56.5 30t-21.5 68t22 68t58 30t58 -30t22 -68t-22 -68t-58 -30z" />
    <glyph glyph-name="cedilla" unicode="&#xb8;" horiz-adv-x="454" 
d="M209 0h53l-92 -123q36 4 53 4q46 0 85 -10t71.5 -42.5t32.5 -84.5q0 -73 -60 -115.5t-133 -42.5q-21 0 -47.5 4t-57.5 12.5t-52 26t-21 41.5q0 16 10.5 29.5t26.5 13.5q17 0 31.5 -14.5t24.5 -31.5t32 -31.5t53 -14.5q43 0 76 30t33 73q0 102 -129 102q-19 0 -47 -3
t-41 -3q-17 0 -17 20q0 4 5 12.5t13 18.5l7 10z" />
    <glyph glyph-name="onesuperior" unicode="&#xb9;" horiz-adv-x="477" 
d="M301 1290v-637q0 -55 12 -71.5t52 -16.5q43 0 43 -28q0 -10 -6.5 -13.5t-24.5 -3.5q-21 0 -62 2t-61 2q-22 0 -61 -2t-56 -2q-20 0 -26.5 4.5t-6.5 16.5q0 24 31 24q38 0 52 19t14 69v529q0 41 -17 41q-9 0 -43.5 -15.5t-40.5 -15.5q-18 0 -18 20q0 9 29 27q52 32 151 70
q15 6 23 6q16 0 16 -25z" />
    <glyph glyph-name="ordmasculine" unicode="&#xba;" horiz-adv-x="526" 
d="M262 733h-2q-99 0 -163 84.5t-64 206.5q0 120 64.5 205.5t164.5 85.5q102 0 167 -85.5t65 -205.5q0 -123 -65 -207t-167 -84zM262 774h2q56 0 89.5 67.5t33.5 182.5t-34 182.5t-91 67.5q-56 0 -89.5 -67.5t-33.5 -182.5t33.5 -182.5t89.5 -67.5z" />
    <glyph glyph-name="guillemotright" unicode="&#xbb;" horiz-adv-x="909" 
d="M223 696h82q44 0 68 -39l84 -139q13 -22 37 -49q12 -12 12 -18q0 -7 -12 -19q-24 -27 -37 -49l-84 -139q-24 -39 -68 -39h-82q-20 0 -20 8t24 8q31 0 72 66l76 125q15 26 28 39q-15 15 -28 38l-76 125q-41 66 -72 66q-24 0 -24 8t20 8zM424 696h82q43 0 67 -39l84 -139
q13 -22 37 -49q13 -13 13 -18q0 -6 -13 -19q-24 -27 -37 -49l-84 -139q-24 -39 -67 -39h-82q-21 0 -21 8t25 8q31 0 72 66l75 125q13 23 29 39q-17 17 -29 38l-75 125q-41 66 -72 66q-25 0 -25 8t21 8z" />
    <glyph glyph-name="onequarter" unicode="&#xbc;" horiz-adv-x="1193" 
d="M150 -23v3q0 7 26 49l797 1265q15 21 35 21h20q21 0 21 -10q0 -9 -27 -52l-797 -1265q-15 -21 -35 -21h-20q-20 0 -20 10zM301 1290v-637q0 -55 12 -71.5t52 -16.5q43 0 43 -28q0 -10 -6.5 -13.5t-24.5 -3.5q-21 0 -62 2t-61 2q-22 0 -61 -2t-56 -2q-20 0 -26.5 4.5
t-6.5 16.5q0 24 31 24q38 0 52 19t14 69v529q0 41 -17 41q-9 0 -43.5 -15.5t-40.5 -15.5q-18 0 -18 20q0 9 29 27q52 32 151 70q15 6 23 6q16 0 16 -25zM1055 592v-268q0 -12 4.5 -15.5t17.5 -3.5h53q11 0 14 -5t3 -24q0 -15 -3.5 -19.5t-15.5 -4.5h-51q-13 0 -17.5 -3.5
t-4.5 -15.5v-120q0 -43 8.5 -56t36.5 -18q27 -4 35 -9t8 -16t-7 -14.5t-26 -3.5q-10 0 -51.5 2t-61.5 2q-19 0 -54.5 -2t-51.5 -2q-25 0 -25 18q0 19 49 27q23 3 31 15.5t8 54.5v122q0 11 -4 15t-14 4h-238q-26 0 -26 18q0 37 14 62q243 398 315 520q17 28 23.5 36.5
t13.5 8.5h21q12 0 12 -6q0 -4 -24 -47q-9 -15 -72 -117t-130 -211.5t-95 -159.5q-2 -4 -7.5 -14t-9.5 -17t-4 -10q0 -10 21 -10h184q11 0 15.5 4t4.5 15v243q0 15 3 19.5t14 7.5q48 16 73 16q11 0 11 -18z" />
    <glyph glyph-name="onehalf" unicode="&#xbd;" horiz-adv-x="1193" 
d="M150 -23v3q0 7 26 49l797 1265q15 21 35 21h20q21 0 21 -10q0 -9 -27 -52l-797 -1265q-15 -21 -35 -21h-20q-20 0 -20 10zM301 1290v-637q0 -55 12 -71.5t52 -16.5q43 0 43 -28q0 -10 -6.5 -13.5t-24.5 -3.5q-21 0 -62 2t-61 2q-22 0 -61 -2t-56 -2q-20 0 -26.5 4.5
t-6.5 16.5q0 24 31 24q38 0 52 19t14 69v529q0 41 -17 41q-9 0 -43.5 -15.5t-40.5 -15.5q-18 0 -18 20q0 9 29 27q52 32 151 70q15 6 23 6q16 0 16 -25zM1153 193v-170q0 -16 -4.5 -21.5t-15.5 -5.5q-31 0 -94 2t-95 2q-30 0 -91 -2t-91 -2q-21 0 -21 27q0 5 27 47
q19 30 72 104t61 86q72 104 103.5 183t31.5 165q0 64 -30 98.5t-86 34.5q-58 0 -95 -46.5t-37 -108.5q0 -12 -7 -21.5t-15 -9.5q-23 0 -23 33q0 78 54 140.5t143 62.5q100 0 152.5 -49.5t52.5 -141.5q0 -38 -9.5 -71t-39.5 -80.5t-53.5 -79t-83.5 -108.5q-16 -21 -25 -32
q-12 -15 -28.5 -36.5t-24.5 -32.5t-17 -24t-12.5 -21t-3.5 -15q0 -10 53 -10h92q99 0 115 90q5 28 10.5 40.5t16.5 12.5q10 0 14 -8.5t4 -31.5z" />
    <glyph glyph-name="threequarters" unicode="&#xbe;" horiz-adv-x="1193" 
d="M186 956l7 -6q20 6 65 6q74 0 134.5 -66.5t60.5 -170.5q0 -57 -21 -114.5t-57.5 -103.5t-91.5 -75t-119 -29t-104 25t-40 61q0 25 12.5 40.5t35.5 15.5q44 0 51 -45q5 -30 18 -43t49 -13q69 0 117.5 68.5t48.5 169.5q0 99 -44 161t-118 62q-32 0 -59 -13.5t-43 -27.5
t-22 -14q-17 0 -17 22q0 12 10.5 25t42.5 39q5 4 35 28.5t39 33t33.5 31t34 37t23.5 37t19 45t5 46.5q0 35 -21.5 56.5t-60.5 21.5q-36 0 -67.5 -28.5t-41.5 -72.5q-6 -24 -12 -31.5t-16 -7.5q-21 0 -21 23q0 55 52.5 110.5t140.5 55.5q70 0 112.5 -31.5t42.5 -95.5
q0 -81 -75 -135q-24 -18 -71.5 -50.5t-66.5 -46.5zM150 -23v3q0 7 26 49l797 1265q15 21 35 21h20q21 0 21 -10q0 -9 -27 -52l-797 -1265q-15 -21 -35 -21h-20q-20 0 -20 10zM1055 592v-268q0 -12 4.5 -15.5t17.5 -3.5h53q11 0 14 -5t3 -24q0 -15 -3.5 -19.5t-15.5 -4.5h-51
q-13 0 -17.5 -3.5t-4.5 -15.5v-120q0 -43 8.5 -56t36.5 -18q27 -4 35 -9t8 -16t-7 -14.5t-26 -3.5q-10 0 -51.5 2t-61.5 2q-19 0 -54.5 -2t-51.5 -2q-25 0 -25 18q0 19 49 27q23 3 31 15.5t8 54.5v122q0 11 -4 15t-14 4h-238q-26 0 -26 18q0 37 14 62q243 398 315 520
q17 28 23.5 36.5t13.5 8.5h21q12 0 12 -6q0 -4 -24 -47q-9 -15 -72 -117t-130 -211.5t-95 -159.5q-2 -4 -7.5 -14t-9.5 -17t-4 -10q0 -10 21 -10h184q11 0 15.5 4t4.5 15v243q0 15 3 19.5t14 7.5q48 16 73 16q11 0 11 -18z" />
    <glyph glyph-name="questiondown" unicode="&#xbf;" horiz-adv-x="569" 
d="M342 782h-2q-35 0 -56.5 30.5t-21.5 68.5t22 68t58 30t58 -30t22 -68t-22 -68.5t-58 -30.5zM457 -229v-2q0 -38 -2 -54q-6 -44 -37 -59.5t-111 -15.5q-112 0 -193 94.5t-81 245.5q0 57 10 103t33 87t44.5 69.5t59.5 74.5q4 5 6 7t5 6t6 7q71 87 86 108q23 32 27.5 43.5
t4.5 40.5q0 49 1 74.5t4.5 39t7 16.5t12.5 3q21 0 29 -45q8 -49 8 -200q0 -45 -4 -68.5t-9.5 -32t-21.5 -26.5q-112 -120 -165.5 -206.5t-53.5 -170.5q0 -92 38 -152.5t89 -60.5q36 0 58.5 30.5t41.5 82.5q26 81 41 97q10 11 21 11q28 0 36.5 -26.5t8.5 -120.5z" />
    <glyph glyph-name="Agrave" unicode="&#xc0;" 
d="M483 455h-235q-26 0 -38 -17.5t-30 -89.5q-53 -219 -53 -250q0 -22 12 -36t47 -19q5 -1 15.5 -2.5t15 -2t11.5 -2t10.5 -3.5t7 -4.5t5 -6t1.5 -8.5q0 -22 -35 -22q-16 0 -58 4t-67 4t-52 -2t-44 -4t-19 -2q-22 0 -22 22q0 20 27 27q47 10 57 43q120 386 299 1102
q16 65 16 67q4 21 7 32t10.5 20.5t19.5 9.5q16 0 22 -10t13 -39q53 -190 159.5 -572t159.5 -573q18 -68 52 -80q4 -1 16 -4.5t17.5 -5t13.5 -5t11 -8t3 -10.5q0 -16 -43 -16q-22 0 -61.5 4t-63.5 4q-28 0 -77.5 -4t-67.5 -4q-35 0 -35 22q0 27 53 27q25 0 39 10.5t14 40.5
q0 11 -65 260q-18 66 -29.5 84.5t-38.5 18.5zM270 504h189q27 0 34 3.5t7 12.5q0 14 -8 45q-5 19 -22 77t-39 138.5t-44 167.5q-10 41 -29 41q-10 0 -14.5 -10.5t-15.5 -56.5q-79 -322 -80 -324q-19 -77 -19 -80q0 -5 2 -7.5t11.5 -4.5t27.5 -2zM535 1393v-2q0 -5 -4.5 -9
t-10.5 -4q-12 0 -57 25l-268 158q-4 2 -19 11t-20 12.5t-17.5 11.5t-17 13t-11.5 12.5t-9.5 14.5t-2.5 15q0 24 13.5 39.5t35.5 15.5q17 0 39 -12t32 -20t34 -29l244 -209q1 -1 12.5 -10t19 -17.5t7.5 -15.5z" />
    <glyph glyph-name="Aacute" unicode="&#xc1;" 
d="M483 455h-235q-26 0 -38 -17.5t-30 -89.5q-53 -219 -53 -250q0 -22 12 -36t47 -19q5 -1 15.5 -2.5t15 -2t11.5 -2t10.5 -3.5t7 -4.5t5 -6t1.5 -8.5q0 -22 -35 -22q-16 0 -58 4t-67 4t-52 -2t-44 -4t-19 -2q-22 0 -22 22q0 20 27 27q47 10 57 43q120 386 299 1102
q16 65 16 67q4 21 7 32t10.5 20.5t19.5 9.5q16 0 22 -10t13 -39q53 -190 159.5 -572t159.5 -573q18 -68 52 -80q4 -1 16 -4.5t17.5 -5t13.5 -5t11 -8t3 -10.5q0 -16 -43 -16q-22 0 -61.5 4t-63.5 4q-28 0 -77.5 -4t-67.5 -4q-35 0 -35 22q0 27 53 27q25 0 39 10.5t14 40.5
q0 11 -65 260q-18 66 -29.5 84.5t-38.5 18.5zM270 504h189q27 0 34 3.5t7 12.5q0 14 -8 45q-5 19 -22 77t-39 138.5t-44 167.5q-10 41 -29 41q-10 0 -14.5 -10.5t-15.5 -56.5q-79 -322 -80 -324q-19 -77 -19 -80q0 -5 2 -7.5t11.5 -4.5t27.5 -2zM254 1378h-2q-5 0 -8.5 4.5
t-3.5 10.5q0 7 7.5 15.5t19 17.5t12.5 10l243 209q71 61 105 61q23 0 36 -14.5t13 -38.5q0 -6 -1.5 -12t-5.5 -12t-7.5 -11t-11 -11t-12 -9.5t-14 -9.5t-14 -9t-15.5 -9.5t-15 -8.5l-269 -158q-45 -25 -57 -25z" />
    <glyph glyph-name="Acircumflex" unicode="&#xc2;" 
d="M483 455h-235q-26 0 -38 -17.5t-30 -89.5q-53 -219 -53 -250q0 -22 12 -36t47 -19q5 -1 15.5 -2.5t15 -2t11.5 -2t10.5 -3.5t7 -4.5t5 -6t1.5 -8.5q0 -22 -35 -22q-16 0 -58 4t-67 4t-52 -2t-44 -4t-19 -2q-22 0 -22 22q0 20 27 27q47 10 57 43q120 386 299 1102
q16 65 16 67q4 21 7 32t10.5 20.5t19.5 9.5q16 0 22 -10t13 -39q53 -190 159.5 -572t159.5 -573q18 -68 52 -80q4 -1 16 -4.5t17.5 -5t13.5 -5t11 -8t3 -10.5q0 -16 -43 -16q-22 0 -61.5 4t-63.5 4q-28 0 -77.5 -4t-67.5 -4q-35 0 -35 22q0 27 53 27q25 0 39 10.5t14 40.5
q0 11 -65 260q-18 66 -29.5 84.5t-38.5 18.5zM270 504h189q27 0 34 3.5t7 12.5q0 14 -8 45q-5 19 -22 77t-39 138.5t-44 167.5q-10 41 -29 41q-10 0 -14.5 -10.5t-15.5 -56.5q-79 -322 -80 -324q-19 -77 -19 -80q0 -5 2 -7.5t11.5 -4.5t27.5 -2zM367 1718h41q34 0 51 -26
l184 -273q12 -17 12 -30q0 -11 -22 -11q-20 0 -45 25l-201 215l-201 -215q-25 -25 -45 -25q-22 0 -22 11q0 13 12 30l184 273q17 26 52 26z" />
    <glyph glyph-name="Atilde" unicode="&#xc3;" 
d="M483 455h-235q-26 0 -38 -17.5t-30 -89.5q-53 -219 -53 -250q0 -22 12 -36t47 -19q5 -1 15.5 -2.5t15 -2t11.5 -2t10.5 -3.5t7 -4.5t5 -6t1.5 -8.5q0 -22 -35 -22q-16 0 -58 4t-67 4t-52 -2t-44 -4t-19 -2q-22 0 -22 22q0 20 27 27q47 10 57 43q120 386 299 1102
q16 65 16 67q4 21 7 32t10.5 20.5t19.5 9.5q16 0 22 -10t13 -39q53 -190 159.5 -572t159.5 -573q18 -68 52 -80q4 -1 16 -4.5t17.5 -5t13.5 -5t11 -8t3 -10.5q0 -16 -43 -16q-22 0 -61.5 4t-63.5 4q-28 0 -77.5 -4t-67.5 -4q-35 0 -35 22q0 27 53 27q25 0 39 10.5t14 40.5
q0 11 -65 260q-18 66 -29.5 84.5t-38.5 18.5zM270 504h189q27 0 34 3.5t7 12.5q0 14 -8 45q-5 19 -22 77t-39 138.5t-44 167.5q-10 41 -29 41q-10 0 -14.5 -10.5t-15.5 -56.5q-79 -322 -80 -324q-19 -77 -19 -80q0 -5 2 -7.5t11.5 -4.5t27.5 -2zM510 1403h-2q-27 0 -58.5 13
t-48 24.5t-45.5 32.5q-3 2 -20.5 14.5t-23.5 16.5t-21.5 13.5t-24.5 13.5t-21.5 7.5t-23.5 3.5q-27 0 -48.5 -30t-35 -60.5t-18.5 -30.5q-10 0 -15.5 5t-5.5 10q0 13 9 39t27 58.5t53 56.5t79 24q28 0 60.5 -13t50 -24t51.5 -35q88 -67 127 -67q27 0 48.5 30t34.5 60t19 30
q19 0 19 -14q0 -13 -9 -39t-26.5 -58.5t-52.5 -56.5t-78 -24z" />
    <glyph glyph-name="Adieresis" unicode="&#xc4;" 
d="M483 455h-235q-26 0 -38 -17.5t-30 -89.5q-53 -219 -53 -250q0 -22 12 -36t47 -19q5 -1 15.5 -2.5t15 -2t11.5 -2t10.5 -3.5t7 -4.5t5 -6t1.5 -8.5q0 -22 -35 -22q-16 0 -58 4t-67 4t-52 -2t-44 -4t-19 -2q-22 0 -22 22q0 20 27 27q47 10 57 43q120 386 299 1102
q16 65 16 67q4 21 7 32t10.5 20.5t19.5 9.5q16 0 22 -10t13 -39q53 -190 159.5 -572t159.5 -573q18 -68 52 -80q4 -1 16 -4.5t17.5 -5t13.5 -5t11 -8t3 -10.5q0 -16 -43 -16q-22 0 -61.5 4t-63.5 4q-28 0 -77.5 -4t-67.5 -4q-35 0 -35 22q0 27 53 27q25 0 39 10.5t14 40.5
q0 11 -65 260q-18 66 -29.5 84.5t-38.5 18.5zM270 504h189q27 0 34 3.5t7 12.5q0 14 -8 45q-5 19 -22 77t-39 138.5t-44 167.5q-10 41 -29 41q-10 0 -14.5 -10.5t-15.5 -56.5q-79 -322 -80 -324q-19 -77 -19 -80q0 -5 2 -7.5t11.5 -4.5t27.5 -2zM227 1407h-2
q-37 0 -59.5 27.5t-22.5 64.5q0 41 22 66.5t62 25.5q37 0 60.5 -27t23.5 -65t-23.5 -65t-60.5 -27zM547 1407h-2q-37 0 -59.5 27.5t-22.5 64.5q0 41 22 66.5t62 25.5q37 0 60.5 -27t23.5 -65t-23.5 -65t-60.5 -27z" />
    <glyph glyph-name="Aring" unicode="&#xc5;" 
d="M483 455h-235q-26 0 -38 -17.5t-30 -89.5q-53 -219 -53 -250q0 -22 12 -36t47 -19q5 -1 15.5 -2.5t15 -2t11.5 -2t10.5 -3.5t7 -4.5t5 -6t1.5 -8.5q0 -22 -35 -22q-16 0 -58 4t-67 4t-52 -2t-44 -4t-19 -2q-22 0 -22 22q0 20 27 27q47 10 57 43q120 386 299 1102
q16 65 16 67q4 21 7 32t10.5 20.5t19.5 9.5q16 0 22 -10t13 -39q53 -190 159.5 -572t159.5 -573q18 -68 52 -80q4 -1 16 -4.5t17.5 -5t13.5 -5t11 -8t3 -10.5q0 -16 -43 -16q-22 0 -61.5 4t-63.5 4q-28 0 -77.5 -4t-67.5 -4q-35 0 -35 22q0 27 53 27q25 0 39 10.5t14 40.5
q0 11 -65 260q-18 66 -29.5 84.5t-38.5 18.5zM270 504h189q27 0 34 3.5t7 12.5q0 14 -8 45q-5 19 -22 77t-39 138.5t-44 167.5q-10 41 -29 41q-10 0 -14.5 -10.5t-15.5 -56.5q-79 -322 -80 -324q-19 -77 -19 -80q0 -5 2 -7.5t11.5 -4.5t27.5 -2zM387 1380h-2
q-82 0 -139.5 58t-57.5 141t58 141t141 58t141 -58t58 -141t-58 -141t-141 -58zM387 1442h2q56 0 95.5 40t39.5 97t-40 97t-97 40t-97 -40t-40 -97t40 -97t97 -40z" />
    <glyph glyph-name="AE" unicode="&#xc6;" horiz-adv-x="1251" 
d="M717 1178v-433q0 -25 6.5 -30.5t34.5 -5.5q101 0 142 18.5t58 71.5q6 17 13 41q10 31 14 38t14 7t13.5 -8.5t3.5 -32.5q0 -28 -4 -82t-4 -82q0 -34 4 -102t4 -97q0 -30 -23 -30q-10 0 -17 13.5t-18 51.5q-24 83 -57 113t-110 30q-36 0 -52 -3.5t-19 -8t-3 -16.5v-449
q0 -141 153 -141q106 0 162 57.5t92 192.5q11 44 18.5 56.5t18.5 12.5q12 0 15.5 -4t3.5 -22q0 -6 1 -65.5t1 -90.5v-125q0 -22 -4 -35t-14 -18.5t-18 -6.5t-24 -1q-25 0 -200 4t-234 4q-51 0 -107.5 -4t-66.5 -4q-35 0 -49 5t-14 21q0 13 12 19.5t41 11.5q47 7 62.5 29.5
t15.5 81.5v471q0 28 -74 28h-125q-41 0 -56 -11t-26 -36q-121 -287 -164 -401q-31 -83 -31 -119q0 -40 46 -49q12 -3 41.5 -6.5t40 -8.5t10.5 -16q0 -9 -6 -14t-12 -5.5t-19 -0.5q-7 0 -52 4t-79 4t-74.5 -4t-52.5 -4q-31 0 -31 24t45 27q9 1 16 4t13.5 10t11.5 14
t11.5 22.5t12 28.5t15 38t18.5 45q86 202 163 375t115 254t82.5 173t47.5 99q31 63 31 94q0 28 -33 33q-43 7 -59.5 13t-16.5 20q0 13 13 18.5t45 5.5q33 0 134 -4t175 -4q120 0 231 4t113 4q33 0 40 -13t7 -75q0 -34 -1 -102t-1 -84q0 -55 -21 -55q-7 0 -12 4.5t-9.5 15
t-8.5 22t-11.5 31.5t-15.5 37q-43 94 -103.5 132t-164.5 38q-54 0 -69 -11.5t-15 -51.5zM582 737v406q0 45 -13 45q-8 0 -20 -31q-100 -234 -166 -369q-23 -47 -23 -61q0 -18 41 -18h123q34 0 46 5.5t12 22.5z" />
    <glyph glyph-name="Ccedilla" unicode="&#xc7;" horiz-adv-x="909" 
d="M844 352l-2 -258q0 -28 -5.5 -40t-21.5 -23q-31 -26 -110 -45t-156 -19l-68 -90q36 4 54 4q33 0 63 -6t59.5 -20.5t47.5 -43t18 -67.5q0 -73 -60 -115.5t-133 -42.5q-21 0 -47.5 4t-57.5 12.5t-52 26t-21 41.5q0 16 10.5 29.5t26.5 13.5q17 0 31.5 -14.5t24.5 -31.5
t32 -31.5t53 -14.5q43 0 76 30t33 73q0 102 -129 102q-18 0 -47 -3t-41 -3q-16 0 -16 20q0 5 24 41l70 92q-195 22 -317 200t-122 466q0 305 135.5 490.5t358.5 185.5q82 0 154 -21.5t96 -40.5q14 -14 16 -59q2 -31 2 -164q0 -70 -2.5 -83t-15.5 -13q-14 0 -22 15t-31 85
q-75 232 -226 232q-42 0 -82.5 -19t-80.5 -65t-70.5 -113t-49 -171.5t-18.5 -233.5q0 -141 18 -253.5t48.5 -185.5t72 -121t86.5 -68t95 -20q174 0 227 260q22 112 25 120q6 14 16 14q11 0 16.5 -2.5t10 -16t4.5 -39.5z" />
    <glyph glyph-name="Egrave" unicode="&#xc8;" horiz-adv-x="909" 
d="M172 160v1005q0 33 -9 48t-30 20q-12 3 -27 5.5t-23 3.5t-15.5 4t-11 7.5t-3.5 12.5q0 24 51 24q8 0 109 -4t203 -4q120 0 231 4t113 4q33 0 40 -13t7 -75q0 -58 -1 -121.5t-1 -72.5q0 -30 -5.5 -38.5t-17.5 -8.5q-15 0 -26 32q-6 18 -21 58q-40 105 -106.5 147.5
t-190.5 42.5q-64 0 -100 -8q-31 -7 -31 -47v-441q0 -25 13 -30.5t75 -5.5q101 0 142.5 18.5t58.5 71.5q6 17 13 41q10 31 14 38t14 7t13 -8.5t3 -32.5q0 -28 -4 -82t-4 -80q0 -31 4 -98.5t4 -96.5q0 -30 -18 -30q-10 0 -17 13.5t-16 51.5q-21 81 -55 109t-119 28
q-60 0 -85.5 -4t-30.5 -10t-5 -22v-441q0 -72 43.5 -106.5t138.5 -34.5q73 0 122 13.5t81.5 47t51.5 76t38 113.5q11 44 18.5 56.5t18.5 12.5q8 0 12 -3.5t5 -14.5q4 -40 4 -188v-101q0 -22 -4 -35t-14 -18.5t-18 -6.5t-24 -1q-60 0 -200.5 4t-202.5 4q-45 0 -136.5 -4
t-136.5 -4q-35 0 -49 5t-14 21q0 13 12 19.5t41 11.5q47 7 62.5 29.5t15.5 81.5zM614 1393v-2q0 -5 -4 -9t-10 -4q-12 0 -57 25l-269 158q-4 3 -15 9t-15.5 9t-14 9t-14.5 9.5t-12 9.5t-10.5 10.5t-7.5 10t-5.5 11.5t-1.5 12q0 24 13.5 39.5t35.5 15.5q17 0 39 -12t32 -20
t34 -29l243 -209q1 -1 12.5 -10t19 -17.5t7.5 -15.5z" />
    <glyph glyph-name="Eacute" unicode="&#xc9;" horiz-adv-x="909" 
d="M172 160v1005q0 33 -9 48t-30 20q-12 3 -27 5.5t-23 3.5t-15.5 4t-11 7.5t-3.5 12.5q0 24 51 24q8 0 109 -4t203 -4q120 0 231 4t113 4q33 0 40 -13t7 -75q0 -58 -1 -121.5t-1 -72.5q0 -30 -5.5 -38.5t-17.5 -8.5q-15 0 -26 32q-6 18 -21 58q-40 105 -106.5 147.5
t-190.5 42.5q-64 0 -100 -8q-31 -7 -31 -47v-441q0 -25 13 -30.5t75 -5.5q101 0 142.5 18.5t58.5 71.5q6 17 13 41q10 31 14 38t14 7t13 -8.5t3 -32.5q0 -28 -4 -82t-4 -80q0 -31 4 -98.5t4 -96.5q0 -30 -18 -30q-10 0 -17 13.5t-16 51.5q-21 81 -55 109t-119 28
q-60 0 -85.5 -4t-30.5 -10t-5 -22v-441q0 -72 43.5 -106.5t138.5 -34.5q73 0 122 13.5t81.5 47t51.5 76t38 113.5q11 44 18.5 56.5t18.5 12.5q8 0 12 -3.5t5 -14.5q4 -40 4 -188v-101q0 -22 -4 -35t-14 -18.5t-18 -6.5t-24 -1q-60 0 -200.5 4t-202.5 4q-45 0 -136.5 -4
t-136.5 -4q-35 0 -49 5t-14 21q0 13 12 19.5t41 11.5q47 7 62.5 29.5t15.5 81.5zM334 1378h-2q-5 0 -9 4.5t-4 10.5q0 7 7.5 15.5t19 17.5t12.5 10l244 209q71 61 105 61q23 0 36 -14.5t13 -38.5q0 -7 -2.5 -14t-6 -12.5t-10.5 -12.5t-12 -11.5t-15.5 -11t-16 -10t-18 -10.5
t-16.5 -10l-268 -158q-45 -25 -57 -25z" />
    <glyph glyph-name="Ecircumflex" unicode="&#xca;" horiz-adv-x="909" 
d="M172 160v1005q0 33 -9 48t-30 20q-12 3 -27 5.5t-23 3.5t-15.5 4t-11 7.5t-3.5 12.5q0 24 51 24q8 0 109 -4t203 -4q120 0 231 4t113 4q33 0 40 -13t7 -75q0 -58 -1 -121.5t-1 -72.5q0 -30 -5.5 -38.5t-17.5 -8.5q-15 0 -26 32q-6 18 -21 58q-40 105 -106.5 147.5
t-190.5 42.5q-64 0 -100 -8q-31 -7 -31 -47v-441q0 -25 13 -30.5t75 -5.5q101 0 142.5 18.5t58.5 71.5q6 17 13 41q10 31 14 38t14 7t13 -8.5t3 -32.5q0 -28 -4 -82t-4 -80q0 -31 4 -98.5t4 -96.5q0 -30 -18 -30q-10 0 -17 13.5t-16 51.5q-21 81 -55 109t-119 28
q-60 0 -85.5 -4t-30.5 -10t-5 -22v-441q0 -72 43.5 -106.5t138.5 -34.5q73 0 122 13.5t81.5 47t51.5 76t38 113.5q11 44 18.5 56.5t18.5 12.5q8 0 12 -3.5t5 -14.5q4 -40 4 -188v-101q0 -22 -4 -35t-14 -18.5t-18 -6.5t-24 -1q-60 0 -200.5 4t-202.5 4q-45 0 -136.5 -4
t-136.5 -4q-35 0 -49 5t-14 21q0 13 12 19.5t41 11.5q47 7 62.5 29.5t15.5 81.5zM446 1718h41q35 0 52 -26l184 -273q12 -17 12 -30q0 -11 -22 -11q-20 0 -45 25l-201 215l-201 -215q-25 -25 -45 -25q-22 0 -22 11q0 13 12 30l184 273q17 26 51 26z" />
    <glyph glyph-name="Edieresis" unicode="&#xcb;" horiz-adv-x="909" 
d="M172 160v1005q0 33 -9 48t-30 20q-12 3 -27 5.5t-23 3.5t-15.5 4t-11 7.5t-3.5 12.5q0 24 51 24q8 0 109 -4t203 -4q120 0 231 4t113 4q33 0 40 -13t7 -75q0 -58 -1 -121.5t-1 -72.5q0 -30 -5.5 -38.5t-17.5 -8.5q-15 0 -26 32q-6 18 -21 58q-40 105 -106.5 147.5
t-190.5 42.5q-64 0 -100 -8q-31 -7 -31 -47v-441q0 -25 13 -30.5t75 -5.5q101 0 142.5 18.5t58.5 71.5q6 17 13 41q10 31 14 38t14 7t13 -8.5t3 -32.5q0 -28 -4 -82t-4 -80q0 -31 4 -98.5t4 -96.5q0 -30 -18 -30q-10 0 -17 13.5t-16 51.5q-21 81 -55 109t-119 28
q-60 0 -85.5 -4t-30.5 -10t-5 -22v-441q0 -72 43.5 -106.5t138.5 -34.5q73 0 122 13.5t81.5 47t51.5 76t38 113.5q11 44 18.5 56.5t18.5 12.5q8 0 12 -3.5t5 -14.5q4 -40 4 -188v-101q0 -22 -4 -35t-14 -18.5t-18 -6.5t-24 -1q-60 0 -200.5 4t-202.5 4q-45 0 -136.5 -4
t-136.5 -4q-35 0 -49 5t-14 21q0 13 12 19.5t41 11.5q47 7 62.5 29.5t15.5 81.5zM307 1407h-2q-37 0 -59.5 27.5t-22.5 64.5q0 41 22 66.5t62 25.5q37 0 60.5 -27t23.5 -65t-23.5 -65t-60.5 -27zM627 1407h-2q-37 0 -59.5 27.5t-22.5 64.5q0 41 22 66.5t62 25.5
q37 0 60.5 -27t23.5 -65t-23.5 -65t-60.5 -27z" />
    <glyph glyph-name="Igrave" unicode="&#xcc;" horiz-adv-x="569" 
d="M352 1159v-1003q0 -47 13.5 -73t52.5 -34q5 -1 22.5 -4t24 -5t17 -6t14.5 -10t4 -14q0 -18 -45 -18q-4 0 -18 2t-52 4t-100 2t-99.5 -2t-51.5 -4t-19 -2q-16 0 -22 0.5t-11.5 5.5t-5.5 16q0 7 3.5 12t12.5 9t15 5.5t21.5 4.5t21.5 4q45 10 56 26t11 70v1014
q0 40 -12.5 54.5t-44.5 19.5q-12 2 -26 3.5t-21 2t-15 2t-11.5 3t-7 4.5t-4.5 7t-1 11q0 24 43 24q25 0 81 -4t87 -4q34 0 94 4t80 4q45 0 45 -26q0 -5 -1.5 -9t-5.5 -6.5t-8 -4t-13 -3t-16.5 -2.5t-22.5 -2.5t-27 -3.5q-58 -8 -58 -74zM432 1393v-2q0 -5 -4 -9t-10 -4
q-13 0 -58 25l-268 158q-4 3 -15 9t-15.5 9t-14 9t-14.5 9.5t-12 9.5t-10.5 10.5t-7.5 10t-5.5 11.5t-1.5 12q0 24 13.5 39.5t35.5 15.5q17 0 39 -12t32 -20t34 -29l243 -209q1 -1 12.5 -10t19 -17.5t7.5 -15.5z" />
    <glyph glyph-name="Iacute" unicode="&#xcd;" horiz-adv-x="569" 
d="M352 1159v-1003q0 -47 13.5 -73t52.5 -34q5 -1 22.5 -4t24 -5t17 -6t14.5 -10t4 -14q0 -18 -45 -18q-4 0 -18 2t-52 4t-100 2t-99.5 -2t-51.5 -4t-19 -2q-16 0 -22 0.5t-11.5 5.5t-5.5 16q0 7 3.5 12t12.5 9t15 5.5t21.5 4.5t21.5 4q45 10 56 26t11 70v1014
q0 40 -12.5 54.5t-44.5 19.5q-12 2 -26 3.5t-21 2t-15 2t-11.5 3t-7 4.5t-4.5 7t-1 11q0 24 43 24q25 0 81 -4t87 -4q34 0 94 4t80 4q45 0 45 -26q0 -5 -1.5 -9t-5.5 -6.5t-8 -4t-13 -3t-16.5 -2.5t-22.5 -2.5t-27 -3.5q-58 -8 -58 -74zM152 1378h-2q-5 0 -9 4.5t-4 10.5
q0 7 7.5 15.5t19 17.5t12.5 10l244 209q23 20 34 28.5t32.5 20.5t37.5 12q23 0 36 -14.5t13 -38.5q0 -6 -1.5 -12t-5.5 -12t-7.5 -11t-11 -11t-12 -9.5t-14 -9.5t-14 -9t-15.5 -9.5t-15 -8.5l-268 -158q-45 -25 -57 -25z" />
    <glyph glyph-name="Icircumflex" unicode="&#xce;" horiz-adv-x="569" 
d="M352 1159v-1003q0 -47 13.5 -73t52.5 -34q5 -1 22.5 -4t24 -5t17 -6t14.5 -10t4 -14q0 -18 -45 -18q-4 0 -18 2t-52 4t-100 2t-99.5 -2t-51.5 -4t-19 -2q-16 0 -22 0.5t-11.5 5.5t-5.5 16q0 7 3.5 12t12.5 9t15 5.5t21.5 4.5t21.5 4q45 10 56 26t11 70v1014
q0 40 -12.5 54.5t-44.5 19.5q-12 2 -26 3.5t-21 2t-15 2t-11.5 3t-7 4.5t-4.5 7t-1 11q0 24 43 24q25 0 81 -4t87 -4q34 0 94 4t80 4q45 0 45 -26q0 -5 -1.5 -9t-5.5 -6.5t-8 -4t-13 -3t-16.5 -2.5t-22.5 -2.5t-27 -3.5q-58 -8 -58 -74zM264 1718h41q34 0 51 -26l185 -273
q12 -17 12 -30q0 -11 -23 -11q-20 0 -45 25l-200 215l-201 -215q-25 -25 -45 -25q-23 0 -23 11q0 12 13 30l184 273q17 26 51 26z" />
    <glyph glyph-name="Idieresis" unicode="&#xcf;" horiz-adv-x="569" 
d="M352 1159v-1003q0 -47 13.5 -73t52.5 -34q5 -1 22.5 -4t24 -5t17 -6t14.5 -10t4 -14q0 -18 -45 -18q-4 0 -18 2t-52 4t-100 2t-99.5 -2t-51.5 -4t-19 -2q-16 0 -22 0.5t-11.5 5.5t-5.5 16q0 7 3.5 12t12.5 9t15 5.5t21.5 4.5t21.5 4q45 10 56 26t11 70v1014
q0 40 -12.5 54.5t-44.5 19.5q-12 2 -26 3.5t-21 2t-15 2t-11.5 3t-7 4.5t-4.5 7t-1 11q0 24 43 24q25 0 81 -4t87 -4q34 0 94 4t80 4q45 0 45 -26q0 -5 -1.5 -9t-5.5 -6.5t-8 -4t-13 -3t-16.5 -2.5t-22.5 -2.5t-27 -3.5q-58 -8 -58 -74zM125 1407h-2q-37 0 -59.5 27.5
t-22.5 64.5q0 41 22 66.5t62 25.5q37 0 60.5 -27t23.5 -65t-23.5 -65t-60.5 -27zM444 1407h-2q-37 0 -59.5 27.5t-22.5 64.5q0 41 22 66.5t62 25.5q37 0 60.5 -27t23.5 -65t-23.5 -65t-60.5 -27z" />
    <glyph glyph-name="Eth" unicode="&#xd0;" horiz-adv-x="1024" 
d="M172 713v436q0 31 -11 45t-40 20q-40 6 -55 7q-21 2 -29 5t-8 13q0 13 9.5 18t57.5 21q110 37 314 37q249 0 399 -176q154 -178 154 -467q0 -325 -133 -502.5t-394 -177.5q-28 0 -99.5 4t-119.5 4q-41 0 -90.5 -4t-58.5 -4q-39 0 -39 24q0 16 11 21.5t54 11.5
q44 7 61 32.5t17 78.5v495h-141q-11 0 -11 11v36q0 11 11 11h141zM307 655v-471q0 -143 133 -143q186 0 275 133q96 143 96 473q0 167 -29.5 289.5t-83 193t-120 103.5t-148.5 33q-74 0 -98.5 -25t-24.5 -86v-442h260q11 0 11 -11v-36q0 -11 -11 -11h-260z" />
    <glyph glyph-name="Ntilde" unicode="&#xd1;" horiz-adv-x="1024" 
d="M150 168v952q0 57 -10 83t-38 30q-7 1 -16 2.5t-13.5 2t-11 1.5t-9.5 2t-7 2.5t-5.5 3.5t-3.5 5t-2.5 6t-0.5 8q0 24 45 24q11 0 40.5 -2t43.5 -2t43 2t43 2q7 0 12 -1t9 -2.5t8 -6.5t7 -8.5t8 -13t8.5 -16.5t10.5 -22t13 -26q57 -115 211 -409t223 -418q38 -68 45 -68
q10 0 10 29v753q0 82 -17 114.5t-55 37.5q-69 10 -69 33q0 10 7.5 17t18.5 7q3 0 46 -4t98 -4q23 0 64.5 4t60.5 4q20 0 26 -5t6 -19q0 -15 -11.5 -20.5t-42.5 -10.5q-3 0 -5 -0.5t-4.5 -1t-5.5 -0.5q-34 -6 -47 -31t-13 -78v-1110q0 -44 -2.5 -51.5t-19.5 -7.5
q-11 0 -22 16.5t-50 91.5q-6 12 -18.5 35t-18.5 35q-30 58 -204.5 381t-260.5 498q-35 72 -46 79q-3 3 -7 3q-8 0 -11 -8.5t-3 -36.5v-721q0 -154 12.5 -213t50.5 -66q14 -3 32.5 -5t29.5 -3t22 -4t16 -9t5 -16q0 -20 -31 -20q-1 0 -37.5 4t-105.5 4q-60 0 -108 -4t-56 -4
q-23 0 -23 20q0 11 15.5 18t41.5 12t31 7q48 17 48 119zM647 1403h-2q-27 0 -58.5 13.5t-47 24t-45.5 32.5q-3 2 -17.5 12.5t-20 14.5t-18.5 12t-21 12t-19 9t-21 7t-19 2q-27 0 -48.5 -30t-35 -60.5t-18.5 -30.5q-10 0 -15 5t-5 10q0 13 9 39t26.5 59t52.5 56.5t79 23.5
q28 0 60.5 -13t50 -24t51.5 -35q88 -67 127 -67q27 0 48.5 30t35 60t19.5 30q18 0 18 -14q0 -13 -9 -39t-26.5 -58.5t-52.5 -56.5t-78 -24z" />
    <glyph glyph-name="Ograve" unicode="&#xd2;" horiz-adv-x="1024" 
d="M61 641v2q0 186 63.5 342t167 243t220.5 87t220.5 -87t167 -243.5t63.5 -343.5t-63.5 -343.5t-167 -243.5t-220.5 -87t-220.5 87t-167 243.5t-63.5 343.5zM799 641v2q0 133 -17 241t-45.5 178t-66.5 117t-77 67t-81 20t-81 -20t-77 -67t-66.5 -117t-45.5 -178.5
t-17 -242.5t17 -242.5t45.5 -178.5t66.5 -117t77 -67t81 -20t81 20t77 67t66.5 117t45.5 178.5t17 242.5zM659 1393v-2q0 -5 -4 -9t-10 -4q-12 0 -57 25l-269 158q-4 3 -15 9t-15.5 9t-14 9t-14.5 9.5t-12 9.5t-10.5 10.5t-7.5 10t-5.5 11.5t-1.5 12q0 24 13.5 39.5
t35.5 15.5q17 0 39 -12t32 -20t34 -29l244 -209q1 -1 12.5 -10t18.5 -17.5t7 -15.5z" />
    <glyph glyph-name="Oacute" unicode="&#xd3;" horiz-adv-x="1024" 
d="M61 641v2q0 186 63.5 342t167 243t220.5 87t220.5 -87t167 -243.5t63.5 -343.5t-63.5 -343.5t-167 -243.5t-220.5 -87t-220.5 87t-167 243.5t-63.5 343.5zM799 641v2q0 133 -17 241t-45.5 178t-66.5 117t-77 67t-81 20t-81 -20t-77 -67t-66.5 -117t-45.5 -178.5
t-17 -242.5t17 -242.5t45.5 -178.5t66.5 -117t77 -67t81 -20t81 20t77 67t66.5 117t45.5 178.5t17 242.5zM379 1378h-2q-5 0 -8.5 4.5t-3.5 10.5q0 7 7 15.5t18.5 17.5t12.5 10l244 209q71 61 105 61q23 0 36 -14.5t13 -38.5q0 -6 -1.5 -12t-5.5 -12t-7.5 -11t-11 -11
t-12 -9.5t-14 -9.5t-14 -9t-15.5 -9.5t-15 -8.5l-269 -158q-45 -25 -57 -25z" />
    <glyph glyph-name="Ocircumflex" unicode="&#xd4;" horiz-adv-x="1024" 
d="M61 641v2q0 186 63.5 342t167 243t220.5 87t220.5 -87t167 -243.5t63.5 -343.5t-63.5 -343.5t-167 -243.5t-220.5 -87t-220.5 87t-167 243.5t-63.5 343.5zM799 641v2q0 133 -17 241t-45.5 178t-66.5 117t-77 67t-81 20t-81 -20t-77 -67t-66.5 -117t-45.5 -178.5
t-17 -242.5t17 -242.5t45.5 -178.5t66.5 -117t77 -67t81 -20t81 20t77 67t66.5 117t45.5 178.5t17 242.5zM492 1718h40q35 0 52 -26l184 -273q12 -17 12 -30q0 -11 -22 -11q-20 0 -45 25l-201 215l-201 -215q-25 -25 -45 -25q-22 0 -22 11q0 13 12 30l184 273q17 26 52 26z
" />
    <glyph glyph-name="Otilde" unicode="&#xd5;" horiz-adv-x="1024" 
d="M61 641v2q0 186 63.5 342t167 243t220.5 87t220.5 -87t167 -243.5t63.5 -343.5t-63.5 -343.5t-167 -243.5t-220.5 -87t-220.5 87t-167 243.5t-63.5 343.5zM799 641v2q0 133 -17 241t-45.5 178t-66.5 117t-77 67t-81 20t-81 -20t-77 -67t-66.5 -117t-45.5 -178.5
t-17 -242.5t17 -242.5t45.5 -178.5t66.5 -117t77 -67t81 -20t81 20t77 67t66.5 117t45.5 178.5t17 242.5zM635 1403h-2q-27 0 -58.5 13t-48 24.5t-45.5 32.5q-3 2 -20.5 14.5t-23.5 16.5t-21.5 13.5t-24.5 13.5t-21.5 7.5t-23.5 3.5q-27 0 -48.5 -30t-35 -60.5t-18.5 -30.5
q-10 0 -15.5 5t-5.5 10q0 13 9 39t27 58.5t53 56.5t79 24q28 0 60.5 -13t50 -24t51.5 -35q88 -67 127 -67q27 0 48.5 30t34.5 60t19 30q19 0 19 -14q0 -13 -9 -39t-26.5 -58.5t-52.5 -56.5t-78 -24z" />
    <glyph glyph-name="Odieresis" unicode="&#xd6;" horiz-adv-x="1024" 
d="M61 641v2q0 186 63.5 342t167 243t220.5 87t220.5 -87t167 -243.5t63.5 -343.5t-63.5 -343.5t-167 -243.5t-220.5 -87t-220.5 87t-167 243.5t-63.5 343.5zM799 641v2q0 133 -17 241t-45.5 178t-66.5 117t-77 67t-81 20t-81 -20t-77 -67t-66.5 -117t-45.5 -178.5
t-17 -242.5t17 -242.5t45.5 -178.5t66.5 -117t77 -67t81 -20t81 20t77 67t66.5 117t45.5 178.5t17 242.5zM352 1407h-2q-37 0 -59.5 27.5t-22.5 64.5q0 41 22 66.5t62 25.5q37 0 60.5 -27t23.5 -65t-23.5 -65t-60.5 -27zM672 1407h-2q-37 0 -59.5 27.5t-22.5 64.5
q0 41 22 66.5t62 25.5q37 0 60.5 -27t23.5 -65t-23.5 -65t-60.5 -27z" />
    <glyph glyph-name="multiply" unicode="&#xd7;" horiz-adv-x="1228" 
d="M541 518l-400 400l74 73l397 -401l402 401l73 -73l-401 -400l401 -399l-73 -74l-402 401l-397 -401l-74 74z" />
    <glyph glyph-name="Oslash" unicode="&#xd8;" horiz-adv-x="1024" 
d="M274 252l445 844q-35 84 -91 127t-116 43q-42 0 -81 -20t-77 -67t-66.5 -117t-45.5 -178.5t-17 -242.5q0 -224 49 -389zM750 1028l-445 -844q35 -84 90.5 -126t116.5 -42q42 0 81 20t77 67t66.5 117t45.5 178.5t17 242.5q0 219 -49 387zM242 106l-117 -212
q-16 -29 -29 -29h-37q-14 0 -14 4q0 5 12 25l144 262q-140 205 -140 485q0 187 63.5 343.5t167 243.5t220.5 87q146 0 270 -139l117 213q16 28 29 28h37q14 0 14 -4t-12 -24l-144 -263q65 -91 102.5 -216t37.5 -269q0 -187 -63.5 -343.5t-167 -243.5t-220.5 -87
q-150 0 -270 139z" />
    <glyph glyph-name="Ugrave" unicode="&#xd9;" horiz-adv-x="1024" 
d="M291 1114v-817q0 -83 14 -125.5t43 -75.5q35 -40 84.5 -60t99.5 -20q71 0 132.5 33t99.5 101q47 86 47 223v698q0 93 -18 126.5t-64 35.5q-24 1 -34.5 3t-16.5 8.5t-6 19.5q0 26 37 26q8 0 43 -4t75 -4q53 0 93.5 4t44.5 4q26 0 26 -26q0 -7 -2 -11.5t-9 -7.5t-13 -4
t-19.5 -3.5t-23.5 -4.5q-34 -8 -45 -33.5t-11 -107.5v-693q0 -168 -59 -274q-87 -158 -297 -158q-164 0 -262 86q-94 87 -94 244v856q0 51 -6 65.5t-37 18.5q-37 6 -48.5 12.5t-11.5 20.5q0 20 37 20q24 0 70 -4t69 -4q53 0 103 4t59 4q27 0 38 -4t11 -18q0 -13 -14 -18.5
t-49 -10.5q-25 -3 -34 -5.5t-24.5 -14t-21.5 -37t-6 -68.5zM672 1393v-2q0 -5 -4.5 -9t-10.5 -4q-12 0 -57 25l-268 158q-4 3 -15 9t-15.5 9t-14 9t-14.5 9.5t-12 9.5t-10.5 10.5t-7.5 10t-5.5 11.5t-1.5 12q0 24 13.5 39.5t35.5 15.5q6 0 12 -1t13 -4t12 -5t12.5 -7
t11.5 -8t11.5 -9.5t10.5 -8.5t11 -9.5t10 -8.5l244 -209q1 -1 12.5 -10t19 -17.5t7.5 -15.5z" />
    <glyph glyph-name="Uacute" unicode="&#xda;" horiz-adv-x="1024" 
d="M291 1114v-817q0 -83 14 -125.5t43 -75.5q35 -40 84.5 -60t99.5 -20q71 0 132.5 33t99.5 101q47 86 47 223v698q0 93 -18 126.5t-64 35.5q-24 1 -34.5 3t-16.5 8.5t-6 19.5q0 26 37 26q8 0 43 -4t75 -4q53 0 93.5 4t44.5 4q26 0 26 -26q0 -7 -2 -11.5t-9 -7.5t-13 -4
t-19.5 -3.5t-23.5 -4.5q-34 -8 -45 -33.5t-11 -107.5v-693q0 -168 -59 -274q-87 -158 -297 -158q-164 0 -262 86q-94 87 -94 244v856q0 51 -6 65.5t-37 18.5q-37 6 -48.5 12.5t-11.5 20.5q0 20 37 20q24 0 70 -4t69 -4q53 0 103 4t59 4q27 0 38 -4t11 -18q0 -13 -14 -18.5
t-49 -10.5q-25 -3 -34 -5.5t-24.5 -14t-21.5 -37t-6 -68.5zM420 1378h-2q-5 0 -8.5 4.5t-3.5 10.5q0 7 7 15.5t18.5 17.5t12.5 10l244 209q71 61 105 61q23 0 36 -14.5t13 -38.5q0 -7 -2.5 -14t-6 -12.5t-10.5 -12.5t-12 -11.5t-15.5 -11t-16 -10t-18 -10.5t-16.5 -10
l-268 -158q-45 -25 -57 -25z" />
    <glyph glyph-name="Ucircumflex" unicode="&#xdb;" horiz-adv-x="1024" 
d="M291 1114v-817q0 -83 14 -125.5t43 -75.5q35 -40 84.5 -60t99.5 -20q71 0 132.5 33t99.5 101q47 86 47 223v698q0 93 -18 126.5t-64 35.5q-24 1 -34.5 3t-16.5 8.5t-6 19.5q0 26 37 26q8 0 43 -4t75 -4q53 0 93.5 4t44.5 4q26 0 26 -26q0 -7 -2 -11.5t-9 -7.5t-13 -4
t-19.5 -3.5t-23.5 -4.5q-34 -8 -45 -33.5t-11 -107.5v-693q0 -168 -59 -274q-87 -158 -297 -158q-164 0 -262 86q-94 87 -94 244v856q0 51 -6 65.5t-37 18.5q-37 6 -48.5 12.5t-11.5 20.5q0 20 37 20q24 0 70 -4t69 -4q53 0 103 4t59 4q27 0 38 -4t11 -18q0 -13 -14 -18.5
t-49 -10.5q-25 -3 -34 -5.5t-24.5 -14t-21.5 -37t-6 -68.5zM504 1718h41q34 0 51 -26l184 -273q13 -18 13 -30q0 -11 -23 -11q-20 0 -45 25l-201 215l-200 -215q-25 -25 -45 -25q-23 0 -23 11q0 13 12 30l185 273q17 26 51 26z" />
    <glyph glyph-name="Udieresis" unicode="&#xdc;" horiz-adv-x="1024" 
d="M291 1114v-817q0 -83 14 -125.5t43 -75.5q35 -40 84.5 -60t99.5 -20q71 0 132.5 33t99.5 101q47 86 47 223v698q0 93 -18 126.5t-64 35.5q-24 1 -34.5 3t-16.5 8.5t-6 19.5q0 26 37 26q8 0 43 -4t75 -4q53 0 93.5 4t44.5 4q26 0 26 -26q0 -7 -2 -11.5t-9 -7.5t-13 -4
t-19.5 -3.5t-23.5 -4.5q-34 -8 -45 -33.5t-11 -107.5v-693q0 -168 -59 -274q-87 -158 -297 -158q-164 0 -262 86q-94 87 -94 244v856q0 51 -6 65.5t-37 18.5q-37 6 -48.5 12.5t-11.5 20.5q0 20 37 20q24 0 70 -4t69 -4q53 0 103 4t59 4q27 0 38 -4t11 -18q0 -13 -14 -18.5
t-49 -10.5q-25 -3 -34 -5.5t-24.5 -14t-21.5 -37t-6 -68.5zM365 1407h-3q-37 0 -59 27.5t-22 64.5q0 41 22 66.5t62 25.5q37 0 60.5 -27t23.5 -65t-23.5 -65t-60.5 -27zM684 1407h-2q-37 0 -59.5 27.5t-22.5 64.5q0 41 22 66.5t62 25.5q37 0 60.5 -27t23.5 -65t-23.5 -65
t-60.5 -27z" />
    <glyph glyph-name="Yacute" unicode="&#xdd;" 
d="M330 147v398q0 24 -5.5 43.5t-25.5 62.5q-25 55 -100.5 229t-118.5 265q-23 49 -38 65t-38 23q-4 1 -12 2.5t-11.5 2.5t-9 3t-8 4.5t-4.5 6t-2 8.5q0 14 9 22t24 8q7 0 59 -4t86 -4q41 0 75 2t52.5 4t20.5 2q16 0 28.5 -7t12.5 -21q0 -10 -5 -15t-11 -6.5t-19.5 -3.5
t-22.5 -4q-35 -9 -45 -17.5t-10 -29.5q0 -24 88 -232q41 -98 65 -153t38 -83t20 -35t12 -7q9 0 18.5 15.5t38.5 78.5q10 21 16 34t17.5 37.5t22.5 47.5q117 244 117 295q0 21 -16 31.5t-64 17.5q-43 6 -43 24q0 15 10 24t27 9q19 0 60 -4t62 -4q39 0 71.5 4t45.5 4
q23 0 23 -26q0 -5 -0.5 -9t-2.5 -7l-3 -4.5t-5 -3.5l-5 -2.5t-7 -2.5t-8 -2q-30 -8 -49.5 -29t-52.5 -88q-32 -64 -66.5 -138t-75.5 -164.5t-65 -141.5q-23 -49 -29 -69t-6 -42v-426q0 -78 55 -86q6 -1 16.5 -2.5t16.5 -2t14 -2.5t12.5 -4t9.5 -5t7 -7t2 -10
q0 -16 -10.5 -20t-38.5 -4q-13 0 -61 4t-87 4q-41 0 -97.5 -4t-74.5 -4q-26 0 -33.5 5.5t-7.5 18.5q0 14 18 21t60 12q39 4 51.5 23.5t12.5 74.5zM328 1378h-2q-5 0 -9 4.5t-4 10.5q0 7 7.5 15.5t19 17.5t12.5 10l244 209q23 20 34 28.5t32.5 20.5t37.5 12q23 0 36.5 -14.5
t13.5 -38.5q0 -7 -2.5 -14t-6 -12.5t-10.5 -12.5t-12 -11.5t-15.5 -11t-16 -10t-18 -10.5t-16.5 -10l-268 -158q-45 -25 -57 -25z" />
    <glyph glyph-name="Thorn" unicode="&#xde;" horiz-adv-x="909" 
d="M315 313v-159q0 -51 14 -76t46 -29q12 -2 27.5 -3.5t24 -3t18.5 -3t15.5 -3t10 -4t6.5 -6t2 -8.5q0 -26 -37 -26q-5 0 -60 4t-124 4q-52 0 -88 -2t-53.5 -4t-24.5 -2q-43 0 -43 20q0 18 14.5 24.5t67.5 12.5q27 3 38 23t11 61v1026q0 68 -55 74q-63 8 -70 15q-6 5 -6 16
q0 26 33 26q6 0 166 -8q34 0 94 4t80 4q45 0 45 -26q0 -5 -1.5 -9t-5.5 -6.5t-8 -4t-13 -3t-16.5 -2.5t-22.5 -2.5t-27 -3.5q-26 -5 -42 -25t-16 -49v-121q0 -15 13 -12q88 10 153 10q165 0 272 -97.5t107 -272.5q0 -150 -105 -246t-257 -96q-38 0 -113 12q-40 8 -49 8
q-21 0 -21 -31zM315 920v-465q0 -30 27 -54q32 -28 92 -28q132 0 203.5 82.5t71.5 220.5q0 143 -73.5 227t-207.5 84q-62 0 -87.5 -15.5t-25.5 -51.5z" />
    <glyph glyph-name="germandbls" unicode="&#xdf;" horiz-adv-x="909" 
d="M283 938v-903q0 -27 -6.5 -35t-28.5 -8q-16 0 -44 4t-44 4q-32 0 -62 -4t-39 -4q-12 0 -20 7t-8 17q0 9 7 16.5t19 8.5q65 8 84 30.5t19 92.5v598q0 28 -12 36.5t-44 8.5q-35 0 -46 6.5t-11 20.5q0 7 3 12.5t10.5 9t13 5.5t17.5 5.5t18 5.5q24 8 41.5 33t17.5 62
q0 136 41 245.5t118.5 173.5t176.5 64q136 0 217.5 -72.5t81.5 -206.5q0 -57 -13 -99t-37.5 -68t-49 -40.5t-58.5 -27.5q-14 -5 -39 -13t-38.5 -12.5t-31.5 -13.5t-27.5 -18t-16.5 -24t-7 -34q0 -23 8.5 -44t19.5 -36.5t33 -34.5t38.5 -30.5t46.5 -32.5t47 -33
q41 -30 70 -57t59 -67.5t45.5 -94t15.5 -117.5q0 -129 -79.5 -214t-215.5 -85q-97 0 -159 39q-27 17 -33 28t-6 42v199q0 51 33 51q18 0 31 -32t24 -77.5t25.5 -90.5t44 -77t71.5 -32q48 0 79 15t46.5 46.5t21 66.5t5.5 87t-20 98t-51.5 81t-70.5 68t-77.5 64t-70 62.5
t-51.5 71.5t-20 83q0 53 21.5 88t42 46.5t66.5 29.5q3 2 5 2.5t4.5 1.5t4.5 2q32 13 52.5 26t43.5 37t34 63.5t11 94.5q0 112 -47.5 178t-140.5 66q-108 0 -158.5 -105.5t-50.5 -359.5z" />
    <glyph glyph-name="agrave" unicode="&#xe0;" 
d="M514 643v117q0 79 -20 110t-66 31q-78 0 -121 -50.5t-69 -145.5q-14 -47 -43 -76q-34 -31 -80 -31q-24 0 -33.5 10t-9.5 35q0 43 30 95t81 100t129.5 80t164.5 32q99 0 131 -35q29 -29 29 -106v-641q0 -82 57 -82q51 0 66 47q14 39 22 43q3 2 6 2q17 0 17 -33
q0 -16 -9.5 -41t-27.5 -53t-51.5 -47.5t-75.5 -19.5q-30 0 -52 10.5t-34 30.5t-17 34t-10 37q-7 29 -18 29q-7 0 -19 -11t-34 -32.5t-41 -36.5q-81 -70 -187 -70q-66 0 -107.5 47.5t-41.5 133.5q0 72 45.5 128t169.5 146q144 103 156 113q38 28 50.5 48t12.5 52zM215 182v-2
q0 -58 28.5 -88.5t73.5 -30.5q59 0 136 70q34 31 47.5 59t13.5 70v225q0 27 -14 27q-18 0 -54 -25q-77 -52 -127 -102q-104 -96 -104 -203zM588 1077v-2q0 -5 -4.5 -8.5t-10.5 -3.5q-14 0 -57 24l-268 158q-4 3 -15 9t-15.5 9t-14 9t-14.5 9.5t-12 9.5t-10.5 10.5t-7.5 10
t-5.5 11.5t-1.5 12q0 24 14 40t35 16q8 0 15.5 -2t16.5 -6.5l15 -7.5t16 -11.5t13.5 -11t15 -12.5t12.5 -11l244 -209q1 -1 12.5 -10t19 -17.5t7.5 -15.5z" />
    <glyph glyph-name="aacute" unicode="&#xe1;" 
d="M514 643v117q0 79 -20 110t-66 31q-78 0 -121 -50.5t-69 -145.5q-14 -47 -43 -76q-34 -31 -80 -31q-24 0 -33.5 10t-9.5 35q0 43 30 95t81 100t129.5 80t164.5 32q99 0 131 -35q29 -29 29 -106v-641q0 -82 57 -82q51 0 66 47q14 39 22 43q3 2 6 2q17 0 17 -33
q0 -16 -9.5 -41t-27.5 -53t-51.5 -47.5t-75.5 -19.5q-30 0 -52 10.5t-34 30.5t-17 34t-10 37q-7 29 -18 29q-7 0 -19 -11t-34 -32.5t-41 -36.5q-81 -70 -187 -70q-66 0 -107.5 47.5t-41.5 133.5q0 72 45.5 128t169.5 146q144 103 156 113q38 28 50.5 48t12.5 52zM215 182v-2
q0 -58 28.5 -88.5t73.5 -30.5q59 0 136 70q34 31 47.5 59t13.5 70v225q0 27 -14 27q-18 0 -54 -25q-77 -52 -127 -102q-104 -96 -104 -203zM266 1063h-2q-12 0 -12 14q0 7 7.5 15.5t19 17.5t12.5 10l244 209q58 50 84 59q11 3 20 3q23 0 36 -15t13 -39q0 -6 -1.5 -12
t-5.5 -12t-7.5 -11t-11 -11t-12 -9.5t-14 -9.5t-14 -9t-15.5 -9.5t-15 -8.5l-268 -158q-43 -24 -58 -24z" />
    <glyph glyph-name="acircumflex" unicode="&#xe2;" 
d="M514 643v117q0 79 -20 110t-66 31q-78 0 -121 -50.5t-69 -145.5q-14 -47 -43 -76q-34 -31 -80 -31q-24 0 -33.5 10t-9.5 35q0 43 30 95t81 100t129.5 80t164.5 32q99 0 131 -35q29 -29 29 -106v-641q0 -82 57 -82q51 0 66 47q14 39 22 43q3 2 6 2q17 0 17 -33
q0 -16 -9.5 -41t-27.5 -53t-51.5 -47.5t-75.5 -19.5q-30 0 -52 10.5t-34 30.5t-17 34t-10 37q-7 29 -18 29q-7 0 -19 -11t-34 -32.5t-41 -36.5q-81 -70 -187 -70q-66 0 -107.5 47.5t-41.5 133.5q0 72 45.5 128t169.5 146q144 103 156 113q38 28 50.5 48t12.5 52zM215 182v-2
q0 -58 28.5 -88.5t73.5 -30.5q59 0 136 70q34 31 47.5 59t13.5 70v225q0 27 -14 27q-18 0 -54 -25q-77 -52 -127 -102q-104 -96 -104 -203zM379 1403h41q33 0 51 -27l184 -272q13 -18 13 -31q0 -10 -23 -10q-21 0 -45 24l-201 216l-200 -216q-24 -24 -45 -24q-23 0 -23 10
q0 14 12 31l185 272q18 27 51 27z" />
    <glyph glyph-name="atilde" unicode="&#xe3;" 
d="M514 643v117q0 79 -20 110t-66 31q-78 0 -121 -50.5t-69 -145.5q-14 -47 -43 -76q-34 -31 -80 -31q-24 0 -33.5 10t-9.5 35q0 43 30 95t81 100t129.5 80t164.5 32q99 0 131 -35q29 -29 29 -106v-641q0 -82 57 -82q51 0 66 47q14 39 22 43q3 2 6 2q17 0 17 -33
q0 -16 -9.5 -41t-27.5 -53t-51.5 -47.5t-75.5 -19.5q-30 0 -52 10.5t-34 30.5t-17 34t-10 37q-7 29 -18 29q-7 0 -19 -11t-34 -32.5t-41 -36.5q-81 -70 -187 -70q-66 0 -107.5 47.5t-41.5 133.5q0 72 45.5 128t169.5 146q144 103 156 113q38 28 50.5 48t12.5 52zM215 182v-2
q0 -58 28.5 -88.5t73.5 -30.5q59 0 136 70q34 31 47.5 59t13.5 70v225q0 27 -14 27q-18 0 -54 -25q-77 -52 -127 -102q-104 -96 -104 -203zM522 1087h-2q-27 0 -58.5 13.5t-47 24t-45.5 32.5q-4 3 -20.5 15t-23.5 16.5t-22 14t-24.5 13.5t-22 7.5t-23.5 3.5
q-27 0 -48.5 -30.5t-35 -60.5t-18.5 -30q-20 0 -20 14q0 13 9 39t27 58.5t53 56.5t79 24q28 0 60 -12.5t50 -24t51 -34.5l11 -9q11 -8 13.5 -10t13.5 -9.5t15.5 -10.5t14 -9t16 -8.5t14.5 -5.5t15 -4.5t14 -1.5q27 0 48.5 30.5t35 60.5t19.5 30q18 0 18 -14q0 -13 -9 -39
t-26.5 -59t-52.5 -57t-78 -24z" />
    <glyph glyph-name="adieresis" unicode="&#xe4;" 
d="M514 643v117q0 79 -20 110t-66 31q-78 0 -121 -50.5t-69 -145.5q-14 -47 -43 -76q-34 -31 -80 -31q-24 0 -33.5 10t-9.5 35q0 43 30 95t81 100t129.5 80t164.5 32q99 0 131 -35q29 -29 29 -106v-641q0 -82 57 -82q51 0 66 47q14 39 22 43q3 2 6 2q17 0 17 -33
q0 -16 -9.5 -41t-27.5 -53t-51.5 -47.5t-75.5 -19.5q-30 0 -52 10.5t-34 30.5t-17 34t-10 37q-7 29 -18 29q-7 0 -19 -11t-34 -32.5t-41 -36.5q-81 -70 -187 -70q-66 0 -107.5 47.5t-41.5 133.5q0 72 45.5 128t169.5 146q144 103 156 113q38 28 50.5 48t12.5 52zM215 182v-2
q0 -58 28.5 -88.5t73.5 -30.5q59 0 136 70q34 31 47.5 59t13.5 70v225q0 27 -14 27q-18 0 -54 -25q-77 -52 -127 -102q-104 -96 -104 -203zM240 1092h-2q-37 0 -59.5 27.5t-22.5 64.5q0 41 22 66.5t62 25.5q37 0 60.5 -27t23.5 -65t-23.5 -65t-60.5 -27zM559 1092h-2
q-37 0 -59.5 27.5t-22.5 64.5q0 41 22 66.5t62 25.5q37 0 60.5 -27t23.5 -65t-23.5 -65t-60.5 -27z" />
    <glyph glyph-name="aring" unicode="&#xe5;" 
d="M514 643v117q0 79 -20 110t-66 31q-78 0 -121 -50.5t-69 -145.5q-14 -47 -43 -76q-34 -31 -80 -31q-24 0 -33.5 10t-9.5 35q0 43 30 95t81 100t129.5 80t164.5 32q99 0 131 -35q29 -29 29 -106v-641q0 -82 57 -82q51 0 66 47q14 39 22 43q3 2 6 2q17 0 17 -33
q0 -16 -9.5 -41t-27.5 -53t-51.5 -47.5t-75.5 -19.5q-30 0 -52 10.5t-34 30.5t-17 34t-10 37q-7 29 -18 29q-7 0 -19 -11t-34 -32.5t-41 -36.5q-81 -70 -187 -70q-66 0 -107.5 47.5t-41.5 133.5q0 72 45.5 128t169.5 146q144 103 156 113q38 28 50.5 48t12.5 52zM215 182v-2
q0 -58 28.5 -88.5t73.5 -30.5q59 0 136 70q34 31 47.5 59t13.5 70v225q0 27 -14 27q-18 0 -54 -25q-77 -52 -127 -102q-104 -96 -104 -203zM399 1065h-2q-82 0 -139 58t-57 141t57.5 140.5t140.5 57.5t141 -57.5t58 -140.5t-58 -141t-141 -58zM399 1126h2q56 0 96 40.5
t40 97.5t-40.5 97t-97.5 40t-97 -40t-40 -97t40 -97.5t97 -40.5z" />
    <glyph glyph-name="ae" unicode="&#xe6;" horiz-adv-x="1138" 
d="M1042 500h-403q-47 0 -47 -37q0 -187 64 -294.5t188 -107.5q130 0 188 117q9 18 17 38.5t12 26t10 5.5q14 0 14 -25q0 -46 -16 -92q-26 -70 -88 -113t-150 -43q-209 0 -292 177q-115 -177 -287 -177q-103 0 -156 46t-53 135q0 72 45.5 128t169.5 146q134 96 162 119
q33 26 41 41.5t8 44.5v88q0 76 -33 127t-86 51q-103 0 -157 -196q-10 -41 -41 -72q-35 -35 -82 -35q-24 0 -33.5 10t-9.5 35q0 64 57.5 137t142 121.5t158.5 48.5q70 0 113 -43.5t57 -120.5q41 83 113.5 123.5t158.5 40.5q118 0 191.5 -86t73.5 -237q0 -92 -7 -109.5
t-43 -17.5zM608 602v-2q0 -28 14 -35.5t76 -7.5q111 0 209 14q46 7 58 30.5t12 76.5q0 104 -43.5 163.5t-112.5 59.5q-85 0 -149 -86.5t-64 -212.5zM297 45h2q71 0 120.5 46.5t49.5 135.5v246q0 24 -3 31.5t-15 7.5q-8 0 -41 -23q-111 -77 -171.5 -150.5t-60.5 -156.5
q0 -62 32.5 -99.5t86.5 -37.5z" />
    <glyph glyph-name="ccedilla" unicode="&#xe7;" horiz-adv-x="681" 
d="M31 428v2q0 225 112 372.5t285 147.5q94 0 143 -24q38 -20 46 -33t8 -57v-76q0 -10 -7 -66q-3 -28 -13 -36.5t-32 -8.5q-9 0 -14.5 4t-11.5 15.5t-10.5 24t-14.5 37.5t-20 48q-27 61 -47.5 82t-63.5 21q-96 0 -160.5 -106t-64.5 -269q0 -215 66 -323.5t169 -108.5
q104 0 164 94q16 25 27.5 54t18 40.5t18.5 11.5t16 -6t4 -22q0 -108 -69 -185t-189 -84l-76 -100q36 4 54 4q33 0 63 -6t59.5 -20.5t47.5 -43t18 -67.5q0 -73 -59.5 -115.5t-132.5 -42.5q-21 0 -47.5 4t-58 12.5t-52.5 26t-21 41.5q0 16 10.5 29.5t26.5 13.5
q17 0 31.5 -14.5t24.5 -31.5t32.5 -31.5t53.5 -14.5q42 0 75 30t33 73q0 102 -129 102q-19 0 -47.5 -3t-40.5 -3q-16 0 -16 20q0 5 24 41l74 99q-144 10 -225.5 131.5t-81.5 316.5z" />
    <glyph glyph-name="egrave" unicode="&#xe8;" horiz-adv-x="681" 
d="M582 500h-375q-26 0 -36.5 -9t-10.5 -30q0 -182 66.5 -291t174.5 -109q139 0 185 117q4 10 8.5 23t7 20t5.5 14t6.5 10t7.5 3q14 0 14 -25q0 -40 -23 -96q-29 -69 -93 -110.5t-138 -41.5q-167 0 -261.5 127.5t-94.5 339.5q0 124 29.5 223.5t79 160t110.5 92.5t129 32
q113 0 185.5 -86.5t72.5 -236.5q0 -92 -6.5 -109.5t-42.5 -17.5zM164 602v-2q0 -28 14 -35.5t76 -7.5q44 0 106 4q106 6 129 25q27 21 27 92q0 104 -43.5 163.5t-112.5 59.5q-83 0 -139.5 -86.5t-56.5 -212.5zM489 1077v-2q0 -12 -14 -12t-57 24l-268 158q-4 2 -19 11
t-20 12.5t-17.5 11.5t-17 13t-11.5 12.5t-9.5 14.5t-2.5 15q0 24 14 40t35 16q6 0 12 -1t13 -4t12 -5.5t12.5 -7.5l12 -8t12 -9t10.5 -8.5t11 -9.5t10 -9l244 -209q1 -1 12.5 -10t18.5 -17.5t7 -15.5z" />
    <glyph glyph-name="eacute" unicode="&#xe9;" horiz-adv-x="681" 
d="M582 500h-375q-26 0 -36.5 -9t-10.5 -30q0 -182 66.5 -291t174.5 -109q139 0 185 117q4 10 8.5 23t7 20t5.5 14t6.5 10t7.5 3q14 0 14 -25q0 -40 -23 -96q-29 -69 -93 -110.5t-138 -41.5q-167 0 -261.5 127.5t-94.5 339.5q0 124 29.5 223.5t79 160t110.5 92.5t129 32
q113 0 185.5 -86.5t72.5 -236.5q0 -92 -6.5 -109.5t-42.5 -17.5zM164 602v-2q0 -28 14 -35.5t76 -7.5q44 0 106 4q106 6 129 25q27 21 27 92q0 104 -43.5 163.5t-112.5 59.5q-83 0 -139.5 -86.5t-56.5 -212.5zM209 1063h-2q-12 0 -12 14q0 7 7 15.5t18.5 17.5t12.5 10
l244 209q72 62 105 62q23 0 36 -15t13 -39q0 -6 -1.5 -12t-5.5 -12t-7.5 -11t-11 -11t-12 -9.5t-14 -9.5t-14 -9t-15.5 -9.5t-15 -8.5l-269 -158q-43 -24 -57 -24z" />
    <glyph glyph-name="ecircumflex" unicode="&#xea;" horiz-adv-x="681" 
d="M582 500h-375q-26 0 -36.5 -9t-10.5 -30q0 -182 66.5 -291t174.5 -109q139 0 185 117q4 10 8.5 23t7 20t5.5 14t6.5 10t7.5 3q14 0 14 -25q0 -40 -23 -96q-29 -69 -93 -110.5t-138 -41.5q-167 0 -261.5 127.5t-94.5 339.5q0 124 29.5 223.5t79 160t110.5 92.5t129 32
q113 0 185.5 -86.5t72.5 -236.5q0 -92 -6.5 -109.5t-42.5 -17.5zM164 602v-2q0 -28 14 -35.5t76 -7.5q44 0 106 4q106 6 129 25q27 21 27 92q0 104 -43.5 163.5t-112.5 59.5q-83 0 -139.5 -86.5t-56.5 -212.5zM322 1403h40q34 0 52 -27l184 -272q12 -17 12 -31
q0 -10 -22 -10q-21 0 -45 24l-201 216l-201 -216q-24 -24 -45 -24q-22 0 -22 10q0 14 12 31l184 272q18 27 52 27z" />
    <glyph glyph-name="edieresis" unicode="&#xeb;" horiz-adv-x="681" 
d="M582 500h-375q-26 0 -36.5 -9t-10.5 -30q0 -182 66.5 -291t174.5 -109q139 0 185 117q4 10 8.5 23t7 20t5.5 14t6.5 10t7.5 3q14 0 14 -25q0 -40 -23 -96q-29 -69 -93 -110.5t-138 -41.5q-167 0 -261.5 127.5t-94.5 339.5q0 124 29.5 223.5t79 160t110.5 92.5t129 32
q113 0 185.5 -86.5t72.5 -236.5q0 -92 -6.5 -109.5t-42.5 -17.5zM164 602v-2q0 -28 14 -35.5t76 -7.5q44 0 106 4q106 6 129 25q27 21 27 92q0 104 -43.5 163.5t-112.5 59.5q-83 0 -139.5 -86.5t-56.5 -212.5zM182 1092h-2q-37 0 -59.5 27.5t-22.5 64.5q0 41 22 66.5
t62 25.5q37 0 60.5 -27t23.5 -65t-23.5 -65t-60.5 -27zM502 1092h-2q-37 0 -59.5 27.5t-22.5 64.5q0 41 22 66.5t62 25.5q37 0 60.5 -27t23.5 -65t-23.5 -65t-60.5 -27z" />
    <glyph glyph-name="igrave" unicode="&#xec;" horiz-adv-x="454" 
d="M166 135v600q0 36 -16.5 51t-69.5 25q-19 4 -19 20t60 37q49 17 119 62q27 20 32 20q17 0 17 -22v-92v-691q0 -23 0.5 -32t4 -24.5t10.5 -22t21 -14t35 -11.5q31 -6 41.5 -11.5t10.5 -17.5q0 -11 -6.5 -15.5t-24.5 -4.5q-4 0 -48.5 4t-107.5 4q-49 0 -83 -2t-49.5 -4
t-20.5 -2q-25 0 -25 22t35 27q56 9 70 24.5t14 69.5zM375 1077v-2q0 -5 -4.5 -8.5t-10.5 -3.5q-14 0 -57 24l-268 158q-4 3 -15 9t-15.5 9t-14 9t-14.5 9.5t-12 9.5t-10.5 10.5t-7.5 10t-5.5 11.5t-1.5 12q0 24 14 40t35 16q8 0 15.5 -2t16.5 -6.5l15 -7.5t16 -11.5
t13.5 -11t15 -12.5t12.5 -11l244 -209q1 -1 12.5 -10t19 -17.5t7.5 -15.5z" />
    <glyph glyph-name="iacute" unicode="&#xed;" horiz-adv-x="454" 
d="M166 135v600q0 36 -16.5 51t-69.5 25q-19 4 -19 20t60 37q49 17 119 62q27 20 32 20q17 0 17 -22v-92v-691q0 -23 0.5 -32t4 -24.5t10.5 -22t21 -14t35 -11.5q31 -6 41.5 -11.5t10.5 -17.5q0 -11 -6.5 -15.5t-24.5 -4.5q-4 0 -48.5 4t-107.5 4q-49 0 -83 -2t-49.5 -4
t-20.5 -2q-25 0 -25 22t35 27q56 9 70 24.5t14 69.5zM94 1063h-2q-12 0 -12 14q0 7 7.5 15.5t19 17.5t12.5 10l243 209q72 62 105 62q23 0 36 -15t13 -39q0 -6 -1.5 -12t-5.5 -12t-7.5 -11t-11 -11t-12 -9.5t-14 -9.5t-14 -9t-15.5 -9.5t-15 -8.5l-268 -158q-43 -24 -58 -24
z" />
    <glyph glyph-name="icircumflex" unicode="&#xee;" horiz-adv-x="454" 
d="M166 135v600q0 36 -16.5 51t-69.5 25q-19 4 -19 20t60 37q49 17 119 62q27 20 32 20q17 0 17 -22v-92v-691q0 -23 0.5 -32t4 -24.5t10.5 -22t21 -14t35 -11.5q31 -6 41.5 -11.5t10.5 -17.5q0 -11 -6.5 -15.5t-24.5 -4.5q-4 0 -48.5 4t-107.5 4q-49 0 -83 -2t-49.5 -4
t-20.5 -2q-25 0 -25 22t35 27q56 9 70 24.5t14 69.5zM207 1403h41q33 0 51 -27l184 -272q13 -18 13 -31q0 -10 -23 -10q-21 0 -45 24l-201 216l-200 -216q-24 -24 -45 -24q-23 0 -23 10q0 14 12 31l185 272q18 27 51 27z" />
    <glyph glyph-name="idieresis" unicode="&#xef;" horiz-adv-x="454" 
d="M166 135v600q0 36 -16.5 51t-69.5 25q-19 4 -19 20t60 37q49 17 119 62q27 20 32 20q17 0 17 -22v-92v-691q0 -23 0.5 -32t4 -24.5t10.5 -22t21 -14t35 -11.5q31 -6 41.5 -11.5t10.5 -17.5q0 -11 -6.5 -15.5t-24.5 -4.5q-4 0 -48.5 4t-107.5 4q-49 0 -83 -2t-49.5 -4
t-20.5 -2q-25 0 -25 22t35 27q56 9 70 24.5t14 69.5zM68 1092h-2q-37 0 -59.5 27.5t-22.5 64.5q0 41 22 66.5t62 25.5q37 0 60.5 -27t23.5 -65t-23.5 -65t-60.5 -27zM387 1092h-2q-37 0 -59.5 27.5t-22.5 64.5q0 41 22 66.5t62 25.5q37 0 60.5 -27t23.5 -65t-23.5 -65
t-60.5 -27z" />
    <glyph glyph-name="eth" unicode="&#xf0;" 
d="M424 1214l-234 -135l-8 -4q-3 0 -8 8l-14 23q-4 8 -4 10q0 5 10 10l229 131q-75 94 -135 134q-13 8 -25.5 15t-20.5 10.5t-14 6.5t-9 6t-3 7q0 14 17 14q42 0 112 -39.5t142 -116.5l243 142q8 4 9 4q3 0 8 -8l14 -23q4 -8 4 -10q0 -5 -10 -10l-231 -136
q118 -134 187 -339.5t69 -393.5q0 -248 -97.5 -396.5t-257.5 -148.5q-103 0 -185 68t-125.5 179t-43.5 241t43.5 241t125.5 178.5t185 67.5q90 0 152 -43l4 4q-48 194 -129 303zM397 25h2q70 0 121 68t73.5 165t22.5 205t-22.5 205t-74 165t-122.5 68t-122.5 -68t-74 -165
t-22.5 -205t22.5 -205t74 -165t122.5 -68z" />
    <glyph glyph-name="ntilde" unicode="&#xf1;" horiz-adv-x="909" 
d="M141 147v586q0 42 -10 52.5t-51 13.5q-26 2 -33.5 5t-7.5 13q0 14 39 31q71 32 133 82q23 20 29 20q14 0 14 -24v-84q1 -12 1.5 -19t2 -10.5t2.5 -4.5t4 -1q6 0 16.5 5.5t20 13t27 21.5t30.5 23q93 68 177 68q99 0 163 -61q67 -64 70 -172v-568q0 -50 13 -71.5t44 -24.5
q35 -3 48.5 -9.5t13.5 -19.5q0 -20 -29 -20l-14 2q-15 2 -50.5 4t-86.5 2q-62 0 -101.5 -4t-40.5 -4q-17 0 -23.5 5t-6.5 17q0 21 38 27q42 6 57 20.5t15 53.5v573q0 77 -41 121q-45 51 -127 51q-86 0 -147 -55q-66 -59 -66 -129v-563q0 -37 11 -51.5t47 -20.5
q64 -10 70 -15q5 -4 5 -14q0 -20 -28 -20q-2 0 -17 2t-54.5 4t-100.5 2q-41 0 -69 -2t-41.5 -4t-18.5 -2q-37 0 -37 24q0 8 7.5 16t20.5 9q51 6 66.5 26t15.5 80zM578 1087h-3q-27 0 -58.5 13.5t-47 24t-45.5 32.5q-2 1 -24 17.5t-29.5 21t-25 14.5t-30.5 13.5t-26 3.5
q-27 0 -49 -30.5t-35.5 -60.5t-18.5 -30q-20 0 -20 14q0 13 9 39t27 58.5t53 56.5t79 24q28 0 60 -12.5t51 -24t51 -34.5l11 -9q11 -8 13.5 -10t13.5 -9.5t15.5 -10.5t14 -9t16 -8.5t14.5 -5.5t15 -4.5t14 -1.5q27 0 48.5 30.5t34.5 60.5t19 30q18 0 18 -14q0 -13 -9 -39
t-26 -59t-52 -57t-78 -24z" />
    <glyph glyph-name="ograve" unicode="&#xf2;" 
d="M397 -25h-2q-102 0 -183.5 68t-125 179t-43.5 241t43.5 241t125.5 178.5t185 67.5t185.5 -67.5t126 -178.5t43.5 -241t-43.5 -241t-126 -179t-185.5 -68zM397 25h2q70 0 121 68t73.5 165t22.5 205t-22.5 205t-74 165t-122.5 68t-122.5 -68t-74 -165t-22.5 -205t22.5 -205
t74 -165t122.5 -68zM547 1077v-2q0 -5 -4.5 -8.5t-10.5 -3.5q-14 0 -57 24l-268 158q-4 3 -15 9t-15.5 9t-14 9t-14.5 9.5t-12 9.5t-10.5 10.5t-7.5 10t-5.5 11.5t-1.5 12q0 24 14 40t35 16q8 0 15.5 -2t16.5 -6.5l15 -7.5t16 -11.5t13.5 -11t15 -12.5t12.5 -11l244 -209
q1 -1 12.5 -10t19 -17.5t7.5 -15.5z" />
    <glyph glyph-name="oacute" unicode="&#xf3;" 
d="M397 -25h-2q-102 0 -183.5 68t-125 179t-43.5 241t43.5 241t125.5 178.5t185 67.5t185.5 -67.5t126 -178.5t43.5 -241t-43.5 -241t-126 -179t-185.5 -68zM397 25h2q70 0 121 68t73.5 165t22.5 205t-22.5 205t-74 165t-122.5 68t-122.5 -68t-74 -165t-22.5 -205t22.5 -205
t74 -165t122.5 -68zM266 1063h-2q-12 0 -12 14q0 7 7.5 15.5t19 17.5t12.5 10l244 209q58 50 84 59q11 3 20 3q23 0 36 -15t13 -39q0 -6 -1.5 -12t-5.5 -12t-7.5 -11t-11 -11t-12 -9.5t-14 -9.5t-14 -9t-15.5 -9.5t-15 -8.5l-268 -158q-43 -24 -58 -24z" />
    <glyph glyph-name="ocircumflex" unicode="&#xf4;" 
d="M397 -25h-2q-102 0 -183.5 68t-125 179t-43.5 241t43.5 241t125.5 178.5t185 67.5t185.5 -67.5t126 -178.5t43.5 -241t-43.5 -241t-126 -179t-185.5 -68zM397 25h2q70 0 121 68t73.5 165t22.5 205t-22.5 205t-74 165t-122.5 68t-122.5 -68t-74 -165t-22.5 -205t22.5 -205
t74 -165t122.5 -68zM379 1403h41q33 0 51 -27l184 -272q13 -18 13 -31q0 -10 -23 -10q-21 0 -45 24l-201 216l-200 -216q-24 -24 -45 -24q-23 0 -23 10q0 14 12 31l185 272q18 27 51 27z" />
    <glyph glyph-name="otilde" unicode="&#xf5;" 
d="M397 -25h-2q-102 0 -183.5 68t-125 179t-43.5 241t43.5 241t125.5 178.5t185 67.5t185.5 -67.5t126 -178.5t43.5 -241t-43.5 -241t-126 -179t-185.5 -68zM397 25h2q70 0 121 68t73.5 165t22.5 205t-22.5 205t-74 165t-122.5 68t-122.5 -68t-74 -165t-22.5 -205t22.5 -205
t74 -165t122.5 -68zM522 1087h-2q-27 0 -58.5 13.5t-47 24t-45.5 32.5q-4 3 -20.5 15t-23.5 16.5t-22 14t-24.5 13.5t-22 7.5t-23.5 3.5q-27 0 -48.5 -30.5t-35 -60.5t-18.5 -30q-20 0 -20 14q0 13 9 39t27 58.5t53 56.5t79 24q28 0 60 -12.5t50 -24t51 -34.5l11 -9
q11 -8 13.5 -10t13.5 -9.5t15.5 -10.5t14 -9t16 -8.5t14.5 -5.5t15 -4.5t14 -1.5q27 0 48.5 30.5t35 60.5t19.5 30q18 0 18 -14q0 -13 -9 -39t-26.5 -59t-52.5 -57t-78 -24z" />
    <glyph glyph-name="odieresis" unicode="&#xf6;" 
d="M397 -25h-2q-102 0 -183.5 68t-125 179t-43.5 241t43.5 241t125.5 178.5t185 67.5t185.5 -67.5t126 -178.5t43.5 -241t-43.5 -241t-126 -179t-185.5 -68zM397 25h2q70 0 121 68t73.5 165t22.5 205t-22.5 205t-74 165t-122.5 68t-122.5 -68t-74 -165t-22.5 -205t22.5 -205
t74 -165t122.5 -68zM240 1092h-2q-37 0 -59.5 27.5t-22.5 64.5q0 41 22 66.5t62 25.5q37 0 60.5 -27t23.5 -65t-23.5 -65t-60.5 -27zM559 1092h-2q-37 0 -59.5 27.5t-22.5 64.5q0 41 22 66.5t62 25.5q37 0 60.5 -27t23.5 -65t-23.5 -65t-60.5 -27z" />
    <glyph glyph-name="divide" unicode="&#xf7;" horiz-adv-x="1228" 
d="M500 942v2q0 46 34 79.5t80 33.5t80.5 -34.5t34.5 -80.5q0 -43 -34.5 -79t-78.5 -36q-47 0 -81.5 34.5t-34.5 80.5zM1130 467h-1032v102h1032v-102zM500 94v2q0 46 34 79.5t80 33.5t80.5 -34.5t34.5 -80.5q0 -43 -34.5 -78.5t-78.5 -35.5q-47 0 -81.5 34t-34.5 80z" />
    <glyph glyph-name="oslash" unicode="&#xf8;" 
d="M215 41l-109 -221q-8 -17 -24 -17h-27q-14 0 -14 7q0 6 12 34l117 240q-60 68 -93.5 167.5t-33.5 211.5q0 130 43.5 241t125.5 178.5t185 67.5t183 -65l108 221q8 16 27 16h24q15 0 15 -6q0 -9 -13 -35l-116 -239q60 -64 93.5 -164.5t33.5 -214.5q0 -130 -43.5 -241
t-126 -179t-185.5 -68q-101 0 -182 66zM227 170l305 647q-55 84 -135 84q-71 0 -122.5 -68t-74 -165t-22.5 -205q0 -159 49 -293zM567 756l-305 -647q55 -84 135 -84q71 0 122.5 68t74 165t22.5 205q0 165 -49 293z" />
    <glyph glyph-name="ugrave" unicode="&#xf9;" horiz-adv-x="909" 
d="M264 854v-616q0 -81 46.5 -126.5t121.5 -45.5q98 0 168 73q45 52 45 111v555q0 38 -10.5 53t-46.5 19q-8 1 -18 2l-15 1.5t-11.5 1t-9.5 1.5t-6.5 3t-4.5 5t-2 6.5t-1 9.5q0 10 9 18.5t26 8.5q15 0 43 -1t43 -1q17 0 48 1t48 1t24 -8.5t7 -38.5v-78v-614q0 -56 9 -75
t38 -22q34 -3 44.5 -7.5t10.5 -16.5q0 -17 -39 -31q-40 -16 -88 -37t-55 -24q-18 -7 -24 -7q-9 0 -9 21v92q0 27 -14 27q-9 0 -29 -17q-2 -2 -16.5 -14.5t-21 -18t-23 -17.5t-27.5 -18.5t-30 -15.5t-36 -14t-39 -8.5t-44 -3.5q-107 0 -164 49q-70 63 -70 172v606
q0 32 -12 45.5t-45 16.5q-31 3 -42 9t-11 19q0 12 10.5 20.5t32.5 8.5q16 0 48 -1t48 -1q10 0 30.5 1t30.5 1q23 0 28 -16t5 -64zM582 1077v-2q0 -5 -4.5 -8.5t-10.5 -3.5q-14 0 -57 24l-268 158q-4 2 -19 11t-20 12.5t-17.5 11.5t-17 13t-11.5 12.5t-9.5 14.5t-2.5 15
q0 24 14 40t36 16q8 0 15.5 -2t16.5 -6.5l15 -7.5t16 -11.5t13.5 -11t15 -12.5t12.5 -11l244 -209q1 -1 12.5 -10t19 -17.5t7.5 -15.5z" />
    <glyph glyph-name="uacute" unicode="&#xfa;" horiz-adv-x="909" 
d="M264 854v-616q0 -81 46.5 -126.5t121.5 -45.5q98 0 168 73q45 52 45 111v555q0 38 -10.5 53t-46.5 19q-8 1 -18 2l-15 1.5t-11.5 1t-9.5 1.5t-6.5 3t-4.5 5t-2 6.5t-1 9.5q0 10 9 18.5t26 8.5q15 0 43 -1t43 -1q17 0 48 1t48 1t24 -8.5t7 -38.5v-78v-614q0 -56 9 -75
t38 -22q34 -3 44.5 -7.5t10.5 -16.5q0 -17 -39 -31q-40 -16 -88 -37t-55 -24q-18 -7 -24 -7q-9 0 -9 21v92q0 27 -14 27q-9 0 -29 -17q-2 -2 -16.5 -14.5t-21 -18t-23 -17.5t-27.5 -18.5t-30 -15.5t-36 -14t-39 -8.5t-44 -3.5q-107 0 -164 49q-70 63 -70 172v606
q0 32 -12 45.5t-45 16.5q-31 3 -42 9t-11 19q0 12 10.5 20.5t32.5 8.5q16 0 48 -1t48 -1q10 0 30.5 1t30.5 1q23 0 28 -16t5 -64zM342 1063h-2q-12 0 -12 14q0 7 7.5 15.5t19 17.5t12.5 10l243 209q72 62 105 62q23 0 36 -15t13 -39q0 -6 -1.5 -12t-5.5 -12t-7.5 -11
t-11 -11t-12 -9.5t-14 -9.5t-14 -9t-15.5 -9.5t-15 -8.5l-269 -158q-43 -24 -57 -24z" />
    <glyph glyph-name="ucircumflex" unicode="&#xfb;" horiz-adv-x="909" 
d="M264 854v-616q0 -81 46.5 -126.5t121.5 -45.5q98 0 168 73q45 52 45 111v555q0 38 -10.5 53t-46.5 19q-8 1 -18 2l-15 1.5t-11.5 1t-9.5 1.5t-6.5 3t-4.5 5t-2 6.5t-1 9.5q0 10 9 18.5t26 8.5q15 0 43 -1t43 -1q17 0 48 1t48 1t24 -8.5t7 -38.5v-78v-614q0 -56 9 -75
t38 -22q34 -3 44.5 -7.5t10.5 -16.5q0 -17 -39 -31q-40 -16 -88 -37t-55 -24q-18 -7 -24 -7q-9 0 -9 21v92q0 27 -14 27q-9 0 -29 -17q-2 -2 -16.5 -14.5t-21 -18t-23 -17.5t-27.5 -18.5t-30 -15.5t-36 -14t-39 -8.5t-44 -3.5q-107 0 -164 49q-70 63 -70 172v606
q0 32 -12 45.5t-45 16.5q-31 3 -42 9t-11 19q0 12 10.5 20.5t32.5 8.5q16 0 48 -1t48 -1q10 0 30.5 1t30.5 1q23 0 28 -16t5 -64zM424 1403h41q33 0 51 -27l184 -272q13 -18 13 -31q0 -10 -23 -10q-21 0 -45 24l-201 216l-200 -216q-24 -24 -45 -24q-23 0 -23 10q0 14 12 31
l185 272q18 27 51 27z" />
    <glyph glyph-name="udieresis" unicode="&#xfc;" horiz-adv-x="909" 
d="M264 854v-616q0 -81 46.5 -126.5t121.5 -45.5q98 0 168 73q45 52 45 111v555q0 38 -10.5 53t-46.5 19q-8 1 -18 2l-15 1.5t-11.5 1t-9.5 1.5t-6.5 3t-4.5 5t-2 6.5t-1 9.5q0 10 9 18.5t26 8.5q15 0 43 -1t43 -1q17 0 48 1t48 1t24 -8.5t7 -38.5v-78v-614q0 -56 9 -75
t38 -22q34 -3 44.5 -7.5t10.5 -16.5q0 -17 -39 -31q-40 -16 -88 -37t-55 -24q-18 -7 -24 -7q-9 0 -9 21v92q0 27 -14 27q-9 0 -29 -17q-2 -2 -16.5 -14.5t-21 -18t-23 -17.5t-27.5 -18.5t-30 -15.5t-36 -14t-39 -8.5t-44 -3.5q-107 0 -164 49q-70 63 -70 172v606
q0 32 -12 45.5t-45 16.5q-31 3 -42 9t-11 19q0 12 10.5 20.5t32.5 8.5q16 0 48 -1t48 -1q10 0 30.5 1t30.5 1q23 0 28 -16t5 -64zM285 1092h-2q-37 0 -59.5 27.5t-22.5 64.5q0 41 22 66.5t62 25.5q37 0 60.5 -27t23.5 -65t-23.5 -65t-60.5 -27zM604 1092h-2
q-37 0 -59.5 27.5t-22.5 64.5q0 41 22 66.5t62 25.5q37 0 60.5 -27t23.5 -65t-23.5 -65t-60.5 -27z" />
    <glyph glyph-name="yacute" unicode="&#xfd;" horiz-adv-x="681" 
d="M82 -342v2q0 50 59 61q4 1 15 3t16 3t13.5 3t14 4.5t11.5 6t10 7.5q14 14 51 123q39 115 39 154q0 36 -5.5 59.5t-29.5 97.5q-28 87 -88 279.5t-92 292.5q-26 81 -43 105t-35 26q-26 3 -34.5 8.5t-8.5 21.5q0 19 31 19q24 0 72 -4t72 -4q22 0 66 4t50 4q35 0 35 -25
q0 -3 -1 -5.5t-4.5 -4.5t-6.5 -3.5t-9.5 -3t-11.5 -2t-15 -2.5t-17 -3q-43 -7 -43 -47q0 -21 43 -166q38 -133 86 -279.5t57 -146.5t60 161.5t83 280.5q33 118 33 152q0 21 -17 30.5t-59 14.5q-2 0 -7 0.5t-7.5 1t-7 1.5t-7 2.5t-5.5 3t-4 4.5t-1 7q0 29 31 29q1 0 43.5 -4
t77.5 -4q12 0 40 4t48 4q27 0 27 -25q0 -17 -33 -24q-22 -4 -39 -36t-45 -116q-206 -632 -260 -817q-16 -55 -66 -244q-22 -69 -40.5 -91.5t-55.5 -22.5q-57 0 -71.5 19t-14.5 81zM250 1063h-2q-12 0 -12 14q0 7 7 15.5t18.5 17.5t12.5 10l244 209q72 62 105 62q23 0 36 -15
t13 -39q0 -7 -2.5 -14t-6 -12.5t-10.5 -12.5t-12 -11.5t-15.5 -11t-16 -10t-18 -10.5t-16.5 -10l-268 -158q-43 -24 -57 -24z" />
    <glyph glyph-name="thorn" unicode="&#xfe;" 
d="M225 -25v-284q0 -48 20.5 -65.5t80.5 -26.5q16 -3 22 -4.5t11.5 -7.5t5.5 -17q0 -8 -12.5 -14.5t-35.5 -6.5q-8 0 -46.5 4.5t-90.5 4.5q-48 0 -98 -4.5t-57 -4.5q-43 0 -43 23q0 6 1 10t7.5 9t19.5 8q64 14 78 29t14 79v1565q0 24 -11.5 34.5t-47.5 16.5q-26 5 -34.5 9
t-8.5 14t5.5 15t23.5 11q97 36 143 60q35 18 43 18q10 0 10 -29v-577q0 -21 11 -21q8 0 49 41q83 74 145 74q130 0 217.5 -135.5t87.5 -341.5t-94 -341.5t-242 -144.5q-52 0 -114 23q-41 18 -47 18q-13 0 -13 -41zM600 457v2q0 183 -50 292t-149 109q-69 0 -122 -47
q-54 -44 -54 -104v-508q0 -101 47 -148q41 -41 109 -41q98 0 158.5 110t60.5 335z" />
    <glyph glyph-name="ydieresis" unicode="&#xff;" horiz-adv-x="681" 
d="M82 -342v2q0 50 59 61q4 1 15 3t16 3t13.5 3t14 4.5t11.5 6t10 7.5q14 14 51 123q39 115 39 154q0 36 -5.5 59.5t-29.5 97.5q-28 87 -88 279.5t-92 292.5q-26 81 -43 105t-35 26q-26 3 -34.5 8.5t-8.5 21.5q0 19 31 19q24 0 72 -4t72 -4q22 0 66 4t50 4q35 0 35 -25
q0 -3 -1 -5.5t-4.5 -4.5t-6.5 -3.5t-9.5 -3t-11.5 -2t-15 -2.5t-17 -3q-43 -7 -43 -47q0 -21 43 -166q38 -133 86 -279.5t57 -146.5t60 161.5t83 280.5q33 118 33 152q0 21 -17 30.5t-59 14.5q-2 0 -7 0.5t-7.5 1t-7 1.5t-7 2.5t-5.5 3t-4 4.5t-1 7q0 29 31 29q1 0 43.5 -4
t77.5 -4q12 0 40 4t48 4q27 0 27 -25q0 -17 -33 -24q-22 -4 -39 -36t-45 -116q-206 -632 -260 -817q-16 -55 -66 -244q-22 -69 -40.5 -91.5t-55.5 -22.5q-57 0 -71.5 19t-14.5 81zM182 1092h-2q-37 0 -59.5 27.5t-22.5 64.5q0 41 22 66.5t62 25.5q37 0 60.5 -27t23.5 -65
t-23.5 -65t-60.5 -27zM502 1092h-2q-37 0 -59.5 27.5t-22.5 64.5q0 41 22 66.5t62 25.5q37 0 60.5 -27t23.5 -65t-23.5 -65t-60.5 -27z" />
    <glyph glyph-name="dotlessi" unicode="&#x131;" horiz-adv-x="454" 
d="M166 135v600q0 36 -16.5 51t-69.5 25q-19 4 -19 20t60 37q49 17 119 62q27 20 32 20q17 0 17 -22v-92v-691q0 -23 0.5 -32t4 -24.5t10.5 -22t21 -14t35 -11.5q31 -6 41.5 -11.5t10.5 -17.5q0 -11 -6.5 -15.5t-24.5 -4.5q-4 0 -48.5 4t-107.5 4q-49 0 -83 -2t-49.5 -4
t-20.5 -2q-25 0 -25 22t35 27q56 9 70 24.5t14 69.5z" />
    <glyph glyph-name="Lslash" unicode="&#x141;" 
d="M307 641v-446q0 -81 32.5 -117.5t109.5 -36.5q205 0 272 229q3 11 6.5 23.5t5.5 19.5t4.5 14.5t4 11.5t4 7.5t5.5 4.5t7 1q11 0 14.5 -11.5t3.5 -59.5q0 -146 -2 -220q-1 -47 -7 -58t-22 -11q-71 0 -213 4t-213 4q-42 0 -124.5 -4t-124.5 -4q-41 0 -41 22q0 15 15 23
t56 12q40 4 56 25.5t16 68.5v406l-156 -105q-15 -10 -20 -10q-4 0 -4 12v31q0 12 24 29l156 106v484q0 79 -11.5 106.5t-41.5 30.5q-69 7 -80 13q-10 7 -10 20q0 24 41 24q13 0 72.5 -4t123.5 -4q62 0 109.5 4t50.5 4q35 0 35 -22q0 -8 -3.5 -13t-12.5 -8t-17.5 -4.5t-26 -4
t-30.5 -5.5q-40 -9 -52 -25.5t-12 -60.5v-442l287 194q15 10 20 10q4 0 4 -12v-35q0 -14 -24 -28z" />
    <glyph glyph-name="lslash" unicode="&#x142;" horiz-adv-x="454" 
d="M289 809v-698q0 -8 1 -14t2 -11t4.5 -9.5t5 -7t8 -6t9.5 -5t12.5 -4t13.5 -4t17 -4.5t19 -5q33 -9 38 -18q1 -3 1 -7q0 -24 -23 -24q-4 0 -20 2t-54 4t-94 2q-50 0 -84.5 -2t-50.5 -4t-22 -2q-9 0 -17 6t-8 18q0 9 10 16t23 9q53 7 69.5 25t16.5 61v575l-143 -124
q-13 -13 -17 -13t-4 15v30q0 13 16 29l148 129v504q0 24 -12 34.5t-48 16.5q-26 5 -34.5 9t-8.5 14t5.5 15t23.5 11q101 38 144 60q35 18 43 18q10 0 10 -29v-547l147 127q13 13 17 13t4 -15v-30q0 -12 -17 -29z" />
    <glyph glyph-name="OE" unicode="&#x152;" horiz-adv-x="1366" 
d="M844 631v-449q0 -141 153 -141q98 0 152 58t90 192q12 44 19.5 56.5t21.5 12.5q8 0 11 -7t3 -36v-86q0 -13 1 -73.5t1 -85.5q0 -55 -11 -67.5t-48 -12.5q-11 0 -133 4q-126 4 -252 4q-44 0 -154 -10q-25 -2 -61.5 -4.5t-59.5 -4t-34 -1.5q-141 0 -251.5 82t-170.5 225.5
t-60 322.5q0 144 31 263.5t79.5 197t111 131.5t123.5 77.5t118 23.5q14 0 84 -9q93 -12 170 -12q21 0 217 4q200 4 238 4q33 0 40 -13t7 -75q0 -151 -2 -186q-1 -35 -6 -45t-15 -10q-13 0 -17 7t-17 46q-69 199 -222 223q-35 4 -83 4q-45 0 -59.5 -12t-14.5 -35v-449
q0 -25 6.5 -30.5t34.5 -5.5q101 0 142 18.5t58 71.5q6 17 13 41q10 31 14 38t14 7t13.5 -8.5t3.5 -32.5q0 -28 -4 -82t-4 -80q0 -31 4 -98.5t4 -96.5q0 -30 -21 -30q-10 0 -16.5 13.5t-15.5 51.5q-20 79 -57 108t-115 29q-36 0 -52 -3.5t-19 -8t-3 -16.5zM213 631v-2
q0 -275 84.5 -437.5t239.5 -162.5q67 0 119.5 45t52.5 123v438v438q0 85 -56 135q-48 45 -129 45q-136 0 -223.5 -155.5t-87.5 -466.5z" />
    <glyph glyph-name="oe" unicode="&#x153;" horiz-adv-x="1251" 
d="M1151 500h-379q-22 0 -37 -11q-10 -10 -10 -26q0 -181 67.5 -291.5t170.5 -110.5q129 0 188 117q9 18 17 38.5t12 26t10 5.5q14 0 14 -25q0 -52 -18 -98q-26 -66 -88.5 -108t-149.5 -42q-165 0 -243 115q-21 30 -37 70q-16 -37 -41 -72q-78 -113 -240 -113
q-100 0 -179.5 68t-122 179t-42.5 241t42.5 241t121 178.5t176.5 67.5q86 0 147 -38t109 -109q20 -30 31 -62q13 34 37 74q87 135 235 135q113 0 185.5 -86.5t72.5 -236.5q0 -92 -6.5 -109.5t-42.5 -17.5zM393 25h2q49 0 86.5 21t60 59.5t37 80t21 96.5t8.5 94t2 87
q0 108 -22.5 205t-74 165t-122.5 68q-69 0 -119 -68t-72 -165t-22 -205t22 -205t72.5 -165t120.5 -68zM733 602v-2q0 -28 14 -35.5t76 -7.5q118 0 193 14q46 8 57.5 31t11.5 76q0 104 -43 163.5t-112 59.5q-83 0 -140 -86.5t-57 -212.5z" />
    <glyph glyph-name="Scaron" unicode="&#x160;" 
d="M745 352v-2q0 -172 -110 -277.5t-285 -105.5q-158 0 -239 51q-20 13 -28 43.5t-9 124.5q0 147 6 181q3 14 7.5 18t14.5 4q9 0 14.5 -1t8.5 -7.5t3.5 -8.5t2.5 -14q37 -182 102 -262t160 -80q100 0 165 79t65 196q0 106 -55 177t-156 136q-14 9 -44 29t-44 29
q-55 35 -92 64.5t-74.5 72t-56.5 95.5t-19 116q0 126 101.5 215.5t246.5 89.5q62 0 133 -20.5t92 -41.5q11 -11 13 -63v-131q0 -79 -3 -95t-18 -16q-13 0 -18.5 7.5t-9.5 32.5t-7 36q-37 129 -90.5 185.5t-124.5 56.5q-77 0 -134.5 -59t-57.5 -138q0 -63 20.5 -114
t62.5 -91.5t79.5 -66.5t98.5 -63q4 -2 6.5 -3.5t6 -3.5t6.5 -4q49 -31 78.5 -51.5t68.5 -56t60.5 -70t37 -85t15.5 -108.5zM440 1378h-41q-33 0 -51 27l-184 272q-12 17 -12 31q0 10 22 10q21 0 45 -24l201 -215l201 215q24 24 45 24q22 0 22 -10q0 -14 -12 -31l-184 -272
q-18 -27 -52 -27z" />
    <glyph glyph-name="scaron" unicode="&#x161;" horiz-adv-x="569" 
d="M37 705v2q0 63 24.5 111.5t65.5 76.5t88.5 41.5t99.5 13.5q105 0 154 -32q7 -5 10 -35q2 -18 2 -80v-58q-3 -49 -20 -49q-6 0 -10 3.5t-8 13t-7.5 20l-10.5 31.5t-15 41q-19 46 -46 71t-71 25q-66 0 -110 -40.5t-44 -100.5q0 -16 3 -30.5t11.5 -29t14.5 -25t21.5 -24.5
t23.5 -21.5t29.5 -21.5t29.5 -19.5t33.5 -21t32.5 -20.5q44 -27 73.5 -50.5t60.5 -57.5t47 -77t16 -94q0 -137 -83.5 -215t-222.5 -78q-69 0 -123 15q-6 2 -18.5 5t-19.5 5q-21 7 -25 55q-4 50 -4 111q0 52 2.5 78t6.5 34.5t13 8.5q4 0 7 -1.5t6 -5.5t5 -9t5 -15.5l6 -21
t9 -29t12 -37.5q49 -143 151 -143q71 0 114.5 45t43.5 118q0 45 -14 81t-44.5 65.5t-54 46t-68.5 43.5q-7 4 -10 6q-45 27 -72 47t-58.5 53t-46.5 76.5t-15 98.5zM305 1063h-41q-33 0 -51 27l-184 272q-13 18 -13 31q0 10 23 10q20 0 45 -25l201 -215l200 215q25 25 45 25
q23 0 23 -10q0 -14 -12 -31l-185 -272q-18 -27 -51 -27z" />
    <glyph glyph-name="Ydieresis" unicode="&#x178;" 
d="M330 147v398q0 24 -5.5 43.5t-25.5 62.5q-25 55 -100.5 229t-118.5 265q-23 49 -38 65t-38 23q-4 1 -12 2.5t-11.5 2.5t-9 3t-8 4.5t-4.5 6t-2 8.5q0 14 9 22t24 8q7 0 59 -4t86 -4q41 0 75 2t52.5 4t20.5 2q16 0 28.5 -7t12.5 -21q0 -10 -5 -15t-11 -6.5t-19.5 -3.5
t-22.5 -4q-35 -9 -45 -17.5t-10 -29.5q0 -24 88 -232q41 -98 65 -153t38 -83t20 -35t12 -7q9 0 18.5 15.5t38.5 78.5q10 21 16 34t17.5 37.5t22.5 47.5q117 244 117 295q0 21 -16 31.5t-64 17.5q-43 6 -43 24q0 15 10 24t27 9q19 0 60 -4t62 -4q39 0 71.5 4t45.5 4
q23 0 23 -26q0 -5 -0.5 -9t-2.5 -7l-3 -4.5t-5 -3.5l-5 -2.5t-7 -2.5t-8 -2q-30 -8 -49.5 -29t-52.5 -88q-32 -64 -66.5 -138t-75.5 -164.5t-65 -141.5q-23 -49 -29 -69t-6 -42v-426q0 -78 55 -86q6 -1 16.5 -2.5t16.5 -2t14 -2.5t12.5 -4t9.5 -5t7 -7t2 -10
q0 -16 -10.5 -20t-38.5 -4q-13 0 -61 4t-87 4q-41 0 -97.5 -4t-74.5 -4q-26 0 -33.5 5.5t-7.5 18.5q0 14 18 21t60 12q39 4 51.5 23.5t12.5 74.5zM240 1407h-2q-37 0 -59.5 27.5t-22.5 64.5q0 41 22 66.5t62 25.5q37 0 60.5 -27t23.5 -65t-23.5 -65t-60.5 -27zM559 1407h-2
q-37 0 -59.5 27.5t-22.5 64.5q0 41 22 66.5t62 25.5q37 0 60.5 -27t23.5 -65t-23.5 -65t-60.5 -27z" />
    <glyph glyph-name="Zcaron" unicode="&#x17d;" 
d="M233 57h3q162 0 247 15q97 17 145 65t74 152q23 90 30 99q5 5 13 5q17 0 22 -11.5t5 -62.5q0 -205 -4 -262q-3 -42 -10 -53.5t-25 -11.5q-14 0 -59.5 2t-137.5 4t-219 2q-93 0 -160 -2t-98 -4t-36 -2q-9 0 -16 12.5t-7 20.5q0 3 29 63l526 1020q43 88 43 98
q0 8 -5.5 13.5t-28.5 9.5t-64 4q-109 0 -160 -12q-121 -28 -178 -142q-11 -21 -22.5 -64t-24 -66t-35.5 -23q-21 0 -21 53q0 23 7 74q4 31 11.5 118t14.5 127q12 66 35 66q7 0 12.5 -2t9.5 -7t6 -8.5t5.5 -12t5.5 -11.5q20 -41 94 -41h252h252q14 0 14 -12q0 -8 -43 -92
q-286 -560 -514 -1012q-43 -88 -43 -96t9.5 -10.5t45.5 -2.5zM440 1378h-41q-33 0 -51 27l-184 272q-12 17 -12 31q0 10 22 10q21 0 45 -24l201 -215l201 215q24 24 45 24q22 0 22 -10q0 -14 -12 -31l-184 -272q-18 -27 -52 -27z" />
    <glyph glyph-name="zcaron" unicode="&#x17e;" horiz-adv-x="681" 
d="M625 305h2q22 0 22 -53q0 -18 -1 -107t-1 -110q0 -23 -7 -30t-22 -7q-47 0 -142 1t-142 1q-48 0 -143.5 -1t-143.5 -1q-16 0 -16 18q0 7 2.5 14t6 13t13.5 22t19 31l391 697q35 61 35 67q0 17 -70 17q-76 0 -115 -5q-74 -9 -109.5 -32.5t-64.5 -83.5q-9 -19 -17.5 -37.5
t-12 -27t-8 -16t-8 -9.5t-9.5 -2q-18 0 -18 20q0 28 43 248q6 27 11.5 37t14.5 10t15.5 -4.5t9 -8.5t6.5 -14q13 -26 47 -26h203h202q33 0 33 -19q0 -16 -35 -76l-421 -743q-11 -20 -11 -29q0 -4 1.5 -5t10 -2.5t27.5 -2.5q141 0 170 2q92 7 128 35t61 98q11 31 16.5 64
t9.5 45t17 12zM383 1063h-41q-33 0 -51 27l-185 272q-12 17 -12 31q0 10 23 10q20 0 45 -25l200 -215l201 215q25 25 45 25q23 0 23 -10q0 -13 -13 -31l-184 -272q-18 -27 -51 -27z" />
    <glyph glyph-name="florin" unicode="&#x192;" 
d="M270 741h-131q-11 0 -8 17q2 8 6 20q3 9 6.5 11t14.5 2h125q66 268 159 387q107 137 258 137q66 0 98.5 -24t32.5 -77q0 -29 -8 -79q-5 -27 -16.5 -44.5t-24.5 -17.5q-12 0 -21 7.5t-16 24t-10.5 28.5t-9.5 36q-11 46 -25.5 71.5t-42.5 25.5q-59 0 -108 -60
q-57 -68 -100 -237q-16 -67 -46 -178h154q6 0 9 -0.5t4.5 -3.5t0.5 -9q-4 -12 -6 -20q-3 -17 -20 -17h-154q-43 -181 -90 -366q-60 -243 -101.5 -385t-90.5 -244q-55 -111 -124 -166t-169 -55q-66 0 -98.5 23.5t-32.5 76.5q0 30 8 80q5 27 16.5 44.5t24.5 17.5q12 0 21 -7.5
t16 -25t10.5 -28.5t9.5 -36q11 -46 27 -71t49 -25q39 0 64 25.5t55 97.5q13 31 26.5 70.5t32.5 110t32.5 120.5t44.5 171.5t50 192.5q11 42 45 174.5t53 204.5z" />
    <glyph glyph-name="circumflex" unicode="&#x2c6;" horiz-adv-x="454" 
d="M207 1403h41q33 0 51 -27l184 -272q13 -18 13 -31q0 -10 -23 -10q-21 0 -45 24l-201 216l-200 -216q-24 -24 -45 -24q-23 0 -23 10q0 14 12 31l185 272q18 27 51 27z" />
    <glyph glyph-name="caron" unicode="&#x2c7;" horiz-adv-x="454" 
d="M248 1063h-41q-33 0 -51 27l-185 272q-12 17 -12 31q0 10 23 10q20 0 45 -25l200 -215l201 215q25 25 45 25q23 0 23 -10q0 -13 -13 -31l-184 -272q-18 -27 -51 -27z" />
    <glyph glyph-name="uni02C9" unicode="&#x2c9;" horiz-adv-x="454" 
d="M23 1212h430q26 0 26 -10q0 -17 -12 -45q-9 -21 -15 -25t-28 -4h-432q-17 0 -17 9q0 2 15 43q1 4 3 10.5t2 8.5t2 5.5t3.5 4t5 2t7 1.5h10.5z" />
    <glyph glyph-name="breve" unicode="&#x2d8;" horiz-adv-x="454" 
d="M227 1073h-2q-73 0 -129 44t-81 100.5t-25 109.5q0 33 20 33q18 0 25 -31q36 -153 192 -153q157 0 193 153q7 31 24 31q21 0 21 -33q0 -53 -25.5 -109.5t-82 -100.5t-130.5 -44z" />
    <glyph glyph-name="dotaccent" unicode="&#x2d9;" horiz-adv-x="454" 
d="M227 1085h-2q-40 0 -62 29t-22 72q0 40 24 69t64 29q39 0 63.5 -29t24.5 -69q0 -42 -24.5 -71.5t-65.5 -29.5z" />
    <glyph glyph-name="ring" unicode="&#x2da;" horiz-adv-x="454" 
d="M227 1065h-2q-82 0 -139 58t-57 141t57.5 140.5t140.5 57.5t141 -57.5t58 -140.5t-58 -141t-141 -58zM227 1126h2q56 0 96 40.5t40 97.5t-40.5 97t-97.5 40t-97 -40t-40 -97t40 -97.5t97 -40.5z" />
    <glyph glyph-name="ogonek" unicode="&#x2db;" horiz-adv-x="454" 
d="M303 0h45q-209 -121 -209 -250q0 -42 33.5 -69t69.5 -27q64 0 106 31q33 22 41 22q7 0 13 -6t6 -12q0 -28 -62.5 -61.5t-124.5 -33.5q-75 0 -124.5 41t-49.5 113q0 77 83.5 150t172.5 102z" />
    <glyph glyph-name="tilde" unicode="&#x2dc;" horiz-adv-x="454" 
d="M350 1087h-2q-27 0 -58.5 13.5t-47 24t-45.5 32.5q-4 3 -20.5 15t-23.5 16.5t-22 14t-24.5 13.5t-22 7.5t-23.5 3.5q-27 0 -48.5 -30.5t-35 -60.5t-18.5 -30q-20 0 -20 14q0 13 9 39t26.5 59t52.5 56.5t79 23.5q28 0 60 -12.5t51 -24t51 -34.5l11 -9q11 -8 13.5 -10
t13.5 -9.5t15.5 -10.5t14 -9t16 -8.5t14.5 -5.5t15 -4.5t14 -1.5q27 0 48.5 30.5t35 60.5t19.5 30q18 0 18 -14q0 -13 -9 -39t-26.5 -59t-52.5 -57t-78 -24z" />
    <glyph glyph-name="hungarumlaut" unicode="&#x2dd;" horiz-adv-x="454" 
d="M14 1063h-2q-4 0 -8 3.5t-4 8.5q0 8 25 41l153 213q4 5 14.5 20t16 21t15 15.5t18.5 13.5t20 4q51 0 51 -45q0 -7 -3 -15t-6 -14t-10.5 -14.5t-12 -13l-14.5 -14.5l-13 -13l-182 -174q-37 -37 -58 -37zM260 1063h-2q-4 0 -8 3.5t-4 8.5q0 9 24 41l154 213q4 5 14.5 20
t16 21t15 15.5t18.5 13.5t20 4q51 0 51 -45q0 -7 -3 -15t-6 -14t-10.5 -14.5t-12 -13l-14.5 -14.5l-13 -13l-183 -174q-37 -37 -57 -37z" />
    <glyph glyph-name="uni03A9" unicode="&#x3a9;" horiz-adv-x="1040" 
d="M991 242l-33 -242h-342l-10 27q7 19 43.5 111t53.5 142.5t43 135.5t37.5 162.5t11.5 152.5q-1 137 -24 242.5t-62 168t-87.5 93.5t-103.5 31q-58 0 -106 -29.5t-86 -91.5t-59 -169t-21 -251q0 -92 16 -186.5t50 -197t55.5 -157.5t64.5 -157l-12 -27h-340l-31 242l41 2
q21 -83 44.5 -108t68.5 -25h149q-254 301 -254 624q0 264 121 423t303 159q184 0 301 -154.5t117 -419.5q0 -303 -258 -632h156q48 0 68 22.5t42 110.5z" />
    <glyph glyph-name="uni03BC" unicode="&#x3bc;" horiz-adv-x="909" 
d="M264 854v-616q0 -81 46.5 -126.5t121.5 -45.5q98 0 168 73q45 52 45 111v555q0 38 -10.5 53t-46.5 19q-8 1 -18 2l-15 1.5t-11.5 1t-9.5 1.5t-6.5 3t-4.5 5t-2 6.5t-1 9.5q0 10 9 18.5t26 8.5q15 0 43 -1t43 -1q17 0 48 1t48 1t24 -8.5t7 -38.5v-78v-614q0 -56 9 -75
t38 -22q34 -3 44.5 -7.5t10.5 -16.5q0 -17 -39 -31q-40 -16 -88 -37t-55 -24q-18 -7 -20 -7q-5 0 -9 7t-4 14v92q0 27 -14 27q-9 0 -29 -17q-1 0 -19 -16.5t-25 -21.5t-26.5 -19.5t-34 -21t-35.5 -15.5t-43 -12.5t-46 -3.5q-108 0 -170 96l-4 -4v-51q0 -83 20.5 -180.5
t20.5 -149.5q0 -62 -19 -101.5t-55 -39.5q-74 0 -74 141q0 52 19.5 149.5t19.5 180.5v192v594q0 32 -12 45.5t-45 16.5q-31 3 -42 9t-11 19q0 12 10.5 20.5t32.5 8.5q16 0 48 -1t48 -1q10 0 30.5 1t30.5 1q23 0 28 -16t5 -64z" />
    <glyph glyph-name="pi" unicode="&#x3c0;" horiz-adv-x="866" 
d="M780 862l41 -14q-17 -84 -55 -146q-33 -8 -109 -8q-8 -115 -8 -446q0 -87 16 -129.5t56 -42.5q23 0 40.5 12t39.5 43l24 -33q-62 -121 -161 -121q-66 0 -103 53t-37 185q0 185 19 485q-45 0 -122.5 2.5t-109.5 2.5v-39q0 -151 -12.5 -278t-31.5 -202.5t-34.5 -117.5
t-27.5 -58q-58 -30 -99 -33l-10 29q44 61 75.5 152t47 190.5t22.5 187t7 171.5q-52 0 -90.5 -11.5t-57.5 -24t-57 -42.5l-23 37q2 2 12.5 15.5t15 18.5t17 18.5t20.5 20t23.5 18t28 18t31 14.5t36.5 12.5t40.5 7t46.5 2.5q53 0 182 -3t213 -3q40 0 57.5 11t36.5 46z" />
    <glyph glyph-name="endash" unicode="&#x2013;" horiz-adv-x="1024" 
d="M49 506h955q16 0 16 -8q0 -6 -6 -21l-17 -45q-3 -8 -6.5 -10t-15.5 -2h-955q-16 0 -16 8q0 6 6 21l17 45q3 8 6.5 10t15.5 2z" />
    <glyph glyph-name="emdash" unicode="&#x2014;" horiz-adv-x="2048" 
d="M49 506h1979q16 0 16 -8q0 -6 -6 -21l-17 -45q-3 -8 -6.5 -10t-15.5 -2h-1979q-16 0 -16 8q0 6 6 21l17 45q3 8 6.5 10t15.5 2z" />
    <glyph glyph-name="quoteleft" unicode="&#x2018;" horiz-adv-x="454" 
d="M315 1434h2q15 0 15 -15q0 -7 -7 -14t-21.5 -23t-27.5 -36q-21 -34 -31 -52t-19 -46t-9 -56q0 -17 6.5 -27t13 -13.5t23.5 -8t23 -6.5q43 -18 43 -72q0 -36 -20 -59t-56 -23q-51 0 -77 42.5t-26 104.5q0 67 36.5 141.5t76 118.5t55.5 44z" />
    <glyph glyph-name="quoteright" unicode="&#x2019;" horiz-adv-x="454" 
d="M129 1233v2q0 35 20 57.5t56 22.5q51 0 76.5 -42.5t25.5 -105.5q0 -67 -36.5 -141.5t-76 -118t-55.5 -43.5t-16 15q0 7 6.5 14t21 23t27.5 36q22 35 31.5 52t19 45.5t9.5 56.5q0 17 -6.5 27t-13 13.5t-23.5 8t-23 6.5q-43 18 -43 72z" />
    <glyph glyph-name="quotesinglbase" unicode="&#x201a;" horiz-adv-x="454" 
d="M129 90v2q0 35 20 57.5t56 22.5q51 0 76.5 -42.5t25.5 -104.5q0 -67 -36.5 -141.5t-76 -118.5t-55.5 -44t-16 15q0 7 6.5 14.5t21 23.5t27.5 36q23 36 32 52t18.5 44.5t9.5 56.5q0 17 -6.5 27t-13 13.5t-23.5 8t-23 6.5q-43 18 -43 72z" />
    <glyph glyph-name="quotedblleft" unicode="&#x201c;" 
d="M295 1434h2q14 0 14 -15q0 -7 -6.5 -14t-21 -23t-27.5 -36q-21 -34 -31 -52t-19 -46t-9 -56q0 -17 6.5 -27t12.5 -13.5t23 -8t23 -6.5q43 -18 43 -72q0 -36 -20 -59t-56 -23q-51 0 -76.5 42.5t-25.5 104.5q0 67 36.5 141.5t76 118.5t55.5 44zM674 1434h2q14 0 14 -15
q0 -7 -6.5 -14t-21 -23t-27.5 -36q-22 -35 -31.5 -52t-19 -45.5t-9.5 -56.5q0 -17 6.5 -27t13 -13.5t23.5 -8t23 -6.5q43 -18 43 -72q0 -36 -20 -59t-56 -23q-51 0 -76.5 42.5t-25.5 104.5q0 67 36.5 141.5t76 118.5t55.5 44z" />
    <glyph glyph-name="quotedblright" unicode="&#x201d;" 
d="M113 1233v2q0 35 19.5 57.5t55.5 22.5q51 0 77 -43t26 -105q0 -67 -36.5 -141.5t-76 -118t-55.5 -43.5q-17 0 -17 15q0 7 7 14t21.5 23t27.5 36q21 34 31 52t19 46t9 56q0 17 -6.5 27t-12.5 13.5t-23 8t-23 6.5q-43 18 -43 72zM492 1233v2q0 35 19.5 57.5t55.5 22.5
q51 0 77 -43t26 -105q0 -67 -36.5 -141.5t-76 -118t-55.5 -43.5q-17 0 -17 15q0 7 7 14t21.5 23t27.5 36q21 34 31 52t19 46t9 56q0 17 -6.5 27t-12.5 13.5t-23 8t-23 6.5q-43 18 -43 72z" />
    <glyph glyph-name="quotedblbase" unicode="&#x201e;" 
d="M113 90v2q0 35 19.5 57.5t55.5 22.5q51 0 77 -42.5t26 -104.5q0 -67 -36.5 -141.5t-76 -118.5t-55.5 -44q-17 0 -17 15q0 7 7 14.5t21.5 23.5t27.5 36q22 35 31.5 52t18.5 45t9 56q0 17 -6.5 27t-12.5 13.5t-23 8t-23 6.5q-43 18 -43 72zM492 90v2q0 35 19.5 57.5
t55.5 22.5q51 0 77 -42.5t26 -104.5q0 -67 -36.5 -141.5t-76 -118.5t-55.5 -44q-17 0 -17 15q0 7 7 14.5t21.5 23.5t27.5 36q22 35 31.5 52t18.5 45t9 56q0 17 -6.5 27t-12.5 13.5t-23 8t-23 6.5q-43 18 -43 72z" />
    <glyph glyph-name="dagger" unicode="&#x2020;" horiz-adv-x="1024" 
d="M530 -377h-36q0 361 -16 542.5t-52 285.5q68 118 68 378q-107 0 -189 -28q-9 -3 -28 -10t-28 -10t-24.5 -6t-29.5 -3q-40 0 -60 22.5t-20 53.5t20 53.5t60 22.5q13 0 28 -3t24.5 -6t30 -10t29.5 -10q93 -29 187 -29q0 87 -10.5 151.5t-23.5 93.5t-23.5 60.5t-10.5 61.5
q0 35 23.5 58.5t62.5 23.5t62.5 -23.5t23.5 -58.5q0 -30 -10.5 -61.5t-23.5 -60.5t-23.5 -93.5t-10.5 -151.5q96 0 189 29q10 3 29.5 10t29.5 10t24.5 6t26.5 3q40 0 60 -22.5t20 -53.5t-20 -53.5t-60 -22.5q-14 0 -29 3t-24.5 6t-27 10t-27.5 10q-82 28 -191 28
q0 -260 68 -378q-36 -104 -52 -285.5t-16 -542.5z" />
    <glyph glyph-name="daggerdbl" unicode="&#x2021;" horiz-adv-x="1024" 
d="M909 848v-2q0 -30 -20 -52t-60 -22q-14 0 -29 3t-24.5 6t-27 10t-27.5 10q-82 28 -191 28q0 -222 60 -360q-60 -138 -60 -360q81 0 138 14.5t93.5 28.5t67.5 14q40 0 60 -22.5t20 -53.5t-20 -53.5t-60 -22.5q-31 0 -67.5 14.5t-93.5 29t-138 14.5q0 -87 10.5 -151.5
t23.5 -93.5t23.5 -60.5t10.5 -61.5q0 -35 -23.5 -58.5t-62.5 -23.5t-62.5 23.5t-23.5 58.5q0 30 10.5 61.5t23.5 60.5t23.5 93.5t10.5 151.5q-81 0 -138 -14.5t-93.5 -29t-67.5 -14.5q-40 0 -60 22.5t-20 53.5t20 53.5t60 22.5q31 0 67.5 -14t93.5 -28.5t138 -14.5
q0 222 -60 360q60 138 60 360q-107 0 -189 -28q-9 -3 -28 -10t-28 -10t-24.5 -6t-29.5 -3q-40 0 -60 22.5t-20 53.5t20 53.5t60 22.5q13 0 28 -3t24.5 -6t30 -10t29.5 -10q93 -29 187 -29q0 87 -10.5 151.5t-23.5 93.5t-23.5 60.5t-10.5 61.5q0 35 23.5 58.5t62.5 23.5
t62.5 -23.5t23.5 -58.5q0 -30 -10.5 -61.5t-23.5 -60.5t-23.5 -93.5t-10.5 -151.5q96 0 189 29q10 3 29.5 10t29.5 10t24.5 6t26.5 3q40 0 60 -22.5t20 -53.5z" />
    <glyph glyph-name="bullet" unicode="&#x2022;" horiz-adv-x="1024" 
d="M510 971h2q106 0 181 -73.5t75 -180.5t-75.5 -182.5t-182.5 -75.5q-105 0 -179.5 75.5t-74.5 182.5q-3 106 72.5 180t181.5 74z" />
    <glyph glyph-name="ellipsis" unicode="&#x2026;" horiz-adv-x="2048" 
d="M342 172h2q35 0 56.5 -30t21.5 -68t-22 -68.5t-58 -30.5t-58 30.5t-22 68.5t22 68t58 30zM1024 172h2q35 0 56.5 -30t21.5 -68t-22 -68.5t-58 -30.5t-58 30.5t-22 68.5t22 68t58 30zM1706 172h2q35 0 56.5 -30t21.5 -68t-22 -68.5t-58 -30.5t-58 30.5t-22 68.5t22 68
t58 30z" />
    <glyph glyph-name="perthousand" unicode="&#x2030;" horiz-adv-x="1705" 
d="M100 -23v3q0 6 27 49l797 1265q15 21 34 21h21q20 0 20 -10t-26 -52l-797 -1265q-15 -21 -35 -21h-20q-21 0 -21 10zM279 717h2q57 0 93 71.5t36 210.5t-36.5 211t-94.5 72q-59 0 -95.5 -72t-36.5 -211t36.5 -210.5t95.5 -71.5zM821 0h2q57 0 93 72t36 211t-36.5 210.5
t-94.5 71.5t-94.5 -71.5t-36.5 -210.5t36.5 -211t94.5 -72zM279 684h-3q-108 0 -177.5 95.5t-69.5 219.5q0 125 70.5 220.5t179.5 95.5t179 -95.5t70 -220.5t-70 -220t-179 -95zM821 -33h-2q-108 0 -178 96t-70 220q0 80 30 151.5t88.5 117.5t131.5 46t131.5 -46
t88.5 -117.5t30 -151.5q0 -125 -70.5 -220.5t-179.5 -95.5zM1427 -33h-2q-108 0 -177.5 95.5t-69.5 220.5t70 220t179 95q73 0 131.5 -46t88.5 -117.5t30 -151.5q0 -125 -70.5 -220.5t-179.5 -95.5zM1427 0h3q57 0 93 72t36 211t-36.5 210.5t-95.5 71.5q-58 0 -94.5 -71.5
t-36.5 -210.5t36.5 -211t94.5 -72z" />
    <glyph glyph-name="guilsinglleft" unicode="&#x2039;" horiz-adv-x="569" 
d="M416 205h-82q-44 0 -68 39l-84 139q-13 22 -37 49q-12 12 -12 19q0 6 12 18q24 27 37 49l84 139q24 39 68 39h82q20 0 20 -8t-24 -8q-31 0 -72 -66l-76 -125q-13 -23 -28 -38q13 -13 28 -39l76 -125q41 -66 72 -66q24 0 24 -8t-20 -8z" />
    <glyph glyph-name="guilsinglright" unicode="&#x203a;" horiz-adv-x="569" 
d="M154 696h82q43 0 67 -39l84 -139q13 -22 37 -49q12 -12 12 -18q0 -7 -12 -19q-24 -27 -37 -49l-84 -139q-24 -39 -67 -39h-82q-21 0 -21 8t25 8q18 0 34.5 16.5t36.5 49.5l76 125q13 23 29 39q-17 17 -29 38l-76 125q-20 33 -36.5 49.5t-34.5 16.5q-25 0 -25 8t21 8z" />
    <glyph glyph-name="fraction" unicode="&#x2044;" horiz-adv-x="342" 
d="M-279 -23v3q0 6 27 49l797 1265q15 21 35 21h20q21 0 21 -10q0 -9 -27 -52l-797 -1265q-15 -21 -35 -21h-20q-21 0 -21 10z" />
    <glyph glyph-name="Euro" unicode="&#x20ac;" 
d="M575 569q0 -12 -8.5 -25.5t-17.5 -13.5h-256q21 -514 219 -514q36 0 63 20t45 58.5t29 80.5t21 101q13 83 21 108.5t24 25.5q9 0 13.5 -2.5t8.5 -16t4 -39.5v-248q0 -28 -4.5 -40t-17.5 -23q-66 -74 -197 -74q-151 0 -254 150t-121 413h-104q-23 0 -23 13q0 17 10 31
t19 14h94v51q0 65 2 96h-102q-23 0 -23 13q0 17 10 31t19 14h103q25 241 123 381.5t245 140.5q63 0 120 -22t73 -40q8 -9 10 -43.5t2 -179.5q0 -68 -4 -82t-23 -14q-11 0 -19 16.5t-24 83.5q-29 117 -65.5 174.5t-89.5 57.5q-78 0 -135 -112.5t-70 -360.5h297q31 0 31 -19
q0 -12 -9 -25.5t-18 -13.5h-305v-71v-76h254q30 0 30 -19z" />
    <glyph glyph-name="afii61289" unicode="&#x2113;" horiz-adv-x="638" 
d="M578 180l32 -26q-85 -183 -250 -183q-109 0 -161 72q-27 41 -38 98t-11 168v174l-87 -75l-20 38l107 101v235q0 234 16 332.5t65 165.5q59 88 134 88q65 0 102 -67t37 -175q0 -280 -228 -551v-206q0 -173 33.5 -239.5t104.5 -66.5q94 0 164 117zM276 889v-232
q68 96 110 226.5t42 246.5q0 88 -18.5 136.5t-53.5 48.5q-43 0 -61.5 -95t-18.5 -331z" />
    <glyph glyph-name="trademark" unicode="&#x2122;" horiz-adv-x="2027" 
d="M197 1110h-41v172h622v-172h-41q-8 58 -39 94.5t-82 36.5h-96v-561q0 -70 13 -86t79 -23v-41h-290v41q63 7 75.5 23.5t12.5 85.5v561h-93q-50 0 -81 -37t-39 -94zM862 1282h203l301 -598l295 598h188v-41q-56 -3 -80 -30.5t-24 -80.5v-481q0 -50 12 -59.5t78 -18.5v-41
h-291v41q66 9 78 18.5t12 59.5v457h-4l-287 -582h-16l-289 582h-4v-416q0 -60 20 -86t79 -33v-41h-242v41q58 7 76 32.5t18 86.5v463q-12 38 -47.5 63t-75.5 25v41z" />
    <glyph glyph-name="Omega" unicode="&#x2126;" horiz-adv-x="1040" 
d="M991 242l-33 -242h-342l-10 27q7 19 43.5 111t53.5 142.5t43 135.5t37.5 162.5t11.5 152.5q-1 137 -24 242.5t-62 168t-87.5 93.5t-103.5 31q-58 0 -106 -29.5t-86 -91.5t-59 -169t-21 -251q0 -92 16 -186.5t50 -197t55.5 -157.5t64.5 -157l-12 -27h-340l-31 242l41 2
q21 -83 44.5 -108t68.5 -25h149q-254 301 -254 624q0 264 121 423t303 159q184 0 301 -154.5t117 -419.5q0 -303 -258 -632h156q48 0 68 22.5t42 110.5z" />
    <glyph glyph-name="estimated" unicode="&#x212e;" horiz-adv-x="1622" 
d="M1559 621h-1211q-10 0 -10 -9v-364q0 -24 16 -43q90 -93 208.5 -146t248.5 -53q141 0 266 59.5t215 163.5h109q-101 -120 -257 -190t-335 -70q-203 0 -374.5 89.5t-271.5 244t-100 336.5q0 183 100 338.5t271.5 245.5t374.5 90q204 0 376.5 -90t273 -245.5t100.5 -338.5
v-18zM1282 670v366q0 26 -16 45q-198 191 -455 191q-129 0 -247 -52.5t-210 -144.5q-16 -19 -16 -45v-360q0 -4 3 -8.5t7 -4.5h928q6 0 6 13z" />
    <glyph glyph-name="partialdiff" unicode="&#x2202;" 
d="M399 772h2q55 0 106.5 -28.5t86.5 -86.5q10 101 16 201q3 162 -41 291q-25 74 -78.5 128t-125.5 54q-106 0 -197 -84q-19 -3 -35.5 34.5t-7.5 66.5q95 69 203 69q200 0 309 -264q76 -178 76 -432q0 -113 -18 -242t-54 -223q-48 -132 -124.5 -208.5t-178.5 -76.5
q-124 0 -197 94.5t-73 266.5q0 167 90 301q40 60 105 99.5t136 39.5zM428 707h-2q-94 0 -162 -111q-69 -141 -69 -346q0 -92 38.5 -161t102.5 -69q55 0 99 58.5t73 142.5q54 145 74 359q-16 46 -58.5 86.5t-95.5 40.5z" />
    <glyph glyph-name="Delta" unicode="&#x2206;" horiz-adv-x="948" 
d="M893 0h-842v41l389 1259l54 17l399 -1276v-41zM733 78l-301 991l-297 -991h598z" />
    <glyph glyph-name="product" unicode="&#x220f;" horiz-adv-x="1028" 
d="M983 1294v-43q-69 -6 -96 -17t-35 -32.5t-8 -77.5v-1108q0 -86 22 -109t113 -30v-43h-385v43q85 6 104 27t19 110v1170q0 35 -10.5 45t-47.5 10h-294q-36 0 -46 -8.5t-10 -42.5v-1174v-48.5t4 -32.5t9.5 -25t20 -13.5t32.5 -11t49 -6.5v-43h-377v43q49 4 72.5 9t39 21
t18.5 38t3 69v1110q0 42 -3 61.5t-18.5 35t-40.5 20.5t-77 10v43h942z" />
    <glyph glyph-name="summation" unicode="&#x2211;" horiz-adv-x="829" 
d="M793 137l-66 -305h-680v37l350 657l-344 729v39h678q0 -5 6.5 -103t10.5 -163l-46 -8q-13 94 -45 160q-15 36 -46 47.5t-117 11.5h-279l297 -616l-352 -670h375q37 0 57.5 1.5t42.5 9t34 19t26.5 35t25.5 53.5t27 79z" />
    <glyph glyph-name="minus" unicode="&#x2212;" horiz-adv-x="1228" 
d="M1130 467h-1032v102h1032v-102z" />
    <glyph glyph-name="uni2215" unicode="&#x2215;" horiz-adv-x="342" 
d="M-279 -23v3q0 6 27 49l797 1265q15 21 35 21h20q21 0 21 -10q0 -9 -27 -52l-797 -1265q-15 -21 -35 -21h-20q-21 0 -21 10z" />
    <glyph glyph-name="uni2219" unicode="&#x2219;" horiz-adv-x="397" 
d="M199 420h-2q-35 0 -56.5 30t-21.5 68t22 68t58 30t58 -30t22 -68t-22 -68t-58 -30z" />
    <glyph glyph-name="radical" unicode="&#x221a;" horiz-adv-x="860" 
d="M825 1661l-258 -1940l-30 -14l-334 1012l-135 -60l-19 54l244 106l252 -801h2l215 1657z" />
    <glyph glyph-name="infinity" unicode="&#x221e;" horiz-adv-x="1218" 
d="M1141 543v-2q0 -116 -72.5 -188t-171.5 -72q-74 0 -139.5 42t-147.5 142q-76 -89 -142.5 -136.5t-152.5 -47.5q-100 0 -169.5 72.5t-69.5 181.5q0 112 70.5 184t179.5 72q82 0 149 -47.5t139 -135.5q5 5 25.5 28t27.5 29.5t26.5 26.5t30 27.5t30 22.5t34.5 21l35 14
t41 11t43 3q102 0 168 -69t66 -179zM326 367h2q14 0 29 3t26.5 6.5t26.5 12.5t24 14t24 18.5t21.5 19t22.5 22.5t20 21.5t21 23.5t20 22q-31 39 -43 53.5t-41.5 45t-49.5 43t-50.5 24t-61.5 11.5q-71 0 -112 -50.5t-39 -124.5q0 -71 45.5 -118t114.5 -47zM897 707h-2
q-28 0 -55.5 -10t-57.5 -35t-44 -37.5t-46 -48.5t-33 -37q83 -97 132.5 -134.5t109.5 -37.5q68 0 109 51t41 117q0 80 -42.5 126t-111.5 46z" />
    <glyph glyph-name="integral" unicode="&#x222b;" horiz-adv-x="606" 
d="M262 23l-35 782q-8 138 -1.5 245.5t17 186.5t32 135t43.5 92t51.5 56.5t56 28t57.5 7.5q36 0 65.5 -20.5t29.5 -56.5q0 -34 -20.5 -52t-51.5 -18q-18 0 -30 11t-17.5 24t-15 24t-23.5 11q-21 0 -38 -22.5t-29 -93t-7 -183.5l31 -709q5 -168 2 -293.5t-21 -215.5
t-40 -148.5t-55.5 -92.5t-66 -47.5t-71.5 -13.5q-42 0 -69 23t-27 55q-1 34 23 56t59 22q16 0 28.5 -12t18 -26t15.5 -26t22 -12q36 0 54.5 76.5t12.5 206.5z" />
    <glyph glyph-name="approxequal" unicode="&#x2248;" horiz-adv-x="817" 
d="M696 772l60 -47q-30 -71 -81 -116.5t-116 -45.5q-68 0 -166 64q-31 19 -47.5 28.5t-40.5 18t-45 8.5q-47 0 -78.5 -31t-60.5 -88l-64 43q33 75 88.5 118.5t122.5 43.5q21 0 41 -4t39.5 -12.5t30.5 -14t30.5 -17t22.5 -13.5q4 -3 20.5 -13t20.5 -12.5t17 -9.5t19 -9
t16.5 -6t19.5 -5t18 -1q40 0 70.5 30t62.5 91zM696 500l60 -45q-30 -73 -80 -118.5t-117 -45.5q-40 0 -75.5 14.5t-90.5 48.5q-72 45 -100 53q-18 5 -33 5q-47 0 -78.5 -32t-60.5 -89l-64 43q33 75 88.5 118.5t122.5 43.5q18 0 36.5 -3.5t30.5 -7t30 -12.5l24 -12t24 -14.5
t19 -12.5q5 -3 19.5 -12t20.5 -12t17.5 -9.5t18.5 -9t17.5 -6t19.5 -5t18 -1.5q41 0 70.5 29.5t62.5 91.5z" />
    <glyph glyph-name="notequal" unicode="&#x2260;" horiz-adv-x="817" 
d="M588 872l-62 -145h213v-90h-245l-95 -221h340v-90h-372l-74 -174l-70 28l62 146h-209v90h241l95 221h-336v90h368l74 174z" />
    <glyph glyph-name="lessequal" unicode="&#x2264;" horiz-adv-x="817" 
d="M737 211l-653 369v94l653 366v-110l-563 -299v-4l563 -305v-111zM741 49h-663v94h663v-94z" />
    <glyph glyph-name="greaterequal" unicode="&#x2265;" horiz-adv-x="817" 
d="M86 1040l653 -366v-94l-653 -369v111l561 303v4l-561 301v110zM741 49h-663v94h663v-94z" />
    <glyph glyph-name="lozenge" unicode="&#x25ca;" horiz-adv-x="866" 
d="M784 633l-295 -742h-112l-297 742l299 747h110zM686 633l-250 645h-4l-252 -643l252 -645h4z" />
    </font>
</defs>
</svg>
