<?xml version="1.0" standalone="no"?>
<!DOCTYPE svg PUBLIC "-//W3C//DTD SVG 1.1//EN" "http://www.w3.org/Graphics/SVG/1.1/DTD/svg11.dtd" >
<svg xmlns="http://www.w3.org/2000/svg" xmlns:xlink="http://www.w3.org/1999/xlink" version="1.1">
<metadata>
Created by FontForge 20170731 at Fri Nov 20 17:46:46 2020
 By Aleksey,,,
Copyright (c) 2015-2019 by Typetype. Designers Yulia Gonina and Ivan Gladkikh, technical designers Kseniya Karataeva, Anna Tikhonova, Nadyr Rakhimov, Maria Mizeritskaya. New remastered version created in 2019 by Yulia Gonina. All rights reserved. |DCNT
</metadata>
<defs>
<font id="TTChocolates-ExtraBoldIt" horiz-adv-x="1064" >
  <font-face 
    font-family="TT Chocolates DemiBold"
    font-weight="800"
    font-style="italic"
    font-stretch="normal"
    units-per-em="2048"
    panose-1="2 0 9 3 5 0 0 9 0 3"
    ascent="1638"
    descent="-410"
    x-height="942"
    cap-height="1372"
    bbox="-723 -616 3070 2150"
    underline-thickness="40"
    underline-position="-347"
    slope="-10"
    unicode-range="U+000D-FB06"
  />
<missing-glyph horiz-adv-x="0" 
 />
    <glyph glyph-name="ff" unicode="ff" horiz-adv-x="1435" 
d="M297 696h-143l45 246h143l23 139q31 177 138 275t267 98q182 0 297 -121l-180 -200q-42 55 -94 55q-44 0 -73 -33.5t-40 -93.5l-18 -119h317l22 139q31 176 138.5 274.5t267.5 98.5q199 0 313 -137l-188 -197q-44 68 -102 68q-44 0 -73 -33.5t-40 -93.5l-19 -119h265
l-45 -246h-265l-123 -696h-319l123 696h-318l-122 -696h-320z" />
    <glyph glyph-name="fi" unicode="fi" horiz-adv-x="1214" 
d="M297 696h-143l45 246h143l2 14q35 233 172.5 365.5t341.5 132.5q127 0 240 -50.5t186 -146.5l-227 -210q-48 58 -91.5 88t-101.5 30q-78 0 -132.5 -56.5t-67.5 -152.5l-2 -14h616l-168 -942h-319l122 696h-297l-122 -696h-320z" />
    <glyph glyph-name="fl" unicode="fl" horiz-adv-x="1212" 
d="M297 696h-143l45 246h143l10 68q29 201 169 322.5t327 121.5q185 0 311.5 -114.5t126.5 -301.5q0 -50 -8 -86l-168 -952h-319l172 981q4 28 4 45q0 61 -36 100t-97 39q-62 0 -106 -44t-56 -117l-10 -62h184l-45 -246h-185l-122 -696h-320z" />
    <glyph glyph-name="ffi" unicode="ffi" horiz-adv-x="1851" 
d="M297 696h-143l45 246h143l23 139q31 177 138 275t267 98q182 0 297 -121l-180 -200q-42 55 -94 55q-44 0 -73 -33.5t-40 -93.5l-18 -119h317l2 14q35 233 172.5 365.5t341.5 132.5q127 0 240 -50.5t186 -146.5l-227 -210q-48 58 -91.5 88t-101.5 30q-78 0 -133 -56.5
t-68 -152.5l-2 -14h617l-168 -942h-320l123 696h-297l-123 -696h-319l123 696h-318l-122 -696h-320z" />
    <glyph glyph-name="ffl" unicode="ffl" horiz-adv-x="1849" 
d="M297 696h-143l45 246h143l23 139q31 177 138 275t267 98q182 0 297 -121l-180 -200q-42 55 -94 55q-44 0 -73 -33.5t-40 -93.5l-18 -119h317l10 68q29 201 169 322.5t327 121.5q185 0 311.5 -114.5t126.5 -301.5q0 -50 -8 -86l-168 -952h-320l172 981q5 35 5 45
q0 61 -36.5 100t-97.5 39q-62 0 -105.5 -43.5t-55.5 -117.5l-11 -62h185l-45 -246h-185l-123 -696h-319l123 696h-318l-122 -696h-320z" />
    <glyph glyph-name="f_f_j" unicode="ffj" horiz-adv-x="1851" 
d="M1339 -512q-132 0 -223 68l146 249q26 -26 61 -26q69 0 84 84l145 833h-299l-123 -696h-319l123 696h-318l-122 -696h-320l123 696h-143l45 246h143l23 139q31 177 138 275t267 98q199 0 313 -137l-188 -197q-44 68 -102 68q-44 0 -73 -33.5t-40 -93.5l-18 -119h317l2 14
q35 233 172.5 365.5t341.5 132.5q127 0 240 -50.5t186 -146.5l-227 -210q-48 58 -91.5 88t-101.5 30q-78 0 -133 -56.5t-68 -152.5l-2 -14h617l-193 -1102q-28 -162 -132 -257t-251 -95z" />
    <glyph glyph-name="f_j" unicode="fj" horiz-adv-x="1214" 
d="M702 -512q-132 0 -223 68l146 249q26 -26 61 -26q69 0 84 84l145 833h-299l-122 -696h-320l123 696h-143l45 246h143l2 14q35 233 172.5 365.5t341.5 132.5q127 0 240 -50.5t186 -146.5l-227 -210q-48 58 -91.5 88t-101.5 30q-78 0 -132.5 -56.5t-67.5 -152.5l-2 -14h616
l-193 -1102q-28 -162 -132 -257t-251 -95z" />
    <glyph glyph-name=".notdef" horiz-adv-x="0" 
 />
    <glyph glyph-name=".null" horiz-adv-x="0" 
 />
    <glyph glyph-name="nonmarkingreturn" horiz-adv-x="682" 
 />
    <glyph glyph-name="NULL" horiz-adv-x="0" 
 />
    <glyph glyph-name="NULL" horiz-adv-x="0" 
 />
    <glyph glyph-name="CR" unicode="&#xd;" horiz-adv-x="0" 
 />
    <glyph glyph-name="space" unicode=" " horiz-adv-x="450" 
 />
    <glyph glyph-name="exclam" unicode="!" horiz-adv-x="593" 
d="M311 -20q-73 0 -121.5 47t-48.5 120q0 80 59 140.5t140 60.5q73 0 121.5 -47.5t48.5 -120.5q0 -80 -59 -140t-140 -60zM375 1372h327l-200 -901h-246z" />
    <glyph glyph-name="quotedbl" unicode="&#x22;" horiz-adv-x="757" 
d="M324 1372h256l-117 -491h-195zM662 1372h256l-117 -491h-195z" />
    <glyph glyph-name="numbersign" unicode="#" horiz-adv-x="1470" 
d="M299 297h-225l104 266h225l99 246h-226l105 266h225l115 297h303l-115 -297h201l115 297h303l-115 -297h225l-104 -266h-225l-99 -246h226l-105 -266h-225l-115 -297h-303l115 297h-201l-115 -297h-303zM907 563l99 246h-201l-98 -246h200z" />
    <glyph glyph-name="dollar" unicode="$" horiz-adv-x="1097" 
d="M449 -16q-127 27 -223 108.5t-142 212.5l266 174q31 -93 95.5 -152t152.5 -59q60 0 100.5 28.5t40.5 80.5q0 43 -37 80t-135 100q-148 92 -216 188.5t-68 219.5q0 174 116 294t301 140l39 219h222l-41 -234q191 -48 317 -245l-258 -185q-87 162 -221 162q-55 0 -87 -27.5
t-32 -74.5q0 -55 39.5 -92.5t128.5 -90.5q151 -88 222 -185t71 -224q0 -173 -122.5 -297.5t-307.5 -149.5l-39 -221h-221z" />
    <glyph glyph-name="percent" unicode="%" horiz-adv-x="1951" 
d="M1341 1372h318l-805 -1372h-317zM584 645q-152 0 -256.5 96.5t-104.5 251.5q0 168 123.5 289t296.5 121q152 0 255 -94.5t103 -249.5q0 -169 -122 -291.5t-295 -122.5zM602 895q59 0 99 43t40 100q0 49 -33 82t-83 33q-59 0 -99.5 -41.5t-40.5 -99.5q0 -53 33 -85t84 -32
zM1552 -31q-152 0 -256 96.5t-104 251.5q0 168 123.5 289t296.5 121q152 0 255 -94.5t103 -249.5q0 -169 -122.5 -291.5t-295.5 -122.5zM1571 219q59 0 99 43t40 100q0 49 -33.5 82t-83.5 33q-59 0 -99 -41.5t-40 -99.5q0 -53 33 -85t84 -32z" />
    <glyph glyph-name="ampersand" unicode="&#x26;" horiz-adv-x="1445" 
d="M1059 133q-215 -164 -445 -164q-73 0 -143.5 16t-135 50t-113 82.5t-77 118.5t-28.5 153q0 148 86 265t231 182q-69 92 -69 206q0 158 125 259.5t321 101.5q193 0 314.5 -100t121.5 -256q0 -15 -4 -33h-346q2 6 2 16q0 38 -25.5 62t-66.5 24q-43 0 -69.5 -26.5
t-26.5 -73.5q0 -48 37 -88l311 -328q62 130 82 281h481l-43 -246h-188q-42 -131 -117 -258l196 -207l-247 -221zM662 283q102 0 196 75l-256 289q-131 -83 -131 -201q0 -77 56.5 -120t134.5 -43z" />
    <glyph glyph-name="quotesingle" unicode="'" horiz-adv-x="419" 
d="M324 1372h256l-117 -491h-195z" />
    <glyph glyph-name="parenleft" unicode="(" horiz-adv-x="833" 
d="M494 -492q-136 155 -209.5 364t-73.5 439q0 361 172 694t465 531l180 -193q-237 -177 -368.5 -456.5t-131.5 -581.5q0 -381 207 -641z" />
    <glyph glyph-name="parenright" unicode=")" horiz-adv-x="833" 
d="M-10 -299q237 173 368 454.5t131 583.5q0 382 -206 641l241 156q136 -155 209.5 -364t73.5 -439q0 -361 -172 -694t-465 -531z" />
    <glyph glyph-name="asterisk" unicode="*" horiz-adv-x="798" 
d="M295 817l115 158l-187 57l68 207l186 -63l-2 196h217l-2 -194l182 61l68 -207l-184 -57l116 -158l-176 -127l-112 160l-113 -160z" />
    <glyph glyph-name="plus" unicode="+" horiz-adv-x="942" 
d="M461 539h-283v254h283v282h254v-282h282v-254h-282v-283h-254v283z" />
    <glyph glyph-name="comma" unicode="," horiz-adv-x="598" 
d="M27 -258l235 565l277 -114l-346 -517z" />
    <glyph glyph-name="hyphen" unicode="-" horiz-adv-x="655" 
d="M201 676h491l-49 -287h-491z" />
    <glyph glyph-name="period" unicode="." horiz-adv-x="593" 
d="M311 -20q-73 0 -121.5 47t-48.5 120q0 80 59 140.5t140 60.5q73 0 121.5 -47.5t48.5 -120.5q0 -80 -59 -140t-140 -60z" />
    <glyph glyph-name="slash" unicode="/" horiz-adv-x="903" 
d="M788 1372h357l-830 -1618h-358z" />
    <glyph glyph-name="zero" unicode="0" horiz-adv-x="1318" 
d="M700 -31q-163 0 -278 77.5t-170 208t-55 302.5q0 115 25 232t79 228t130.5 196.5t188.5 137.5t244 52q240 0 371 -160t131 -424q0 -114 -24.5 -230.5t-78.5 -228.5t-130 -198.5t-188.5 -139.5t-244.5 -53zM721 299q60 0 109.5 39.5t80 98.5t51 133t29 139t8.5 120
q0 46 -6.5 85t-22.5 77t-48.5 60t-79.5 22q-75 0 -132.5 -58t-87.5 -146t-44.5 -172t-14.5 -156q0 -64 12.5 -115t49.5 -89t96 -38z" />
    <glyph glyph-name="one" unicode="1" horiz-adv-x="811" 
d="M481 918l-155 -97l-136 256l519 316h204l-245 -1393h-349z" />
    <glyph glyph-name="two" unicode="2" horiz-adv-x="1183" 
d="M162 258q29 174 131 280t342 212q163 74 225 124t62 109q0 51 -39.5 82t-102.5 31q-146 0 -225 -166l-289 117q86 176 223 266t318 90q204 0 334.5 -111t130.5 -288q0 -94 -39 -173.5t-114 -143.5t-160 -112t-203 -98q-126 -53 -184 -90t-58 -70h641l-55 -317h-981z" />
    <glyph glyph-name="three" unicode="3" horiz-adv-x="1142" 
d="M584 -31q-106 0 -203.5 33t-177 107t-111.5 178l285 149q53 -160 209 -160q82 0 140 45t58 117t-58.5 112t-158.5 40h-159l34 205l314 290h-432l51 287h872l-35 -201l-354 -337q130 -50 202.5 -150.5t72.5 -234.5q0 -105 -45 -195.5t-121 -152.5t-175.5 -97t-207.5 -35z
" />
    <glyph glyph-name="four" unicode="4" horiz-adv-x="1177" 
d="M686 195h-620l36 208l897 990h209l-161 -918h163l-49 -280h-164l-34 -195h-312zM735 475l58 322l-289 -322h231z" />
    <glyph glyph-name="five" unicode="5" horiz-adv-x="1140" 
d="M588 -31q-108 0 -206 33t-178 107t-112 178l285 149q60 -160 211 -160q93 0 152 52.5t59 136.5q0 78 -51 123t-136 45q-78 0 -137 -47l-176 108l201 678h747l-51 -287h-496l-45 -155q32 4 60 4q185 0 309.5 -123.5t124.5 -318.5q0 -148 -75 -268.5t-203.5 -187.5
t-282.5 -67z" />
    <glyph glyph-name="six" unicode="6" horiz-adv-x="1198" 
d="M647 -31q-104 0 -195 31.5t-160.5 91t-110 154t-40.5 211.5q0 133 52 263t138.5 236t200 199.5t235 161.5t245.5 113l137 -254q-310 -135 -471 -283q49 14 106 14q183 0 311 -122.5t128 -311.5q0 -109 -47 -204.5t-126.5 -160.5t-184 -102t-218.5 -37zM674 276
q81 0 139.5 48t58.5 125q0 75 -57 116t-133 41q-81 0 -140 -47.5t-59 -124.5q0 -76 57 -117t134 -41z" />
    <glyph glyph-name="seven" unicode="7" horiz-adv-x="1138" 
d="M821 1055h-522l55 317h955l-35 -201l-739 -1171h-379z" />
    <glyph glyph-name="eight" unicode="8" horiz-adv-x="1216" 
d="M672 -31q-74 0 -146.5 14t-142.5 45t-122.5 76.5t-85 114t-32.5 150.5q0 125 69.5 225.5t188.5 155.5q-108 99 -108 245q0 92 45 171t117.5 129.5t162 79t181.5 28.5q67 0 134 -14.5t129 -46t109.5 -75t76 -106t28.5 -135.5q0 -107 -55.5 -194.5t-151.5 -139.5
q139 -114 139 -293q0 -102 -46 -185.5t-122 -135.5t-171 -80.5t-197 -28.5zM678 256q79 0 132.5 47t53.5 121t-52.5 111.5t-125.5 37.5q-80 0 -134 -46t-54 -119t54 -112.5t126 -39.5zM772 858q64 0 109 39t45 98q0 57 -38.5 88t-96.5 31q-64 0 -109 -38.5t-45 -98.5
q0 -57 40 -88t95 -31z" />
    <glyph glyph-name="nine" unicode="9" horiz-adv-x="1198" 
d="M291 197q312 136 471 282q-49 -14 -107 -14q-183 0 -310.5 122.5t-127.5 311.5q0 109 47 204.5t126.5 160.5t184 102t218.5 37q103 0 194 -32t160.5 -92.5t110 -154t40.5 -209.5q0 -133 -52 -263t-138 -236t-200 -199t-235 -161t-245 -113zM758 766q81 0 139.5 47.5
t58.5 124.5q0 76 -57 117t-133 41q-81 0 -140 -47.5t-59 -124.5q0 -75 57.5 -116.5t133.5 -41.5z" />
    <glyph glyph-name="colon" unicode=":" horiz-adv-x="593" 
d="M311 -20q-73 0 -121.5 47t-48.5 120q0 80 59 140.5t140 60.5q73 0 121.5 -47.5t48.5 -120.5q0 -80 -59 -140t-140 -60zM420 594q-73 0 -121.5 47.5t-48.5 120.5q0 80 59 140.5t140 60.5q72 0 120.5 -47.5t48.5 -120.5q0 -80 -58.5 -140.5t-139.5 -60.5z" />
    <glyph glyph-name="semicolon" unicode=";" horiz-adv-x="598" 
d="M27 -258l235 565l277 -114l-346 -517zM422 594q-73 0 -121.5 47.5t-48.5 120.5q0 80 59 140.5t140 60.5q73 0 121.5 -47.5t48.5 -120.5q0 -80 -59 -140.5t-140 -60.5z" />
    <glyph glyph-name="less" unicode="&#x3c;" horiz-adv-x="942" 
d="M174 563v205l700 342l107 -219l-473 -221l475 -213l-104 -221z" />
    <glyph glyph-name="equal" unicode="=" horiz-adv-x="942" 
d="M178 588h819v-254h-819v254zM178 997h819v-254h-819v254z" />
    <glyph glyph-name="greater" unicode="&#x3e;" horiz-adv-x="942" 
d="M195 457l475 213l-473 221l106 219l701 -342v-205l-705 -327z" />
    <glyph glyph-name="question" unicode="?" horiz-adv-x="974" 
d="M471 -20q-73 0 -121.5 47t-48.5 120q0 80 59 140.5t140 60.5q73 0 121.5 -47.5t48.5 -120.5q0 -80 -59 -140t-140 -60zM637 383q-129 31 -199.5 98t-70.5 160q0 42 16 80t37 64.5t57 54.5t60 43t63 37q72 39 105.5 67.5t33.5 65.5t-31 57t-85 20q-115 0 -228 -98
l-135 213q98 84 197.5 121t218.5 37q189 0 302.5 -86.5t113.5 -229.5q0 -98 -63.5 -170.5t-215.5 -160.5q-34 -20 -48.5 -29.5t-25 -24.5t-10.5 -34q0 -20 14 -33.5t52 -30.5z" />
    <glyph glyph-name="at" unicode="@" horiz-adv-x="2076" 
d="M739 -395q-251 86 -391.5 293.5t-140.5 486.5q0 206 80.5 391t217.5 318t328.5 211.5t405.5 78.5q179 0 336 -56t269.5 -153.5t177.5 -236t65 -297.5q0 -241 -138 -402t-345 -161q-92 0 -172 34t-121 99q-116 -141 -287 -141q-146 0 -240 101t-94 251q0 111 53.5 211
t148.5 162.5t206 62.5q144 0 235 -88l15 86h256l-68 -381q-6 -30 -6 -55q0 -117 96 -117q85 0 141 90t56 225q0 121 -49.5 221t-133.5 164.5t-192 100t-227 35.5q-205 0 -377.5 -99.5t-271.5 -269.5t-99 -371q0 -202 100.5 -351.5t280.5 -215.5zM1108 305q71 0 118.5 52
t47.5 122q0 63 -39 103.5t-100 40.5q-72 0 -119 -53t-47 -124q0 -63 38.5 -102t100.5 -39z" />
    <glyph glyph-name="A" unicode="A" horiz-adv-x="1331" 
d="M795 1393h266l280 -1393h-362l-33 203h-454l-105 -203h-377zM899 489l-61 383l-199 -383h260z" />
    <glyph glyph-name="B" unicode="B" horiz-adv-x="1181" 
d="M385 1372h363q217 0 353 -103t136 -268q0 -99 -52 -180t-143 -137q134 -105 134 -276q0 -183 -146 -295.5t-381 -112.5h-506zM668 266q72 0 117.5 45t45.5 117q0 65 -41 103t-118 38h-80l-53 -303h129zM729 823q69 0 113.5 44.5t44.5 111.5q0 60 -41 93.5t-113 33.5h-47
l-49 -283h92z" />
    <glyph glyph-name="C" unicode="C" horiz-adv-x="1366" 
d="M846 -31q-138 0 -259.5 47t-211 131t-141.5 207.5t-52 268.5q0 155 60 298t163 249t248.5 169.5t307.5 63.5q176 0 324 -74.5t243 -220.5l-283 -211q-49 77 -126 116.5t-171 39.5q-169 0 -283 -119t-114 -285q0 -151 97.5 -241.5t244.5 -90.5q155 0 270 105l203 -250
q-219 -203 -520 -203z" />
    <glyph glyph-name="D" unicode="D" horiz-adv-x="1486" 
d="M385 1372h496q298 0 481.5 -171.5t183.5 -448.5q0 -153 -61 -292.5t-164 -240t-244.5 -160t-296.5 -59.5h-637zM807 328q106 0 192 57.5t131.5 148.5t45.5 193q0 138 -86 227.5t-224 89.5h-190l-127 -716h258z" />
    <glyph glyph-name="E" unicode="E" 
d="M385 1372h809l-57 -323h-461l-35 -199h332l-53 -307h-332l-39 -219h471l-57 -324h-820z" />
    <glyph glyph-name="F" unicode="F" horiz-adv-x="1003" 
d="M385 1372h799l-58 -328h-450l-45 -251h321l-57 -328h-322l-81 -465h-349z" />
    <glyph glyph-name="G" unicode="G" horiz-adv-x="1472" 
d="M848 -31q-192 0 -343.5 77.5t-238 223.5t-86.5 338q0 159 61.5 306t165 254t249 171t305.5 64q178 0 327.5 -75.5t241.5 -219.5l-287 -211q-120 158 -301 158q-114 0 -205.5 -59.5t-139.5 -155.5t-48 -207q0 -158 97.5 -248t252.5 -90q107 0 195 49l32 195h-215l47 266
h564l-113 -635q-115 -98 -260 -149.5t-301 -51.5z" />
    <glyph glyph-name="H" unicode="H" horiz-adv-x="1454" 
d="M385 1372h348l-90 -512h471l90 512h348l-241 -1372h-348l94 532h-471l-94 -532h-349z" />
    <glyph glyph-name="I" unicode="I" horiz-adv-x="634" 
d="M385 1372h348l-241 -1372h-349z" />
    <glyph glyph-name="J" unicode="J" horiz-adv-x="1038" 
d="M446 -31q-144 0 -259.5 70t-153.5 201l284 186q21 -61 56 -94t94 -33q66 0 113 43t59 115l102 587h-338l58 328h686l-164 -934q-37 -211 -185.5 -340t-351.5 -129z" />
    <glyph glyph-name="K" unicode="K" horiz-adv-x="1284" 
d="M385 1372h348l-108 -612l495 612h404l-553 -672l313 -700h-399l-281 641l-112 -641h-349z" />
    <glyph glyph-name="L" unicode="L" horiz-adv-x="983" 
d="M385 1372h348l-184 -1044h450l-57 -328h-799z" />
    <glyph glyph-name="M" unicode="M" horiz-adv-x="1761" 
d="M389 1393h205l393 -715l672 715h205l-246 -1393h-348l121 686l-390 -410h-143l-242 437l-124 -713h-349z" />
    <glyph glyph-name="N" unicode="N" horiz-adv-x="1525" 
d="M606 766l-135 -766h-328l246 1393h205l567 -787l135 766h328l-246 -1392h-204z" />
    <glyph glyph-name="O" unicode="O" horiz-adv-x="1564" 
d="M846 -31q-186 0 -337 80.5t-239 230.5t-88 341q0 209 103 388.5t283 286.5t393 107q186 0 336.5 -79.5t238.5 -228.5t88 -341q0 -156 -60 -299.5t-162.5 -250.5t-248 -171t-307.5 -64zM868 317q110 0 199.5 58.5t137.5 152.5t48 201q0 144 -88.5 235t-228.5 91
q-110 0 -199 -59t-136.5 -153.5t-47.5 -201.5q0 -143 88 -233.5t227 -90.5z" />
    <glyph glyph-name="P" unicode="P" horiz-adv-x="1179" 
d="M385 1372h379q224 0 362 -124t138 -320q0 -141 -74 -258.5t-202.5 -184.5t-282.5 -67h-140l-73 -418h-349zM731 735q78 0 130 48.5t52 123.5q0 67 -47 107.5t-125 40.5h-63l-57 -320h110z" />
    <glyph glyph-name="Q" unicode="Q" horiz-adv-x="1564" 
d="M1223 -492q-87 0 -173 18t-167 57.5t-142.5 95t-99 136.5t-37.5 177v16q-178 60 -288 201t-130 334q-4 50 -4 78q0 125 38 243t109 215t166 170t215.5 113.5t250.5 40.5q186 0 337 -80.5t238.5 -229t87.5 -337.5q0 -187 -84 -354.5t-235.5 -281.5t-339.5 -143
q8 -55 48 -92.5t99 -53.5t108 -22t101 -6q50 0 68 2l-11 -284q-93 -13 -155 -13zM870 317q110 0 199 59t136.5 153t47.5 200q0 144 -88.5 235t-228.5 91q-110 0 -199 -59t-136.5 -153t-47.5 -200q0 -144 88.5 -235t228.5 -91z" />
    <glyph glyph-name="R" unicode="R" horiz-adv-x="1249" 
d="M385 1372h412q208 0 339.5 -118t131.5 -306q0 -133 -68.5 -245.5t-187.5 -180.5l196 -522h-389l-147 455h-101l-79 -455h-349zM739 752q77 0 128 50t51 124q0 69 -44.5 109t-119.5 40h-72l-57 -323h114z" />
    <glyph glyph-name="S" unicode="S" horiz-adv-x="1097" 
d="M580 -31q-170 0 -303 87t-193 249l266 174q31 -93 95.5 -152t152.5 -59q60 0 100.5 28.5t40.5 80.5q0 43 -37 80t-135 100q-148 92 -216 188.5t-68 219.5q0 191 138.5 314.5t352.5 123.5q294 0 463 -264l-258 -185q-87 162 -221 162q-55 0 -87 -27.5t-32 -74.5
q0 -55 39.5 -92.5t128.5 -90.5q151 -88 222 -185t71 -224q0 -129 -70 -233.5t-188.5 -162t-261.5 -57.5z" />
    <glyph glyph-name="T" unicode="T" horiz-adv-x="1167" 
d="M584 1044h-379l57 328h1106l-57 -328h-379l-184 -1044h-349z" />
    <glyph glyph-name="U" unicode="U" horiz-adv-x="1413" 
d="M758 -31q-228 0 -378.5 142t-150.5 370q0 49 11 121l135 770h348l-137 -774q-8 -41 -8 -88q0 -97 55 -155t147 -58q96 0 164.5 63.5t87.5 169.5l150 842h340l-154 -870q-41 -237 -211.5 -385t-398.5 -148z" />
    <glyph glyph-name="V" unicode="V" horiz-adv-x="1259" 
d="M231 1372h361l139 -754l410 754h360l-782 -1392h-205z" />
    <glyph glyph-name="W" unicode="W" horiz-adv-x="2017" 
d="M242 1372h358l117 -737l420 737h204l170 -743l375 743h363l-723 -1392h-205l-180 829l-463 -829h-205z" />
    <glyph glyph-name="X" unicode="X" horiz-adv-x="1253" 
d="M520 684l-231 688h385l125 -422l282 422h394l-486 -678l240 -694h-385l-135 428l-295 -428h-394z" />
    <glyph glyph-name="Y" unicode="Y" horiz-adv-x="1146" 
d="M471 477l-260 895h369l131 -520l319 520h369l-578 -889l-86 -483h-348z" />
    <glyph glyph-name="Z" unicode="Z" horiz-adv-x="1310" 
d="M109 205l765 839h-598l58 328h1136l-36 -205l-766 -839h628l-57 -328h-1167z" />
    <glyph glyph-name="bracketleft" unicode="[" horiz-adv-x="778" 
d="M430 1454h541l-49 -287h-234l-231 -1310h233l-51 -287h-541z" />
    <glyph glyph-name="backslash" unicode="\" horiz-adv-x="874" 
d="M242 1372h333l256 -1618h-333z" />
    <glyph glyph-name="bracketright" unicode="]" horiz-adv-x="778" 
d="M39 -143h233l232 1310h-234l49 287h541l-332 -1884h-540z" />
    <glyph glyph-name="asciicircum" unicode="^" horiz-adv-x="950" 
d="M205 809l311 565h205l311 -569l-203 -98l-208 391l-209 -396z" />
    <glyph glyph-name="underscore" unicode="_" horiz-adv-x="595" 
d="M-66 -143h678l-51 -287h-678z" />
    <glyph glyph-name="grave" unicode="`" horiz-adv-x="450" 
d="M268 1401l236 117l125 -398l-178 -90z" />
    <glyph glyph-name="a" unicode="a" horiz-adv-x="1075" 
d="M416 -31q-140 0 -227 79t-87 208q0 146 112 241t280 95q161 0 264 -70q2 16 2 29q0 73 -47 116.5t-121 43.5q-104 0 -186 -82l-146 233q168 111 373 111q203 0 324.5 -106.5t121.5 -288.5q0 -50 -8 -86l-86 -492h-319l14 82q-107 -113 -264 -113zM551 190
q65 0 111.5 35.5t60.5 93.5q-80 64 -170 64q-54 0 -92.5 -25.5t-38.5 -72.5q0 -49 39.5 -72t89.5 -23z" />
    <glyph glyph-name="b" unicode="b" horiz-adv-x="1198" 
d="M717 -31q-183 0 -287 133l-20 -102h-308l258 1454h320l-102 -569q110 88 249 88q175 0 284.5 -129.5t109.5 -313.5q0 -102 -37 -202.5t-101.5 -180t-160.5 -129t-205 -49.5zM680 274q92 0 154.5 67t62.5 159q0 81 -51.5 129.5t-132.5 48.5q-93 0 -156 -64.5t-63 -156.5
q0 -83 53 -133t133 -50z" />
    <glyph glyph-name="c" unicode="c" horiz-adv-x="1050" 
d="M637 -31q-100 0 -190 34t-156.5 93.5t-106 147.5t-39.5 190q0 147 77.5 271.5t208 196t282.5 71.5q134 0 246 -57.5t182 -170.5l-258 -196q-67 125 -193 125q-99 0 -159 -63.5t-60 -157.5q0 -89 52 -137t134 -48q54 0 101.5 24t103.5 75l180 -240q-82 -75 -187.5 -116.5
t-217.5 -41.5z" />
    <glyph glyph-name="d" unicode="d" horiz-adv-x="1200" 
d="M539 -31q-176 0 -286 128t-110 317q0 148 69.5 277t188 205.5t256.5 76.5q181 0 271 -117l106 598h320l-258 -1454h-308l13 70q-115 -101 -262 -101zM653 264q93 0 156 64.5t63 156.5q0 84 -53 133.5t-133 49.5q-92 0 -154.5 -67t-62.5 -159q0 -83 52 -130.5t132 -47.5z
" />
    <glyph glyph-name="e" unicode="e" horiz-adv-x="1110" 
d="M631 -31q-135 0 -244.5 50.5t-176.5 154t-67 244.5q0 147 70 274t195.5 204t277.5 77q121 0 223.5 -49t166 -144.5t63.5 -218.5q0 -77 -29 -184h-639q17 -78 76 -117t145 -39q113 0 221 78l119 -195q-176 -135 -401 -135zM823 582q-5 71 -40.5 112t-104.5 41
q-129 0 -191 -153h336z" />
    <glyph glyph-name="f" unicode="f" horiz-adv-x="798" 
d="M297 696h-143l45 246h143l23 139q31 177 138 275t267 98q199 0 313 -137l-188 -197q-44 68 -102 68q-44 0 -73 -33.5t-40 -93.5l-18 -119h264l-45 -246h-265l-122 -696h-320z" />
    <glyph glyph-name="g" unicode="g" horiz-adv-x="1103" 
d="M545 -281q70 0 126 28.5t56 88.5q0 41 -31.5 67.5t-68.5 35t-76 8.5q-44 0 -83.5 -10t-70 -38t-30.5 -69t31.5 -67.5t68.5 -35t78 -8.5zM543 -512q-64 0 -128.5 10.5t-130 36t-116 62t-82 94.5t-31.5 129q0 81 41 150t113 110q-76 58 -76 141q0 69 45 121t115 78
q-68 80 -68 194q0 156 124.5 257.5t320.5 101.5q103 0 188 -31h365l-35 -205h-115q21 -53 21 -110q0 -149 -126 -250t-317 -101q-93 0 -178 27q-63 -6 -63 -53q0 -64 112 -72l115 -6q187 -11 296 -97.5t109 -226.5q0 -86 -44.5 -156.5t-117 -114t-159.5 -66.5t-178 -23z
M653 506q59 0 96 36.5t37 92.5q0 51 -34 78.5t-84 27.5q-61 0 -98.5 -36t-37.5 -91q0 -52 35 -80t86 -28z" />
    <glyph glyph-name="h" unicode="h" horiz-adv-x="1116" 
d="M360 1454h322l-107 -584q112 103 254 103q133 0 216 -94t83 -244q0 -39 -6 -80l-98 -555h-319l88 502q4 28 4 51q0 62 -31.5 100.5t-89.5 38.5q-60 0 -104.5 -47.5t-57.5 -126.5l-92 -518h-320z" />
    <glyph glyph-name="i" unicode="i" horiz-adv-x="526" 
d="M270 942h320l-166 -942h-320zM469 1073q-70 0 -118 47.5t-48 118.5q0 79 57.5 137t137.5 58q72 0 120 -48t48 -118q0 -79 -59 -137t-138 -58z" />
    <glyph glyph-name="j" unicode="j" horiz-adv-x="526" 
d="M14 -512q-132 0 -223 68l146 249q26 -26 61 -26q69 0 84 84l188 1079h320l-193 -1102q-28 -162 -132 -257t-251 -95zM469 1073q-70 0 -118 47.5t-48 118.5q0 79 57.5 137t137.5 58q72 0 120 -48t48 -118q0 -79 -59 -137t-138 -58z" />
    <glyph glyph-name="k" unicode="k" horiz-adv-x="1067" 
d="M358 1454h320l-166 -940l354 428h361l-402 -461l242 -481h-360l-205 449l-80 -449h-320z" />
    <glyph glyph-name="l" unicode="l" horiz-adv-x="524" 
d="M358 1454h320l-256 -1454h-320z" />
    <glyph glyph-name="m" unicode="m" horiz-adv-x="1720" 
d="M268 942h307l-16 -94q116 125 266 125q85 0 154 -43t108 -119q149 162 332 162q141 0 227.5 -92.5t86.5 -245.5q0 -42 -11 -107l-96 -528h-319l86 487q6 40 6 66q0 66 -32.5 103.5t-88.5 37.5q-62 0 -105.5 -47t-56.5 -129l-92 -518h-319l88 502q4 32 4 49
q0 66 -32.5 103.5t-88.5 37.5q-62 0 -105.5 -46.5t-56.5 -127.5l-92 -518h-320z" />
    <glyph glyph-name="n" unicode="n" horiz-adv-x="1116" 
d="M268 942h307l-16 -90q115 121 270 121q133 0 216 -94t83 -244q0 -39 -6 -80l-98 -555h-319l88 502q4 28 4 51q0 62 -31.5 100.5t-89.5 38.5q-60 0 -104.5 -47.5t-57.5 -126.5l-92 -518h-320z" />
    <glyph glyph-name="o" unicode="o" horiz-adv-x="1153" 
d="M618 -31q-200 0 -336.5 130t-136.5 331q0 109 44.5 209.5t119 173.5t176.5 116.5t213 43.5q97 0 184 -34t151.5 -94t102.5 -146t38 -185q0 -147 -76 -273t-204.5 -199t-275.5 -73zM641 272q93 0 151 66t58 156q0 81 -48 128.5t-124 47.5q-93 0 -151 -65.5t-58 -155.5
q0 -81 47 -129t125 -48z" />
    <glyph glyph-name="p" unicode="p" horiz-adv-x="1198" 
d="M268 942h307l-14 -84q129 115 279 115q166 0 273.5 -130t107.5 -313q0 -102 -37 -202.5t-101.5 -180t-160.5 -129t-205 -49.5q-177 0 -279 125l-108 -606h-318zM680 274q92 0 154.5 67t62.5 159q0 81 -51.5 129.5t-132.5 48.5q-93 0 -156 -64.5t-63 -156.5q0 -83 53 -133
t133 -50z" />
    <glyph glyph-name="q" unicode="q" horiz-adv-x="1198" 
d="M784 55q-106 -86 -245 -86q-176 0 -286 128t-110 317q0 148 69.5 277t188 205.5t256.5 76.5q190 0 281 -131l16 100h308l-256 -1454h-320zM653 264q93 0 156 64.5t63 156.5q0 84 -53 133.5t-133 49.5q-92 0 -154.5 -67t-62.5 -159q0 -83 52 -130.5t132 -47.5z" />
    <glyph glyph-name="r" unicode="r" horiz-adv-x="724" 
d="M268 942h307l-16 -90q44 56 105.5 88.5t128.5 32.5q62 0 100 -17l-92 -331q-77 30 -125 30q-67 0 -110.5 -43t-55.5 -118l-88 -494h-320z" />
    <glyph glyph-name="s" unicode="s" horiz-adv-x="968" 
d="M547 -31q-138 0 -271.5 50.5t-214.5 150.5l191 197q58 -66 142.5 -113t158.5 -47q84 0 84 53q0 29 -29.5 48t-89.5 38q-162 50 -235.5 125.5t-73.5 183.5q0 142 109 230t282 88q122 0 243.5 -46t203.5 -130l-183 -203q-139 147 -262 147q-70 0 -70 -47q0 -30 28 -49
t87 -41q168 -62 243 -135.5t75 -177.5q0 -142 -116.5 -232t-301.5 -90z" />
    <glyph glyph-name="t" unicode="t" horiz-adv-x="872" 
d="M573 -31q-160 0 -252 78.5t-92 214.5q0 39 15 135l53 299h-143l43 246h143l47 270h320l-48 -270h267l-43 -246h-267l-55 -315q-4 -20 -4 -47q0 -45 27.5 -71.5t74.5 -26.5q50 0 121 40l82 -219q-119 -88 -289 -88z" />
    <glyph glyph-name="u" unicode="u" horiz-adv-x="1118" 
d="M451 -31q-131 0 -214 93.5t-83 244.5q0 39 6 80l100 555h320l-91 -502q-4 -28 -4 -51q0 -62 31.5 -100.5t89.5 -38.5q63 0 106.5 47t57.5 127l92 518h320l-168 -942h-307l20 104q-119 -135 -276 -135z" />
    <glyph glyph-name="v" unicode="v" horiz-adv-x="972" 
d="M145 942h332l88 -465l248 465h336l-569 -962h-205z" />
    <glyph glyph-name="w" unicode="w" horiz-adv-x="1505" 
d="M156 942h340l65 -444l240 465h205l92 -494l243 473h330l-528 -962h-205l-98 585l-291 -585h-205z" />
    <glyph glyph-name="x" unicode="x" horiz-adv-x="991" 
d="M371 485l-205 457h348l102 -250l185 250h354l-371 -463l207 -479h-348l-104 270l-195 -270h-354z" />
    <glyph glyph-name="y" unicode="y" horiz-adv-x="1013" 
d="M326 -6l-170 948h329l95 -559l262 559h338l-795 -1454h-334z" />
    <glyph glyph-name="z" unicode="z" horiz-adv-x="1013" 
d="M104 184l490 480h-385l49 278h834l-33 -184l-471 -479h393l-49 -279h-860z" />
    <glyph glyph-name="braceleft" unicode="{" horiz-adv-x="761" 
d="M612 -430q-185 0 -285 88t-100 248q0 40 9 90l38 217q2 6 2 27q0 57 -39.5 93t-99.5 36l51 286h27q64 0 106 33t52 92l53 299q35 192 136 283.5t280 91.5h114l-51 -287h-43q-111 0 -133 -112l-47 -275q-20 -117 -70 -186.5t-120 -83.5l-3 -8q105 -41 105 -183
q0 -48 -12 -110l-39 -219q-2 -8 -2 -27q0 -46 26.5 -76t77.5 -30h29l-51 -287h-11z" />
    <glyph glyph-name="bar" unicode="|" horiz-adv-x="737" 
d="M287 1454h327v-1966h-327v1966z" />
    <glyph glyph-name="braceright" unicode="}" horiz-adv-x="761" 
d="M37 -143h43q111 0 133 112l47 275q20 117 70.5 186.5t120.5 83.5l2 8q-105 41 -105 183q0 48 12 110l39 219q2 8 2 27q0 46 -26.5 76t-77.5 30h-29l51 287h11q185 0 285 -88t100 -248q0 -46 -8 -90l-39 -217q-2 -6 -2 -27q0 -57 39.5 -93t99.5 -36l-51 -286h-27
q-64 0 -106 -33t-52 -92l-53 -299q-35 -192 -136 -283.5t-280 -91.5h-114z" />
    <glyph glyph-name="asciitilde" unicode="~" horiz-adv-x="942" 
d="M719 500q-68 0 -148 39q-96 49 -135 49q-32 0 -54.5 -18t-51.5 -68l-150 114q24 100 96 159t179 59q45 0 77.5 -10.5t77.5 -35.5q88 -43 127 -43q35 0 57.5 18t53.5 68l151 -116q-26 -102 -100 -158.5t-180 -56.5z" />
    <glyph glyph-name="nbspace" unicode="&#xa0;" horiz-adv-x="450" 
 />
    <glyph glyph-name="exclamdown" unicode="&#xa1;" horiz-adv-x="593" 
d="M258 471h246l-119 -901h-328zM420 594q-73 0 -121.5 47.5t-48.5 120.5q0 80 59 140.5t140 60.5q72 0 120.5 -47.5t48.5 -120.5q0 -80 -58.5 -140.5t-139.5 -60.5z" />
    <glyph glyph-name="cent" unicode="&#xa2;" horiz-adv-x="1050" 
d="M449 2q-138 51 -221 164.5t-83 267.5q0 198 136 347.5t337 183.5l39 223h222l-41 -230q201 -51 303 -213l-258 -196q-67 125 -193 125q-99 0 -159 -63.5t-60 -157.5q0 -89 52 -137t134 -48q54 0 101.5 24t103.5 75l180 -240q-158 -145 -378 -158l-37 -215h-221z" />
    <glyph glyph-name="sterling" unicode="&#xa3;" horiz-adv-x="1056" 
d="M115 180q124 81 205 184.5t104 208.5h-182l37 205h122q-4 7 -24 64q-33 101 -33 176q0 87 37.5 161t100.5 122t144.5 75t170.5 27q230 0 381 -178l-195 -197q-77 84 -160 84q-57 0 -98 -32t-41 -87q0 -53 49 -153q18 -44 23 -62h280l-37 -205h-227q-10 -77 -52.5 -140.5
t-115.5 -125.5h445l-54 -307h-913z" />
    <glyph glyph-name="currency" unicode="&#xa4;" horiz-adv-x="1159" 
d="M164 330l178 178q-47 83 -47 190q0 104 45 187l-176 176l174 174l180 -180q87 41 187 41q99 0 184 -39l178 178l174 -174l-174 -174q43 -88 43 -189q0 -104 -45 -190l176 -176l-174 -174l-180 180q-84 -41 -182 -41t-185 41l-182 -182zM702 553q63 0 102.5 40t39.5 103
t-39.5 103.5t-102.5 40.5t-102 -40.5t-39 -103.5t39 -103t102 -40z" />
    <glyph glyph-name="yen" unicode="&#xa5;" horiz-adv-x="1148" 
d="M408 102h-207l37 205h204l13 62h-205l35 204h159l-233 799h371l131 -520l319 520h369l-520 -799h161l-34 -204h-205l-12 -62h204l-34 -205h-205l-19 -102h-348z" />
    <glyph glyph-name="brokenbar" unicode="&#xa6;" horiz-adv-x="737" 
d="M287 266h327v-778h-327v778zM287 1454h327v-778h-327v778z" />
    <glyph glyph-name="section" unicode="&#xa7;" horiz-adv-x="1128" 
d="M510 -297q-109 0 -204.5 52t-143.5 147l233 161q15 -38 43 -64t64 -26q34 0 56 22t22 54q0 73 -136 150q-223 125 -223 329q0 126 75.5 227t197.5 152q-52 73 -52 162q0 143 110.5 238.5t260.5 95.5q109 0 204.5 -52t143.5 -147l-233 -162q-15 39 -43 65t-64 26
q-34 0 -56 -21t-22 -51q0 -66 134 -148q119 -75 173 -152.5t54 -178.5q0 -126 -76.5 -229t-198.5 -154q52 -73 52 -162q0 -143 -110.5 -238.5t-260.5 -95.5zM655 440q59 0 99.5 33.5t40.5 87.5q0 52 -38.5 79.5t-90.5 27.5q-57 0 -97.5 -33.5t-40.5 -87.5q0 -52 37.5 -79.5
t89.5 -27.5z" />
    <glyph glyph-name="dieresis" unicode="&#xa8;" horiz-adv-x="841" 
d="M408 1073q-70 0 -118 47.5t-48 118.5q0 80 57.5 137.5t136.5 57.5q72 0 120 -48t48 -118q0 -79 -59 -137t-137 -58zM846 1073q-70 0 -118 47.5t-48 118.5q0 80 57.5 137.5t136.5 57.5q72 0 120 -48t48 -118q0 -79 -59 -137t-137 -58z" />
    <glyph glyph-name="copyright" unicode="&#xa9;" horiz-adv-x="1687" 
d="M965 -61q-195 0 -366.5 102.5t-273.5 275t-102 369.5q0 147 60.5 285.5t161 239.5t237.5 162t283 61q147 0 284.5 -61t237 -162t159.5 -239t60 -286q0 -197 -101 -369.5t-272 -275t-368 -102.5zM965 143q106 0 203 42.5t168 115t113 173.5t42 212q0 112 -42 214.5
t-113 176t-168 117t-203 43.5q-141 0 -262.5 -73.5t-193 -200.5t-71.5 -277q0 -149 71.5 -274t192.5 -197t263 -72zM985 340q-155 0 -262 102t-107 250q0 149 106.5 250.5t262.5 101.5q184 0 293 -133l-154 -153q-60 78 -139 78q-63 0 -102 -40.5t-39 -103.5
q0 -66 39 -104.5t102 -38.5q81 0 145 82l156 -156q-55 -64 -133 -99.5t-168 -35.5z" />
    <glyph glyph-name="ordfeminine" unicode="&#xaa;" horiz-adv-x="827" 
d="M451 645q-65 0 -121 21t-94.5 70.5t-38.5 119.5q0 113 92.5 182.5t216.5 69.5q132 0 199 -51v18q0 59 -35 93t-92 34q-78 0 -138 -57l-108 174q130 84 272 84q97 0 174 -30t126.5 -99t49.5 -168q0 -34 -6 -68l-65 -370h-246l10 61q-84 -84 -196 -84zM547 813
q50 0 86.5 26t46.5 70q-64 37 -123 37q-45 0 -74.5 -17t-29.5 -52q0 -34 28.5 -49t65.5 -15z" />
    <glyph glyph-name="guillemotleft" unicode="&#xab;" horiz-adv-x="1095" 
d="M152 512l366 432l182 -139l-251 -297l145 -293l-225 -137zM588 514l366 432l183 -139l-252 -297l145 -293l-225 -137z" />
    <glyph glyph-name="logicalnot" unicode="&#xac;" horiz-adv-x="942" 
d="M743 539h-565v254h819v-480h-254v226z" />
    <glyph glyph-name="uni00AD" unicode="&#xad;" horiz-adv-x="655" 
d="M201 676h491l-49 -287h-491z" />
    <glyph glyph-name="registered" unicode="&#xae;" horiz-adv-x="1687" 
d="M965 -61q-195 0 -366.5 102.5t-273.5 275t-102 369.5q0 147 60.5 285.5t161 239.5t237.5 162t283 61q147 0 284.5 -61t237 -162t159.5 -239t60 -286q0 -197 -101 -369.5t-272 -275t-368 -102.5zM965 143q106 0 203 42.5t168 115t113 173.5t42 212q0 112 -42 214.5
t-113 176t-168 117t-203 43.5q-141 0 -262.5 -73.5t-193 -200.5t-71.5 -277q0 -149 71.5 -274t192.5 -197t263 -72zM717 1034h268q122 0 197 -63t75 -166q0 -61 -30 -111.5t-84 -79.5l145 -264h-229l-113 225h-24v-225h-205v684zM967 739q38 0 62 18.5t24 47.5t-24 47
t-62 18h-45v-131h45z" />
    <glyph glyph-name="overscore" unicode="&#xaf;" horiz-adv-x="555" 
d="M260 1356h512l-41 -226h-512z" />
    <glyph glyph-name="degree" unicode="&#xb0;" horiz-adv-x="937" 
d="M651 645q-166 0 -277.5 109t-111.5 270t111.5 270t277.5 109t275.5 -107.5t109.5 -271.5t-109.5 -271.5t-275.5 -107.5zM651 895q54 0 89.5 36t35.5 93q0 54 -35.5 91.5t-89.5 37.5q-56 0 -92.5 -37t-36.5 -92q0 -57 36 -93t93 -36z" />
    <glyph glyph-name="plusminus" unicode="&#xb1;" horiz-adv-x="942" 
d="M156 444h282v197h-282v254h282v283h254v-283h283v-254h-283v-197h283v-254h-819v254z" />
    <glyph glyph-name="uni00B2" unicode="&#xb2;" horiz-adv-x="831" 
d="M244 983l264 193q104 75 143 115.5t39 72.5q0 24 -16 37.5t-45 13.5q-78 0 -99 -90l-245 90q49 122 146.5 188t223.5 66q83 0 156 -28t122.5 -89.5t49.5 -144.5q0 -51 -17 -93.5t-51.5 -79t-66.5 -61t-82 -57.5l-82 -51h258l-41 -225h-684z" />
    <glyph glyph-name="uni00B3" unicode="&#xb3;" horiz-adv-x="792" 
d="M565 809q-54 0 -107 12t-103.5 36t-88 66.5t-51.5 98.5l203 115q16 -44 54 -66t83 -22q40 0 63 16.5t23 42.5q0 29 -27 45t-77 16h-70l25 144l141 121h-258l35 204h571l-25 -143l-204 -184q79 -33 124.5 -94.5t45.5 -139.5q0 -63 -31.5 -115t-83 -84.5t-114 -50.5
t-128.5 -18z" />
    <glyph glyph-name="acute" unicode="&#xb4;" horiz-adv-x="462" 
d="M221 1133l258 385l209 -134l-297 -356z" />
    <glyph glyph-name="uni00B5" unicode="&#xb5;" horiz-adv-x="1128" 
d="M270 942h320l-90 -504q-4 -28 -4 -47q0 -62 30 -99.5t88 -37.5q63 0 107.5 48t58.5 128l92 512h320l-168 -942h-307l16 80q-91 -111 -213 -111q-53 0 -98 23l-90 -504h-320z" />
    <glyph glyph-name="paragraph" unicode="&#xb6;" horiz-adv-x="933" 
d="M463 -512q-137 0 -230 70l115 247q40 -30 86 -30q43 0 69.5 29.5t26.5 76.5v733q-160 0 -264 107.5t-104 271.5t104 271.5t264 107.5h504v-287h-184v-1200q0 -178 -107.5 -287.5t-279.5 -109.5z" />
    <glyph glyph-name="middot" unicode="&#xb7;" horiz-adv-x="450" 
d="M305 348q-73 0 -121.5 47.5t-48.5 120.5q0 80 59 140.5t140 60.5q73 0 121.5 -47.5t48.5 -120.5q0 -80 -59 -140.5t-140 -60.5z" />
    <glyph glyph-name="cedilla" unicode="&#xb8;" horiz-adv-x="569" 
d="M178 -553q-150 0 -241 74l94 190q18 -18 61.5 -31.5t75.5 -13.5q30 0 49 14t19 37q0 50 -95 50h-86l138 329h221l-74 -188q73 -33 112.5 -87.5t39.5 -125.5q0 -108 -89 -178t-225 -70z" />
    <glyph glyph-name="uni00B9" unicode="&#xb9;" horiz-adv-x="686" 
d="M532 1311l-176 -86l-82 194l443 240h143l-145 -819h-266z" />
    <glyph glyph-name="ordmasculine" unicode="&#xba;" horiz-adv-x="858" 
d="M582 645q-151 0 -256 96t-105 248q0 170 123.5 292t296.5 122q151 0 253.5 -96t102.5 -248q0 -110 -54 -205t-150 -152t-211 -57zM596 895q63 0 103 43t40 100q0 54 -34.5 84.5t-86.5 30.5q-61 0 -100 -41t-39 -102q0 -54 33 -84.5t84 -30.5z" />
    <glyph glyph-name="guillemotright" unicode="&#xbb;" horiz-adv-x="1097" 
d="M141 217l254 297l-145 293l225 137l215 -434l-366 -432zM578 219l253 297l-145 293l225 137l217 -434l-368 -432z" />
    <glyph glyph-name="onequarter" unicode="&#xbc;" horiz-adv-x="1802" 
d="M1214 1372h318l-805 -1372h-317zM481 1044l-176 -86l-82 195l443 240h143l-145 -820h-267zM1423 113h-409l33 184l542 522h185l-91 -512h103l-35 -194h-102l-21 -113h-225zM1458 307l29 166l-174 -166h145z" />
    <glyph glyph-name="onehalf" unicode="&#xbd;" horiz-adv-x="1845" 
d="M1214 1372h318l-805 -1372h-317zM481 1044l-176 -86l-82 195l443 240h143l-145 -820h-267zM1106 143l264 193q104 75 143 115.5t39 72.5q0 24 -16 37.5t-45 13.5q-77 0 -98 -90l-246 90q49 122 147 188t224 66q61 0 118.5 -17t104.5 -48.5t75.5 -82.5t28.5 -114
q0 -51 -17 -93.5t-51.5 -79t-66.5 -61t-82 -57.5l-86 -57l262 6l-41 -225h-684z" />
    <glyph glyph-name="threequarters" unicode="&#xbe;" horiz-adv-x="1908" 
d="M1321 1372h317l-804 -1372h-318zM514 543q-54 0 -107 12t-103.5 36t-88 66.5t-51.5 98.5l203 114q16 -44 54 -66t83 -22q40 0 63 17t23 43q0 29 -27.5 45t-77.5 16h-69l24 144l142 120h-258l34 205h572l-25 -143l-205 -185q79 -33 124.5 -94t45.5 -139q0 -83 -54 -146
t-133.5 -92.5t-168.5 -29.5zM1530 113h-410l33 184l543 522h184l-90 -512h102l-34 -194h-103l-20 -113h-226zM1565 307l28 166l-174 -166h146z" />
    <glyph glyph-name="questiondown" unicode="&#xbf;" horiz-adv-x="974" 
d="M467 -461q-189 0 -302.5 86.5t-113.5 229.5q0 97 64 170t215 161q34 20 48.5 29.5t25 24.5t10.5 34q0 20 -14 33.5t-52 30.5l158 221q129 -31 199.5 -98t70.5 -160q0 -42 -16 -80t-36.5 -64t-57 -54.5t-60.5 -43t-63 -36.5q-72 -39 -106 -68t-34 -66q0 -36 31.5 -56.5
t85.5 -20.5q115 0 228 98l135 -213q-98 -84 -197.5 -121t-218.5 -37zM643 594q-73 0 -121.5 47.5t-48.5 120.5q0 80 59 140.5t140 60.5q73 0 121.5 -47.5t48.5 -120.5q0 -80 -59 -140.5t-140 -60.5z" />
    <glyph glyph-name="Agrave" unicode="&#xc0;" horiz-adv-x="1331" 
d="M795 1393h266l280 -1393h-362l-33 203h-454l-105 -203h-377zM899 489l-61 383l-199 -383h260zM702 1831l236 117l125 -398l-178 -90z" />
    <glyph glyph-name="Aacute" unicode="&#xc1;" horiz-adv-x="1331" 
d="M795 1393h266l280 -1393h-362l-33 203h-454l-105 -203h-377zM899 489l-61 383l-199 -383h260zM829 1563l258 385l209 -133l-297 -357z" />
    <glyph glyph-name="Acircumflex" unicode="&#xc2;" horiz-adv-x="1331" 
d="M795 1393h266l280 -1393h-362l-33 203h-454l-105 -203h-377zM899 489l-61 383l-199 -383h260zM633 1692l368 180l308 -180l-131 -209l-215 121l-271 -127z" />
    <glyph glyph-name="Atilde" unicode="&#xc3;" horiz-adv-x="1331" 
d="M795 1393h266l280 -1393h-362l-33 203h-454l-105 -203h-377zM899 489l-61 383l-199 -383h260zM1067 1524q-60 0 -137 43q-37 22 -74 22q-51 0 -90 -57l-129 127q34 87 99 132.5t141 45.5q59 0 118 -33q59 -32 92 -32q28 0 47 13t44 44l129 -129q-34 -87 -99 -131.5
t-141 -44.5z" />
    <glyph glyph-name="Adieresis" unicode="&#xc4;" horiz-adv-x="1331" 
d="M795 1393h266l280 -1393h-362l-33 203h-454l-105 -203h-377zM899 489l-61 383l-199 -383h260zM737 1503q-70 0 -118 47.5t-48 118.5q0 79 57.5 137t137.5 58q72 0 120 -48t48 -118q0 -79 -59 -137t-138 -58zM1176 1503q-70 0 -118 47.5t-48 118.5q0 80 57.5 137.5
t136.5 57.5q72 0 120 -48t48 -118q0 -79 -59 -137t-137 -58z" />
    <glyph glyph-name="Aring" unicode="&#xc5;" horiz-adv-x="1331" 
d="M795 1393h266l280 -1393h-362l-33 203h-454l-105 -203h-377zM899 489l-61 383l-199 -383h260zM940 1434q-108 0 -185 63.5t-77 169.5q0 115 86.5 190.5t204.5 75.5q108 0 185 -62.5t77 -168.5q0 -115 -87 -191.5t-204 -76.5zM954 1616q35 0 61.5 18.5t26.5 51.5
q0 34 -26 49.5t-62 15.5t-62 -18t-26 -52q0 -33 26.5 -49t61.5 -16z" />
    <glyph glyph-name="AE" unicode="&#xc6;" horiz-adv-x="1703" 
d="M819 1372h1014l-57 -323h-570l2 -199h404l-53 -307h-342l2 -219h440l-57 -324h-691l-4 227h-454l-136 -227h-358zM901 514l-6 457l-272 -457h278z" />
    <glyph glyph-name="Ccedilla" unicode="&#xc7;" horiz-adv-x="1366" 
d="M700 -553q-150 0 -241 74l94 190q18 -18 61.5 -31.5t75.5 -13.5q30 0 49 14t19 37q0 50 -94 50h-86l92 223q-217 51 -352.5 221.5t-135.5 411.5q0 155 60 298t163 249t248.5 169.5t307.5 63.5q176 0 324 -74.5t243 -220.5l-283 -211q-49 77 -126 116.5t-171 39.5
q-169 0 -283 -119t-114 -285q0 -151 97.5 -241.5t244.5 -90.5q155 0 270 105l203 -250q-205 -189 -479 -201l-25 -63q73 -33 112.5 -87.5t39.5 -125.5q0 -108 -89 -178t-225 -70z" />
    <glyph glyph-name="Egrave" unicode="&#xc8;" 
d="M385 1372h809l-57 -323h-461l-35 -199h332l-53 -307h-332l-39 -219h471l-57 -324h-820zM549 1831l235 117l125 -398l-178 -90z" />
    <glyph glyph-name="Eacute" unicode="&#xc9;" 
d="M385 1372h809l-57 -323h-461l-35 -199h332l-53 -307h-332l-39 -219h471l-57 -324h-820zM676 1563l258 385l209 -133l-297 -357z" />
    <glyph glyph-name="Ecircumflex" unicode="&#xca;" 
d="M385 1372h809l-57 -323h-461l-35 -199h332l-53 -307h-332l-39 -219h471l-57 -324h-820zM479 1692l369 180l307 -180l-131 -209l-215 121l-270 -127z" />
    <glyph glyph-name="Edieresis" unicode="&#xcb;" 
d="M385 1372h809l-57 -323h-461l-35 -199h332l-53 -307h-332l-39 -219h471l-57 -324h-820zM584 1503q-70 0 -118 47.5t-48 118.5q0 80 57.5 137.5t136.5 57.5q72 0 120 -48t48 -118q0 -79 -59 -137t-137 -58zM1022 1503q-70 0 -118 47.5t-48 118.5q0 79 58 137t137 58
q71 0 119.5 -48t48.5 -118q0 -79 -59 -137t-138 -58z" />
    <glyph glyph-name="Igrave" unicode="&#xcc;" horiz-adv-x="634" 
d="M385 1372h348l-241 -1372h-349zM338 1831l235 117l125 -398l-178 -90z" />
    <glyph glyph-name="Iacute" unicode="&#xcd;" horiz-adv-x="634" 
d="M385 1372h348l-241 -1372h-349zM465 1563l258 385l209 -133l-297 -357z" />
    <glyph glyph-name="Icircumflex" unicode="&#xce;" horiz-adv-x="634" 
d="M385 1372h348l-241 -1372h-349zM268 1692l369 180l307 -180l-131 -209l-215 121l-270 -127z" />
    <glyph glyph-name="Idieresis" unicode="&#xcf;" horiz-adv-x="634" 
d="M385 1372h348l-241 -1372h-349zM383 1505q-71 0 -119.5 48.5t-48.5 117.5q0 79 59 137t138 58q70 0 118 -47.5t48 -118.5q0 -80 -58 -137.5t-137 -57.5zM819 1505q-71 0 -119.5 48.5t-48.5 117.5q0 79 59 137t138 58q70 0 118 -47.5t48 -118.5q0 -80 -58 -137.5
t-137 -57.5z" />
    <glyph glyph-name="Eth" unicode="&#xd0;" horiz-adv-x="1527" 
d="M287 573h-205l43 246h205l98 553h496q298 0 481.5 -171.5t183.5 -448.5q0 -153 -61 -292.5t-164 -240t-244.5 -160t-296.5 -59.5h-637zM850 328q106 0 192 57.5t131.5 148.5t45.5 193q0 138 -86 227.5t-224 89.5h-190l-39 -225h244l-43 -246h-246l-43 -245h258z" />
    <glyph glyph-name="Ntilde" unicode="&#xd1;" horiz-adv-x="1525" 
d="M606 766l-135 -766h-328l246 1393h205l567 -787l135 766h328l-246 -1392h-204zM1112 1524q-60 0 -137 43q-37 22 -74 22q-51 0 -90 -57l-129 127q34 87 99 132.5t141 45.5q59 0 118 -33q59 -32 93 -32q28 0 46.5 12.5t43.5 44.5l129 -129q-34 -87 -99 -131.5t-141 -44.5z
" />
    <glyph glyph-name="Ograve" unicode="&#xd2;" horiz-adv-x="1564" 
d="M846 -31q-186 0 -337 80.5t-239 230.5t-88 341q0 209 103 388.5t283 286.5t393 107q186 0 336.5 -79.5t238.5 -228.5t88 -341q0 -156 -60 -299.5t-162.5 -250.5t-248 -171t-307.5 -64zM868 317q110 0 199.5 58.5t137.5 152.5t48 201q0 144 -88.5 235t-228.5 91
q-110 0 -199 -59t-136.5 -153.5t-47.5 -201.5q0 -143 88 -233.5t227 -90.5zM748 1831l235 117l125 -398l-178 -90z" />
    <glyph glyph-name="Oacute" unicode="&#xd3;" horiz-adv-x="1564" 
d="M846 -31q-186 0 -337 80.5t-239 230.5t-88 341q0 209 103 388.5t283 286.5t393 107q186 0 336.5 -79.5t238.5 -228.5t88 -341q0 -156 -60 -299.5t-162.5 -250.5t-248 -171t-307.5 -64zM868 317q110 0 199.5 58.5t137.5 152.5t48 201q0 144 -88.5 235t-228.5 91
q-110 0 -199 -59t-136.5 -153.5t-47.5 -201.5q0 -143 88 -233.5t227 -90.5zM874 1563l259 385l208 -133l-297 -357z" />
    <glyph glyph-name="Ocircumflex" unicode="&#xd4;" horiz-adv-x="1564" 
d="M846 -31q-186 0 -337 80.5t-239 230.5t-88 341q0 209 103 388.5t283 286.5t393 107q186 0 336.5 -79.5t238.5 -228.5t88 -341q0 -156 -60 -299.5t-162.5 -250.5t-248 -171t-307.5 -64zM868 317q110 0 199.5 58.5t137.5 152.5t48 201q0 144 -88.5 235t-228.5 91
q-110 0 -199 -59t-136.5 -153.5t-47.5 -201.5q0 -143 88 -233.5t227 -90.5zM678 1692l369 180l307 -180l-131 -209l-215 121l-271 -127z" />
    <glyph glyph-name="Otilde" unicode="&#xd5;" horiz-adv-x="1564" 
d="M846 -31q-186 0 -337 80.5t-239 230.5t-88 341q0 209 103 388.5t283 286.5t393 107q186 0 336.5 -79.5t238.5 -228.5t88 -341q0 -156 -60 -299.5t-162.5 -250.5t-248 -171t-307.5 -64zM868 317q110 0 199.5 58.5t137.5 152.5t48 201q0 144 -88.5 235t-228.5 91
q-110 0 -199 -59t-136.5 -153.5t-47.5 -201.5q0 -143 88 -233.5t227 -90.5zM1112 1524q-60 0 -137 43q-37 22 -74 22q-51 0 -90 -57l-129 127q34 87 99 132.5t141 45.5q59 0 118 -33q59 -32 93 -32q28 0 46.5 12.5t43.5 44.5l129 -129q-34 -87 -99 -131.5t-141 -44.5z" />
    <glyph glyph-name="Odieresis" unicode="&#xd6;" horiz-adv-x="1564" 
d="M846 -31q-186 0 -337 80.5t-239 230.5t-88 341q0 209 103 388.5t283 286.5t393 107q186 0 336.5 -79.5t238.5 -228.5t88 -341q0 -156 -60 -299.5t-162.5 -250.5t-248 -171t-307.5 -64zM868 317q110 0 199.5 58.5t137.5 152.5t48 201q0 144 -88.5 235t-228.5 91
q-110 0 -199 -59t-136.5 -153.5t-47.5 -201.5q0 -143 88 -233.5t227 -90.5zM782 1503q-70 0 -118 47.5t-48 118.5q0 79 58 137t137 58q71 0 119.5 -48t48.5 -118q0 -79 -59 -137t-138 -58zM1221 1503q-70 0 -118 47.5t-48 118.5q0 80 57.5 137.5t136.5 57.5q71 0 119.5 -48
t48.5 -118q0 -79 -59 -137t-137 -58z" />
    <glyph glyph-name="multiply" unicode="&#xd7;" horiz-adv-x="942" 
d="M190 438l226 226l-226 225l175 174l225 -225l225 225l174 -174l-225 -225l225 -226l-174 -174l-225 225l-225 -225z" />
    <glyph glyph-name="Oslash" unicode="&#xd8;" horiz-adv-x="1564" 
d="M166 31l153 176q-137 170 -137 414q0 209 103 388.5t283 286.5t393 107q188 0 337 -82l150 170l190 -150l-153 -174q139 -172 139 -413q0 -156 -60 -299.5t-162.5 -250.5t-248 -171t-307.5 -64q-187 0 -340 84l-150 -170zM1049 1036q-55 19 -113 19q-110 0 -199 -59
t-136.5 -153.5t-47.5 -201.5q0 -75 27 -139zM868 317q110 0 199.5 58.5t137.5 152.5t48 201q0 73 -28 143l-471 -536q55 -19 114 -19z" />
    <glyph glyph-name="Ugrave" unicode="&#xd9;" horiz-adv-x="1413" 
d="M758 -31q-228 0 -378.5 142t-150.5 370q0 49 11 121l135 770h348l-137 -774q-8 -41 -8 -88q0 -97 55 -155t147 -58q96 0 164.5 63.5t87.5 169.5l150 842h340l-154 -870q-41 -237 -211.5 -385t-398.5 -148zM731 1831l236 117l125 -398l-179 -90z" />
    <glyph glyph-name="Uacute" unicode="&#xda;" horiz-adv-x="1413" 
d="M758 -31q-228 0 -378.5 142t-150.5 370q0 49 11 121l135 770h348l-137 -774q-8 -41 -8 -88q0 -97 55 -155t147 -58q96 0 164.5 63.5t87.5 169.5l150 842h340l-154 -870q-41 -237 -211.5 -385t-398.5 -148zM858 1563l258 385l209 -133l-297 -357z" />
    <glyph glyph-name="Ucircumflex" unicode="&#xdb;" horiz-adv-x="1413" 
d="M758 -31q-228 0 -378.5 142t-150.5 370q0 49 11 121l135 770h348l-137 -774q-8 -41 -8 -88q0 -97 55 -155t147 -58q96 0 164.5 63.5t87.5 169.5l150 842h340l-154 -870q-41 -237 -211.5 -385t-398.5 -148zM662 1692l368 180l307 -180l-131 -209l-215 121l-270 -127z" />
    <glyph glyph-name="Udieresis" unicode="&#xdc;" horiz-adv-x="1413" 
d="M758 -31q-228 0 -378.5 142t-150.5 370q0 49 11 121l135 770h348l-137 -774q-8 -41 -8 -88q0 -97 55 -155t147 -58q96 0 164.5 63.5t87.5 169.5l150 842h340l-154 -870q-41 -237 -211.5 -385t-398.5 -148zM766 1503q-70 0 -118 47.5t-48 118.5q0 79 58 137t137 58
q71 0 119.5 -48t48.5 -118q0 -79 -59 -137t-138 -58zM1204 1503q-70 0 -118 47.5t-48 118.5q0 79 58 137t137 58q71 0 119.5 -48t48.5 -118q0 -79 -59 -137t-138 -58z" />
    <glyph glyph-name="Yacute" unicode="&#xdd;" horiz-adv-x="1146" 
d="M471 477l-260 895h369l131 -520l319 520h369l-578 -889l-86 -483h-348zM690 1563l258 385l209 -133l-297 -357z" />
    <glyph glyph-name="Thorn" unicode="&#xde;" horiz-adv-x="1341" 
d="M385 1372h348l-41 -235h234q214 0 348.5 -117t134.5 -303q0 -135 -74 -242t-193 -163t-257 -56h-348l-45 -256h-349zM903 573q66 0 112 33t46 92q0 55 -44 88t-116 33h-266l-43 -246h311z" />
    <glyph glyph-name="germandbls" unicode="&#xdf;" horiz-adv-x="1212" 
d="M774 -31q-85 0 -157 21.5t-105 54.5l129 246q57 -33 129 -33q65 0 114.5 28t49.5 81q0 28 -16 56.5t-56 74.5q-67 78 -95 138t-28 126q0 188 211 325q-19 80 -135 80q-93 0 -151.5 -60.5t-77.5 -172.5l-164 -934h-320l170 963q37 219 189.5 355t359.5 136
q115 0 216.5 -41t169 -126.5t67.5 -199.5q0 -33 -6 -67q-114 -64 -165.5 -113.5t-51.5 -101.5q0 -55 84 -164q62 -81 89 -141.5t27 -130.5q0 -108 -62.5 -200t-172.5 -146t-242 -54z" />
    <glyph glyph-name="agrave" unicode="&#xe0;" horiz-adv-x="1075" 
d="M416 -31q-140 0 -227 79t-87 208q0 146 112 241t280 95q161 0 264 -70q2 16 2 29q0 73 -47 116.5t-121 43.5q-104 0 -186 -82l-146 233q168 111 373 111q203 0 324.5 -106.5t121.5 -288.5q0 -50 -8 -86l-86 -492h-319l14 82q-107 -113 -264 -113zM551 190
q65 0 111.5 35.5t60.5 93.5q-80 64 -170 64q-54 0 -92.5 -25.5t-38.5 -72.5q0 -49 39.5 -72t89.5 -23zM479 1401l236 117l125 -398l-178 -90z" />
    <glyph glyph-name="aacute" unicode="&#xe1;" horiz-adv-x="1075" 
d="M416 -31q-140 0 -227 79t-87 208q0 146 112 241t280 95q161 0 264 -70q2 16 2 29q0 73 -47 116.5t-121 43.5q-104 0 -186 -82l-146 233q168 111 373 111q203 0 324.5 -106.5t121.5 -288.5q0 -50 -8 -86l-86 -492h-319l14 82q-107 -113 -264 -113zM551 190
q65 0 111.5 35.5t60.5 93.5q-80 64 -170 64q-54 0 -92.5 -25.5t-38.5 -72.5q0 -49 39.5 -72t89.5 -23zM606 1133l258 385l209 -134l-297 -356z" />
    <glyph glyph-name="acircumflex" unicode="&#xe2;" horiz-adv-x="1075" 
d="M416 -31q-140 0 -227 79t-87 208q0 146 112 241t280 95q161 0 264 -70q2 16 2 29q0 73 -47 116.5t-121 43.5q-104 0 -186 -82l-146 233q168 111 373 111q203 0 324.5 -106.5t121.5 -288.5q0 -50 -8 -86l-86 -492h-319l14 82q-107 -113 -264 -113zM551 190
q65 0 111.5 35.5t60.5 93.5q-80 64 -170 64q-54 0 -92.5 -25.5t-38.5 -72.5q0 -49 39.5 -72t89.5 -23zM410 1262l368 180l307 -180l-131 -209l-215 121l-270 -127z" />
    <glyph glyph-name="atilde" unicode="&#xe3;" horiz-adv-x="1075" 
d="M416 -31q-140 0 -227 79t-87 208q0 146 112 241t280 95q161 0 264 -70q2 16 2 29q0 73 -47 116.5t-121 43.5q-104 0 -186 -82l-146 233q168 111 373 111q203 0 324.5 -106.5t121.5 -288.5q0 -50 -8 -86l-86 -492h-319l14 82q-107 -113 -264 -113zM551 190
q65 0 111.5 35.5t60.5 93.5q-80 64 -170 64q-54 0 -92.5 -25.5t-38.5 -72.5q0 -49 39.5 -72t89.5 -23zM844 1094q-60 0 -137 43q-37 22 -74 22q-51 0 -90 -57l-129 127q34 87 98.5 132.5t140.5 45.5q60 0 119 -33q60 -33 92 -33q27 0 46 13t44 45l129 -129
q-34 -87 -98.5 -131.5t-140.5 -44.5z" />
    <glyph glyph-name="adieresis" unicode="&#xe4;" horiz-adv-x="1075" 
d="M416 -31q-140 0 -227 79t-87 208q0 146 112 241t280 95q161 0 264 -70q2 16 2 29q0 73 -47 116.5t-121 43.5q-104 0 -186 -82l-146 233q168 111 373 111q203 0 324.5 -106.5t121.5 -288.5q0 -50 -8 -86l-86 -492h-319l14 82q-107 -113 -264 -113zM551 190
q65 0 111.5 35.5t60.5 93.5q-80 64 -170 64q-54 0 -92.5 -25.5t-38.5 -72.5q0 -49 39.5 -72t89.5 -23zM514 1073q-70 0 -118 47.5t-48 118.5q0 79 58 137t137 58q71 0 119.5 -48t48.5 -118q0 -79 -59 -137t-138 -58zM952 1073q-70 0 -118 47.5t-48 118.5q0 79 58 137t137 58
q71 0 119.5 -48t48.5 -118q0 -79 -59 -137t-138 -58z" />
    <glyph glyph-name="aring" unicode="&#xe5;" horiz-adv-x="1075" 
d="M416 -31q-140 0 -227 79t-87 208q0 146 112 241t280 95q161 0 264 -70q2 16 2 29q0 73 -47 116.5t-121 43.5q-104 0 -186 -82l-146 233q168 111 373 111q203 0 324.5 -106.5t121.5 -288.5q0 -50 -8 -86l-86 -492h-319l14 82q-107 -113 -264 -113zM551 190
q65 0 111.5 35.5t60.5 93.5q-80 64 -170 64q-54 0 -92.5 -25.5t-38.5 -72.5q0 -49 39.5 -72t89.5 -23zM717 1004q-108 0 -185 63.5t-77 169.5q0 115 86 190.5t204 75.5q108 0 185.5 -62.5t77.5 -168.5q0 -115 -87 -191.5t-204 -76.5zM731 1186q35 0 61.5 18t26.5 51
q0 34 -26 50t-62 16t-62 -18t-26 -52q0 -33 26.5 -49t61.5 -16z" />
    <glyph glyph-name="ae" unicode="&#xe6;" horiz-adv-x="1714" 
d="M473 -31q-175 0 -273 79t-98 210q0 143 112 238.5t282 95.5q159 0 262 -70q2 16 2 29q0 73 -47 116.5t-121 43.5q-104 0 -186 -82l-146 233q168 111 373 111q206 0 332 -113q138 113 327 113q121 0 223.5 -49t166 -144.5t63.5 -218.5q0 -77 -29 -184h-639q17 -78 76 -117
t145 -39q114 0 222 78l118 -195q-176 -135 -401 -135q-119 0 -218.5 39.5t-164.5 116.5q-62 -74 -160.5 -115t-220.5 -41zM551 190q65 0 111.5 35.5t60.5 93.5q-80 64 -170 64q-54 0 -92.5 -25.5t-38.5 -72.5q0 -49 39.5 -72t89.5 -23zM1430 582q-5 71 -41 112t-105 41
q-128 0 -190 -153h336z" />
    <glyph glyph-name="ccedilla" unicode="&#xe7;" horiz-adv-x="1050" 
d="M498 -553q-151 0 -242 74l94 190q18 -18 61 -31.5t76 -13.5q30 0 49 14t19 37q0 50 -94 50h-86l94 227q-144 46 -234 163.5t-90 276.5q0 147 77.5 271.5t208 196t282.5 71.5q134 0 246 -57.5t182 -170.5l-258 -196q-67 125 -193 125q-99 0 -159 -63.5t-60 -157.5
q0 -89 52 -137t134 -48q54 0 101.5 24t103.5 75l180 -240q-150 -140 -358 -156l-25 -63q73 -33 112.5 -87.5t39.5 -125.5q0 -108 -88.5 -178t-224.5 -70z" />
    <glyph glyph-name="egrave" unicode="&#xe8;" horiz-adv-x="1110" 
d="M631 -31q-135 0 -244.5 50.5t-176.5 154t-67 244.5q0 147 70 274t195.5 204t277.5 77q121 0 223.5 -49t166 -144.5t63.5 -218.5q0 -77 -29 -184h-639q17 -78 76 -117t145 -39q113 0 221 78l119 -195q-176 -135 -401 -135zM823 582q-5 71 -40.5 112t-104.5 41
q-129 0 -191 -153h336zM475 1401l236 117l125 -398l-179 -90z" />
    <glyph glyph-name="eacute" unicode="&#xe9;" horiz-adv-x="1110" 
d="M631 -31q-135 0 -244.5 50.5t-176.5 154t-67 244.5q0 147 70 274t195.5 204t277.5 77q121 0 223.5 -49t166 -144.5t63.5 -218.5q0 -77 -29 -184h-639q17 -78 76 -117t145 -39q113 0 221 78l119 -195q-176 -135 -401 -135zM823 582q-5 71 -40.5 112t-104.5 41
q-129 0 -191 -153h336zM602 1133l258 385l209 -134l-297 -356z" />
    <glyph glyph-name="ecircumflex" unicode="&#xea;" horiz-adv-x="1110" 
d="M631 -31q-135 0 -244.5 50.5t-176.5 154t-67 244.5q0 147 70 274t195.5 204t277.5 77q121 0 223.5 -49t166 -144.5t63.5 -218.5q0 -77 -29 -184h-639q17 -78 76 -117t145 -39q113 0 221 78l119 -195q-176 -135 -401 -135zM823 582q-5 71 -40.5 112t-104.5 41
q-129 0 -191 -153h336zM406 1262l368 180l307 -180l-131 -209l-215 121l-270 -127z" />
    <glyph glyph-name="edieresis" unicode="&#xeb;" horiz-adv-x="1110" 
d="M631 -31q-135 0 -244.5 50.5t-176.5 154t-67 244.5q0 147 70 274t195.5 204t277.5 77q121 0 223.5 -49t166 -144.5t63.5 -218.5q0 -77 -29 -184h-639q17 -78 76 -117t145 -39q113 0 221 78l119 -195q-176 -135 -401 -135zM823 582q-5 71 -40.5 112t-104.5 41
q-129 0 -191 -153h336zM510 1073q-70 0 -118 47.5t-48 118.5q0 79 58 137t137 58q71 0 119.5 -48t48.5 -118q0 -79 -59 -137t-138 -58zM948 1073q-70 0 -118 47.5t-48 118.5q0 79 58 137t137 58q71 0 119.5 -48t48.5 -118q0 -79 -59 -137t-138 -58z" />
    <glyph glyph-name="igrave" unicode="&#xec;" horiz-adv-x="524" 
d="M268 942h320l-166 -942h-320zM209 1401l235 117l125 -398l-178 -90z" />
    <glyph glyph-name="iacute" unicode="&#xed;" horiz-adv-x="524" 
d="M268 942h320l-166 -942h-320zM336 1133l258 385l209 -134l-297 -356z" />
    <glyph glyph-name="icircumflex" unicode="&#xee;" horiz-adv-x="524" 
d="M268 942h320l-166 -942h-320zM139 1262l369 180l307 -180l-131 -209l-215 121l-270 -127z" />
    <glyph glyph-name="idieresis" unicode="&#xef;" horiz-adv-x="524" 
d="M268 942h320l-168 -942h-320zM305 1106q-60 0 -97.5 37.5t-37.5 97.5q0 67 46.5 116.5t113.5 49.5q60 0 97.5 -38.5t37.5 -98.5q0 -67 -46.5 -115.5t-113.5 -48.5zM637 1106q-60 0 -97.5 37.5t-37.5 97.5q0 67 46.5 116.5t113.5 49.5q60 0 97.5 -38.5t37.5 -98.5
q0 -67 -46.5 -115.5t-113.5 -48.5z" />
    <glyph glyph-name="eth" unicode="&#xf0;" horiz-adv-x="1148" 
d="M618 -29q-96 0 -182.5 29.5t-152.5 83t-105 136t-39 181.5q0 132 63.5 245.5t175 180t243.5 66.5q163 0 258 -88q-29 117 -111 223l-256 -113l-55 197l153 68q-46 34 -94 59l166 225q122 -68 217 -157l252 108l55 -196l-168 -74q150 -225 150 -496q0 -104 -22.5 -202.5
t-70 -185t-114 -151t-160 -102t-203.5 -37.5zM645 272q82 0 139.5 47t57.5 123q0 73 -56 112.5t-131 39.5q-80 0 -135 -46t-55 -122q0 -74 54 -114t126 -40z" />
    <glyph glyph-name="ntilde" unicode="&#xf1;" horiz-adv-x="1116" 
d="M268 942h307l-16 -90q115 121 270 121q133 0 216 -94t83 -244q0 -39 -6 -80l-98 -555h-319l88 502q4 28 4 51q0 62 -31.5 100.5t-89.5 38.5q-60 0 -104.5 -47.5t-57.5 -126.5l-92 -518h-320zM881 1094q-61 0 -138 43q-37 22 -73 22q-51 0 -90 -57l-129 127
q34 87 98.5 132.5t140.5 45.5q60 0 119 -33q61 -33 92 -33q27 0 46 13t44 45l129 -129q-34 -87 -98.5 -131.5t-140.5 -44.5z" />
    <glyph glyph-name="ograve" unicode="&#xf2;" horiz-adv-x="1153" 
d="M618 -31q-200 0 -336.5 130t-136.5 331q0 109 44.5 209.5t119 173.5t176.5 116.5t213 43.5q97 0 184 -34t151.5 -94t102.5 -146t38 -185q0 -147 -76 -273t-204.5 -199t-275.5 -73zM641 272q93 0 151 66t58 156q0 81 -48 128.5t-124 47.5q-93 0 -151 -65.5t-58 -155.5
q0 -81 47 -129t125 -48zM475 1401l236 117l125 -398l-179 -90z" />
    <glyph glyph-name="oacute" unicode="&#xf3;" horiz-adv-x="1153" 
d="M618 -31q-200 0 -336.5 130t-136.5 331q0 109 44.5 209.5t119 173.5t176.5 116.5t213 43.5q97 0 184 -34t151.5 -94t102.5 -146t38 -185q0 -147 -76 -273t-204.5 -199t-275.5 -73zM641 272q93 0 151 66t58 156q0 81 -48 128.5t-124 47.5q-93 0 -151 -65.5t-58 -155.5
q0 -81 47 -129t125 -48zM602 1133l258 385l209 -134l-297 -356z" />
    <glyph glyph-name="ocircumflex" unicode="&#xf4;" horiz-adv-x="1153" 
d="M618 -31q-200 0 -336.5 130t-136.5 331q0 109 44.5 209.5t119 173.5t176.5 116.5t213 43.5q97 0 184 -34t151.5 -94t102.5 -146t38 -185q0 -147 -76 -273t-204.5 -199t-275.5 -73zM641 272q93 0 151 66t58 156q0 81 -48 128.5t-124 47.5q-93 0 -151 -65.5t-58 -155.5
q0 -81 47 -129t125 -48zM406 1262l368 180l307 -180l-131 -209l-215 121l-270 -127z" />
    <glyph glyph-name="otilde" unicode="&#xf5;" horiz-adv-x="1153" 
d="M618 -31q-200 0 -336.5 130t-136.5 331q0 109 44.5 209.5t119 173.5t176.5 116.5t213 43.5q97 0 184 -34t151.5 -94t102.5 -146t38 -185q0 -147 -76 -273t-204.5 -199t-275.5 -73zM641 272q93 0 151 66t58 156q0 81 -48 128.5t-124 47.5q-93 0 -151 -65.5t-58 -155.5
q0 -81 47 -129t125 -48zM840 1094q-61 0 -138 43q-37 22 -73 22q-51 0 -90 -57l-129 127q34 87 98.5 132.5t140.5 45.5q60 0 119 -33q61 -33 92 -33q27 0 46 13t44 45l129 -129q-34 -87 -98.5 -131.5t-140.5 -44.5z" />
    <glyph glyph-name="odieresis" unicode="&#xf6;" horiz-adv-x="1153" 
d="M618 -31q-200 0 -336.5 130t-136.5 331q0 109 44.5 209.5t119 173.5t176.5 116.5t213 43.5q97 0 184 -34t151.5 -94t102.5 -146t38 -185q0 -147 -76 -273t-204.5 -199t-275.5 -73zM641 272q93 0 151 66t58 156q0 81 -48 128.5t-124 47.5q-93 0 -151 -65.5t-58 -155.5
q0 -81 47 -129t125 -48zM510 1073q-70 0 -118 47.5t-48 118.5q0 79 58 137t137 58q71 0 119.5 -48t48.5 -118q0 -79 -59 -137t-138 -58zM948 1073q-70 0 -118 47.5t-48 118.5q0 79 58 137t137 58q71 0 119.5 -48t48.5 -118q0 -79 -59 -137t-138 -58z" />
    <glyph glyph-name="divide" unicode="&#xf7;" horiz-adv-x="942" 
d="M588 96q-72 0 -121 49t-49 121t49 121t121 49t121 -49t49 -121t-49 -121t-121 -49zM178 793h819v-254h-819v254zM588 895q-72 0 -121 49t-49 121t49 121t121 49t121 -49t49 -121t-49 -121t-121 -49z" />
    <glyph glyph-name="oslash" unicode="&#xf8;" horiz-adv-x="1153" 
d="M154 16l100 113q-109 128 -109 301q0 109 44.5 209.5t119 173.5t176.5 116.5t213 43.5q131 0 242 -60l96 111l127 -98l-98 -113q109 -128 109 -299q0 -147 -76 -273t-204.5 -199t-275.5 -73q-130 0 -241 60l-96 -109zM721 666q-28 4 -43 4q-93 0 -151 -65.5t-58 -155.5
q0 -41 8 -62zM641 272q93 0 151 66t58 156q0 30 -10 63l-246 -278q24 -7 47 -7z" />
    <glyph glyph-name="ugrave" unicode="&#xf9;" horiz-adv-x="1118" 
d="M451 -31q-131 0 -214 93.5t-83 244.5q0 39 6 80l100 555h320l-91 -502q-4 -28 -4 -51q0 -62 31.5 -100.5t89.5 -38.5q63 0 106.5 47t57.5 127l92 518h320l-168 -942h-307l20 104q-119 -135 -276 -135zM489 1401l236 117l125 -398l-178 -90z" />
    <glyph glyph-name="uacute" unicode="&#xfa;" horiz-adv-x="1118" 
d="M451 -31q-131 0 -214 93.5t-83 244.5q0 39 6 80l100 555h320l-91 -502q-4 -28 -4 -51q0 -62 31.5 -100.5t89.5 -38.5q63 0 106.5 47t57.5 127l92 518h320l-168 -942h-307l20 104q-119 -135 -276 -135zM616 1133l258 385l209 -134l-297 -356z" />
    <glyph glyph-name="ucircumflex" unicode="&#xfb;" horiz-adv-x="1118" 
d="M451 -31q-131 0 -214 93.5t-83 244.5q0 39 6 80l100 555h320l-91 -502q-4 -28 -4 -51q0 -62 31.5 -100.5t89.5 -38.5q63 0 106.5 47t57.5 127l92 518h320l-168 -942h-307l20 104q-119 -135 -276 -135zM420 1262l368 180l308 -180l-131 -209l-215 121l-271 -127z" />
    <glyph glyph-name="udieresis" unicode="&#xfc;" horiz-adv-x="1118" 
d="M451 -31q-131 0 -214 93.5t-83 244.5q0 39 6 80l100 555h320l-91 -502q-4 -28 -4 -51q0 -62 31.5 -100.5t89.5 -38.5q63 0 106.5 47t57.5 127l92 518h320l-168 -942h-307l20 104q-119 -135 -276 -135zM524 1073q-70 0 -118 47.5t-48 118.5q0 79 58 137t137 58
q71 0 119.5 -48t48.5 -118q0 -79 -59 -137t-138 -58zM963 1073q-70 0 -118 47.5t-48 118.5q0 80 57.5 137.5t136.5 57.5q71 0 119.5 -48t48.5 -118q0 -79 -59 -137t-137 -58z" />
    <glyph glyph-name="yacute" unicode="&#xfd;" horiz-adv-x="1013" 
d="M326 -6l-170 948h329l95 -559l262 559h338l-795 -1454h-334zM569 1133l258 385l209 -134l-297 -356z" />
    <glyph glyph-name="thorn" unicode="&#xfe;" horiz-adv-x="1196" 
d="M360 1454h318l-107 -586q127 105 269 105q166 0 273.5 -130t107.5 -313q0 -102 -37 -202.5t-101.5 -180t-160.5 -129t-205 -49.5q-177 0 -279 125l-108 -606h-318zM680 274q92 0 154.5 67t62.5 159q0 81 -51.5 129.5t-132.5 48.5q-93 0 -156 -64.5t-63 -156.5
q0 -83 53 -133t133 -50z" />
    <glyph glyph-name="ydieresis" unicode="&#xff;" horiz-adv-x="1013" 
d="M326 -6l-170 948h329l95 -559l262 559h338l-795 -1454h-334zM477 1073q-70 0 -118 47.5t-48 118.5q0 79 57.5 137t137.5 58q72 0 120 -48t48 -118q0 -79 -59 -137t-138 -58zM915 1073q-70 0 -117.5 47.5t-47.5 118.5q0 80 57.5 137.5t136.5 57.5q72 0 120 -48t48 -118
q0 -79 -59 -137t-138 -58z" />
    <glyph glyph-name="Amacron" unicode="&#x100;" horiz-adv-x="1331" 
d="M795 1393h266l280 -1393h-362l-33 203h-454l-105 -203h-377zM899 489l-61 383l-199 -383h260zM741 1786h512l-41 -225h-512z" />
    <glyph glyph-name="amacron" unicode="&#x101;" horiz-adv-x="1075" 
d="M416 -31q-140 0 -227 79t-87 208q0 146 112 241t280 95q161 0 264 -70q2 16 2 29q0 73 -47 116.5t-121 43.5q-104 0 -186 -82l-146 233q168 111 373 111q203 0 324.5 -106.5t121.5 -288.5q0 -50 -8 -86l-86 -492h-319l14 82q-107 -113 -264 -113zM551 190
q65 0 111.5 35.5t60.5 93.5q-80 64 -170 64q-54 0 -92.5 -25.5t-38.5 -72.5q0 -49 39.5 -72t89.5 -23zM518 1356h512l-41 -226h-512z" />
    <glyph glyph-name="Abreve" unicode="&#x102;" horiz-adv-x="1331" 
d="M795 1393h266l280 -1393h-362l-33 203h-454l-105 -203h-377zM899 489l-61 383l-199 -383h260zM952 1483q-131 0 -218 79t-87 207q0 26 4 54h228q-2 -14 -2 -23q0 -41 25.5 -66.5t66.5 -25.5q45 0 76 30.5t38 84.5h230q-19 -157 -118 -248.5t-243 -91.5z" />
    <glyph glyph-name="abreve" unicode="&#x103;" horiz-adv-x="1075" 
d="M416 -31q-140 0 -227 79t-87 208q0 146 112 241t280 95q161 0 264 -70q2 16 2 29q0 73 -47 116.5t-121 43.5q-104 0 -186 -82l-146 233q168 111 373 111q203 0 324.5 -106.5t121.5 -288.5q0 -50 -8 -86l-86 -492h-319l14 82q-107 -113 -264 -113zM551 190
q65 0 111.5 35.5t60.5 93.5q-80 64 -170 64q-54 0 -92.5 -25.5t-38.5 -72.5q0 -49 39.5 -72t89.5 -23zM729 1053q-131 0 -218 79t-87 207q0 26 4 54h227q-2 -14 -2 -23q0 -41 25.5 -66.5t66.5 -25.5q45 0 76.5 31t38.5 84h230q-19 -157 -118 -248.5t-243 -91.5z" />
    <glyph glyph-name="Aogonek" unicode="&#x104;" horiz-adv-x="1333" 
d="M1159 -561q-59 0 -114 12.5t-104.5 39t-79.5 75t-30 112.5q0 102 70.5 183.5t177.5 138.5h-100l-33 203h-454l-105 -203h-377l785 1393h266l280 -1393q-81 -45 -146 -110t-65 -126q0 -38 27.5 -58.5t77.5 -20.5q23 0 53 6l-43 -246q-44 -6 -86 -6zM899 489l-61 383
l-199 -383h260z" />
    <glyph glyph-name="aogonek" unicode="&#x105;" horiz-adv-x="1075" 
d="M551 190q65 0 111.5 35.5t60.5 93.5q-80 64 -170 64q-54 0 -92.5 -25.5t-38.5 -72.5q0 -49 39.5 -72t89.5 -23zM803 -561q-59 0 -114 12.5t-104.5 39t-79.5 75t-30 112.5q0 102 70.5 183.5t177.5 138.5h-57l14 82q-107 -113 -264 -113q-140 0 -227 79t-87 208
q0 146 112 241t280 95q161 0 264 -70q2 16 2 29q0 73 -47 116.5t-121 43.5q-104 0 -186 -82l-146 233q168 111 373 111q203 0 324.5 -106.5t121.5 -288.5q0 -50 -8 -86l-86 -492q-81 -45 -146 -110t-65 -126q0 -38 27.5 -58.5t77.5 -20.5q23 0 53 6l-43 -246q-43 -6 -86 -6z
" />
    <glyph glyph-name="Cacute" unicode="&#x106;" horiz-adv-x="1366" 
d="M846 -31q-138 0 -259.5 47t-211 131t-141.5 207.5t-52 268.5q0 155 60 298t163 249t248.5 169.5t307.5 63.5q176 0 324 -74.5t243 -220.5l-283 -211q-49 77 -126 116.5t-171 39.5q-169 0 -283 -119t-114 -285q0 -151 97.5 -241.5t244.5 -90.5q155 0 270 105l203 -250
q-219 -203 -520 -203zM874 1563l259 385l208 -133l-297 -357z" />
    <glyph glyph-name="cacute" unicode="&#x107;" horiz-adv-x="1050" 
d="M637 -31q-100 0 -190 34t-156.5 93.5t-106 147.5t-39.5 190q0 147 77.5 271.5t208 196t282.5 71.5q134 0 246 -57.5t182 -170.5l-258 -196q-67 125 -193 125q-99 0 -159 -63.5t-60 -157.5q0 -89 52 -137t134 -48q54 0 101.5 24t103.5 75l180 -240q-82 -75 -187.5 -116.5
t-217.5 -41.5zM602 1133l258 385l209 -134l-297 -356z" />
    <glyph glyph-name="Ccircumflex" unicode="&#x108;" horiz-adv-x="1366" 
d="M846 -31q-138 0 -259.5 47t-211 131t-141.5 207.5t-52 268.5q0 155 60 298t163 249t248.5 169.5t307.5 63.5q176 0 324 -74.5t243 -220.5l-283 -211q-49 77 -126 116.5t-171 39.5q-169 0 -283 -119t-114 -285q0 -151 97.5 -241.5t244.5 -90.5q155 0 270 105l203 -250
q-219 -203 -520 -203zM678 1692l369 180l307 -180l-131 -209l-215 121l-271 -127z" />
    <glyph glyph-name="ccircumflex" unicode="&#x109;" horiz-adv-x="1050" 
d="M637 -31q-100 0 -190 34t-156.5 93.5t-106 147.5t-39.5 190q0 147 77.5 271.5t208 196t282.5 71.5q134 0 246 -57.5t182 -170.5l-258 -196q-67 125 -193 125q-99 0 -159 -63.5t-60 -157.5q0 -89 52 -137t134 -48q54 0 101.5 24t103.5 75l180 -240q-82 -75 -187.5 -116.5
t-217.5 -41.5zM406 1262l368 180l307 -180l-131 -209l-215 121l-270 -127z" />
    <glyph glyph-name="Cdotaccent" unicode="&#x10a;" horiz-adv-x="1366" 
d="M846 -31q-138 0 -259.5 47t-211 131t-141.5 207.5t-52 268.5q0 155 60 298t163 249t248.5 169.5t307.5 63.5q176 0 324 -74.5t243 -220.5l-283 -211q-49 77 -126 116.5t-171 39.5q-169 0 -283 -119t-114 -285q0 -151 97.5 -241.5t244.5 -90.5q155 0 270 105l203 -250
q-219 -203 -520 -203zM1004 1503q-70 0 -118 47.5t-48 118.5q0 80 57.5 137.5t136.5 57.5q72 0 120 -48t48 -118q0 -79 -59 -137t-137 -58z" />
    <glyph glyph-name="cdotaccent" unicode="&#x10b;" horiz-adv-x="1050" 
d="M637 -31q-100 0 -190 34t-156.5 93.5t-106 147.5t-39.5 190q0 147 77.5 271.5t208 196t282.5 71.5q134 0 246 -57.5t182 -170.5l-258 -196q-67 125 -193 125q-99 0 -159 -63.5t-60 -157.5q0 -89 52 -137t134 -48q54 0 101.5 24t103.5 75l180 -240q-82 -75 -187.5 -116.5
t-217.5 -41.5zM731 1073q-70 0 -118 47.5t-48 118.5q0 79 57.5 137t137.5 58q72 0 120 -48t48 -118q0 -79 -59 -137t-138 -58z" />
    <glyph glyph-name="Ccaron" unicode="&#x10c;" horiz-adv-x="1366" 
d="M846 -31q-138 0 -259.5 47t-211 131t-141.5 207.5t-52 268.5q0 155 60 298t163 249t248.5 169.5t307.5 63.5q176 0 324 -74.5t243 -220.5l-283 -211q-49 77 -126 116.5t-171 39.5q-169 0 -283 -119t-114 -285q0 -151 97.5 -241.5t244.5 -90.5q155 0 270 105l203 -250
q-219 -203 -520 -203zM682 1640l131 209l215 -120l270 126l60 -215l-369 -180z" />
    <glyph glyph-name="ccaron" unicode="&#x10d;" horiz-adv-x="1050" 
d="M637 -31q-100 0 -190 34t-156.5 93.5t-106 147.5t-39.5 190q0 147 77.5 271.5t208 196t282.5 71.5q134 0 246 -57.5t182 -170.5l-258 -196q-67 125 -193 125q-99 0 -159 -63.5t-60 -157.5q0 -89 52 -137t134 -48q54 0 101.5 24t103.5 75l180 -240q-82 -75 -187.5 -116.5
t-217.5 -41.5zM410 1210l131 209l215 -121l270 127l59 -215l-368 -180z" />
    <glyph glyph-name="Dcaron" unicode="&#x10e;" horiz-adv-x="1486" 
d="M385 1372h496q298 0 481.5 -171.5t183.5 -448.5q0 -153 -61 -292.5t-164 -240t-244.5 -160t-296.5 -59.5h-637zM807 328q106 0 192 57.5t131.5 148.5t45.5 193q0 138 -86 227.5t-224 89.5h-190l-127 -716h258zM684 1640l131 209l215 -120l270 126l60 -215l-369 -180z" />
    <glyph glyph-name="dcaron" unicode="&#x10f;" horiz-adv-x="1484" 
d="M539 -31q-176 0 -286 128t-110 317q0 148 69.5 277t188 205.5t256.5 76.5q181 0 271 -117l106 598h320l-258 -1454h-308l13 70q-115 -101 -262 -101zM653 264q93 0 156 64.5t63 156.5q0 84 -53 133.5t-133 49.5q-92 0 -154.5 -67t-62.5 -159q0 -83 52 -130.5t132 -47.5z
M1368 1053l145 440l244 -55l-194 -426z" />
    <glyph glyph-name="Dcroat" unicode="&#x110;" horiz-adv-x="1527" 
d="M287 573h-205l43 246h205l98 553h496q298 0 481.5 -171.5t183.5 -448.5q0 -153 -61 -292.5t-164 -240t-244.5 -160t-296.5 -59.5h-637zM850 328q106 0 192 57.5t131.5 148.5t45.5 193q0 138 -86 227.5t-224 89.5h-190l-39 -225h244l-43 -246h-246l-43 -245h258z" />
    <glyph glyph-name="dslash" unicode="&#x111;" horiz-adv-x="1228" 
d="M539 -31q-176 0 -286 128t-110 317q0 148 69.5 277t188 205.5t256.5 76.5q181 0 271 -117l39 219h-328l43 246h328l24 133h320l-25 -133h144l-43 -246h-144l-190 -1075h-308l13 70q-115 -101 -262 -101zM653 264q93 0 156 64.5t63 156.5q0 84 -53 133.5t-133 49.5
q-92 0 -154.5 -67t-62.5 -159q0 -83 52 -130.5t132 -47.5z" />
    <glyph glyph-name="Emacron" unicode="&#x112;" 
d="M385 1372h809l-57 -323h-461l-35 -199h332l-53 -307h-332l-39 -219h471l-57 -324h-820zM588 1786h512l-41 -225h-512z" />
    <glyph glyph-name="emacron" unicode="&#x113;" horiz-adv-x="1110" 
d="M631 -31q-135 0 -244.5 50.5t-176.5 154t-67 244.5q0 147 70 274t195.5 204t277.5 77q121 0 223.5 -49t166 -144.5t63.5 -218.5q0 -77 -29 -184h-639q17 -78 76 -117t145 -39q113 0 221 78l119 -195q-176 -135 -401 -135zM823 582q-5 71 -40.5 112t-104.5 41
q-129 0 -191 -153h336zM514 1356h512l-41 -226h-512z" />
    <glyph glyph-name="Ebreve" unicode="&#x114;" 
d="M385 1372h809l-57 -323h-461l-35 -199h332l-53 -307h-332l-39 -219h471l-57 -324h-820zM799 1483q-131 0 -218 79t-87 207q0 26 4 54h227q-2 -14 -2 -23q0 -41 25.5 -66.5t66.5 -25.5q45 0 76.5 31t38.5 84h229q-19 -157 -117.5 -248.5t-242.5 -91.5z" />
    <glyph glyph-name="ebreve" unicode="&#x115;" horiz-adv-x="1110" 
d="M631 -31q-135 0 -244.5 50.5t-176.5 154t-67 244.5q0 147 70 274t195.5 204t277.5 77q121 0 223.5 -49t166 -144.5t63.5 -218.5q0 -77 -29 -184h-639q17 -78 76 -117t145 -39q113 0 221 78l119 -195q-176 -135 -401 -135zM823 582q-5 71 -40.5 112t-104.5 41
q-129 0 -191 -153h336zM725 1053q-131 0 -218 79t-87 207q0 26 4 54h227q-2 -14 -2 -23q0 -41 25.5 -66.5t66.5 -25.5q45 0 76.5 31t38.5 84h229q-19 -157 -117.5 -248.5t-242.5 -91.5z" />
    <glyph glyph-name="Edotaccent" unicode="&#x116;" 
d="M385 1372h809l-57 -323h-461l-35 -199h332l-53 -307h-332l-39 -219h471l-57 -324h-820zM805 1503q-70 0 -118 47.5t-48 118.5q0 79 57.5 137t137.5 58q71 0 119 -48t48 -118q0 -79 -59 -137t-137 -58z" />
    <glyph glyph-name="edotaccent" unicode="&#x117;" horiz-adv-x="1110" 
d="M631 -31q-135 0 -244.5 50.5t-176.5 154t-67 244.5q0 147 70 274t195.5 204t277.5 77q121 0 223.5 -49t166 -144.5t63.5 -218.5q0 -77 -29 -184h-639q17 -78 76 -117t145 -39q113 0 221 78l119 -195q-176 -135 -401 -135zM823 582q-5 71 -40.5 112t-104.5 41
q-129 0 -191 -153h336zM731 1073q-70 0 -118 47.5t-48 118.5q0 79 57.5 137t137.5 58q72 0 120 -48t48 -118q0 -79 -59 -137t-138 -58z" />
    <glyph glyph-name="Eogonek" unicode="&#x118;" horiz-adv-x="1067" 
d="M780 -561q-59 0 -114 12.5t-104 39t-79 75t-30 112.5q0 102 70 184t177 138h-557l242 1372h809l-57 -323h-461l-35 -199h332l-53 -307h-332l-39 -219h471l-57 -324q-81 -45 -146 -110t-65 -126q0 -38 27 -58.5t77 -20.5q23 0 53 6l-43 -246q-44 -6 -86 -6z" />
    <glyph glyph-name="eogonek" unicode="&#x119;" horiz-adv-x="1110" 
d="M731 -561q-47 0 -92 7.5t-89.5 26t-77 45.5t-53 69.5t-20.5 95.5q0 79 44 153t124 135q-186 18 -305 136t-119 311q0 147 70 274t195.5 204t277.5 77q121 0 223.5 -49t166 -144.5t63.5 -218.5q0 -77 -29 -184h-639q17 -78 76 -117t145 -39q113 0 221 78l119 -195
q-31 -23 -88 -55q-119 -72 -182.5 -143.5t-63.5 -134.5q0 -41 27.5 -63.5t75.5 -22.5q25 0 55 6l-43 -246q-40 -6 -82 -6zM823 582q-5 71 -40.5 112t-104.5 41q-129 0 -191 -153h336z" />
    <glyph glyph-name="Ecaron" unicode="&#x11a;" 
d="M385 1372h809l-57 -323h-461l-35 -199h332l-53 -307h-332l-39 -219h471l-57 -324h-820zM483 1640l131 209l215 -120l271 126l59 -215l-368 -180z" />
    <glyph glyph-name="ecaron" unicode="&#x11b;" horiz-adv-x="1110" 
d="M631 -31q-135 0 -244.5 50.5t-176.5 154t-67 244.5q0 147 70 274t195.5 204t277.5 77q121 0 223.5 -49t166 -144.5t63.5 -218.5q0 -77 -29 -184h-639q17 -78 76 -117t145 -39q113 0 221 78l119 -195q-176 -135 -401 -135zM823 582q-5 71 -40.5 112t-104.5 41
q-129 0 -191 -153h336zM410 1210l131 209l215 -121l270 127l59 -215l-368 -180z" />
    <glyph glyph-name="Gcircumflex" unicode="&#x11c;" horiz-adv-x="1472" 
d="M848 -31q-192 0 -343.5 77.5t-238 223.5t-86.5 338q0 159 61.5 306t165 254t249 171t305.5 64q178 0 327.5 -75.5t241.5 -219.5l-287 -211q-120 158 -301 158q-114 0 -205.5 -59.5t-139.5 -155.5t-48 -207q0 -158 97.5 -248t252.5 -90q107 0 195 49l32 195h-215l47 266
h564l-113 -635q-115 -98 -260 -149.5t-301 -51.5zM670 1692l368 180l308 -180l-132 -209l-215 121l-270 -127z" />
    <glyph glyph-name="gcircumflex" unicode="&#x11d;" horiz-adv-x="1103" 
d="M545 -281q70 0 126 28.5t56 88.5q0 41 -31.5 67.5t-68.5 35t-76 8.5q-44 0 -83.5 -10t-70 -38t-30.5 -69t31.5 -67.5t68.5 -35t78 -8.5zM543 -512q-64 0 -128.5 10.5t-130 36t-116 62t-82 94.5t-31.5 129q0 81 41 150t113 110q-76 58 -76 141q0 69 45 121t115 78
q-68 80 -68 194q0 156 124.5 257.5t320.5 101.5q103 0 188 -31h365l-35 -205h-115q21 -53 21 -110q0 -149 -126 -250t-317 -101q-93 0 -178 27q-63 -6 -63 -53q0 -64 112 -72l115 -6q187 -11 296 -97.5t109 -226.5q0 -86 -44.5 -156.5t-117 -114t-159.5 -66.5t-178 -23z
M653 506q59 0 96 36.5t37 92.5q0 51 -34 78.5t-84 27.5q-61 0 -98.5 -36t-37.5 -91q0 -52 35 -80t86 -28zM414 1262l368 180l308 -180l-132 -209l-215 121l-270 -127z" />
    <glyph glyph-name="Gbreve" unicode="&#x11e;" horiz-adv-x="1472" 
d="M848 -31q-192 0 -343.5 77.5t-238 223.5t-86.5 338q0 159 61.5 306t165 254t249 171t305.5 64q178 0 327.5 -75.5t241.5 -219.5l-287 -211q-120 158 -301 158q-114 0 -205.5 -59.5t-139.5 -155.5t-48 -207q0 -158 97.5 -248t252.5 -90q107 0 195 49l32 195h-215l47 266
h564l-113 -635q-115 -98 -260 -149.5t-301 -51.5zM989 1483q-131 0 -218 79t-87 207q0 26 4 54h227q-2 -14 -2 -23q0 -41 26 -66.5t67 -25.5q45 0 76 30.5t38 84.5h230q-19 -157 -118 -248.5t-243 -91.5z" />
    <glyph glyph-name="gbreve" unicode="&#x11f;" horiz-adv-x="1103" 
d="M545 -281q70 0 126 28.5t56 88.5q0 41 -31.5 67.5t-68.5 35t-76 8.5q-44 0 -83.5 -10t-70 -38t-30.5 -69t31.5 -67.5t68.5 -35t78 -8.5zM543 -512q-64 0 -128.5 10.5t-130 36t-116 62t-82 94.5t-31.5 129q0 81 41 150t113 110q-76 58 -76 141q0 69 45 121t115 78
q-68 80 -68 194q0 156 124.5 257.5t320.5 101.5q103 0 188 -31h365l-35 -205h-115q21 -53 21 -110q0 -149 -126 -250t-317 -101q-93 0 -178 27q-63 -6 -63 -53q0 -64 112 -72l115 -6q187 -11 296 -97.5t109 -226.5q0 -86 -44.5 -156.5t-117 -114t-159.5 -66.5t-178 -23z
M653 506q59 0 96 36.5t37 92.5q0 51 -34 78.5t-84 27.5q-61 0 -98.5 -36t-37.5 -91q0 -52 35 -80t86 -28zM733 1053q-131 0 -218 79t-87 207q0 26 4 54h227q-2 -14 -2 -23q0 -41 26 -66.5t67 -25.5q45 0 76 30.5t38 84.5h230q-19 -157 -118 -248.5t-243 -91.5z" />
    <glyph glyph-name="Gdotaccent" unicode="&#x120;" horiz-adv-x="1472" 
d="M848 -31q-192 0 -343.5 77.5t-238 223.5t-86.5 338q0 159 61.5 306t165 254t249 171t305.5 64q178 0 327.5 -75.5t241.5 -219.5l-287 -211q-120 158 -301 158q-114 0 -205.5 -59.5t-139.5 -155.5t-48 -207q0 -158 97.5 -248t252.5 -90q107 0 195 49l32 195h-215l47 266
h564l-113 -635q-115 -98 -260 -149.5t-301 -51.5zM995 1503q-70 0 -118 47.5t-48 118.5q0 79 57.5 137t137.5 58q72 0 120 -48t48 -118q0 -79 -59 -137t-138 -58z" />
    <glyph glyph-name="gdotaccent" unicode="&#x121;" horiz-adv-x="1103" 
d="M545 -281q70 0 126 28.5t56 88.5q0 41 -31.5 67.5t-68.5 35t-76 8.5q-44 0 -83.5 -10t-70 -38t-30.5 -69t31.5 -67.5t68.5 -35t78 -8.5zM543 -512q-64 0 -128.5 10.5t-130 36t-116 62t-82 94.5t-31.5 129q0 81 41 150t113 110q-76 58 -76 141q0 69 45 121t115 78
q-68 80 -68 194q0 156 124.5 257.5t320.5 101.5q103 0 188 -31h365l-35 -205h-115q21 -53 21 -110q0 -149 -126 -250t-317 -101q-93 0 -178 27q-63 -6 -63 -53q0 -64 112 -72l115 -6q187 -11 296 -97.5t109 -226.5q0 -86 -44.5 -156.5t-117 -114t-159.5 -66.5t-178 -23z
M653 506q59 0 96 36.5t37 92.5q0 51 -34 78.5t-84 27.5q-61 0 -98.5 -36t-37.5 -91q0 -52 35 -80t86 -28zM739 1073q-70 0 -118 47.5t-48 118.5q0 79 57.5 137t137.5 58q72 0 120 -48t48 -118q0 -79 -59 -137t-138 -58z" />
    <glyph glyph-name="Gcommaaccent" unicode="&#x122;" horiz-adv-x="1472" 
d="M848 -31q-192 0 -343.5 77.5t-238 223.5t-86.5 338q0 159 61.5 306t165 254t249 171t305.5 64q178 0 327.5 -75.5t241.5 -219.5l-287 -211q-120 158 -301 158q-114 0 -205.5 -59.5t-139.5 -155.5t-48 -207q0 -158 97.5 -248t252.5 -90q107 0 195 49l32 195h-215l47 266
h564l-113 -635q-115 -98 -260 -149.5t-301 -51.5zM520 -557l187 481l243 -71l-233 -469z" />
    <glyph glyph-name="gcommaaccent" unicode="&#x123;" horiz-adv-x="1103" 
d="M545 -281q70 0 126 28.5t56 88.5q0 41 -31.5 67.5t-68.5 35t-76 8.5q-44 0 -83.5 -10t-70 -38t-30.5 -69t31.5 -67.5t68.5 -35t78 -8.5zM543 -512q-64 0 -128.5 10.5t-130 36t-116 62t-82 94.5t-31.5 129q0 81 41 150t113 110q-76 58 -76 141q0 69 45 121t115 78
q-68 80 -68 194q0 156 124.5 257.5t320.5 101.5q103 0 188 -31h365l-35 -205h-115q21 -53 21 -110q0 -149 -126 -250t-317 -101q-93 0 -178 27q-63 -6 -63 -53q0 -64 112 -72l115 -6q187 -11 296 -97.5t109 -226.5q0 -86 -44.5 -156.5t-117 -114t-159.5 -66.5t-178 -23z
M653 506q59 0 96 36.5t37 92.5q0 51 -34 78.5t-84 27.5q-61 0 -98.5 -36t-37.5 -91q0 -52 35 -80t86 -28zM637 1120l233 469l195 -59l-188 -481z" />
    <glyph glyph-name="Hcircumflex" unicode="&#x124;" horiz-adv-x="1454" 
d="M385 1372h348l-90 -512h471l90 512h348l-241 -1372h-348l94 532h-471l-94 -532h-349zM668 1692l368 180l307 -180l-131 -209l-215 121l-270 -127z" />
    <glyph glyph-name="hcircumflex" unicode="&#x125;" horiz-adv-x="1116" 
d="M360 1454h322l-107 -584q112 103 254 103q133 0 216 -94t83 -244q0 -39 -6 -80l-98 -555h-319l88 502q4 28 4 51q0 62 -31.5 100.5t-89.5 38.5q-60 0 -104.5 -47.5t-57.5 -126.5l-92 -518h-320zM594 1733l369 180l307 -180l-131 -209l-215 121l-271 -127z" />
    <glyph glyph-name="Hbar" unicode="&#x126;" horiz-adv-x="1474" 
d="M330 995h-144l43 246h144l22 131h348l-22 -131h471l22 131h349l-23 -131h143l-43 -246h-143l-176 -995h-348l94 532h-471l-94 -532h-350zM1124 860l25 135h-471l-25 -135h471z" />
    <glyph glyph-name="hbar" unicode="&#x127;" horiz-adv-x="1146" 
d="M324 1075h-144l43 246h144l24 133h322l-25 -133h326l-43 -246h-328l-37 -205q112 103 254 103q133 0 216 -94t83 -244q0 -39 -6 -80l-98 -555h-320l88 502q4 28 4 51q0 62 -31 100.5t-89 38.5q-60 0 -104.5 -47.5t-57.5 -126.5l-92 -518h-320z" />
    <glyph glyph-name="Imacron" unicode="&#x12a;" horiz-adv-x="634" 
d="M385 1372h348l-241 -1372h-349zM377 1786h512l-41 -225h-512z" />
    <glyph glyph-name="imacron" unicode="&#x12b;" horiz-adv-x="524" 
d="M268 942h320l-166 -942h-320zM248 1356h512l-41 -226h-512z" />
    <glyph glyph-name="Ibreve" unicode="&#x12c;" horiz-adv-x="634" 
d="M385 1372h348l-241 -1372h-349zM588 1483q-131 0 -218 79t-87 207q0 26 4 54h227q-2 -14 -2 -23q0 -41 25.5 -66.5t66.5 -25.5q45 0 76.5 31t38.5 84h229q-19 -157 -117.5 -248.5t-242.5 -91.5z" />
    <glyph glyph-name="ibreve" unicode="&#x12d;" horiz-adv-x="524" 
d="M268 942h320l-166 -942h-320zM459 1053q-131 0 -218 79t-87 207q0 26 4 54h227q-2 -14 -2 -23q0 -41 25.5 -66.5t66.5 -25.5q45 0 76.5 31t38.5 84h229q-19 -157 -117.5 -248.5t-242.5 -91.5z" />
    <glyph glyph-name="Iogonek" unicode="&#x12e;" horiz-adv-x="638" 
d="M311 -561q-59 0 -114 12.5t-104 39t-79 75t-30 112.5q0 102 70 184t177 138h-86l242 1372h348l-241 -1372q-81 -45 -146 -110t-65 -126q0 -38 27 -58.5t77 -20.5q23 0 53 6l-43 -246q-44 -6 -86 -6z" />
    <glyph glyph-name="iogonek" unicode="&#x12f;" horiz-adv-x="524" 
d="M240 -561q-59 0 -114 12.5t-104.5 39t-79.5 75t-30 112.5q0 102 70.5 183.5t177.5 138.5h-58l166 942h320l-166 -942q-81 -45 -146 -110t-65 -126q0 -38 27 -58.5t77 -20.5q24 0 54 6l-43 -246q-44 -6 -86 -6zM467 1073q-70 0 -118 47.5t-48 118.5q0 79 57.5 137
t137.5 58q72 0 120 -48t48 -118q0 -79 -59 -137t-138 -58z" />
    <glyph glyph-name="Idot" unicode="&#x130;" horiz-adv-x="634" 
d="M385 1372h348l-241 -1372h-349zM594 1503q-70 0 -118 47.5t-48 118.5q0 79 58 137t137 58q71 0 119.5 -48t48.5 -118q0 -79 -59 -137t-138 -58z" />
    <glyph glyph-name="dotlessi" unicode="&#x131;" horiz-adv-x="524" 
d="M268 942h320l-166 -942h-320z" />
    <glyph glyph-name="uni0132" unicode="&#x132;" horiz-adv-x="1673" 
d="M385 1372h348l-241 -1372h-349zM1081 -31q-144 0 -259.5 70t-153.5 201l284 186q21 -61 56 -94t94 -33q66 0 113 43t59 115l102 587h-338l58 328h686l-164 -934q-37 -211 -185.5 -340t-351.5 -129z" />
    <glyph glyph-name="uni0133" unicode="&#x133;" horiz-adv-x="1050" 
d="M270 942h320l-166 -942h-320zM539 -512q-133 0 -224 68l146 249q26 -26 61 -26q69 0 84 84l189 1079h319l-192 -1102q-28 -162 -132 -257t-251 -95zM469 1073q-70 0 -118 47.5t-48 118.5q0 79 57.5 137t137.5 58q72 0 120 -48t48 -118q0 -79 -59 -137t-138 -58zM993 1073
q-70 0 -118 47.5t-48 118.5q0 79 57.5 137t137.5 58q72 0 120 -48t48 -118q0 -79 -59 -137t-138 -58z" />
    <glyph glyph-name="Jcircumflex" unicode="&#x134;" horiz-adv-x="1038" 
d="M446 -31q-144 0 -259.5 70t-153.5 201l284 186q21 -61 56 -94t94 -33q66 0 113 43t59 115l102 587h-338l58 328h686l-164 -934q-37 -211 -185.5 -340t-351.5 -129zM512 1692l369 180l307 -180l-131 -209l-215 121l-271 -127z" />
    <glyph glyph-name="jcircumflex" unicode="&#x135;" horiz-adv-x="524" 
d="M14 -512q-132 0 -223 68l146 249q26 -26 61 -26q69 0 84 84l188 1079h320l-193 -1102q-28 -162 -132 -257t-251 -95zM147 1262l369 180l307 -180l-131 -209l-215 121l-270 -127z" />
    <glyph glyph-name="Kcommaaccent" unicode="&#x136;" horiz-adv-x="1284" 
d="M385 1372h348l-108 -612l495 612h404l-553 -672l313 -700h-399l-281 641l-112 -641h-349zM369 -557l186 481l244 -71l-234 -469z" />
    <glyph glyph-name="kcommaaccent" unicode="&#x137;" horiz-adv-x="1067" 
d="M358 1454h320l-166 -940l354 428h361l-402 -461l242 -481h-360l-205 449l-80 -449h-320zM244 -557l186 481l244 -71l-234 -469z" />
    <glyph glyph-name="Lacute" unicode="&#x139;" horiz-adv-x="983" 
d="M385 1372h348l-184 -1044h450l-57 -328h-799zM463 1563l258 385l209 -133l-297 -357z" />
    <glyph glyph-name="lacute" unicode="&#x13a;" horiz-adv-x="524" 
d="M358 1454h320l-256 -1454h-320zM422 1614l258 385l209 -133l-297 -357z" />
    <glyph glyph-name="Lcommaaccent" unicode="&#x13b;" horiz-adv-x="983" 
d="M385 1372h348l-184 -1044h450l-57 -328h-799zM221 -557l187 481l243 -71l-233 -469z" />
    <glyph glyph-name="lcommaaccent" unicode="&#x13c;" horiz-adv-x="524" 
d="M358 1454h320l-256 -1454h-320zM-55 -557l186 481l244 -71l-234 -469z" />
    <glyph glyph-name="Lcaron" unicode="&#x13d;" horiz-adv-x="983" 
d="M385 1372h348l-184 -1044h450l-57 -328h-799zM750 971l145 440l244 -55l-195 -426z" />
    <glyph glyph-name="lcaron" unicode="&#x13e;" horiz-adv-x="813" 
d="M358 1454h320l-256 -1454h-320zM696 1053l146 440l243 -55l-194 -426z" />
    <glyph glyph-name="Ldot" unicode="&#x13f;" horiz-adv-x="1048" 
d="M975 600q-73 0 -121.5 47.5t-48.5 120.5q0 80 59 140.5t140 60.5q73 0 121.5 -47.5t48.5 -120.5q0 -80 -59 -140.5t-140 -60.5zM385 1372h348l-184 -1044h450l-57 -328h-799z" />
    <glyph glyph-name="ldot" unicode="&#x140;" horiz-adv-x="894" 
d="M821 543q-73 0 -121.5 47.5t-48.5 120.5q0 80 59 140t140 60q73 0 121.5 -47.5t48.5 -120.5q0 -80 -59 -140t-140 -60zM358 1454h320l-256 -1454h-320z" />
    <glyph glyph-name="Lslash" unicode="&#x141;" horiz-adv-x="993" 
d="M233 444l-159 -84l47 263l155 82l119 667h348l-84 -471l295 154l-47 -262l-291 -152l-57 -313h451l-58 -328h-798z" />
    <glyph glyph-name="lslash" unicode="&#x142;" horiz-adv-x="610" 
d="M244 553l-162 -84l47 256l160 82l114 647h320l-84 -467l160 84l-47 -256l-156 -82l-131 -733h-320z" />
    <glyph glyph-name="Nacute" unicode="&#x143;" horiz-adv-x="1525" 
d="M606 766l-135 -766h-328l246 1393h205l567 -787l135 766h328l-246 -1392h-204zM874 1563l259 385l208 -133l-297 -357z" />
    <glyph glyph-name="nacute" unicode="&#x144;" horiz-adv-x="1116" 
d="M268 942h307l-16 -90q115 121 270 121q133 0 216 -94t83 -244q0 -39 -6 -80l-98 -555h-319l88 502q4 28 4 51q0 62 -31.5 100.5t-89.5 38.5q-60 0 -104.5 -47.5t-57.5 -126.5l-92 -518h-320zM643 1133l258 385l209 -134l-297 -356z" />
    <glyph glyph-name="Ncommaaccent" unicode="&#x145;" horiz-adv-x="1525" 
d="M606 766l-135 -766h-328l246 1393h205l567 -787l135 766h328l-246 -1392h-204zM479 -557l187 481l243 -71l-233 -469z" />
    <glyph glyph-name="ncommaaccent" unicode="&#x146;" horiz-adv-x="1116" 
d="M268 942h307l-16 -90q115 121 270 121q133 0 216 -94t83 -244q0 -39 -6 -80l-98 -555h-319l88 502q4 28 4 51q0 62 -31.5 100.5t-89.5 38.5q-60 0 -104.5 -47.5t-57.5 -126.5l-92 -518h-320zM246 -557l186 481l244 -71l-234 -469z" />
    <glyph glyph-name="Ncaron" unicode="&#x147;" horiz-adv-x="1525" 
d="M606 766l-135 -766h-328l246 1393h205l567 -787l135 766h328l-246 -1392h-204zM682 1640l131 209l215 -120l270 126l60 -215l-369 -180z" />
    <glyph glyph-name="ncaron" unicode="&#x148;" horiz-adv-x="1116" 
d="M268 942h307l-16 -90q115 121 270 121q133 0 216 -94t83 -244q0 -39 -6 -80l-98 -555h-319l88 502q4 28 4 51q0 62 -31.5 100.5t-89.5 38.5q-60 0 -104.5 -47.5t-57.5 -126.5l-92 -518h-320zM451 1210l131 209l215 -121l270 127l59 -215l-368 -180z" />
    <glyph glyph-name="napostrophe" unicode="&#x149;" horiz-adv-x="1261" 
d="M414 942h307l-16 -90q115 121 270 121q133 0 216 -94t83 -244q0 -39 -6 -80l-99 -555h-319l88 502q4 28 4 51q0 62 -31.5 100.5t-89.5 38.5q-60 0 -104.5 -47.5t-57.5 -126.5l-92 -518h-319zM182 1034l146 441l243 -56l-194 -426z" />
    <glyph glyph-name="Eng" unicode="&#x14a;" horiz-adv-x="1525" 
d="M838 -512q-144 0 -260 69.5t-154 200.5l285 187q21 -61 55.5 -94t93.5 -33q66 0 112 42.5t60 114.5l4 23l-438 709l-125 -707h-328l246 1393h205l547 -889l155 868h328l-250 -1415q-37 -211 -185 -340t-351 -129z" />
    <glyph glyph-name="eng" unicode="&#x14b;" horiz-adv-x="1116" 
d="M612 -512q-132 0 -223 68l146 249q26 -26 61 -26q69 0 84 84l113 639q4 28 4 51q0 62 -31.5 100.5t-89.5 38.5q-60 0 -104.5 -47.5t-57.5 -126.5l-92 -518h-320l166 942h307l-16 -90q115 121 270 121q133 0 216 -94t83 -244q0 -39 -6 -80l-127 -715q-28 -162 -132 -257
t-251 -95z" />
    <glyph glyph-name="Omacron" unicode="&#x14c;" horiz-adv-x="1564" 
d="M846 -31q-186 0 -337 80.5t-239 230.5t-88 341q0 209 103 388.5t283 286.5t393 107q186 0 336.5 -79.5t238.5 -228.5t88 -341q0 -156 -60 -299.5t-162.5 -250.5t-248 -171t-307.5 -64zM868 317q110 0 199.5 58.5t137.5 152.5t48 201q0 144 -88.5 235t-228.5 91
q-110 0 -199 -59t-136.5 -153.5t-47.5 -201.5q0 -143 88 -233.5t227 -90.5zM786 1786h512l-41 -225h-512z" />
    <glyph glyph-name="omacron" unicode="&#x14d;" horiz-adv-x="1153" 
d="M618 -31q-200 0 -336.5 130t-136.5 331q0 109 44.5 209.5t119 173.5t176.5 116.5t213 43.5q97 0 184 -34t151.5 -94t102.5 -146t38 -185q0 -147 -76 -273t-204.5 -199t-275.5 -73zM641 272q93 0 151 66t58 156q0 81 -48 128.5t-124 47.5q-93 0 -151 -65.5t-58 -155.5
q0 -81 47 -129t125 -48zM514 1356h512l-41 -226h-512z" />
    <glyph glyph-name="Obreve" unicode="&#x14e;" horiz-adv-x="1564" 
d="M846 -31q-186 0 -337 80.5t-239 230.5t-88 341q0 209 103 388.5t283 286.5t393 107q186 0 336.5 -79.5t238.5 -228.5t88 -341q0 -156 -60 -299.5t-162.5 -250.5t-248 -171t-307.5 -64zM868 317q110 0 199.5 58.5t137.5 152.5t48 201q0 144 -88.5 235t-228.5 91
q-110 0 -199 -59t-136.5 -153.5t-47.5 -201.5q0 -143 88 -233.5t227 -90.5zM997 1483q-131 0 -218 79t-87 207q0 26 4 54h228q-2 -14 -2 -23q0 -41 25.5 -66.5t66.5 -25.5q45 0 76 30.5t38 84.5h230q-19 -157 -118 -248.5t-243 -91.5z" />
    <glyph glyph-name="obreve" unicode="&#x14f;" horiz-adv-x="1153" 
d="M618 -31q-200 0 -336.5 130t-136.5 331q0 109 44.5 209.5t119 173.5t176.5 116.5t213 43.5q97 0 184 -34t151.5 -94t102.5 -146t38 -185q0 -147 -76 -273t-204.5 -199t-275.5 -73zM641 272q93 0 151 66t58 156q0 81 -48 128.5t-124 47.5q-93 0 -151 -65.5t-58 -155.5
q0 -81 47 -129t125 -48zM745 1053q-131 0 -218 79t-87 207q0 26 4 54h228q-2 -14 -2 -23q0 -41 25.5 -66.5t66.5 -25.5q45 0 76.5 31t38.5 84h229q-19 -157 -118 -248.5t-243 -91.5z" />
    <glyph glyph-name="Ohungarumlaut" unicode="&#x150;" horiz-adv-x="1564" 
d="M846 -31q-186 0 -337 80.5t-239 230.5t-88 341q0 209 103 388.5t283 286.5t393 107q186 0 336.5 -79.5t238.5 -228.5t88 -341q0 -156 -60 -299.5t-162.5 -250.5t-248 -171t-307.5 -64zM868 317q110 0 199.5 58.5t137.5 152.5t48 201q0 144 -88.5 235t-228.5 91
q-110 0 -199 -59t-136.5 -153.5t-47.5 -201.5q0 -143 88 -233.5t227 -90.5zM707 1530l233 401l221 -110l-280 -381zM1063 1528l233 401l222 -108l-281 -381z" />
    <glyph glyph-name="ohungarumlaut" unicode="&#x151;" horiz-adv-x="1153" 
d="M618 -31q-200 0 -336.5 130t-136.5 331q0 109 44.5 209.5t119 173.5t176.5 116.5t213 43.5q97 0 184 -34t151.5 -94t102.5 -146t38 -185q0 -147 -76 -273t-204.5 -199t-275.5 -73zM641 272q93 0 151 66t58 156q0 81 -48 128.5t-124 47.5q-93 0 -151 -65.5t-58 -155.5
q0 -81 47 -129t125 -48zM434 1100l234 401l221 -110l-281 -381zM791 1098l233 401l221 -108l-280 -381z" />
    <glyph glyph-name="OE" unicode="&#x152;" horiz-adv-x="1697" 
d="M834 0q-142 0 -263.5 46t-206.5 127.5t-133.5 197t-48.5 250.5q0 153 61 292.5t164 239.5t244.5 159.5t296.5 59.5h879l-58 -323h-460l-35 -199h332l-54 -307h-331l-39 -219h471l-58 -324h-761zM961 1044h-39q-106 0 -192 -57t-131.5 -147.5t-45.5 -192.5
q0 -137 81.5 -225.5t199.5 -93.5z" />
    <glyph glyph-name="oe" unicode="&#x153;" horiz-adv-x="1814" 
d="M618 -31q-200 0 -336.5 130t-136.5 331q0 109 44.5 209.5t119 173.5t176.5 116.5t213 43.5q199 0 340 -131q157 131 353 131q121 0 223 -49t165.5 -144.5t63.5 -218.5q0 -81 -28 -184h-639q17 -78 76 -117t145 -39q113 0 221 78l119 -195q-176 -135 -402 -135t-360 131
q-157 -131 -357 -131zM641 272q93 0 151 66t58 156q0 81 -48 128.5t-124 47.5q-93 0 -151 -65.5t-58 -155.5q0 -81 47 -129t125 -48zM1528 582q-5 71 -41 112t-105 41q-128 0 -190 -153h336z" />
    <glyph glyph-name="Racute" unicode="&#x154;" horiz-adv-x="1249" 
d="M385 1372h412q208 0 339.5 -118t131.5 -306q0 -133 -68.5 -245.5t-187.5 -180.5l196 -522h-389l-147 455h-101l-79 -455h-349zM739 752q77 0 128 50t51 124q0 69 -44.5 109t-119.5 40h-72l-57 -323h114zM731 1563l258 385l209 -133l-297 -357z" />
    <glyph glyph-name="racute" unicode="&#x155;" horiz-adv-x="724" 
d="M268 942h307l-16 -90q44 56 105.5 88.5t128.5 32.5q62 0 100 -17l-92 -331q-77 30 -125 30q-67 0 -110.5 -43t-55.5 -118l-88 -494h-320zM481 1133l258 385l209 -134l-297 -356z" />
    <glyph glyph-name="Rcommaaccent" unicode="&#x156;" horiz-adv-x="1249" 
d="M385 1372h412q208 0 339.5 -118t131.5 -306q0 -133 -68.5 -245.5t-187.5 -180.5l196 -522h-389l-147 455h-101l-79 -455h-349zM739 752q77 0 128 50t51 124q0 69 -44.5 109t-119.5 40h-72l-57 -323h114zM336 -557l186 481l244 -71l-234 -469z" />
    <glyph glyph-name="rcommaaccent" unicode="&#x157;" horiz-adv-x="724" 
d="M268 942h307l-16 -90q44 56 105.5 88.5t128.5 32.5q62 0 100 -17l-92 -331q-77 30 -125 30q-67 0 -110.5 -43t-55.5 -118l-88 -494h-320zM-57 -557l186 481l244 -71l-234 -469z" />
    <glyph glyph-name="Rcaron" unicode="&#x158;" horiz-adv-x="1249" 
d="M385 1372h412q208 0 339.5 -118t131.5 -306q0 -133 -68.5 -245.5t-187.5 -180.5l196 -522h-389l-147 455h-101l-79 -455h-349zM739 752q77 0 128 50t51 124q0 69 -44.5 109t-119.5 40h-72l-57 -323h114zM539 1640l131 209l215 -120l270 126l59 -215l-368 -180z" />
    <glyph glyph-name="rcaron" unicode="&#x159;" horiz-adv-x="724" 
d="M268 942h307l-16 -90q44 56 105.5 88.5t128.5 32.5q62 0 100 -17l-92 -331q-77 30 -125 30q-67 0 -110.5 -43t-55.5 -118l-88 -494h-320zM289 1210l131 209l215 -121l270 127l60 -215l-369 -180z" />
    <glyph glyph-name="Sacute" unicode="&#x15a;" horiz-adv-x="1097" 
d="M580 -31q-170 0 -303 87t-193 249l266 174q31 -93 95.5 -152t152.5 -59q60 0 100.5 28.5t40.5 80.5q0 43 -37 80t-135 100q-148 92 -216 188.5t-68 219.5q0 191 138.5 314.5t352.5 123.5q294 0 463 -264l-258 -185q-87 162 -221 162q-55 0 -87 -27.5t-32 -74.5
q0 -55 39.5 -92.5t128.5 -90.5q151 -88 222 -185t71 -224q0 -129 -70 -233.5t-188.5 -162t-261.5 -57.5zM694 1563l258 385l209 -133l-297 -357z" />
    <glyph glyph-name="sacute" unicode="&#x15b;" horiz-adv-x="968" 
d="M547 -31q-138 0 -271.5 50.5t-214.5 150.5l191 197q58 -66 142.5 -113t158.5 -47q84 0 84 53q0 29 -29.5 48t-89.5 38q-162 50 -235.5 125.5t-73.5 183.5q0 142 109 230t282 88q122 0 243.5 -46t203.5 -130l-183 -203q-139 147 -262 147q-70 0 -70 -47q0 -30 28 -49
t87 -41q168 -62 243 -135.5t75 -177.5q0 -142 -116.5 -232t-301.5 -90zM524 1133l258 385l209 -134l-297 -356z" />
    <glyph glyph-name="Scircumflex" unicode="&#x15c;" horiz-adv-x="1097" 
d="M580 -31q-170 0 -303 87t-193 249l266 174q31 -93 95.5 -152t152.5 -59q60 0 100.5 28.5t40.5 80.5q0 43 -37 80t-135 100q-148 92 -216 188.5t-68 219.5q0 191 138.5 314.5t352.5 123.5q294 0 463 -264l-258 -185q-87 162 -221 162q-55 0 -87 -27.5t-32 -74.5
q0 -55 39.5 -92.5t128.5 -90.5q151 -88 222 -185t71 -224q0 -129 -70 -233.5t-188.5 -162t-261.5 -57.5zM498 1692l368 180l308 -180l-132 -209l-215 121l-270 -127z" />
    <glyph glyph-name="scircumflex" unicode="&#x15d;" horiz-adv-x="968" 
d="M547 -31q-138 0 -271.5 50.5t-214.5 150.5l191 197q58 -66 142.5 -113t158.5 -47q84 0 84 53q0 29 -29.5 48t-89.5 38q-162 50 -235.5 125.5t-73.5 183.5q0 142 109 230t282 88q122 0 243.5 -46t203.5 -130l-183 -203q-139 147 -262 147q-70 0 -70 -47q0 -30 28 -49
t87 -41q168 -62 243 -135.5t75 -177.5q0 -142 -116.5 -232t-301.5 -90zM328 1262l368 180l308 -180l-132 -209l-215 121l-270 -127z" />
    <glyph glyph-name="Scedilla" unicode="&#x15e;" horiz-adv-x="1097" 
d="M481 -553q-150 0 -241 74l94 190q18 -18 61 -31.5t76 -13.5q30 0 49 14t19 37q0 50 -95 50h-86l91 217q-129 31 -224 111t-141 210l266 174q31 -93 95.5 -152t152.5 -59q60 0 100.5 28.5t40.5 80.5q0 43 -37 80t-135 100q-148 92 -216 188.5t-68 219.5q0 191 138.5 314.5
t352.5 123.5q294 0 463 -264l-258 -185q-87 162 -221 162q-55 0 -87 -27.5t-32 -74.5q0 -55 39.5 -92.5t128.5 -90.5q151 -88 222 -185t71 -224q0 -173 -122.5 -297.5t-307.5 -149.5l-27 -67q73 -33 112.5 -87.5t39.5 -125.5q0 -108 -89 -178t-225 -70z" />
    <glyph glyph-name="scedilla" unicode="&#x15f;" horiz-adv-x="968" 
d="M424 -553q-151 0 -242 74l94 190q18 -18 61.5 -31.5t76.5 -13.5q30 0 48.5 14t18.5 37q0 50 -94 50h-86l92 219q-219 46 -332 184l191 197q58 -66 142.5 -113t158.5 -47q84 0 84 53q0 29 -29.5 48t-89.5 38q-162 50 -235.5 125.5t-73.5 183.5q0 142 109 230t282 88
q122 0 243.5 -46t203.5 -130l-183 -203q-139 147 -262 147q-70 0 -70 -47q0 -30 28 -49t87 -41q168 -62 243 -135.5t75 -177.5q0 -129 -97.5 -215t-257.5 -103l-24 -65q151 -68 151 -213q0 -108 -88.5 -178t-224.5 -70z" />
    <glyph glyph-name="Scaron" unicode="&#x160;" horiz-adv-x="1097" 
d="M580 -31q-170 0 -303 87t-193 249l266 174q31 -93 95.5 -152t152.5 -59q60 0 100.5 28.5t40.5 80.5q0 43 -37 80t-135 100q-148 92 -216 188.5t-68 219.5q0 191 138.5 314.5t352.5 123.5q294 0 463 -264l-258 -185q-87 162 -221 162q-55 0 -87 -27.5t-32 -74.5
q0 -55 39.5 -92.5t128.5 -90.5q151 -88 222 -185t71 -224q0 -129 -70 -233.5t-188.5 -162t-261.5 -57.5zM502 1640l131 209l215 -120l270 126l60 -215l-369 -180z" />
    <glyph glyph-name="scaron" unicode="&#x161;" horiz-adv-x="968" 
d="M547 -31q-138 0 -271.5 50.5t-214.5 150.5l191 197q58 -66 142.5 -113t158.5 -47q84 0 84 53q0 29 -29.5 48t-89.5 38q-162 50 -235.5 125.5t-73.5 183.5q0 142 109 230t282 88q122 0 243.5 -46t203.5 -130l-183 -203q-139 147 -262 147q-70 0 -70 -47q0 -30 28 -49
t87 -41q168 -62 243 -135.5t75 -177.5q0 -142 -116.5 -232t-301.5 -90zM332 1210l131 209l215 -121l270 127l60 -215l-369 -180z" />
    <glyph glyph-name="uni0162" unicode="&#x162;" horiz-adv-x="1167" 
d="M485 -553q-150 0 -241 74l94 190q18 -18 61 -31.5t76 -13.5q30 0 49 14t19 37q0 50 -94 50h-87l97 233h-60l185 1044h-379l57 328h1106l-57 -328h-379l-184 -1044h-64l-37 -92q73 -33 112.5 -87.5t39.5 -125.5q0 -108 -89 -178t-225 -70z" />
    <glyph glyph-name="uni0163" unicode="&#x163;" horiz-adv-x="872" 
d="M426 -553q-151 0 -242 74l95 190q18 -18 61.5 -31.5t75.5 -13.5q30 0 48.5 14t18.5 37q0 50 -94 50h-86l96 233q-82 36 -126 102.5t-44 159.5q0 39 15 135l53 299h-143l43 246h143l47 270h320l-48 -270h267l-43 -246h-267l-55 -315q-4 -20 -4 -47q0 -45 27.5 -71.5
t74.5 -26.5q50 0 121 40l82 -219q-102 -77 -250 -86l-24 -63q151 -68 151 -213q0 -108 -88.5 -178t-224.5 -70z" />
    <glyph glyph-name="Tcaron" unicode="&#x164;" horiz-adv-x="1167" 
d="M584 1044h-379l57 328h1106l-57 -328h-379l-184 -1044h-349zM506 1640l131 209l215 -120l270 126l60 -215l-369 -180z" />
    <glyph glyph-name="tcaron" unicode="&#x165;" horiz-adv-x="872" 
d="M573 -31q-160 0 -252 78.5t-92 214.5q0 39 15 135l53 299h-143l43 246h143l47 270h320l-48 -270h267l-43 -246h-267l-55 -315q-4 -20 -4 -47q0 -45 27.5 -71.5t74.5 -26.5q50 0 121 40l82 -219q-119 -88 -289 -88zM766 1053l145 440l244 -55l-194 -426z" />
    <glyph glyph-name="Tbar" unicode="&#x166;" horiz-adv-x="1167" 
d="M479 451h-225l43 245h225l62 348h-379l57 328h1106l-57 -328h-379l-62 -348h226l-43 -245h-226l-79 -451h-349z" />
    <glyph glyph-name="tbar" unicode="&#x167;" horiz-adv-x="872" 
d="M573 -31q-160 0 -252 78.5t-92 214.5q0 20 4 66l7 41h-80l43 245h80l14 82h-143l43 246h143l47 270h320l-48 -270h267l-43 -246h-267l-14 -82h207l-43 -245h-203h-4q-2 -14 -2 -35q0 -45 27.5 -71.5t74.5 -26.5q50 0 121 40l82 -219q-119 -88 -289 -88z" />
    <glyph glyph-name="Umacron" unicode="&#x16a;" horiz-adv-x="1413" 
d="M758 -31q-228 0 -378.5 142t-150.5 370q0 49 11 121l135 770h348l-137 -774q-8 -41 -8 -88q0 -97 55 -155t147 -58q96 0 164.5 63.5t87.5 169.5l150 842h340l-154 -870q-41 -237 -211.5 -385t-398.5 -148zM770 1786h512l-41 -225h-512z" />
    <glyph glyph-name="umacron" unicode="&#x16b;" horiz-adv-x="1118" 
d="M451 -31q-131 0 -214 93.5t-83 244.5q0 39 6 80l100 555h320l-91 -502q-4 -28 -4 -51q0 -62 31.5 -100.5t89.5 -38.5q63 0 106.5 47t57.5 127l92 518h320l-168 -942h-307l20 104q-119 -135 -276 -135zM528 1356h512l-41 -226h-512z" />
    <glyph glyph-name="Ubreve" unicode="&#x16c;" horiz-adv-x="1413" 
d="M758 -31q-228 0 -378.5 142t-150.5 370q0 49 11 121l135 770h348l-137 -774q-8 -41 -8 -88q0 -97 55 -155t147 -58q96 0 164.5 63.5t87.5 169.5l150 842h340l-154 -870q-41 -237 -211.5 -385t-398.5 -148zM981 1483q-131 0 -218 79t-87 207q0 26 4 54h227q-2 -14 -2 -23
q0 -41 25.5 -66.5t66.5 -25.5q45 0 76.5 31t38.5 84h229q-19 -157 -117.5 -248.5t-242.5 -91.5z" />
    <glyph glyph-name="ubreve" unicode="&#x16d;" horiz-adv-x="1118" 
d="M451 -31q-131 0 -214 93.5t-83 244.5q0 39 6 80l100 555h320l-91 -502q-4 -28 -4 -51q0 -62 31.5 -100.5t89.5 -38.5q63 0 106.5 47t57.5 127l92 518h320l-168 -942h-307l20 104q-119 -135 -276 -135zM739 1053q-131 0 -218 79t-87 207q0 26 4 54h228q-2 -14 -2 -23
q0 -41 25.5 -66.5t66.5 -25.5q45 0 76 30.5t38 84.5h230q-19 -157 -118 -248.5t-243 -91.5z" />
    <glyph glyph-name="Uring" unicode="&#x16e;" horiz-adv-x="1413" 
d="M758 -31q-228 0 -378.5 142t-150.5 370q0 49 11 121l135 770h348l-137 -774q-8 -41 -8 -88q0 -97 55 -155t147 -58q96 0 164.5 63.5t87.5 169.5l150 842h340l-154 -870q-41 -237 -211.5 -385t-398.5 -148zM969 1434q-108 0 -185 63.5t-77 169.5q0 115 86 190.5t204 75.5
q108 0 185.5 -62.5t77.5 -168.5q0 -115 -87 -191.5t-204 -76.5zM983 1616q35 0 61.5 18.5t26.5 51.5q0 34 -26 49.5t-62 15.5t-62 -18t-26 -52q0 -33 26.5 -49t61.5 -16z" />
    <glyph glyph-name="uring" unicode="&#x16f;" horiz-adv-x="1118" 
d="M451 -31q-131 0 -214 93.5t-83 244.5q0 39 6 80l100 555h320l-91 -502q-4 -28 -4 -51q0 -62 31.5 -100.5t89.5 -38.5q63 0 106.5 47t57.5 127l92 518h320l-168 -942h-307l20 104q-119 -135 -276 -135zM727 1004q-108 0 -185 63.5t-77 169.5q0 115 86.5 190.5t204.5 75.5
q108 0 185 -62.5t77 -168.5q0 -115 -87 -191.5t-204 -76.5zM741 1186q35 0 61.5 18t26.5 51q0 34 -26 50t-62 16t-62 -18t-26 -52q0 -33 26.5 -49t61.5 -16z" />
    <glyph glyph-name="Uhungarumlaut" unicode="&#x170;" horiz-adv-x="1413" 
d="M758 -31q-228 0 -378.5 142t-150.5 370q0 49 11 121l135 770h348l-137 -774q-8 -41 -8 -88q0 -97 55 -155t147 -58q96 0 164.5 63.5t87.5 169.5l150 842h340l-154 -870q-41 -237 -211.5 -385t-398.5 -148zM670 1530l233 401l221 -110l-280 -381zM1026 1528l234 401
l221 -108l-281 -381z" />
    <glyph glyph-name="uhungarumlaut" unicode="&#x171;" horiz-adv-x="1118" 
d="M451 -31q-131 0 -214 93.5t-83 244.5q0 39 6 80l100 555h320l-91 -502q-4 -28 -4 -51q0 -62 31.5 -100.5t89.5 -38.5q63 0 106.5 47t57.5 127l92 518h320l-168 -942h-307l20 104q-119 -135 -276 -135zM428 1100l234 401l221 -110l-281 -381zM784 1098l234 401l221 -108
l-281 -381z" />
    <glyph glyph-name="Uogonek" unicode="&#x172;" horiz-adv-x="1413" 
d="M774 -561q-153 0 -242.5 65.5t-89.5 180.5q0 88 52.5 164t142.5 133q-183 38 -295.5 170.5t-112.5 328.5q0 49 11 121l135 770h348l-137 -774q-8 -41 -8 -88q0 -97 55 -155t147 -58q96 0 164.5 63.5t87.5 169.5l150 842h340l-154 -870q-30 -170 -130.5 -296.5
t-246.5 -191.5q-133 -59 -191.5 -117.5t-58.5 -125.5q0 -86 101 -86q32 0 57 6l-43 -246q-43 -6 -82 -6z" />
    <glyph glyph-name="uogonek" unicode="&#x173;" horiz-adv-x="1118" 
d="M831 -561q-59 0 -114 12.5t-104 39t-79 75t-30 112.5q0 102 70.5 183.5t177.5 138.5h-45l20 104q-119 -135 -276 -135q-131 0 -214 93.5t-83 244.5q0 39 6 80l100 555h320l-91 -502q-4 -28 -4 -51q0 -62 31.5 -100.5t89.5 -38.5q63 0 106.5 47t57.5 127l92 518h320
l-168 -942q-81 -45 -146 -110t-65 -126q0 -38 27 -58.5t77 -20.5q24 0 54 6l-43 -246q-44 -6 -87 -6z" />
    <glyph glyph-name="Wcircumflex" unicode="&#x174;" horiz-adv-x="2017" 
d="M242 1372h358l117 -737l420 737h204l170 -743l375 743h363l-723 -1392h-205l-180 829l-463 -829h-205zM926 1692l368 180l308 -180l-132 -209l-215 121l-270 -127z" />
    <glyph glyph-name="wcircumflex" unicode="&#x175;" horiz-adv-x="1505" 
d="M156 942h340l65 -444l240 465h205l92 -494l243 473h330l-528 -962h-205l-98 585l-291 -585h-205zM582 1262l368 180l307 -180l-131 -209l-215 121l-270 -127z" />
    <glyph glyph-name="Ycircumflex" unicode="&#x176;" horiz-adv-x="1146" 
d="M471 477l-260 895h369l131 -520l319 520h369l-578 -889l-86 -483h-348zM494 1692l368 180l307 -180l-131 -209l-215 121l-270 -127z" />
    <glyph glyph-name="ycircumflex" unicode="&#x177;" horiz-adv-x="1013" 
d="M326 -6l-170 948h329l95 -559l262 559h338l-795 -1454h-334zM373 1262l368 180l308 -180l-131 -209l-216 121l-270 -127z" />
    <glyph glyph-name="Ydieresis" unicode="&#x178;" horiz-adv-x="1146" 
d="M471 477l-260 895h369l131 -520l319 520h369l-578 -889l-86 -483h-348zM598 1503q-70 0 -118 47.5t-48 118.5q0 79 58 137t137 58q71 0 119.5 -48t48.5 -118q0 -79 -59 -137t-138 -58zM1036 1503q-70 0 -118 47.5t-48 118.5q0 79 58 137t137 58q71 0 119.5 -48t48.5 -118
q0 -79 -59 -137t-138 -58z" />
    <glyph glyph-name="Zacute" unicode="&#x179;" horiz-adv-x="1310" 
d="M109 205l765 839h-598l58 328h1136l-36 -205l-766 -839h628l-57 -328h-1167zM788 1563l259 385l208 -133l-297 -357z" />
    <glyph glyph-name="zacute" unicode="&#x17a;" horiz-adv-x="1013" 
d="M104 184l490 480h-385l49 278h834l-33 -184l-471 -479h393l-49 -279h-860zM563 1133l258 385l209 -134l-297 -356z" />
    <glyph glyph-name="Zdotaccent" unicode="&#x17b;" horiz-adv-x="1310" 
d="M109 205l765 839h-598l58 328h1136l-36 -205l-766 -839h628l-57 -328h-1167zM918 1503q-70 0 -118 47.5t-48 118.5q0 80 57.5 137.5t136.5 57.5q72 0 120 -48t48 -118q0 -79 -59 -137t-137 -58z" />
    <glyph glyph-name="zdotaccent" unicode="&#x17c;" horiz-adv-x="1013" 
d="M104 184l490 480h-385l49 278h834l-33 -184l-471 -479h393l-49 -279h-860zM692 1073q-70 0 -118 47.5t-48 118.5q0 79 58 137t137 58q71 0 119.5 -48t48.5 -118q0 -79 -59 -137t-138 -58z" />
    <glyph glyph-name="Zcaron" unicode="&#x17d;" horiz-adv-x="1310" 
d="M109 205l765 839h-598l58 328h1136l-36 -205l-766 -839h628l-57 -328h-1167zM596 1640l131 209l215 -120l270 126l60 -215l-369 -180z" />
    <glyph glyph-name="zcaron" unicode="&#x17e;" horiz-adv-x="1013" 
d="M104 184l490 480h-385l49 278h834l-33 -184l-471 -479h393l-49 -279h-860zM371 1210l131 209l215 -121l270 127l60 -215l-369 -180z" />
    <glyph glyph-name="uni018F" unicode="&#x18f;" horiz-adv-x="1523" 
d="M815 -31q-182 0 -329 78t-232.5 222.5t-85.5 330.5q0 96 29 209h1011q-24 118 -115.5 184t-218.5 66q-78 0 -154 -27.5t-136 -77.5l-203 252q109 98 246 148.5t286 50.5q189 0 341.5 -78.5t241.5 -226.5t89 -340q0 -155 -59 -299.5t-159.5 -253t-245 -173.5t-306.5 -65z
M842 317q108 0 196 61t136 165h-621q25 -104 104 -165t185 -61z" />
    <glyph glyph-name="florin" unicode="&#x192;" horiz-adv-x="948" 
d="M102 -512q-82 0 -159.5 30.5t-135.5 90.5l175 207q53 -56 100 -56q83 0 117 119l215 817h-160l45 246h180l37 141q48 178 154.5 274.5t259.5 96.5q82 0 159.5 -30.5t135.5 -90.5l-174 -207q-53 56 -101 56q-82 0 -116 -119l-33 -121h225l-45 -246h-244l-221 -837
q-48 -178 -154.5 -274.5t-259.5 -96.5z" />
    <glyph glyph-name="Aringacute" unicode="&#x1fa;" horiz-adv-x="1331" 
d="M731 1280q-76 63 -76 168q0 115 86.5 190.5t204.5 75.5q108 0 185 -62.5t77 -168.5q0 -70 -32.5 -126t-88.5 -93l254 -1264h-362l-33 203h-454l-105 -203h-377zM899 489l-61 383l-199 -383h260zM932 1397q35 0 61.5 18t26.5 51q0 34 -26 50t-62 16t-62 -18t-26 -52
q0 -33 26.5 -49t61.5 -16zM848 1915l399 235l131 -211l-422 -192z" />
    <glyph glyph-name="aringacute" unicode="&#x1fb;" horiz-adv-x="1075" 
d="M416 -31q-140 0 -227 79t-87 208q0 146 112 241t280 95q161 0 264 -70q2 16 2 29q0 73 -47 116.5t-121 43.5q-104 0 -186 -82l-146 233q168 111 373 111q203 0 324.5 -106.5t121.5 -288.5q0 -50 -8 -86l-86 -492h-319l14 82q-107 -113 -264 -113zM551 190
q65 0 111.5 35.5t60.5 93.5q-80 64 -170 64q-54 0 -92.5 -25.5t-38.5 -72.5q0 -49 39.5 -72t89.5 -23zM731 1004q-108 0 -185 63.5t-77 169.5q0 115 86.5 190.5t204.5 75.5q108 0 185 -62.5t77 -168.5q0 -115 -87 -191.5t-204 -76.5zM745 1186q36 0 62.5 18t26.5 51
q0 34 -26.5 50t-62.5 16t-62 -18t-26 -52q0 -33 26.5 -49t61.5 -16zM662 1704l399 235l131 -210l-422 -193z" />
    <glyph glyph-name="AEacute" unicode="&#x1fc;" horiz-adv-x="1703" 
d="M819 1372h1014l-57 -323h-570l2 -199h404l-53 -307h-342l2 -219h440l-57 -324h-691l-4 227h-454l-136 -227h-358zM901 514l-6 457l-272 -457h278zM958 1563l259 385l208 -133l-297 -357z" />
    <glyph glyph-name="aeacute" unicode="&#x1fd;" horiz-adv-x="1714" 
d="M473 -31q-175 0 -273 79t-98 210q0 143 112 238.5t282 95.5q159 0 262 -70q2 16 2 29q0 73 -47 116.5t-121 43.5q-104 0 -186 -82l-146 233q168 111 373 111q206 0 332 -113q138 113 327 113q121 0 223.5 -49t166 -144.5t63.5 -218.5q0 -77 -29 -184h-639q17 -78 76 -117
t145 -39q114 0 222 78l118 -195q-176 -135 -401 -135q-119 0 -218.5 39.5t-164.5 116.5q-62 -74 -160.5 -115t-220.5 -41zM551 190q65 0 111.5 35.5t60.5 93.5q-80 64 -170 64q-54 0 -92.5 -25.5t-38.5 -72.5q0 -49 39.5 -72t89.5 -23zM1430 582q-5 71 -41 112t-105 41
q-128 0 -190 -153h336zM872 1133l258 385l209 -134l-297 -356z" />
    <glyph glyph-name="Oslashacute" unicode="&#x1fe;" horiz-adv-x="1564" 
d="M166 31l153 176q-137 170 -137 414q0 209 103 388.5t283 286.5t393 107q188 0 337 -82l150 170l190 -150l-153 -174q139 -172 139 -413q0 -156 -60 -299.5t-162.5 -250.5t-248 -171t-307.5 -64q-187 0 -340 84l-150 -170zM1049 1036q-55 19 -113 19q-110 0 -199 -59
t-136.5 -153.5t-47.5 -201.5q0 -75 27 -139zM868 317q110 0 199.5 58.5t137.5 152.5t48 201q0 73 -28 143l-471 -536q55 -19 114 -19zM885 1563l258 385l209 -133l-297 -357z" />
    <glyph glyph-name="oslashacute" unicode="&#x1ff;" horiz-adv-x="1153" 
d="M154 16l100 113q-109 128 -109 301q0 109 44.5 209.5t119 173.5t176.5 116.5t213 43.5q131 0 242 -60l96 111l127 -98l-98 -113q109 -128 109 -299q0 -147 -76 -273t-204.5 -199t-275.5 -73q-130 0 -241 60l-96 -109zM721 666q-28 4 -43 4q-93 0 -151 -65.5t-58 -155.5
q0 -41 8 -62zM641 272q93 0 151 66t58 156q0 30 -10 63l-246 -278q24 -7 47 -7zM602 1133l258 385l209 -134l-297 -356z" />
    <glyph glyph-name="Scommaaccent" unicode="&#x218;" horiz-adv-x="1097" 
d="M580 -31q-170 0 -303 87t-193 249l266 174q31 -93 95.5 -152t152.5 -59q60 0 100.5 28.5t40.5 80.5q0 43 -37 80t-135 100q-148 92 -216 188.5t-68 219.5q0 191 138.5 314.5t352.5 123.5q294 0 463 -264l-258 -185q-87 162 -221 162q-55 0 -87 -27.5t-32 -74.5
q0 -55 39.5 -92.5t128.5 -90.5q151 -88 222 -185t71 -224q0 -129 -70 -233.5t-188.5 -162t-261.5 -57.5zM250 -557l186 481l244 -71l-234 -469z" />
    <glyph glyph-name="scommaaccent" unicode="&#x219;" horiz-adv-x="968" 
d="M547 -31q-138 0 -271.5 50.5t-214.5 150.5l191 197q58 -66 142.5 -113t158.5 -47q84 0 84 53q0 29 -29.5 48t-89.5 38q-162 50 -235.5 125.5t-73.5 183.5q0 142 109 230t282 88q122 0 243.5 -46t203.5 -130l-183 -203q-139 147 -262 147q-70 0 -70 -47q0 -30 28 -49
t87 -41q168 -62 243 -135.5t75 -177.5q0 -142 -116.5 -232t-301.5 -90zM190 -557l187 481l244 -71l-234 -469z" />
    <glyph glyph-name="uni021A" unicode="&#x21a;" horiz-adv-x="1167" 
d="M584 1044h-379l57 328h1106l-57 -328h-379l-184 -1044h-349zM252 -557l186 481l244 -71l-233 -469z" />
    <glyph glyph-name="uni021B" unicode="&#x21b;" horiz-adv-x="872" 
d="M573 -31q-160 0 -252 78.5t-92 214.5q0 39 15 135l53 299h-143l43 246h143l47 270h320l-48 -270h267l-43 -246h-267l-55 -315q-4 -20 -4 -47q0 -45 27.5 -71.5t74.5 -26.5q50 0 121 40l82 -219q-119 -88 -289 -88zM193 -557l186 481l244 -71l-234 -469z" />
    <glyph glyph-name="uni0232" unicode="&#x232;" horiz-adv-x="1146" 
d="M471 477l-260 895h369l131 -520l319 520h369l-578 -889l-86 -483h-348zM602 1786h512l-41 -225h-512z" />
    <glyph glyph-name="uni0233" unicode="&#x233;" horiz-adv-x="1013" 
d="M326 -6l-170 948h329l95 -559l262 559h338l-795 -1454h-334zM481 1356h512l-41 -226h-512z" />
    <glyph glyph-name="uni0244" unicode="&#x244;" horiz-adv-x="1435" 
d="M770 -31q-228 0 -378 142t-150 370q0 56 10 121l20 115h-145l45 246h143l72 409h348l-71 -409h456l74 409h340l-72 -409h144l-43 -246h-144l-39 -215q-41 -237 -211.5 -385t-398.5 -148zM793 297q96 0 164 63.5t87 169.5l33 187h-459l-20 -119q-8 -41 -8 -88
q0 -97 55.5 -155t147.5 -58z" />
    <glyph glyph-name="uni0259" unicode="&#x259;" horiz-adv-x="1114" 
d="M596 -31q-123 0 -227 50t-168 146t-64 218q0 75 29 182h647q-35 158 -221 158q-120 0 -227 -80l-121 195q175 137 401 137q217 0 353.5 -128.5t136.5 -332.5q0 -148 -71.5 -273.5t-195.5 -198.5t-272 -73zM602 207q137 0 193 153h-342q10 -153 149 -153z" />
    <glyph glyph-name="uni0289" unicode="&#x289;" horiz-adv-x="1159" 
d="M471 -31q-131 0 -214 93.5t-83 244.5q0 39 6 80l19 105h-103l45 245h103l37 205h319l-37 -205h283l37 205h319l-37 -205h103l-43 -245h-103l-88 -492h-307l21 104q-119 -135 -277 -135zM627 250q63 0 106.5 47t57.5 127l12 68h-285l-8 -52q-4 -28 -4 -51
q0 -62 31.5 -100.5t89.5 -38.5z" />
    <glyph glyph-name="uni02BC" unicode="&#x2bc;" horiz-adv-x="362" 
d="M193 971l145 440l244 -55l-195 -426z" />
    <glyph glyph-name="circumflex" unicode="&#x2c6;" horiz-adv-x="716" 
d="M244 1262l368 180l308 -180l-132 -209l-215 121l-270 -127z" />
    <glyph glyph-name="caron" unicode="&#x2c7;" horiz-adv-x="716" 
d="M233 1210l132 209l215 -121l270 127l59 -215l-368 -180z" />
    <glyph glyph-name="breve" unicode="&#x2d8;" horiz-adv-x="702" 
d="M567 1053q-131 0 -218 79t-87 207q0 26 4 54h228q-2 -14 -2 -23q0 -41 25.5 -66.5t66.5 -25.5q45 0 76 30.5t38 84.5h230q-19 -157 -118 -248.5t-243 -91.5z" />
    <glyph glyph-name="dotaccent" unicode="&#x2d9;" horiz-adv-x="403" 
d="M408 1073q-70 0 -118 47.5t-48 118.5q0 80 57.5 137.5t136.5 57.5q72 0 120 -48t48 -118q0 -79 -59 -137t-137 -58z" />
    <glyph glyph-name="ring" unicode="&#x2da;" horiz-adv-x="595" 
d="M504 1004q-108 0 -185 63.5t-77 169.5q0 115 86 190.5t204 75.5q108 0 185.5 -62.5t77.5 -168.5q0 -115 -87 -191.5t-204 -76.5zM518 1186q35 0 61.5 18t26.5 51q0 34 -26 50t-62 16t-62 -18t-26 -52q0 -33 26.5 -49t61.5 -16z" />
    <glyph glyph-name="ogonek" unicode="&#x2db;" horiz-adv-x="499" 
d="M295 -561q-59 0 -114 12.5t-104.5 39t-79.5 75t-30 112.5q0 102 70.5 183.5t177.5 138.5h262q-81 -45 -146 -110t-65 -126q0 -38 27.5 -58.5t77.5 -20.5q23 0 53 6l-43 -246q-43 -6 -86 -6z" />
    <glyph glyph-name="tilde" unicode="&#x2dc;" horiz-adv-x="702" 
d="M668 1094q-61 0 -138 43q-37 22 -73 22q-51 0 -90 -57l-129 127q34 87 98.5 132.5t140.5 45.5q60 0 119 -33q60 -33 92 -33q27 0 46 13t44 45l129 -129q-34 -87 -98.5 -131.5t-140.5 -44.5z" />
    <glyph glyph-name="hungarumlaut" unicode="&#x2dd;" horiz-adv-x="800" 
d="M215 1100l234 401l221 -110l-281 -381zM571 1098l234 401l221 -108l-281 -381z" />
    <glyph glyph-name="uni0301" unicode="&#x301;" horiz-adv-x="0" 
d="M-590 1563l258 385l209 -133l-297 -357z" />
    <glyph glyph-name="uni030A" unicode="&#x30a;" horiz-adv-x="0" 
d="M-461 1434q-108 0 -185 63.5t-77 169.5q0 115 86.5 190.5t204.5 75.5q108 0 185 -62.5t77 -168.5q0 -115 -87 -191.5t-204 -76.5zM-446 1616q35 0 61.5 18.5t26.5 51.5q0 34 -26 49.5t-62 15.5t-62.5 -18t-26.5 -52q0 -32 27 -48.5t62 -16.5z" />
    <glyph glyph-name="uni0326" unicode="&#x326;" horiz-adv-x="399" 
d="M-78 -557l187 481l243 -71l-233 -469z" />
    <glyph glyph-name="uni0401" unicode="&#x401;" 
d="M385 1372h809l-57 -323h-461l-35 -199h332l-53 -307h-332l-39 -219h471l-57 -324h-820zM584 1503q-70 0 -118 47.5t-48 118.5q0 80 57.5 137.5t136.5 57.5q72 0 120 -48t48 -118q0 -79 -59 -137t-137 -58zM1022 1503q-70 0 -118 47.5t-48 118.5q0 79 58 137t137 58
q71 0 119.5 -48t48.5 -118q0 -79 -59 -137t-138 -58z" />
    <glyph glyph-name="uni0402" unicode="&#x402;" horiz-adv-x="1499" 
d="M1028 -31q-140 0 -229 76l127 244q41 -29 78 -29q51 0 78.5 39.5t27.5 89.5q0 68 -52 108t-143 40q-27 0 -106 -7l-92 -530h-348l184 1044h-338l57 328h1065l-57 -328h-379l-35 -200q57 8 115 8q221 0 352 -114t131 -308t-124.5 -327.5t-311.5 -133.5z" />
    <glyph glyph-name="uni0403" unicode="&#x403;" horiz-adv-x="1003" 
d="M385 1372h799l-58 -328h-450l-184 -1044h-349zM688 1563l258 385l209 -133l-297 -357z" />
    <glyph glyph-name="uni0404" unicode="&#x404;" horiz-adv-x="1366" 
d="M846 -31q-138 0 -259.5 47t-211 130.5t-141.5 206.5t-52 268q0 124 38 241.5t108.5 214.5t165 170.5t214.5 114.5t250 41q176 0 324 -75.5t238 -219.5l-283 -209q-95 156 -291 156q-118 0 -215 -61t-141 -165h518l-47 -266h-500q26 -118 116 -182t216 -64q155 0 270 105
l203 -250q-219 -203 -520 -203z" />
    <glyph glyph-name="uni0405" unicode="&#x405;" horiz-adv-x="1097" 
d="M580 -31q-170 0 -303 87t-193 249l266 174q31 -93 95.5 -152t152.5 -59q60 0 100.5 28.5t40.5 80.5q0 43 -37 80t-135 100q-148 92 -216 188.5t-68 219.5q0 191 138.5 314.5t352.5 123.5q294 0 463 -264l-258 -185q-87 162 -221 162q-55 0 -87 -27.5t-32 -74.5
q0 -55 39.5 -92.5t128.5 -90.5q151 -88 222 -185t71 -224q0 -129 -70 -233.5t-188.5 -162t-261.5 -57.5z" />
    <glyph glyph-name="uni0406" unicode="&#x406;" horiz-adv-x="634" 
d="M385 1372h348l-241 -1372h-349z" />
    <glyph glyph-name="uni0407" unicode="&#x407;" horiz-adv-x="634" 
d="M385 1372h348l-241 -1372h-349zM383 1505q-71 0 -119.5 48.5t-48.5 117.5q0 79 59 137t138 58q70 0 118 -47.5t48 -118.5q0 -80 -58 -137.5t-137 -57.5zM819 1505q-71 0 -119.5 48.5t-48.5 117.5q0 79 59 137t138 58q70 0 118 -47.5t48 -118.5q0 -80 -58 -137.5
t-137 -57.5z" />
    <glyph glyph-name="uni0408" unicode="&#x408;" horiz-adv-x="1038" 
d="M446 -31q-144 0 -259.5 70t-153.5 201l284 186q21 -61 56 -94t94 -33q66 0 113 43t59 115l102 587h-338l58 328h686l-164 -934q-37 -211 -185.5 -340t-351.5 -129z" />
    <glyph glyph-name="uni0409" unicode="&#x409;" horiz-adv-x="1945" 
d="M203 -20q-86 0 -150 20l60 348q16 -16 69 -16q113 0 137 147l156 893h1045l-74 -418h29q223 0 362 -124.5t139 -321.5q0 -139 -73 -256t-199.5 -184.5t-276.5 -67.5h-497l184 1044h-348l-104 -595q-82 -469 -459 -469zM1446 317q78 0 130 49t52 123q0 67 -44.5 107.5
t-121.5 40.5h-71l-58 -320h113z" />
    <glyph glyph-name="uni040A" unicode="&#x40a;" horiz-adv-x="1978" 
d="M385 1372h348l-82 -461h471l82 461h348l-82 -461h27q225 0 366.5 -120.5t141.5 -311.5q0 -136 -76.5 -246.5t-203 -171.5t-275.5 -61h-487l102 584h-471l-102 -584h-349zM1481 319q70 0 121 38.5t51 101.5q0 62 -48 98.5t-130 36.5h-60l-49 -275h115z" />
    <glyph glyph-name="uni040B" unicode="&#x40b;" horiz-adv-x="1497" 
d="M553 1044h-338l57 328h1065l-57 -328h-379l-35 -200q55 10 138 10q206 0 329 -119t123 -321q0 -64 -12 -131l-51 -283h-349l56 313q6 37 6 66q0 160 -182 160q-36 0 -115 -11l-92 -528h-348z" />
    <glyph glyph-name="uni040C" unicode="&#x40c;" horiz-adv-x="1284" 
d="M385 1372h348l-108 -612l495 612h404l-553 -672l313 -700h-399l-281 641l-112 -641h-349zM831 1563l259 385l208 -133l-297 -357z" />
    <glyph glyph-name="uni040E" unicode="&#x40e;" horiz-adv-x="1187" 
d="M461 377l-240 995h363l133 -573l346 573h367l-830 -1372h-367zM834 1479q-133 0 -220.5 78.5t-87.5 209.5q0 24 4 56h240q-2 -10 -2 -29q0 -43 20 -68.5t60 -25.5q91 0 106 123h242q-17 -155 -116.5 -249.5t-245.5 -94.5z" />
    <glyph glyph-name="uni040F" unicode="&#x40f;" horiz-adv-x="1413" 
d="M539 0h-396l242 1372h348l-184 -1044h430l184 1044h348l-241 -1372h-396l-57 -328h-336z" />
    <glyph glyph-name="uni0410" unicode="&#x410;" horiz-adv-x="1331" 
d="M795 1393h266l280 -1393h-362l-33 203h-454l-105 -203h-377zM899 489l-61 383l-199 -383h260z" />
    <glyph glyph-name="uni0411" unicode="&#x411;" horiz-adv-x="1179" 
d="M385 1372h834l-54 -307h-485l-29 -164h45q220 0 354 -118.5t134 -307.5q0 -137 -73 -246.5t-193 -169t-261 -59.5h-514zM655 307q80 0 131.5 40.5t51.5 105.5q0 63 -49.5 102t-131.5 39h-61l-51 -287h110z" />
    <glyph glyph-name="uni0412" unicode="&#x412;" horiz-adv-x="1181" 
d="M385 1372h363q217 0 353 -103t136 -268q0 -99 -52 -180t-143 -137q134 -105 134 -276q0 -183 -146 -295.5t-381 -112.5h-506zM668 266q72 0 117.5 45t45.5 117q0 65 -41 103t-118 38h-80l-53 -303h129zM729 823q69 0 113.5 44.5t44.5 111.5q0 60 -41 93.5t-113 33.5h-47
l-49 -283h92z" />
    <glyph glyph-name="uni0413" unicode="&#x413;" horiz-adv-x="1003" 
d="M385 1372h799l-58 -328h-450l-184 -1044h-349z" />
    <glyph glyph-name="uni0414" unicode="&#x414;" horiz-adv-x="1546" 
d="M109 328q105 0 186.5 121t126.5 378l96 545h1034l-184 -1044h184l-114 -656h-336l57 328h-772l-57 -328h-336zM1020 328l127 716h-338l-39 -217q-61 -335 -192 -499h442z" />
    <glyph glyph-name="uni0415" unicode="&#x415;" 
d="M385 1372h809l-57 -323h-461l-35 -199h332l-53 -307h-332l-39 -219h471l-57 -324h-820z" />
    <glyph glyph-name="uni0416" unicode="&#x416;" horiz-adv-x="2017" 
d="M616 725l-335 647h391l311 -610l107 610h337l-106 -610l524 610h406l-584 -667l350 -705h-407l-312 637l-112 -637h-338l113 637l-537 -637h-424z" />
    <glyph glyph-name="uni0417" unicode="&#x417;" horiz-adv-x="1105" 
d="M575 -31q-80 0 -155.5 19t-143 56.5t-119 100t-75.5 142.5l287 149q23 -86 78 -132t133 -46q75 0 123.5 42.5t48.5 111.5q0 74 -59 115.5t-163 41.5h-98l43 254h141q79 0 138 46t59 122q0 63 -40.5 101t-106.5 38q-53 0 -98.5 -26.5t-100.5 -87.5l-174 207
q87 87 200 133.5t236 46.5q190 0 313 -103.5t123 -263.5q0 -108 -57 -200t-156 -150q146 -114 146 -283q0 -185 -150.5 -309.5t-372.5 -124.5z" />
    <glyph glyph-name="uni0418" unicode="&#x418;" horiz-adv-x="1525" 
d="M385 1372h348l-133 -760l823 781h205l-246 -1393h-348l133 760l-823 -780h-205z" />
    <glyph glyph-name="uni0419" unicode="&#x419;" horiz-adv-x="1525" 
d="M385 1372h348l-133 -760l823 781h205l-246 -1393h-348l133 760l-823 -780h-205zM1051 1479q-133 0 -220.5 78.5t-87.5 209.5q0 16 5 56h239q-2 -10 -2 -29q0 -43 20 -68.5t60 -25.5q91 0 106 123h242q-17 -155 -116.5 -249.5t-245.5 -94.5z" />
    <glyph glyph-name="uni041A" unicode="&#x41a;" horiz-adv-x="1284" 
d="M385 1372h348l-108 -612l495 612h404l-553 -672l313 -700h-399l-281 641l-112 -641h-349z" />
    <glyph glyph-name="uni041B" unicode="&#x41b;" horiz-adv-x="1421" 
d="M203 -20q-86 0 -150 20l60 348q16 -16 69 -16q113 0 137 147l156 893h1045l-242 -1372h-348l184 1044h-348l-104 -595q-82 -469 -459 -469z" />
    <glyph glyph-name="uni041C" unicode="&#x41c;" horiz-adv-x="1761" 
d="M389 1393h205l393 -715l672 715h205l-246 -1393h-348l121 686l-390 -410h-143l-242 437l-124 -713h-349z" />
    <glyph glyph-name="uni041D" unicode="&#x41d;" horiz-adv-x="1454" 
d="M385 1372h348l-90 -512h471l90 512h348l-241 -1372h-348l94 532h-471l-94 -532h-349z" />
    <glyph glyph-name="uni041E" unicode="&#x41e;" horiz-adv-x="1564" 
d="M846 -31q-186 0 -337 80.5t-239 230.5t-88 341q0 209 103 388.5t283 286.5t393 107q186 0 336.5 -79.5t238.5 -228.5t88 -341q0 -156 -60 -299.5t-162.5 -250.5t-248 -171t-307.5 -64zM868 317q110 0 199.5 58.5t137.5 152.5t48 201q0 144 -88.5 235t-228.5 91
q-110 0 -199 -59t-136.5 -153.5t-47.5 -201.5q0 -143 88 -233.5t227 -90.5z" />
    <glyph glyph-name="uni041F" unicode="&#x41f;" horiz-adv-x="1433" 
d="M385 1372h1147l-242 -1372h-348l184 1044h-450l-184 -1044h-349z" />
    <glyph glyph-name="uni0420" unicode="&#x420;" horiz-adv-x="1179" 
d="M385 1372h379q224 0 362 -124t138 -320q0 -141 -74 -258.5t-202.5 -184.5t-282.5 -67h-140l-73 -418h-349zM731 735q78 0 130 48.5t52 123.5q0 67 -47 107.5t-125 40.5h-63l-57 -320h110z" />
    <glyph glyph-name="uni0421" unicode="&#x421;" horiz-adv-x="1366" 
d="M846 -31q-138 0 -259.5 47t-211 131t-141.5 207.5t-52 268.5q0 155 60 298t163 249t248.5 169.5t307.5 63.5q176 0 324 -74.5t243 -220.5l-283 -211q-49 77 -126 116.5t-171 39.5q-169 0 -283 -119t-114 -285q0 -151 97.5 -241.5t244.5 -90.5q155 0 270 105l203 -250
q-219 -203 -520 -203z" />
    <glyph glyph-name="uni0422" unicode="&#x422;" horiz-adv-x="1167" 
d="M584 1044h-379l57 328h1106l-57 -328h-379l-184 -1044h-349z" />
    <glyph glyph-name="uni0423" unicode="&#x423;" horiz-adv-x="1187" 
d="M461 377l-240 995h363l133 -573l346 573h367l-830 -1372h-367z" />
    <glyph glyph-name="uni0424" unicode="&#x424;" horiz-adv-x="1824" 
d="M756 63q-260 25 -420 186.5t-160 399.5q0 186 101.5 340t267 239t356.5 85h74l33 182h338l-33 -186q259 -25 419 -186.5t160 -399.5q0 -186 -101.5 -340t-267 -239t-356.5 -85h-73l-33 -182h-338zM918 985h-31q-140 0 -239 -92t-99 -225q0 -113 73 -190t191 -87z
M1182 387q140 0 239 92.5t99 225.5q0 113 -73.5 189.5t-191.5 86.5l-104 -594h31z" />
    <glyph glyph-name="uni0425" unicode="&#x425;" horiz-adv-x="1253" 
d="M520 684l-231 688h385l125 -422l282 422h394l-486 -678l240 -694h-385l-135 428l-295 -428h-394z" />
    <glyph glyph-name="uni0426" unicode="&#x426;" horiz-adv-x="1505" 
d="M1118 0h-975l242 1372h348l-184 -1044h430l184 1044h348l-184 -1044h184l-114 -656h-336z" />
    <glyph glyph-name="uni0427" unicode="&#x427;" horiz-adv-x="1280" 
d="M860 406q-58 -9 -115 -9q-210 0 -343.5 112.5t-133.5 305.5q0 53 13 137l73 420h348l-75 -430q-6 -23 -6 -70q0 -161 194 -161q53 0 100 8l115 653h348l-241 -1372h-349z" />
    <glyph glyph-name="uni0428" unicode="&#x428;" horiz-adv-x="2150" 
d="M385 1372h348l-184 -1044h409l185 1044h348l-184 -1044h409l185 1044h348l-242 -1372h-1864z" />
    <glyph glyph-name="uni0429" unicode="&#x429;" horiz-adv-x="2242" 
d="M1855 0h-1712l242 1372h348l-184 -1044h409l185 1044h348l-184 -1044h409l185 1044h348l-185 -1044h185l-115 -656h-336z" />
    <glyph glyph-name="uni042A" unicode="&#x42a;" horiz-adv-x="1261" 
d="M430 1044h-205l58 328h553l-74 -418h29q223 0 362 -124.5t139 -321.5q0 -139 -73 -256t-199.5 -184.5t-276.5 -67.5h-497zM762 317q78 0 130 49t52 123q0 67 -44.5 107.5t-121.5 40.5h-71l-58 -320h113z" />
    <glyph glyph-name="uni042B" unicode="&#x42b;" horiz-adv-x="1720" 
d="M385 1372h348l-74 -418h23q224 0 363 -124.5t139 -321.5q0 -139 -73 -256t-199.5 -184.5t-276.5 -67.5h-492zM653 317q78 0 130.5 49.5t52.5 122.5q0 67 -44.5 107.5t-121.5 40.5h-66l-57 -320h106zM1470 1372h349l-242 -1372h-348z" />
    <glyph glyph-name="uni042C" unicode="&#x42c;" horiz-adv-x="1159" 
d="M385 1372h348l-74 -418h29q224 0 363 -124.5t139 -321.5q0 -139 -73 -256t-199.5 -184.5t-276.5 -67.5h-498zM659 317q78 0 130.5 49.5t52.5 122.5q0 67 -44.5 107.5t-121.5 40.5h-72l-57 -320h112z" />
    <glyph glyph-name="uni042D" unicode="&#x42d;" horiz-adv-x="1366" 
d="M643 -31q-179 0 -326.5 75t-238.5 224l280 207q49 -79 127 -117.5t170 -38.5q123 0 222 66.5t147 177.5h-461l47 266h432q-30 107 -118.5 167.5t-202.5 60.5q-148 0 -268 -107l-201 252q217 201 514 201q137 0 258.5 -47.5t209.5 -131.5t139.5 -206t51.5 -264
q0 -155 -60.5 -299.5t-164 -251t-249.5 -170.5t-308 -64z" />
    <glyph glyph-name="uni042E" unicode="&#x42e;" horiz-adv-x="2078" 
d="M1366 -31q-170 0 -312.5 69t-233 198.5t-103.5 295.5h-133l-92 -532h-349l242 1372h348l-90 -512h113q76 244 278 393.5t453 149.5q138 0 258 -47.5t206.5 -131.5t136.5 -205t50 -263q0 -209 -101 -389.5t-279.5 -289t-391.5 -108.5zM1393 315q107 0 194 61t132.5 155
t45.5 198q0 142 -83.5 234t-219.5 92q-107 0 -195 -61t-135 -156t-47 -199q0 -142 84.5 -233t223.5 -91z" />
    <glyph glyph-name="uni042F" unicode="&#x42f;" horiz-adv-x="1220" 
d="M432 547q-164 120 -164 332q0 139 72.5 252.5t197 177t275.5 63.5h506l-242 -1372h-348l80 455h-64l-301 -455h-383zM860 752l58 323h-119q-79 0 -130 -50t-51 -124q0 -67 41 -108t113 -41h88z" />
    <glyph glyph-name="uni0430" unicode="&#x430;" horiz-adv-x="1075" 
d="M416 -31q-140 0 -227 79t-87 208q0 146 112 241t280 95q161 0 264 -70q2 16 2 29q0 73 -47 116.5t-121 43.5q-104 0 -186 -82l-146 233q168 111 373 111q203 0 324.5 -106.5t121.5 -288.5q0 -50 -8 -86l-86 -492h-319l14 82q-107 -113 -264 -113zM551 190
q65 0 111.5 35.5t60.5 93.5q-80 64 -170 64q-54 0 -92.5 -25.5t-38.5 -72.5q0 -49 39.5 -72t89.5 -23z" />
    <glyph glyph-name="uni0431" unicode="&#x431;" horiz-adv-x="1173" 
d="M643 -31q-209 0 -341 127.5t-132 339.5q0 73 10 125l21 113q63 356 217.5 524t423.5 168q117 0 181.5 17.5t123.5 64.5l102 -242q-60 -70 -152 -101.5t-237 -31.5q-130 0 -206.5 -60t-118.5 -198q107 90 251 90q175 0 289.5 -115t114.5 -301q0 -145 -71.5 -264
t-197 -187.5t-278.5 -68.5zM664 272q87 0 143.5 52.5t56.5 132.5q0 73 -50 118.5t-130 45.5q-87 0 -143 -52.5t-56 -132.5q0 -73 49.5 -118.5t129.5 -45.5z" />
    <glyph glyph-name="uni0432" unicode="&#x432;" horiz-adv-x="1054" 
d="M270 942h402q183 0 291 -70t108 -184q0 -70 -41 -127t-110 -90q118 -73 118 -201q0 -68 -32.5 -121.5t-85.5 -85t-116 -47.5t-130 -16h-572zM625 219q41 0 70.5 20t29.5 58q0 32 -25.5 53t-68.5 21h-144l-26 -152h164zM655 580q38 0 64 19t26 54q0 31 -21.5 50.5
t-61.5 19.5h-111l-27 -143h131z" />
    <glyph glyph-name="uni0433" unicode="&#x433;" horiz-adv-x="808" 
d="M268 942h666l-51 -287h-346l-115 -655h-320z" />
    <glyph glyph-name="uni0434" unicode="&#x434;" horiz-adv-x="1241" 
d="M100 276q78 0 139.5 82.5t86.5 219.5l65 364h832l-119 -666h143l-94 -542h-307l45 266h-533l-45 -266h-307zM797 276l69 390h-217l-16 -86q-37 -190 -123 -304h287z" />
    <glyph glyph-name="uni0435" unicode="&#x435;" horiz-adv-x="1110" 
d="M631 -31q-135 0 -244.5 50.5t-176.5 154t-67 244.5q0 147 70 274t195.5 204t277.5 77q121 0 223.5 -49t166 -144.5t63.5 -218.5q0 -77 -29 -184h-639q17 -78 76 -117t145 -39q113 0 221 78l119 -195q-176 -135 -401 -135zM823 582q-5 71 -40.5 112t-104.5 41
q-129 0 -191 -153h336z" />
    <glyph glyph-name="uni0436" unicode="&#x436;" horiz-adv-x="1611" 
d="M420 489l-227 453h348l202 -438l78 438h307l-77 -438l358 438h358l-401 -467l246 -475h-365l-209 438l-77 -438h-308l78 438l-364 -438h-377z" />
    <glyph glyph-name="uni0437" unicode="&#x437;" horiz-adv-x="974" 
d="M535 -31q-136 0 -266 49.5t-210 149.5l181 186q133 -143 268 -143q53 0 95 20t42 60q0 86 -192 86h-78l35 205h131q63 0 99 23t36 61q0 36 -33.5 56.5t-91.5 20.5q-103 0 -221 -81l-107 196q168 115 379 115q174 0 285.5 -77t111.5 -200q0 -72 -39 -131.5t-106 -95.5
q104 -76 104 -195q0 -133 -119 -219t-304 -86z" />
    <glyph glyph-name="uni0438" unicode="&#x438;" horiz-adv-x="1146" 
d="M268 942h320l-80 -453l502 474h204l-170 -963h-319l80 453l-502 -473h-205z" />
    <glyph glyph-name="uni0439" unicode="&#x439;" horiz-adv-x="1146" 
d="M268 942h320l-80 -453l502 474h204l-170 -963h-319l80 453l-502 -473h-205zM778 1049q-135 0 -222 79.5t-87 212.5q0 24 4 52h240q-2 -16 -2 -31q0 -43 21 -67.5t61 -24.5q85 0 106 123h242q-19 -158 -117 -251t-246 -93z" />
    <glyph glyph-name="uni043A" unicode="&#x43a;" horiz-adv-x="1071" 
d="M268 942h320l-78 -438l356 438h357l-398 -467l246 -475h-364l-207 438l-78 -438h-320z" />
    <glyph glyph-name="uni043B" unicode="&#x43b;" horiz-adv-x="1136" 
d="M180 -20q-96 0 -131 14l57 319q27 -12 56 -12q74 0 92 105l94 536h852l-168 -942h-319l116 655h-219l-49 -278q-35 -197 -131 -297t-250 -100z" />
    <glyph glyph-name="uni043C" unicode="&#x43c;" horiz-adv-x="1333" 
d="M272 963h205l264 -449l453 449h205l-168 -963h-320l68 393l-207 -209h-143l-135 224l-70 -408h-320z" />
    <glyph glyph-name="uni043D" unicode="&#x43d;" horiz-adv-x="1118" 
d="M270 942h320l-58 -317h273l57 317h320l-168 -942h-320l62 338h-273l-61 -338h-320z" />
    <glyph glyph-name="uni043E" unicode="&#x43e;" horiz-adv-x="1153" 
d="M618 -31q-200 0 -336.5 130t-136.5 331q0 109 44.5 209.5t119 173.5t176.5 116.5t213 43.5q97 0 184 -34t151.5 -94t102.5 -146t38 -185q0 -147 -76 -273t-204.5 -199t-275.5 -73zM641 272q93 0 151 66t58 156q0 81 -48 128.5t-124 47.5q-93 0 -151 -65.5t-58 -155.5
q0 -81 47 -129t125 -48z" />
    <glyph glyph-name="uni043F" unicode="&#x43f;" horiz-adv-x="1107" 
d="M270 942h901l-167 -942h-320l117 655h-262l-117 -655h-320z" />
    <glyph glyph-name="uni0440" unicode="&#x440;" horiz-adv-x="1198" 
d="M268 942h307l-14 -84q129 115 279 115q166 0 273.5 -130t107.5 -313q0 -102 -37 -202.5t-101.5 -180t-160.5 -129t-205 -49.5q-177 0 -279 125l-108 -606h-318zM680 274q92 0 154.5 67t62.5 159q0 81 -51.5 129.5t-132.5 48.5q-93 0 -156 -64.5t-63 -156.5q0 -83 53 -133
t133 -50z" />
    <glyph glyph-name="uni0441" unicode="&#x441;" horiz-adv-x="1050" 
d="M637 -31q-100 0 -190 34t-156.5 93.5t-106 147.5t-39.5 190q0 147 77.5 271.5t208 196t282.5 71.5q134 0 246 -57.5t182 -170.5l-258 -196q-67 125 -193 125q-99 0 -159 -63.5t-60 -157.5q0 -89 52 -137t134 -48q54 0 101.5 24t103.5 75l180 -240q-82 -75 -187.5 -116.5
t-217.5 -41.5z" />
    <glyph glyph-name="uni0442" unicode="&#x442;" horiz-adv-x="1003" 
d="M446 655h-260l52 287h839l-51 -287h-260l-117 -655h-319z" />
    <glyph glyph-name="uni0443" unicode="&#x443;" horiz-adv-x="1013" 
d="M326 -6l-170 948h329l95 -559l262 559h338l-795 -1454h-334z" />
    <glyph glyph-name="uni0444" unicode="&#x444;" horiz-adv-x="1433" 
d="M561 -27q-187 17 -301.5 144t-114.5 309q0 145 73 271.5t199 202t273 75.5h45l86 479h307l-88 -485q187 -17 301.5 -144t114.5 -309q0 -145 -73 -271.5t-199 -202t-273 -75.5h-45l-86 -479h-307zM686 688h-14q-92 0 -147.5 -78t-55.5 -174q0 -76 37.5 -124t103.5 -54z
M930 254q92 0 147.5 78t55.5 174q0 75 -38 123.5t-104 54.5l-76 -430h15z" />
    <glyph glyph-name="uni0445" unicode="&#x445;" horiz-adv-x="991" 
d="M371 485l-205 457h348l102 -250l185 250h354l-371 -463l207 -479h-348l-104 270l-195 -270h-354z" />
    <glyph glyph-name="uni0446" unicode="&#x446;" horiz-adv-x="1179" 
d="M829 0h-727l168 942h320l-117 -655h252l117 655h319l-117 -655h144l-96 -553h-308z" />
    <glyph glyph-name="uni0447" unicode="&#x447;" horiz-adv-x="1067" 
d="M688 250q-47 -6 -94 -6q-87 0 -158 18.5t-129 57.5t-90.5 107.5t-32.5 162.5q0 51 13 121l43 231h319l-47 -256q-4 -28 -4 -41q0 -119 147 -119q35 0 82 6l74 410h319l-167 -942h-320z" />
    <glyph glyph-name="uni0448" unicode="&#x448;" horiz-adv-x="1660" 
d="M270 942h320l-117 -655h248l117 655h319l-117 -655h248l117 655h319l-168 -942h-1454z" />
    <glyph glyph-name="uni0449" unicode="&#x449;" horiz-adv-x="1742" 
d="M1393 0h-1291l168 942h320l-117 -655h248l117 655h319l-117 -655h248l117 655h319l-116 -655h143l-96 -553h-307z" />
    <glyph glyph-name="uni044A" unicode="&#x44a;" horiz-adv-x="1095" 
d="M299 655h-143l51 287h463l-49 -270h47q444 0 444 -314q0 -165 -114 -261.5t-304 -96.5h-512zM682 256q50 0 80.5 27t30.5 69q0 84 -131 84h-82l-33 -180h135z" />
    <glyph glyph-name="uni044B" unicode="&#x44b;" horiz-adv-x="1466" 
d="M270 942h320l-49 -270h26q445 0 445 -314q0 -164 -113 -261t-299 -97h-498zM582 256q50 0 80 27t30 69q0 84 -131 84h-61l-33 -180h115zM1210 942h320l-168 -942h-320z" />
    <glyph glyph-name="uni044C" unicode="&#x44c;" horiz-adv-x="1015" 
d="M270 942h320l-49 -270h47q444 0 444 -314q0 -165 -112.5 -261.5t-298.5 -96.5h-519zM602 256q50 0 80.5 27t30.5 69q0 84 -131 84h-82l-33 -180h135z" />
    <glyph glyph-name="uni044D" unicode="&#x44d;" horiz-adv-x="1081" 
d="M539 -31q-136 0 -254.5 59.5t-188.5 172.5l256 200q78 -133 205 -133q123 0 182 105h-258l37 205h242q-46 98 -168 98q-94 0 -189 -92l-182 235q86 75 191.5 114.5t214.5 39.5q199 0 337 -127.5t138 -327.5q0 -149 -77 -276t-206.5 -200t-279.5 -73z" />
    <glyph glyph-name="uni044E" unicode="&#x44e;" horiz-adv-x="1546" 
d="M1024 -31q-172 0 -300.5 102t-160.5 267h-82l-59 -338h-320l166 942h320l-56 -317h64q61 159 199.5 253.5t306.5 94.5q197 0 331 -129t134 -328q0 -108 -43 -208.5t-116 -175t-173.5 -119t-210.5 -44.5zM1042 272q90 0 145.5 69t55.5 157q0 78 -45 125t-119 47
q-88 0 -142 -68t-54 -156q0 -79 43 -126.5t116 -47.5z" />
    <glyph glyph-name="uni044F" unicode="&#x44f;" horiz-adv-x="1087" 
d="M340 340q-121 77 -121 235q0 165 116 266t298 101h518l-168 -942h-319l49 270h-60l-200 -270h-371zM754 506l32 180h-133q-49 0 -81.5 -25t-32.5 -67q0 -41 29 -64.5t79 -23.5h107z" />
    <glyph glyph-name="uni0451" unicode="&#x451;" horiz-adv-x="1110" 
d="M631 -31q-135 0 -244.5 50.5t-176.5 154t-67 244.5q0 147 70 274t195.5 204t277.5 77q121 0 223.5 -49t166 -144.5t63.5 -218.5q0 -77 -29 -184h-639q17 -78 76 -117t145 -39q113 0 221 78l119 -195q-176 -135 -401 -135zM823 582q-5 71 -40.5 112t-104.5 41
q-129 0 -191 -153h336zM510 1073q-70 0 -118 47.5t-48 118.5q0 79 58 137t137 58q71 0 119.5 -48t48.5 -118q0 -79 -59 -137t-138 -58zM948 1073q-70 0 -118 47.5t-48 118.5q0 79 58 137t137 58q71 0 119.5 -48t48.5 -118q0 -79 -59 -137t-138 -58z" />
    <glyph glyph-name="uni0452" unicode="&#x452;" horiz-adv-x="1138" 
d="M643 -512q-132 0 -223 68l147 249q26 -26 60 -26q32 0 55 23t29 61l94 536q4 28 4 50q0 63 -31 102t-90 39q-62 0 -106 -47.5t-58 -126.5l-73 -416h-320l180 1014h-143l43 246h143l35 194h320l-35 -194h327l-43 -246h-327l-45 -252q108 108 250 108q135 0 220 -94
t85 -246q0 -36 -6 -77l-107 -613q-28 -162 -132 -257t-253 -95z" />
    <glyph glyph-name="uni0453" unicode="&#x453;" horiz-adv-x="808" 
d="M268 942h666l-51 -287h-346l-115 -655h-320zM500 1133l258 385l209 -134l-297 -356z" />
    <glyph glyph-name="uni0454" unicode="&#x454;" horiz-adv-x="1050" 
d="M635 -31q-134 0 -245.5 57.5t-178 164t-66.5 241.5q0 145 75.5 270t202.5 198t273 73q132 0 250.5 -61t186.5 -169l-259 -196q-37 65 -80 96t-106 31q-115 0 -184 -96h282l-36 -205h-265q22 -52 68 -78.5t104 -26.5q103 0 205 99l178 -240q-80 -75 -185 -116.5
t-220 -41.5z" />
    <glyph glyph-name="uni0455" unicode="&#x455;" horiz-adv-x="968" 
d="M547 -31q-138 0 -271.5 50.5t-214.5 150.5l191 197q58 -66 142.5 -113t158.5 -47q84 0 84 53q0 29 -29.5 48t-89.5 38q-162 50 -235.5 125.5t-73.5 183.5q0 142 109 230t282 88q122 0 243.5 -46t203.5 -130l-183 -203q-139 147 -262 147q-70 0 -70 -47q0 -30 28 -49
t87 -41q168 -62 243 -135.5t75 -177.5q0 -142 -116.5 -232t-301.5 -90z" />
    <glyph glyph-name="uni0456" unicode="&#x456;" horiz-adv-x="526" 
d="M270 942h320l-166 -942h-320zM469 1073q-70 0 -118 47.5t-48 118.5q0 79 57.5 137t137.5 58q72 0 120 -48t48 -118q0 -79 -59 -137t-138 -58z" />
    <glyph glyph-name="uni0457" unicode="&#x457;" horiz-adv-x="524" 
d="M268 942h320l-168 -942h-320zM305 1106q-60 0 -97.5 37.5t-37.5 97.5q0 67 46.5 116.5t113.5 49.5q60 0 97.5 -38.5t37.5 -98.5q0 -67 -46.5 -115.5t-113.5 -48.5zM637 1106q-60 0 -97.5 37.5t-37.5 97.5q0 67 46.5 116.5t113.5 49.5q60 0 97.5 -38.5t37.5 -98.5
q0 -67 -46.5 -115.5t-113.5 -48.5z" />
    <glyph glyph-name="uni0458" unicode="&#x458;" horiz-adv-x="526" 
d="M14 -512q-132 0 -223 68l146 249q26 -26 61 -26q69 0 84 84l188 1079h320l-193 -1102q-28 -162 -132 -257t-251 -95zM469 1073q-70 0 -118 47.5t-48 118.5q0 79 57.5 137t137.5 58q72 0 120 -48t48 -118q0 -79 -59 -137t-138 -58z" />
    <glyph glyph-name="uni0459" unicode="&#x459;" horiz-adv-x="1626" 
d="M180 -20q-94 0 -129 14l55 319q27 -12 56 -12q74 0 92 105l94 536h852l-49 -270h47q444 0 444 -314q0 -165 -112.5 -261.5t-298.5 -96.5h-518l116 655h-219l-49 -278q-35 -197 -131 -297t-250 -100zM1212 256q50 0 80.5 27t30.5 69q0 84 -131 84h-82l-33 -180h135z" />
    <glyph glyph-name="uni045A" unicode="&#x45a;" horiz-adv-x="1609" 
d="M270 942h320l-53 -297h272l53 297h320l-54 -297h80q204 0 310 -77.5t106 -225.5q0 -157 -112.5 -249.5t-286.5 -92.5h-531l64 358h-273l-63 -358h-320zM1186 256q49 0 84 20t35 64q0 70 -123 70h-95l-28 -154h127z" />
    <glyph glyph-name="uni045B" unicode="&#x45b;" horiz-adv-x="1136" 
d="M311 1014h-143l43 246h143l35 194h320l-35 -194h327l-43 -246h-327l-45 -252q108 108 256 108q134 0 216.5 -93.5t82.5 -246.5q0 -40 -11 -96l-77 -434h-320l70 389q6 35 6 60q0 63 -31 102t-90 39q-62 0 -106 -47.5t-58 -126.5l-73 -416h-320z" />
    <glyph glyph-name="uni045C" unicode="&#x45c;" horiz-adv-x="1071" 
d="M268 942h320l-78 -438l356 438h357l-398 -467l246 -475h-364l-207 438l-78 -438h-320zM610 1133l258 385l209 -134l-297 -356z" />
    <glyph glyph-name="uni045E" unicode="&#x45e;" horiz-adv-x="1013" 
d="M326 -6l-170 948h329l95 -559l262 559h338l-795 -1454h-334zM672 1049q-135 0 -222.5 79.5t-87.5 212.5q0 17 5 52h239q-2 -16 -2 -31q0 -43 21 -67.5t61 -24.5q86 0 107 123h241q-19 -158 -116.5 -251t-245.5 -93z" />
    <glyph glyph-name="uni045F" unicode="&#x45f;" horiz-adv-x="1097" 
d="M395 0h-293l168 942h320l-117 -655h252l117 655h319l-168 -942h-291l-45 -266h-307z" />
    <glyph glyph-name="uni0490" unicode="&#x490;" horiz-adv-x="1005" 
d="M385 1372h471l45 246h328l-103 -574h-450l-184 -1044h-349z" />
    <glyph glyph-name="uni0491" unicode="&#x491;" horiz-adv-x="806" 
d="M268 942h367l35 205h299l-86 -492h-346l-115 -655h-320z" />
    <glyph glyph-name="Wgrave" unicode="&#x1e80;" horiz-adv-x="2017" 
d="M242 1372h358l117 -737l420 737h204l170 -743l375 743h363l-723 -1392h-205l-180 829l-463 -829h-205zM995 1831l236 117l125 -398l-178 -90z" />
    <glyph glyph-name="wgrave" unicode="&#x1e81;" horiz-adv-x="1505" 
d="M156 942h340l65 -444l240 465h205l92 -494l243 473h330l-528 -962h-205l-98 585l-291 -585h-205zM651 1401l236 117l125 -398l-178 -90z" />
    <glyph glyph-name="Wacute" unicode="&#x1e82;" horiz-adv-x="2017" 
d="M242 1372h358l117 -737l420 737h204l170 -743l375 743h363l-723 -1392h-205l-180 829l-463 -829h-205zM1122 1563l258 385l209 -133l-297 -357z" />
    <glyph glyph-name="wacute" unicode="&#x1e83;" horiz-adv-x="1505" 
d="M156 942h340l65 -444l240 465h205l92 -494l243 473h330l-528 -962h-205l-98 585l-291 -585h-205zM778 1133l258 385l209 -134l-297 -356z" />
    <glyph glyph-name="Wdieresis" unicode="&#x1e84;" horiz-adv-x="2017" 
d="M242 1372h358l117 -737l420 737h204l170 -743l375 743h363l-723 -1392h-205l-180 829l-463 -829h-205zM1030 1503q-70 0 -118 47.5t-48 118.5q0 79 58 137t137 58q71 0 119.5 -48t48.5 -118q0 -79 -59 -137t-138 -58zM1468 1503q-70 0 -117.5 47.5t-47.5 118.5
q0 80 57.5 137.5t136.5 57.5q71 0 119.5 -48t48.5 -118q0 -79 -59 -137t-138 -58z" />
    <glyph glyph-name="wdieresis" unicode="&#x1e85;" horiz-adv-x="1505" 
d="M156 942h340l65 -444l240 465h205l92 -494l243 473h330l-528 -962h-205l-98 585l-291 -585h-205zM686 1073q-70 0 -118 47.5t-48 118.5q0 79 58 137t137 58q71 0 119.5 -48t48.5 -118q0 -79 -59 -137t-138 -58zM1124 1073q-70 0 -118 47.5t-48 118.5q0 79 58 137t137 58
q71 0 119.5 -48t48.5 -118q0 -79 -59 -137t-138 -58z" />
    <glyph glyph-name="uni1E9E" unicode="&#x1e9e;" horiz-adv-x="1415" 
d="M926 -31q-181 0 -295 80l172 273q53 -48 137 -48q74 0 123 39t49 103q0 62 -46 96.5t-132 34.5h-111l37 205l203 323h-209q-84 0 -141.5 -49t-71.5 -131l-158 -895h-348l162 924q37 200 192.5 324t372.5 124h606l-36 -205l-232 -366q112 -50 174 -145t62 -222
q0 -132 -68 -239t-184.5 -166.5t-257.5 -59.5z" />
    <glyph glyph-name="Ygrave" unicode="&#x1ef2;" horiz-adv-x="1146" 
d="M471 477l-260 895h369l131 -520l319 520h369l-578 -889l-86 -483h-348zM563 1831l236 117l125 -398l-179 -90z" />
    <glyph glyph-name="ygrave" unicode="&#x1ef3;" horiz-adv-x="1013" 
d="M326 -6l-170 948h329l95 -559l262 559h338l-795 -1454h-334zM442 1401l236 117l125 -398l-178 -90z" />
    <glyph glyph-name="endash" unicode="&#x2013;" horiz-adv-x="1021" 
d="M156 655h942l-43 -245h-942z" />
    <glyph glyph-name="emdash" unicode="&#x2014;" horiz-adv-x="1472" 
d="M156 655h1392l-43 -245h-1392z" />
    <glyph glyph-name="quoteleft" unicode="&#x2018;" horiz-adv-x="479" 
d="M236 987l233 469l195 -59l-187 -482z" />
    <glyph glyph-name="quoteright" unicode="&#x2019;" horiz-adv-x="479" 
d="M233 975l187 481l242 -72l-234 -469z" />
    <glyph glyph-name="quotesinglbase" unicode="&#x201a;" horiz-adv-x="444" 
d="M12 -276l144 491l256 -47l-199 -479z" />
    <glyph glyph-name="quotedblleft" unicode="&#x201c;" horiz-adv-x="794" 
d="M233 979l199 479l201 -35l-144 -491zM580 958l198 480l201 -35l-143 -492z" />
    <glyph glyph-name="quotedblright" unicode="&#x201d;" horiz-adv-x="794" 
d="M231 965l144 491l256 -47l-199 -479zM578 944l143 492l256 -47l-199 -480z" />
    <glyph glyph-name="quotedblbase" unicode="&#x201e;" horiz-adv-x="794" 
d="M12 -276l144 491l256 -47l-199 -479zM358 -297l144 492l256 -48l-199 -479z" />
    <glyph glyph-name="dagger" unicode="&#x2020;" horiz-adv-x="1126" 
d="M498 614h-328l57 328h328l76 430h348l-76 -430h328l-57 -328h-328l-219 -1126h-308z" />
    <glyph glyph-name="daggerdbl" unicode="&#x2021;" horiz-adv-x="1128" 
d="M401 0h-340l60 328h334l45 286h-328l57 328h328l76 430h348l-76 -430h328l-57 -328h-328l-57 -286h333l-57 -328h-338l-100 -512h-307z" />
    <glyph glyph-name="bullet" unicode="&#x2022;" horiz-adv-x="843" 
d="M502 317q-86 0 -144.5 56t-58.5 141q0 94 71 164t165 70q85 0 141.5 -55.5t56.5 -141.5q0 -93 -69 -163.5t-162 -70.5z" />
    <glyph glyph-name="ellipsis" unicode="&#x2026;" horiz-adv-x="1822" 
d="M311 -20q-73 0 -121.5 47t-48.5 120q0 80 59 140.5t140 60.5q73 0 121.5 -47.5t48.5 -120.5q0 -80 -59 -140t-140 -60zM926 -20q-73 0 -121.5 47t-48.5 120q0 80 58.5 140.5t139.5 60.5q73 0 121.5 -47.5t48.5 -120.5q0 -80 -58.5 -140t-139.5 -60zM1540 -20
q-73 0 -121.5 47t-48.5 120q0 80 59 140.5t140 60.5q73 0 121.5 -47.5t48.5 -120.5q0 -80 -59 -140t-140 -60z" />
    <glyph glyph-name="perthousand" unicode="&#x2030;" horiz-adv-x="2793" 
d="M1341 1372h318l-805 -1372h-317zM584 645q-152 0 -256.5 96.5t-104.5 251.5q0 168 123.5 289t296.5 121q152 0 255 -94.5t103 -249.5q0 -169 -122 -291.5t-295 -122.5zM602 895q59 0 99 43t40 100q0 49 -33 82t-83 33q-59 0 -99.5 -41.5t-40.5 -99.5q0 -53 33 -85t84 -32
zM1552 -31q-152 0 -256 96.5t-104 251.5q0 168 123.5 289t296.5 121q152 0 255 -94.5t103 -249.5q0 -169 -122.5 -291.5t-295.5 -122.5zM1571 219q59 0 99 43t40 100q0 49 -33.5 82t-83.5 33q-59 0 -99 -41.5t-40 -99.5q0 -53 33 -85t84 -32zM2394 -31q-152 0 -256 96.5
t-104 251.5q0 168 123.5 289t296.5 121q152 0 255 -94.5t103 -249.5q0 -169 -122.5 -291.5t-295.5 -122.5zM2413 219q59 0 99 43t40 100q0 49 -33.5 82t-83.5 33q-59 0 -99 -41.5t-40 -99.5q0 -53 33 -85t84 -32z" />
    <glyph glyph-name="guilsinglleft" unicode="&#x2039;" horiz-adv-x="733" 
d="M131 512l502 438l155 -174l-315 -276l207 -262l-203 -164z" />
    <glyph glyph-name="guilsinglright" unicode="&#x203a;" horiz-adv-x="731" 
d="M125 248l313 276l-207 262l203 164l346 -438l-499 -438z" />
    <glyph glyph-name="fraction" unicode="&#x2044;" horiz-adv-x="327" 
d="M528 1372h318l-805 -1372h-317z" />
    <glyph glyph-name="uni2070" unicode="&#x2070;" horiz-adv-x="823" 
d="M594 807q-160 0 -256 104t-96 271q0 91 30 177.5t84.5 155t138 110.5t181.5 42q159 0 254.5 -102.5t95.5 -270.5q0 -123 -50.5 -232.5t-151.5 -182t-230 -72.5zM608 1065q35 0 62 24t41.5 60.5t22 73t7.5 67.5q0 50 -19.5 85.5t-62.5 35.5q-35 0 -62 -24.5t-41.5 -61
t-22 -73.5t-7.5 -68q0 -49 19.5 -84t62.5 -35z" />
    <glyph glyph-name="uni2074" unicode="&#x2074;" horiz-adv-x="788" 
d="M561 952h-409l32 185l543 522h184l-90 -512h103l-35 -195h-103l-20 -112h-225zM596 1147l29 166l-174 -166h145z" />
    <glyph glyph-name="uni2075" unicode="&#x2075;" horiz-adv-x="772" 
d="M541 809q-110 0 -210 47.5t-130 142.5l215 136q34 -88 119 -88q43 0 70.5 19.5t27.5 55.5q0 34 -26 53t-66 19q-59 0 -101 -39l-123 88l117 395h531l-35 -204h-330l-16 -58q28 4 47 4q115 0 201 -71t86 -193q0 -140 -111.5 -223.5t-265.5 -83.5z" />
    <glyph glyph-name="uni2076" unicode="&#x2076;" horiz-adv-x="753" 
d="M553 809q-67 0 -127 17t-110 52t-79.5 95.5t-29.5 140.5q0 83 33 161t88 138.5t127 111.5t149 85.5t156 54.5l78 -207q-176 -38 -275 -123q46 15 92 15q110 0 186.5 -66t76.5 -180q0 -136 -107 -215.5t-258 -79.5zM553 1022q36 0 59 27.5t23 64.5q0 31 -19.5 49.5
t-50.5 18.5q-37 0 -59.5 -26.5t-22.5 -63.5q0 -32 19.5 -51t50.5 -19z" />
    <glyph glyph-name="uni2077" unicode="&#x2077;" horiz-adv-x="665" 
d="M614 1397h-303l43 241h625l-29 -163l-385 -635h-289z" />
    <glyph glyph-name="uni2078" unicode="&#x2078;" horiz-adv-x="794" 
d="M590 809q-56 0 -114 14t-111.5 41.5t-87 76.5t-33.5 112q0 73 43.5 131t113.5 88q-73 61 -73 155q0 79 50.5 135.5t122 81.5t150.5 25q54 0 109 -13.5t105 -40t81 -73t31 -104.5q0 -66 -37.5 -119.5t-99.5 -83.5q90 -69 90 -174q0 -81 -54 -140.5t-129 -85.5t-157 -26z
M588 1010q36 0 59 26t23 62q0 30 -19.5 48.5t-50.5 18.5q-38 0 -62 -23.5t-24 -60.5q0 -34 20.5 -52.5t53.5 -18.5zM641 1339q30 0 48 22.5t18 53.5q0 24 -14.5 39.5t-39.5 15.5q-31 0 -48 -21t-17 -52q0 -26 14 -42t39 -16z" />
    <glyph glyph-name="uni2079" unicode="&#x2079;" horiz-adv-x="753" 
d="M360 1020q176 38 275 123q-46 -15 -92 -15q-110 0 -186 66t-76 180q0 136 106.5 215.5t257.5 79.5q67 0 127 -17t110 -52t79.5 -95.5t29.5 -140.5q0 -83 -33 -161t-88 -138.5t-127 -111.5t-149 -85.5t-156 -54.5zM633 1296q37 0 59.5 26.5t22.5 63.5q0 32 -19.5 51
t-50.5 19q-36 0 -59 -27.5t-23 -64.5q0 -31 19.5 -49.5t50.5 -18.5z" />
    <glyph glyph-name="uni2080" unicode="&#x2080;" horiz-adv-x="823" 
d="M391 -279q-160 0 -256 104t-96 271q0 91 30 177.5t84.5 155.5t138 111t181.5 42q159 0 254.5 -102.5t95.5 -270.5q0 -91 -30 -177.5t-84 -156t-137 -112t-181 -42.5zM406 -20q35 0 62 24t41.5 60.5t22 73t7.5 67.5q0 50 -19.5 85.5t-62.5 35.5q-35 0 -62 -24.5
t-41.5 -61.5t-22 -74t-7.5 -68q0 -48 19.5 -83t62.5 -35z" />
    <glyph glyph-name="uni2081" unicode="&#x2081;" horiz-adv-x="686" 
d="M332 225l-176 -86l-82 195l442 239h143l-145 -819h-266z" />
    <glyph glyph-name="uni2082" unicode="&#x2082;" horiz-adv-x="831" 
d="M41 -102l264 192q103 74 142.5 115t39.5 74q0 24 -16 37.5t-45 13.5q-77 0 -98 -90l-246 90q49 122 147 188t224 66q61 0 118.5 -17t104.5 -48.5t75.5 -82.5t28.5 -114q0 -51 -17 -93.5t-51.5 -79t-66.5 -61t-82 -57.5l-82 -51h258l-41 -226h-684z" />
    <glyph glyph-name="uni2083" unicode="&#x2083;" horiz-adv-x="792" 
d="M365 -276q-73 0 -142.5 19.5t-130 70t-78.5 123.5l203 114q16 -44 54 -66t83 -22q40 0 63 17t23 43q0 29 -27 45t-77 16h-70l25 143l141 121h-258l35 205h571l-24 -143l-205 -185q79 -33 124.5 -94t45.5 -139q0 -83 -54 -146t-133.5 -92.5t-168.5 -29.5z" />
    <glyph glyph-name="uni2084" unicode="&#x2084;" horiz-adv-x="788" 
d="M360 -133h-409l33 184l542 522h185l-90 -512h102l-35 -194h-102l-21 -113h-225zM395 61l29 166l-174 -166h145z" />
    <glyph glyph-name="uni2085" unicode="&#x2085;" horiz-adv-x="772" 
d="M340 -276q-110 0 -210 47.5t-130 142.5l215 135q34 -88 119 -88q43 0 70.5 20t27.5 56q0 34 -26 53t-66 19q-58 0 -100 -39l-123 88l116 395h531l-35 -205h-330l-16 -57q28 4 47 4q115 0 201 -71t86 -193q0 -140 -111.5 -223.5t-265.5 -83.5z" />
    <glyph glyph-name="uni2086" unicode="&#x2086;" horiz-adv-x="753" 
d="M352 -276q-67 0 -127 17t-110 52t-79.5 95.5t-29.5 140.5q0 83 33 161t88 138.5t127 111.5t149 85.5t156 54.5l78 -207q-176 -38 -275 -123q43 14 93 14q110 0 186 -66t76 -180q0 -136 -107 -215t-258 -79zM352 -63q36 0 59 27.5t23 64.5q0 31 -19 49t-50 18
q-37 0 -59.5 -26.5t-22.5 -63.5q0 -32 19 -50.5t50 -18.5z" />
    <glyph glyph-name="uni2087" unicode="&#x2087;" horiz-adv-x="665" 
d="M414 311h-303l43 242h624l-28 -164l-385 -635h-289z" />
    <glyph glyph-name="uni2088" unicode="&#x2088;" horiz-adv-x="794" 
d="M389 -276q-44 0 -90 8t-92.5 27t-82.5 46t-58.5 69t-22.5 93q0 73 44 131t114 88q-74 61 -74 156q0 60 29 107.5t77 76t104 43.5t114 15q54 0 109 -13.5t104.5 -40.5t80.5 -73t31 -105q0 -66 -37.5 -119t-99.5 -83q90 -69 90 -175q0 -62 -31 -111.5t-81.5 -79t-109 -45
t-118.5 -15.5zM387 -76q36 0 59 26t23 62q0 31 -19.5 49.5t-50.5 18.5q-38 0 -62 -23.5t-24 -60.5q0 -34 20.5 -53t53.5 -19zM440 254q30 0 48 22.5t18 53.5q0 24 -14 39.5t-39 15.5q-31 0 -48.5 -21.5t-17.5 -52.5q0 -26 14 -41.5t39 -15.5z" />
    <glyph glyph-name="uni2089" unicode="&#x2089;" horiz-adv-x="753" 
d="M160 -66q175 37 274 123q-43 -14 -92 -14q-110 0 -186 66t-76 180q0 136 106.5 215.5t257.5 79.5q67 0 127 -17t110.5 -52t80 -95.5t29.5 -140.5q0 -83 -33 -161t-88 -138.5t-127 -111.5t-149 -85.5t-156 -54.5zM432 211q37 0 59.5 26.5t22.5 63.5q0 32 -19.5 51
t-50.5 19q-36 0 -59 -27.5t-23 -64.5q0 -31 19.5 -49.5t50.5 -18.5z" />
    <glyph glyph-name="Euro" unicode="&#x20ac;" horiz-adv-x="1263" 
d="M819 -31q-214 0 -360.5 134t-184.5 348h-174l33 184h133q0 39 6 82h-125l33 184h139q84 229 260 365.5t392 136.5q155 0 278.5 -74.5t198.5 -214.5l-283 -209q-30 68 -85.5 108t-127.5 40q-69 0 -132 -40t-107 -112h305l-74 -184h-303q-6 -23 -6 -82h272l-73 -184h-170
q30 -64 82 -100t120 -36q129 0 217 111l203 -250q-204 -207 -467 -207z" />
    <glyph glyph-name="uni20B4" unicode="&#x20b4;" horiz-adv-x="1189" 
d="M623 -31q-189 0 -306.5 87.5t-117.5 228.5q0 93 49 166h-96l32 184h1047l-33 -184h-584q-61 -50 -61 -103q0 -43 33.5 -68.5t89.5 -25.5q57 0 113 30.5t124 96.5l185 -223q-198 -189 -475 -189zM231 901h557q45 25 72 52.5t27 66.5q0 44 -33.5 71t-89.5 27
q-108 0 -238 -127l-184 223q198 189 475 189q190 0 307 -88.5t117 -229.5q0 -103 -63 -184h100l-33 -184h-1046z" />
    <glyph glyph-name="uni20BD" unicode="&#x20bd;" horiz-adv-x="1222" 
d="M209 133h-125l37 205h125l14 80h-125l55 317h125l113 637h379q224 0 362 -124t138 -320q0 -141 -74 -258.5t-202.5 -184.5t-282.5 -67h-140l-14 -80h264l-37 -205h-264l-22 -133h-349zM774 735q78 0 130 48.5t52 123.5q0 67 -47 107.5t-125 40.5h-63l-57 -320h110z" />
    <glyph glyph-name="uni2116" unicode="&#x2116;" horiz-adv-x="2381" 
d="M606 766l-135 -766h-328l246 1393h205l567 -787l135 766h328l-246 -1392h-204zM1624 563h754l-43 -246h-754zM2042 645q-152 0 -256.5 96.5t-104.5 251.5q0 168 123.5 289t296.5 121q152 0 255.5 -95t103.5 -249q0 -169 -122.5 -291.5t-295.5 -122.5zM2060 895
q59 0 99.5 43t40.5 100q0 49 -33.5 82t-83.5 33q-59 0 -99 -41.5t-40 -99.5q0 -53 33 -85t83 -32z" />
    <glyph glyph-name="trademark" unicode="&#x2122;" horiz-adv-x="1515" 
d="M395 1200h-180v195h586v-195h-180v-442h-226v442zM862 1405h164l209 -299l209 299h164v-647h-226v243l-86 -131h-122l-87 131v-243h-225v647z" />
    <glyph glyph-name="arrowleft" unicode="&#x2190;" horiz-adv-x="2048" 
d="M881 82q-19 65 -35 114t-40 105t-49 96.5t-60 79.5t-75 63t-92.5 39t-113.5 15h-6v246h6q84 0 152 28.5t114.5 72.5t85.5 115.5t63 137.5t50 158h348q-34 -171 -91.5 -284.5t-166.5 -186.5h872v-328h-872q109 -73 166.5 -186.5t91.5 -284.5h-348z" />
    <glyph glyph-name="arrowup" unicode="&#x2191;" horiz-adv-x="2048" 
d="M963 872q-73 -109 -186.5 -166.5t-284.5 -91.5v349q66 19 114 35t105 40t96.5 49t79 60t63.5 74.5t39 92t15 113.5v7h245v-7q0 -84 28.5 -152t72.5 -114t115.5 -85t137.5 -63t158 -50v-349q-171 34 -284.5 91.5t-186.5 166.5v-872h-327v872z" />
    <glyph glyph-name="arrowright" unicode="&#x2192;" horiz-adv-x="2048" 
d="M1024 82q34 171 91.5 284.5t166.5 186.5h-872v328h872q-109 73 -166.5 186.5t-91.5 284.5h348q26 -92 50 -158t63 -137.5t85.5 -115.5t114.5 -72.5t152 -28.5h6v-246h-6q-61 0 -113.5 -15t-92.5 -39t-75 -63t-60 -79.5t-49 -96.5t-40 -105t-35 -114h-348z" />
    <glyph glyph-name="arrowdown" unicode="&#x2193;" horiz-adv-x="2048" 
d="M1004 6q0 61 -15 113.5t-39 92.5t-63 75t-79.5 60t-96.5 49t-105 40t-114 35v348q171 -34 284.5 -91.5t186.5 -166.5v873h327v-873q73 109 186.5 166.5t284.5 91.5v-348q-92 -26 -158 -50t-137.5 -63t-115.5 -85.5t-72.5 -114.5t-28.5 -152v-6h-245v6z" />
    <glyph glyph-name="uni2196" unicode="&#x2196;" horiz-adv-x="2048" 
d="M901 739q25 -128 -15.5 -250t-135.5 -266l-246 248q39 71 64.5 123.5t50 118t30.5 119.5t0.5 111.5t-34 112t-78.5 105.5l-5 4l175 174l4 -4q59 -61 127.5 -89t131.5 -29.5t142.5 22.5t141.5 53t147 76l248 -246q-148 -96 -269.5 -137t-246.5 -14l616 -617l-231 -231z
" />
    <glyph glyph-name="uni2197" unicode="&#x2197;" horiz-adv-x="2048" 
d="M504 354l616 617q-125 -27 -246.5 14t-269.5 137l248 246q70 -39 123 -64.5t118 -50.5t119.5 -31t112.5 -0.5t112.5 34.5t104.5 79l4 4l174 -174l-4 -4q-50 -50 -79 -104.5t-34.5 -112.5t0.5 -112.5t31 -119.5t50.5 -118t64.5 -123l-246 -248q-96 148 -137 269.5
t-14 246.5l-617 -616z" />
    <glyph glyph-name="uni2198" unicode="&#x2198;" horiz-adv-x="2048" 
d="M604 360q145 96 267 136.5t249 15.5l-616 616l231 232l617 -617q-27 125 14 247t137 270l246 -248q-47 -85 -76 -147t-53 -141.5t-22.5 -142.5t29.5 -131.5t89 -127.5l4 -5l-174 -174l-4 4q-61 60 -129.5 88t-131 30t-141 -21t-140.5 -52t-148 -77z" />
    <glyph glyph-name="uni2199" unicode="&#x2199;" horiz-adv-x="2048" 
d="M1401 115q-85 47 -147.5 76.5t-141 52.5t-141.5 21.5t-131.5 -30t-128.5 -88.5l-4 -4l-175 174l5 5q50 50 79 104.5t34.5 112.5t-0.5 112.5t-31 119.5t-50.5 118t-64.5 123l246 248q95 -144 135.5 -266.5t15.5 -250.5l617 617l231 -232l-616 -616q127 25 249 -15.5
t267 -136.5z" />
    <glyph glyph-name="minus" unicode="&#x2212;" horiz-adv-x="942" 
d="M178 793h819v-254h-819v254z" />
    <glyph glyph-name="approxequal" unicode="&#x2248;" horiz-adv-x="942" 
d="M717 301q-68 0 -148 39q-96 49 -135 49q-32 0 -54.5 -18t-51.5 -68l-150 115q24 100 96 158.5t179 58.5q45 0 78 -10t77 -35q88 -43 127 -43q35 0 57.5 18t53.5 68l151 -117q-26 -102 -100 -158.5t-180 -56.5zM717 696q-68 0 -148 39q-96 49 -135 49q-32 0 -54.5 -18
t-51.5 -68l-150 115q24 100 96 158.5t179 58.5q45 0 78 -10t77 -35q88 -43 127 -43q35 0 57.5 18t53.5 68l151 -117q-26 -102 -100 -158.5t-180 -56.5z" />
    <glyph glyph-name="notequal" unicode="&#x2260;" horiz-adv-x="942" 
d="M303 334h-125v254h256l82 155h-338v254h469l84 164h225l-84 -164h125v-254h-256l-82 -155h338v-254h-469l-84 -164h-225z" />
    <glyph glyph-name="lessequal" unicode="&#x2264;" horiz-adv-x="942" 
d="M152 350h819v-254h-819v254zM152 711v204l700 342l106 -219l-473 -221l476 -213l-105 -221z" />
    <glyph glyph-name="greaterequal" unicode="&#x2265;" horiz-adv-x="942" 
d="M154 350h819v-254h-819v254zM164 604l475 213l-473 221l106 219l701 -342v-204l-705 -328z" />
    <glyph glyph-name="uniF6D1" unicode="&#xf6d1;" horiz-adv-x="708" 
d="M569 1049q-133 0 -220 78.5t-87 209.5q0 24 4 56h240q-2 -10 -2 -29q0 -43 20 -68.5t60 -25.5q91 0 106 123h242q-17 -155 -117 -249.5t-246 -94.5z" />
    <glyph glyph-name="uniF6D4" unicode="&#xf6d4;" horiz-adv-x="708" 
d="M571 1049q-135 0 -222 79.5t-87 212.5q0 24 4 52h240q-2 -16 -2 -31q0 -43 21 -67.5t61 -24.5q85 0 106 123h242q-19 -158 -117 -251t-246 -93z" />
    <glyph glyph-name="s_t" unicode="&#xfb06;" horiz-adv-x="1839" 
d="M547 -31q-138 0 -271.5 50.5t-214.5 150.5l191 197q58 -66 142.5 -113t158.5 -47q84 0 84 53q0 29 -29.5 48t-89.5 38q-162 50 -235.5 125.5t-73.5 183.5q0 142 109 230t282 88q38 0 82 -6q-8 36 -8 114q0 213 141 350.5t363 137.5q198 0 329 -107t131 -272
q0 -142 -92 -248h348l-43 -246h-266l-55 -315q-4 -20 -4 -47q0 -45 27.5 -71.5t74.5 -26.5q50 0 121 40l82 -219q-119 -88 -289 -88q-160 0 -252 78.5t-92 214.5q0 46 14 135l54 299h-144l43 246q69 17 109.5 73.5t40.5 125.5q0 67 -39.5 108t-104.5 41q-86 0 -137 -71
t-51 -189q0 -55 14 -106t50 -127l-183 -203q-139 147 -262 147q-70 0 -70 -47q0 -30 28 -49t87 -41q168 -62 243 -135.5t75 -177.5q0 -142 -116.5 -232t-301.5 -90z" />
    <glyph glyph-name="c_h" horiz-adv-x="2166" 
d="M637 -31q-100 0 -190 34t-156.5 93.5t-106 147.5t-39.5 190q0 148 78 272t212.5 195.5t295.5 71.5h10q3 0 11 -1t12 -1q-10 55 -10 110q0 142 68 254.5t181.5 173t249.5 60.5q116 0 210 -42.5t153 -132t59 -212.5q0 -48 -10 -99l-39 -213q112 103 254 103q133 0 216 -94
t83 -244q0 -39 -6 -80l-98 -555h-320l88 502q4 28 4 51q0 63 -30 101t-88 38q-61 0 -105.5 -47t-58.5 -127l-92 -518h-320l195 1104q6 27 6 55q0 61 -30.5 95t-86.5 34q-88 0 -134 -78t-46 -182q0 -138 84 -283l-258 -196q-67 125 -193 125q-99 0 -159 -63.5t-60 -157.5
q0 -89 52 -137t134 -48q54 0 101.5 24t103.5 75l180 -240q-82 -75 -187.5 -116.5t-217.5 -41.5z" />
    <glyph glyph-name="c_k" horiz-adv-x="2117" 
d="M637 -31q-100 0 -190 34t-156.5 93.5t-106 147.5t-39.5 190q0 148 78.5 272t212.5 195.5t293 71.5q19 0 35 -2q-10 55 -10 110q0 142 68 254.5t181.5 173t249.5 60.5q116 0 210 -42.5t153 -132t59 -212.5q0 -48 -10 -99l-102 -569l354 428h360l-401 -461l242 -481h-361
l-205 449l-79 -449h-320l195 1104q6 27 6 55q0 61 -30.5 95t-86.5 34q-88 0 -134 -78t-46 -182q0 -138 84 -283l-258 -196q-67 125 -193 125q-99 0 -159 -63.5t-60 -157.5q0 -89 52 -137t134 -48q54 0 101.5 24t103.5 75l180 -240q-82 -75 -187.5 -116.5t-217.5 -41.5z" />
    <glyph glyph-name="c_t" horiz-adv-x="1923" 
d="M637 -31q-100 0 -190 34t-156.5 93.5t-106 147.5t-39.5 190q0 147 77 272t204.5 196t273.5 71q18 0 64 -4q-8 41 -8 104q0 217 141 356.5t363 139.5q198 0 329 -108t131 -273q0 -140 -92 -246h348l-43 -246h-266l-55 -315q-4 -20 -4 -47q0 -45 27.5 -71.5t74.5 -26.5
q50 0 121 40l82 -219q-119 -88 -289 -88q-160 0 -252 78.5t-92 214.5q0 46 14 135l54 299h-144l43 246q70 17 110 72.5t40 124.5t-40 110t-106 41q-86 0 -136 -68t-50 -184q0 -147 76 -293l-258 -196q-67 125 -193 125q-99 0 -159 -63.5t-60 -157.5q0 -89 52 -137t134 -48
q54 0 101.5 24t103.5 75l180 -240q-82 -75 -187.5 -116.5t-217.5 -41.5z" />
    <glyph glyph-name="s_p" horiz-adv-x="2164" 
d="M1237 942q88 79 88 186q0 74 -40 118t-109 44q-88 0 -140.5 -71.5t-52.5 -190.5q0 -55 14 -105t50 -126l-183 -203q-139 147 -262 147q-70 0 -70 -47q0 -30 28 -49t87 -41q168 -62 243 -135.5t75 -177.5q0 -142 -116.5 -232t-301.5 -90q-138 0 -271.5 50.5t-214.5 150.5
l191 197q58 -66 142.5 -113t158.5 -47q84 0 84 53q0 29 -29.5 48t-89.5 38q-162 50 -235.5 125.5t-73.5 183.5q0 142 109 230t282 88q38 0 82 -6q-8 36 -8 112q0 215 142 352.5t368 137.5q201 0 333 -109t132 -276q0 -158 -109 -273l-10 -53q129 115 278 115
q166 0 273.5 -130t107.5 -313q0 -102 -37 -202.5t-101 -180t-160 -129t-205 -49.5q-177 0 -279 125l-109 -606h-317zM1649 274q92 0 154.5 67t62.5 159q0 81 -52 129.5t-133 48.5q-93 0 -156 -64.5t-63 -156.5q0 -83 53.5 -133t133.5 -50z" />
    <glyph glyph-name="I.alt" horiz-adv-x="962" 
d="M152 283h204l144 807h-205l49 282h758l-49 -282h-205l-143 -807h204l-49 -283h-758z" />
    <glyph glyph-name="a.alt" horiz-adv-x="1198" 
d="M539 -31q-176 0 -286 128t-110 317q0 148 69.5 277t188 205.5t256.5 76.5q86 0 160.5 -31t118.5 -100l18 100h308l-166 -942h-308l13 70q-115 -101 -262 -101zM653 264q93 0 156 64.5t63 156.5q0 84 -53 133.5t-133 49.5q-92 0 -154.5 -67t-62.5 -159q0 -83 52 -130.5
t132 -47.5z" />
    <glyph glyph-name="g.alt" horiz-adv-x="1202" 
d="M526 -510q-138 0 -259 57t-187 168l248 211q30 -65 85.5 -99t125.5 -34q95 0 161.5 55.5t79.5 151.5l11 72q-109 -92 -252 -92q-176 0 -286 126.5t-110 313.5q0 145 69 272.5t188 204t257 76.5q85 0 160 -32t123 -101l16 102h308l-170 -971q-37 -214 -195 -347.5
t-373 -133.5zM653 274q92 0 155.5 63.5t63.5 151.5q0 83 -53 131t-133 48q-92 0 -154.5 -65t-62.5 -154q0 -80 52 -127.5t132 -47.5z" />
    <glyph glyph-name="l.alt" horiz-adv-x="688" 
d="M498 -31q-151 0 -242.5 86t-91.5 232q0 59 12 137l182 1030h320l-186 -1061q-7 -35 -7 -57q0 -82 86 -82q46 0 103 31l76 -228q-107 -88 -252 -88z" />
    <glyph glyph-name="y.alt" horiz-adv-x="1118" 
d="M442 -512q-139 0 -258 55.5t-184 167.5l244 211q61 -131 213 -131q92 0 156 55.5t81 149.5l15 88q-115 -115 -258 -115q-131 0 -214 93.5t-83 244.5q0 39 6 80l100 555h320l-91 -502q-4 -28 -4 -51q0 -62 31.5 -100.5t89.5 -38.5q63 0 106.5 47t57.5 127l92 518h320
l-174 -989q-36 -209 -194 -337t-372 -128z" />
    <glyph glyph-name="Igrave.alt" horiz-adv-x="962" 
d="M152 283h204l144 807h-205l49 282h758l-49 -282h-205l-143 -807h204l-49 -283h-758zM500 1831l235 117l125 -398l-178 -90z" />
    <glyph glyph-name="Iacute.alt" horiz-adv-x="962" 
d="M152 283h204l144 807h-205l49 282h758l-49 -282h-205l-143 -807h204l-49 -283h-758zM627 1563l258 385l209 -133l-297 -357z" />
    <glyph glyph-name="Icircumflex.alt" horiz-adv-x="962" 
d="M152 283h204l144 807h-205l49 282h758l-49 -282h-205l-143 -807h204l-49 -283h-758zM430 1692l369 180l307 -180l-131 -209l-215 121l-271 -127z" />
    <glyph glyph-name="Idieresis.alt" horiz-adv-x="962" 
d="M152 283h204l144 807h-205l49 282h758l-49 -282h-205l-143 -807h204l-49 -283h-758zM535 1503q-70 0 -118 47.5t-48 118.5q0 80 57.5 137.5t136.5 57.5q71 0 119.5 -48t48.5 -118q0 -79 -59 -137t-137 -58zM973 1503q-70 0 -118 47.5t-48 118.5q0 80 57.5 137.5
t136.5 57.5q71 0 119.5 -48t48.5 -118q0 -79 -59 -137t-137 -58z" />
    <glyph glyph-name="agrave.alt" horiz-adv-x="1198" 
d="M539 -31q-176 0 -286 128t-110 317q0 148 69.5 277t188 205.5t256.5 76.5q86 0 160.5 -31t118.5 -100l18 100h308l-166 -942h-308l13 70q-115 -101 -262 -101zM653 264q93 0 156 64.5t63 156.5q0 84 -53 133.5t-133 49.5q-92 0 -154.5 -67t-62.5 -159q0 -83 52 -130.5
t132 -47.5zM496 1401l235 117l125 -398l-178 -90z" />
    <glyph glyph-name="aacute.alt" horiz-adv-x="1198" 
d="M539 -31q-176 0 -286 128t-110 317q0 148 69.5 277t188 205.5t256.5 76.5q86 0 160.5 -31t118.5 -100l18 100h308l-166 -942h-308l13 70q-115 -101 -262 -101zM653 264q93 0 156 64.5t63 156.5q0 84 -53 133.5t-133 49.5q-92 0 -154.5 -67t-62.5 -159q0 -83 52 -130.5
t132 -47.5zM623 1133l258 385l209 -134l-297 -356z" />
    <glyph glyph-name="acircumflex.alt" horiz-adv-x="1198" 
d="M539 -31q-176 0 -286 128t-110 317q0 148 69.5 277t188 205.5t256.5 76.5q86 0 160.5 -31t118.5 -100l18 100h308l-166 -942h-308l13 70q-115 -101 -262 -101zM653 264q93 0 156 64.5t63 156.5q0 84 -53 133.5t-133 49.5q-92 0 -154.5 -67t-62.5 -159q0 -83 52 -130.5
t132 -47.5zM446 1262l369 180l307 -180l-131 -209l-215 121l-270 -127z" />
    <glyph glyph-name="atilde.alt" horiz-adv-x="1198" 
d="M539 -31q-176 0 -286 128t-110 317q0 148 69.5 277t188 205.5t256.5 76.5q86 0 160.5 -31t118.5 -100l18 100h308l-166 -942h-308l13 70q-115 -101 -262 -101zM653 264q93 0 156 64.5t63 156.5q0 84 -53 133.5t-133 49.5q-92 0 -154.5 -67t-62.5 -159q0 -83 52 -130.5
t132 -47.5zM881 1094q-61 0 -138 43q-37 22 -73 22q-51 0 -90 -57l-129 127q34 87 98.5 132.5t140.5 45.5q60 0 119 -33q61 -33 92 -33q27 0 46 13t44 45l129 -129q-34 -87 -98.5 -131.5t-140.5 -44.5z" />
    <glyph glyph-name="adieresis.alt" horiz-adv-x="1198" 
d="M539 -31q-176 0 -286 128t-110 317q0 148 69.5 277t188 205.5t256.5 76.5q86 0 160.5 -31t118.5 -100l18 100h308l-166 -942h-308l13 70q-115 -101 -262 -101zM653 264q93 0 156 64.5t63 156.5q0 84 -53 133.5t-133 49.5q-92 0 -154.5 -67t-62.5 -159q0 -83 52 -130.5
t132 -47.5zM551 1073q-70 0 -118 47.5t-48 118.5q0 79 57.5 137t137.5 58q72 0 120 -48t48 -118q0 -79 -59 -137t-138 -58zM989 1073q-70 0 -118 47.5t-48 118.5q0 79 57.5 137t137.5 58q72 0 120 -48t48 -118q0 -79 -59 -137t-138 -58z" />
    <glyph glyph-name="aring.alt" horiz-adv-x="1198" 
d="M539 -31q-176 0 -286 128t-110 317q0 148 69.5 277t188 205.5t256.5 76.5q86 0 160.5 -31t118.5 -100l18 100h308l-166 -942h-308l13 70q-115 -101 -262 -101zM653 264q93 0 156 64.5t63 156.5q0 84 -53 133.5t-133 49.5q-92 0 -154.5 -67t-62.5 -159q0 -83 52 -130.5
t132 -47.5zM774 1004q-108 0 -185 63.5t-77 169.5q0 115 86.5 190.5t204.5 75.5q108 0 185 -62.5t77 -168.5q0 -115 -87 -191.5t-204 -76.5zM788 1186q36 0 62.5 18t26.5 51q0 34 -26.5 50t-62.5 16t-62 -18t-26 -52q0 -33 26.5 -49t61.5 -16z" />
    <glyph glyph-name="yacute.alt" horiz-adv-x="1118" 
d="M442 -512q-139 0 -258 55.5t-184 167.5l244 211q61 -131 213 -131q92 0 156 55.5t81 149.5l15 88q-115 -115 -258 -115q-131 0 -214 93.5t-83 244.5q0 39 6 80l100 555h320l-91 -502q-4 -28 -4 -51q0 -62 31.5 -100.5t89.5 -38.5q63 0 106.5 47t57.5 127l92 518h320
l-174 -989q-36 -209 -194 -337t-372 -128zM616 1133l258 385l209 -134l-297 -356z" />
    <glyph glyph-name="ydieresis.alt" horiz-adv-x="1118" 
d="M442 -512q-139 0 -258 55.5t-184 167.5l244 211q61 -131 213 -131q92 0 156 55.5t81 149.5l15 88q-115 -115 -258 -115q-131 0 -214 93.5t-83 244.5q0 39 6 80l100 555h320l-91 -502q-4 -28 -4 -51q0 -62 31.5 -100.5t89.5 -38.5q63 0 106.5 47t57.5 127l92 518h320
l-174 -989q-36 -209 -194 -337t-372 -128zM524 1073q-70 0 -118 47.5t-48 118.5q0 79 58 137t137 58q71 0 119.5 -48t48.5 -118q0 -79 -59 -137t-138 -58zM963 1073q-70 0 -118 47.5t-48 118.5q0 80 57.5 137.5t136.5 57.5q71 0 119.5 -48t48.5 -118q0 -79 -59 -137
t-137 -58z" />
    <glyph glyph-name="amacron.alt" horiz-adv-x="1198" 
d="M539 -31q-176 0 -286 128t-110 317q0 148 69.5 277t188 205.5t256.5 76.5q86 0 160.5 -31t118.5 -100l18 100h308l-166 -942h-308l13 70q-115 -101 -262 -101zM653 264q93 0 156 64.5t63 156.5q0 84 -53 133.5t-133 49.5q-92 0 -154.5 -67t-62.5 -159q0 -83 52 -130.5
t132 -47.5zM555 1356h512l-41 -226h-512z" />
    <glyph glyph-name="abreve.alt" horiz-adv-x="1198" 
d="M539 -31q-176 0 -286 128t-110 317q0 148 69.5 277t188 205.5t256.5 76.5q86 0 160.5 -31t118.5 -100l18 100h308l-166 -942h-308l13 70q-115 -101 -262 -101zM653 264q93 0 156 64.5t63 156.5q0 84 -53 133.5t-133 49.5q-92 0 -154.5 -67t-62.5 -159q0 -83 52 -130.5
t132 -47.5zM766 1053q-131 0 -218 79t-87 207q0 26 4 54h227q-2 -14 -2 -23q0 -41 25.5 -66.5t66.5 -25.5q45 0 76.5 31t38.5 84h229q-19 -157 -117.5 -248.5t-242.5 -91.5z" />
    <glyph glyph-name="aogonek.alt" horiz-adv-x="1198" 
d="M653 264q93 0 156 64.5t63 156.5q0 84 -53 133.5t-133 49.5q-92 0 -154.5 -67t-62.5 -159q0 -83 52 -130.5t132 -47.5zM913 -561q-59 0 -114 12.5t-104 39t-79 75t-30 112.5q0 102 70.5 183.5t177.5 138.5h-46l13 70q-115 -101 -262 -101q-176 0 -286 128t-110 317
q0 148 69.5 277t188 205.5t256.5 76.5q86 0 160.5 -31t118.5 -100l18 100h308l-166 -942q-81 -45 -146 -110t-65 -126q0 -38 27 -58.5t77 -20.5q23 0 53 6l-43 -246q-44 -6 -86 -6z" />
    <glyph glyph-name="gcircumflex.alt" horiz-adv-x="1202" 
d="M526 -510q-138 0 -259 57t-187 168l248 211q30 -65 85.5 -99t125.5 -34q95 0 161.5 55.5t79.5 151.5l11 72q-109 -92 -252 -92q-176 0 -286 126.5t-110 313.5q0 145 69 272.5t188 204t257 76.5q85 0 160 -32t123 -101l16 102h308l-170 -971q-37 -214 -195 -347.5
t-373 -133.5zM653 274q92 0 155.5 63.5t63.5 151.5q0 83 -53 131t-133 48q-92 0 -154.5 -65t-62.5 -154q0 -80 52 -127.5t132 -47.5zM451 1262l368 180l307 -180l-131 -209l-215 121l-270 -127z" />
    <glyph glyph-name="gbreve.alt" horiz-adv-x="1202" 
d="M526 -510q-138 0 -259 57t-187 168l248 211q30 -65 85.5 -99t125.5 -34q95 0 161.5 55.5t79.5 151.5l11 72q-109 -92 -252 -92q-176 0 -286 126.5t-110 313.5q0 145 69 272.5t188 204t257 76.5q85 0 160 -32t123 -101l16 102h308l-170 -971q-37 -214 -195 -347.5
t-373 -133.5zM653 274q92 0 155.5 63.5t63.5 151.5q0 83 -53 131t-133 48q-92 0 -154.5 -65t-62.5 -154q0 -80 52 -127.5t132 -47.5zM766 1053q-131 0 -218 79t-87 207q0 26 4 54h227q-2 -14 -2 -23q0 -41 25.5 -66.5t66.5 -25.5q45 0 76.5 31t38.5 84h229
q-19 -157 -117.5 -248.5t-242.5 -91.5z" />
    <glyph glyph-name="gdotaccent.alt" horiz-adv-x="1202" 
d="M526 -510q-138 0 -259 57t-187 168l248 211q30 -65 85.5 -99t125.5 -34q95 0 161.5 55.5t79.5 151.5l11 72q-109 -92 -252 -92q-176 0 -286 126.5t-110 313.5q0 145 69 272.5t188 204t257 76.5q85 0 160 -32t123 -101l16 102h308l-170 -971q-37 -214 -195 -347.5
t-373 -133.5zM653 274q92 0 155.5 63.5t63.5 151.5q0 83 -53 131t-133 48q-92 0 -154.5 -65t-62.5 -154q0 -80 52 -127.5t132 -47.5zM764 1073q-70 0 -118 47.5t-48 118.5q0 79 58 137t137 58q71 0 119.5 -48t48.5 -118q0 -79 -59 -137t-138 -58z" />
    <glyph glyph-name="gcommaaccent.alt" horiz-adv-x="1202" 
d="M526 -510q-138 0 -259 57t-187 168l248 211q30 -65 85.5 -99t125.5 -34q95 0 161.5 55.5t79.5 151.5l11 72q-109 -92 -252 -92q-176 0 -286 126.5t-110 313.5q0 145 69 272.5t188 204t257 76.5q85 0 160 -32t123 -101l16 102h308l-170 -971q-37 -214 -195 -347.5
t-373 -133.5zM653 274q92 0 155.5 63.5t63.5 151.5q0 83 -53 131t-133 48q-92 0 -154.5 -65t-62.5 -154q0 -80 52 -127.5t132 -47.5zM635 1120l235 469l193 -59l-186 -481z" />
    <glyph glyph-name="Imacron.alt" horiz-adv-x="962" 
d="M152 283h204l144 807h-205l49 282h758l-49 -282h-205l-143 -807h204l-49 -283h-758zM539 1786h512l-41 -225h-512z" />
    <glyph glyph-name="Ibreve.alt" horiz-adv-x="962" 
d="M152 283h204l144 807h-205l49 282h758l-49 -282h-205l-143 -807h204l-49 -283h-758zM750 1483q-132 0 -219 79t-87 207q0 19 5 54h227q-2 -14 -2 -23q0 -41 25.5 -66.5t66.5 -25.5q45 0 76.5 31t38.5 84h229q-19 -157 -117.5 -248.5t-242.5 -91.5z" />
    <glyph glyph-name="Iogonek.alt" horiz-adv-x="962" 
d="M678 -561q-59 0 -114 12.5t-104.5 39t-79.5 75t-30 112.5q0 102 70.5 183.5t177.5 138.5h-496l52 283h204l142 807h-205l49 282h758l-49 -282h-205l-141 -807h204l-51 -283q-81 -45 -146 -110t-65 -126q0 -38 27.5 -58.5t77.5 -20.5q23 0 53 6l-43 -246q-44 -6 -86 -6z
" />
    <glyph glyph-name="Idotaccent.alt" horiz-adv-x="962" 
d="M152 283h204l144 807h-205l49 282h758l-49 -282h-205l-143 -807h204l-49 -283h-758zM756 1503q-70 0 -118 47.5t-48 118.5q0 80 57.5 137.5t136.5 57.5q72 0 120 -48t48 -118q0 -79 -59 -137t-137 -58z" />
    <glyph glyph-name="lacute.alt" horiz-adv-x="688" 
d="M498 -31q-151 0 -242.5 86t-91.5 232q0 59 12 137l182 1030h320l-186 -1061q-7 -35 -7 -57q0 -82 86 -82q46 0 103 31l76 -228q-107 -88 -252 -88zM418 1614l258 385l209 -133l-297 -357z" />
    <glyph glyph-name="lcommaaccent.alt" horiz-adv-x="688" 
d="M498 -31q-151 0 -242.5 86t-91.5 232q0 59 12 137l182 1030h320l-186 -1061q-7 -35 -7 -57q0 -82 86 -82q46 0 103 31l76 -228q-107 -88 -252 -88zM104 -557l187 481l244 -71l-234 -469z" />
    <glyph glyph-name="lcaron.alt" horiz-adv-x="845" 
d="M498 -31q-151 0 -242.5 86t-91.5 232q0 59 12 137l182 1030h320l-186 -1061q-7 -35 -7 -57q0 -82 86 -82q46 0 103 31l76 -228q-107 -88 -252 -88zM692 1053l146 440l243 -55l-194 -426z" />
    <glyph glyph-name="ldot.alt" horiz-adv-x="888" 
d="M836 623q-73 0 -121.5 47.5t-48.5 120.5q0 80 58.5 140t139.5 60q73 0 121.5 -47.5t48.5 -120.5q0 -80 -58.5 -140t-139.5 -60zM498 -31q-151 0 -242.5 86t-91.5 232q0 59 12 137l182 1030h320l-186 -1061q-7 -35 -7 -57q0 -82 86 -82q46 0 103 31l76 -228
q-107 -88 -252 -88z" />
    <glyph glyph-name="lslash.alt" horiz-adv-x="731" 
d="M541 -31q-151 0 -242.5 86t-91.5 232q0 59 12 137l23 129l-160 -84l47 256l158 82l114 647h320l-82 -463l203 105l-47 -256l-201 -105l-59 -342q-7 -35 -7 -57q0 -82 86 -82q46 0 103 31l76 -228q-107 -88 -252 -88z" />
    <glyph glyph-name="ycircumflex.alt" horiz-adv-x="1118" 
d="M442 -512q-139 0 -258 55.5t-184 167.5l244 211q61 -131 213 -131q92 0 156 55.5t81 149.5l15 88q-115 -115 -258 -115q-131 0 -214 93.5t-83 244.5q0 39 6 80l100 555h320l-91 -502q-4 -28 -4 -51q0 -62 31.5 -100.5t89.5 -38.5q63 0 106.5 47t57.5 127l92 518h320
l-174 -989q-36 -209 -194 -337t-372 -128zM420 1262l368 180l308 -180l-131 -209l-215 121l-271 -127z" />
    <glyph glyph-name="aringacute.alt" horiz-adv-x="1198" 
d="M539 -31q-176 0 -286 128t-110 317q0 148 69.5 277t188 205.5t256.5 76.5q86 0 160.5 -31t118.5 -100l18 100h308l-166 -942h-308l13 70q-115 -101 -262 -101zM653 264q93 0 156 64.5t63 156.5q0 84 -53 133.5t-133 49.5q-92 0 -154.5 -67t-62.5 -159q0 -83 52 -130.5
t132 -47.5zM784 1004q-108 0 -185 63.5t-77 169.5q0 115 86.5 190.5t204.5 75.5q108 0 185 -62.5t77 -168.5q0 -115 -87 -191.5t-204 -76.5zM799 1186q35 0 61.5 18t26.5 51q0 34 -26 50t-62 16t-62 -18t-26 -52q0 -33 26.5 -49t61.5 -16zM715 1704l399 235l131 -210
l-422 -193z" />
    <glyph glyph-name="uni0233.alt" horiz-adv-x="1118" 
d="M442 -512q-139 0 -258 55.5t-184 167.5l244 211q61 -131 213 -131q92 0 156 55.5t81 149.5l15 88q-115 -115 -258 -115q-131 0 -214 93.5t-83 244.5q0 39 6 80l100 555h320l-91 -502q-4 -28 -4 -51q0 -62 31.5 -100.5t89.5 -38.5q63 0 106.5 47t57.5 127l92 518h320
l-174 -989q-36 -209 -194 -337t-372 -128zM528 1356h512l-41 -226h-512z" />
    <glyph glyph-name="uni0406.alt" horiz-adv-x="962" 
d="M152 283h204l144 807h-205l49 282h758l-49 -282h-205l-143 -807h204l-49 -283h-758z" />
    <glyph glyph-name="uni0407.alt" horiz-adv-x="962" 
d="M152 283h204l144 807h-205l49 282h758l-49 -282h-205l-143 -807h204l-49 -283h-758zM535 1503q-70 0 -118 47.5t-48 118.5q0 80 57.5 137.5t136.5 57.5q71 0 119.5 -48t48.5 -118q0 -79 -59 -137t-137 -58zM973 1503q-70 0 -118 47.5t-48 118.5q0 80 57.5 137.5
t136.5 57.5q71 0 119.5 -48t48.5 -118q0 -79 -59 -137t-137 -58z" />
    <glyph glyph-name="uni0430.alt" horiz-adv-x="1198" 
d="M539 -31q-176 0 -286 128t-110 317q0 148 69.5 277t188 205.5t256.5 76.5q86 0 160.5 -31t118.5 -100l18 100h308l-166 -942h-308l13 70q-115 -101 -262 -101zM653 264q93 0 156 64.5t63 156.5q0 84 -53 133.5t-133 49.5q-92 0 -154.5 -67t-62.5 -159q0 -83 52 -130.5
t132 -47.5z" />
    <glyph glyph-name="uni0443.alt" horiz-adv-x="1118" 
d="M442 -512q-139 0 -258 55.5t-184 167.5l244 211q61 -131 213 -131q92 0 156 55.5t81 149.5l15 88q-115 -115 -258 -115q-131 0 -214 93.5t-83 244.5q0 39 6 80l100 555h320l-91 -502q-4 -28 -4 -51q0 -62 31.5 -100.5t89.5 -38.5q63 0 106.5 47t57.5 127l92 518h320
l-174 -989q-36 -209 -194 -337t-372 -128z" />
    <glyph glyph-name="uni045E.alt" horiz-adv-x="1118" 
d="M442 -512q-139 0 -258 55.5t-184 167.5l244 211q61 -131 213 -131q92 0 156 55.5t81 149.5l15 88q-115 -115 -258 -115q-131 0 -214 93.5t-83 244.5q0 39 6 80l100 555h320l-91 -502q-4 -28 -4 -51q0 -62 31.5 -100.5t89.5 -38.5q63 0 106.5 47t57.5 127l92 518h320
l-174 -989q-36 -209 -194 -337t-372 -128zM739 1049q-135 0 -222 79.5t-87 212.5q0 24 4 52h240q-2 -16 -2 -31q0 -43 21 -67.5t61 -24.5q85 0 106 123h242q-19 -158 -117 -251t-246 -93z" />
    <glyph glyph-name="ygrave.alt" horiz-adv-x="1118" 
d="M442 -512q-139 0 -258 55.5t-184 167.5l244 211q61 -131 213 -131q92 0 156 55.5t81 149.5l15 88q-115 -115 -258 -115q-131 0 -214 93.5t-83 244.5q0 39 6 80l100 555h320l-91 -502q-4 -28 -4 -51q0 -62 31.5 -100.5t89.5 -38.5q63 0 106.5 47t57.5 127l92 518h320
l-174 -989q-36 -209 -194 -337t-372 -128zM489 1401l236 117l125 -398l-178 -90z" />
    <glyph glyph-name="fl.alt" horiz-adv-x="1378" 
d="M1188 -31q-152 0 -243 88.5t-91 247.5q0 47 8 94l101 582q4 28 4 45q0 61 -36 100t-97 39q-62 0 -106 -44t-56 -117l-10 -62h184l-45 -246h-185l-122 -696h-320l123 696h-143l45 246h143l10 68q29 201 169 322.5t327 121.5q185 0 311.5 -114.5t126.5 -301.5q0 -50 -8 -86
l-94 -549q-8 -44 -8 -67q0 -82 86 -82q45 0 102 31l76 -228q-107 -88 -252 -88z" />
    <glyph glyph-name="ffl.alt" horiz-adv-x="2015" 
d="M1825 -31q-152 0 -243 88.5t-91 247.5q0 47 8 94l100 582q5 35 5 45q0 61 -36.5 100t-97.5 39q-62 0 -105.5 -43.5t-55.5 -117.5l-11 -62h185l-45 -246h-185l-123 -696h-319l123 696h-318l-122 -696h-320l123 696h-143l45 246h143l23 139q31 177 138 275t267 98
q182 0 297 -121l-180 -200q-42 55 -94 55q-44 0 -73 -33.5t-40 -93.5l-18 -119h317l10 68q29 201 169 322.5t327 121.5q185 0 311.5 -114.5t126.5 -301.5q0 -50 -8 -86l-94 -549q-9 -50 -9 -67q0 -82 86 -82q46 0 103 31l76 -228q-107 -88 -252 -88z" />
    <glyph glyph-name="parenleft.case" horiz-adv-x="833" 
d="M516 -348q-136 155 -209.5 364t-73.5 439q0 361 172 693t465 531l181 -192q-237 -177 -368.5 -456.5t-131.5 -581.5q0 -382 207 -642z" />
    <glyph glyph-name="parenright.case" horiz-adv-x="833" 
d="M14 -156q237 173 368.5 455t131.5 584q0 381 -207 641l242 155q136 -155 209 -363.5t73 -438.5q0 -361 -171.5 -694t-464.5 -531z" />
    <glyph glyph-name="hyphen.case" horiz-adv-x="655" 
d="M225 819h492l-49 -287h-492z" />
    <glyph glyph-name="colon.case" horiz-adv-x="593" 
d="M336 123q-73 0 -121.5 47.5t-48.5 120.5q0 80 59 140.5t140 60.5q73 0 121.5 -47.5t48.5 -120.5q0 -80 -59 -140.5t-140 -60.5zM444 737q-73 0 -121.5 47.5t-48.5 120.5q0 80 59 140.5t140 60.5q73 0 121.5 -47.5t48.5 -120.5q0 -80 -59 -140.5t-140 -60.5z" />
    <glyph glyph-name="at.case" horiz-adv-x="2076" 
d="M764 -252q-251 86 -392 293.5t-141 486.5q0 206 80.5 391t218 318.5t329 212t405.5 78.5q179 0 336 -56t269 -153.5t177 -236.5t65 -298q0 -241 -138 -402t-345 -161q-92 0 -172 34t-121 99q-116 -141 -286 -141q-146 0 -240 101t-94 251q0 111 53 211t148 162.5
t206 62.5q145 0 236 -88l14 86h256l-67 -381q-7 -35 -7 -55q0 -117 97 -117q85 0 140.5 90.5t55.5 225.5q0 97 -32.5 181t-89 145.5t-132.5 105.5t-164.5 66t-183.5 22q-154 0 -292.5 -58.5t-238 -157.5t-158 -235.5t-58.5 -287.5q0 -202 100.5 -352t280.5 -216zM1133 449
q71 0 118 52t47 122q0 63 -39 103t-100 40q-72 0 -119 -52.5t-47 -123.5q0 -63 39 -102t101 -39z" />
    <glyph glyph-name="bracketleft.case" horiz-adv-x="778" 
d="M455 1597h540l-49 -286h-233l-232 -1311h234l-51 -287h-541z" />
    <glyph glyph-name="bracketright.case" horiz-adv-x="778" 
d="M63 0h234l231 1311h-233l49 286h541l-332 -1884h-541z" />
    <glyph glyph-name="braceleft.case" horiz-adv-x="761" 
d="M637 -287q-185 0 -285 88t-100 248q0 46 8 90l39 217q2 6 2 27q0 57 -39.5 93t-99.5 36l51 287h27q63 0 105 32.5t52 92.5l54 299q35 192 135.5 283t279.5 91h115l-51 -286h-43q-54 0 -88 -29.5t-45 -83.5l-47 -274q-20 -117 -70.5 -187t-120.5 -84l-2 -8
q104 -40 104 -182q0 -49 -12 -111l-39 -219q-2 -8 -2 -27q0 -46 27 -76t78 -30h28l-51 -287h-10z" />
    <glyph glyph-name="braceright.case" horiz-adv-x="761" 
d="M61 0h43q54 0 88.5 29.5t45.5 83.5l47 274q20 117 70 186.5t120 83.5l2 9q-104 40 -104 182q0 48 12 110l39 220q2 8 2 26q0 46 -26.5 76.5t-77.5 30.5h-29l51 286h10q185 0 285 -87.5t100 -247.5q0 -47 -8 -91l-39 -217q-2 -6 -2 -26q0 -57 39.5 -93t99.5 -36l-51 -287
h-26q-64 0 -106 -33t-52 -92l-53 -299q-35 -192 -136 -283.5t-280 -91.5h-115z" />
    <glyph glyph-name="exclamdown.case" horiz-adv-x="593" 
d="M334 901h246l-119 -901h-328zM496 1024q-73 0 -121.5 47.5t-48.5 120.5q0 80 58.5 140.5t139.5 60.5q73 0 121.5 -47.5t48.5 -120.5q0 -80 -58.5 -140.5t-139.5 -60.5z" />
    <glyph glyph-name="guillemotleft.case" horiz-adv-x="1095" 
d="M176 655l367 432l182 -139l-252 -297l145 -293l-225 -137zM612 657l367 433l182 -140l-252 -297l146 -293l-226 -137z" />
    <glyph glyph-name="periodcentered.case" horiz-adv-x="450" 
d="M330 492q-73 0 -121.5 47t-48.5 120q0 80 58.5 140.5t139.5 60.5q73 0 121.5 -47.5t48.5 -120.5q0 -80 -58.5 -140t-139.5 -60z" />
    <glyph glyph-name="guillemotright.case" horiz-adv-x="1097" 
d="M166 360l254 297l-146 293l226 137l215 -434l-367 -432zM602 362l254 297l-145 293l225 138l217 -435l-369 -432z" />
    <glyph glyph-name="questiondown.case" horiz-adv-x="974" 
d="M541 -31q-189 0 -302.5 86.5t-113.5 229.5q0 97 63.5 170.5t214.5 160.5q49 28 66.5 45t17.5 44q0 20 -13.5 33t-51.5 30l158 221q129 -31 199.5 -98t70.5 -160q0 -42 -16 -80t-37 -64t-57.5 -54.5t-60 -43t-63.5 -36.5q-71 -38 -105 -67t-34 -67q0 -36 31.5 -56.5
t85.5 -20.5q114 0 227 98l135 -213q-99 -84 -197.5 -121t-217.5 -37zM717 1024q-73 0 -121.5 47.5t-48.5 120.5q0 80 58.5 140.5t139.5 60.5q73 0 121.5 -47.5t48.5 -120.5q0 -80 -58.5 -140.5t-139.5 -60.5z" />
    <glyph glyph-name="endash.case" horiz-adv-x="1021" 
d="M180 799h942l-43 -246h-942z" />
    <glyph glyph-name="emdash.case" horiz-adv-x="1472" 
d="M180 799h1393l-43 -246h-1393z" />
    <glyph glyph-name="bullet.case" horiz-adv-x="843" 
d="M526 461q-86 0 -144 55.5t-58 140.5q0 94 70.5 164t164.5 70q85 0 142 -55.5t57 -141.5q0 -93 -69.5 -163t-162.5 -70z" />
    <glyph glyph-name="guilsinglleft.case" horiz-adv-x="733" 
d="M156 655l501 439l156 -174l-315 -277l207 -262l-203 -164z" />
    <glyph glyph-name="guilsinglright.case" horiz-adv-x="731" 
d="M150 391l313 277l-207 262l203 164l346 -439l-500 -438z" />
    <glyph glyph-name="zero.dnom" horiz-adv-x="823" 
d="M442 -33q-160 0 -256 104t-96 271q0 91 30 177.5t84.5 155t138 110.5t181.5 42q159 0 254.5 -102t95.5 -270q0 -91 -30 -177.5t-84 -156t-137 -112t-181 -42.5zM457 225q35 0 62 24t41.5 61t22 73.5t7.5 67.5q0 50 -19.5 85t-62.5 35q-35 0 -62 -24.5t-41.5 -61
t-22 -73.5t-7.5 -68q0 -49 19.5 -84t62.5 -35z" />
    <glyph glyph-name="one.dnom" horiz-adv-x="686" 
d="M381 471l-176 -86l-82 195l442 239h144l-146 -819h-266z" />
    <glyph glyph-name="two.dnom" horiz-adv-x="831" 
d="M92 143l264 193q104 75 143.5 115.5t39.5 72.5q0 23 -16.5 37t-45.5 14q-77 0 -98 -90l-246 90q49 122 147 188t224 66q61 0 118.5 -17t104.5 -48.5t75.5 -82.5t28.5 -114q0 -51 -17 -93.5t-51.5 -79t-66.5 -61t-82 -57.5l-82 -51h259l-41 -225h-684z" />
    <glyph glyph-name="three.dnom" horiz-adv-x="792" 
d="M414 -31q-73 0 -142.5 19.5t-130 70t-78.5 123.5l203 115q16 -44 54 -66t83 -22q40 0 63 16.5t23 42.5q0 29 -27.5 45.5t-76.5 16.5h-70l25 143l141 121h-258l35 205h571l-24 -144l-205 -184q79 -33 124.5 -94t45.5 -139q0 -83 -54 -146t-133.5 -93t-168.5 -30z" />
    <glyph glyph-name="four.dnom" horiz-adv-x="788" 
d="M410 113h-410l33 184l542 522h185l-90 -512h102l-35 -194h-102l-21 -113h-225zM444 307l29 166l-174 -166h145z" />
    <glyph glyph-name="five.dnom" horiz-adv-x="772" 
d="M389 -31q-68 0 -134.5 17.5t-126 63t-79.5 110.5l215 135q34 -88 119 -88q43 0 70.5 20t27.5 56q0 34 -26 52.5t-66 18.5q-58 0 -100 -39l-123 88l117 396h530l-35 -205h-329l-17 -57q28 4 47 4q115 0 201 -71.5t86 -193.5q0 -140 -111.5 -223.5t-265.5 -83.5z" />
    <glyph glyph-name="six.dnom" horiz-adv-x="753" 
d="M401 -31q-67 0 -127 17t-110 52t-79.5 95.5t-29.5 140.5q0 83 33 161t88 138.5t127 111.5t149 85.5t156 54.5l78 -207q-176 -38 -274 -122q43 14 92 14q110 0 186 -66t76 -180q0 -136 -107 -215.5t-258 -79.5zM401 182q36 0 59 27.5t23 64.5q0 31 -19 49.5t-50 18.5
q-37 0 -59.5 -26.5t-22.5 -63.5q0 -32 19 -51t50 -19z" />
    <glyph glyph-name="seven.dnom" horiz-adv-x="665" 
d="M463 557h-303l43 242h624l-28 -164l-385 -635h-289z" />
    <glyph glyph-name="eight.dnom" horiz-adv-x="794" 
d="M438 -31q-56 0 -114 14t-111.5 41.5t-87 76.5t-33.5 112q0 73 44 131t114 88q-74 61 -74 156q0 79 51 135.5t122.5 81t150.5 24.5q54 0 109 -13.5t104.5 -40t80.5 -73t31 -104.5q0 -66 -37.5 -119.5t-99.5 -83.5q90 -69 90 -174q0 -81 -54 -140.5t-129 -85.5t-157 -26z
M436 170q36 0 59 26t23 62q0 31 -19 49.5t-50 18.5q-38 0 -62.5 -23.5t-24.5 -60.5q0 -34 20.5 -53t53.5 -19zM489 500q30 0 48 22t18 53q0 24 -14 40t-39 16q-31 0 -48.5 -21.5t-17.5 -52.5q0 -26 14 -41.5t39 -15.5z" />
    <glyph glyph-name="nine.dnom" horiz-adv-x="753" 
d="M211 180q175 37 274 123q-43 -14 -92 -14q-110 0 -186 66t-76 180q0 136 107 215t258 79q67 0 127 -17t110 -52t79.5 -95.5t29.5 -140.5q0 -83 -33 -161t-88 -138.5t-127 -111.5t-149 -85.5t-156 -54.5zM483 457q37 0 59.5 26.5t22.5 63.5q0 32 -19 50.5t-50 18.5
q-36 0 -59 -27.5t-23 -64.5q0 -31 19 -49t50 -18z" />
    <glyph glyph-name="Iacute_J.loclNLD" horiz-adv-x="1671" 
d="M385 1372h348l-241 -1372h-349zM1079 -31q-144 0 -259.5 70t-153.5 201l284 186q21 -61 56 -94t94 -33q66 0 113 43t59 115l102 587h-338l58 328h686l-164 -934q-37 -211 -185.5 -340t-351.5 -129zM465 1563l258 385l209 -133l-297 -357zM1339 1563l258 385l211 -133
l-299 -357z" />
    <glyph glyph-name="iacute_j.loclNLD" horiz-adv-x="1052" 
d="M268 942h320l-166 -942h-320zM539 -512q-133 0 -224 68l146 249q26 -26 61 -26q69 0 84 84l189 1079h319l-192 -1102q-28 -162 -132 -257t-251 -95zM336 1133l258 385l209 -134l-297 -356zM860 1133l258 385l209 -134l-297 -356z" />
    <glyph glyph-name="zero.numr" horiz-adv-x="823" 
d="M543 541q-160 0 -256.5 103.5t-96.5 270.5q0 91 30.5 177.5t84.5 155.5t138 111t182 42q159 0 254.5 -102.5t95.5 -270.5q0 -123 -50.5 -232.5t-151.5 -182t-230 -72.5zM557 799q35 0 62 24t41.5 60.5t22 73t7.5 67.5q0 50 -19.5 85.5t-62.5 35.5q-35 0 -62 -24.5
t-41.5 -61t-22 -73.5t-7.5 -68q0 -49 19.5 -84t62.5 -35z" />
    <glyph glyph-name="one.numr" horiz-adv-x="686" 
d="M483 1044l-176 -86l-82 195l443 240h143l-145 -820h-267z" />
    <glyph glyph-name="two.numr" horiz-adv-x="831" 
d="M193 717l264 192q103 74 142.5 115t39.5 74q0 24 -16 37.5t-45 13.5q-78 0 -99 -90l-246 90q49 122 147 188t224 66q83 0 156 -28t122.5 -89.5t49.5 -144.5q0 -51 -17 -93.5t-51.5 -79t-66.5 -61t-82 -57.5l-82 -51h258l-41 -226h-684z" />
    <glyph glyph-name="three.numr" horiz-adv-x="792" 
d="M516 543q-54 0 -107 12t-103.5 36t-88 66.5t-51.5 98.5l203 114q16 -44 54 -66t83 -22q40 0 63 17t23 43q0 29 -27.5 45t-77.5 16h-69l24 144l142 120h-258l34 205h572l-25 -143l-205 -185q79 -33 124.5 -94t45.5 -139q0 -83 -54 -146t-133.5 -92.5t-168.5 -29.5z" />
    <glyph glyph-name="four.numr" horiz-adv-x="788" 
d="M512 686h-410l33 184l543 523h184l-90 -512h102l-34 -195h-103l-20 -113h-225zM547 881l28 166l-174 -166h146z" />
    <glyph glyph-name="five.numr" horiz-adv-x="772" 
d="M492 543q-110 0 -210 47.5t-130 142.5l215 135q34 -88 118 -88q43 0 71 20t28 56q0 34 -26 53t-66 19q-59 0 -101 -39l-123 88l117 395h530l-34 -205h-330l-16 -57q28 4 47 4q115 0 200.5 -71t85.5 -193q0 -140 -111 -223.5t-265 -83.5z" />
    <glyph glyph-name="six.numr" horiz-adv-x="753" 
d="M504 543q-67 0 -127 17t-110 52t-79.5 95.5t-29.5 140.5q0 83 33 161t88 138.5t127 111.5t149 85.5t156 54.5l77 -207q-175 -37 -274 -123q43 14 92 14q110 0 186 -65.5t76 -179.5q0 -136 -106.5 -215.5t-257.5 -79.5zM504 756q36 0 59 27.5t23 64.5q0 30 -19.5 48.5
t-50.5 18.5q-37 0 -59.5 -26.5t-22.5 -63.5q0 -32 19.5 -50.5t50.5 -18.5z" />
    <glyph glyph-name="seven.numr" horiz-adv-x="665" 
d="M565 1130h-303l43 242h625l-29 -164l-385 -635h-289z" />
    <glyph glyph-name="eight.numr" horiz-adv-x="794" 
d="M541 543q-44 0 -90 8t-92.5 27t-82.5 46t-58.5 69t-22.5 93q0 73 43.5 131.5t113.5 88.5q-73 61 -73 155q0 79 50.5 135.5t122 81.5t150.5 25q54 0 109 -13.5t105 -40.5t81 -73.5t31 -104.5q0 -66 -37.5 -119t-99.5 -83q90 -69 90 -174q0 -81 -54 -140.5t-129 -85.5
t-157 -26zM539 743q36 0 59 26t23 62q0 31 -19.5 49.5t-50.5 18.5q-38 0 -62 -23.5t-24 -60.5q0 -34 20.5 -53t53.5 -19zM592 1073q29 0 47 22.5t18 53.5q0 24 -14 39.5t-39 15.5q-31 0 -48 -21.5t-17 -52.5q0 -26 14 -41.5t39 -15.5z" />
    <glyph glyph-name="nine.numr" horiz-adv-x="753" 
d="M311 754q176 38 275 123q-47 -15 -92 -15q-110 0 -186.5 66t-76.5 180q0 136 107 215.5t258 79.5q67 0 127 -17t110 -52t79.5 -95.5t29.5 -140.5q0 -83 -33 -161t-88 -138.5t-127 -111.5t-149 -85.5t-156 -54.5zM584 1030q37 0 59.5 26.5t22.5 63.5q0 32 -19.5 51
t-50.5 19q-36 0 -59 -27.5t-23 -64.5q0 -31 19.5 -49.5t50.5 -18.5z" />
    <glyph glyph-name="zero.osf" horiz-adv-x="1107" 
d="M590 -31q-130 0 -230 65t-151 171.5t-51 234.5q0 110 40.5 217t110 190.5t171 135t214.5 51.5q128 0 227.5 -64t152 -170.5t52.5 -234.5q0 -149 -67.5 -285t-192.5 -223.5t-276 -87.5zM608 256q49 0 88.5 31.5t62 79.5t34.5 99t12 97t-11 85t-41.5 69.5t-76.5 30.5
q-64 0 -111 -55t-66.5 -123t-19.5 -132q0 -74 31 -128t98 -54z" />
    <glyph glyph-name="one.osf" horiz-adv-x="731" 
d="M401 592l-163 -100l-121 233l475 289h205l-181 -1014h-319z" />
    <glyph glyph-name="two.osf" horiz-adv-x="1044" 
d="M129 176q24 140 111.5 216.5t294.5 146.5q120 39 171.5 71t51.5 70q0 31 -28 49.5t-73 18.5q-120 0 -188 -130l-260 105q64 152 189.5 231.5t281.5 79.5q76 0 146.5 -20t129.5 -58.5t94 -102.5t35 -144q0 -74 -28 -132t-86 -102t-128 -76t-173 -65q-98 -36 -113 -49
q-12 -7 -16 -19h479l-47 -266h-875z" />
    <glyph glyph-name="three.osf" horiz-adv-x="1038" 
d="M473 -317q-105 0 -197.5 34t-165 107t-100.5 176l285 147q45 -178 192 -178q77 0 131 44t54 114q0 67 -54.5 106t-148.5 39h-137l37 211l276 254h-401l47 267h819l-33 -187l-325 -299q117 -47 181 -142t64 -224q0 -134 -73 -242.5t-192.5 -167.5t-258.5 -59z" />
    <glyph glyph-name="four.osf" horiz-adv-x="1105" 
d="M612 0h-571l37 205l794 809h205l-135 -768h186l-43 -246h-186l-55 -317h-287zM655 246l47 268l-260 -268h213z" />
    <glyph glyph-name="five.osf" horiz-adv-x="1071" 
d="M477 -317q-108 0 -203 33.5t-170 106.5t-104 177l285 147q53 -178 204 -178q86 0 142.5 52t56.5 131q0 76 -53.5 115.5t-128.5 39.5q-81 0 -127 -41l-178 109l192 629h707l-47 -267h-457l-47 -151q16 2 53 2q180 0 296 -112.5t116 -295.5q0 -142 -73 -256.5
t-195.5 -177.5t-268.5 -63z" />
    <glyph glyph-name="six.osf" horiz-adv-x="1116" 
d="M610 -31q-199 0 -326.5 120t-127.5 333q0 124 47.5 244t126 217.5t183 184.5t214.5 150t225 109l125 -237q-124 -49 -238 -119.5t-177 -136.5q36 4 63 4q172 0 291 -109.5t119 -288.5q0 -134 -71 -242.5t-191 -168.5t-263 -60zM631 246q77 0 127.5 50.5t50.5 123.5
q0 67 -44 106t-112 39q-77 0 -126.5 -50t-49.5 -124q0 -69 44 -107t110 -38z" />
    <glyph glyph-name="seven.osf" horiz-adv-x="1044" 
d="M700 717h-501l49 287h891l-35 -201l-686 -1120h-350z" />
    <glyph glyph-name="eight.osf" horiz-adv-x="1153" 
d="M635 -31q-89 0 -174.5 23.5t-158.5 68t-118 120t-45 169.5q0 118 65.5 211t176.5 150q-90 90 -90 221q0 117 69.5 208t174.5 136t223 45q80 0 156 -22t140 -64t103 -111t39 -155q0 -98 -48 -179.5t-134 -136.5q129 -99 129 -270q0 -96 -43.5 -176t-116 -131t-162.5 -79
t-186 -28zM637 236q80 0 133 47t53 120q0 70 -50.5 108t-119.5 38q-79 0 -132.5 -48t-53.5 -122q0 -71 51 -107t119 -36zM729 801q65 0 102 41t37 100q0 56 -33 83.5t-85 27.5q-65 0 -103.5 -39.5t-38.5 -100.5q0 -56 34.5 -84t86.5 -28z" />
    <glyph glyph-name="nine.osf" horiz-adv-x="1136" 
d="M236 -86q130 52 243.5 121t171.5 135q-36 -4 -63 -4q-172 0 -291 109t-119 288q0 134 71 242.5t190.5 168.5t262.5 60q199 0 327 -119.5t128 -332.5q0 -125 -48 -245.5t-126 -218t-183 -184t-215 -149.5t-225 -109zM659 438q77 0 127 50t50 124q0 69 -44 107.5t-110 38.5
q-77 0 -127.5 -50.5t-50.5 -123.5q0 -67 43.5 -106.5t111.5 -39.5z" />
    <glyph glyph-name="zero.tab" horiz-adv-x="1167" 
d="M623 -31q-119 0 -212.5 45t-151.5 124.5t-88 184t-30 228.5q0 114 23.5 230t76 228.5t126.5 199.5t184 140.5t240 53.5q156 0 266 -76.5t161.5 -204.5t51.5 -295q0 -93 -17 -190.5t-50 -194t-87.5 -181.5t-124 -150.5t-164.5 -103.5t-204 -38zM643 299q69 0 123 61.5
t82.5 153t42.5 178t14 156.5q0 39 -5.5 74t-19 71.5t-42.5 58t-70 21.5q-57 0 -103.5 -42t-75 -104.5t-48 -139.5t-27.5 -142.5t-8 -118.5q0 -42 5.5 -78t19.5 -71.5t42.5 -56.5t69.5 -21z" />
    <glyph glyph-name="one.tab" horiz-adv-x="1167" 
d="M158 317h338l106 603l-237 -150l-134 254l600 369h203l-190 -1076h317l-55 -317h-1004z" />
    <glyph glyph-name="two.tab" horiz-adv-x="1167" 
d="M158 258q29 174 131 280t342 212q163 74 225 124t62 109q0 51 -39.5 82t-102.5 31q-146 0 -225 -166l-289 117q86 176 223 266t318 90q204 0 334.5 -111t130.5 -288q0 -94 -39 -173.5t-114 -143.5t-160 -112t-203 -98q-126 -53 -184 -90t-58 -70h641l-55 -317h-981z" />
    <glyph glyph-name="three.tab" horiz-adv-x="1167" 
d="M608 -31q-106 0 -203.5 33t-176.5 107t-111 178l284 149q53 -160 209 -160q82 0 140.5 45t58.5 117t-58.5 112t-158.5 40h-160l35 205l313 290h-432l51 287h873l-35 -201l-354 -337q130 -50 202 -150.5t72 -234.5q0 -105 -45 -195.5t-121 -152.5t-175.5 -97t-207.5 -35z
" />
    <glyph glyph-name="four.tab" horiz-adv-x="1167" 
d="M694 195h-620l37 208l897 990h209l-162 -918h164l-50 -280h-163l-35 -195h-312zM743 475l58 322l-289 -322h231z" />
    <glyph glyph-name="five.tab" horiz-adv-x="1167" 
d="M594 -31q-108 0 -206 33t-178 107t-112 178l285 149q60 -160 211 -160q93 0 152 52.5t59 136.5q0 78 -51 123t-136 45q-78 0 -137 -47l-176 108l201 678h747l-51 -287h-495l-45 -155q32 4 59 4q185 0 309.5 -123.5t124.5 -318.5q0 -148 -75 -268.5t-203.5 -187.5
t-282.5 -67z" />
    <glyph glyph-name="six.tab" horiz-adv-x="1167" 
d="M633 -31q-104 0 -195 31.5t-160.5 91t-110 154t-40.5 211.5q0 133 52 263t138 236t200 199.5t235 161.5t245 113l138 -254q-310 -135 -471 -283q49 14 106 14q183 0 310.5 -122.5t127.5 -311.5q0 -109 -47 -204.5t-126 -160.5t-183.5 -102t-218.5 -37zM659 276
q81 0 140 48t59 125q0 75 -57 116t-133 41q-81 0 -140 -47.5t-59 -124.5q0 -76 57 -117t133 -41z" />
    <glyph glyph-name="seven.tab" horiz-adv-x="1167" 
d="M858 1055h-579l55 317h1024l-35 -201l-805 -1171h-385z" />
    <glyph glyph-name="eight.tab" horiz-adv-x="1167" 
d="M647 -31q-74 0 -146.5 14t-142 45t-122.5 76.5t-85 114t-32 150.5q0 125 69.5 225.5t188.5 155.5q-109 100 -109 245q0 92 45 171t117.5 129.5t162 79t181.5 28.5q67 0 134 -14.5t129 -46t109.5 -75t76 -106t28.5 -135.5q0 -107 -55.5 -194.5t-151.5 -139.5
q140 -115 140 -293q0 -102 -46 -185.5t-122.5 -135.5t-171.5 -80.5t-197 -28.5zM653 256q79 0 133 47t54 121t-52.5 111.5t-125.5 37.5q-80 0 -134.5 -46t-54.5 -119t54 -112.5t126 -39.5zM748 858q64 0 108.5 39t44.5 98q0 57 -38.5 88t-96.5 31q-64 0 -109 -38.5
t-45 -98.5q0 -57 40.5 -88t95.5 -31z" />
    <glyph glyph-name="nine.tab" horiz-adv-x="1167" 
d="M279 197q312 136 471 282q-49 -14 -107 -14q-183 0 -310.5 122.5t-127.5 311.5q0 109 47 204.5t126 160.5t183.5 102t218.5 37q103 0 194 -32t161 -92.5t110.5 -154t40.5 -209.5q0 -133 -52 -263t-138 -236t-200 -199t-235 -161t-245 -113zM745 766q81 0 140 47.5
t59 124.5q0 76 -57 117t-133 41q-81 0 -140 -47.5t-59 -124.5q0 -75 57 -116.5t133 -41.5z" />
    <glyph glyph-name="zero.tabosf" 
d="M569 -31q-130 0 -230 65t-151 171.5t-51 234.5q0 110 41 217t110.5 190.5t171 135t214.5 51.5q128 0 227.5 -64t152 -170.5t52.5 -234.5q0 -111 -40.5 -218.5t-110 -191t-171 -135t-215.5 -51.5zM588 256q49 0 88 31.5t61.5 79.5t34.5 99t12 97t-11 85t-41.5 69.5
t-76.5 30.5q-49 0 -88 -32t-61.5 -80.5t-34.5 -100t-12 -97.5q0 -74 31 -128t98 -54z" />
    <glyph glyph-name="one.tabosf" 
d="M147 266h318l57 324l-229 -139l-121 233l537 330h209l-134 -748h287l-47 -266h-924z" />
    <glyph glyph-name="two.tabosf" 
d="M139 176q24 140 111.5 216.5t294.5 146.5q120 39 171.5 71t51.5 70q0 31 -28 49.5t-72 18.5q-121 0 -189 -130l-260 105q64 152 189.5 231.5t281.5 79.5q76 0 147 -20t129.5 -58.5t94 -102.5t35.5 -144q0 -74 -28 -132t-86 -102t-128.5 -76t-173.5 -65q-98 -36 -113 -49
q-12 -7 -16 -19h479l-47 -266h-874z" />
    <glyph glyph-name="three.tabosf" 
d="M489 -317q-105 0 -197.5 34t-164.5 107t-100 176l284 147q45 -178 193 -178q77 0 130.5 44t53.5 114q0 67 -54.5 106t-148.5 39h-137l37 211l277 254h-402l47 267h819l-32 -187l-326 -299q117 -47 181.5 -142.5t64.5 -223.5q0 -134 -73 -242.5t-193 -167.5t-259 -59z" />
    <glyph glyph-name="four.tabosf" 
d="M602 0h-571l37 205l794 809h205l-135 -768h186l-43 -246h-186l-55 -317h-287zM645 246l47 268l-260 -268h213z" />
    <glyph glyph-name="five.tabosf" 
d="M489 -317q-108 0 -203 33.5t-170 106.5t-104 177l285 147q53 -178 205 -178q86 0 142 51.5t56 131.5q0 76 -53.5 115.5t-128.5 39.5q-81 0 -127 -41l-178 109l193 629h706l-47 -267h-457l-47 -151q16 2 53 2q180 0 296 -112.5t116 -295.5q0 -142 -73 -256.5
t-195.5 -177.5t-268.5 -63z" />
    <glyph glyph-name="six.tabosf" 
d="M582 -31q-199 0 -327 120t-128 333q0 124 48 244t126 217.5t183 184.5t215 150t225 109l125 -237q-125 -50 -239 -120t-177 -136q36 4 63 4q172 0 291 -109.5t119 -288.5q0 -134 -71 -242.5t-190.5 -168.5t-262.5 -60zM602 246q77 0 127.5 50.5t50.5 123.5
q0 67 -43.5 106t-111.5 39q-77 0 -126.5 -50t-49.5 -124q0 -69 43.5 -107t109.5 -38z" />
    <glyph glyph-name="seven.tabosf" 
d="M721 717h-502l49 287h891l-35 -201l-686 -1120h-350z" />
    <glyph glyph-name="eight.tabosf" 
d="M594 -31q-89 0 -174.5 23.5t-158.5 68t-118 120t-45 169.5q0 118 65.5 211t176.5 150q-90 90 -90 221q0 117 69.5 208t174.5 136t223 45q80 0 156 -22t140 -64t103 -111t39 -155q0 -98 -48 -179.5t-134 -136.5q129 -99 129 -270q0 -96 -43.5 -176t-116 -131t-162.5 -79
t-186 -28zM596 236q80 0 133 47t53 120q0 70 -50.5 108t-119.5 38q-79 0 -132.5 -48t-53.5 -122q0 -71 51 -107t119 -36zM688 801q65 0 102 41t37 100q0 56 -33 83.5t-85 27.5q-65 0 -103.5 -39.5t-38.5 -100.5q0 -56 34.5 -84t86.5 -28z" />
    <glyph glyph-name="nine.tabosf" 
d="M195 -86q130 52 243.5 121t171.5 135q-36 -4 -63 -4q-172 0 -291 109t-119 288q0 134 71 242.5t191 168.5t263 60q199 0 326.5 -119.5t127.5 -332.5q0 -125 -48 -245.5t-126 -218t-183 -184t-215 -149.5t-225 -109zM618 438q77 0 127 50t50 124q0 69 -44 107.5t-110 38.5
q-77 0 -127.5 -50.5t-50.5 -123.5q0 -67 43.5 -106.5t111.5 -39.5z" />
    <glyph glyph-name="foundryicon" horiz-adv-x="3149" 
d="M475 879h-145v63h364v-63h-147v-408h-72v408zM715 346q-17 0 -21 2v58q49 0 64 40l12 33l-129 326h76l90 -238l90 238h76l-158 -389q-34 -70 -100 -70zM1022 805h49l19 -39q38 45 98 45q66 0 112 -50t46 -122q0 -73 -46 -123.5t-112 -50.5q-59 0 -96 43v-162h-70v459z
M1182 528q39 0 67.5 32t28.5 79q0 43 -29 74.5t-67 31.5q-41 0 -69 -31.5t-28 -74.5q0 -47 28 -79t69 -32zM1561 465q-66 0 -113 50.5t-47 123.5q0 71 46.5 121.5t113.5 50.5q66 0 110.5 -49t44.5 -121q0 -3 -1 -9t-1 -9v-13h-244q5 -36 30.5 -60t60.5 -24q55 0 75 35h72
q-18 -46 -58 -71t-89 -25zM1651 666q-1 34 -29 58t-61 24q-34 0 -60.5 -22.5t-30.5 -59.5h181zM1829 879h-146v63h365v-63h-147v-408h-72v408zM2068 346q-16 0 -20 2v58q48 0 63 40l13 33l-129 326h76l90 -238l90 238h76l-158 -389q-34 -70 -101 -70zM2376 805h49l18 -39
q38 45 99 45q66 0 111.5 -50t45.5 -122q0 -73 -45.5 -123.5t-111.5 -50.5q-60 0 -97 43v-162h-69v459zM2535 528q39 0 68 32.5t29 78.5q0 43 -29.5 74.5t-67.5 31.5q-41 0 -68.5 -31.5t-27.5 -74.5q0 -47 27.5 -79t68.5 -32zM2914 465q-66 0 -112.5 50.5t-46.5 123.5
q0 71 46 121.5t113 50.5q66 0 111 -49t45 -121q0 -3 -1 -9t-1 -9v-13h-244q5 -36 30 -60t60 -24q56 0 76 35h72q-18 -46 -58.5 -71t-89.5 -25zM3004 666q-1 34 -29 58t-61 24q-34 0 -60 -22.5t-30 -59.5h180z" />
    </font>
</defs>
</svg>
