<?xml version="1.0" standalone="no"?>
<!DOCTYPE svg PUBLIC "-//W3C//DTD SVG 1.1//EN" "http://www.w3.org/Graphics/SVG/1.1/DTD/svg11.dtd" >
<svg xmlns="http://www.w3.org/2000/svg" xmlns:xlink="http://www.w3.org/1999/xlink" version="1.1">
<metadata>
Created by FontForge 20170731 at Fri Nov 20 17:46:45 2020
 By Aleksey,,,
Copyright (c) 1994, 2001 Adobe Systems Incorporated.  All Rights Reserved.
</metadata>
<defs>
<font id="ITCGaramondStd-BdCondIta" horiz-adv-x="591" >
  <font-face 
    font-family="ITC Garamond Std Book Cond"
    font-weight="700"
    font-style="italic"
    font-stretch="condensed"
    units-per-em="2048"
    panose-1="2 2 8 3 7 7 6 9 3 4"
    ascent="1440"
    descent="-608"
    x-height="954"
    cap-height="1290"
    bbox="-428 -512 2034 1790"
    underline-thickness="102"
    underline-position="-307"
    slope="-16"
    unicode-range="U+0020-FB02"
  />
<missing-glyph horiz-adv-x="1236" 
d="M213 0v1434h1024v-1434h-1024zM725 809l348 522h-696zM786 717l349 -522v1044zM377 102h696l-348 523zM315 1239v-1044l349 522z" />
    <glyph glyph-name="fi" unicode="fi" horiz-adv-x="1161" 
d="M244 844h-129q-23 0 -23 14q0 12 10 39q6 19 11 24t18 5h135q64 209 197 342q165 162 399 162q122 0 198.5 -44t76.5 -137q0 -52 -36 -87.5t-87 -35.5q-55 0 -86 27t-31 76q0 26 18.5 54t18.5 40q0 15 -22 24t-56 9q-61 0 -111.5 -26t-88 -74.5t-65 -108t-50.5 -137.5
q-5 -17 -14.5 -49t-10.5 -35h348q27 0 101 4t86 4q23 0 31 -5.5t8 -19.5q0 -18 -35 -125q-18 -56 -74.5 -222.5t-77.5 -237.5q-26 -102 -26 -121q0 -25 18 -25q35 0 102 105q9 15 19 33.5t16 30.5t12.5 23t12 16t10.5 5q23 0 23 -26q0 -22 -20 -67.5t-56.5 -101
t-81.5 -105.5t-103.5 -84t-113.5 -34q-123 0 -123 117q0 47 33 156q23 79 78 243.5t61 182.5q27 89 27 114q0 34 -26.5 46t-100.5 12h-164q-24 -93 -142 -568q-93 -358 -202 -526q-144 -217 -353 -217q-79 0 -130.5 42t-51.5 124q0 64 29 102.5t84 38.5q46 0 70 -25.5
t26 -62.5q1 -30 -10 -70t-10 -49q6 -26 32 -26q31 0 57 37.5t54 122.5q39 103 131 475q19 71 85 320t75 282z" />
    <glyph glyph-name="fl" unicode="fl" horiz-adv-x="1161" 
d="M240 844h-127q-25 0 -25 14q0 12 10 39q6 19 11 24t20 5h133q79 217 166 325q147 179 363 179q153 0 213 -89q193 80 215 80q14 0 14 -20q0 -4 -5 -18t-13.5 -39t-14.5 -48q-23 -85 -129 -444t-143 -494q-35 -133 -35 -141q0 -29 20 -29q22 0 51.5 32t55.5 81q5 10 12 25
t10.5 22l8.5 17t8.5 14.5t8 9.5t8.5 6.5t9 1.5q21 0 21 -20q0 -32 -29 -97t-76 -134.5t-118.5 -121t-143.5 -51.5q-54 0 -80 32.5t-26 88.5q0 87 47 254q33 118 109.5 377t115.5 395q-94 11 -94 101q0 27 10 54t10 36q0 15 -17 23.5t-44 8.5q-149 0 -233 -333
q-22 -81 -23 -84h145q23 0 23 -11q0 -6 -7.5 -30t-10.5 -31q-4 -10 -23 -10h-143q-27 -102 -75.5 -295.5t-68.5 -272.5q-87 -350 -202 -526q-144 -217 -353 -217q-79 0 -130.5 42t-51.5 124q0 64 30 102.5t85 38.5q46 0 69 -25t25 -63q2 -29 -9.5 -69.5t-9.5 -49.5
q3 -26 31 -26q31 0 57.5 37.5t55.5 122.5q32 92 131 475q66 259 158 602z" />
    <glyph glyph-name=".notdef" horiz-adv-x="1236" 
d="M213 0v1434h1024v-1434h-1024zM725 809l348 522h-696zM786 717l349 -522v1044zM377 102h696l-348 523zM315 1239v-1044l349 522z" />
    <glyph glyph-name=".null" horiz-adv-x="0" 
 />
    <glyph glyph-name="nonmarkingreturn" horiz-adv-x="682" 
 />
    <glyph glyph-name="space" unicode=" " horiz-adv-x="489" 
 />
    <glyph glyph-name="exclam" unicode="!" horiz-adv-x="569" 
d="M655 1233v-2q0 -34 -51 -146q-37 -77 -150.5 -307t-146.5 -307q-21 -43 -32 -56.5t-31 -13.5q-33 0 -33 37q0 4 1 11.5t3 22t4 26.5q12 65 39.5 225.5t47.5 272.5t28 145q20 93 63.5 133.5t137.5 40.5q46 0 83 -20.5t37 -61.5zM33 113v2q0 72 43.5 129t118.5 57
q54 0 84 -37.5t30 -93.5q0 -74 -43.5 -131t-118.5 -57q-54 0 -84 37.5t-30 93.5z" />
    <glyph glyph-name="quotedbl" unicode="&#x22;" horiz-adv-x="681" 
d="M240 639h-2q-21 0 -32 19.5t-13 46.5q-4 44 -15.5 169t-17.5 201.5t-6 110.5q0 62 18.5 95.5t67.5 33.5t67.5 -33.5t18.5 -95.5q0 -33 -6.5 -114t-16.5 -194t-14 -173q-9 -66 -49 -66zM578 639h-3q-38 0 -47 66q-4 58 -14 172.5t-16 194.5t-6 114q0 62 18.5 95.5
t67.5 33.5t67.5 -33.5t18.5 -95.5q0 -34 -6 -110.5t-17.5 -201.5t-15.5 -169q-4 -66 -47 -66z" />
    <glyph glyph-name="numbersign" unicode="#" horiz-adv-x="978" 
d="M106 676h175q24 -1 30.5 4t12.5 29l41 131q8 24 8 28q-3 11 -31 11h-166q-31 0 -33 12q0 6 4 22l31 97q4 14 11.5 18t27.5 4h176q22 0 27.5 5.5t13.5 29.5l60 182q7 23 15 28t36 5q29 0 38.5 -2t10.5 -12q0 -7 -6 -25l-56 -172q-6 -15 -6 -27t31 -12h154q22 0 28.5 6
t14.5 29l57 182q7 23 15 28t34 5q30 0 39.5 -2t9.5 -12q0 -1 -4 -25l-55 -172q-6 -15 -6 -27t30 -12h168q33 0 33 -12q0 -9 -4 -21l-31 -96q-4 -14 -12.5 -19t-26.5 -5h-178q-23 0 -29 -5.5t-12 -27.5l-43 -133q-6 -18 -6 -29q0 -8 29 -8h168q31 0 31 -14q0 -9 -3 -21
l-32 -96q-5 -15 -12 -20t-27 -5h-174q-23 0 -29 -5t-14 -28l-62 -192q-8 -25 -14.5 -30t-34.5 -5t-37.5 2t-9.5 12q0 15 4 25l57 184q7 18 7 25q0 8 -6.5 10t-28.5 2h-150q-22 0 -29.5 -5.5t-13.5 -27.5l-59 -192q-7 -24 -15.5 -29.5t-35.5 -5.5q-28 0 -37.5 2t-9.5 12
q0 15 4 25l57 184q1 4 2.5 9.5t2.5 9.5t1 6q0 8 -6.5 10t-24.5 2h-168q-32 0 -32 15q0 4 4 20l31 96q4 15 12.5 20t27.5 5zM659 879h-153q-22 0 -29 -5.5t-12 -21.5l-45 -139l-2.5 -10l-2.5 -10t-1 -7q0 -12 32 -12h154q22 0 28 4.5t11 21.5l45 140q6 24 6 26q0 13 -31 13z
" />
    <glyph glyph-name="dollar" unicode="$" horiz-adv-x="1013" 
d="M309 102l127 492q-75 70 -117.5 140t-42.5 159q0 148 93.5 247t238.5 130l56 213q4 16 11 23.5t12.5 8.5t17.5 1q9 0 13 -0.5t11.5 -3.5t7 -9l-1.5 -18l-51 -203q20 2 47 2q21 0 31 -2l51 201q4 16 11 23.5t12.5 8.5t17.5 1q11 0 17.5 -1t12 -8.5t1.5 -21.5l-54 -215
q66 -13 114 -36.5t48 -49.5q0 -9 -4 -32.5t-10 -54t-8 -44.5q-5 -28 -23 -103q-14 -76 -47 -76q-25 0 -33.5 27.5t-11.5 97.5q-3 137 -51 175l-103 -400q79 -74 124.5 -150t45.5 -175q0 -165 -104 -282.5t-260 -154.5l-62 -239q-5 -24 -14 -29.5t-26 -5.5q-13 0 -19.5 1
t-12 8.5t-1.5 21.5l61 233q-32 -4 -45 -4q-19 0 -33 2l-59 -227q-5 -24 -14.5 -29.5t-26.5 -5.5q-11 0 -17.5 1t-12.5 8.5t-3 21.5l64 243q-86 19 -157 62t-71 71q0 24 17 88q18 64 51 211q3 16 14 28.5t25 12.5q26 0 33.5 -21t7.5 -89q0 -39 0.5 -59.5t3 -54.5t9 -54
t17.5 -43.5t29 -38.5t43 -23zM664 1198l-82 -313q48 -48 63 -60l96 375q-28 4 -36 4q-21 0 -41 -6zM528 948l58 230q-90 -46 -90 -138q0 -42 32 -92zM457 90l98 387q-2 2 -24.5 26t-36.5 36l-115 -451q14 -2 33 -2q13 0 45 4zM608 406l-76 -289q105 58 105 190q0 49 -29 99z
" />
    <glyph glyph-name="percent" unicode="%" horiz-adv-x="1388" 
d="M207 -20v2q0 8 33 55l856 1243q15 22 21.5 28.5t17.5 6.5h61q27 0 27 -12q0 -11 -33 -58l-856 -1243q-15 -22 -21.5 -28.5t-17.5 -6.5h-62q-26 0 -26 13zM487 1262h-2q-51 0 -106.5 -107t-88 -223.5t-32.5 -167.5q0 -90 61 -90q39 0 83 64.5t75 150.5t51.5 166t20.5 116
q0 91 -62 91zM1112 608h-2q-51 0 -106.5 -107t-88 -223t-32.5 -167q0 -91 63 -91q39 0 83 65t75 150.5t51.5 166t20.5 116.5q0 90 -64 90zM332 621h-2q-114 0 -178 76.5t-64 199.5q0 107 51 203t141 155.5t195 59.5q115 0 179.5 -77.5t64.5 -199.5q0 -104 -50 -200
t-140 -156.5t-197 -60.5zM956 -33h-2q-114 0 -177.5 76.5t-63.5 200.5q0 107 51 203t141 155.5t195 59.5q116 0 179.5 -77t63.5 -200q0 -104 -50 -200t-140 -157t-197 -61z" />
    <glyph glyph-name="ampersand" unicode="&#x26;" horiz-adv-x="1206" 
d="M39 371v2q0 160 105 275t274 161q-64 67 -64 174q0 140 115.5 236t278.5 96q53 0 102 -12t79 -29.5t48 -34.5t18 -29q0 -25 -32 -131q-25 -85 -39 -101q-12 -13 -29 -13q-12 0 -21 5.5t-16 17.5t-11.5 22.5t-11.5 30.5t-12 32q-18 48 -57 76.5t-94 28.5q-85 0 -157.5 -71
t-72.5 -163q0 -38 12.5 -68.5t32.5 -44.5q54 15 113 15q117 0 117 -64q0 -67 -99 -67q-28 0 -53.5 6t-49.5 15.5t-34 11.5q-68 -14 -120 -98t-52 -183q0 -148 83.5 -235t213.5 -87q112 0 196.5 74.5t84.5 171.5q0 57 -22 81t-74 24q-37 0 -65.5 -15t-41 -32.5t-25 -32.5
t-22.5 -15t-17.5 11.5t-7.5 31.5q0 62 41 109q73 94 265 94q95 0 133 16t51 50q2 4 5.5 12t5.5 11.5t5.5 8.5t8 7t10.5 2q32 0 32 -76q0 -82 -45.5 -133t-117.5 -62q-16 -4 -56 -8q6 -21 6 -69q0 -91 -39.5 -172t-111.5 -140q-150 -127 -354 -127q-186 0 -299 117.5
t-113 286.5z" />
    <glyph glyph-name="quotesingle" unicode="'" horiz-adv-x="454" 
d="M301 639h-2q-21 0 -32 19.5t-13 46.5q-4 44 -15.5 169t-17.5 201.5t-6 110.5q0 62 18.5 95.5t67.5 33.5t67.5 -33.5t18.5 -95.5q0 -33 -6.5 -114t-16.5 -194t-14 -173q-9 -66 -49 -66z" />
    <glyph glyph-name="parenleft" unicode="(" horiz-adv-x="751" 
d="M944 1389v-3q0 -16 -19 -24.5t-48 -13.5t-73.5 -29.5t-84.5 -67.5q-89 -92 -178.5 -281t-152.5 -391.5t-102.5 -394.5t-39.5 -305q0 -95 36.5 -163t96.5 -83q6 -2 16 -4t15 -3.5t12.5 -3.5t11.5 -4.5t8 -5.5t5.5 -7.5t1.5 -10.5q0 -28 -54 -28q-167 0 -260.5 144
t-93.5 372q0 179 49 383.5t147 403t226 325.5q116 116 237 171.5t203 55.5q41 0 41 -32z" />
    <glyph glyph-name="parenright" unicode=")" horiz-adv-x="751" 
d="M-229 -403v2q0 17 19 25.5t48 13.5t73.5 30t84.5 68q89 92 178.5 280.5t152.5 391t102.5 394t39.5 304.5q0 96 -36 163.5t-97 84.5q-8 2 -22 5t-20 5t-14 5.5t-11 8.5t-3 13q0 30 53 30q167 0 262 -144.5t95 -373.5q0 -279 -116.5 -600.5t-307.5 -511.5
q-116 -116 -236.5 -170.5t-203.5 -54.5q-41 0 -41 31z" />
    <glyph glyph-name="asterisk" unicode="*" horiz-adv-x="796" 
d="M555 1315h2q40 0 67 -23t27 -63q0 -35 -33.5 -82t-66.5 -88.5t-33 -63.5q0 -18 25 -18t65.5 32.5t85 65.5t78.5 33q37 0 60.5 -22t23.5 -62q0 -39 -27 -63.5t-67 -24.5q-30 0 -88 11t-86 11q-47 0 -47 -24q0 -22 39 -42.5t86 -35.5t86 -45t39 -70q0 -36 -26.5 -60
t-62.5 -24q-34 0 -59.5 25.5t-40.5 62.5t-28 74t-28.5 62.5t-35.5 25.5q-11 0 -18 -17.5t-7 -43.5q0 -42 12.5 -93t12.5 -87q0 -37 -24.5 -61.5t-59.5 -24.5q-42 0 -67 23.5t-25 64.5q0 25 20.5 59t45 61.5t45 59t20.5 53.5q0 19 -19 19q-25 0 -68.5 -32t-90 -64.5
t-78.5 -32.5q-36 0 -61 21.5t-25 57.5q0 43 23 67t69 24q9 0 23 -2t34 -5t33 -4q70 -12 88 -12q53 0 53 25q0 19 -26 35t-63 29t-73.5 29t-62.5 43t-26 62q0 33 22.5 58.5t56.5 25.5q35 0 61 -26t41 -63t28 -74t29.5 -63t37.5 -26q12 0 20.5 13.5t8.5 33.5q0 24 -13.5 86
t-13.5 93q0 43 22 69.5t60 26.5z" />
    <glyph glyph-name="plus" unicode="+" horiz-adv-x="1228" 
d="M530 602v434h168v-434h432v-168h-432v-434h-168v434h-432v168h432z" />
    <glyph glyph-name="comma" unicode="," horiz-adv-x="489" 
d="M20 117v2q0 63 47 122.5t115 59.5q57 0 87 -43.5t30 -118.5q0 -78 -43 -171t-99.5 -162t-109 -116.5t-74.5 -47.5q-8 0 -14 6.5t-6 15.5q0 11 12 23.5t45 45t66 72.5q41 48 65.5 97t24.5 69q0 28 -21 31q-2 0 -20 -1t-31 -1q-74 0 -74 117z" />
    <glyph glyph-name="hyphen" unicode="-" horiz-adv-x="636" 
d="M125 555h401q27 0 27 -16q0 -8 -23.5 -70.5t-31.5 -79.5q-8 -18 -35 -18h-406q-26 0 -26 16q0 13 55 150q8 18 39 18z" />
    <glyph glyph-name="period" unicode="." horiz-adv-x="489" 
d="M295 170v-2q0 -72 -43.5 -129t-118.5 -57q-54 0 -84.5 37.5t-30.5 93.5q0 74 43.5 131t118.5 57q54 0 84.5 -37.5t30.5 -93.5z" />
    <glyph glyph-name="slash" unicode="/" horiz-adv-x="569" 
d="M803 1403v-2q0 -5 -19 -43l-958 -1731q-16 -29 -24.5 -37t-26.5 -8h-103q-28 0 -28 10q0 14 20 46l959 1730q14 27 23 36t26 9h102q29 0 29 -10z" />
    <glyph glyph-name="zero" unicode="0" horiz-adv-x="978" 
d="M53 418v2q0 138 46 294t123.5 290t194.5 222.5t245 88.5q149 0 227 -125t78 -326q0 -139 -46 -295t-123.5 -290.5t-194.5 -223t-245 -88.5q-149 0 -227 125t-78 326zM750 1108v2q0 141 -88 141q-71 0 -135 -118t-134 -361q-52 -175 -87.5 -353.5t-35.5 -244.5
q0 -143 88 -143q71 0 135 118t134 361q51 177 87 355.5t36 242.5z" />
    <glyph glyph-name="one" unicode="1" horiz-adv-x="978" 
d="M45 20v3q0 15 7 25t23.5 14t29 5.5t36.5 2.5q23 2 39 4.5t34.5 9.5t30.5 20t17 33q203 728 223 803q21 82 21 104q0 39 -43 39q-20 0 -83 -22.5t-79 -22.5q-14 0 -23.5 9t-9.5 24q0 21 18 31t64 23q12 3 19 5q202 58 376 150q25 15 46 25t36 10q9 0 16 -6.5t7 -18.5
q0 -8 -23 -98q-36 -135 -132 -465t-130 -455q-26 -98 -26 -141q0 -36 25 -50t67 -18q7 -1 19 -1.5t18.5 -1t16.5 -2t15 -4t10.5 -6t8 -9t2.5 -12.5q0 -20 -14.5 -27.5t-55.5 -7.5q-47 0 -148 4t-147 4q-44 0 -124 -4t-115 -4q-26 0 -39 1t-23 7.5t-10 19.5z" />
    <glyph glyph-name="two" unicode="2" horiz-adv-x="978" 
d="M162 219l8 -6q6 0 50.5 9t90.5 9q173 5 209 7q79 4 113.5 27.5t66.5 82.5q9 17 19 38t15 31t11.5 19.5t13.5 13t17 3.5q15 0 24 -8.5t9 -22.5q0 -10 -4 -29.5t-14 -56.5t-20 -71t-29 -100t-33 -116q-9 -35 -21.5 -46t-40.5 -11q-47 0 -163 4t-183 4q-69 0 -180 -4
t-160 -4q-24 0 -24 26q0 44 104 160q44 49 155 161.5t164 168.5q281 300 281 532q0 84 -33 129t-96 45q-69 0 -128 -50t-99 -128q-12 -23 -23 -48t-16 -37t-11 -23t-12 -15t-16 -4q-25 0 -25 33q0 26 15 69.5t49 96.5t80 99t116 77t150 31q148 0 237 -76t89 -219
q0 -156 -98 -287t-316 -264q-247 -139 -342 -250z" />
    <glyph glyph-name="three" unicode="3" horiz-adv-x="978" 
d="M905 1087v-2q0 -38 -13 -73.5t-31.5 -62.5t-51 -54t-59.5 -45t-69.5 -39t-68 -32.5t-68.5 -29t-59 -24.5v-8q73 5 88 4q131 -7 203 -91t72 -220q0 -121 -61 -235t-156.5 -193.5t-215 -128t-235.5 -48.5q-117 0 -194.5 48.5t-77.5 138.5q0 52 30.5 85.5t77.5 33.5
q92 0 123 -136q12 -58 31.5 -82t52.5 -24q75 0 153.5 79.5t129.5 205t51 247.5q0 103 -52 172.5t-147 69.5q-44 0 -79.5 -13.5t-57.5 -27.5t-33 -14q-22 0 -22 28q0 25 43 51.5t172 84.5q106 50 173 142t67 179q0 61 -30.5 94t-88.5 33q-97 0 -166 -94q-16 -21 -30 -43.5
t-20.5 -33t-15 -18t-18.5 -7.5q-27 0 -27 32q0 14 12 43.5t43 70.5t74.5 77.5t116 62t158.5 25.5q127 0 201.5 -58.5t74.5 -169.5z" />
    <glyph glyph-name="four" unicode="4" horiz-adv-x="978" 
d="M399 344h-366q-21 0 -21 14q0 4 27 134q11 28 37 57q460 514 694 780q22 25 41 25h55q27 0 27 -19q0 -3 -0.5 -5t-2.5 -5.5t-4 -6t-6.5 -7.5t-8 -9t-10.5 -11.5t-13 -14.5q-143 -156 -282.5 -306t-203 -218.5t-121 -132t-94.5 -109.5q53 -6 297 -6q23 0 29 5.5t12 27.5
l93 323q5 21 34 35q239 135 252 135q10 0 10 -16q0 -20 -18 -78q-14 -55 -50 -185t-50 -182q-11 -49 -11 -51q0 -14 25 -14h109q17 0 23.5 -3t6.5 -12t-28 -116q-5 -19 -10.5 -24t-24.5 -5h-127q-14 0 -19.5 -5.5t-9.5 -23.5q-53 -183 -53 -213q0 -33 55 -41q58 -4 58 -36
q0 -33 -50 -33q-35 0 -111 4t-106 4q-41 0 -116.5 -4t-102.5 -4q-23 0 -32 7.5t-9 25.5q0 7 1.5 13t6 9.5t8 6t11.5 4.5l12 3t14.5 2.5t14.5 2.5q18 2 30 5t25 10t22 21t15 35q4 15 18 67t22.5 86.5t8.5 41.5q0 12 -33 12z" />
    <glyph glyph-name="five" unicode="5" horiz-adv-x="978" 
d="M860 1081l-416 -18q-54 0 -71 -10q-12 -8 -34 -80.5t-22 -87.5q0 -10 64 -17q162 -23 240 -61q202 -92 202 -328q0 -135 -62 -252t-177 -204q-245 -185 -623 -185q-41 0 -59.5 6.5t-18.5 24.5q0 6 1.5 10.5t6 7.5t8.5 5t11.5 3.5t12.5 2t16 1t16 1.5q272 30 420.5 171
t148.5 337q0 57 -20 101t-49 69.5t-73 43.5t-80 25t-81 12q-51 7 -51 21q0 13 12 45q21 63 92 275.5t84 252.5q9 30 25.5 37.5t62.5 7.5q80 2 263.5 8.5t242.5 8.5q27 0 27 -15q0 -6 -8 -33.5t-23.5 -76t-23.5 -76.5q-6 -22 -15.5 -26.5t-48.5 -6.5z" />
    <glyph glyph-name="six" unicode="6" horiz-adv-x="978" 
d="M911 528v-2q0 -99 -38.5 -199.5t-103.5 -180t-158.5 -129.5t-196.5 -50q-91 0 -161.5 37t-113 101.5t-63.5 144.5t-21 172q0 209 92 399.5t248 331.5q146 132 316 208.5t280 76.5q39 0 39 -27q0 -14 -12.5 -20.5t-50.5 -15.5q-13 -3 -21 -5q-160 -44 -288 -177t-214 -325
q-133 -298 -133 -622q0 -205 113 -205q60 0 113.5 92.5t82.5 212t29 217.5q0 89 -26 139t-68 56q-24 3 -44.5 -4.5t-25.5 -5.5q-8 4 -8 14q0 39 51.5 72.5t116.5 33.5q86 0 148 -50.5t90 -125.5t28 -164z" />
    <glyph glyph-name="seven" unicode="7" horiz-adv-x="978" 
d="M772 1040h-463q-20 0 -50.5 -2t-41.5 -2q-31 0 -31 25q0 12 66 215q6 22 24 27q75 -11 121 -13q123 -6 260 -6q71 0 204.5 4t144.5 4q32 0 32 -18q0 -6 -4 -16.5t-8.5 -18.5t-13.5 -23.5t-13 -23.5q-480 -845 -725 -1307q-12 -23 -21 -27.5t-42 -4.5h-23.5t-15.5 1.5
t-11 4t-3 6.5q0 5 26 59q279 513 596 1061q23 38 23 45q0 10 -31 10z" />
    <glyph glyph-name="eight" unicode="8" horiz-adv-x="978" 
d="M891 436v-2q0 -126 -65.5 -233t-183.5 -170.5t-263 -63.5q-73 0 -139.5 20t-121 59t-86.5 103.5t-32 145.5q0 62 21.5 113t52.5 85t82 64.5t94 48.5t104 39q-80 56 -119.5 118t-39.5 148q0 169 127.5 286.5t334.5 117.5q153 0 241.5 -72.5t88.5 -185.5q0 -49 -20 -92
t-48 -71.5t-74.5 -55.5t-81.5 -42t-87 -34q51 -32 83 -58t65.5 -65t50 -89.5t16.5 -113.5zM444 1038v-2q0 -36 9.5 -66t22.5 -51t38.5 -43.5t46 -36.5t57.5 -36q77 41 125 108.5t48 153.5q0 91 -41 138.5t-113 47.5q-84 0 -138.5 -64t-54.5 -149zM215 287v-2
q0 -117 50.5 -185.5t129.5 -68.5q95 0 162.5 86t67.5 209q0 51 -18.5 95t-52 78t-65 56.5t-73.5 46.5q-99 -35 -150 -123t-51 -192z" />
    <glyph glyph-name="nine" unicode="9" horiz-adv-x="978" 
d="M965 840v-2q0 -178 -82.5 -358.5t-237.5 -344.5q-144 -152 -338.5 -235.5t-357.5 -83.5q-45 0 -45 24q0 10 4 16.5t17 11.5t25.5 8t41.5 9.5t53 12.5q86 21 163.5 67.5t138.5 111t109 133.5t89 150q85 172 130.5 368t45.5 357q0 71 -28 113.5t-81 42.5t-101.5 -61
t-79 -147.5t-48.5 -175.5t-18 -152q0 -139 81 -156q23 -2 44 4.5t24 5.5q18 -4 18 -20q0 -30 -50.5 -63.5t-127.5 -33.5q-121 0 -186.5 92t-65.5 230q0 115 39.5 217.5t106 175.5t157.5 115.5t191 42.5q178 0 273.5 -125.5t95.5 -349.5z" />
    <glyph glyph-name="colon" unicode=":" horiz-adv-x="489" 
d="M453 780v-2q0 -72 -43.5 -129t-118.5 -57q-54 0 -84.5 37.5t-30.5 93.5q0 74 43.5 131t118.5 57q54 0 84.5 -37.5t30.5 -93.5zM295 170v-2q0 -72 -43.5 -129t-118.5 -57q-54 0 -84.5 37.5t-30.5 93.5q0 74 43.5 131t118.5 57q54 0 84.5 -37.5t30.5 -93.5z" />
    <glyph glyph-name="semicolon" unicode=";" horiz-adv-x="489" 
d="M453 780v-2q0 -72 -43.5 -129t-118.5 -57q-54 0 -84.5 37.5t-30.5 93.5q0 74 43.5 131t118.5 57q54 0 84.5 -37.5t30.5 -93.5zM20 117v2q0 63 47 122.5t115 59.5q57 0 87 -43.5t30 -118.5q0 -78 -43 -171t-99.5 -162t-109 -116.5t-74.5 -47.5q-8 0 -14 6.5t-6 15.5
q0 11 12 23.5t45 45t66 72.5q41 48 65.5 97t24.5 69q0 28 -21 31q-2 0 -20 -1t-31 -1q-74 0 -74 117z" />
    <glyph glyph-name="less" unicode="&#x3c;" horiz-adv-x="1228" 
d="M1135 154v-170l-1041 458v152l1041 459v-170l-824 -365z" />
    <glyph glyph-name="equal" unicode="=" horiz-adv-x="1228" 
d="M1130 809v-168h-1032v168h1032zM1130 395v-168h-1032v168h1032z" />
    <glyph glyph-name="greater" unicode="&#x3e;" horiz-adv-x="1228" 
d="M94 154l824 364l-824 365v170l1041 -459v-152l-1041 -458v170z" />
    <glyph glyph-name="question" unicode="?" horiz-adv-x="819" 
d="M846 987v-2q0 -52 -13.5 -99t-32 -80.5t-52.5 -66t-59 -51.5t-68.5 -41.5t-64.5 -31.5t-62 -26q-12 -5 -17 -7q-102 -44 -133.5 -70t-60.5 -100q-9 -29 -29 -29q-25 0 -25 18q0 21 9 56q18 108 53 239q11 45 25.5 61.5t66.5 37.5q105 49 141 71q144 93 144 248
q0 60 -27.5 98.5t-71.5 38.5q-40 0 -76.5 -41t-78.5 -116q-30 -53 -50 -75t-47 -22q-51 0 -51 54q0 32 10 94q14 70 43 104q59 66 199 66q143 0 235.5 -95t92.5 -233zM340 170v-2q0 -72 -43.5 -129t-118.5 -57q-54 0 -84.5 37.5t-30.5 93.5q0 74 43.5 131t118.5 57
q54 0 84.5 -37.5t30.5 -93.5z" />
    <glyph glyph-name="at" unicode="@" horiz-adv-x="1638" 
d="M1268 944l-123 -506q-8 -32 -8 -59q0 -35 17 -60.5t52 -25.5q63 0 119 60t87.5 155t31.5 197q0 77 -25 152.5t-74 141.5t-116 116.5t-158 80t-192 29.5q-111 0 -214 -46.5t-182.5 -130t-127.5 -211t-48 -278.5q0 -122 48.5 -230.5t129.5 -184t190.5 -119t229.5 -43.5
q127 0 211 25.5t184 78.5l33 -78q-237 -123 -430 -123q-157 0 -290 43.5t-221.5 113.5t-151.5 161t-91 184t-28 184q0 163 61 303t164 236t241.5 150.5t291.5 54.5q193 0 349 -79t244.5 -218.5t88.5 -312.5q0 -81 -26 -166t-73 -159t-122 -121.5t-164 -47.5q-39 0 -72 12.5
t-54 31t-35.5 39.5t-20.5 38.5t-5 27.5h-8q-16 -39 -83 -92t-150 -57q-88 0 -144.5 66t-56.5 192q0 84 29 172t79.5 162.5t128.5 122t168 47.5q103 0 148 -103l20 74h148zM719 481v-2q0 -157 112 -157q52 0 102.5 55.5t85.5 151t40 202.5q0 133 -84 133q-38 0 -82 -28
t-83 -76t-65 -122.5t-26 -156.5z" />
    <glyph glyph-name="A" unicode="A" horiz-adv-x="1001" 
d="M539 451h-287q-17 0 -25.5 -5.5t-19.5 -23.5q-37 -66 -92 -178q-43 -94 -43 -123q0 -27 17 -38t56 -20q18 -5 25.5 -8t15 -10t7.5 -16q0 -37 -54 -37q-22 0 -82 4t-86 4q-25 0 -73 -4t-70 -4q-20 0 -27.5 5.5t-7.5 22.5q-1 16 9.5 25.5t21 12.5t39.5 10q9 2 18 6.5
t16.5 8.5t16 12.5t14 13.5t14.5 17t13 18t14 22t14 22t15.5 25.5t15.5 26.5q34 60 247.5 431.5t330.5 573.5q20 34 36 43.5t60 9.5q81 0 95.5 -3t15.5 -23q6 -133 15 -572.5t15 -574.5q2 -46 50 -57q16 -4 24.5 -7t16.5 -10.5t8 -19.5q0 -22 -10 -30.5t-39 -8.5q-5 0 -70 4
t-135 4q-69 0 -143.5 -4t-96.5 -4q-49 0 -49 33q0 6 1 10.5t4.5 8.5t6 6.5t8.5 5t9.5 3.5t11.5 3t11.5 2.5t13 1.5t12.5 2q17 4 27.5 8t22.5 12t18 23t6 36q0 46 1 149t1 155zM537 535v469l-5 2q-32 -59 -121 -220t-137 -251h263z" />
    <glyph glyph-name="B" unicode="B" horiz-adv-x="1161" 
d="M719 709v-4q336 -11 336 -279q0 -186 -123 -309q-64 -64 -160 -94.5t-199 -30.5q-66 0 -195 4t-192 4q-76 0 -157 -4t-97 -4q-22 0 -31.5 7t-9.5 24q0 20 14.5 27t47.5 13q78 11 96 80q47 173 137 491t117 413q25 93 25 104q0 31 -14 44.5t-38 18.5q-23 4 -33 6.5t-18 10
t-8 20.5q0 39 47 39q27 0 124.5 -4t143.5 -4q47 0 142 4t168 4q147 0 225 -57.5t78 -185.5q0 -295 -426 -338zM729 1217h-2q-27 0 -56 -5t-38 -12q-18 -18 -33 -76l-78 -280q-2 -7 -26 -107q11 -16 57 -16q75 0 127 24t92 78q88 111 88 256q0 138 -131 138zM449 557
l-76 -291q-29 -107 -29 -141q0 -59 80 -59q73 0 135 32.5t103 94.5q75 115 75 272q0 102 -44 142t-156 40q-50 0 -60 -8q-14 -17 -28 -82z" />
    <glyph glyph-name="C" unicode="C" horiz-adv-x="978" 
d="M49 406v2q0 187 77 353.5t210 293.5q131 123 297 191.5t336 68.5q59 0 79.5 -11.5t20.5 -37.5q0 -22 -12 -72q-20 -83 -68 -233q-10 -32 -19 -43t-32 -11q-39 0 -39 60q0 15 9.5 104.5t9.5 114.5q0 47 -31 47q-65 0 -160.5 -73.5t-175.5 -207.5q-86 -141 -142.5 -328
t-56.5 -348q0 -105 35 -166t98 -61q68 0 132 63t116 169q45 100 55 115q20 27 46 28q32 0 32 -35q0 -24 -20 -94q-42 -148 -72 -240q-8 -28 -116 -58t-201 -30q-194 0 -303 115q-105 114 -105 324z" />
    <glyph glyph-name="D" unicode="D" horiz-adv-x="1206" 
d="M49 164l250 862q23 90 23 121q0 34 -14.5 47t-49.5 20q-16 2 -24 4.5t-14.5 10t-6.5 20.5q0 23 14 32t47 9t107.5 -4t120.5 -4q56 0 163 4t156 4q173 0 273 -100q98 -98 98 -293q0 -155 -48 -322t-136 -296q-97 -139 -237 -213t-308 -74q-63 0 -175.5 4t-158.5 4
q-41 0 -105.5 -4t-86.5 -4q-52 0 -52 37q0 21 13 29t39 14q48 7 72 24.5t40 67.5zM600 1098l-231 -797q-39 -137 -39 -172q0 -36 19 -49.5t63 -13.5q200 0 346 331q64 142 104.5 309.5t40.5 288.5q0 103 -36 162.5t-126 59.5q-88 0 -104 -21q-14 -18 -37 -98z" />
    <glyph glyph-name="E" unicode="E" horiz-adv-x="978" 
d="M457 625l-105 -383q-28 -107 -28 -129q0 -25 24 -34t103 -9q145 0 217 63q13 12 24.5 25t23 30t18.5 27.5t18 34t14.5 31t16 35.5t14.5 32q11 28 20.5 38.5t26.5 10.5q19 0 26 -8.5t7 -28.5q0 -14 -11 -63t-36 -145.5t-29 -112.5q-7 -35 -18.5 -41t-63.5 -6
q-46 0 -199.5 4t-249.5 4q-97 0 -199.5 -4t-131.5 -4q-48 0 -48 26q0 20 11 27t37 12q47 6 67 23t33 67q129 466 246 881q28 100 28 123q0 59 -49 66q-3 1 -12 3t-12 2.5t-9.5 3.5t-9 5.5t-4.5 7.5t-2 12q0 21 11.5 30t41.5 9q27 0 131 -4t203 -4q78 0 215.5 4t177.5 4
q36 0 48 -5t12 -23q0 -6 -7.5 -36.5t-24 -93t-28.5 -110.5q-18 -75 -28 -94t-35 -19q-17 0 -25.5 12t-9.5 48q-1 14 -1 32t0.5 47t0.5 50q0 56 -36.5 82t-129.5 26q-88 0 -106 -6q-12 -7 -33 -90l-115 -397q46 -4 68 -4q83 0 118 25t60 77q3 7 13.5 29t14.5 29.5t12.5 20
t17 17t18.5 4.5q32 0 32 -43q0 -10 -20 -75q-12 -35 -21.5 -67.5t-19 -71t-14.5 -60.5t-16 -71.5l-15 -67.5q-8 -31 -15.5 -39t-31.5 -8q-20 0 -27.5 11.5t-7.5 37.5q0 15 2 42.5t2 39.5q0 44 -22.5 65t-87.5 21h-80z" />
    <glyph glyph-name="F" unicode="F" horiz-adv-x="978" 
d="M465 616l-103 -354q-28 -92 -28 -125q0 -61 78 -71q23 -3 35 -5.5t22 -10.5t10 -23q0 -35 -51 -35q-22 0 -103 4t-151 4q-68 0 -143 -4t-97 -4q-28 0 -37.5 5.5t-9.5 27.5q0 15 11 24t21 12t34 9q40 8 61.5 27t34.5 63q22 78 80 277.5t103 357t69 243.5q31 100 31 119
q0 46 -49 60q-47 11 -53 20q-3 4 -3 10q0 43 58 43q32 0 163.5 -4t210.5 -4q71 0 202.5 4t180.5 4q30 0 40 -4.5t10 -15.5q0 -4 -21 -72q-22 -65 -70 -252q-13 -47 -47 -47q-39 0 -39 55q0 11 3.5 43.5t3.5 57.5q0 84 -38.5 117.5t-140.5 33.5q-21 0 -50 -1t-40 -1
q-13 0 -18 -12l-143 -487q11 -1 33 -2.5t34 -2.5q61 0 100.5 15t58.5 36.5t38 59.5q4 9 12 25t11.5 22t9 14.5t11.5 11.5t13 3q14 0 22.5 -8t8.5 -21q0 -14 -17 -70q-48 -145 -88 -323q-8 -42 -17 -57t-30 -15q-28 0 -28 31q0 9 0.5 30t0.5 37t-1 25q-2 53 -22 71.5
t-83 22.5q-10 1 -94 6z" />
    <glyph glyph-name="G" unicode="G" horiz-adv-x="1161" 
d="M23 393v2q0 175 74.5 341.5t207.5 295.5q136 133 319 208t392 75q94 0 145 -23q27 -17 27 -32q0 -16 -17 -72q-15 -44 -46.5 -127t-34.5 -92q-10 -31 -23 -45.5t-37 -14.5q-41 0 -41 60q0 19 16.5 103.5t16.5 113.5q0 55 -66 55q-80 0 -198 -76.5t-207 -199.5
q-109 -151 -168 -328t-59 -336q0 -121 49 -192q53 -68 135 -68q72 0 92 63q7 22 18.5 60t12.5 43l59 209q17 64 17 84q0 29 -13.5 40.5t-42.5 14.5q-36 3 -48.5 9t-12.5 26q0 14 11 23.5t32 9.5q27 0 105.5 -4.5t127.5 -4.5t122 4.5t99 4.5q46 0 46 -29q0 -13 -7.5 -20.5
t-15.5 -10t-27 -6.5q-41 -6 -60.5 -20t-29.5 -50l-119 -417q-12 -44 -131 -72q-116 -31 -270 -31q-205 0 -326 109q-124 108 -124 317z" />
    <glyph glyph-name="H" unicode="H" horiz-adv-x="1206" 
d="M459 629l-117 -422q-18 -71 -18 -92t10.5 -31.5t32.5 -17.5q3 -1 14.5 -5t15 -5.5t9.5 -6t8 -10.5t2 -14q0 -33 -54 -33q-36 0 -101 4t-99 4q-68 0 -141 -4t-91 -4q-28 0 -28 33t45 36q44 0 65 29q17 22 33 84l244 852q33 112 33 139q0 43 -56 49q-17 2 -25 4.5t-15 10
t-7 20.5q0 18 17.5 29.5t48.5 11.5q26 0 96 -4t119 -4q33 0 93 4t83 4q43 0 43 -30q0 -17 -7.5 -22.5t-33.5 -12.5q-29 -5 -48.5 -25.5t-33.5 -69.5l-119 -417q106 -4 162 -4q50 0 156 4l98 368q20 75 20 101q0 25 -30 35q-33 15 -33 34q0 39 45 39q16 0 89.5 -4t127.5 -4
q38 0 93 4t73 4q24 0 34.5 -7.5t10.5 -27.5q0 -7 -2 -12t-4.5 -8t-9 -5.5t-10.5 -4t-14 -4t-15 -4.5q-32 -10 -50.5 -30.5t-31.5 -68.5l-250 -921q-14 -49 -14 -76q0 -26 14 -38.5t41 -19.5q15 -4 22 -6.5t14 -10t7 -19.5q0 -35 -43 -35q-35 0 -98 4t-99 4q-46 0 -114.5 -4
t-92.5 -4q-41 0 -41 28q0 16 9 24t28 13q44 8 58 39q5 13 32 103l115 430q-49 4 -160 4q-53 0 -155 -4z" />
    <glyph glyph-name="I" unicode="I" 
d="M319 121v-2q0 -36 48 -47q29 -6 41 -14.5t12 -26.5q0 -24 -24.5 -31.5t-67.5 -7.5q-21 0 -80.5 4t-106.5 4q-59 0 -124.5 -4t-77.5 -4q-45 0 -45 28q0 36 45 46q40 7 60.5 22t31.5 55l237 858q7 28 16.5 60t14 47t7.5 32t3 29q0 25 -11.5 36t-35.5 16q-4 1 -12.5 2.5
t-11.5 2.5t-8.5 3t-7 5t-3.5 7.5t-2 11.5q0 37 57 37q30 0 101.5 -4t120.5 -4q43 0 100.5 4t77.5 4q26 0 37.5 -7.5t11.5 -27.5q0 -4 -1 -7t-2 -5t-4 -4t-5 -3.5t-7 -3.5l-7.5 -3t-9.5 -3t-11 -3q-35 -10 -56.5 -29.5t-31.5 -58.5l-213 -783q-7 -26 -17.5 -62.5t-15 -52.5
t-10 -38t-8 -33t-4 -23t-1.5 -22z" />
    <glyph glyph-name="J" unicode="J" 
d="M315 1167v2q0 25 -15.5 34t-55.5 16q-14 2 -21.5 5t-13.5 9.5t-6 17.5q0 39 73 39q29 0 101.5 -4t114.5 -4q52 0 118.5 4t89.5 4q22 0 30.5 -7t8.5 -26q0 -12 -11 -18.5t-40 -15.5q-39 -12 -60 -32.5t-32 -66.5q-184 -728 -207 -811q-48 -171 -86.5 -264t-93.5 -176
q-87 -140 -218.5 -219.5t-252.5 -79.5q-71 0 -118.5 38.5t-47.5 106.5q0 71 45 128t115 57q43 0 67.5 -25.5t24.5 -68.5q0 -22 -5 -49t-5 -42q0 -21 11 -36t30 -15q68 0 122 178q34 116 72 279q25 100 110 417t120 455q36 141 36 170z" />
    <glyph glyph-name="K" unicode="K" horiz-adv-x="1046" 
d="M311 1157v2q0 46 -55 55q-28 5 -39.5 12t-11.5 23q0 22 17 31.5t59 9.5q24 0 95.5 -4t115.5 -4q48 0 112 4t86 4t30.5 -8t8.5 -27q0 -6 -1.5 -10t-5 -7.5t-6 -5.5t-9 -3.5t-10 -2.5t-12 -2.5t-11.5 -2.5q-32 -5 -51.5 -26t-32.5 -69q-33 -119 -72.5 -256.5t-48.5 -173.5
q0 -6 8 -10q4 2 39 33q242 232 318 317q92 106 92 133q0 40 -47 50q-26 6 -31 15q-4 6 -4 17q0 21 18.5 30t42.5 9t78 -4t86 -4q27 0 72 4t63 4q47 0 47 -33q0 -17 -8.5 -27t-19.5 -14.5t-37 -11.5q-90 -26 -174 -106q-22 -20 -121 -115.5t-176 -167.5q33 -33 59 -133
l146 -500q22 -77 33.5 -98t35.5 -27q49 -10 49 -34q0 -31 -61 -31q-15 0 -58 4t-67 4q-22 0 -68 -4t-67 -4q-27 0 -38 13t-20 50q-20 85 -60.5 254t-61.5 254q-10 45 -16 57.5t-15 12.5q-12 0 -35 -27t-43 -65l-80 -316q-24 -95 -24 -108q0 -40 57 -56q18 -4 28.5 -7
t19.5 -10.5t9 -18.5q0 -33 -47 -33q-27 0 -94.5 4t-108.5 4q-40 0 -123.5 -4t-130.5 -4q-34 0 -34 31q0 25 15 33t44 10q11 2 19.5 4t15 4t12.5 7.5t9.5 7.5t8 11t6.5 12t6 15.5t5 17t5.5 21.5t6.5 24q24 89 110.5 396.5t131.5 476.5q16 66 16 94z" />
    <glyph glyph-name="L" unicode="L" horiz-adv-x="933" 
d="M340 1157v2q0 27 -14.5 40t-40.5 18q-5 1 -15.5 3t-15 3t-11.5 3t-10.5 4t-7 5t-5 7t-1.5 9q0 24 15.5 31.5t58.5 7.5q34 0 114.5 -4t127.5 -4q43 0 118 4t95 4q27 0 37 -7t10 -26q0 -7 -1.5 -12t-5.5 -9t-7 -6t-10.5 -4t-12.5 -3t-16 -3t-17 -3q-43 -8 -65 -26.5
t-35 -66.5q-19 -66 -256 -864q-8 -31 -18.5 -67.5t-17 -60.5t-9.5 -36q-3 -24 22 -26h76q124 0 189.5 39.5t127.5 152.5q52 95 65.5 112t39.5 17q35 0 35 -26q0 -19 -10.5 -59t-35.5 -118t-34 -108q-17 -61 -28 -74.5t-44 -13.5q-19 0 -69 2t-149.5 4t-238.5 2
q-82 0 -195.5 -4t-152.5 -4q-23 0 -32 5t-9 21q0 20 15.5 29t50.5 14q66 14 86 70q193 614 276 903q31 108 31 123z" />
    <glyph glyph-name="M" unicode="M" horiz-adv-x="1388" 
d="M240 1255v2q0 33 51 33q21 0 81.5 -4t100.5 -4q30 0 87 4t79 4q21 0 28 -8t7 -35q0 -111 -8 -392.5t-9 -346.5l5 -4q92 155 173 294.5t152.5 264.5t97.5 170q23 41 36 50q11 7 24 7q17 0 68 -4t83 -4q22 0 72 4t74 4q31 0 46 -8.5t15 -30.5q0 -5 -1.5 -9t-3 -7t-6 -6
t-7 -4.5t-9 -3.5t-9.5 -3t-10.5 -3t-10.5 -3q-60 -19 -78 -96q-111 -458 -203 -815q-41 -157 -41 -186q0 -51 52 -62q13 -3 17 -4.5t12.5 -5t11 -8.5t2.5 -12q0 -15 -10.5 -23t-41.5 -8q-20 0 -85 4t-119 4t-131.5 -4t-102.5 -4q-37 0 -37 28q0 6 2 10.5t5 7.5t9.5 6t11 5
t14.5 6t16 6q45 15 63.5 30t28.5 54q127 475 229 912l-4 2q-376 -664 -569 -996q-23 -41 -35 -51t-45 -10q-37 0 -45 10.5t-8 50.5q0 35 4 160t10 293.5t8 274.5q4 180 4 237l-4 4q-39 -120 -108 -331.5t-91 -280.5q-86 -259 -86 -297q0 -46 56 -64q4 -1 13 -3.5t12.5 -4
t10 -4t8.5 -4.5t5.5 -6t4.5 -8.5t1 -10.5q0 -26 -45 -26q-14 0 -60 4t-81 4q-33 0 -85 -4t-65 -4q-27 0 -27 26q0 19 12.5 25.5t47.5 13.5q33 7 57 28.5t41 70.5q78 229 179.5 522t129.5 375q27 77 27 110q0 42 -51 54q-39 9 -47 18q-6 8 -6 20z" />
    <glyph glyph-name="N" unicode="N" horiz-adv-x="1138" 
d="M852 416h4q145 504 180 639q19 87 19 102q0 50 -62 62q-27 5 -40 12.5t-13 23.5q0 35 45 35q21 0 67 -4t72 -4q23 0 64 4t61 4q37 0 37 -33q0 -8 -2.5 -13.5t-9.5 -9t-11 -5t-16 -4.5l-16 -4q-35 -11 -57.5 -32.5t-36.5 -70.5q-119 -401 -297 -1046q-14 -56 -28 -70
t-58 -14q-37 0 -50.5 15t-25.5 56l-313 965h-5q-135 -448 -196 -682q-45 -165 -45 -205q0 -32 16.5 -47t44.5 -22q4 -1 11.5 -3.5t11.5 -3.5t10.5 -3.5t9.5 -4.5l7.5 -5t6.5 -6t3.5 -7.5t1.5 -9.5q0 -33 -39 -33q-18 0 -68 4t-84 4q-30 0 -76 -4t-67 -4q-19 0 -27 8t-8 27
q0 12 7 19.5t14 10t22 6.5q71 10 88 46q25 67 70 223q47 155 96 314.5t78 253t43 142.5q24 91 24 115q0 28 -12.5 41t-42.5 21q-16 4 -23.5 6.5t-14.5 9.5t-7 18q0 20 11 28.5t42 8.5q23 0 72.5 -3t75.5 -3q22 0 63.5 3t59.5 3q17 0 25.5 -13t19.5 -50q38 -122 80 -250
t104 -311.5t84 -249.5z" />
    <glyph glyph-name="O" unicode="O" horiz-adv-x="1161" 
d="M1149 813v-2q0 -113 -30.5 -232t-90.5 -228t-140 -195t-188.5 -137.5t-226.5 -51.5q-203 0 -317 152q-107 138 -107 350q0 120 29 240.5t87 229t137.5 193t189 134t233.5 49.5q205 0 314.5 -135.5t109.5 -366.5zM743 1241h-2q-129 0 -241 -285q-73 -182 -122.5 -400.5
t-49.5 -324.5q0 -90 32.5 -140t94.5 -50q131 0 243 285q73 182 122.5 400.5t49.5 324.5q0 90 -32.5 140t-94.5 50z" />
    <glyph glyph-name="P" unicode="P" horiz-adv-x="1046" 
d="M1096 1012v-2q0 -90 -41 -192t-125 -171q-143 -123 -402 -123h-104q-15 -57 -42 -152t-36 -128q-20 -84 -20 -113q0 -34 16 -48.5t47 -19.5q3 -1 9 -2q19 -4 27.5 -7t16 -10t7.5 -19q0 -33 -50 -33q-1 0 -73 4t-160 4q-68 0 -137 -4t-86 -4q-30 0 -44 6.5t-14 24.5
q0 15 9.5 23.5t20 11.5t36.5 8q36 7 57 25.5t35 66.5q37 140 126 458.5t114 413.5q30 111 30 133q0 29 -13 40t-44 16q-41 7 -41 38q0 33 47 33q11 0 89.5 -4t146.5 -4q40 0 144 4t159 4q146 0 217 -65q78 -68 78 -213zM813 1079v2q0 63 -29 99.5t-104 36.5q-47 0 -59.5 -7
t-18.5 -30q-14 -52 -79.5 -283.5t-76.5 -280.5q-2 -11 5 -14.5t28 -3.5q138 0 219 121q56 84 85.5 187t29.5 173z" />
    <glyph glyph-name="Q" unicode="Q" horiz-adv-x="1161" 
d="M-70 -303v2q0 43 55 80t162 82q137 68 220 121q-147 29 -232.5 163t-85.5 324q0 152 46 303t132 270q90 127 217 200t281 73q205 0 314.5 -135.5t109.5 -366.5q0 -205 -96 -411.5t-258 -323.5q-143 -108 -308 -111q-48 -8 -107.5 -38.5t-107.5 -67.5l2 -4q87 32 172 20
q56 -5 104.5 -22t75.5 -34t59.5 -30.5t62.5 -13.5q107 0 141 108q1 3 3 10.5t3.5 10.5t4 7.5t5.5 6.5t8 2q16 0 26.5 -18t10.5 -49q0 -99 -84 -193q-106 -117 -241 -117q-138 0 -267 113q-11 10 -34 33t-34.5 32.5t-29 23t-31.5 19t-28 5.5q-23 0 -40.5 -12.5t-41.5 -41.5
q-63 -75 -125 -75q-64 0 -64 55zM870 1051v2q0 89 -32.5 138.5t-94.5 49.5q-65 0 -122 -65.5t-111 -194.5q-78 -184 -130 -410.5t-52 -339.5q0 -90 32.5 -140t94.5 -50q65 0 122 65.5t111 194.5q78 184 130 410.5t52 339.5z" />
    <glyph glyph-name="R" unicode="R" horiz-adv-x="1161" 
d="M1145 1032v-2q0 -117 -59 -207t-173 -145q-66 -35 -163 -53v-4q48 -6 71.5 -26t40.5 -73q31 -123 74 -354q11 -56 25.5 -79.5t35.5 -31.5q6 -2 19 -5t17 -4.5t11 -5.5t9 -9t2 -13q0 -28 -49 -28q-24 0 -78 4t-82 4q-14 0 -38 -1t-36 -1q-46 -4 -70 -4q-18 0 -27 12.5
t-13 46.5q-62 406 -70 449q-8 41 -20 55t-29 14q-38 0 -88 -10q-10 -15 -19 -49l-78 -305q-20 -84 -20 -103q0 -18 10 -25.5t33 -12.5q19 -4 28.5 -7t18 -11.5t8.5 -22.5q0 -19 -9.5 -26t-33.5 -7q-39 0 -119 4t-124 4q-38 0 -103 -4t-86 -4q-29 0 -40 5t-11 23q0 5 1 9
t3.5 7t5 5t7 4t7.5 3.5t9.5 3t10 2t11 1.5t10.5 2q29 7 46 20.5t26 49.5q41 148 131.5 474.5t126.5 457.5q19 69 19 94q0 15 -4 26t-13 18t-16.5 10t-20.5 7q-17 4 -25.5 7t-17 10.5t-8.5 19.5q0 39 55 39q34 0 114.5 -4t143.5 -4q56 0 167 4t163 4q134 0 208.5 -63.5
t74.5 -194.5zM848 1065v2q0 80 -33 115t-102 35q-32 0 -51.5 -4t-30.5 -17.5t-14.5 -22t-10.5 -32.5l-110 -393q-20 -66 -25 -97q12 -10 49 -10q110 3 195 94q58 61 95.5 151t37.5 179z" />
    <glyph glyph-name="S" unicode="S" horiz-adv-x="886" 
d="M178 891v2q0 184 132.5 303t342.5 119q54 0 119 -15t109 -36q45 -22 45 -43q0 -23 -15 -76q-4 -21 -18.5 -70.5t-20.5 -73.5q-12 -53 -23 -68t-28 -15q-29 0 -35 40q-2 19 -2.5 63.5t-1.5 59.5q-1 29 -3 50t-9 46t-19 40.5t-34 26.5t-53 11q-82 0 -132.5 -67.5
t-50.5 -161.5q0 -38 10 -72t35 -71.5t41 -57.5t54 -65q37 -44 58.5 -73t47.5 -73.5t38.5 -92t12.5 -101.5q0 -123 -69.5 -228t-185 -165t-247.5 -60q-59 0 -135 18.5t-125 47.5q-47 26 -47 59q0 9 1.5 19.5t7 33t11.5 47t18 75.5t24 104q7 36 16.5 47.5t30.5 11.5
q23 0 32 -16.5t9 -59.5q0 -133 14 -196q24 -117 133 -117q93 0 151 82t58 192q0 47 -22 96t-46.5 81t-68.5 83q-38 44 -60 72t-48.5 70t-39 85t-12.5 89z" />
    <glyph glyph-name="T" unicode="T" horiz-adv-x="933" 
d="M186 172l310 1038h-84q-56 0 -90.5 -23.5t-65.5 -76.5q-17 -29 -66 -129q-30 -59 -43 -70q-11 -10 -26 -10q-31 0 -31 43q0 39 40 170.5t67 192.5q25 63 53 63q16 0 26.5 -6.5t13.5 -14t7 -22.5q4 -14 8.5 -22.5t16.5 -15.5t30 -7h600q62 0 92 43q1 1 4.5 6.5t5 7t5 6.5
t5.5 7l5.5 5.5t6.5 5t6.5 4t7.5 3t8 0.5q28 0 28 -29q0 -20 -34 -155t-60 -207q-18 -55 -29 -66q-12 -10 -26 -10q-23 0 -31 15.5t-8 56.5q0 19 7 74.5t7 78.5q0 47 -26 64.5t-95 17.5h-55l-293 -1011q-14 -49 -14 -80q0 -41 57 -58q25 -7 36 -13.5t11 -20.5
q0 -22 -13.5 -28.5t-49.5 -6.5q-37 0 -122.5 4t-133.5 4q-45 0 -110 -4t-85 -4q-41 0 -41 28q0 16 8.5 25.5t17.5 12t28 5.5q50 10 72.5 29t41.5 80z" />
    <glyph glyph-name="U" unicode="U" horiz-adv-x="1138" 
d="M84 252v2q0 58 51 260q26 90 83 281.5t75 257.5q22 83 22 110q0 26 -11 39t-34 19q-4 1 -11.5 3.5t-11 4t-9 3.5t-7.5 4t-5 5.5t-4 7t-1 8.5q0 33 70 33q22 0 87 -4t109 -4q67 0 140 4t92 4q29 0 40 -6t11 -20q0 -5 -1 -9t-4 -7.5t-5.5 -6t-8.5 -4.5t-9.5 -3.5t-11 -3
t-11 -2t-12.5 -1.5t-13 -2q-21 -5 -35.5 -12.5t-31 -32.5t-27.5 -66q-141 -495 -192 -692q-3 -10 -10 -38t-11 -43t-9 -37.5t-7 -40t-2 -32.5q0 -72 50.5 -118.5t129.5 -46.5q127 0 202 80.5t121 261.5q41 161 95 363t67 253q27 116 27 135q0 31 -15.5 46t-48.5 20
q-26 5 -35.5 10.5t-9.5 19.5q0 35 45 35q17 0 59 -4t68 -4q23 0 63 4t54 4q47 0 47 -26q0 -7 -3 -12.5t-10.5 -9.5t-13 -6t-19 -6.5l-19.5 -6.5q-36 -12 -56 -38.5t-37 -84.5q-101 -397 -196 -744q-49 -190 -154 -282q-115 -107 -317 -107q-181 0 -280 71t-99 214z" />
    <glyph glyph-name="V" unicode="V" horiz-adv-x="933" 
d="M514 336h4q92 189 178 361l129.5 259t61.5 127q28 60 28 84q0 29 -14.5 41.5t-50.5 18.5q-11 2 -17 4.5t-11 8.5t-5 15q0 19 11 27t38 8q19 0 56.5 -4t60.5 -4q35 0 78 4t53 4q29 0 29 -35q0 -3 -0.5 -6t-2 -5.5t-2.5 -4t-4 -3.5t-5 -3.5t-6.5 -3.5t-7 -3t-8.5 -3.5
t-9 -3.5q-40 -14 -62 -39t-51 -80q-503 -973 -553 -1071q-18 -33 -28.5 -40t-43.5 -7q-51 0 -73 7t-28 20.5t-7 47.5q-18 642 -35 1063q-1 43 -10.5 67t-18.5 29.5t-28 10.5q-6 2 -17.5 5t-17.5 4.5t-11 7t-5 13.5q0 18 13.5 25.5t53.5 7.5q24 0 84 -4t100 -4q36 0 110 4
t103 4q52 0 52 -30q0 -15 -11.5 -24.5t-22 -11.5t-32.5 -5q-34 -7 -48.5 -24.5t-14.5 -61.5v-52q1 -76 18 -745z" />
    <glyph glyph-name="W" unicode="W" horiz-adv-x="1464" 
d="M762 657l-23 459q-1 8 -2.5 23.5t-2 22.5t-2.5 18t-4 16.5t-6 12.5t-9.5 10.5t-12.5 5.5q-9 3 -14.5 5t-10.5 9t-5 18q0 19 12 26t43 7q51 0 137 -4t125 -4q46 0 139 4t140 4q26 0 37.5 -6t11.5 -22q0 -32 -47 -45q-40 -11 -76 -66l-199 -301l31 -459h4l358 651
q5 9 15 26.5t14 25t11.5 21t10.5 20.5t6.5 16t5 16t1.5 13q0 9 -6.5 16t-12.5 9.5t-18 6.5q-1 1 -6.5 3t-7 3t-6.5 3.5t-6.5 3.5t-4.5 4t-4.5 5.5t-2.5 5.5t-1 7q0 20 17 31.5t45 11.5q20 0 55 -4t51 -4q18 0 54 4t53 4q47 0 47 -37q0 -11 -1.5 -18t-9 -11.5t-10.5 -6
t-17.5 -5t-19.5 -4.5q-77 -26 -139 -135l-577 -1028q-24 -42 -42 -60t-44 -18q-29 0 -36 7.5t-7 37.5l-19 518h-4l-301 -481q-39 -62 -51 -72q-13 -10 -37 -10q-29 0 -39.5 11t-13.5 59l-56 1071q-5 97 -49 111q-3 1 -11 3.5t-11 4l-9 4.5t-8 5.5t-4 7.5t-2 11q0 35 47 35
q32 0 86 -4t78 -4q31 0 94 4t95 4q24 0 34.5 -7.5t10.5 -25.5q0 -8 -2.5 -14t-8 -10.5t-9.5 -6.5t-13 -5l-12 -4q-43 -17 -43 -78q0 -27 4 -92t4 -74l30 -602h5zM985 963l105 157q26 41 26 74q0 15 -16 21t-58 6q-47 0 -62 -9.5t-15 -29.5q0 -19 7 -103t9 -116h4z" />
    <glyph glyph-name="X" unicode="X" horiz-adv-x="978" 
d="M117 1253v2q0 20 11.5 27.5t35.5 7.5q40 0 112.5 -4t118.5 -4q38 0 107 4t102 4q41 0 41 -33q0 -12 -7.5 -19t-17 -9.5t-34.5 -7.5q-58 -14 -58 -60q0 -5 21 -108q6 -24 28 -107t35 -135q33 42 74 94t67.5 86t43.5 58q63 88 63 131q0 33 -41 43q-43 9 -49 17q-4 6 -4 13
q0 37 53 37q11 0 67 -4t101 -4q39 0 79.5 4t51.5 4q39 0 39 -33q0 -19 -23 -27q-7 -3 -26 -9l-8 -2q-51 -10 -100.5 -52.5t-125.5 -136.5q-15 -18 -237 -307l145 -537q21 -70 38 -95.5t42 -31.5q4 -1 15 -3.5t14.5 -3.5t10.5 -4t9 -6t4.5 -8.5t2.5 -13.5q0 -15 -11.5 -21.5
t-40.5 -6.5q-24 0 -98 4t-137 4q-48 0 -122.5 -4t-102.5 -4q-37 0 -37 28q0 14 9 22.5t16 10.5t30 8q37 7 56.5 22t19.5 48q0 34 -29 156q-25 109 -65 262q-170 -232 -222 -309q-67 -99 -67 -127q0 -32 37 -47q4 -2 11 -4.5t10.5 -3.5t9 -3.5t8 -4t6 -4.5t5 -6t2.5 -6.5
t1 -8.5q0 -33 -47 -33q-19 0 -68 4t-72 4q-27 0 -83.5 -4t-79.5 -4q-21 0 -28 6t-7 22q0 18 13.5 26t45.5 15q37 10 68 30.5t67 64.5q27 35 152 197t209 270q-73 293 -133 501q-14 49 -30.5 67t-41.5 23q-3 1 -10 3t-10 2.5t-8.5 2t-7 2.5t-5.5 3t-5.5 3.5t-3.5 4t-3 5
t-1.5 6t-0.5 7.5z" />
    <glyph glyph-name="Y" unicode="Y" horiz-adv-x="933" 
d="M500 1157v-2q0 -23 12 -108q6 -36 16.5 -91t26.5 -139.5t29 -154.5q25 34 76.5 106t76.5 107t57.5 82t53.5 79q67 104 67 140t-47 47q-4 1 -10.5 2.5t-9.5 2t-8 1.5t-7.5 2t-6 2.5t-5 3l-3.5 3.5t-3 4.5t-1.5 5.5t-0.5 7q0 33 41 33q17 0 64 -4t92 -4q22 0 59 4t57 4
q33 0 33 -22q0 -17 -10.5 -25.5t-34.5 -17.5q-32 -14 -63 -42t-78 -93q-318 -453 -363 -523q-55 -178 -94 -317q-27 -94 -27 -131q0 -27 13 -40.5t39 -21.5q5 -1 12.5 -3t11.5 -3t9.5 -2.5t8.5 -3.5t6 -5t4 -6.5t1 -8.5q0 -19 -11 -26t-42 -7q-34 0 -111 4t-117 4
q-46 0 -126 -4t-107 -4q-23 0 -33 5t-10 21q0 10 4 17t13 11.5t16 6.5t22.5 5t22.5 5q36 9 57 27t33 64q5 15 37.5 124.5t52.5 180t27 104.5q-4 36 -21.5 122t-44.5 211.5t-39 182.5q-13 74 -29 100.5t-49 39.5q-6 3 -17.5 7.5t-16 7t-10.5 6.5t-8.5 9.5t-2.5 12.5
q0 28 61 28q16 0 74.5 -4t112.5 -4q76 0 160 4t96 4q45 0 45 -30q0 -7 -3 -12t-11 -8.5t-14.5 -5t-20 -4.5t-21.5 -5q-33 -10 -48 -24.5t-15 -43.5z" />
    <glyph glyph-name="Z" unicode="Z" horiz-adv-x="933" 
d="M-72 16v2q0 9 80 136q6 10 233 365.5t353 561.5q8 13 18.5 29.5t16 26t12.5 20.5t10.5 17t6.5 12.5t4.5 10.5t1.5 7q0 6 -12.5 7t-67.5 1q-130 0 -194.5 -42t-119.5 -166q-6 -14 -14 -31t-12 -26t-9.5 -20.5t-8.5 -17t-7 -12t-7 -9t-7.5 -5.5t-8.5 -3.5t-10 -0.5
q-30 0 -30 34q0 42 75 324q8 33 22 43t42 10q39 0 167 -4t202 -4q66 0 176 4t159 4q25 0 25 -16q0 -19 -57 -107q-132 -214 -594 -940q-82 -122 -82 -133q0 -12 18.5 -15t89.5 -3q76 0 130.5 14t93.5 45t64.5 70.5t49.5 99.5q8 18 16.5 40.5t12 31.5t9.5 19t13 13t17 3
q33 0 33 -37q0 -22 -32 -157t-48 -193q-4 -20 -12 -26.5t-27 -6.5q-52 0 -192 4t-226 4q-81 0 -205.5 -4t-138.5 -4q-29 0 -29 24z" />
    <glyph glyph-name="bracketleft" unicode="[" horiz-adv-x="751" 
d="M494 1405h362q35 0 35 -27q0 -15 -13 -25t-36 -10h-88q-57 0 -74.5 -11.5t-28.5 -53.5l-434 -1511q-20 -68 -20 -95q0 -16 14 -23t51 -7h92q26 0 35.5 -7.5t9.5 -23.5q0 -15 -11 -22t-40 -7h-368q-31 0 -43.5 7t-12.5 22q0 10 4 28t8.5 33.5t13 44.5t13.5 45l461 1606
q8 25 19 31t51 6z" />
    <glyph glyph-name="backslash" unicode="\" horiz-adv-x="569" 
d="M51 1399v2q0 12 33 12h90q19 0 26 -8.5t13 -36.5l387 -1726q8 -32 8 -45q0 -15 -30 -15h-93q-19 0 -26 8.5t-13 36.5l-387 1727q-1 7 -4.5 22.5t-3.5 22.5z" />
    <glyph glyph-name="bracketright" unicode="]" horiz-adv-x="751" 
d="M209 -418h-363q-19 0 -26.5 5.5t-7.5 21.5q0 14 12.5 23.5t36.5 9.5h88q57 0 74 11.5t28 53.5l434 1512q21 76 21 94q0 16 -14.5 23t-51.5 7h-92q-26 0 -35.5 7.5t-9.5 23.5q0 31 51 31h369q32 0 43.5 -6.5t11.5 -24.5q0 -10 -4 -28t-8.5 -33t-13.5 -44.5t-13 -43.5
l-460 -1606q-7 -26 -18 -31.5t-52 -5.5z" />
    <glyph glyph-name="asciicircum" unicode="^" horiz-adv-x="1228" 
d="M553 1282h154l419 -819h-174l-323 637l-322 -637h-176z" />
    <glyph glyph-name="underscore" unicode="_" horiz-adv-x="1024" 
d="M0 -154h1024v-102h-1024v102z" />
    <glyph glyph-name="grave" unicode="`" 
d="M170 1360v2q0 37 23 56.5t57 19.5q35 0 61.5 -17.5t55.5 -56.5l151 -207q5 -7 12 -16.5t11 -15t8 -12.5t6 -12t2 -9q0 -19 -20 -19q-23 0 -84 41l-207 148q-23 17 -30.5 22t-21.5 19t-19 27t-5 30z" />
    <glyph glyph-name="a" unicode="a" horiz-adv-x="1046" 
d="M-27 164v2q0 123 55.5 259t147.5 253q90 116 193.5 186t193.5 70q39 0 70.5 -11t49.5 -22.5t26 -11.5q12 0 30 41q13 28 66 28h131q27 0 39 -6.5t12 -29.5q0 -13 -18 -80q-9 -27 -70.5 -215.5t-89.5 -278.5q-31 -99 -31 -133q0 -29 25 -29q32 0 102 113q11 17 21.5 35.5
t15.5 27.5t10.5 17t10 11t10.5 3q22 0 22 -24q0 -33 -36.5 -100.5t-92.5 -131.5q-63 -73 -134 -119.5t-138 -46.5q-50 0 -73 21.5t-23 66.5q0 36 14 101q21 103 57 221l-4 4q-29 -49 -49.5 -80.5t-59 -87t-72.5 -93t-76.5 -76t-87 -58t-87.5 -19.5q-88 0 -124 50.5
t-36 142.5zM686 788v3q0 27 -15 42t-42 15q-95 0 -213 -209q-156 -279 -156 -383q0 -59 45 -59q38 0 102 70.5t130 176.5q63 103 106 200.5t43 143.5z" />
    <glyph glyph-name="b" unicode="b" horiz-adv-x="1046" 
d="M993 680v-2q0 -126 -56.5 -255t-148.5 -229t-220.5 -163.5t-262.5 -63.5q-114 0 -194 63.5t-80 190.5q0 65 43 223q33 121 112 360.5t95 295.5q20 78 20 98q0 54 -49 66q-4 1 -12 2.5t-11.5 2.5t-9.5 2.5t-9 2.5t-7.5 3t-6.5 4.5t-4 5.5t-3 7t-1 9q1 20 17 26.5t63 11.5
q141 14 322 80q21 9 31 9q32 0 32 -25q0 -6 -49 -160l-190 -604h4q1 1 24.5 34.5t29.5 41.5t30.5 40t35.5 43.5t36 39t41 39t41.5 30.5t46.5 27t46 15t50 7q55 0 94.5 -23.5t60.5 -65.5t30 -88t9 -101zM705 692v2q0 84 -58 84q-62 0 -159.5 -138t-168.5 -300.5t-71 -237.5
q0 -32 18.5 -51.5t52.5 -19.5q56 0 127 82t126.5 192t94 220.5t38.5 166.5z" />
    <glyph glyph-name="c" unicode="c" horiz-adv-x="819" 
d="M813 791v-3q0 -59 -33 -99t-94 -40q-40 0 -69.5 23.5t-32.5 66.5q-2 25 3.5 56.5t4.5 46.5q-2 23 -9.5 33t-29.5 10q-32 0 -78 -60.5t-86 -152.5q-43 -97 -70.5 -204t-27.5 -194q0 -161 119 -161q96 0 208 163q12 18 25 39.5t20.5 33.5t15.5 23t14.5 16t13.5 5
q24 0 24 -31q0 -37 -41 -108q-28 -49 -67 -96t-91 -90.5t-118 -70t-135 -26.5q-144 0 -209.5 91.5t-65.5 252.5q0 119 44.5 233.5t125.5 207.5q82 93 189 147.5t227 54.5q102 0 162.5 -41.5t60.5 -125.5z" />
    <glyph glyph-name="d" unicode="d" horiz-adv-x="1046" 
d="M-18 211v2q0 128 53 261t143 243t200 175.5t216 65.5q66 0 143 -36q52 166 70 225q14 63 14 67q0 27 -14 39t-45 15q-28 3 -40.5 10.5t-12.5 24.5q0 20 17.5 27.5t64.5 10.5q113 9 266 66q9 3 24 10t24.5 10t16.5 3q10 0 17.5 -7t7.5 -18q0 -19 -29 -117
q-143 -466 -274 -880q-51 -165 -51 -189q0 -35 26 -35q40 0 96 107q9 16 18 34.5t14 29.5t11 21t12 14.5t13 4.5q23 0 23 -30q0 -25 -20 -71t-52 -93q-65 -94 -153.5 -162t-170.5 -68q-96 0 -96 105q0 43 21 129q6 28 23 88t22 78l-5 4q-38 -63 -62.5 -102t-73 -103
t-89.5 -102t-96.5 -67.5t-108.5 -29.5q-80 0 -121.5 57t-41.5 183zM707 823v2q0 24 -14.5 41t-43.5 17q-51 0 -116.5 -69.5t-126.5 -176.5q-60 -103 -99 -208t-39 -167q0 -76 54 -76q80 0 233 273q152 264 152 364z" />
    <glyph glyph-name="e" unicode="e" horiz-adv-x="819" 
d="M813 766v-2q0 -78 -34.5 -138.5t-100 -101t-146 -66t-184.5 -40.5q-28 -4 -43 -6q-14 -60 -14 -131q0 -168 108 -168q112 0 236 170q11 14 26 39t23.5 34t17.5 9q23 0 23 -29q0 -32 -47 -100q-31 -46 -70.5 -89t-93 -84.5t-121.5 -66.5t-139 -25q-117 0 -183.5 84
t-66.5 226q0 126 50.5 251t130 218t184.5 150.5t209 57.5q109 0 172 -51t63 -141zM573 889h-2q-65 0 -139 -116t-117 -300q98 16 171 84.5t110 153.5q31 66 31 120q0 25 -15 41.5t-39 16.5z" />
    <glyph glyph-name="f" unicode="f" 
d="M922 1272v-2q0 -54 -29.5 -89.5t-79.5 -35.5t-77 29t-27 79q0 23 8.5 47t7.5 31q0 25 -25 25q-39 0 -84 -68q-53 -88 -84 -219q-21 -79 -34 -143h147q13 0 18.5 -3.5t4.5 -13.5q0 -5 -9 -41q-7 -24 -20 -24h-162q-26 -104 -73.5 -300t-65.5 -268q-86 -347 -203 -526
q-144 -217 -352 -217q-80 0 -132 42t-52 124q0 64 29.5 102.5t84.5 38.5q46 0 70 -25t27 -63q1 -30 -10.5 -70t-10.5 -49q3 -26 31 -26q32 0 57 37t55 123q32 92 131 475q66 259 158 602h-129q-22 0 -22 16q8 31 10 37q6 19 11 24t20 5h133q35 122 79 214.5t115 162.5
q127 127 299 127q81 0 133 -40t52 -118z" />
    <glyph glyph-name="g" unicode="g" horiz-adv-x="864" 
d="M96 582v2q0 160 105 267t266 107q73 0 151 -36q12 -4 31 -12t25 -9q32 0 110.5 3t104.5 3q35 0 35 -16q-1 -7 -15 -53q-4 -8 -6 -11.5t-6.5 -7t-11.5 -4.5l-135 -12q28 -77 28 -166q0 -75 -24 -143.5t-69.5 -124t-119 -88.5t-164.5 -33q-79 0 -174 49q-13 -3 -26 -18.5
t-13 -32.5q0 -15 7 -28t21.5 -24t30.5 -19t42 -16.5t46 -14.5t52 -15.5t53 -15.5q55 -18 93.5 -36.5t78 -48t60 -74t20.5 -101.5q0 -133 -129 -226.5t-327 -93.5q-173 0 -277 69t-104 187q0 39 16.5 71t40 52.5t61 38t67 26.5t69.5 19q-78 56 -78 129q0 66 37.5 115
t113.5 96q-45 52 -65.5 109t-20.5 137zM582 795v2q0 102 -80 102q-44 0 -94.5 -93t-82.5 -208t-32 -186q0 -105 74 -105q46 0 98.5 96t84.5 211t32 181zM281 -403h2q71 0 123.5 37t52.5 102q0 91 -105 139q-21 9 -91.5 33.5t-106.5 44.5q-105 -38 -105 -137q0 -91 69.5 -155
t160.5 -64z" />
    <glyph glyph-name="h" unicode="h" horiz-adv-x="1001" 
d="M938 674v-2q0 -108 -39.5 -232t-103.5 -229t-153 -174.5t-179 -69.5q-50 0 -80.5 25.5t-30.5 79.5q0 33 17 55.5t39 22.5q18 0 25.5 -12t10.5 -38q0 -39 15 -39q27 0 77.5 128t90 287.5t39.5 240.5q0 67 -41 67q-33 0 -78.5 -57.5t-114.5 -189.5q-100 -196 -205 -465
q-21 -53 -40 -62.5t-95 -9.5q-88 0 -108.5 2t-20.5 12t10 52q38 138 149.5 516.5t147.5 507.5q33 112 33 118q0 31 -41 41t-49 15q-12 6 -12 22t11 24t36 13q6 1 54.5 8.5t76.5 13.5t78 22.5t94 39.5q31 23 55 23q25 0 25 -25q0 -11 -10 -45q-8 -25 -35 -111.5t-82.5 -262.5
t-122.5 -394l4 -4q8 12 35.5 56.5t40 63.5t40.5 59.5t45.5 61t46 49.5t51.5 43.5t51.5 25.5t56.5 11q186 0 186 -284z" />
    <glyph glyph-name="i" unicode="i" 
d="M612 1237v-2q0 -63 -41.5 -118.5t-109.5 -55.5q-52 0 -85.5 31.5t-33.5 81.5q0 74 45 128t109 54q48 0 82 -31t34 -88zM516 854v-2q0 -51 -41 -166q-48 -143 -121 -338q-39 -112 -39 -129q0 -11 6.5 -18.5t18.5 -7.5q36 0 109 122q12 20 21.5 41t13.5 31.5t10 17.5t14 7
q9 0 15.5 -7.5t6.5 -17.5q0 -25 -21.5 -77t-57.5 -107q-60 -96 -141.5 -163t-166.5 -67q-54 0 -83 31.5t-29 89.5q0 64 43 185q52 163 112 321q43 119 43 143q0 29 -22 29q-16 0 -34 -20t-52 -66q-13 -18 -25.5 -37.5t-19 -29.5t-13 -19t-11.5 -12.5t-11 -3.5q-21 0 -21 20
q0 26 27.5 78t71.5 104q145 172 284 172q113 0 113 -104z" />
    <glyph glyph-name="j" unicode="j" 
d="M625 1237v-2q0 -63 -41.5 -118.5t-110.5 -55.5q-52 0 -84.5 31.5t-32.5 81.5q0 75 44.5 128.5t109.5 53.5q48 0 81.5 -31t33.5 -88zM541 864v-2q0 -42 -33 -160q-15 -55 -197 -667q-73 -234 -196 -367q-131 -143 -291 -143q-80 0 -128 43t-48 131q0 141 112 141
q48 0 70.5 -34t22.5 -111q0 -96 41 -96q26 0 40.5 35t24.5 110q2 20 5.5 37.5t13.5 51t16.5 55t27 85.5t33.5 107q109 371 156 508q45 139 45 147q0 25 -23 25q-20 0 -40 -18.5t-50 -59.5q-16 -19 -35.5 -47.5t-30 -39.5t-20.5 -11q-20 0 -20 24q0 25 29.5 74.5t76.5 101.5
q66 74 145.5 124t151.5 50q101 0 101 -94z" />
    <glyph glyph-name="k" unicode="k" horiz-adv-x="1001" 
d="M928 760v-2q0 -131 -98.5 -219t-258.5 -103v-4q23 -11 40 -30t28.5 -50t16.5 -49t14 -57q7 -35 13 -55.5t16 -43t25.5 -33t35.5 -10.5q26 0 40.5 18.5t14.5 39.5t-22.5 55.5t-22.5 58.5q0 27 13.5 43.5t37.5 16.5q60 0 60 -111q0 -101 -70 -176.5t-172 -75.5
q-61 0 -105.5 23t-71.5 66t-41.5 84t-25.5 96q-11 65 -20 84.5t-29 19.5q-19 0 -37 -72q-1 -4 -24.5 -93t-42.5 -146q-6 -22 -17 -28.5t-37 -6.5h-176q-32 0 -32 16q0 14 22 107q43 154 143.5 497.5t135.5 466.5q26 99 26 123q0 27 -14.5 40t-44.5 18q-28 3 -40.5 10.5
t-12.5 26.5q0 17 15 24t52 10q158 17 289 70q55 21 63 21q25 0 25 -25q0 -6 -5 -21.5t-18 -55t-26 -83.5l-174 -569l4 -4q2 3 29.5 38.5t36.5 47t37 45t44 47.5t45 39t51 35.5t50 20t55 9.5q78 0 119 -55t41 -139zM670 735v2q0 56 -39 56q-40 0 -105.5 -72.5t-114.5 -157.5
t-53 -125q7 -11 37 -8q68 7 134 66t103.5 126.5t37.5 112.5z" />
    <glyph glyph-name="l" unicode="l" 
d="M16 104v2q0 57 41 218q24 96 62.5 226.5t84 280.5t62.5 207q41 128 41 162q0 32 -14 46.5t-43 19.5t-42 12.5t-13 24.5q1 20 17 26.5t62 11.5q135 13 281 68q50 21 63 21q25 0 25 -21q0 -5 -4 -17.5t-12.5 -36t-14.5 -44.5q-55 -193 -153.5 -518t-122.5 -408
q-39 -142 -39 -170q0 -15 7.5 -24t19.5 -9q44 0 110 119q11 19 25 50t23 43t20 12q20 0 20 -27q0 -22 -22 -72.5t-58 -107.5q-65 -96 -145 -161t-164 -65q-117 0 -117 131z" />
    <glyph glyph-name="m" unicode="m" horiz-adv-x="1615" 
d="M500 856v-2q0 -69 -66 -279l4 -4q104 169 174 247q124 140 234 140q59 0 92 -35.5t33 -105.5q0 -46 -21 -126t-45 -136l4 -4q98 169 211 280q134 127 252 127q135 0 135 -137q0 -51 -43 -178q-25 -73 -78 -207.5t-65 -169.5q-16 -50 -16 -65q0 -23 22 -23q46 0 117 113
q11 17 22 37t17 31.5t13 22t13.5 15t14.5 4.5q9 0 14.5 -7.5t5.5 -16.5q0 -26 -29 -86.5t-75 -120.5q-62 -86 -138.5 -141.5t-160.5 -55.5q-53 0 -88 31.5t-35 85.5q0 62 49 201q31 87 100 266q56 152 56 174q0 41 -39 41q-68 0 -189 -211q-111 -197 -204 -477
q-22 -61 -39.5 -72.5t-73.5 -11.5h-111q-40 0 -50.5 3t-10.5 15q0 6 16 56q5 16 49.5 146.5t75 224.5t47.5 155q27 100 27 125q0 45 -35 45q-58 0 -162 -186q-113 -186 -235 -504q-23 -60 -39 -70t-84 -10h-96q-40 0 -50 3.5t-10 14.5q0 3 2.5 10.5t7 20t7.5 23.5
q20 60 91 271.5t103 311.5q27 79 27 109q0 27 -27 27q-30 0 -117 -121q-4 -7 -13.5 -21.5t-14.5 -22.5t-12.5 -17.5t-13.5 -14t-11 -4.5q-23 0 -23 22q0 23 27 72.5t70 101.5q145 172 288 172q47 0 73 -26.5t26 -75.5z" />
    <glyph glyph-name="n" unicode="n" horiz-adv-x="1161" 
d="M1053 815v-2q0 -56 -27 -133q-25 -76 -82 -221.5t-65 -165.5q-33 -78 -33 -100q0 -25 22 -25q43 0 117 102q15 22 28 44.5t20 35.5t13.5 23.5t12 15t12.5 4.5q25 0 25 -28q0 -23 -26 -75t-69 -110q-67 -88 -150 -147.5t-173 -59.5q-111 0 -111 115q0 72 56 225
q28 79 75.5 198t49.5 124q26 68 26 100q0 49 -41 49q-87 0 -227 -233q-49 -78 -116.5 -227.5t-117.5 -280.5q-11 -31 -25 -37t-61 -6h-129q-45 0 -45 18q0 13 23 80q66 189 176 537q27 93 27 106q0 33 -25 33q-41 0 -113 -110q-6 -10 -17 -26.5t-15.5 -23t-11.5 -14.5
t-12 -11t-11 -3q-23 0 -23 22q0 21 25.5 67t66.5 97q63 78 140 132t151 54q109 0 109 -110q0 -46 -21 -121q-9 -34 -29.5 -98t-25.5 -88l4 -4q34 67 82.5 136t112 135t140.5 108t150 42q67 0 102.5 -37t35.5 -106z" />
    <glyph glyph-name="o" unicode="o" horiz-adv-x="933" 
d="M862 582v-2q0 -222 -135 -404q-73 -97 -174.5 -153t-218.5 -56q-156 0 -243 110.5t-87 287.5q0 151 69.5 287.5t190.5 221t262 84.5q156 0 246 -101.5t90 -274.5zM629 756v2q0 127 -78 127q-49 0 -94.5 -62.5t-98.5 -199.5q-37 -83 -78.5 -233t-41.5 -222q0 -127 79 -127
q47 0 92.5 63t98.5 199q37 83 79 233t42 220z" />
    <glyph glyph-name="p" unicode="p" horiz-adv-x="1001" 
d="M948 674v-2q0 -114 -45.5 -236t-122.5 -221q-82 -103 -184 -164t-211 -61q-95 0 -149 14q-23 -50 -50 -160q-36 -130 -36 -161q0 -25 18 -38t53 -22q67 -12 80 -24q8 -7 8 -17q0 -24 -13 -30.5t-54 -6.5q-37 0 -116.5 4.5t-119.5 4.5q-62 0 -139.5 -4.5t-93.5 -4.5
q-39 0 -54.5 7t-15.5 26q0 24 15 32t53 11q47 3 68.5 20.5t39.5 77.5l322 1053q7 20 4 28t-19 7q-25 -6 -52 -17t-44.5 -18.5t-23.5 -7.5q-19 0 -19 16q0 31 37 54q12 9 31.5 18.5t33.5 14.5t38 13t32 11q13 4 23 27l73 233q9 29 43 29q29 2 97 2h92q22 0 22 -23
q0 -5 -8 -41q-33 -111 -47 -168q41 6 76 6q25 2 76 2q282 0 282 -284zM565 877h-2q-34 0 -69 -15q-21 -50 -33 -96q-133 -438 -154 -504q-35 -121 -35 -149q0 -30 17.5 -45t46.5 -15q51 0 106 60t101 153q56 117 94.5 254.5t38.5 227.5q0 69 -27.5 99t-83.5 30z" />
    <glyph glyph-name="q" unicode="q" horiz-adv-x="1001" 
d="M-29 209v2q0 117 53 248t142 243q90 115 199.5 185.5t214.5 70.5q53 0 122 -26q9 -3 28 -9t29 -9t24 -6t24 -3q46 0 90 35q33 33 53 33q23 0 23 -25q0 -8 -5 -27.5t-20 -69t-26 -89.5q-43 -157 -137 -477t-121 -426q-39 -137 -39 -176q0 -51 59 -66q18 -5 25 -7t16 -7
t11.5 -11.5t2.5 -17.5q0 -29 -63 -29q-31 0 -106.5 4.5t-131.5 4.5q-46 0 -124.5 -4.5t-112.5 -4.5q-19 0 -28 6t-9 23q0 7 1.5 12.5t6.5 10t8.5 7t12.5 4.5t14 3t18 3t19 3q40 8 63 27t37 65l182 592l-4 4q-9 -12 -33.5 -45.5t-35.5 -48t-34.5 -44.5t-36.5 -44.5t-36 -39
t-39 -37t-39 -28.5t-42.5 -24t-42.5 -13.5t-46 -5.5q-166 0 -166 234zM680 817v2q0 64 -57 64q-52 0 -115.5 -74.5t-126.5 -192.5q-57 -107 -94 -216.5t-37 -168.5q0 -65 45 -65q58 0 152.5 133.5t163.5 290.5t69 227z" />
    <glyph glyph-name="r" unicode="r" horiz-adv-x="819" 
d="M836 821v-2q0 -99 -51.5 -175.5t-116.5 -76.5q-45 0 -56 31q-4 10 -6 20t-1.5 17.5t1 22t0.5 24.5q0 31 -4.5 41t-17.5 10q-39 0 -129 -194q-42 -93 -187 -488q-15 -36 -32 -43.5t-89 -7.5q-98 0 -116.5 1.5t-18.5 10.5q0 4 15 58q13 48 47.5 169t63 225t48.5 183
q25 107 25 115q0 24 -16 24q-35 0 -91 -96q-12 -20 -26 -47.5t-17 -32.5q-12 -24 -28 -24q-23 0 -23 24q0 23 26.5 80t67.5 113q48 64 109 105.5t127 41.5q104 0 104 -110q0 -14 -1.5 -29t-5 -36.5t-6.5 -36.5t-10 -45.5t-10.5 -46.5t-13.5 -56t-14 -58l4 -4
q21 46 30.5 65.5t30 61.5t31.5 61.5t30.5 54.5t33.5 52.5t33 42.5t35.5 37.5t36.5 26t40 19t41 5.5q55 0 81 -35.5t26 -97.5z" />
    <glyph glyph-name="s" unicode="s" horiz-adv-x="706" 
d="M596 319v-2q0 -151 -111 -245q-110 -101 -278 -101q-55 0 -121 16t-104 46q-35 31 -35 61q0 60 20 150q13 50 28.5 74t41.5 24q34 0 45 -53q5 -14 17.5 -52.5t19.5 -58t21.5 -51t28.5 -47.5t35.5 -28.5t45.5 -12.5q40 0 66 38t26 83q0 42 -19.5 85.5t-39 69t-58.5 70.5
q-37 43 -58 73.5t-39.5 78t-18.5 96.5q0 138 104.5 231.5t247.5 93.5q36 0 74 -5t76 -15t62.5 -30t24.5 -46q0 -46 -22 -117q-14 -50 -29.5 -72t-38.5 -22q-16 0 -27.5 8t-20.5 28t-12.5 32.5t-10.5 42.5q-1 5 -2 8q-13 55 -34 87t-61 32q-43 0 -69.5 -34t-26.5 -77
q0 -12 2 -24t4 -22t8.5 -23t9.5 -20.5t13.5 -22t13.5 -19.5t16 -21.5t15.5 -19.5l17.5 -21t17 -20q45 -50 68 -79t45 -76t22 -91z" />
    <glyph glyph-name="t" unicode="t" 
d="M-6 90v2q0 60 45 211q77 261 170 541h-135q-10 0 -13 3.5t0 12.5q9 27 15 51q6 15 22 15h135l91 278q9 20 30 25h95h100q26 0 26 -19q0 -13 -14 -59q-9 -31 -35 -113.5t-34 -111.5h161q19 0 13 -17q-8 -29 -15 -47q-3 -18 -22 -18h-160q-47 -157 -154 -488
q-43 -133 -43 -155q0 -14 8 -22.5t19 -8.5q28 0 96 86q24 31 42.5 62t26 47t16.5 26t20 10q22 0 22 -26q0 -42 -80 -160q-68 -100 -153 -171t-172 -71q-67 0 -95 28.5t-28 88.5z" />
    <glyph glyph-name="u" unicode="u" horiz-adv-x="1161" 
d="M43 96v2q0 53 37 162q18 55 45 125t58.5 148t43.5 110q33 84 33 105q0 20 -20 20q-39 0 -103 -84q-18 -23 -33.5 -47t-22 -34.5t-14 -17.5t-16.5 -7t-15.5 8t-6.5 20q0 19 21.5 59t62 89t91 94t118 75.5t133.5 30.5q102 0 102 -96q0 -39 -37 -145q-22 -63 -72.5 -193.5
t-64.5 -169.5q-43 -114 -43 -137q0 -35 33 -35q37 0 97 59t114 148q146 255 239 512q6 18 15.5 24.5t31.5 6.5q57 2 185 2q37 0 37 -27q0 -8 -15 -51q-122 -325 -182 -514q-31 -91 -31 -119q0 -29 27 -29q33 0 106 109q13 19 25 38.5t18 29t12 18t10.5 11.5t10.5 3
q27 0 27 -26q0 -18 -21.5 -63t-63 -102.5t-92.5 -110t-120 -88.5t-137 -36q-41 0 -66 26.5t-25 72.5q0 66 50 239q2 4 2.5 6.5t1.5 6t2 6.5l-4 4q-50 -81 -125 -161t-169 -140t-169 -60q-56 0 -88.5 32.5t-32.5 90.5z" />
    <glyph glyph-name="v" unicode="v" horiz-adv-x="864" 
d="M39 133v2q0 50 43 184q2 5 121 336q22 68 22 86q0 33 -26 33q-6 0 -14.5 -4.5t-17.5 -13t-17.5 -17.5t-19 -21.5t-17 -21.5t-16.5 -22t-13 -17q-10 -13 -21 -28.5t-15.5 -22.5t-10.5 -11.5t-12 -4.5q-21 0 -21 20q0 24 23 66q73 119 172 196q106 82 200 82
q107 0 107 -114q0 -36 -31 -138q-20 -66 -71.5 -207t-63.5 -178q-37 -109 -37 -145q0 -59 49 -59q66 0 153.5 101t147.5 226t60 197q0 42 -23 90q-1 3 -5 10.5t-5.5 11t-5 11t-5 12t-4 11.5t-3.5 12.5t-2.5 13t-2 15.5t-0.5 16q0 51 25 82.5t70 31.5q50 0 78 -39.5
t28 -109.5q0 -56 -27.5 -140.5t-74.5 -176.5t-112.5 -184t-136.5 -165.5t-153 -119.5t-157 -46q-73 0 -115.5 42.5t-42.5 117.5z" />
    <glyph glyph-name="w" unicode="w" horiz-adv-x="1275" 
d="M752 930h172q24 0 32.5 -6.5t8.5 -22.5q0 -3 -2.5 -12.5t-7 -25.5t-7.5 -29q-10 -35 -63.5 -200.5t-86 -280.5t-32.5 -156q0 -60 45 -60t101.5 60t101 141t75.5 164t31 127t-22.5 105t-22.5 104q0 48 23.5 82t68.5 34q93 0 93 -151q0 -64 -35 -167.5t-98 -217t-140 -214
t-170.5 -166t-179.5 -65.5q-56 0 -86.5 34t-30.5 97q0 64 37 224l-4 4q-30 -58 -64.5 -111.5t-84.5 -114t-110 -97t-120 -36.5q-141 0 -141 170q0 63 46 199t92 256.5t46 144.5q0 25 -20 25q-17 0 -38.5 -19t-58.5 -67q-15 -21 -27.5 -40t-18 -29t-10.5 -18t-9.5 -10.5
t-11.5 -2.5q-9 0 -14 6t-5 14q0 26 33.5 83t84 117.5t121 106t134.5 45.5q60 0 89.5 -25t29.5 -81q0 -62 -50 -200t-99.5 -267.5t-49.5 -169.5q0 -47 37 -47q36 0 82.5 57t87.5 137.5t82 182.5q61 158 121 342q9 31 17 39t28 8z" />
    <glyph glyph-name="x" unicode="x" horiz-adv-x="933" 
d="M940 834v-3q0 -69 -27 -118t-84 -49q-39 0 -55 26q-6 11 -7.5 36.5t-2.5 29.5q-3 24 -25 24q-21 0 -63 -51q-25 -32 -107 -176q11 -71 47 -221q24 -93 33.5 -116t26.5 -23q25 0 44.5 27t41.5 91q4 13 8.5 28.5t6.5 22t5.5 13t7.5 8.5t11 2q20 0 20 -33q0 -35 -20.5 -96.5
t-54.5 -125.5t-87.5 -110.5t-109.5 -46.5q-41 0 -68 25.5t-47 77.5q-6 15 -12 34.5t-10.5 35.5t-11 44.5t-10 43.5t-11 52t-10.5 52q-103 -196 -197 -287q-81 -78 -152 -78q-106 0 -106 123q0 73 29.5 130t83.5 57q60 0 69 -54q2 -14 -3 -38.5t-3 -32.5q2 -16 8.5 -23.5
t22.5 -7.5q64 0 225 279q-42 211 -57 262q-15 55 -30 77.5t-36 22.5q-53 0 -82 -109q-4 -12 -8.5 -29.5t-7 -26t-6.5 -17.5t-9 -13t-12 -4q-22 0 -22 39q0 26 18 79t50 114.5t89 107t123 45.5q64 0 92.5 -26.5t49.5 -108.5q35 -131 47 -186q125 196 160 240q56 70 111 79
q11 2 24 2q100 0 100 -120z" />
    <glyph glyph-name="y" unicode="y" horiz-adv-x="864" 
d="M850 809v-2q0 -272 -369 -762q-95 -121 -184 -223q-56 -66 -90.5 -105t-76 -79t-73.5 -60t-69 -32.5t-76 -12.5q-57 0 -95 39t-38 102q0 56 34.5 116t88.5 60q49 0 70 -30.5t32 -89.5q10 -56 47 -56q68 0 115 144q46 103 57 245q7 137 4 287q-4 218 -20.5 310t-48.5 92
q-19 0 -35 -18t-37 -62q-9 -17 -22 -51.5t-23 -52t-23 -17.5q-22 0 -22 39q0 56 55 158q46 86 114.5 146t135.5 60q41 0 68.5 -20t49.5 -83t32 -173q13 -118 16 -299q0 -146 -2 -240l8 -2q90 132 145 228q89 163 89 266q0 28 -27 98q-27 74 -27 109q0 48 26.5 82t70.5 34
q51 0 75.5 -40.5t24.5 -104.5z" />
    <glyph glyph-name="z" unicode="z" horiz-adv-x="864" 
d="M-78 27v2q0 42 94 118q77 59 138 95q29 22 147 157q217 232 356 351l-2 10q-19 -2 -56 -24.5t-80.5 -43t-80.5 -20.5q-49 0 -113.5 23.5t-91.5 23.5q-74 0 -77 -101q-1 -24 -2.5 -35t-7.5 -19.5t-17 -8.5q-33 0 -33 74q0 130 69.5 229.5t178.5 99.5q27 0 56.5 -9.5
t49 -19t52.5 -28.5q34 -20 51 -29.5t47 -19.5t57 -10q40 0 65 14t60 49q6 5 19 16t20 16.5t17 12.5t18 10t16 3q12 0 22.5 -10t10.5 -23q0 -14 -5 -26t-18.5 -26.5t-25 -25t-37.5 -33t-43 -37.5q-2 -2 -51 -47.5t-82 -77.5q-31 -30 -205 -208q-39 -40 -120 -120.5
t-111 -111.5l4 -12q95 61 158 61q51 0 116 -26q7 -3 24.5 -9t26.5 -9t22.5 -6t25.5 -3q78 0 88 72q6 29 6 71q0 35 22 35q37 0 37 -117q0 -126 -82 -211q-87 -90 -204 -90q-101 0 -183 82q-6 6 -27 28t-28.5 29t-23.5 15t-31 8q-16 0 -33.5 -11.5t-28.5 -24t-30 -36.5
q-22 -25 -31 -34.5t-29.5 -22t-40.5 -12.5q-43 0 -43 33z" />
    <glyph glyph-name="braceleft" unicode="{" horiz-adv-x="751" 
d="M-23 -291v2q0 41 29 142q22 77 111 385q24 74 24 129q0 73 -49 86q-28 5 -42.5 14t-14.5 27q0 13 7.5 21.5t24.5 13.5t30 7t38 5q23 3 41.5 16t30 27.5t23 43.5t16 46t14.5 53l121 426q19 69 46.5 116.5t62.5 77.5t89 46t113.5 22t147.5 6q18 0 25 -7t7 -23
q0 -28 -32 -31q-87 -5 -133.5 -46t-75.5 -140l-117 -414q-33 -123 -84.5 -184.5t-161.5 -86.5v-4q113 -34 113 -125q0 -47 -29 -153q-13 -45 -49.5 -171.5t-54.5 -193.5q-27 -92 -27 -131q0 -74 101 -86q28 -3 28 -31t-37 -28q-168 0 -252 34t-84 109z" />
    <glyph glyph-name="bar" unicode="|" horiz-adv-x="454" 
d="M324 -512h-174v2048h174v-2048z" />
    <glyph glyph-name="braceright" unicode="}" horiz-adv-x="751" 
d="M721 1278v-2q0 -48 -27 -143q-83 -290 -110 -385q-25 -77 -25 -130q0 -73 49 -83q21 -5 30 -8.5t18.5 -12t9.5 -22.5q0 -12 -8 -21t-25 -14t-31 -7.5t-39 -5.5q-35 -4 -60.5 -34.5t-35.5 -57.5t-26 -84q-2 -7 -3 -10l-119 -426q-20 -69 -48 -116.5t-62.5 -77t-88.5 -45.5
t-112.5 -21.5t-146.5 -5.5q-35 0 -35 28t33 31q87 5 134.5 46.5t76.5 140.5l116 415q33 121 85 183t161 88v4q-113 29 -113 123q0 47 29 153q73 242 105 365q26 93 26 131q0 77 -102 86q-27 3 -27 31q0 17 8 23.5t29 6.5q334 0 334 -143z" />
    <glyph glyph-name="asciitilde" unicode="~" horiz-adv-x="1228" 
d="M213 369l-96 114q54 85 118.5 134t157.5 49q41 0 88.5 -13.5t72 -24t79.5 -36.5q4 -2 30.5 -14t32 -14t27.5 -11t31 -11.5t26 -7.5t30 -6.5t26 -1.5q55 0 98 36.5t82 99.5l96 -115q-41 -57 -74.5 -92.5t-86.5 -62.5t-115 -27q-20 0 -41.5 3.5t-35.5 7t-40 13.5t-34 13.5
t-38.5 17.5t-34.5 16q-3 1 -25.5 12t-27.5 13t-25.5 11t-28.5 11.5t-26 8t-30 7.5t-28.5 3.5t-31.5 1.5q-101 0 -176 -135z" />
    <glyph glyph-name="uni00A0" unicode="&#xa0;" horiz-adv-x="489" 
 />
    <glyph glyph-name="exclamdown" unicode="&#xa1;" horiz-adv-x="569" 
d="M209 752v2q0 78 46 132t118 54q54 0 84 -36.5t30 -94.5q0 -81 -43.5 -133.5t-117.5 -52.5q-54 0 -85.5 36.5t-31.5 92.5zM-135 -309v2q0 40 51 145q40 86 152 312t143 301q3 5 7.5 14l6.5 13t6 11t6 9.5t5 7t5.5 6.5t6 4.5t6.5 3t7 1.5t9 1q18 0 24.5 -9.5t6.5 -29.5
q0 -9 -6 -59q-13 -72 -40 -226.5t-47.5 -269.5t-27.5 -147q-21 -93 -64.5 -133.5t-135.5 -40.5q-48 0 -84.5 21t-36.5 63z" />
    <glyph glyph-name="cent" unicode="&#xa2;" horiz-adv-x="978" 
d="M256 20l86 273q-93 11 -136.5 77t-43.5 167q0 110 55 223t153.5 195.5t213.5 101.5l67 215q7 20 16 24t31 4q11 0 16 -1.5t10.5 -9.5t-1.5 -25l-66 -205q94 -2 145.5 -29t51.5 -94q0 -41 -26.5 -65.5t-67.5 -24.5q-62 0 -72 57q-4 10 -2.5 38t0.5 34q-3 35 -45 35
q-56 0 -116.5 -92t-97 -206.5t-36.5 -189.5q0 -131 90 -131q71 0 131 56.5t99 132.5q14 28 28 28q19 0 19 -20q0 -21 -15.5 -56t-46 -76t-70.5 -77.5t-96.5 -61t-115.5 -26.5l-88 -281q-4 -13 -11 -19t-13 -6.5t-21 -0.5q-12 0 -17 1.5t-10 9.5t2 25z" />
    <glyph glyph-name="sterling" unicode="&#xa3;" horiz-adv-x="978" 
d="M381 602h-178h-11.5t-6.5 1t-4 3t-1 6q0 3 3 11.5t6.5 19.5t5.5 16q3 12 8.5 15.5t19.5 3.5h150q-6 82 4 176q12 111 51.5 201t95 145.5t120.5 85t132 29.5q80 0 139.5 -41t59.5 -119q0 -49 -30.5 -85t-78.5 -36q-43 0 -69 24t-27 68q-2 15 0.5 41.5t1.5 36.5
q-4 33 -41 33q-56 0 -92.5 -70t-36.5 -168q0 -59 14.5 -164.5t16.5 -156.5h184q21 0 21 -10q0 -2 -13 -47q-7 -19 -28 -19h-162q-11 -202 -137 -338q117 -88 215 -88q83 0 125 40.5t49 105.5q1 19 -3.5 42.5t-4.5 28.5q0 9 6.5 16t17.5 7q22 0 40 -42.5t18 -92.5
q0 -128 -79 -214.5t-194 -86.5q-77 0 -138.5 36.5t-156.5 120.5q-153 -143 -303 -143q-100 0 -161.5 46t-61.5 136q0 96 77 153.5t171 57.5q52 0 98.5 -11t70 -21.5t74.5 -35.5q33 74 33 168q0 57 -10 115zM51 184v-2q0 -40 26.5 -65t67.5 -25q43 0 87 30.5t75 76.5
q-75 88 -153 88q-50 0 -76.5 -28t-26.5 -75z" />
    <glyph glyph-name="currency" unicode="&#xa4;" horiz-adv-x="978" 
d="M86 113l-102 104l182 182q-76 99 -76 240q0 139 76 240l-182 180l102 104l182 -182q100 74 240 74t242 -74l180 182l104 -104l-182 -180q74 -97 74 -240t-74 -240l182 -182l-104 -104l-180 182q-100 -74 -242 -74q-143 0 -240 74zM508 911h-2q-109 0 -184.5 -81.5
t-75.5 -190.5q0 -112 75.5 -193t186.5 -81q112 0 188 81t76 193q0 110 -76 191t-188 81z" />
    <glyph glyph-name="yen" unicode="&#xa5;" horiz-adv-x="978" 
d="M481 1157v-2q0 -23 15 -108q32 -194 75 -400q223 311 273 389q67 104 67 140t-47 47q-22 4 -30.5 6t-15.5 9t-7 19q0 33 41 33q22 0 69.5 -4t73.5 -4q22 0 63.5 4t63.5 4q35 0 35 -22q0 -17 -10.5 -25.5t-34.5 -17.5q-32 -11 -63.5 -40t-79.5 -95l-211 -299h174
q26 0 26 -13q0 -15 -8 -43q-3 -11 -9.5 -14.5t-25.5 -3.5h-208q-78 -112 -91 -144h263q10 0 14.5 -0.5t8 -3t3.5 -8.5q0 -15 -8 -43q-3 -8 -6 -11t-10 -5t-21 -2h-274q-62 -208 -74 -250q-27 -106 -27 -131q0 -27 13 -40t39 -22q5 -1 14.5 -3.5t14 -3.5t10.5 -3.5t9 -5
t5 -6.5t2 -10q0 -19 -12 -26t-43 -7q-28 0 -98.5 4t-106.5 4q-37 0 -114 -4t-107 -4q-21 0 -31 5t-10 21q0 10 3.5 17t12.5 11.5t15.5 6.5t22.5 5t23 5q35 9 57 27.5t34 63.5q86 295 100 346h-262q-27 0 -27 10q0 15 8 43q5 13 10.5 16.5t26.5 3.5h258q-2 28 -28 144h-193
q-11 0 -16 0.5t-9 3t-4 8.5q0 5 11 43q3 11 9 15t25 4h162l-59 288q-15 76 -30.5 103.5t-47.5 36.5q-20 6 -29 10t-17.5 12.5t-8.5 20.5q0 15 14 21.5t47 6.5q21 0 82 -4t96 -4q40 0 114.5 4t98.5 4q45 0 45 -30q0 -9 -4.5 -15t-16.5 -10t-20 -5.5t-28 -4.5q-64 -12 -64 -68
z" />
    <glyph glyph-name="brokenbar" unicode="&#xa6;" horiz-adv-x="454" 
d="M324 666h-174v716h174v-716zM324 -358h-174v716h174v-716z" />
    <glyph glyph-name="section" unicode="&#xa7;" horiz-adv-x="1093" 
d="M905 410v-2q0 -98 -57.5 -167.5t-153.5 -82.5q-32 -6 -69 0q-17 0 -17 -17q1 -3 28.5 -42t45.5 -85.5t18 -99.5q0 -99 -54.5 -170t-136 -103t-177.5 -32q-76 0 -144.5 24t-115.5 75.5t-47 119.5q0 57 34 97t93 40q49 0 79.5 -29.5t30.5 -82.5q0 -32 -16.5 -56t-33 -41
t-17.5 -30q0 -24 44.5 -41t86.5 -17q82 0 136 42.5t54 125.5q0 48 -29 104t-72.5 105.5t-94 108.5t-94 113.5t-72.5 120.5t-29 128q0 107 60 176.5t145 83.5q38 6 71 0q15 0 15 17q-1 1 -31 47.5t-44.5 87.5t-14.5 92q0 125 96.5 210t263.5 85q72 0 130.5 -19.5t92.5 -50
t52 -65t18 -68.5q0 -53 -34.5 -91t-86.5 -38q-44 0 -76 28t-32 72q0 29 13 53t26.5 40.5t13.5 29.5q0 20 -30.5 34.5t-82.5 14.5q-78 0 -129 -44t-51 -117q0 -44 29.5 -99t73 -106.5t95 -113t95 -117.5t73 -122.5t29.5 -125.5zM627 205h2q51 0 82.5 36.5t31.5 86.5
q0 82 -116 235q-71 92 -123.5 130t-100.5 38q-49 0 -85.5 -33t-36.5 -84q0 -42 26.5 -95.5t102.5 -151.5q67 -88 117 -125t100 -37z" />
    <glyph glyph-name="dieresis" unicode="&#xa8;" 
d="M240 1120h-2q-40 0 -63 29t-23 72q0 60 39 108.5t98 48.5q40 0 64 -28.5t24 -71.5q0 -61 -38.5 -109.5t-98.5 -48.5zM592 1120h-2q-39 0 -61.5 29t-22.5 72q0 60 38 108.5t97 48.5q41 0 64.5 -28.5t23.5 -71.5q0 -61 -38.5 -109.5t-98.5 -48.5z" />
    <glyph glyph-name="copyright" unicode="&#xa9;" horiz-adv-x="1638" 
d="M1546 715v-2q0 -203 -95.5 -372.5t-262 -267.5t-367.5 -98q-152 0 -287.5 58t-232 156.5t-153 235.5t-56.5 290q0 204 95.5 374.5t263.5 269.5t370 99q201 0 367.5 -98t262 -268.5t95.5 -376.5zM236 715v-2q0 -169 76.5 -314.5t212 -232t296.5 -86.5t295.5 86.5
t210.5 232.5t76 316t-76 317t-210.5 234.5t-295.5 87.5q-122 0 -231.5 -51.5t-186.5 -138.5t-122 -204.5t-45 -244.5zM1176 545l-33 -152q-4 -18 -17 -26.5t-43 -16.5q-108 -41 -223 -41q-203 0 -325.5 107.5t-122.5 320.5q0 55 16 111t52.5 111t89.5 97t133 68.5t176 26.5
q115 0 217 -41q45 -17 45 -45v-147h-43q-12 75 -67.5 126.5t-156.5 51.5q-126 0 -198 -94.5t-72 -253.5q-3 -174 66 -278.5t211 -104.5q175 0 249 180h46z" />
    <glyph glyph-name="ordfeminine" unicode="&#xaa;" horiz-adv-x="696" 
d="M502 956l-4 2q-23 -36 -40 -61t-47 -61.5t-56.5 -58.5t-61.5 -39t-68 -17q-57 0 -80.5 30t-23.5 87q0 99 62.5 208.5t153 181.5t167.5 72q48 0 102 -24q13 24 23 31.5t37 7.5h86q32 0 32 -23q0 -13 -67.5 -202t-67.5 -222q0 -16 15 -16q19 0 61 68q7 10 14 21l10.5 16.5
t7 10.5t6.5 7t7 2q18 0 18 -16q0 -28 -37 -84t-101 -106t-124 -50q-67 0 -67 53q0 18 8 52t21 79t14 51zM584 1210v2q0 14 -10.5 22.5t-26.5 8.5q-40 0 -98 -74.5t-98 -157.5t-40 -114q0 -33 29 -33q33 0 92.5 72.5t105.5 156.5t46 117z" />
    <glyph glyph-name="guillemotleft" unicode="&#xab;" horiz-adv-x="978" 
d="M438 190h-137q-21 0 -34.5 8.5t-26.5 34.5l-76 158q-15 30 -33 45q-1 2 -5.5 6.5t-6.5 8t-2 8.5q0 6 18 20q24 16 51 47l142 158q39 41 78 41h149q23 0 23 -14q0 -15 -29 -15q-37 0 -90 -59l-125 -139q-27 -31 -49 -41q11 -11 24 -37l70 -141q16 -33 28 -46.5t35 -13.5
q25 0 25 -14q0 -15 -29 -15zM737 190h-137q-21 0 -34.5 8.5t-26.5 34.5l-78 158q-10 28 -31 45q-14 14 -14 23q0 6 18 20q24 16 51 47l140 158q41 41 77 41h152q23 0 23 -14q0 -15 -29 -15q-23 0 -42.5 -14t-47.5 -45l-125 -139q-35 -35 -49 -41q7 -7 22 -37l72 -141
q14 -31 27 -45.5t36 -14.5q25 0 25 -14q0 -15 -29 -15z" />
    <glyph glyph-name="logicalnot" unicode="&#xac;" horiz-adv-x="1228" 
d="M963 221v420h-865v168h1032v-588h-167z" />
    <glyph glyph-name="uni00AD" unicode="&#xad;" horiz-adv-x="636" 
d="M125 555h401q27 0 27 -16q0 -8 -23.5 -70.5t-31.5 -79.5q-8 -18 -35 -18h-406q-26 0 -26 16q0 13 55 150q8 18 39 18z" />
    <glyph glyph-name="registered" unicode="&#xae;" horiz-adv-x="1638" 
d="M1546 715v-2q0 -203 -95.5 -372.5t-262 -267.5t-367.5 -98q-152 0 -287.5 58t-232 156.5t-153 235.5t-56.5 290q0 204 95.5 374.5t263.5 269.5t370 99q201 0 367.5 -98t262 -268.5t95.5 -376.5zM236 715v-2q0 -169 76.5 -314.5t212 -232t296.5 -86.5t295.5 86.5
t210.5 232.5t76 316t-76 317t-210.5 234.5t-295.5 87.5q-122 0 -231.5 -51.5t-186.5 -138.5t-122 -204.5t-45 -244.5zM473 1092v34h395q105 0 173.5 -50.5t68.5 -149.5q0 -76 -45.5 -136t-120.5 -83l121 -175q88 -121 149 -176v-22h-157q-31 0 -63 43t-86.5 144.5
t-94.5 162.5h-82v-219q0 -61 13 -75.5t83 -18.5v-37h-354v37q70 4 83 18.5t13 75.5v530q0 35 -1 48t-11 26t-28 16.5t-56 6.5zM731 1081v-354h76q71 0 104 53t33 138q0 163 -135 163h-78z" />
    <glyph glyph-name="macron" unicode="&#xaf;" 
d="M201 1282h516q28 0 28 -10q0 -13 -24 -78q-11 -26 -18 -32.5t-27 -6.5h-516q-29 0 -29 10q0 11 25 78q11 26 18 32.5t27 6.5z" />
    <glyph glyph-name="degree" unicode="&#xb0;" horiz-adv-x="819" 
d="M487 1315h2q125 0 213.5 -90t88.5 -217q0 -128 -89 -218t-215 -90q-129 0 -218 90t-89 218t89 217.5t218 89.5zM487 1225h-2q-87 0 -145.5 -64t-58.5 -153t59 -153t147 -64q85 0 144 64t59 153t-59 153t-144 64z" />
    <glyph glyph-name="plusminus" unicode="&#xb1;" horiz-adv-x="1228" 
d="M530 733v352h168v-352h432v-168h-432v-352h-168v352h-432v168h432zM98 -74v168h1032v-168h-1032z" />
    <glyph glyph-name="twosuperior" unicode="&#xb2;" horiz-adv-x="585" 
d="M168 664l6 -5q2 0 28 5.5t54 5.5q59 0 133 4q53 1 75.5 14.5t41.5 46.5l10.5 21t9 18.5t7.5 12.5t10 9.5t12 2.5q25 0 25 -19q0 -17 -66 -225q-6 -21 -13 -27t-26 -6q-30 0 -107.5 3t-125.5 3q-45 0 -116.5 -3t-100.5 -3q-19 0 -19 15q0 27 68 98q28 29 99 96.5
t106 102.5q182 182 182 315q0 47 -20.5 74.5t-57.5 27.5q-86 0 -143 -102q-8 -13 -16.5 -29.5t-13 -25t-11.5 -15t-17 -6.5q-16 0 -16 21q0 16 9 41.5t31 57.5t52 59.5t77.5 46t102.5 18.5q97 0 156 -45.5t59 -132.5q0 -94 -64.5 -172t-205.5 -158q-169 -92 -215 -145z" />
    <glyph glyph-name="threesuperior" unicode="&#xb3;" horiz-adv-x="585" 
d="M379 963v-7q45 5 57 5q85 -6 130.5 -57t45.5 -134q0 -96 -67 -180.5t-169 -132t-206 -47.5q-77 0 -126.5 28t-49.5 86q0 33 20.5 53.5t53.5 20.5q61 0 82 -82q7 -35 18.5 -48t32.5 -13q71 0 142 101.5t71 209.5q0 60 -33.5 101.5t-93.5 41.5q-37 0 -71.5 -16t-37.5 -16
q-18 0 -18 18q0 16 25 29.5t114 52.5q68 30 112 84.5t44 103.5q0 35 -19 55.5t-53 20.5q-68 0 -107 -55q-9 -10 -18 -23.5t-13 -20t-11 -11.5t-15 -5q-18 0 -18 21q0 9 7.5 26.5t27 42.5t48 46.5t77.5 37t108 15.5q84 0 133 -34.5t49 -100.5q0 -27 -9.5 -50.5t-29.5 -43
t-38.5 -34t-50 -29.5t-49.5 -23t-52 -20.5t-43 -16.5z" />
    <glyph glyph-name="acute" unicode="&#xb4;" 
d="M301 1073h-2q-18 0 -18 19t49 65l207 209q65 68 120 68q35 0 58.5 -19t23.5 -57q0 -57 -82 -101l-266 -145q-72 -39 -90 -39z" />
    <glyph glyph-name="mu" unicode="&#xb5;" horiz-adv-x="1161" 
d="M631 330l-4 4q-216 -334 -443 -357q-32 -82 -49 -182q-5 -40 -8.5 -60.5t-11.5 -53t-19 -49.5t-28.5 -35.5t-43 -26.5t-59.5 -8q-48 0 -75 28.5t-27 81.5q0 40 36.5 112t77.5 150.5t48 124.5q23 101 57 201q17 56 43 124.5t58.5 149.5t43.5 109q33 84 33 105q0 20 -20 20
q-39 0 -103 -84q-18 -23 -33.5 -47t-22 -34.5t-14 -17.5t-16.5 -7t-15.5 8t-6.5 20q0 19 21.5 59t62 89t91 94t118 75.5t133.5 30.5q102 0 102 -96q0 -39 -37 -145q-22 -63 -72.5 -193.5t-64.5 -169.5q-43 -114 -43 -137q0 -35 33 -35q37 0 97 59t114 148q139 242 241 516
q6 18 15.5 24.5t31.5 6.5q55 2 183 2q39 0 39 -29l-17 -49q-11 -33 -82.5 -229t-99.5 -285q-31 -102 -31 -123q0 -29 27 -29q33 0 106 109q13 19 25 38.5t18 29t12 18t10.5 11.5t10.5 3q27 0 27 -26q0 -18 -21.5 -63t-63 -102.5t-92.5 -110t-120 -88.5t-137 -36
q-41 0 -66 26.5t-25 72.5q0 66 50 239q2 4 2.5 6.5t1.5 6t2 6.5z" />
    <glyph glyph-name="paragraph" unicode="&#xb6;" horiz-adv-x="1253" 
d="M256 -328l213 779q-133 6 -201.5 84.5t-68.5 203.5q0 146 78 272t207.5 198.5t277.5 72.5h495q31 0 43.5 -8.5t12.5 -28.5q0 -37 -64 -37q-57 0 -81.5 -23.5t-41.5 -78.5l-395 -1434h-178l418 1516h-119l-418 -1516h-178z" />
    <glyph glyph-name="periodcentered" unicode="&#xb7;" horiz-adv-x="489" 
d="M377 547v-2q0 -72 -43.5 -129.5t-118.5 -57.5q-54 0 -84.5 37.5t-30.5 93.5q0 74 43.5 131.5t118.5 57.5q54 0 84.5 -37.5t30.5 -93.5z" />
    <glyph glyph-name="cedilla" unicode="&#xb8;" 
d="M96 0l-67 -113q21 7 49 7q66 0 114 -37t48 -109q0 -61 -40 -107t-92.5 -65.5t-105.5 -19.5q-70 0 -127 30t-57 80q0 23 11 37t32 14q25 0 42 -17t25.5 -38t27.5 -38t48 -17q45 0 78 36.5t33 88.5q0 50 -27.5 72t-64.5 22q-16 0 -41.5 -5t-34.5 -5q-21 0 -21 16q0 8 21 43
l73 125h76z" />
    <glyph glyph-name="onesuperior" unicode="&#xb9;" horiz-adv-x="585" 
d="M408 604v-2q0 -18 13 -24.5t38 -8.5q59 -4 59 -26q0 -12 -10 -17.5t-37 -5.5q-29 0 -96 3t-101 3q-30 0 -81.5 -3t-73.5 -3q-47 0 -47 21q0 4 1 8t3.5 6.5l4.5 4.5t6 3.5t7 2t8.5 1t8.5 1t9.5 1t8.5 0.5q67 4 78 41q54 170 145 480q13 44 13 59q0 22 -21 22
q-14 0 -56.5 -12t-49.5 -12q-9 0 -15 6.5t-6 15.5q0 12 10 17.5t42 13.5q9 3 14 4q151 43 243 90q44 21 60 21q18 0 18 -17q0 -4 -2 -11t-6.5 -21t-7.5 -25q-28 -101 -85 -289t-79 -264q-16 -52 -16 -84z" />
    <glyph glyph-name="ordmasculine" unicode="&#xba;" horiz-adv-x="622" 
d="M690 1096v-2q0 -149 -100.5 -261t-245.5 -112q-100 0 -156.5 68t-56.5 167q0 142 99.5 250.5t238.5 108.5q99 0 160 -62.5t61 -156.5zM291 840v-2q0 -68 45 -68q38 0 85.5 93t77 194.5t29.5 142.5q0 66 -45 66q-42 0 -89 -93t-75 -193t-28 -140z" />
    <glyph glyph-name="guillemotright" unicode="&#xbb;" horiz-adv-x="978" 
d="M209 725h137q41 0 62 -41l75 -158q14 -28 33 -47q2 -3 6 -6.5t6 -6.5t2 -7q0 -9 -18 -23q-23 -13 -51 -45l-142 -158q-38 -43 -77 -43h-150q-22 0 -22 15q0 14 28 14q36 0 90 60l125 141q24 28 49 39q-13 13 -24 39l-70 139q-16 33 -28 46t-35 13q-25 0 -25 15
q0 14 29 14zM506 725h139q21 0 35 -8.5t25 -32.5l77 -158q16 -33 33 -47q2 -3 6 -6.5t6 -6.5t2 -7q0 -10 -20 -23q-21 -13 -49 -45l-142 -158q-38 -43 -77 -43h-150q-22 0 -22 15q0 14 28 14q21 0 40.5 14t49.5 46l125 141q23 27 47 39q-11 14 -22 39l-70 139q-15 31 -28 45
t-35 14q-25 0 -25 15q0 14 27 14z" />
    <glyph glyph-name="onequarter" unicode="&#xbc;" horiz-adv-x="1466" 
d="M586 1315h2q6 0 11 -5t5 -12q0 -4 -2 -11t-6.5 -21t-7.5 -25q-28 -101 -85 -289t-79 -264q-16 -52 -16 -84q0 -20 13 -26.5t38 -8.5q59 -4 59 -26q0 -12 -10 -17.5t-37 -5.5q-29 0 -96 3t-101 3q-30 0 -81.5 -3t-73.5 -3q-47 0 -47 21q0 4 1 8t3.5 6.5l4.5 4.5t6 3.5t7 2
t8.5 1t8.5 1t9.5 1t8.5 0.5q67 4 78 41q54 170 145 480q13 44 13 59q0 22 -21 22q-14 0 -56.5 -12t-49.5 -12q-9 0 -15 6.5t-6 15.5q0 12 10 17.5t42 13.5q9 3 14 4q151 43 243 90q44 21 60 21zM371 -33h-62q-26 0 -26 13q0 11 32 57l856 1243q15 22 21.5 28.5t17.5 6.5h62
q26 0 26 -12t-32 -58l-856 -1243q-15 -22 -21.5 -28.5t-17.5 -6.5zM1337 205h-77q-16 0 -21 -17q-33 -112 -33 -129q0 -14 33 -18q37 -8 37 -27q0 -18 -33 -18q-21 0 -72 2t-75 2q-26 0 -75 -2t-67 -2q-26 0 -26 20q0 14 11 18.5t32 6.5q12 2 18.5 3.5t15.5 6t14.5 12
t8.5 19.5q33 109 33 115q0 8 -23 8h-237q-13 0 -13 10q0 3 19 80q9 17 22 35q43 45 125 129.5t183 188.5t145 149q16 16 33 16h37q18 0 18 -12q0 -3 -27 -37q-88 -88 -182 -181t-133 -132t-76 -77t-61 -65q31 -6 178 -6q15 0 19.5 3.5t9.5 15.5l57 188q5 18 27 29
q155 79 172 79q6 0 6 -10q0 -5 -10 -47q-6 -20 -32 -102.5t-36 -118.5q-6 -18 -6 -29q0 -8 16 -8h68q20 0 20 -8q0 -2 -18 -74q-3 -11 -7.5 -13.5t-17.5 -2.5z" />
    <glyph glyph-name="onehalf" unicode="&#xbd;" horiz-adv-x="1466" 
d="M604 1298v-2q0 -3 -2 -10t-6.5 -20t-7.5 -25q-28 -101 -85 -289t-79 -264q-16 -52 -16 -84q0 -20 13 -26.5t38 -8.5q59 -4 59 -26q0 -12 -10 -17.5t-37 -5.5q-29 0 -96 3t-101 3q-30 0 -81.5 -3t-73.5 -3q-47 0 -47 21q0 4 1 8t3.5 6.5l4.5 4.5t6 3.5t7 2t8.5 1t8.5 1
t9.5 1t8.5 0.5q67 4 78 41q54 170 145 480q13 44 13 59q0 22 -21 22q-14 0 -56.5 -12t-49.5 -12q-9 0 -15 6.5t-6 15.5q0 12 10 17.5t42 13.5q9 3 14 4q151 43 243 90q44 21 60 21q18 0 18 -17zM358 -33h-61q-27 0 -27 13q0 10 33 57l856 1243q15 22 21.5 28.5t17.5 6.5h62
q26 0 26 -12q0 -11 -33 -58l-856 -1243q-15 -22 -21.5 -28.5t-17.5 -6.5zM948 135l6 -4q2 0 28 5t54 5q59 0 133 4q53 1 75.5 15t41.5 49q4 8 10 20.5t9.5 18t8 12.5t9.5 9.5t12 2.5q25 0 25 -20q0 -15 -66 -223q-6 -22 -13 -28.5t-26 -6.5q-30 0 -107.5 3t-125.5 3
q-45 0 -116.5 -3t-100.5 -3q-19 0 -19 16q0 25 68 96q29 31 101.5 99.5t103.5 99.5q182 182 182 316q0 47 -20.5 74.5t-57.5 27.5q-87 0 -143 -100q-9 -14 -19.5 -37.5t-18 -32t-19.5 -8.5q-17 0 -17 20q0 16 9.5 41.5t31 57.5t51.5 59.5t78 46t103 18.5q98 0 156.5 -45
t58.5 -131q0 -93 -65 -172t-206 -159q-161 -84 -215 -146z" />
    <glyph glyph-name="threequarters" unicode="&#xbe;" horiz-adv-x="1466" 
d="M379 963v-7q45 5 57 5q85 -6 130.5 -57t45.5 -134q0 -96 -67 -180.5t-169 -132t-206 -47.5q-77 0 -126.5 28t-49.5 86q0 33 20.5 53.5t53.5 20.5q61 0 82 -82q7 -35 18.5 -48t32.5 -13q71 0 142 101.5t71 209.5q0 60 -33.5 101.5t-93.5 41.5q-37 0 -71.5 -16t-37.5 -16
q-18 0 -18 18q0 16 25 29.5t114 52.5q68 30 112 84.5t44 103.5q0 35 -19 55.5t-53 20.5q-68 0 -107 -55q-9 -10 -18 -23.5t-13 -20t-11 -11.5t-15 -5q-18 0 -18 21q0 9 7.5 26.5t27 42.5t48 46.5t77.5 37t108 15.5q84 0 133 -34.5t49 -100.5q0 -27 -9.5 -50.5t-29.5 -43
t-38.5 -34t-50 -29.5t-49.5 -23t-52 -20.5t-43 -16.5zM371 -33h-62q-26 0 -26 13q0 11 32 57l856 1243q15 22 21.5 28.5t17.5 6.5h62q26 0 26 -12t-32 -58l-856 -1243q-15 -22 -21.5 -28.5t-17.5 -6.5zM1337 205h-77q-16 0 -21 -17q-33 -112 -33 -129q0 -14 33 -18
q37 -8 37 -27q0 -18 -33 -18q-21 0 -72 2t-75 2q-26 0 -75 -2t-67 -2q-26 0 -26 20q0 14 11 18.5t32 6.5q12 2 18.5 3.5t15.5 6t14.5 12t8.5 19.5q33 109 33 115q0 8 -23 8h-237q-13 0 -13 10q0 3 19 80q9 17 22 35q43 45 125 129.5t183 188.5t145 149q16 16 33 16h37
q18 0 18 -12q0 -3 -27 -37q-88 -88 -182 -181t-133 -132t-76 -77t-61 -65q31 -6 178 -6q15 0 19.5 3.5t9.5 15.5l57 188q5 18 27 29q155 79 172 79q6 0 6 -10q0 -5 -10 -47q-6 -20 -32 -102.5t-36 -118.5q-6 -18 -6 -29q0 -8 16 -8h68q20 0 20 -8q0 -2 -18 -74
q-3 -11 -7.5 -13.5t-17.5 -2.5z" />
    <glyph glyph-name="questiondown" unicode="&#xbf;" horiz-adv-x="819" 
d="M436 752v2q0 74 42.5 130t119.5 56q54 0 84.5 -37t30.5 -94q0 -73 -43.5 -129.5t-118.5 -56.5q-54 0 -84.5 36.5t-30.5 92.5zM-70 -63v2q0 72 26 133t56.5 98t89.5 74t88 50t90 38q4 2 6.5 3t6 2.5t6.5 2.5q101 44 133 71t60 101q7 17 13.5 22t16.5 5q25 0 25 -19
q0 -5 -8 -55q-17 -100 -54 -240q-10 -43 -25 -58.5t-67 -39.5q-116 -50 -165 -87q-122 -89 -122 -233q0 -59 27.5 -97t71.5 -38q40 -1 77 40t80 116q30 52 49.5 74t45.5 22q51 0 51 -53q0 -48 -10 -92q-15 -77 -41 -107q-58 -65 -201 -65q-141 0 -233.5 96t-92.5 234z" />
    <glyph glyph-name="Agrave" unicode="&#xc0;" horiz-adv-x="1001" 
d="M539 451h-287q-17 0 -25.5 -5.5t-19.5 -23.5q-37 -66 -92 -178q-43 -94 -43 -123q0 -27 17 -38t56 -20q18 -5 25.5 -8t15 -10t7.5 -16q0 -37 -54 -37q-22 0 -82 4t-86 4q-25 0 -73 -4t-70 -4q-20 0 -27.5 5.5t-7.5 22.5q-1 16 9.5 25.5t21 12.5t39.5 10q9 2 18 6.5
t16.5 8.5t16 12.5t14 13.5t14.5 17t13 18t14 22t14 22t15.5 25.5t15.5 26.5q34 60 247.5 431.5t330.5 573.5q20 34 36 43.5t60 9.5q81 0 95.5 -3t15.5 -23q6 -133 15 -572.5t15 -574.5q2 -46 50 -57q16 -4 24.5 -7t16.5 -10.5t8 -19.5q0 -22 -10 -30.5t-39 -8.5q-5 0 -70 4
t-135 4q-69 0 -143.5 -4t-96.5 -4q-49 0 -49 33q0 6 1 10.5t4.5 8.5t6 6.5t8.5 5t9.5 3.5t11.5 3t11.5 2.5t13 1.5t12.5 2q17 4 27.5 8t22.5 12t18 23t6 36q0 46 1 149t1 155zM537 535v469l-5 2q-32 -59 -121 -220t-137 -251h263zM473 1655v2q0 36 23.5 56t58.5 20
t61.5 -17.5t55.5 -56.5l151 -207q6 -9 14.5 -21t13 -18.5t8 -14t3.5 -12.5q0 -18 -22 -18q-21 0 -82 41l-207 145q-26 19 -39 29.5t-25.5 30t-13.5 41.5z" />
    <glyph glyph-name="Aacute" unicode="&#xc1;" horiz-adv-x="1001" 
d="M539 451h-287q-17 0 -25.5 -5.5t-19.5 -23.5q-37 -66 -92 -178q-43 -94 -43 -123q0 -27 17 -38t56 -20q18 -5 25.5 -8t15 -10t7.5 -16q0 -37 -54 -37q-22 0 -82 4t-86 4q-25 0 -73 -4t-70 -4q-20 0 -27.5 5.5t-7.5 22.5q-1 16 9.5 25.5t21 12.5t39.5 10q9 2 18 6.5
t16.5 8.5t16 12.5t14 13.5t14.5 17t13 18t14 22t14 22t15.5 25.5t15.5 26.5q34 60 247.5 431.5t330.5 573.5q20 34 36 43.5t60 9.5q81 0 95.5 -3t15.5 -23q6 -133 15 -572.5t15 -574.5q2 -46 50 -57q16 -4 24.5 -7t16.5 -10.5t8 -19.5q0 -22 -10 -30.5t-39 -8.5q-5 0 -70 4
t-135 4q-69 0 -143.5 -4t-96.5 -4q-49 0 -49 33q0 6 1 10.5t4.5 8.5t6 6.5t8.5 5t9.5 3.5t11.5 3t11.5 2.5t13 1.5t12.5 2q17 4 27.5 8t22.5 12t18 23t6 36q0 46 1 149t1 155zM537 535v469l-5 2q-32 -59 -121 -220t-137 -251h263zM571 1368h-2q-16 0 -16 18q0 17 45 62l4 4
l205 207q67 67 123 67q35 0 58.5 -18.5t23.5 -54.5q0 -57 -82 -101l-266 -145q-72 -39 -93 -39z" />
    <glyph glyph-name="Acircumflex" unicode="&#xc2;" horiz-adv-x="1001" 
d="M539 451h-287q-17 0 -25.5 -5.5t-19.5 -23.5q-37 -66 -92 -178q-43 -94 -43 -123q0 -27 17 -38t56 -20q18 -5 25.5 -8t15 -10t7.5 -16q0 -37 -54 -37q-22 0 -82 4t-86 4q-25 0 -73 -4t-70 -4q-20 0 -27.5 5.5t-7.5 22.5q-1 16 9.5 25.5t21 12.5t39.5 10q9 2 18 6.5
t16.5 8.5t16 12.5t14 13.5t14.5 17t13 18t14 22t14 22t15.5 25.5t15.5 26.5q34 60 247.5 431.5t330.5 573.5q20 34 36 43.5t60 9.5q81 0 95.5 -3t15.5 -23q6 -133 15 -572.5t15 -574.5q2 -46 50 -57q16 -4 24.5 -7t16.5 -10.5t8 -19.5q0 -22 -10 -30.5t-39 -8.5q-5 0 -70 4
t-135 4q-69 0 -143.5 -4t-96.5 -4q-49 0 -49 33q0 6 1 10.5t4.5 8.5t6 6.5t8.5 5t9.5 3.5t11.5 3t11.5 2.5t13 1.5t12.5 2q17 4 27.5 8t22.5 12t18 23t6 36q0 46 1 149t1 155zM537 535v469l-5 2q-32 -59 -121 -220t-137 -251h263zM741 1581l-272 -186q-48 -31 -66 -31
t-18 18q0 16 49 68l180 199q38 41 54 54t32 13h105q20 0 28.5 -8t26.5 -49l94 -219q21 -42 21 -58q0 -18 -21 -18q-3 0 -6 1t-6 2.5t-6.5 4.5t-6 5t-7 7t-7 7.5t-8 8.5t-8.5 9z" />
    <glyph glyph-name="Atilde" unicode="&#xc3;" horiz-adv-x="1001" 
d="M539 451h-287q-17 0 -25.5 -5.5t-19.5 -23.5q-37 -66 -92 -178q-43 -94 -43 -123q0 -27 17 -38t56 -20q18 -5 25.5 -8t15 -10t7.5 -16q0 -37 -54 -37q-22 0 -82 4t-86 4q-25 0 -73 -4t-70 -4q-20 0 -27.5 5.5t-7.5 22.5q-1 16 9.5 25.5t21 12.5t39.5 10q9 2 18 6.5
t16.5 8.5t16 12.5t14 13.5t14.5 17t13 18t14 22t14 22t15.5 25.5t15.5 26.5q34 60 247.5 431.5t330.5 573.5q20 34 36 43.5t60 9.5q81 0 95.5 -3t15.5 -23q6 -133 15 -572.5t15 -574.5q2 -46 50 -57q16 -4 24.5 -7t16.5 -10.5t8 -19.5q0 -22 -10 -30.5t-39 -8.5q-5 0 -70 4
t-135 4q-69 0 -143.5 -4t-96.5 -4q-49 0 -49 33q0 6 1 10.5t4.5 8.5t6 6.5t8.5 5t9.5 3.5t11.5 3t11.5 2.5t13 1.5t12.5 2q17 4 27.5 8t22.5 12t18 23t6 36q0 46 1 149t1 155zM537 535v469l-5 2q-32 -59 -121 -220t-137 -251h263zM842 1415h-2q-72 0 -158 66q-5 4 -17.5 13
t-18.5 13t-16.5 11.5t-18 11t-16.5 7.5t-18 5.5t-18 1.5q-31 1 -56 -16.5t-38 -38.5t-28.5 -39t-28.5 -18q-23 0 -23 24q0 39 27.5 86t83 84t120.5 37q45 0 88.5 -20t72 -44.5t62 -44.5t60.5 -20q31 -1 56 16.5t38.5 39t29 39.5t28.5 18q22 0 22 -25q0 -39 -27.5 -86
t-83 -84t-120.5 -37z" />
    <glyph glyph-name="Adieresis" unicode="&#xc4;" horiz-adv-x="1001" 
d="M539 451h-287q-17 0 -25.5 -5.5t-19.5 -23.5q-37 -66 -92 -178q-43 -94 -43 -123q0 -27 17 -38t56 -20q18 -5 25.5 -8t15 -10t7.5 -16q0 -37 -54 -37q-22 0 -82 4t-86 4q-25 0 -73 -4t-70 -4q-20 0 -27.5 5.5t-7.5 22.5q-1 16 9.5 25.5t21 12.5t39.5 10q9 2 18 6.5
t16.5 8.5t16 12.5t14 13.5t14.5 17t13 18t14 22t14 22t15.5 25.5t15.5 26.5q34 60 247.5 431.5t330.5 573.5q20 34 36 43.5t60 9.5q81 0 95.5 -3t15.5 -23q6 -133 15 -572.5t15 -574.5q2 -46 50 -57q16 -4 24.5 -7t16.5 -10.5t8 -19.5q0 -22 -10 -30.5t-39 -8.5q-5 0 -70 4
t-135 4q-69 0 -143.5 -4t-96.5 -4q-49 0 -49 33q0 6 1 10.5t4.5 8.5t6 6.5t8.5 5t9.5 3.5t11.5 3t11.5 2.5t13 1.5t12.5 2q17 4 27.5 8t22.5 12t18 23t6 36q0 46 1 149t1 155zM537 535v469l-5 2q-32 -59 -121 -220t-137 -251h263zM526 1413h-2q-40 0 -63 30t-23 73
q0 59 39 107t96 48q41 0 66 -28.5t25 -69.5q0 -62 -39 -111t-99 -49zM879 1413h-2q-40 0 -63 30t-23 73q0 59 39 107t98 48q40 0 64 -28.5t24 -69.5q0 -62 -38.5 -111t-98.5 -49z" />
    <glyph glyph-name="Aring" unicode="&#xc5;" horiz-adv-x="1001" 
d="M539 451h-287q-17 0 -25.5 -5.5t-19.5 -23.5q-37 -66 -92 -178q-43 -94 -43 -123q0 -27 17 -38t56 -20q18 -5 25.5 -8t15 -10t7.5 -16q0 -37 -54 -37q-22 0 -82 4t-86 4q-25 0 -73 -4t-70 -4q-20 0 -27.5 5.5t-7.5 22.5q-1 16 9.5 25.5t21 12.5t39.5 10q9 2 18 6.5
t16.5 8.5t16 12.5t14 13.5t14.5 17t13 18t14 22t14 22t15.5 25.5t15.5 26.5q34 60 247.5 431.5t330.5 573.5q20 34 36 43.5t60 9.5q81 0 95.5 -3t15.5 -23q6 -133 15 -572.5t15 -574.5q2 -46 50 -57q16 -4 24.5 -7t16.5 -10.5t8 -19.5q0 -22 -10 -30.5t-39 -8.5q-5 0 -70 4
t-135 4q-69 0 -143.5 -4t-96.5 -4q-49 0 -49 33q0 6 1 10.5t4.5 8.5t6 6.5t8.5 5t9.5 3.5t11.5 3t11.5 2.5t13 1.5t12.5 2q17 4 27.5 8t22.5 12t18 23t6 36q0 46 1 149t1 155zM537 535v469l-5 2q-32 -59 -121 -220t-137 -251h263zM733 1362h-2q-87 0 -149 63t-62 152
q0 88 62.5 150.5t150.5 62.5q89 0 152 -62.5t63 -150.5q0 -89 -63 -152t-152 -63zM733 1454h2q50 0 85.5 36t35.5 87q0 50 -36 85.5t-87 35.5q-49 0 -85 -36t-36 -85q0 -51 35.5 -87t85.5 -36z" />
    <glyph glyph-name="AE" unicode="&#xc6;" horiz-adv-x="1503" 
d="M713 612h-277q-20 0 -35 -22l-258 -350q-3 -4 -11.5 -15.5t-11.5 -16t-10 -14.5t-9.5 -15t-7.5 -13t-7.5 -13.5t-5 -12t-3.5 -12.5t-1 -11q0 -25 17.5 -37.5t53.5 -18.5q3 -1 11.5 -2.5t11.5 -2t9.5 -2.5t8.5 -4t5.5 -5t4.5 -7t1 -9q0 -37 -39 -37q-27 0 -85 4t-91 4
q-40 0 -94 -4t-66 -4q-17 0 -25 6t-8 25q0 23 12 32.5t37 14.5q63 16 103 65l721 930q53 69 68.5 91t15.5 32q0 21 -50 24q-30 3 -42.5 10t-12.5 23q0 26 16 35.5t52 9.5q81 0 225.5 -4t202.5 -4q82 0 202.5 4t159.5 4q36 0 49 -5t13 -23q0 -6 -8.5 -37t-24.5 -91.5
t-29 -111.5q-18 -75 -28 -94t-35 -19q-17 0 -25.5 12t-9.5 48q-1 14 -1 32t0.5 47t0.5 50q0 56 -31 82t-104 26q-74 0 -92 -6q-12 -7 -33 -90l-119 -397q36 -4 55 -4q43 0 73 15.5t43 34t30 52.5q4 9 13.5 29.5t14 29t12.5 20.5t16.5 16.5t18.5 4.5q33 0 33 -43
q0 -10 -20 -75q-31 -91 -90 -338q-6 -30 -14 -38.5t-31 -8.5q-35 0 -35 45q0 13 3 44t3 44q0 42 -18 63t-70 21h-57l-107 -383q-29 -107 -29 -133q0 -21 18 -30t66 -9q148 0 217 63q31 26 57.5 67t38 66t33.5 78q17 51 48 51q18 0 25 -8t7 -29q0 -17 -10 -65
q-8 -37 -20 -84.5t-26 -98.5t-19 -71q-7 -35 -18.5 -41t-63.5 -6q-56 0 -190 4t-183 4q-66 0 -195.5 -4t-193.5 -4q-39 0 -39 28q0 35 51 43q49 6 73 27.5t38 69.5zM477 696h256l123 410q10 45 10 47q0 16 -14 16q-11 0 -38 -34q-2 -2 -5 -7l-4 -4q-209 -274 -328 -428z" />
    <glyph glyph-name="Ccedilla" unicode="&#xc7;" horiz-adv-x="978" 
d="M418 -31l-49 -82q21 7 49 7q66 0 114 -37t48 -109q0 -61 -40 -107t-92.5 -65.5t-105.5 -19.5q-70 0 -127 30t-57 80q0 23 11 37t32 14q25 0 42 -17t25.5 -38t27.5 -38t48 -17q45 0 78 36.5t33 88.5q0 50 -28 72t-65 22q-16 0 -41 -5t-34 -5q-21 0 -21 16q0 8 21 43
l61 102q-116 20 -194 105q-105 114 -105 324q0 188 77 355t210 294q131 123 297 191.5t336 68.5q59 0 79.5 -11.5t20.5 -37.5q0 -22 -12 -72q-20 -83 -68 -233q-10 -32 -19 -43t-32 -11q-39 0 -39 60q0 15 9.5 104.5t9.5 114.5q0 47 -31 47q-65 0 -160.5 -73.5
t-175.5 -207.5q-86 -141 -142.5 -328t-56.5 -348q0 -105 35 -166t98 -61q68 0 132 63t116 169q45 100 55 115q20 27 46 28q32 0 32 -35q0 -24 -20 -94q-42 -148 -72 -240q-8 -28 -116 -58t-201 -30q-27 0 -39 2z" />
    <glyph glyph-name="Egrave" unicode="&#xc8;" horiz-adv-x="978" 
d="M457 625l-105 -383q-28 -107 -28 -129q0 -25 24 -34t103 -9q145 0 217 63q13 12 24.5 25t23 30t18.5 27.5t18 34t14.5 31t16 35.5t14.5 32q11 28 20.5 38.5t26.5 10.5q19 0 26 -8.5t7 -28.5q0 -14 -11 -63t-36 -145.5t-29 -112.5q-7 -35 -18.5 -41t-63.5 -6
q-46 0 -199.5 4t-249.5 4q-97 0 -199.5 -4t-131.5 -4q-48 0 -48 26q0 20 11 27t37 12q47 6 67 23t33 67q129 466 246 881q28 100 28 123q0 59 -49 66q-3 1 -12 3t-12 2.5t-9.5 3.5t-9 5.5t-4.5 7.5t-2 12q0 21 11.5 30t41.5 9q27 0 131 -4t203 -4q78 0 215.5 4t177.5 4
q36 0 48 -5t12 -23q0 -6 -7.5 -36.5t-24 -93t-28.5 -110.5q-18 -75 -28 -94t-35 -19q-17 0 -25.5 12t-9.5 48q-1 14 -1 32t0.5 47t0.5 50q0 56 -36.5 82t-129.5 26q-88 0 -106 -6q-12 -7 -33 -90l-115 -397q46 -4 68 -4q83 0 118 25t60 77q3 7 13.5 29t14.5 29.5t12.5 20
t17 17t18.5 4.5q32 0 32 -43q0 -10 -20 -75q-12 -35 -21.5 -67.5t-19 -71t-14.5 -60.5t-16 -71.5l-15 -67.5q-8 -31 -15.5 -39t-31.5 -8q-20 0 -27.5 11.5t-7.5 37.5q0 15 2 42.5t2 39.5q0 44 -22.5 65t-87.5 21h-80zM461 1655v2q0 36 23.5 56t58.5 20t60.5 -17.5
t55.5 -56.5l152 -207q6 -9 14.5 -21t13 -18.5t8 -14t3.5 -12.5q0 -18 -23 -18q-21 0 -82 41l-206 145q-26 19 -39 29.5t-25.5 30t-13.5 41.5z" />
    <glyph glyph-name="Eacute" unicode="&#xc9;" horiz-adv-x="978" 
d="M457 625l-105 -383q-28 -107 -28 -129q0 -25 24 -34t103 -9q145 0 217 63q13 12 24.5 25t23 30t18.5 27.5t18 34t14.5 31t16 35.5t14.5 32q11 28 20.5 38.5t26.5 10.5q19 0 26 -8.5t7 -28.5q0 -14 -11 -63t-36 -145.5t-29 -112.5q-7 -35 -18.5 -41t-63.5 -6
q-46 0 -199.5 4t-249.5 4q-97 0 -199.5 -4t-131.5 -4q-48 0 -48 26q0 20 11 27t37 12q47 6 67 23t33 67q129 466 246 881q28 100 28 123q0 59 -49 66q-3 1 -12 3t-12 2.5t-9.5 3.5t-9 5.5t-4.5 7.5t-2 12q0 21 11.5 30t41.5 9q27 0 131 -4t203 -4q78 0 215.5 4t177.5 4
q36 0 48 -5t12 -23q0 -6 -7.5 -36.5t-24 -93t-28.5 -110.5q-18 -75 -28 -94t-35 -19q-17 0 -25.5 12t-9.5 48q-1 14 -1 32t0.5 47t0.5 50q0 56 -36.5 82t-129.5 26q-88 0 -106 -6q-12 -7 -33 -90l-115 -397q46 -4 68 -4q83 0 118 25t60 77q3 7 13.5 29t14.5 29.5t12.5 20
t17 17t18.5 4.5q32 0 32 -43q0 -10 -20 -75q-12 -35 -21.5 -67.5t-19 -71t-14.5 -60.5t-16 -71.5l-15 -67.5q-8 -31 -15.5 -39t-31.5 -8q-20 0 -27.5 11.5t-7.5 37.5q0 15 2 42.5t2 39.5q0 44 -22.5 65t-87.5 21h-80zM592 1368h-2q-17 0 -17 18q0 16 42 58l8 8l204 207
q67 67 123 67q35 0 58.5 -18.5t23.5 -54.5q0 -57 -82 -101l-266 -145q-72 -39 -92 -39z" />
    <glyph glyph-name="Ecircumflex" unicode="&#xca;" horiz-adv-x="978" 
d="M457 625l-105 -383q-28 -107 -28 -129q0 -25 24 -34t103 -9q145 0 217 63q13 12 24.5 25t23 30t18.5 27.5t18 34t14.5 31t16 35.5t14.5 32q11 28 20.5 38.5t26.5 10.5q19 0 26 -8.5t7 -28.5q0 -14 -11 -63t-36 -145.5t-29 -112.5q-7 -35 -18.5 -41t-63.5 -6
q-46 0 -199.5 4t-249.5 4q-97 0 -199.5 -4t-131.5 -4q-48 0 -48 26q0 20 11 27t37 12q47 6 67 23t33 67q129 466 246 881q28 100 28 123q0 59 -49 66q-3 1 -12 3t-12 2.5t-9.5 3.5t-9 5.5t-4.5 7.5t-2 12q0 21 11.5 30t41.5 9q27 0 131 -4t203 -4q78 0 215.5 4t177.5 4
q36 0 48 -5t12 -23q0 -6 -7.5 -36.5t-24 -93t-28.5 -110.5q-18 -75 -28 -94t-35 -19q-17 0 -25.5 12t-9.5 48q-1 14 -1 32t0.5 47t0.5 50q0 56 -36.5 82t-129.5 26q-88 0 -106 -6q-12 -7 -33 -90l-115 -397q46 -4 68 -4q83 0 118 25t60 77q3 7 13.5 29t14.5 29.5t12.5 20
t17 17t18.5 4.5q32 0 32 -43q0 -10 -20 -75q-12 -35 -21.5 -67.5t-19 -71t-14.5 -60.5t-16 -71.5l-15 -67.5q-8 -31 -15.5 -39t-31.5 -8q-20 0 -27.5 11.5t-7.5 37.5q0 15 2 42.5t2 39.5q0 44 -22.5 65t-87.5 21h-80zM743 1581l-272 -186q-48 -31 -65 -31q-19 0 -19 18
q0 16 49 68l180 199q38 41 54 54t32 13h105q20 0 28.5 -8t26.5 -49l94 -219q21 -42 21 -58q0 -18 -21 -18q-3 0 -6 1t-6 2.5t-6.5 4.5t-6 5t-7 7t-7 7.5t-8 8.5t-8.5 9z" />
    <glyph glyph-name="Edieresis" unicode="&#xcb;" horiz-adv-x="978" 
d="M457 625l-105 -383q-28 -107 -28 -129q0 -25 24 -34t103 -9q145 0 217 63q13 12 24.5 25t23 30t18.5 27.5t18 34t14.5 31t16 35.5t14.5 32q11 28 20.5 38.5t26.5 10.5q19 0 26 -8.5t7 -28.5q0 -14 -11 -63t-36 -145.5t-29 -112.5q-7 -35 -18.5 -41t-63.5 -6
q-46 0 -199.5 4t-249.5 4q-97 0 -199.5 -4t-131.5 -4q-48 0 -48 26q0 20 11 27t37 12q47 6 67 23t33 67q129 466 246 881q28 100 28 123q0 59 -49 66q-3 1 -12 3t-12 2.5t-9.5 3.5t-9 5.5t-4.5 7.5t-2 12q0 21 11.5 30t41.5 9q27 0 131 -4t203 -4q78 0 215.5 4t177.5 4
q36 0 48 -5t12 -23q0 -6 -7.5 -36.5t-24 -93t-28.5 -110.5q-18 -75 -28 -94t-35 -19q-17 0 -25.5 12t-9.5 48q-1 14 -1 32t0.5 47t0.5 50q0 56 -36.5 82t-129.5 26q-88 0 -106 -6q-12 -7 -33 -90l-115 -397q46 -4 68 -4q83 0 118 25t60 77q3 7 13.5 29t14.5 29.5t12.5 20
t17 17t18.5 4.5q32 0 32 -43q0 -10 -20 -75q-12 -35 -21.5 -67.5t-19 -71t-14.5 -60.5t-16 -71.5l-15 -67.5q-8 -31 -15.5 -39t-31.5 -8q-20 0 -27.5 11.5t-7.5 37.5q0 15 2 42.5t2 39.5q0 44 -22.5 65t-87.5 21h-80zM532 1413h-2q-40 0 -63 30t-23 73q0 59 39 107t97 48
q41 0 65.5 -28.5t24.5 -69.5q0 -62 -39 -111t-99 -49zM885 1413h-2q-40 0 -63 30t-23 73q0 59 39 107t98 48q40 0 64 -28.5t24 -69.5q0 -62 -38.5 -111t-98.5 -49z" />
    <glyph glyph-name="Igrave" unicode="&#xcc;" 
d="M319 121v-2q0 -36 48 -47q29 -6 41 -14.5t12 -26.5q0 -24 -24.5 -31.5t-67.5 -7.5q-21 0 -80.5 4t-106.5 4q-59 0 -124.5 -4t-77.5 -4q-45 0 -45 28q0 36 45 46q40 7 60.5 22t31.5 55l237 858q7 28 16.5 60t14 47t7.5 32t3 29q0 25 -11.5 36t-35.5 16q-4 1 -12.5 2.5
t-11.5 2.5t-8.5 3t-7 5t-3.5 7.5t-2 11.5q0 37 57 37q30 0 101.5 -4t120.5 -4q43 0 100.5 4t77.5 4q26 0 37.5 -7.5t11.5 -27.5q0 -4 -1 -7t-2 -5t-4 -4t-5 -3.5t-7 -3.5l-7.5 -3t-9.5 -3t-11 -3q-35 -10 -56.5 -29.5t-31.5 -58.5l-213 -783q-7 -26 -17.5 -62.5t-15 -52.5
t-10 -38t-8 -33t-4 -23t-1.5 -22zM268 1655v2q0 36 23.5 56t56.5 20q35 0 61.5 -17.5t55.5 -56.5l151 -207q6 -9 14.5 -21t13 -18.5t8 -14t3.5 -12.5q0 -18 -20 -18q-23 0 -84 41l-207 145q-26 19 -39 29.5t-25 30t-12 41.5z" />
    <glyph glyph-name="Iacute" unicode="&#xcd;" 
d="M319 121v-2q0 -36 48 -47q29 -6 41 -14.5t12 -26.5q0 -24 -24.5 -31.5t-67.5 -7.5q-21 0 -80.5 4t-106.5 4q-59 0 -124.5 -4t-77.5 -4q-45 0 -45 28q0 36 45 46q40 7 60.5 22t31.5 55l237 858q7 28 16.5 60t14 47t7.5 32t3 29q0 25 -11.5 36t-35.5 16q-4 1 -12.5 2.5
t-11.5 2.5t-8.5 3t-7 5t-3.5 7.5t-2 11.5q0 37 57 37q30 0 101.5 -4t120.5 -4q43 0 100.5 4t77.5 4q26 0 37.5 -7.5t11.5 -27.5q0 -4 -1 -7t-2 -5t-4 -4t-5 -3.5t-7 -3.5l-7.5 -3t-9.5 -3t-11 -3q-35 -10 -56.5 -29.5t-31.5 -58.5l-213 -783q-7 -26 -17.5 -62.5t-15 -52.5
t-10 -38t-8 -33t-4 -23t-1.5 -22zM399 1368h-2q-18 0 -18 18q0 17 45 62l4 4l207 207q64 67 121 67q35 0 58.5 -18.5t23.5 -54.5q0 -57 -82 -101l-267 -145q-72 -39 -90 -39z" />
    <glyph glyph-name="Icircumflex" unicode="&#xce;" 
d="M319 121v-2q0 -36 48 -47q29 -6 41 -14.5t12 -26.5q0 -24 -24.5 -31.5t-67.5 -7.5q-21 0 -80.5 4t-106.5 4q-59 0 -124.5 -4t-77.5 -4q-45 0 -45 28q0 36 45 46q40 7 60.5 22t31.5 55l237 858q7 28 16.5 60t14 47t7.5 32t3 29q0 25 -11.5 36t-35.5 16q-4 1 -12.5 2.5
t-11.5 2.5t-8.5 3t-7 5t-3.5 7.5t-2 11.5q0 37 57 37q30 0 101.5 -4t120.5 -4q43 0 100.5 4t77.5 4q26 0 37.5 -7.5t11.5 -27.5q0 -4 -1 -7t-2 -5t-4 -4t-5 -3.5t-7 -3.5l-7.5 -3t-9.5 -3t-11 -3q-35 -10 -56.5 -29.5t-31.5 -58.5l-213 -783q-7 -26 -17.5 -62.5t-15 -52.5
t-10 -38t-8 -33t-4 -23t-1.5 -22zM549 1581l-273 -186q-45 -31 -63 -31q-20 0 -20 18q0 16 49 68l180 199q38 41 54 54t32 13h104q20 0 29 -8.5t27 -48.5l94 -219q20 -40 20 -58t-18 -18q-3 0 -6 0.5t-6 2.5t-5.5 3.5t-6 4.5t-6 5t-6.5 6.5t-6.5 7l-7.5 7.5t-7 8z" />
    <glyph glyph-name="Idieresis" unicode="&#xcf;" 
d="M319 121v-2q0 -36 48 -47q29 -6 41 -14.5t12 -26.5q0 -24 -24.5 -31.5t-67.5 -7.5q-21 0 -80.5 4t-106.5 4q-59 0 -124.5 -4t-77.5 -4q-45 0 -45 28q0 36 45 46q40 7 60.5 22t31.5 55l237 858q7 28 16.5 60t14 47t7.5 32t3 29q0 25 -11.5 36t-35.5 16q-4 1 -12.5 2.5
t-11.5 2.5t-8.5 3t-7 5t-3.5 7.5t-2 11.5q0 37 57 37q30 0 101.5 -4t120.5 -4q43 0 100.5 4t77.5 4q26 0 37.5 -7.5t11.5 -27.5q0 -4 -1 -7t-2 -5t-4 -4t-5 -3.5t-7 -3.5l-7.5 -3t-9.5 -3t-11 -3q-35 -10 -56.5 -29.5t-31.5 -58.5l-213 -783q-7 -26 -17.5 -62.5t-15 -52.5
t-10 -38t-8 -33t-4 -23t-1.5 -22zM332 1413h-2q-40 0 -63 30t-23 73q0 59 39 107t98 48q40 0 64 -28.5t24 -69.5q0 -62 -38.5 -111t-98.5 -49zM684 1413h-2q-38 0 -61 30t-23 73q0 59 38 107t97 48q41 0 64.5 -28t23.5 -70q0 -62 -38.5 -111t-98.5 -49z" />
    <glyph glyph-name="Eth" unicode="&#xd0;" horiz-adv-x="1206" 
d="M207 709l92 317q23 90 23 121q0 34 -14.5 47t-49.5 20q-16 2 -24 4.5t-14.5 10t-6.5 20.5q0 23 14 32t47 9t107.5 -4t120.5 -4q56 0 163 4t156 4q173 0 273 -100q98 -98 98 -293q0 -155 -48 -322t-136 -296q-97 -139 -237 -213t-308 -74q-63 0 -175.5 4t-158.5 4
q-41 0 -105.5 -4t-86.5 -4q-52 0 -52 37q0 21 13 29t39 14q48 7 72 24.5t40 67.5l135 469h-108q-25 0 -25 10q0 17 12 45q3 13 9 17t22 4h113zM465 633l-96 -332q-39 -137 -39 -172q0 -36 19 -49.5t63 -13.5q200 0 346 331q64 142 104.5 309.5t40.5 288.5q0 103 -36 162.5
t-126 59.5q-88 0 -104 -21q-14 -18 -37 -98l-113 -389h179q24 0 24 -11q0 -3 -12 -45q-3 -13 -9 -16.5t-22 -3.5h-182z" />
    <glyph glyph-name="Ntilde" unicode="&#xd1;" horiz-adv-x="1138" 
d="M852 416h4q145 504 180 639q19 87 19 102q0 50 -62 62q-27 5 -40 12.5t-13 23.5q0 35 45 35q21 0 67 -4t72 -4q23 0 64 4t61 4q37 0 37 -33q0 -8 -2.5 -13.5t-9.5 -9t-11 -5t-16 -4.5l-16 -4q-35 -11 -57.5 -32.5t-36.5 -70.5q-119 -401 -297 -1046q-14 -56 -28 -70
t-58 -14q-37 0 -50.5 15t-25.5 56l-313 965h-5q-135 -448 -196 -682q-45 -165 -45 -205q0 -32 16.5 -47t44.5 -22q4 -1 11.5 -3.5t11.5 -3.5t10.5 -3.5t9.5 -4.5l7.5 -5t6.5 -6t3.5 -7.5t1.5 -9.5q0 -33 -39 -33q-18 0 -68 4t-84 4q-30 0 -76 -4t-67 -4q-19 0 -27 8t-8 27
q0 12 7 19.5t14 10t22 6.5q71 10 88 46q25 67 70 223q47 155 96 314.5t78 253t43 142.5q24 91 24 115q0 28 -12.5 41t-42.5 21q-16 4 -23.5 6.5t-14.5 9.5t-7 18q0 20 11 28.5t42 8.5q23 0 72.5 -3t75.5 -3q22 0 63.5 3t59.5 3q17 0 25.5 -13t19.5 -50q38 -122 80 -250
t104 -311.5t84 -249.5zM924 1415h-2q-72 0 -158 66q-5 4 -17.5 13t-18.5 13t-16.5 11.5t-18 11t-16.5 7.5t-18 5.5t-18 1.5q-31 1 -56 -16.5t-38.5 -38.5t-29 -39t-28.5 -18q-22 0 -22 24q0 39 27.5 86t83 84t120.5 37q45 0 89 -20t72.5 -44.5t62 -44.5t59.5 -20
q31 -1 56 16.5t38.5 39t29 39.5t28.5 18q22 0 22 -25q0 -39 -27.5 -86t-83 -84t-120.5 -37z" />
    <glyph glyph-name="Ograve" unicode="&#xd2;" horiz-adv-x="1161" 
d="M1149 813v-2q0 -113 -30.5 -232t-90.5 -228t-140 -195t-188.5 -137.5t-226.5 -51.5q-203 0 -317 152q-107 138 -107 350q0 120 29 240.5t87 229t137.5 193t189 134t233.5 49.5q205 0 314.5 -135.5t109.5 -366.5zM743 1241h-2q-129 0 -241 -285q-73 -182 -122.5 -400.5
t-49.5 -324.5q0 -90 32.5 -140t94.5 -50q131 0 243 285q73 182 122.5 400.5t49.5 324.5q0 90 -32.5 140t-94.5 50zM526 1655v2q0 36 23.5 56t56.5 20q35 0 61.5 -17.5t55.5 -56.5l151 -207q6 -9 14.5 -21t13 -18.5t8 -14t3.5 -12.5q0 -18 -20 -18q-23 0 -84 41l-207 145
q-26 19 -39 29.5t-25 30t-12 41.5z" />
    <glyph glyph-name="Oacute" unicode="&#xd3;" horiz-adv-x="1161" 
d="M1149 813v-2q0 -113 -30.5 -232t-90.5 -228t-140 -195t-188.5 -137.5t-226.5 -51.5q-203 0 -317 152q-107 138 -107 350q0 120 29 240.5t87 229t137.5 193t189 134t233.5 49.5q205 0 314.5 -135.5t109.5 -366.5zM743 1241h-2q-129 0 -241 -285q-73 -182 -122.5 -400.5
t-49.5 -324.5q0 -90 32.5 -140t94.5 -50q131 0 243 285q73 182 122.5 400.5t49.5 324.5q0 90 -32.5 140t-94.5 50zM657 1368h-2q-18 0 -18 18q0 17 45 62l4 4l207 207q64 67 121 67q35 0 58.5 -18.5t23.5 -54.5q0 -57 -82 -101l-266 -145q-72 -39 -91 -39z" />
    <glyph glyph-name="Ocircumflex" unicode="&#xd4;" horiz-adv-x="1161" 
d="M1149 813v-2q0 -113 -30.5 -232t-90.5 -228t-140 -195t-188.5 -137.5t-226.5 -51.5q-203 0 -317 152q-107 138 -107 350q0 120 29 240.5t87 229t137.5 193t189 134t233.5 49.5q205 0 314.5 -135.5t109.5 -366.5zM743 1241h-2q-129 0 -241 -285q-73 -182 -122.5 -400.5
t-49.5 -324.5q0 -90 32.5 -140t94.5 -50q131 0 243 285q73 182 122.5 400.5t49.5 324.5q0 90 -32.5 140t-94.5 50zM807 1581l-272 -186q-45 -31 -64 -31q-20 0 -20 18q0 16 49 68l180 199q38 41 54 54t32 13h104q20 0 29 -8.5t27 -48.5l94 -219q20 -40 20 -58t-18 -18
q-3 0 -6 0.5t-6 2.5t-5.5 3.5t-6 4.5t-6 5t-6.5 6.5t-6.5 7l-7.5 7.5t-7 8z" />
    <glyph glyph-name="Otilde" unicode="&#xd5;" horiz-adv-x="1161" 
d="M1149 813v-2q0 -113 -30.5 -232t-90.5 -228t-140 -195t-188.5 -137.5t-226.5 -51.5q-203 0 -317 152q-107 138 -107 350q0 120 29 240.5t87 229t137.5 193t189 134t233.5 49.5q205 0 314.5 -135.5t109.5 -366.5zM743 1241h-2q-129 0 -241 -285q-73 -182 -122.5 -400.5
t-49.5 -324.5q0 -90 32.5 -140t94.5 -50q131 0 243 285q73 182 122.5 400.5t49.5 324.5q0 90 -32.5 140t-94.5 50zM893 1415h-2q-72 0 -158 66q-5 4 -17.5 13t-18.5 13t-16.5 11.5t-18 11t-16.5 7.5t-18 5.5t-18 1.5q-31 1 -56 -16.5t-38 -38.5t-28.5 -39t-28.5 -18
q-23 0 -23 24q0 64 68 135.5t164 71.5q45 0 88.5 -20t72 -44.5t61.5 -44.5t60 -20q31 -1 56 16.5t38.5 39t29 39.5t28.5 18q22 0 22 -25q0 -39 -27.5 -86t-83 -84t-120.5 -37z" />
    <glyph glyph-name="Odieresis" unicode="&#xd6;" horiz-adv-x="1161" 
d="M1149 813v-2q0 -113 -30.5 -232t-90.5 -228t-140 -195t-188.5 -137.5t-226.5 -51.5q-203 0 -317 152q-107 138 -107 350q0 120 29 240.5t87 229t137.5 193t189 134t233.5 49.5q205 0 314.5 -135.5t109.5 -366.5zM743 1241h-2q-129 0 -241 -285q-73 -182 -122.5 -400.5
t-49.5 -324.5q0 -90 32.5 -140t94.5 -50q131 0 243 285q73 182 122.5 400.5t49.5 324.5q0 90 -32.5 140t-94.5 50zM596 1413h-2q-40 0 -63 30t-23 73q0 59 39 107t98 48q40 0 64 -28.5t24 -69.5q0 -62 -38.5 -111t-98.5 -49zM948 1413h-2q-38 0 -61 30t-23 73q0 59 38 107
t97 48q41 0 64.5 -28t23.5 -70q0 -62 -38.5 -111t-98.5 -49z" />
    <glyph glyph-name="multiply" unicode="&#xd7;" horiz-adv-x="1228" 
d="M496 518l-365 365l119 118l364 -366l365 366l119 -118l-367 -365l367 -364l-119 -119l-365 366l-364 -366l-119 119z" />
    <glyph glyph-name="Oslash" unicode="&#xd8;" horiz-adv-x="1161" 
d="M59 -180h-36q-19 0 -19 8q0 6 31 53l137 211q-59 70 -91 169t-32 208q0 120 29 240.5t87 229t137.5 193t189 134t233.5 49.5q146 0 244 -76l127 193q13 21 20 25.5t23 4.5h37q18 0 18 -8q0 -6 -31 -53l-137 -211q123 -129 123 -377q0 -114 -30.5 -233.5t-90.5 -228.5
t-140 -195t-188.5 -137.5t-226.5 -51.5q-139 0 -244 76l-127 -193q-13 -21 -20 -25.5t-23 -4.5zM354 291l492 842q-25 108 -107 108q-61 0 -120.5 -67.5t-102.5 -165t-78 -209.5t-53.5 -199t-22.5 -135q-11 -95 -8 -174zM844 991l-492 -841q26 -109 107 -109
q61 0 120.5 67.5t102.5 165t78 209.5t53.5 199t22.5 135q11 95 8 174z" />
    <glyph glyph-name="Ugrave" unicode="&#xd9;" horiz-adv-x="1138" 
d="M84 252v2q0 58 51 260q26 90 83 281.5t75 257.5q22 83 22 110q0 26 -11 39t-34 19q-4 1 -11.5 3.5t-11 4t-9 3.5t-7.5 4t-5 5.5t-4 7t-1 8.5q0 33 70 33q22 0 87 -4t109 -4q67 0 140 4t92 4q29 0 40 -6t11 -20q0 -5 -1 -9t-4 -7.5t-5.5 -6t-8.5 -4.5t-9.5 -3.5t-11 -3
t-11 -2t-12.5 -1.5t-13 -2q-21 -5 -35.5 -12.5t-31 -32.5t-27.5 -66q-141 -495 -192 -692q-3 -10 -10 -38t-11 -43t-9 -37.5t-7 -40t-2 -32.5q0 -72 50.5 -118.5t129.5 -46.5q127 0 202 80.5t121 261.5q41 161 95 363t67 253q27 116 27 135q0 31 -15.5 46t-48.5 20
q-26 5 -35.5 10.5t-9.5 19.5q0 35 45 35q17 0 59 -4t68 -4q23 0 63 4t54 4q47 0 47 -26q0 -7 -3 -12.5t-10.5 -9.5t-13 -6t-19 -6.5l-19.5 -6.5q-36 -12 -56 -38.5t-37 -84.5q-101 -397 -196 -744q-49 -190 -154 -282q-115 -107 -317 -107q-181 0 -280 71t-99 214zM551 1655
v2q0 36 23.5 56t56.5 20q35 0 61.5 -17.5t55.5 -56.5l151 -207q6 -9 14.5 -21t13 -18.5t8 -14t3.5 -12.5q0 -18 -20 -18q-23 0 -84 41l-207 145q-26 19 -39 29.5t-25 30t-12 41.5z" />
    <glyph glyph-name="Uacute" unicode="&#xda;" horiz-adv-x="1138" 
d="M84 252v2q0 58 51 260q26 90 83 281.5t75 257.5q22 83 22 110q0 26 -11 39t-34 19q-4 1 -11.5 3.5t-11 4t-9 3.5t-7.5 4t-5 5.5t-4 7t-1 8.5q0 33 70 33q22 0 87 -4t109 -4q67 0 140 4t92 4q29 0 40 -6t11 -20q0 -5 -1 -9t-4 -7.5t-5.5 -6t-8.5 -4.5t-9.5 -3.5t-11 -3
t-11 -2t-12.5 -1.5t-13 -2q-21 -5 -35.5 -12.5t-31 -32.5t-27.5 -66q-141 -495 -192 -692q-3 -10 -10 -38t-11 -43t-9 -37.5t-7 -40t-2 -32.5q0 -72 50.5 -118.5t129.5 -46.5q127 0 202 80.5t121 261.5q41 161 95 363t67 253q27 116 27 135q0 31 -15.5 46t-48.5 20
q-26 5 -35.5 10.5t-9.5 19.5q0 35 45 35q17 0 59 -4t68 -4q23 0 63 4t54 4q47 0 47 -26q0 -7 -3 -12.5t-10.5 -9.5t-13 -6t-19 -6.5l-19.5 -6.5q-36 -12 -56 -38.5t-37 -84.5q-101 -397 -196 -744q-49 -190 -154 -282q-115 -107 -317 -107q-181 0 -280 71t-99 214zM690 1368
h-2q-18 0 -18 18q0 17 45 62l4 4l207 207q64 67 121 67q35 0 58 -18.5t23 -54.5q0 -58 -81 -101l-267 -145q-72 -39 -90 -39z" />
    <glyph glyph-name="Ucircumflex" unicode="&#xdb;" horiz-adv-x="1138" 
d="M84 252v2q0 58 51 260q26 90 83 281.5t75 257.5q22 83 22 110q0 26 -11 39t-34 19q-4 1 -11.5 3.5t-11 4t-9 3.5t-7.5 4t-5 5.5t-4 7t-1 8.5q0 33 70 33q22 0 87 -4t109 -4q67 0 140 4t92 4q29 0 40 -6t11 -20q0 -5 -1 -9t-4 -7.5t-5.5 -6t-8.5 -4.5t-9.5 -3.5t-11 -3
t-11 -2t-12.5 -1.5t-13 -2q-21 -5 -35.5 -12.5t-31 -32.5t-27.5 -66q-141 -495 -192 -692q-3 -10 -10 -38t-11 -43t-9 -37.5t-7 -40t-2 -32.5q0 -72 50.5 -118.5t129.5 -46.5q127 0 202 80.5t121 261.5q41 161 95 363t67 253q27 116 27 135q0 31 -15.5 46t-48.5 20
q-26 5 -35.5 10.5t-9.5 19.5q0 35 45 35q17 0 59 -4t68 -4q23 0 63 4t54 4q47 0 47 -26q0 -7 -3 -12.5t-10.5 -9.5t-13 -6t-19 -6.5l-19.5 -6.5q-36 -12 -56 -38.5t-37 -84.5q-101 -397 -196 -744q-49 -190 -154 -282q-115 -107 -317 -107q-181 0 -280 71t-99 214zM840 1581
l-273 -186q-45 -31 -63 -31q-21 0 -21 18q0 16 49 68l181 199q38 41 54 54t32 13h104q20 0 28.5 -8t26.5 -49l95 -219q20 -40 20 -58t-18 -18q-17 0 -50 36q-1 1 -3 4l-5 5z" />
    <glyph glyph-name="Udieresis" unicode="&#xdc;" horiz-adv-x="1138" 
d="M84 252v2q0 58 51 260q26 90 83 281.5t75 257.5q22 83 22 110q0 26 -11 39t-34 19q-4 1 -11.5 3.5t-11 4t-9 3.5t-7.5 4t-5 5.5t-4 7t-1 8.5q0 33 70 33q22 0 87 -4t109 -4q67 0 140 4t92 4q29 0 40 -6t11 -20q0 -5 -1 -9t-4 -7.5t-5.5 -6t-8.5 -4.5t-9.5 -3.5t-11 -3
t-11 -2t-12.5 -1.5t-13 -2q-21 -5 -35.5 -12.5t-31 -32.5t-27.5 -66q-141 -495 -192 -692q-3 -10 -10 -38t-11 -43t-9 -37.5t-7 -40t-2 -32.5q0 -72 50.5 -118.5t129.5 -46.5q127 0 202 80.5t121 261.5q41 161 95 363t67 253q27 116 27 135q0 31 -15.5 46t-48.5 20
q-26 5 -35.5 10.5t-9.5 19.5q0 35 45 35q17 0 59 -4t68 -4q23 0 63 4t54 4q47 0 47 -26q0 -7 -3 -12.5t-10.5 -9.5t-13 -6t-19 -6.5l-19.5 -6.5q-36 -12 -56 -38.5t-37 -84.5q-101 -397 -196 -744q-49 -190 -154 -282q-115 -107 -317 -107q-181 0 -280 71t-99 214zM621 1413
h-3q-40 0 -63 30t-23 73q0 59 39.5 107t98.5 48q40 0 64 -28.5t24 -69.5q0 -62 -38.5 -111t-98.5 -49zM973 1413h-2q-38 0 -61 30t-23 73q0 59 38 107t97 48q41 0 64.5 -28t23.5 -70q0 -62 -38.5 -111t-98.5 -49z" />
    <glyph glyph-name="Yacute" unicode="&#xdd;" horiz-adv-x="933" 
d="M500 1157v-2q0 -23 12 -108q6 -36 16.5 -91t26.5 -139.5t29 -154.5q25 34 76.5 106t76.5 107t57.5 82t53.5 79q67 104 67 140t-47 47q-4 1 -10.5 2.5t-9.5 2t-8 1.5t-7.5 2t-6 2.5t-5 3l-3.5 3.5t-3 4.5t-1.5 5.5t-0.5 7q0 33 41 33q17 0 64 -4t92 -4q22 0 59 4t57 4
q33 0 33 -22q0 -17 -10.5 -25.5t-34.5 -17.5q-32 -14 -63 -42t-78 -93q-318 -453 -363 -523q-55 -178 -94 -317q-27 -94 -27 -131q0 -27 13 -40.5t39 -21.5q5 -1 12.5 -3t11.5 -3t9.5 -2.5t8.5 -3.5t6 -5t4 -6.5t1 -8.5q0 -19 -11 -26t-42 -7q-34 0 -111 4t-117 4
q-46 0 -126 -4t-107 -4q-23 0 -33 5t-10 21q0 10 4 17t13 11.5t16 6.5t22.5 5t22.5 5q36 9 57 27t33 64q5 15 37.5 124.5t52.5 180t27 104.5q-4 36 -21.5 122t-44.5 211.5t-39 182.5q-13 74 -29 100.5t-49 39.5q-6 3 -17.5 7.5t-16 7t-10.5 6.5t-8.5 9.5t-2.5 12.5
q0 28 61 28q16 0 74.5 -4t112.5 -4q76 0 160 4t96 4q45 0 45 -30q0 -7 -3 -12t-11 -8.5t-14.5 -5t-20 -4.5t-21.5 -5q-33 -10 -48 -24.5t-15 -43.5zM575 1368h-2q-18 0 -18 18q0 17 45 62l4 4l207 207q64 67 121 67q35 0 58.5 -18.5t23.5 -54.5q0 -57 -82 -101l-266 -145
q-72 -39 -91 -39z" />
    <glyph glyph-name="Thorn" unicode="&#xde;" horiz-adv-x="1046" 
d="M1030 774v-2q0 -100 -38.5 -195.5t-121.5 -164.5q-145 -125 -399 -125h-111q-34 -109 -34 -156q0 -34 16 -48.5t47 -19.5q22 -3 32 -5t19 -10t9 -23q0 -33 -50 -33q-7 0 -90.5 4t-142.5 4q-53 0 -115 -4t-80 -4q-86 0 -86 31q0 21 15 29.5t51 13.5q35 5 56.5 25t35.5 69
q41 152 124 453t124 452q22 83 22 98q0 29 -13 40t-44 16q-41 7 -41 38q0 33 53 33q9 0 81 -4t128 -4q52 0 120.5 4t88.5 4q24 0 34.5 -7t10.5 -28q0 -14 -11 -20.5t-36 -11.5q-22 -5 -38 -16t-25.5 -21t-20 -38t-14.5 -42.5t-15 -58.5q86 8 164 8q151 0 226 -66
q69 -63 69 -215zM537 932l-142 -504q-12 -48 -12 -51q0 -17 35 -17q133 0 219 121q55 86 85 191t30 170q0 70 -32.5 104.5t-109.5 34.5q-41 0 -52.5 -8t-20.5 -41z" />
    <glyph glyph-name="germandbls" unicode="&#xdf;" horiz-adv-x="1183" 
d="M238 844h-127q-25 0 -25 16q8 31 10 37q8 20 12.5 24.5t18.5 4.5h135q37 116 88.5 205t123.5 157.5t170 105t218 36.5q69 0 126.5 -13t106 -40.5t76 -77t27.5 -115.5q0 -78 -39 -133.5t-94 -84.5t-110.5 -50.5t-94.5 -45.5t-39 -55q0 -25 27.5 -64t67.5 -84t79.5 -95
t67 -112t27.5 -120q0 -70 -22 -134t-64 -116.5t-110.5 -83.5t-154.5 -31q-76 0 -138.5 18.5t-98.5 45t-55 53t-19 45.5q0 65 25 154q25 100 67 100q29 0 42 -21.5t26 -78.5q28 -125 48 -163q31 -58 85 -58q58 0 92.5 44t34.5 109q0 41 -21 85.5t-52.5 83.5t-68 84t-68 86
t-52.5 90t-21 96q0 50 22.5 86.5t58 57t78.5 37.5t86 36.5t78.5 45.5t58 72t22.5 109q0 74 -37.5 119t-106.5 45q-74 0 -126 -42.5t-102 -154t-103 -315.5q-25 -93 -142 -568q-89 -356 -202 -526q-144 -217 -351 -217q-79 0 -131.5 42t-52.5 124q0 64 30 102.5t85 38.5
q46 0 70 -25.5t26 -62.5q1 -30 -10.5 -70t-10.5 -49q3 -26 31 -26q32 0 57.5 37t55.5 123q32 92 131 475q66 259 158 602z" />
    <glyph glyph-name="agrave" unicode="&#xe0;" horiz-adv-x="1046" 
d="M-27 164v2q0 123 55.5 259t147.5 253q90 116 193.5 186t193.5 70q39 0 70.5 -11t49.5 -22.5t26 -11.5q12 0 30 41q13 28 66 28h131q27 0 39 -6.5t12 -29.5q0 -13 -18 -80q-9 -27 -70.5 -215.5t-89.5 -278.5q-31 -99 -31 -133q0 -29 25 -29q32 0 102 113q11 17 21.5 35.5
t15.5 27.5t10.5 17t10 11t10.5 3q22 0 22 -24q0 -33 -36.5 -100.5t-92.5 -131.5q-63 -73 -134 -119.5t-138 -46.5q-50 0 -73 21.5t-23 66.5q0 36 14 101q21 103 57 221l-4 4q-29 -49 -49.5 -80.5t-59 -87t-72.5 -93t-76.5 -76t-87 -58t-87.5 -19.5q-88 0 -124 50.5
t-36 142.5zM686 788v3q0 27 -15 42t-42 15q-95 0 -213 -209q-156 -279 -156 -383q0 -59 45 -59q38 0 102 70.5t130 176.5q63 103 106 200.5t43 143.5zM459 1360v2q0 38 23.5 57t58.5 19q34 0 60.5 -17.5t55.5 -56.5l150 -207q41 -52 41 -65q0 -19 -23 -19q-25 0 -82 41
l-206 148q-51 36 -64 55q-13 20 -14 43z" />
    <glyph glyph-name="aacute" unicode="&#xe1;" horiz-adv-x="1046" 
d="M-27 164v2q0 123 55.5 259t147.5 253q90 116 193.5 186t193.5 70q39 0 70.5 -11t49.5 -22.5t26 -11.5q12 0 30 41q13 28 66 28h131q27 0 39 -6.5t12 -29.5q0 -13 -18 -80q-9 -27 -70.5 -215.5t-89.5 -278.5q-31 -99 -31 -133q0 -29 25 -29q32 0 102 113q11 17 21.5 35.5
t15.5 27.5t10.5 17t10 11t10.5 3q22 0 22 -24q0 -33 -36.5 -100.5t-92.5 -131.5q-63 -73 -134 -119.5t-138 -46.5q-50 0 -73 21.5t-23 66.5q0 36 14 101q21 103 57 221l-4 4q-29 -49 -49.5 -80.5t-59 -87t-72.5 -93t-76.5 -76t-87 -58t-87.5 -19.5q-88 0 -124 50.5
t-36 142.5zM686 788v3q0 27 -15 42t-42 15q-95 0 -213 -209q-156 -279 -156 -383q0 -59 45 -59q38 0 102 70.5t130 176.5q63 103 106 200.5t43 143.5zM584 1073h-2q-19 0 -19 19q0 18 51 65l205 209q68 68 121 68q36 0 59 -19t23 -57q0 -59 -82 -101l-264 -145
q-76 -39 -92 -39z" />
    <glyph glyph-name="acircumflex" unicode="&#xe2;" horiz-adv-x="1046" 
d="M-27 164v2q0 123 55.5 259t147.5 253q90 116 193.5 186t193.5 70q39 0 70.5 -11t49.5 -22.5t26 -11.5q12 0 30 41q13 28 66 28h131q27 0 39 -6.5t12 -29.5q0 -13 -18 -80q-9 -27 -70.5 -215.5t-89.5 -278.5q-31 -99 -31 -133q0 -29 25 -29q32 0 102 113q11 17 21.5 35.5
t15.5 27.5t10.5 17t10 11t10.5 3q22 0 22 -24q0 -33 -36.5 -100.5t-92.5 -131.5q-63 -73 -134 -119.5t-138 -46.5q-50 0 -73 21.5t-23 66.5q0 36 14 101q21 103 57 221l-4 4q-29 -49 -49.5 -80.5t-59 -87t-72.5 -93t-76.5 -76t-87 -58t-87.5 -19.5q-88 0 -124 50.5
t-36 142.5zM686 788v3q0 27 -15 42t-42 15q-95 0 -213 -209q-156 -279 -156 -383q0 -59 45 -59q38 0 102 70.5t130 176.5q63 103 106 200.5t43 143.5zM723 1286l-272 -186q-48 -29 -64 -29q-20 0 -20 16q0 3 1 6.5t3.5 8t5 8t7.5 9.5t8.5 10t11 12.5t12.5 13.5l182 199
q50 55 63 62q11 7 23 7h104q20 0 29 -9t27 -50l94 -219q20 -40 20 -55q0 -8 -5.5 -13.5t-14.5 -5.5q-3 0 -6 1t-6 2.5t-6.5 4.5t-6 5t-7 7t-7 7.5t-8 8.5t-8.5 9z" />
    <glyph glyph-name="atilde" unicode="&#xe3;" horiz-adv-x="1046" 
d="M-27 164v2q0 123 55.5 259t147.5 253q90 116 193.5 186t193.5 70q39 0 70.5 -11t49.5 -22.5t26 -11.5q12 0 30 41q13 28 66 28h131q27 0 39 -6.5t12 -29.5q0 -13 -18 -80q-9 -27 -70.5 -215.5t-89.5 -278.5q-31 -99 -31 -133q0 -29 25 -29q32 0 102 113q11 17 21.5 35.5
t15.5 27.5t10.5 17t10 11t10.5 3q22 0 22 -24q0 -33 -36.5 -100.5t-92.5 -131.5q-63 -73 -134 -119.5t-138 -46.5q-50 0 -73 21.5t-23 66.5q0 36 14 101q21 103 57 221l-4 4q-29 -49 -49.5 -80.5t-59 -87t-72.5 -93t-76.5 -76t-87 -58t-87.5 -19.5q-88 0 -124 50.5
t-36 142.5zM686 788v3q0 27 -15 42t-42 15q-95 0 -213 -209q-156 -279 -156 -383q0 -59 45 -59q38 0 102 70.5t130 176.5q63 103 106 200.5t43 143.5zM817 1122h-2q-45 0 -88 20t-71 44t-61 44t-60 21q-31 0 -56.5 -17.5t-39 -38.5t-29 -38.5t-29.5 -17.5q-21 0 -21 22
q0 65 67.5 136t162.5 71q46 0 90 -20t72 -44t61.5 -44t60.5 -21q30 0 55.5 17.5t38.5 39t28.5 39t29.5 17.5q21 0 21 -25q0 -64 -67 -134.5t-163 -70.5z" />
    <glyph glyph-name="adieresis" unicode="&#xe4;" horiz-adv-x="1046" 
d="M-27 164v2q0 123 55.5 259t147.5 253q90 116 193.5 186t193.5 70q39 0 70.5 -11t49.5 -22.5t26 -11.5q12 0 30 41q13 28 66 28h131q27 0 39 -6.5t12 -29.5q0 -13 -18 -80q-9 -27 -70.5 -215.5t-89.5 -278.5q-31 -99 -31 -133q0 -29 25 -29q32 0 102 113q11 17 21.5 35.5
t15.5 27.5t10.5 17t10 11t10.5 3q22 0 22 -24q0 -33 -36.5 -100.5t-92.5 -131.5q-63 -73 -134 -119.5t-138 -46.5q-50 0 -73 21.5t-23 66.5q0 36 14 101q21 103 57 221l-4 4q-29 -49 -49.5 -80.5t-59 -87t-72.5 -93t-76.5 -76t-87 -58t-87.5 -19.5q-88 0 -124 50.5
t-36 142.5zM686 788v3q0 27 -15 42t-42 15q-95 0 -213 -209q-156 -279 -156 -383q0 -59 45 -59q38 0 102 70.5t130 176.5q63 103 106 200.5t43 143.5zM516 1120h-2q-40 0 -63 29t-23 72q0 60 38 108.5t97 48.5q41 0 65.5 -28.5t24.5 -71.5q0 -60 -39 -109t-98 -49zM868 1120
h-2q-40 0 -63 29t-23 72q0 60 38.5 108.5t96.5 48.5q42 0 66.5 -28.5t24.5 -71.5q0 -61 -39 -109.5t-99 -48.5z" />
    <glyph glyph-name="aring" unicode="&#xe5;" horiz-adv-x="1046" 
d="M-27 164v2q0 123 55.5 259t147.5 253q90 116 193.5 186t193.5 70q39 0 70.5 -11t49.5 -22.5t26 -11.5q12 0 30 41q13 28 66 28h131q27 0 39 -6.5t12 -29.5q0 -13 -18 -80q-9 -27 -70.5 -215.5t-89.5 -278.5q-31 -99 -31 -133q0 -29 25 -29q32 0 102 113q11 17 21.5 35.5
t15.5 27.5t10.5 17t10 11t10.5 3q22 0 22 -24q0 -33 -36.5 -100.5t-92.5 -131.5q-63 -73 -134 -119.5t-138 -46.5q-50 0 -73 21.5t-23 66.5q0 36 14 101q21 103 57 221l-4 4q-29 -49 -49.5 -80.5t-59 -87t-72.5 -93t-76.5 -76t-87 -58t-87.5 -19.5q-88 0 -124 50.5
t-36 142.5zM686 788v3q0 27 -15 42t-42 15q-95 0 -213 -209q-156 -279 -156 -383q0 -59 45 -59q38 0 102 70.5t130 176.5q63 103 106 200.5t43 143.5zM705 1069h-3q-86 0 -148 62.5t-62 150.5t62.5 150.5t150.5 62.5t150.5 -62.5t62.5 -150.5t-62.5 -150.5t-150.5 -62.5z
M705 1159h2q50 0 85 36t35 87t-35.5 87t-86.5 36t-87 -36t-36 -87t36 -87t87 -36z" />
    <glyph glyph-name="ae" unicode="&#xe6;" horiz-adv-x="1388" 
d="M596 367l-4 4q-25 -45 -56 -92t-78 -104t-94.5 -100.5t-106 -73.5t-112.5 -30q-81 0 -119 58.5t-38 146.5q0 126 60.5 265t150 246t196.5 177t195 70q33 0 59 -7.5t57.5 -24.5t36.5 -19q9 5 18 22.5t20.5 31t29.5 13.5h92q35 0 35 -16q0 -13 -14 -64q36 24 61 39t74 32
t94 17q104 0 166.5 -54.5t62.5 -139.5q0 -59 -19 -107t-51 -82t-79.5 -61.5t-97.5 -45t-113 -32.5q-62 -15 -158 -26q-14 -65 -14 -123q0 -174 125 -174q105 0 219 159q11 15 26.5 38.5t24 33.5t17.5 10q22 0 22 -28q0 -36 -53 -113q-31 -44 -69 -82.5t-88.5 -76.5
t-114.5 -60.5t-132 -22.5q-239 0 -239 293q0 11 8 103zM1188 825v2q0 62 -55 62q-44 0 -99 -66.5t-98 -162.5t-59 -185q119 19 215 127t96 223zM713 786v2q0 28 -14 44t-40 16q-60 0 -154 -111t-163.5 -253t-69.5 -226q0 -65 56 -65q53 0 147 117t166 260.5t72 215.5z" />
    <glyph glyph-name="ccedilla" unicode="&#xe7;" horiz-adv-x="819" 
d="M291 -27l-51 -86q21 7 49 7q66 0 113 -37t47 -109q0 -61 -39.5 -107t-91.5 -65.5t-105 -19.5q-71 0 -127.5 29.5t-56.5 80.5q0 23 11 37t32 14q25 0 42 -17t25.5 -38t27.5 -38t48 -17q45 0 78 36.5t33 88.5q0 50 -28 72t-67 22q-15 0 -40 -5t-33 -5q-21 0 -21 16
q0 8 21 43l59 100q-213 40 -213 340q0 119 44.5 233.5t125.5 207.5q82 93 189 147.5t227 54.5q102 0 162.5 -41.5t60.5 -125.5q0 -61 -33 -101.5t-94 -40.5q-40 0 -69.5 23.5t-32.5 66.5q-2 25 3.5 56.5t4.5 46.5q-2 23 -9.5 33t-29.5 10q-32 0 -78 -60.5t-86 -152.5
q-43 -97 -70.5 -204t-27.5 -194q0 -161 119 -161q96 0 208 163q12 18 25 39.5t20.5 33.5t15.5 23t14.5 16t13.5 5q24 0 24 -31q0 -37 -41 -108q-62 -108 -167.5 -193t-231.5 -88z" />
    <glyph glyph-name="egrave" unicode="&#xe8;" horiz-adv-x="819" 
d="M813 766v-2q0 -78 -34.5 -138.5t-100 -101t-146 -66t-184.5 -40.5q-28 -4 -43 -6q-14 -60 -14 -131q0 -168 108 -168q112 0 236 170q11 14 26 39t23.5 34t17.5 9q23 0 23 -29q0 -32 -47 -100q-31 -46 -70.5 -89t-93 -84.5t-121.5 -66.5t-139 -25q-117 0 -183.5 84
t-66.5 226q0 126 50.5 251t130 218t184.5 150.5t209 57.5q109 0 172 -51t63 -141zM573 889h-2q-65 0 -139 -116t-117 -300q98 16 171 84.5t110 153.5q31 66 31 120q0 25 -15 41.5t-39 16.5zM342 1360v2q0 37 23 56.5t57 19.5q35 0 61.5 -17.5t55.5 -56.5l151 -207
q5 -7 12 -16.5t11 -15t8 -12.5t6 -12t2 -9q0 -19 -20 -19q-23 0 -84 41l-207 148q-23 17 -30.5 22t-21.5 19t-19 27t-5 30z" />
    <glyph glyph-name="eacute" unicode="&#xe9;" horiz-adv-x="819" 
d="M813 766v-2q0 -78 -34.5 -138.5t-100 -101t-146 -66t-184.5 -40.5q-28 -4 -43 -6q-14 -60 -14 -131q0 -168 108 -168q112 0 236 170q11 14 26 39t23.5 34t17.5 9q23 0 23 -29q0 -32 -47 -100q-31 -46 -70.5 -89t-93 -84.5t-121.5 -66.5t-139 -25q-117 0 -183.5 84
t-66.5 226q0 126 50.5 251t130 218t184.5 150.5t209 57.5q109 0 172 -51t63 -141zM573 889h-2q-65 0 -139 -116t-117 -300q98 16 171 84.5t110 153.5q31 66 31 120q0 25 -15 41.5t-39 16.5zM473 1073h-2q-18 0 -18 19t49 65l207 209q65 68 120 68q35 0 58.5 -19t23.5 -57
q0 -57 -82 -101l-266 -145q-72 -39 -90 -39z" />
    <glyph glyph-name="ecircumflex" unicode="&#xea;" horiz-adv-x="819" 
d="M813 766v-2q0 -78 -34.5 -138.5t-100 -101t-146 -66t-184.5 -40.5q-28 -4 -43 -6q-14 -60 -14 -131q0 -168 108 -168q112 0 236 170q11 14 26 39t23.5 34t17.5 9q23 0 23 -29q0 -32 -47 -100q-31 -46 -70.5 -89t-93 -84.5t-121.5 -66.5t-139 -25q-117 0 -183.5 84
t-66.5 226q0 126 50.5 251t130 218t184.5 150.5t209 57.5q109 0 172 -51t63 -141zM573 889h-2q-65 0 -139 -116t-117 -300q98 16 171 84.5t110 153.5q31 66 31 120q0 25 -15 41.5t-39 16.5zM614 1286l-272 -186q-48 -29 -63 -29q-21 0 -21 16q0 11 10 24.5t39 43.5l180 199
q29 31 39.5 42t23 19t23.5 8h105q20 0 28.5 -9t26.5 -50l94 -219q21 -42 21 -55q0 -19 -19 -19q-3 0 -6 0.5t-6 2.5t-5.5 3.5t-6 4.5t-6 5t-6.5 6.5t-6.5 7l-7.5 7.5t-7 8z" />
    <glyph glyph-name="edieresis" unicode="&#xeb;" horiz-adv-x="819" 
d="M813 766v-2q0 -78 -34.5 -138.5t-100 -101t-146 -66t-184.5 -40.5q-28 -4 -43 -6q-14 -60 -14 -131q0 -168 108 -168q112 0 236 170q11 14 26 39t23.5 34t17.5 9q23 0 23 -29q0 -32 -47 -100q-31 -46 -70.5 -89t-93 -84.5t-121.5 -66.5t-139 -25q-117 0 -183.5 84
t-66.5 226q0 126 50.5 251t130 218t184.5 150.5t209 57.5q109 0 172 -51t63 -141zM573 889h-2q-65 0 -139 -116t-117 -300q98 16 171 84.5t110 153.5q31 66 31 120q0 25 -15 41.5t-39 16.5zM406 1120h-3q-40 0 -63 29t-23 72q0 60 39.5 108.5t98.5 48.5q40 0 64 -28.5
t24 -71.5q0 -61 -38.5 -109.5t-98.5 -48.5zM758 1120h-2q-39 0 -61.5 29t-22.5 72q0 60 38 108.5t97 48.5q41 0 64.5 -28.5t23.5 -71.5q0 -61 -38.5 -109.5t-98.5 -48.5z" />
    <glyph glyph-name="igrave" unicode="&#xec;" 
d="M516 854v-2q0 -51 -41 -166q-48 -143 -121 -338q-39 -112 -39 -129q0 -11 6.5 -18.5t18.5 -7.5q36 0 109 122q12 20 21.5 41t13.5 31.5t10 17.5t14 7q9 0 15.5 -7.5t6.5 -17.5q0 -25 -21.5 -77t-57.5 -107q-60 -96 -141.5 -163t-166.5 -67q-54 0 -83 31.5t-29 89.5
q0 64 43 185q52 163 112 321q43 119 43 143q0 29 -22 29q-16 0 -34 -20t-52 -66q-13 -18 -25.5 -37.5t-19 -29.5t-13 -19t-11.5 -12.5t-11 -3.5q-21 0 -21 20q0 26 27.5 78t71.5 104q145 172 284 172q113 0 113 -104zM211 1360v2q0 37 23 56.5t57 19.5q35 0 61.5 -17.5
t55.5 -56.5l151 -207q5 -7 12 -16.5t11 -15t8 -12.5t6 -12t2 -9q0 -19 -20 -19q-23 0 -84 41l-207 148q-23 17 -30.5 22t-21.5 19t-19 27t-5 30z" />
    <glyph glyph-name="iacute" unicode="&#xed;" 
d="M516 854v-2q0 -51 -41 -166q-48 -143 -121 -338q-39 -112 -39 -129q0 -11 6.5 -18.5t18.5 -7.5q36 0 109 122q12 20 21.5 41t13.5 31.5t10 17.5t14 7q9 0 15.5 -7.5t6.5 -17.5q0 -25 -21.5 -77t-57.5 -107q-60 -96 -141.5 -163t-166.5 -67q-54 0 -83 31.5t-29 89.5
q0 64 43 185q52 163 112 321q43 119 43 143q0 29 -22 29q-16 0 -34 -20t-52 -66q-13 -18 -25.5 -37.5t-19 -29.5t-13 -19t-11.5 -12.5t-11 -3.5q-21 0 -21 20q0 26 27.5 78t71.5 104q145 172 284 172q113 0 113 -104zM322 1073h-3q-18 0 -18 19t49 65l207 209q65 68 121 68
q35 0 58.5 -19t23.5 -57q0 -57 -82 -101l-266 -145q-72 -39 -90 -39z" />
    <glyph glyph-name="icircumflex" unicode="&#xee;" 
d="M516 854v-2q0 -51 -41 -166q-48 -143 -121 -338q-39 -112 -39 -129q0 -11 6.5 -18.5t18.5 -7.5q36 0 109 122q12 20 21.5 41t13.5 31.5t10 17.5t14 7q9 0 15.5 -7.5t6.5 -17.5q0 -25 -21.5 -77t-57.5 -107q-60 -96 -141.5 -163t-166.5 -67q-54 0 -83 31.5t-29 89.5
q0 64 43 185q52 163 112 321q43 119 43 143q0 29 -22 29q-16 0 -34 -20t-52 -66q-13 -18 -25.5 -37.5t-19 -29.5t-13 -19t-11.5 -12.5t-11 -3.5q-21 0 -21 20q0 26 27.5 78t71.5 104q145 172 284 172q113 0 113 -104zM459 1286l-273 -186q-48 -29 -63 -29q-21 0 -21 16
q0 11 10 23.5t40 44.5l180 199q29 31 39.5 42t23 19t23.5 8h104q20 0 29 -9t27 -50l94 -219q20 -40 20 -55q0 -19 -18 -19q-17 0 -50 36q-1 1 -3 4l-5 5z" />
    <glyph glyph-name="idieresis" unicode="&#xef;" 
d="M516 854v-2q0 -51 -41 -166q-48 -143 -121 -338q-39 -112 -39 -129q0 -11 6.5 -18.5t18.5 -7.5q36 0 109 122q12 20 21.5 41t13.5 31.5t10 17.5t14 7q9 0 15.5 -7.5t6.5 -17.5q0 -25 -21.5 -77t-57.5 -107q-60 -96 -141.5 -163t-166.5 -67q-54 0 -83 31.5t-29 89.5
q0 64 43 185q52 163 112 321q43 119 43 143q0 29 -22 29q-16 0 -34 -20t-52 -66q-13 -18 -25.5 -37.5t-19 -29.5t-13 -19t-11.5 -12.5t-11 -3.5q-21 0 -21 20q0 26 27.5 78t71.5 104q145 172 284 172q113 0 113 -104zM252 1120h-2q-40 0 -63 29t-23 72q0 60 39 108.5
t98 48.5q40 0 64 -28.5t24 -71.5q0 -61 -38.5 -109.5t-98.5 -48.5zM604 1120h-2q-39 0 -61.5 29t-22.5 72q0 60 38 108.5t97 48.5q41 0 64.5 -28.5t23.5 -71.5q0 -61 -38.5 -109.5t-98.5 -48.5z" />
    <glyph glyph-name="eth" unicode="&#xf0;" horiz-adv-x="933" 
d="M713 1270l215 102q33 14 37 14q8 0 18 -21t10 -30q0 -2 -0.5 -4t-2.5 -4l-3.5 -3.5t-5.5 -3.5l-6 -3t-7 -4t-7 -4l-207 -99q125 -198 125 -487q0 -179 -44.5 -325t-120 -238.5t-173 -142.5t-207.5 -50q-156 0 -243 110.5t-87 287.5q0 151 69.5 287.5t190.5 221t262 84.5
q82 0 136 -38q0 143 -33 233l-199 -94q-28 -12 -37 -12q-8 0 -18 21t-10 30q0 2 0.5 4t2.5 4l3.5 3.5t5.5 3.5l6 3t7 4t7 4l207 97q-24 56 -76 116q-8 9 -17.5 19t-15 15.5t-10.5 12t-7.5 11t-2.5 8.5q0 12 8.5 19.5t22.5 7.5q39 0 95.5 -42.5t111.5 -117.5zM629 756v2
q0 127 -78 127q-49 0 -94.5 -62.5t-98.5 -199.5q-37 -83 -78.5 -233t-41.5 -222q0 -127 79 -127q47 0 92.5 63t98.5 199q37 83 79 233t42 220z" />
    <glyph glyph-name="ntilde" unicode="&#xf1;" horiz-adv-x="1161" 
d="M1053 815v-2q0 -56 -27 -133q-25 -76 -82 -221.5t-65 -165.5q-33 -78 -33 -100q0 -25 22 -25q43 0 117 102q15 22 28 44.5t20 35.5t13.5 23.5t12 15t12.5 4.5q25 0 25 -28q0 -23 -26 -75t-69 -110q-67 -88 -150 -147.5t-173 -59.5q-111 0 -111 115q0 72 56 225
q28 79 75.5 198t49.5 124q26 68 26 100q0 49 -41 49q-87 0 -227 -233q-49 -78 -116.5 -227.5t-117.5 -280.5q-11 -31 -25 -37t-61 -6h-129q-45 0 -45 18q0 13 23 80q66 189 176 537q27 93 27 106q0 33 -25 33q-41 0 -113 -110q-6 -10 -17 -26.5t-15.5 -23t-11.5 -14.5
t-12 -11t-11 -3q-23 0 -23 22q0 21 25.5 67t66.5 97q63 78 140 132t151 54q109 0 109 -110q0 -46 -21 -121q-9 -34 -29.5 -98t-25.5 -88l4 -4q34 67 82.5 136t112 135t140.5 108t150 42q67 0 102.5 -37t35.5 -106zM842 1122h-2q-44 0 -87 20t-71 44t-62 44t-61 21
q-31 0 -56 -17.5t-38 -38.5t-28.5 -38.5t-28.5 -17.5q-23 0 -23 22q0 66 67.5 136.5t163.5 70.5q45 0 88.5 -20t72 -44t62 -44t60.5 -21q31 0 56 17.5t38.5 39t29 39t28.5 17.5q22 0 22 -25q0 -64 -67.5 -134.5t-163.5 -70.5z" />
    <glyph glyph-name="ograve" unicode="&#xf2;" horiz-adv-x="933" 
d="M862 582v-2q0 -222 -135 -404q-73 -97 -174.5 -153t-218.5 -56q-156 0 -243 110.5t-87 287.5q0 151 69.5 287.5t190.5 221t262 84.5q156 0 246 -101.5t90 -274.5zM629 756v2q0 127 -78 127q-49 0 -94.5 -62.5t-98.5 -199.5q-37 -83 -78.5 -233t-41.5 -222q0 -127 79 -127
q47 0 92.5 63t98.5 199q37 83 79 233t42 220zM350 1360v2q0 37 23 56.5t57 19.5q35 0 61.5 -17.5t55.5 -56.5l151 -207q5 -7 12 -16.5t11 -15t8 -12.5t6 -12t2 -9q0 -19 -20 -19q-23 0 -84 41l-207 148q-23 17 -30.5 22t-21.5 19t-19 27t-5 30z" />
    <glyph glyph-name="oacute" unicode="&#xf3;" horiz-adv-x="933" 
d="M862 582v-2q0 -222 -135 -404q-73 -97 -174.5 -153t-218.5 -56q-156 0 -243 110.5t-87 287.5q0 151 69.5 287.5t190.5 221t262 84.5q156 0 246 -101.5t90 -274.5zM629 756v2q0 127 -78 127q-49 0 -94.5 -62.5t-98.5 -199.5q-37 -83 -78.5 -233t-41.5 -222q0 -127 79 -127
q47 0 92.5 63t98.5 199q37 83 79 233t42 220zM473 1073h-2q-18 0 -18 19t49 65l207 209q65 68 120 68q35 0 58.5 -19t23.5 -57q0 -57 -82 -101l-266 -145q-72 -39 -90 -39z" />
    <glyph glyph-name="ocircumflex" unicode="&#xf4;" horiz-adv-x="933" 
d="M862 582v-2q0 -222 -135 -404q-73 -97 -174.5 -153t-218.5 -56q-156 0 -243 110.5t-87 287.5q0 151 69.5 287.5t190.5 221t262 84.5q156 0 246 -101.5t90 -274.5zM629 756v2q0 127 -78 127q-49 0 -94.5 -62.5t-98.5 -199.5q-37 -83 -78.5 -233t-41.5 -222q0 -127 79 -127
q47 0 92.5 63t98.5 199q37 83 79 233t42 220zM606 1286l-272 -186q-48 -29 -64 -29q-20 0 -20 16q0 11 10 24.5t39 43.5l180 199q29 31 39.5 42t23 19t23.5 8h105q20 0 28.5 -9t26.5 -50l94 -219q21 -42 21 -55q0 -19 -19 -19q-3 0 -6 0.5t-6 2.5t-5.5 3.5t-6 4.5t-6 5
t-6.5 6.5t-6.5 7l-7.5 7.5t-7 8z" />
    <glyph glyph-name="otilde" unicode="&#xf5;" horiz-adv-x="933" 
d="M862 582v-2q0 -222 -135 -404q-73 -97 -174.5 -153t-218.5 -56q-156 0 -243 110.5t-87 287.5q0 151 69.5 287.5t190.5 221t262 84.5q156 0 246 -101.5t90 -274.5zM629 756v2q0 127 -78 127q-49 0 -94.5 -62.5t-98.5 -199.5q-37 -83 -78.5 -233t-41.5 -222q0 -127 79 -127
q47 0 92.5 63t98.5 199q37 83 79 233t42 220zM709 1122h-2q-44 0 -87 20t-71 44t-62 44t-61 21q-31 0 -56 -17.5t-38.5 -38.5t-29 -38.5t-28.5 -17.5q-22 0 -22 22q0 66 67.5 136.5t163.5 70.5q45 0 88.5 -20t72 -44t62 -44t60.5 -21q31 0 56 17.5t38.5 39t29 39t28.5 17.5
q22 0 22 -25q0 -64 -67.5 -134.5t-163.5 -70.5z" />
    <glyph glyph-name="odieresis" unicode="&#xf6;" horiz-adv-x="933" 
d="M862 582v-2q0 -222 -135 -404q-73 -97 -174.5 -153t-218.5 -56q-156 0 -243 110.5t-87 287.5q0 151 69.5 287.5t190.5 221t262 84.5q156 0 246 -101.5t90 -274.5zM629 756v2q0 127 -78 127q-49 0 -94.5 -62.5t-98.5 -199.5q-37 -83 -78.5 -233t-41.5 -222q0 -127 79 -127
q47 0 92.5 63t98.5 199q37 83 79 233t42 220zM399 1120h-2q-40 0 -63 29t-23 72q0 60 39.5 108.5t98.5 48.5q40 0 64 -28.5t24 -71.5q0 -61 -39 -109.5t-99 -48.5zM752 1120h-2q-39 0 -61.5 29t-22.5 72q0 60 38 108.5t97 48.5q41 0 64.5 -28.5t23.5 -71.5
q0 -61 -38.5 -109.5t-98.5 -48.5z" />
    <glyph glyph-name="divide" unicode="&#xf7;" horiz-adv-x="1228" 
d="M465 942v2q0 61 44.5 104.5t106.5 43.5q60 0 104 -44.5t44 -105.5q0 -56 -44 -102.5t-102 -46.5q-63 0 -108 44t-45 105zM1130 434h-1032v168h1032v-168zM465 94v2q0 61 44.5 104.5t106.5 43.5q60 0 104 -44.5t44 -105.5q0 -56 -44 -102.5t-102 -46.5q-63 0 -108 44
t-45 105z" />
    <glyph glyph-name="oslash" unicode="&#xf8;" horiz-adv-x="933" 
d="M16 -158h-30q-23 0 -23 11q0 4 4.5 11t13.5 20t15 22l106 157q-98 104 -98 289q2 157 71.5 296.5t190 224.5t262.5 85q103 0 185 -51l100 152q19 24 37 24h31q22 0 22 -10q0 -4 -4.5 -11t-13.5 -20t-15 -22l-106 -160q98 -104 98 -289q-1 -148 -67 -285.5t-188 -228
t-269 -90.5q-108 0 -182 51l-103 -151q-7 -9 -9.5 -12t-7 -7t-9 -5t-11.5 -1zM266 252l344 565q-13 68 -63 68q-47 0 -94 -59t-81.5 -146.5t-58.5 -173t-34 -152.5q-13 -76 -13 -102zM602 674l-346 -565q13 -68 63 -68q47 0 94 59t82 146.5t59.5 172.5t35.5 152q0 3 5.5 42
t6.5 61z" />
    <glyph glyph-name="ugrave" unicode="&#xf9;" horiz-adv-x="1161" 
d="M43 96v2q0 53 37 162q18 55 45 125t58.5 148t43.5 110q33 84 33 105q0 20 -20 20q-39 0 -103 -84q-18 -23 -33.5 -47t-22 -34.5t-14 -17.5t-16.5 -7t-15.5 8t-6.5 20q0 19 21.5 59t62 89t91 94t118 75.5t133.5 30.5q102 0 102 -96q0 -39 -37 -145q-22 -63 -72.5 -193.5
t-64.5 -169.5q-43 -114 -43 -137q0 -35 33 -35q37 0 97 59t114 148q146 255 239 512q6 18 15.5 24.5t31.5 6.5q57 2 185 2q37 0 37 -27q0 -8 -15 -51q-122 -325 -182 -514q-31 -91 -31 -119q0 -29 27 -29q33 0 106 109q13 19 25 38.5t18 29t12 18t10.5 11.5t10.5 3
q27 0 27 -26q0 -18 -21.5 -63t-63 -102.5t-92.5 -110t-120 -88.5t-137 -36q-41 0 -66 26.5t-25 72.5q0 66 50 239q2 4 2.5 6.5t1.5 6t2 6.5l-4 4q-50 -81 -125 -161t-169 -140t-169 -60q-56 0 -88.5 32.5t-32.5 90.5zM477 1360v2q0 37 23 56.5t57 19.5q35 0 61.5 -17.5
t55.5 -56.5l151 -207q5 -7 12 -16.5t11 -15t8 -12.5t6 -12t2 -9q0 -19 -20 -19q-23 0 -84 41l-207 148q-23 17 -30.5 22t-21.5 19t-19 27t-5 30z" />
    <glyph glyph-name="uacute" unicode="&#xfa;" horiz-adv-x="1161" 
d="M43 96v2q0 53 37 162q18 55 45 125t58.5 148t43.5 110q33 84 33 105q0 20 -20 20q-39 0 -103 -84q-18 -23 -33.5 -47t-22 -34.5t-14 -17.5t-16.5 -7t-15.5 8t-6.5 20q0 19 21.5 59t62 89t91 94t118 75.5t133.5 30.5q102 0 102 -96q0 -39 -37 -145q-22 -63 -72.5 -193.5
t-64.5 -169.5q-43 -114 -43 -137q0 -35 33 -35q37 0 97 59t114 148q146 255 239 512q6 18 15.5 24.5t31.5 6.5q57 2 185 2q37 0 37 -27q0 -8 -15 -51q-122 -325 -182 -514q-31 -91 -31 -119q0 -29 27 -29q33 0 106 109q13 19 25 38.5t18 29t12 18t10.5 11.5t10.5 3
q27 0 27 -26q0 -18 -21.5 -63t-63 -102.5t-92.5 -110t-120 -88.5t-137 -36q-41 0 -66 26.5t-25 72.5q0 66 50 239q2 4 2.5 6.5t1.5 6t2 6.5l-4 4q-50 -81 -125 -161t-169 -140t-169 -60q-56 0 -88.5 32.5t-32.5 90.5zM627 1073h-2q-19 0 -19 19t49 65l207 209q65 68 121 68
q35 0 58.5 -19t23.5 -57q0 -57 -82 -101l-266 -145q-72 -39 -90 -39z" />
    <glyph glyph-name="ucircumflex" unicode="&#xfb;" horiz-adv-x="1161" 
d="M43 96v2q0 53 37 162q18 55 45 125t58.5 148t43.5 110q33 84 33 105q0 20 -20 20q-39 0 -103 -84q-18 -23 -33.5 -47t-22 -34.5t-14 -17.5t-16.5 -7t-15.5 8t-6.5 20q0 19 21.5 59t62 89t91 94t118 75.5t133.5 30.5q102 0 102 -96q0 -39 -37 -145q-22 -63 -72.5 -193.5
t-64.5 -169.5q-43 -114 -43 -137q0 -35 33 -35q37 0 97 59t114 148q146 255 239 512q6 18 15.5 24.5t31.5 6.5q57 2 185 2q37 0 37 -27q0 -8 -15 -51q-122 -325 -182 -514q-31 -91 -31 -119q0 -29 27 -29q33 0 106 109q13 19 25 38.5t18 29t12 18t10.5 11.5t10.5 3
q27 0 27 -26q0 -18 -21.5 -63t-63 -102.5t-92.5 -110t-120 -88.5t-137 -36q-41 0 -66 26.5t-25 72.5q0 66 50 239q2 4 2.5 6.5t1.5 6t2 6.5l-4 4q-50 -81 -125 -161t-169 -140t-169 -60q-56 0 -88.5 32.5t-32.5 90.5zM768 1286l-272 -186q-48 -29 -64 -29q-20 0 -20 16
q0 11 10 24.5t39 43.5l180 199q29 31 39.5 42t23 19t23.5 8h104q20 0 29 -9t27 -50l94 -219q20 -40 20 -55q0 -19 -18 -19q-3 0 -6 0.5t-6 2.5t-5.5 3.5t-6 4.5t-6 5t-6.5 6.5t-6.5 7l-7.5 7.5t-7 8z" />
    <glyph glyph-name="udieresis" unicode="&#xfc;" horiz-adv-x="1161" 
d="M43 96v2q0 53 37 162q18 55 45 125t58.5 148t43.5 110q33 84 33 105q0 20 -20 20q-39 0 -103 -84q-18 -23 -33.5 -47t-22 -34.5t-14 -17.5t-16.5 -7t-15.5 8t-6.5 20q0 19 21.5 59t62 89t91 94t118 75.5t133.5 30.5q102 0 102 -96q0 -39 -37 -145q-22 -63 -72.5 -193.5
t-64.5 -169.5q-43 -114 -43 -137q0 -35 33 -35q37 0 97 59t114 148q146 255 239 512q6 18 15.5 24.5t31.5 6.5q57 2 185 2q37 0 37 -27q0 -8 -15 -51q-122 -325 -182 -514q-31 -91 -31 -119q0 -29 27 -29q33 0 106 109q13 19 25 38.5t18 29t12 18t10.5 11.5t10.5 3
q27 0 27 -26q0 -18 -21.5 -63t-63 -102.5t-92.5 -110t-120 -88.5t-137 -36q-41 0 -66 26.5t-25 72.5q0 66 50 239q2 4 2.5 6.5t1.5 6t2 6.5l-4 4q-50 -81 -125 -161t-169 -140t-169 -60q-56 0 -88.5 32.5t-32.5 90.5zM555 1120h-2q-40 0 -63 29t-23 72q0 60 39 108.5
t98 48.5q40 0 64 -28.5t24 -71.5q0 -61 -38.5 -109.5t-98.5 -48.5zM907 1120h-2q-39 0 -61.5 29t-22.5 72q0 60 38 108.5t97 48.5q41 0 64.5 -28.5t23.5 -71.5q0 -61 -38.5 -109.5t-98.5 -48.5z" />
    <glyph glyph-name="yacute" unicode="&#xfd;" horiz-adv-x="864" 
d="M850 809v-2q0 -272 -369 -762q-95 -121 -184 -223q-56 -66 -90.5 -105t-76 -79t-73.5 -60t-69 -32.5t-76 -12.5q-57 0 -95 39t-38 102q0 56 34.5 116t88.5 60q49 0 70 -30.5t32 -89.5q10 -56 47 -56q68 0 115 144q46 103 57 245q7 137 4 287q-4 218 -20.5 310t-48.5 92
q-19 0 -35 -18t-37 -62q-9 -17 -22 -51.5t-23 -52t-23 -17.5q-22 0 -22 39q0 56 55 158q46 86 114.5 146t135.5 60q41 0 68.5 -20t49.5 -83t32 -173q13 -118 16 -299q0 -146 -2 -240l8 -2q90 132 145 228q89 163 89 266q0 28 -27 98q-27 74 -27 109q0 48 26.5 82t70.5 34
q51 0 75.5 -40.5t24.5 -104.5zM455 1073h-2q-19 0 -19 19t49 65l207 209q65 68 121 68q35 0 58.5 -19t23.5 -57q0 -57 -82 -101l-264 -145q-76 -39 -92 -39z" />
    <glyph glyph-name="thorn" unicode="&#xfe;" horiz-adv-x="1001" 
d="M948 674v-2q0 -114 -45.5 -236t-122.5 -221q-82 -103 -184 -164t-211 -61q-96 0 -147 14q-19 -39 -52 -160q-36 -113 -36 -161q0 -25 18 -38t53 -22q67 -12 80 -24q8 -7 8 -17q0 -24 -13 -30.5t-54 -6.5q-37 0 -116.5 4.5t-119.5 4.5q-62 0 -139.5 -4.5t-93.5 -4.5
q-39 0 -54.5 7t-15.5 26q0 24 15 32t53 11q47 3 68.5 20.5t39.5 77.5l322 1053q6 20 3 28t-18 7q-25 -6 -52 -17t-44.5 -18.5t-23.5 -7.5q-19 0 -19 16q0 31 37 54q12 9 31.5 18.5t33.5 14.5t38 13t32 11q16 5 23 29l65 221q17 52 17 76q0 45 -60 51q-28 3 -41.5 10.5
t-13.5 24.5q1 20 17 26.5t63 11.5q118 12 268 64q16 6 32.5 12.5t24.5 9.5t13 3q30 0 30 -25q0 -5 -24 -82q-15 -49 -61.5 -189t-57.5 -184q41 6 76 6q25 2 76 2q282 0 282 -284zM676 748v2q0 67 -27.5 97t-83.5 30q-43 0 -69 -15q-26 -62 -35 -96q-93 -314 -154 -504
q-35 -121 -35 -149q0 -30 17.5 -45t46.5 -15q51 0 106 60t101 153q56 117 94.5 254.5t38.5 227.5z" />
    <glyph glyph-name="ydieresis" unicode="&#xff;" horiz-adv-x="864" 
d="M850 809v-2q0 -272 -369 -762q-95 -121 -184 -223q-56 -66 -90.5 -105t-76 -79t-73.5 -60t-69 -32.5t-76 -12.5q-57 0 -95 39t-38 102q0 56 34.5 116t88.5 60q49 0 70 -30.5t32 -89.5q10 -56 47 -56q68 0 115 144q46 103 57 245q7 137 4 287q-4 218 -20.5 310t-48.5 92
q-19 0 -35 -18t-37 -62q-9 -17 -22 -51.5t-23 -52t-23 -17.5q-22 0 -22 39q0 56 55 158q46 86 114.5 146t135.5 60q41 0 68.5 -20t49.5 -83t32 -173q13 -118 16 -299q0 -146 -2 -240l8 -2q90 132 145 228q89 163 89 266q0 28 -27 98q-27 74 -27 109q0 48 26.5 82t70.5 34
q51 0 75.5 -40.5t24.5 -104.5zM373 1120h-2q-39 0 -61.5 29t-22.5 72q0 60 38 108.5t97 48.5q41 0 64.5 -28.5t23.5 -71.5q0 -61 -38.5 -109.5t-98.5 -48.5zM727 1120h-2q-40 0 -63 29t-23 72q0 60 38 108.5t97 48.5q41 0 65.5 -28.5t24.5 -71.5q0 -60 -39 -109t-98 -49z
" />
    <glyph glyph-name="dotlessi" unicode="&#x131;" 
d="M516 854v-2q0 -51 -41 -166q-48 -143 -121 -338q-39 -112 -39 -129q0 -11 6.5 -18.5t18.5 -7.5q36 0 109 122q12 20 21.5 41t13.5 31.5t10 17.5t14 7q9 0 15.5 -7.5t6.5 -17.5q0 -25 -21.5 -77t-57.5 -107q-60 -96 -141.5 -163t-166.5 -67q-54 0 -83 31.5t-29 89.5
q0 64 43 185q52 163 112 321q43 119 43 143q0 29 -22 29q-16 0 -34 -20t-52 -66q-13 -18 -25.5 -37.5t-19 -29.5t-13 -19t-11.5 -12.5t-11 -3.5q-21 0 -21 20q0 26 27.5 78t71.5 104q145 172 284 172q113 0 113 -104z" />
    <glyph glyph-name="Lslash" unicode="&#x141;" horiz-adv-x="933" 
d="M494 678l-125 -418q-45 -149 -45 -166q0 -21 30 -24h68q124 0 189.5 39.5t127.5 152.5q52 95 65.5 112t39.5 17q35 0 35 -26q0 -19 -10.5 -59t-35.5 -118t-34 -108q-17 -61 -28 -74.5t-44 -13.5q-19 0 -69 2t-149.5 4t-238.5 2q-82 0 -195.5 -4t-152.5 -4q-23 0 -32 5
t-9 21q0 20 15.5 29t50.5 14q66 14 86 70q13 37 121 385l-131 -74q-30 -18 -41 -18t-11 14q0 11 15 51q3 12 12 21t33 22l153 91l125 411q31 108 31 123q0 28 -14.5 41.5t-40.5 18.5q-5 1 -15.5 3t-15 3t-11.5 3t-10.5 4t-7 5t-5 7t-1.5 9q0 24 15.5 31.5t58.5 7.5
q34 0 114.5 -4t127.5 -4q43 0 118 4t95 4q27 0 37 -7t10 -26q0 -7 -1.5 -12t-5.5 -9t-7 -6t-10.5 -4t-12.5 -3t-16 -3t-17 -3q-43 -8 -64.5 -26.5t-35.5 -66.5l-99 -340l279 170q34 19 43 19q10 0 10 -15q0 -14 -14 -51q-3 -12 -11.5 -20t-33.5 -23z" />
    <glyph glyph-name="lslash" unicode="&#x142;" 
d="M16 104v2q0 79 41 218q31 117 80 284l-139 -106q-34 -29 -45 -29q-10 0 -10 14q0 22 12 56q4 16 8.5 21.5t20.5 17.5l188 141q48 156 94 315q41 128 41 162q0 32 -14 46.5t-43 19.5t-42 12.5t-13 24.5q1 20 17 26.5t62 11.5q135 13 281 68q50 21 63 21q25 0 25 -21
q0 -5 -4 -17.5t-12.5 -36t-14.5 -44.5q-79 -271 -116 -389l137 102q40 29 47 29q10 0 10 -15q0 -9 -12 -55q-4 -16 -9 -21.5t-22 -17.5l-186 -141q-66 -231 -125 -418q-39 -142 -39 -170q0 -15 7.5 -24t19.5 -9q44 0 110 119q11 19 25 50t23 43t20 12q20 0 20 -27
q0 -22 -22 -72.5t-58 -107.5q-65 -96 -145 -161t-164 -65q-117 0 -117 131z" />
    <glyph glyph-name="OE" unicode="&#x152;" horiz-adv-x="1503" 
d="M1016 625l-115 -392q-29 -92 -29 -124q0 -35 66 -35q138 0 211 41t111 121q12 26 26.5 59.5t21 48t16 30t17.5 20.5t19 5q19 0 27 -7.5t8 -26.5q0 -32 -37 -162q-8 -30 -18.5 -66.5t-17 -60t-9.5 -35.5q-7 -31 -19.5 -40t-40.5 -9q-12 0 -67 3t-82 3q-111 2 -404 2
q-90 0 -172 -10t-127 -10q-168 0 -260 131t-92 335q0 145 49.5 295t134 273t209.5 201.5t263 78.5q93 0 161 -6q65 -6 219 -6q111 0 263 4t161 4q39 0 51.5 -4t12.5 -22q0 -10 -15 -69t-33.5 -129t-21.5 -81q-11 -45 -22 -61.5t-25 -16.5q-24 0 -33.5 18.5t-9.5 63.5
q0 13 1.5 52t0.5 55q-5 63 -34 86.5t-115 23.5q-79 0 -90 -14q-8 -10 -27 -80l-115 -403h49q69 0 103 25.5t57 76.5q3 6 8.5 18.5t8 18.5t7.5 16t8.5 15t8.5 12t10 10t11 5.5t12 2.5q33 0 33 -41q0 -5 -21 -77q-37 -115 -86 -338q-7 -28 -17 -37.5t-28 -9.5q-21 0 -29 12.5
t-8 38.5q0 14 3 41.5t3 40.5q0 45 -22.5 65.5t-79.5 20.5h-49zM305 231v-2q0 -80 33 -128t94 -48q47 0 78 26.5t64 99t81 224.5q185 617 185 717q0 101 -92 101q-48 0 -94.5 -35.5t-86.5 -98.5t-72.5 -133t-62.5 -155q-54 -157 -90.5 -320t-36.5 -248z" />
    <glyph glyph-name="oe" unicode="&#x153;" horiz-adv-x="1433" 
d="M4 371v2q0 110 42 216.5t113.5 187.5t173.5 131t214 50q102 0 177.5 -47.5t111.5 -128.5q70 76 159.5 126t184.5 50q106 0 173.5 -52t67.5 -146q0 -110 -65.5 -180.5t-188.5 -114.5q-108 -38 -274 -59q-16 -50 -16 -113q0 -180 139 -180q102 0 207 120q18 21 32.5 43
t21 33t13.5 18t15 7q26 0 26 -29q0 -36 -57 -108q-174 -226 -393 -226q-84 0 -136.5 40.5t-74.5 107.5q-65 -68 -148 -108t-166 -40q-91 0 -160 31.5t-110 87.5t-61.5 126.5t-20.5 154.5zM1235 819v2q0 30 -18 49t-46 19q-55 0 -113 -71.5t-97.5 -167.5t-55.5 -185
q144 26 238 139q92 103 92 215zM676 758v2q0 61 -28.5 95t-69.5 34q-56 0 -118 -89t-107 -208.5t-75 -238.5t-30 -183q0 -131 98 -131q63 0 143 135.5t133.5 306.5t53.5 277z" />
    <glyph glyph-name="Scaron" unicode="&#x160;" horiz-adv-x="886" 
d="M178 891v2q0 184 132.5 303t342.5 119q54 0 119 -15t109 -36q45 -22 45 -43q0 -23 -15 -76q-4 -21 -18.5 -70.5t-20.5 -73.5q-12 -53 -23 -68t-28 -15q-29 0 -35 40q-2 19 -2.5 63.5t-1.5 59.5q-1 29 -3 50t-9 46t-19 40.5t-34 26.5t-53 11q-82 0 -132.5 -67.5
t-50.5 -161.5q0 -38 10 -72t35 -71.5t41 -57.5t54 -65q37 -44 58.5 -73t47.5 -73.5t38.5 -92t12.5 -101.5q0 -123 -69.5 -228t-185 -165t-247.5 -60q-59 0 -135 18.5t-125 47.5q-47 26 -47 59q0 9 1.5 19.5t7 33t11.5 47t18 75.5t24 104q7 36 16.5 47.5t30.5 11.5
q23 0 32 -16.5t9 -59.5q0 -133 14 -196q24 -117 133 -117q93 0 151 82t58 192q0 47 -22 96t-46.5 81t-68.5 83q-38 44 -60 72t-48.5 70t-39 85t-12.5 89zM633 1503l272 187q46 28 64 28q20 0 20 -16q0 -11 -10 -24.5t-39 -43.5l-180 -198q-39 -42 -54.5 -55t-31.5 -13h-105
q-20 0 -28.5 8t-26.5 49l-94 220q-21 42 -21 55q0 18 19 18q3 0 6 -0.5t6 -2.5t5.5 -3.5t6 -4.5t6 -5t6.5 -6.5t6.5 -7l7.5 -7.5t7 -8z" />
    <glyph glyph-name="scaron" unicode="&#x161;" horiz-adv-x="706" 
d="M596 319v-2q0 -151 -111 -245q-110 -101 -278 -101q-55 0 -121 16t-104 46q-35 31 -35 61q0 60 20 150q13 50 28.5 74t41.5 24q34 0 45 -53q5 -14 17.5 -52.5t19.5 -58t21.5 -51t28.5 -47.5t35.5 -28.5t45.5 -12.5q40 0 66 38t26 83q0 42 -19.5 85.5t-39 69t-58.5 70.5
q-37 43 -58 73.5t-39.5 78t-18.5 96.5q0 138 104.5 231.5t247.5 93.5q36 0 74 -5t76 -15t62.5 -30t24.5 -46q0 -46 -22 -117q-14 -50 -29.5 -72t-38.5 -22q-16 0 -27.5 8t-20.5 28t-12.5 32.5t-10.5 42.5q-1 5 -2 8q-13 55 -34 87t-61 32q-43 0 -69.5 -34t-26.5 -77
q0 -12 2 -24t4 -22t8.5 -23t9.5 -20.5t13.5 -22t13.5 -19.5t16 -21.5t15.5 -19.5l17.5 -21t17 -20q45 -50 68 -79t45 -76t22 -91zM487 1208l273 187q47 30 65 30q19 0 19 -18q0 -17 -49 -66l-181 -200q-39 -42 -54.5 -55t-31.5 -13h-104q-20 0 -28.5 9t-26.5 51l-95 217
q-20 40 -20 57q0 18 20 18q15 0 56 -45z" />
    <glyph glyph-name="Ydieresis" unicode="&#x178;" horiz-adv-x="933" 
d="M500 1157v-2q0 -23 12 -108q6 -36 16.5 -91t26.5 -139.5t29 -154.5q25 34 76.5 106t76.5 107t57.5 82t53.5 79q67 104 67 140t-47 47q-4 1 -10.5 2.5t-9.5 2t-8 1.5t-7.5 2t-6 2.5t-5 3l-3.5 3.5t-3 4.5t-1.5 5.5t-0.5 7q0 33 41 33q17 0 64 -4t92 -4q22 0 59 4t57 4
q33 0 33 -22q0 -17 -10.5 -25.5t-34.5 -17.5q-32 -14 -63 -42t-78 -93q-318 -453 -363 -523q-55 -178 -94 -317q-27 -94 -27 -131q0 -27 13 -40.5t39 -21.5q5 -1 12.5 -3t11.5 -3t9.5 -2.5t8.5 -3.5t6 -5t4 -6.5t1 -8.5q0 -19 -11 -26t-42 -7q-34 0 -111 4t-117 4
q-46 0 -126 -4t-107 -4q-23 0 -33 5t-10 21q0 10 4 17t13 11.5t16 6.5t22.5 5t22.5 5q36 9 57 27t33 64q5 15 37.5 124.5t52.5 180t27 104.5q-4 36 -21.5 122t-44.5 211.5t-39 182.5q-13 74 -29 100.5t-49 39.5q-6 3 -17.5 7.5t-16 7t-10.5 6.5t-8.5 9.5t-2.5 12.5
q0 28 61 28q16 0 74.5 -4t112.5 -4q76 0 160 4t96 4q45 0 45 -30q0 -7 -3 -12t-11 -8.5t-14.5 -5t-20 -4.5t-21.5 -5q-33 -10 -48 -24.5t-15 -43.5zM471 1413h-2q-40 0 -63 30t-23 73q0 59 39 107t98 48q40 0 64 -28.5t24 -69.5q0 -62 -38.5 -111t-98.5 -49zM823 1413h-2
q-38 0 -61 30t-23 73q0 59 38 107t97 48q41 0 65 -28t24 -70q0 -62 -39 -111t-99 -49z" />
    <glyph glyph-name="Zcaron" unicode="&#x17d;" horiz-adv-x="933" 
d="M-72 16v2q0 9 80 136q6 10 233 365.5t353 561.5q8 13 18.5 29.5t16 26t12.5 20.5t10.5 17t6.5 12.5t4.5 10.5t1.5 7q0 6 -12.5 7t-67.5 1q-130 0 -194.5 -42t-119.5 -166q-6 -14 -14 -31t-12 -26t-9.5 -20.5t-8.5 -17t-7 -12t-7 -9t-7.5 -5.5t-8.5 -3.5t-10 -0.5
q-30 0 -30 34q0 42 75 324q8 33 22 43t42 10q39 0 167 -4t202 -4q66 0 176 4t159 4q25 0 25 -16q0 -19 -57 -107q-132 -214 -594 -940q-82 -122 -82 -133q0 -12 18.5 -15t89.5 -3q76 0 130.5 14t93.5 45t64.5 70.5t49.5 99.5q8 18 16.5 40.5t12 31.5t9.5 19t13 13t17 3
q33 0 33 -37q0 -22 -32 -157t-48 -193q-4 -20 -12 -26.5t-27 -6.5q-52 0 -192 4t-226 4q-81 0 -205.5 -4t-138.5 -4q-29 0 -29 24zM635 1503l272 187q50 28 66 28q18 0 18 -16q0 -11 -10 -24.5t-39 -43.5l-180 -198q-39 -42 -54.5 -55t-31.5 -13h-105q-20 0 -28.5 8
t-26.5 49l-94 220q-21 42 -21 55q0 18 21 18q3 0 6 -1t6 -2.5t6.5 -4.5t6 -5t7 -7t7 -7.5t8 -8.5t8.5 -9z" />
    <glyph glyph-name="zcaron" unicode="&#x17e;" horiz-adv-x="864" 
d="M-78 27v2q0 42 94 118q77 59 138 95q29 22 147 157q217 232 356 351l-2 10q-19 -2 -56 -24.5t-80.5 -43t-80.5 -20.5q-49 0 -113.5 23.5t-91.5 23.5q-74 0 -77 -101q-1 -24 -2.5 -35t-7.5 -19.5t-17 -8.5q-33 0 -33 74q0 130 69.5 229.5t178.5 99.5q27 0 56.5 -9.5
t49 -19t52.5 -28.5q34 -20 51 -29.5t47 -19.5t57 -10q40 0 65 14t60 49q6 5 19 16t20 16.5t17 12.5t18 10t16 3q12 0 22.5 -10t10.5 -23q0 -14 -5 -26t-18.5 -26.5t-25 -25t-37.5 -33t-43 -37.5q-2 -2 -51 -47.5t-82 -77.5q-31 -30 -205 -208q-39 -40 -120 -120.5
t-111 -111.5l4 -12q95 61 158 61q51 0 116 -26q7 -3 24.5 -9t26.5 -9t22.5 -6t25.5 -3q78 0 88 72q6 29 6 71q0 35 22 35q37 0 37 -117q0 -126 -82 -211q-87 -90 -204 -90q-101 0 -183 82q-6 6 -27 28t-28.5 29t-23.5 15t-31 8q-16 0 -33.5 -11.5t-28.5 -24t-30 -36.5
q-22 -25 -31 -34.5t-29.5 -22t-40.5 -12.5q-43 0 -43 33zM559 1208l275 187q43 30 63 30q21 0 21 -18q0 -13 -50 -66l-182 -200q-51 -55 -64 -62q-10 -6 -22 -6h-104q-20 0 -29 9t-27 51l-94 217q-20 40 -20 57q0 18 20 18q3 0 6 -1t6 -2.5t6.5 -4.5t6 -5t7 -7t7 -7.5
t8 -8.5t8.5 -9z" />
    <glyph glyph-name="florin" unicode="&#x192;" horiz-adv-x="978" 
d="M373 729h-127q-12 0 -18 3.5t-5 10.5q0 12 10 39q5 14 7 18.5t7 7.5t15 3h133q70 250 195 375q129 129 297 129q83 0 134.5 -40t51.5 -120q0 -55 -29 -90t-79 -35q-52 0 -79.5 28.5t-27.5 80.5q0 22 10 46.5t9 31.5q-3 24 -25 24q-40 0 -84 -70q-46 -75 -86 -219
q-5 -22 -17 -70.5t-16 -70.5h148q22 0 22 -16q0 -9 -8 -41q-6 -25 -20 -25h-162q-21 -84 -111 -453q-87 -341 -203 -526q-144 -217 -352 -217q-79 0 -130.5 42t-51.5 124q0 64 29 102.5t84 38.5q46 0 70 -25.5t26 -62.5q1 -29 -10.5 -69.5t-10.5 -49.5q6 -26 33 -26
q31 0 57 37.5t54 122.5q53 149 133 475q75 298 127 487z" />
    <glyph glyph-name="circumflex" unicode="&#x2c6;" 
d="M442 1286l-272 -186q-48 -29 -64 -29q-20 0 -20 16q0 11 10 24.5t39 43.5l180 199q29 31 39.5 42t23 19t23.5 8h105q20 0 28.5 -9t26.5 -50l94 -219q21 -42 21 -55q0 -19 -19 -19q-3 0 -6 0.5t-6 2.5t-5.5 3.5t-6 4.5t-6 5t-6.5 6.5t-6.5 7l-7.5 7.5t-7 8z" />
    <glyph glyph-name="caron" unicode="&#x2c7;" 
d="M422 1208l272 187q47 30 66 30q18 0 18 -18q0 -17 -49 -66l-180 -200q-39 -42 -54.5 -55t-31.5 -13h-105q-20 0 -28.5 9t-26.5 51l-94 217q-21 42 -21 57q0 18 21 18q3 0 6 -1t6 -2.5t6.5 -4.5t6 -5t7 -7t7 -7.5t8 -8.5t8.5 -9z" />
    <glyph glyph-name="uni02C9" unicode="&#x2c9;" 
d="M201 1282h516q28 0 28 -10q0 -13 -24 -78q-11 -26 -18 -32.5t-27 -6.5h-516q-29 0 -29 10q0 11 25 78q11 26 18 32.5t27 6.5z" />
    <glyph glyph-name="breve" unicode="&#x2d8;" 
d="M428 1073h-2q-113 0 -180.5 74.5t-67.5 204.5q0 45 35 45q25 0 29 -33q3 -64 55.5 -116t132.5 -52q96 0 167.5 42.5t98.5 125.5q6 19 13 26t22 7q27 0 27 -41q0 -31 -12 -67t-39 -74.5t-64.5 -70t-93.5 -51.5t-121 -20z" />
    <glyph glyph-name="dotaccent" unicode="&#x2d9;" 
d="M420 1114h-2q-43 0 -67.5 31t-24.5 76q0 62 40.5 111.5t100.5 49.5q43 0 68.5 -29t25.5 -73q0 -63 -40.5 -114.5t-100.5 -51.5z" />
    <glyph glyph-name="ring" unicode="&#x2da;" 
d="M428 1069h-2q-86 0 -148.5 62.5t-62.5 150.5t62.5 150.5t150.5 62.5q89 0 152 -62.5t63 -150.5t-63 -150.5t-152 -62.5zM428 1159h2q50 0 85.5 36t35.5 87t-36 87t-87 36q-50 0 -85.5 -36t-35.5 -87t35.5 -87t85.5 -36z" />
    <glyph glyph-name="ogonek" unicode="&#x2db;" 
d="M170 0h94q-71 -41 -113 -97.5t-42 -115.5q0 -46 25.5 -69t68.5 -23q35 0 66 16.5t52 32.5t31 16q25 0 25 -26q0 -21 -32 -49.5t-87 -51t-111 -22.5q-77 0 -126.5 42t-49.5 120q0 68 62 131.5t137 95.5z" />
    <glyph glyph-name="tilde" unicode="&#x2dc;" 
d="M537 1122h-2q-44 0 -87 20t-71 44t-62 44t-61 21q-31 0 -56 -17.5t-38.5 -38.5t-29 -38.5t-28.5 -17.5q-22 0 -22 22q0 66 67.5 136.5t163.5 70.5q45 0 88.5 -20t72 -44t62 -44t60.5 -21q31 0 56 17.5t38 39t28.5 39t28.5 17.5q23 0 23 -25q0 -64 -67.5 -134.5
t-163.5 -70.5z" />
    <glyph glyph-name="hungarumlaut" unicode="&#x2dd;" 
d="M465 1438h2q32 0 55 -19.5t23 -54.5q0 -48 -76 -102l-207 -148q-61 -41 -82 -41q-22 0 -22 19q0 4 2 9t6 12t8 12.5t11 15t12 16.5l151 207q56 74 117 74zM811 1438h2q32 0 55 -19.5t23 -54.5q-2 -50 -76 -102l-207 -148q-61 -41 -84 -41q-20 0 -20 19q0 4 2 9t6 12
t8 12.5t11 15t12 16.5l151 207q56 74 117 74z" />
    <glyph glyph-name="uni03A9" unicode="&#x3a9;" horiz-adv-x="1282" 
d="M1141 289l-127 -289h-432l-4 37q12 18 79.5 111t99 141t84 132t86.5 157.5t54 144.5q40 142 46 247.5t-19 165.5t-68.5 88.5t-105.5 28.5q-296 0 -449 -536q-25 -87 -34 -176t-1 -188.5t15.5 -155t25.5 -160.5l-26 -37h-426l41 289l51 2q3 -84 23.5 -109.5t76.5 -25.5
h174q-35 40 -58.5 71.5t-54 89.5t-43 114t-11.5 135.5t26 164.5q50 175 158 309.5t247 205.5t287 71q228 0 328.5 -155.5t25.5 -418.5q-22 -78 -65 -153t-86.5 -130.5t-109.5 -117.5t-110 -98t-112 -88h188q55 0 86 24t84 111z" />
    <glyph glyph-name="uni03BC" unicode="&#x3bc;" horiz-adv-x="1161" 
d="M631 330l-4 4q-216 -334 -443 -357q-32 -82 -49 -182q-5 -40 -8.5 -60.5t-11.5 -53t-19 -49.5t-28.5 -35.5t-43 -26.5t-59.5 -8q-48 0 -75 28.5t-27 81.5q0 40 36.5 112t77.5 150.5t48 124.5q23 101 57 201q17 56 43 124.5t58.5 149.5t43.5 109q33 84 33 105q0 20 -20 20
q-39 0 -103 -84q-18 -23 -33.5 -47t-22 -34.5t-14 -17.5t-16.5 -7t-15.5 8t-6.5 20q0 19 21.5 59t62 89t91 94t118 75.5t133.5 30.5q102 0 102 -96q0 -39 -37 -145q-22 -63 -72.5 -193.5t-64.5 -169.5q-43 -114 -43 -137q0 -35 33 -35q37 0 97 59t114 148q139 242 241 516
q6 18 15.5 24.5t31.5 6.5q55 2 183 2q39 0 39 -29l-17 -49q-11 -33 -82.5 -229t-99.5 -285q-31 -102 -31 -123q0 -29 27 -29q33 0 106 109q13 19 25 38.5t18 29t12 18t10.5 11.5t10.5 3q27 0 27 -26q0 -18 -21.5 -63t-63 -102.5t-92.5 -110t-120 -88.5t-137 -36
q-41 0 -66 26.5t-25 72.5q0 66 50 239q2 4 2.5 6.5t1.5 6t2 6.5z" />
    <glyph glyph-name="pi" unicode="&#x3c0;" horiz-adv-x="1026" 
d="M1020 887l45 -15q-23 -54 -57.5 -108t-61.5 -82q-33 -10 -121 -10q-30 -80 -123 -400q-47 -168 25 -168q24 0 44.5 11t53.5 37l13 -46q-52 -59 -117.5 -95t-120.5 -36q-38 0 -64.5 12t-43.5 39t-16 77.5t22 121.5q41 145 147 451q-49 0 -131 2t-115 2l-8 -27
q-44 -152 -93 -276t-91.5 -197t-70 -111.5t-48.5 -58.5q-67 -28 -129 -35l-2 37q125 124 218.5 311t141.5 359q-78 1 -125 -15t-124 -61l-15 49q4 3 25 23t29 26.5t30 25t36 27t38 23t45.5 21.5t48 15.5t56 11.5t61.5 3q64 0 225 -2t250 -2q44 0 68 11.5t55 48.5z" />
    <glyph glyph-name="endash" unicode="&#x2013;" horiz-adv-x="1024" 
d="M66 551h915q29 0 29 -14q0 -10 -13 -45l-30 -89q-6 -18 -13 -23t-28 -5h-916q-28 0 -28 14q0 13 12 45l31 88q6 18 13 23.5t28 5.5z" />
    <glyph glyph-name="emdash" unicode="&#x2014;" horiz-adv-x="2048" 
d="M66 551h1939q29 0 29 -14q0 -10 -13 -45l-30 -89q-6 -18 -13 -23t-28 -5h-1940q-28 0 -28 14q0 13 12 45l31 88q6 18 13 23.5t28 5.5z" />
    <glyph glyph-name="quoteleft" unicode="&#x2018;" horiz-adv-x="454" 
d="M455 979v-2q0 -70 -42.5 -117t-101.5 -47q-69 0 -98 46t-29 116q0 66 26 135.5t64.5 123.5t80 98t74 67.5t44.5 23.5t19.5 -6.5t7.5 -17.5q0 -10 -10.5 -20.5t-38.5 -37t-56 -59.5q-39 -46 -66.5 -93.5t-27.5 -76.5q0 -24 29 -27q33 0 49 -2q37 -3 56.5 -32.5t19.5 -71.5
z" />
    <glyph glyph-name="quoteright" unicode="&#x2019;" horiz-adv-x="454" 
d="M225 1149v2q0 70 42 117t102 47q68 0 96.5 -46.5t28.5 -117.5q0 -66 -26 -135.5t-64 -123t-79 -97t-73.5 -67t-44.5 -23.5q-27 0 -27 24q0 10 10.5 20t38.5 36t56 61q38 43 65 90.5t27 77.5q0 15 -6 20.5t-21 5.5q-5 1 -23 1.5t-28 2.5q-36 3 -55 33t-19 72z" />
    <glyph glyph-name="quotesinglbase" unicode="&#x201a;" horiz-adv-x="454" 
d="M-16 131v2q0 70 42 117t103 47q67 0 96 -46t29 -116q0 -81 -39 -167t-90 -145t-96.5 -97.5t-61.5 -38.5q-26 0 -26 24q0 10 9.5 20.5t38 37t56.5 59.5q39 45 65.5 93t26.5 77q0 13 -5 18.5t-19 6.5q-9 1 -27 2t-27 2q-36 3 -55.5 33t-19.5 71z" />
    <glyph glyph-name="quotedblleft" unicode="&#x201c;" horiz-adv-x="864" 
d="M446 979v-2q0 -70 -42 -117t-101 -47q-69 0 -98 46t-29 116q0 66 26 135.5t64.5 123.5t80 98t74 67.5t44.5 23.5t19.5 -6.5t7.5 -17.5q0 -10 -10.5 -20.5t-38.5 -37t-56 -59.5q-39 -46 -66.5 -93.5t-27.5 -76.5q0 -24 29 -27q33 0 49 -2q37 -3 56 -32.5t19 -71.5z
M870 979v-2q0 -70 -42 -117t-101 -47q-125 0 -125 162q0 81 39 167t90 145t96.5 97.5t61.5 38.5q26 0 26 -24q0 -10 -10 -20.5t-38 -37t-56 -59.5q-39 -45 -65.5 -93t-26.5 -77q0 -14 5.5 -20t20.5 -7q34 0 50 -2q37 -3 56 -32.5t19 -71.5z" />
    <glyph glyph-name="quotedblright" unicode="&#x201d;" horiz-adv-x="864" 
d="M219 1149v2q0 70 42 117t101 47q125 0 125 -164q0 -81 -39 -167t-89.5 -144.5t-96 -96.5t-61.5 -38q-27 0 -27 24q0 10 10.5 20t38.5 36t56 61q38 43 65 90.5t27 77.5q0 15 -6 20.5t-21 5.5q-5 1 -22.5 1.5t-26.5 2.5q-37 3 -56.5 33t-19.5 72zM643 1149v2q0 70 42 117
t101 47q69 0 98 -46.5t29 -117.5q0 -66 -26 -135.5t-64 -123t-79.5 -97t-74 -67t-44.5 -23.5t-19.5 6.5t-7.5 17.5q0 10 10.5 20t38 36.5t55.5 60.5q39 44 67 91.5t28 76.5q0 26 -29 26q-5 1 -22.5 1.5t-26.5 2.5q-37 3 -56.5 33t-19.5 72z" />
    <glyph glyph-name="quotedblbase" unicode="&#x201e;" horiz-adv-x="864" 
d="M-23 131v2q0 70 42.5 117t103.5 47q67 0 96 -46t29 -116q0 -66 -26 -135.5t-64.5 -123.5t-80 -98t-74 -67.5t-44.5 -23.5q-25 0 -25 24q0 10 10 20.5t38.5 37t56.5 59.5q39 45 65.5 93t26.5 77q0 24 -29 27q-33 0 -49 2q-36 3 -56 33t-20 71zM401 131v2q0 70 42.5 117
t103.5 47q67 0 96 -46t29 -116q0 -81 -39 -167t-90 -145t-96.5 -97.5t-61.5 -38.5q-27 0 -27 24q0 10 10 20.5t38.5 37t56.5 59.5q39 45 65.5 93t26.5 77q0 24 -29 27q-31 0 -49 2q-36 3 -56 33t-20 71z" />
    <glyph glyph-name="dagger" unicode="&#x2020;" horiz-adv-x="1093" 
d="M338 -389h-64q52 185 83.5 374.5t31.5 309.5q0 103 -8 182q52 53 82.5 90t64 101t50.5 139q-73 -1 -129 -22t-99.5 -41.5t-87.5 -20.5q-49 0 -76.5 31.5t-27.5 79.5q0 49 30 81.5t82 32.5q38 0 72 -14t59 -30t73 -30t110 -14q16 74 16 117q0 44 -14.5 106t-14.5 86
q0 69 35 107.5t92 38.5q55 0 85 -29.5t30 -79.5q0 -35 -22 -74.5t-50.5 -72.5t-58 -87t-41.5 -112q68 1 129 23t108.5 43.5t82.5 21.5q56 0 81 -28t25 -89q0 -46 -37 -78t-86 -32q-33 0 -66.5 13.5t-59.5 29.5t-75.5 29.5t-109.5 13.5q-21 -93 -21 -166q0 -106 47 -174
q-76 -124 -173 -375t-148 -481z" />
    <glyph glyph-name="daggerdbl" unicode="&#x2021;" horiz-adv-x="1093" 
d="M1057 838v-2q0 -51 -35 -82t-84 -31q-32 0 -64 14t-57 30.5t-73.5 30.5t-108.5 15q-21 -111 -21 -186q0 -77 37 -168q-83 -93 -134.5 -171.5t-72.5 -172.5q58 0 116 22.5t107 45t85 22.5q51 0 79.5 -30t28.5 -83q0 -47 -33.5 -79.5t-85.5 -32.5q-36 0 -64.5 11.5
t-48 25.5t-70 29t-124.5 20q-18 -74 -18 -123q0 -52 9 -108t9 -83q0 -67 -36.5 -103t-98.5 -36q-50 0 -78 29.5t-28 76.5q0 38 22.5 77.5t52 71.5t62 86t47.5 112q-86 0 -178 -43q-6 -2 -34 -14t-38 -15.5t-29.5 -8.5t-34.5 -5q-100 0 -100 106q0 47 31 83t84 36
q34 0 65.5 -13.5t55.5 -30t73.5 -31t116.5 -15.5q21 139 21 196q0 76 -33 158q60 57 114 149.5t84 194.5q-61 -1 -118 -23t-104 -43.5t-85 -21.5q-50 0 -77 31.5t-27 79.5q0 46 32 79t83 33q35 0 68 -13.5t57 -29.5t73.5 -29.5t114.5 -13.5q16 102 16 123q0 41 -12 99.5
t-12 86.5q0 63 38 103.5t93 40.5q50 0 80 -29.5t30 -75.5q0 -38 -24.5 -81t-54.5 -77.5t-60.5 -86.5t-40.5 -103q68 2 128 23.5t103 42t72 20.5q53 0 81 -31t28 -79z" />
    <glyph glyph-name="bullet" unicode="&#x2022;" horiz-adv-x="1024" 
d="M512 940h2q124 0 210.5 -87t86.5 -212t-86.5 -212t-212.5 -87q-123 0 -211 87.5t-88 211.5q-1 125 86 212t213 87z" />
    <glyph glyph-name="ellipsis" unicode="&#x2026;" horiz-adv-x="2048" 
d="M387 170v-2q0 -72 -43.5 -129t-118.5 -57q-54 0 -84 37.5t-30 93.5q0 75 42 131.5t119 56.5q54 0 84.5 -37.5t30.5 -93.5zM1069 170v-2q0 -73 -43 -129.5t-119 -56.5q-54 0 -84 37.5t-30 93.5q0 74 43 131t118 57q54 0 84.5 -37.5t30.5 -93.5zM1753 170v-2
q0 -72 -43.5 -129t-118.5 -57q-54 0 -84 37.5t-30 93.5q0 74 43 131t118 57q54 0 84.5 -37.5t30.5 -93.5z" />
    <glyph glyph-name="perthousand" unicode="&#x2030;" horiz-adv-x="1994" 
d="M184 -20v2q0 8 33 55l856 1243q15 22 21.5 28.5t17.5 6.5h62q26 0 26 -12q0 -11 -33 -58l-856 -1243q-15 -22 -21.5 -28.5t-17.5 -6.5h-61q-27 0 -27 13zM479 1262h-2q-50 0 -104.5 -107t-86.5 -223.5t-32 -167.5q0 -42 13 -66t48 -24q39 0 82 64.5t74 150.5t51.5 166
t20.5 116q0 91 -64 91zM1069 608h-2q-51 0 -106 -107t-87 -223t-32 -167q0 -91 61 -91q52 0 107.5 107t87.5 223.5t32 167.5q0 90 -61 90zM326 621h-2q-112 0 -175 76.5t-63 199.5q0 107 50.5 203t139.5 155.5t193 59.5q114 0 177 -77t63 -200q0 -78 -29.5 -153.5
t-79.5 -133.5t-122 -94t-152 -36zM915 -33h-2q-112 0 -174.5 76.5t-62.5 200.5q0 107 50 203t138.5 155.5t192.5 59.5q114 0 176.5 -77t62.5 -200q0 -104 -49 -200t-138 -157t-194 -61zM1571 -33h-2q-113 0 -175.5 76.5t-62.5 200.5q0 107 50 203t139.5 155.5t193.5 59.5
q114 0 177 -77t63 -200q0 -105 -49 -200.5t-138.5 -156.5t-195.5 -61zM1724 608h-2q-50 0 -105 -107t-87.5 -223t-32.5 -167q0 -91 64 -91q51 0 106 107t87 223.5t32 167.5q0 42 -13 66t-49 24z" />
    <glyph glyph-name="guilsinglleft" unicode="&#x2039;" horiz-adv-x="636" 
d="M418 190h-137q-43 0 -62 43l-78 158q-11 29 -30 45q-2 2 -6 5.5t-6 5.5t-3.5 5t-1.5 7q0 2 2 4.5t4.5 4.5t7 5.5t7.5 5.5q28 18 49 47l141 158q41 41 78 41h149q25 0 25 -14q0 -15 -29 -15q-23 0 -42.5 -14t-47.5 -45l-125 -139q-35 -35 -49 -41q9 -9 23 -37l69 -141
q15 -31 28.5 -45.5t35.5 -14.5q24 0 24 -14q0 -15 -26 -15z" />
    <glyph glyph-name="guilsinglright" unicode="&#x203a;" horiz-adv-x="636" 
d="M186 725h140q21 0 34.5 -8t24.5 -33l78 -158q16 -32 31 -47q2 -2 7 -6.5t7 -7t2 -6.5q0 -6 -21 -23q-26 -15 -49 -45l-141 -158q-38 -43 -78 -43h-149q-25 0 -25 15q0 14 31 14q21 0 40.5 14t47.5 46l125 141q31 31 49 39q-14 17 -23 39l-69 139q-15 31 -28.5 45
t-35.5 14q-24 0 -24 15q0 14 26 14z" />
    <glyph glyph-name="fraction" unicode="&#x2044;" horiz-adv-x="342" 
d="M-315 -20v2q0 9 32 55l856 1243q15 22 21.5 28.5t17.5 6.5h62q26 0 26 -12t-32 -58l-856 -1243q-15 -22 -21.5 -28.5t-17.5 -6.5h-62q-26 0 -26 13z" />
    <glyph glyph-name="Euro" unicode="&#x20ac;" horiz-adv-x="1024" 
d="M1106 1266q-2 -53 -74 -281q-12 -40 -24 -57t-35 -17q-15 0 -24.5 9t-8.5 28q1 26 13 114.5t14 123.5q2 41 -6 56t-35 15q-66 0 -153 -88.5t-149.5 -191.5t-86.5 -174h309l-35 -82h-303q-17 -55 -33 -121h291l-35 -82h-270q-19 -111 -19 -188q0 -159 29 -232t109 -73
q71 0 122 64t99 185q32 78 49.5 105t42.5 27q30 0 27 -35q0 -11 -48 -199q-26 -95 -37 -112q-9 -16 -26 -25q-112 -68 -283 -68t-271.5 118.5t-100.5 313.5q0 61 6 119h-150l35 82h125q11 55 31 121h-131l34 82h127q98 227 293.5 369.5t436.5 142.5q39 0 71.5 -5t53.5 -16.5
t20 -27.5z" />
    <glyph glyph-name="afii61289" unicode="&#x2113;" horiz-adv-x="770" 
d="M600 229l31 -36q-177 -222 -379 -222q-133 0 -174 74q-22 34 -20.5 95t34.5 177l43 146l-123 -74l-10 53l154 99l73 254q61 212 108 308.5t124 168.5q107 104 211 104q85 0 111.5 -73.5t-7.5 -180.5q-44 -154 -145.5 -279t-270.5 -261l-49 -166q-50 -184 -35 -252t95 -68
q103 0 229 133zM451 897l-64 -217q94 84 169.5 201.5t109.5 238.5q27 89 22.5 142t-41.5 53q-46 0 -85.5 -85.5t-110.5 -332.5z" />
    <glyph glyph-name="trademark" unicode="&#x2122;" horiz-adv-x="2039" 
d="M223 1118h-51v164h672v-164h-51q-7 50 -34.5 81.5t-76.5 31.5h-86v-557q0 -55 14 -69t80 -17v-51h-364v51q65 3 78.5 17t13.5 69v557h-84q-92 0 -111 -113zM913 1282h271l250 -512l260 512h237v-51q-60 -3 -78 -22.5t-18 -67.5v-479q0 -45 14 -57.5t76 -16.5v-51h-362v51
q65 4 78.5 16.5t13.5 57.5v407h-4l-267 -534h-24l-258 534h-4v-354q0 -75 16.5 -99.5t79.5 -27.5v-51h-246v51q59 3 73.5 26t14.5 101v422q-4 41 -41.5 67.5t-81.5 28.5v49z" />
    <glyph glyph-name="Omega" unicode="&#x2126;" horiz-adv-x="1282" 
d="M1141 289l-127 -289h-432l-4 37q12 18 79.5 111t99 141t84 132t86.5 157.5t54 144.5q40 142 46 247.5t-19 165.5t-68.5 88.5t-105.5 28.5q-296 0 -449 -536q-25 -87 -34 -176t-1 -188.5t15.5 -155t25.5 -160.5l-26 -37h-426l41 289l51 2q3 -84 23.5 -109.5t76.5 -25.5
h174q-35 40 -58.5 71.5t-54 89.5t-43 114t-11.5 135.5t26 164.5q50 175 158 309.5t247 205.5t287 71q228 0 328.5 -155.5t25.5 -418.5q-22 -78 -65 -153t-86.5 -130.5t-109.5 -117.5t-110 -98t-112 -88h188q55 0 86 24t84 111z" />
    <glyph glyph-name="estimated" unicode="&#x212e;" horiz-adv-x="1835" 
d="M1772 621h-1211q-10 0 -10 -9v-364q0 -22 14 -43q92 -93 210.5 -146t248.5 -53q141 0 266 59.5t215 163.5h109q-101 -120 -257 -190t-335 -70q-203 0 -374.5 89.5t-271.5 244t-100 336.5q0 183 100 338.5t271.5 245.5t374.5 90q204 0 376.5 -90t273 -245.5t100.5 -338.5
v-18zM1495 670v366q0 26 -16 45q-198 191 -455 191q-129 0 -247 -52.5t-210 -144.5q-16 -19 -16 -45v-360q0 -4 3 -8.5t7 -4.5h928q6 0 6 13z" />
    <glyph glyph-name="partialdiff" unicode="&#x2202;" horiz-adv-x="966" 
d="M543 797h2q61 0 113 -29t75 -86q57 140 80 207q55 163 39 289q-10 64 -55.5 106.5t-122.5 42.5q-123 0 -283 -110q-15 -1 -25.5 24t-10 59.5t15.5 55.5q137 76 276 76q247 0 307 -271q39 -181 -34 -444q-35 -118 -93 -242.5t-127 -218.5q-99 -133 -217 -209t-247 -76
q-151 0 -213 98t-13 271q26 92 80 173.5t119 141.5q70 64 159.5 103t174.5 39zM565 717h-2q-104 0 -205 -109q-58 -68 -107.5 -170.5t-80.5 -208.5q-27 -86 -4.5 -141t90.5 -55q101 0 244 200q99 137 192 365q-6 42 -39.5 80.5t-87.5 38.5z" />
    <glyph glyph-name="Delta" unicode="&#x2206;" horiz-adv-x="1148" 
d="M922 0h-1022l16 57l813 1237l92 23l119 -1260zM709 102l-78 914l-592 -914h670z" />
    <glyph glyph-name="product" unicode="&#x220f;" horiz-adv-x="1464" 
d="M1417 1303v-56q-42 -3 -67 -6.5t-45.5 -11.5t-29.5 -16.5t-15.5 -27.5t-7.5 -39t-1 -56v-1024q0 -39 1.5 -61t7.5 -42.5t15.5 -30.5t29.5 -18.5t44 -12t64 -7.5v-56h-500v56q37 3 56.5 6t37.5 11t25.5 16.5t13 29.5t6.5 43t1 63v1106q0 42 -12 53t-56 11h-301
q-40 0 -50.5 -9.5t-10.5 -47.5v-1113v-6q0 -41 0.5 -58t4.5 -39.5t10.5 -29.5t22 -17t35.5 -13t54 -6v-56h-490v56q60 5 88.5 11t47 25.5t22.5 47.5t4 85v1027q0 36 -1.5 56.5t-8 39.5t-15.5 27.5t-30.5 16.5t-46 11t-66.5 6v56h1163z" />
    <glyph glyph-name="summation" unicode="&#x2211;" horiz-adv-x="1206" 
d="M1169 201l-82 -373h-827v51l397 619l-391 751v54h821q1 -12 9.5 -126t13.5 -184l-57 -12q-22 115 -62 186q-21 41 -57 54.5t-133 13.5h-293l319 -594l-403 -641h430q46 0 70 1.5t51 9.5t40.5 19.5t31.5 38.5t31.5 60t33.5 88z" />
    <glyph glyph-name="minus" unicode="&#x2212;" horiz-adv-x="1228" 
d="M1130 434h-1032v168h1032v-168z" />
    <glyph glyph-name="uni2215" unicode="&#x2215;" horiz-adv-x="342" 
d="M-315 -20v2q0 9 32 55l856 1243q15 22 21.5 28.5t17.5 6.5h62q26 0 26 -12t-32 -58l-856 -1243q-15 -22 -21.5 -28.5t-17.5 -6.5h-62q-26 0 -26 13z" />
    <glyph glyph-name="uni2219" unicode="&#x2219;" horiz-adv-x="489" 
d="M377 547v-2q0 -72 -43.5 -129.5t-118.5 -57.5q-54 0 -84.5 37.5t-30.5 93.5q0 74 43.5 131.5t118.5 57.5q54 0 84.5 -37.5t30.5 -93.5z" />
    <glyph glyph-name="radical" unicode="&#x221a;" horiz-adv-x="1218" 
d="M1194 1645l-311 -1946l-45 -21l-383 1020l-158 -71l-23 69l312 138l274 -768h4l248 1597z" />
    <glyph glyph-name="infinity" unicode="&#x221e;" horiz-adv-x="1447" 
d="M1364 539v-2q0 -138 -84.5 -222t-198.5 -84q-82 0 -156.5 45.5t-160.5 157.5q-80 -99 -155.5 -151t-172.5 -52q-113 0 -195.5 84t-82.5 213q0 131 83 216t210 85q92 0 167.5 -51t151.5 -147q75 85 108 113q99 85 214 85q117 0 194.5 -80.5t77.5 -209.5zM451 350h2
q36 0 69 13t68 45t52 50.5t56 63.5q-74 97 -108 129q-68 62 -146 62q-76 0 -119.5 -52.5t-43.5 -134.5q0 -74 48.5 -125t121.5 -51zM1079 713h-2q-26 0 -53.5 -10t-45.5 -20.5t-45.5 -36.5t-37 -36.5t-37 -43t-29.5 -34.5q86 -105 138 -143.5t118 -38.5q70 0 113 55t43 121
q0 83 -45 135t-117 52z" />
    <glyph glyph-name="integral" unicode="&#x222b;" horiz-adv-x="925" 
d="M506 0l-37 758q-9 144 -1.5 257t21 198t39 146.5t52.5 101.5t61.5 63.5t66 33t66.5 9.5q46 0 86 -26.5t41 -72.5q0 -46 -29.5 -71t-68.5 -25q-23 0 -38.5 16t-22 35.5t-17 35.5t-23.5 16q-74 0 -59 -293l35 -697q12 -237 -9 -410.5t-67.5 -269.5t-105.5 -140t-131 -44
q-53 0 -89 29t-36 71q-1 44 33 74.5t77 30.5q19 0 33 -17.5t21 -38t17.5 -38t24.5 -17.5q36 0 52 76.5t8 208.5z" />
    <glyph glyph-name="approxequal" unicode="&#x2248;" horiz-adv-x="1021" 
d="M877 821l79 -69q-41 -82 -102 -133.5t-133 -51.5q-49 0 -90.5 16.5t-102.5 55.5q-31 20 -50 30.5t-46 19.5t-53 9q-52 0 -87.5 -33t-74.5 -96l-82 68q39 82 107.5 133t146.5 51q17 0 33.5 -2t32.5 -7t27.5 -8.5t27 -11.5t22 -11.5t22.5 -13t19 -11.5q39 -25 56.5 -35
t43.5 -19.5t50 -9.5q46 0 80 31.5t74 97.5zM877 496l79 -70q-41 -82 -101.5 -132t-133.5 -50q-50 0 -92 16t-101 53q-76 47 -108 56q-21 6 -41 6q-23 0 -44.5 -9t-34.5 -18t-32 -32t-25.5 -33t-25.5 -39l-82 67q39 82 108 133.5t146 51.5q21 0 41.5 -3.5t34.5 -7.5t32.5 -13
t27 -13.5t26.5 -15.5t22 -13t19 -11.5t19.5 -12.5t17.5 -10.5t18.5 -10t17 -7t19 -6.5t17.5 -3.5t20 -1.5q47 0 81.5 31.5t74.5 97.5z" />
    <glyph glyph-name="notequal" unicode="&#x2260;" horiz-adv-x="1067" 
d="M813 930l-68 -158h238v-125h-285l-104 -241h389v-125h-436l-84 -199l-98 39l69 160h-235v125h282l103 241h-385v125h432l84 197z" />
    <glyph glyph-name="lessequal" unicode="&#x2264;" horiz-adv-x="1110" 
d="M1022 190l-770 400v135l770 399v-147l-645 -315v-5l645 -319v-148zM1030 -6h-784v129h784v-129z" />
    <glyph glyph-name="greaterequal" unicode="&#x2265;" horiz-adv-x="1112" 
d="M256 1124l770 -399v-135l-770 -400v148l645 317v4l-645 318v147zM1028 -6h-782v129h782v-129z" />
    <glyph glyph-name="lozenge" unicode="&#x25ca;" horiz-adv-x="1224" 
d="M1139 629l-342 -756h-154l-342 756l346 760h150zM999 629l-274 624h-6l-279 -624l279 -629h6z" />
    </font>
</defs>
</svg>
