<?xml version="1.0" standalone="no"?>
<!DOCTYPE svg PUBLIC "-//W3C//DTD SVG 1.1//EN" "http://www.w3.org/Graphics/SVG/1.1/DTD/svg11.dtd" >
<svg xmlns="http://www.w3.org/2000/svg" xmlns:xlink="http://www.w3.org/1999/xlink" version="1.1">
<metadata>
Created by FontForge 20170731 at Fri Nov 20 17:46:44 2020
 By Aleksey,,,
Copyright (c) 1994, 2001 Adobe Systems Incorporated.  All Rights Reserved.
</metadata>
<defs>
<font id="ITCGaramondStd-BkNarrow" horiz-adv-x="890" >
  <font-face 
    font-family="ITC Garamond Std Book Narrow"
    font-weight="400"
    font-stretch="semi-condensed"
    units-per-em="2048"
    panose-1="2 2 6 5 6 5 6 2 3 4"
    ascent="1440"
    descent="-608"
    x-height="928"
    cap-height="1288"
    bbox="-332 -512 2044 1782"
    underline-thickness="102"
    underline-position="-307"
    unicode-range="U+0020-FB02"
  />
<missing-glyph horiz-adv-x="1024" 
d="M0 0v1434h1024v-1434h-1024zM512 809l348 522h-696zM573 717l349 -522v1044zM164 102h696l-348 523zM102 1239v-1044l349 522z" />
    <glyph glyph-name="fi" unicode="fi" horiz-adv-x="1005" 
d="M547 842h-141q-49 0 -61.5 -11.5t-12.5 -50.5v-612q0 -62 17 -87.5t63 -31.5q3 -1 10.5 -2.5t10.5 -2t9 -2t8.5 -3t6.5 -4t5.5 -5t3 -6t1.5 -8.5q0 -24 -37 -24q-19 0 -81.5 4t-104.5 4q-39 0 -94.5 -4t-71.5 -4q-49 0 -49 24q0 27 45 33q51 4 66.5 28t15.5 95v625
q0 26 -11.5 35t-38.5 12q-17 1 -26.5 3t-18 8.5t-8.5 18.5q0 5 1 9.5t2.5 7.5t5 6.5t6 5.5t8 5t8 4.5t10 5t10.5 4.5q51 23 54 92q7 204 129.5 319t306.5 115q102 0 175 -31.5t73 -70.5q0 -71 -20.5 -121.5t-61.5 -50.5q-9 0 -17 2.5t-14.5 9.5t-11.5 12.5t-10.5 17.5t-8 19
t-8 21.5t-8.5 21.5q-19 50 -43 77t-70 27q-120 0 -178.5 -96.5t-58.5 -294.5q0 -46 11 -57.5t52 -11.5h185q97 0 188 16q14 3 41 10.5t35 7.5q16 0 16 -30v-101v-663q0 -26 0.5 -38t4 -28t11 -23t21.5 -13.5t35 -10.5q29 -7 40 -13t11 -20q0 -24 -35 -24q-21 0 -80 4t-96 4
q-39 0 -98 -4t-76 -4q-33 0 -33 26q0 25 43 31q49 6 61.5 25t12.5 82v557q0 76 -28 102.5t-107 26.5z" />
    <glyph glyph-name="fl" unicode="fl" horiz-adv-x="1005" 
d="M156 172v625q0 26 -11.5 35t-38.5 12q-17 1 -26.5 3t-18 8.5t-8.5 18.5q0 13 8.5 22.5t15.5 13t27 12.5q51 23 54 92q9 205 124 319.5t281 114.5q48 0 83.5 -10.5t58 -23.5t30.5 -15q9 1 23.5 7.5t34 17.5t26.5 14q17 10 27 10q14 0 14 -29v-1282q0 -45 17 -62.5
t67 -25.5q43 -7 43 -29q0 -28 -29 -28q-14 0 -80.5 4t-101.5 4q-40 0 -100 -4t-78 -4q-12 0 -21.5 7t-9.5 19q0 22 39 31q49 6 62.5 25t13.5 73v1035q-15 5 -26 17.5t-16 24t-14.5 38t-15.5 41.5q-31 79 -102 79q-36 0 -64.5 -15.5t-46.5 -38.5t-31 -60t-19.5 -68t-10 -77
t-4 -72t-0.5 -66q0 -43 8 -53t41 -10h135q20 0 25.5 -7t5.5 -32q0 -27 -6 -34t-29 -7h-125q-35 0 -45 -9.5t-10 -41.5v-623q0 -62 17 -87.5t63 -31.5q3 -1 10.5 -2.5t10.5 -2t9 -2t8.5 -3t6.5 -4t5.5 -5t3 -6t1.5 -8.5q0 -24 -37 -24q-17 0 -80.5 4t-105.5 4q-39 0 -94.5 -4
t-69.5 -4q-51 0 -51 24q0 27 45 33q51 4 66.5 28t15.5 95z" />
    <glyph glyph-name=".notdef" horiz-adv-x="1024" 
d="M0 0v1434h1024v-1434h-1024zM512 809l348 522h-696zM573 717l349 -522v1044zM164 102h696l-348 523zM102 1239v-1044l349 522z" />
    <glyph glyph-name=".null" horiz-adv-x="0" 
 />
    <glyph glyph-name="nonmarkingreturn" horiz-adv-x="682" 
 />
    <glyph glyph-name="space" unicode=" " horiz-adv-x="464" 
 />
    <glyph glyph-name="exclam" unicode="!" horiz-adv-x="485" 
d="M246 338h-2q-17 0 -23.5 18t-9.5 64q-10 76 -23 225q-50 494 -51 535q0 69 24.5 103t82.5 34q57 0 81.5 -32.5t24.5 -100.5q-4 -69 -51 -541q-4 -50 -10 -124t-6 -77q-5 -60 -12 -82t-25 -22zM246 -23h-2q-43 0 -72 34.5t-29 80.5q0 47 29 82t74 35t73.5 -35t28.5 -82
q0 -46 -28.5 -80.5t-73.5 -34.5z" />
    <glyph glyph-name="quotedbl" unicode="&#x22;" horiz-adv-x="684" 
d="M186 1313h2q72 0 72 -96q0 -5 -1 -20t-1 -23q-13 -157 -35 -334q-4 -27 -11 -40.5t-26 -13.5q-18 0 -25 13t-11 41q-24 194 -33 331q-4 32 -4 46q0 49 17 72.5t56 23.5zM496 1313h2q71 0 71 -96q0 -27 -2 -43q-10 -153 -32 -334q-4 -27 -11.5 -40.5t-27.5 -13.5
q-19 0 -26 13.5t-11 40.5q-24 194 -33 331q-2 16 -2 46q0 96 72 96z" />
    <glyph glyph-name="numbersign" unicode="#" 
d="M659 1085l64 189q8 23 14.5 30t24.5 7q35 0 35 -15q0 -3 -9 -30l-59 -172q-8 -32 -8 -33q0 -12 33 -12h120q25 0 31 -2t6 -11q0 -3 -22 -80q-4 -15 -9.5 -19.5t-19.5 -4.5h-164q-17 0 -21 -4.5t-13 -32.5l-50 -141q-8 -24 -8 -29q0 -10 6 -12t29 -2h127q25 0 32 -2.5
t7 -12.5q0 -9 -25 -78q-5 -15 -10 -19.5t-18 -4.5h-172q-20 0 -25 -9q-2 -4 -7 -19l-3 -9l-70 -209q-8 -24 -15 -29.5t-30 -5.5q-29 0 -29 15q0 4 4 14t5 16l63 189q10 30 10 37t-6 8.5t-31 1.5h-170q-17 0 -20.5 -4.5t-11.5 -32.5l-72 -209q-8 -23 -14.5 -29t-26.5 -6
q-33 0 -33 15q0 4 2 8.5t4.5 10.5t4.5 11l63 189q1 6 5.5 19.5t4.5 17.5q0 7 -6.5 8.5t-30.5 1.5h-122q-23 0 -29 1.5t-6 10.5q0 8 24 82q6 14 11.5 18.5t17.5 4.5h172q12 0 16 5t13 29l49 142q10 30 10 35q0 7 -7 8.5t-32 1.5h-129q-23 0 -29 2t-6 10q0 20 25 82
q5 14 10.5 18.5t18.5 4.5h172q15 0 19.5 5.5t12.5 30.5l66 189q8 23 15.5 30t25.5 7q33 0 33 -15q0 -3 -9 -30l-59 -172q-8 -24 -8 -33q0 -12 33 -12h172q15 0 20 5.5t14 30.5zM338 709h174q14 0 18.5 5t10.5 27l51 146q10 30 10 33q0 12 -37 12h-174q-13 0 -18 -6t-11 -27
l-51 -145q-10 -30 -10 -31q0 -10 6.5 -12t30.5 -2z" />
    <glyph glyph-name="dollar" unicode="$" horiz-adv-x="907" 
d="M614 1174l-39 -476q103 -71 157 -144.5t54 -178.5q0 -124 -69 -219t-191 -131l-20 -256q-2 -19 -7.5 -25t-25.5 -6q-22 0 -28.5 6t-4.5 23l19 243q-37 -6 -66 -6q-27 0 -45 2l-16 -237q-2 -19 -7.5 -25t-25.5 -6q-22 0 -28.5 6t-4.5 23l17 245q-98 15 -146 51
q-22 16 -22 68q-3 85 0 191q0 65 32 65q21 0 33.5 -29t30.5 -112q22 -104 80 -148l39 516q-44 30 -75.5 59.5t-59 67.5t-42 85t-14.5 102q0 117 67 210t175 132l14 188q2 20 7.5 25.5t25.5 5.5q21 0 27.5 -5.5t5.5 -23.5l-12 -176q25 4 51 4q32 0 55 -4l14 174
q2 20 7.5 25.5t25.5 5.5q21 0 27.5 -5.5t5.5 -23.5l-14 -186q52 -13 96 -37q33 -15 43 -29.5t10 -44.5q3 -70 -8 -168q-9 -57 -35 -57q-6 0 -10.5 1.5t-9 5.5t-7.5 8t-6.5 12t-6 15t-5.5 19t-5.5 21.5t-7 25.5t-7.5 29q-12 60 -48 99zM514 741l37 473q-32 13 -62 13
q-15 0 -47 -4l-30 -408q31 -25 102 -74zM350 868l25 330q-99 -52 -99 -176q0 -83 74 -154zM393 573l-39 -501q12 -6 45 -6q31 0 64 8l33 424q-6 4 -45.5 34t-57.5 41zM557 444l-27 -346q99 54 99 174q0 93 -72 172z" />
    <glyph glyph-name="percent" unicode="%" horiz-adv-x="1271" 
d="M315 662h-2q-78 0 -142 47t-98 121.5t-34 156.5q0 129 78.5 227.5t197.5 98.5t197 -98t78 -228t-77.5 -227.5t-197.5 -97.5zM315 702h2q58 0 89.5 74t31.5 211t-31.5 211t-91.5 74t-91 -74t-31 -211t31 -211t91 -74zM958 -31h-2q-79 0 -143 47.5t-97.5 121.5t-33.5 157
q0 128 78.5 227t197.5 99t197 -98t78 -228t-78 -228t-197 -98zM958 10h3q58 0 89 74t31 211t-31.5 211t-91.5 74t-92 -74t-32 -211t32 -211t92 -74zM174 -23v3q0 6 27 49l809 1265q15 21 39 21h28q23 0 23 -10q0 -9 -27 -52l-809 -1265q-15 -21 -39 -21h-28q-23 0 -23 10z
" />
    <glyph glyph-name="ampersand" unicode="&#x26;" horiz-adv-x="1200" 
d="M221 1032v2q0 124 92 201.5t224 77.5q129 0 211.5 -66.5t82.5 -171.5q0 -21 -4 -40.5t-8 -35t-15.5 -32.5t-18 -27.5t-25 -26.5t-25.5 -23t-31 -22.5t-31 -20t-35 -21.5t-34 -21q-45 -30 -45 -39q0 -6 23 -37q34 -45 102.5 -142t79.5 -112q31 -45 43 -45q17 0 65 97
t48 128q0 19 -8.5 31.5t-19 16.5t-28.5 8q-2 0 -8 1t-8 1.5t-7 1t-7.5 1.5t-6 2.5t-5.5 3t-4.5 3.5t-3.5 4.5t-2 6t-1 7.5q0 29 41 29q20 0 69.5 -3t73.5 -3q20 0 77 3t67 3q21 0 29 -6.5t8 -24.5q0 -12 -9.5 -18t-34.5 -11t-32 -7q-35 -8 -57 -29t-52 -68
q-60 -105 -104 -174q-35 -55 -35 -65q0 -16 22 -52q45 -67 101 -139q46 -60 76.5 -87t70.5 -34q42 -7 57 -13.5t15 -25.5q0 -17 -9.5 -21.5t-35.5 -4.5q-19 0 -82 4t-113 4q-66 0 -122 -4t-70 -4q-33 0 -33 26q-1 9 5.5 15.5t13.5 8.5t20 5q41 7 41 31q-1 20 -35 69.5
t-45 49.5q-8 0 -17.5 -9.5t-25 -30t-27.5 -32.5q-133 -143 -290 -143q-155 0 -247.5 96.5t-92.5 247.5q0 202 198 317q21 13 56.5 31.5t52 29t16.5 17.5q0 9 -20.5 38.5t-45 65t-45 93t-20.5 114.5zM541 1255h-2q-66 0 -107 -45.5t-41 -117.5q0 -53 29 -119t59.5 -107
t40.5 -41q6 0 24 8.5t44 28.5t50 46t41 67.5t17 87.5q0 87 -39 139.5t-116 52.5zM201 395v-2q0 -69 27.5 -136t86 -115t134.5 -48q48 0 93.5 21.5t74.5 50.5t47 55t18 37q0 9 -49 78.5t-115.5 159.5t-83.5 114q-34 49 -47 49q-6 0 -25.5 -10t-47 -31.5t-52.5 -51t-43 -75
t-18 -96.5z" />
    <glyph glyph-name="quotesingle" unicode="'" horiz-adv-x="448" 
d="M223 1313h2q72 0 72 -96q0 -5 -1 -20t-1 -23q-13 -157 -35 -334q-4 -27 -11 -40.5t-26 -13.5t-26 13.5t-11 40.5q-19 150 -34 331q-2 16 -2 46q0 49 17 72.5t56 23.5z" />
    <glyph glyph-name="parenleft" unicode="(" horiz-adv-x="714" 
d="M158 578v2q0 130 33 254t84 216t111.5 170.5t118 127.5t100.5 76.5t61 27.5q22 0 22 -20q0 -5 -3 -10.5t-11 -13t-12.5 -12t-16.5 -14.5t-14 -12q-291 -260 -291 -792q0 -535 291 -795q2 -2 14 -12t16.5 -14.5t12.5 -12t11 -13t3 -10.5q0 -20 -22 -20q-19 0 -61.5 27.5
t-100 77t-118 128t-111.5 171.5t-84 217.5t-33 255.5z" />
    <glyph glyph-name="parenright" unicode=")" horiz-adv-x="714" 
d="M557 575v-2q0 -112 -24.5 -220t-64.5 -192.5t-90 -160t-101.5 -129t-98.5 -93t-81.5 -58.5t-49.5 -19q-22 0 -22 20q0 5 3 10.5t11 13t12.5 12t16.5 14.5t14 12q291 260 291 792q0 535 -291 795q-2 2 -14 12t-16.5 14.5t-12.5 12t-11 13t-3 10.5q0 20 22 20
q19 0 62 -27.5t100.5 -77t118 -128t112 -171.5t84.5 -217.5t33 -255.5z" />
    <glyph glyph-name="asterisk" unicode="*" horiz-adv-x="786" 
d="M393 608h-2q-35 0 -57.5 22.5t-22.5 59.5q0 34 35 115.5t35 99.5q0 9 -6 16t-13 7q-18 0 -37 -20t-47 -61l-6 -9q-23 -28 -37.5 -43.5t-38 -30t-46.5 -14.5q-31 0 -53.5 24.5t-22.5 54.5q0 45 38 64.5t103 26.5q11 1 29 3t29 3t25 3t23 4.5t17 6t12 9t4 12.5t-3.5 13
t-12.5 10t-17 7t-23.5 5t-25 3.5t-29 3.5t-28.5 3q-66 7 -103.5 26.5t-37.5 65.5q0 32 23 55t55 23q23 0 45.5 -14.5t36 -30t34.5 -44.5q4 -5 13.5 -18.5t14 -19t12.5 -16t13.5 -15.5t12.5 -10.5t13.5 -8t12.5 -2.5q11 0 16 7.5t5 15.5q0 14 -35 97t-35 122q0 35 23 55.5
t59 20.5q37 0 60.5 -21t23.5 -57q0 -38 -34.5 -120t-34.5 -97q0 -23 18 -23q6 0 12 2.5t13 8t12 10.5t13 15t12.5 16t14 19t13.5 19q61 89 117 89q32 0 56 -24t24 -56q0 -80 -140 -92q-12 -1 -39 -3.5t-39.5 -4.5t-29 -6t-23 -11t-6.5 -18q0 -7 3.5 -12.5t12 -9t17 -6
t23 -4.5t25 -3t29 -3t29.5 -3q140 -16 140 -91q0 -32 -24.5 -55.5t-57.5 -23.5q-30 0 -58 23.5t-59 64.5q-21 31 -31.5 46t-26.5 29.5t-30 14.5q-20 0 -20 -25q0 -19 33.5 -99t33.5 -116t-23 -58t-59 -22z" />
    <glyph glyph-name="plus" unicode="+" horiz-adv-x="1216" 
d="M543 584v452h131v-452h450v-131h-450v-453h-131v453h-451v131h451z" />
    <glyph glyph-name="comma" unicode="," horiz-adv-x="446" 
d="M217 205h2q66 0 98.5 -55t32.5 -127q0 -135 -110 -289q-44 -63 -69.5 -86t-47.5 -23q-19 0 -19 23q0 8 9.5 21.5t31 39.5t35.5 45q70 94 70 183q0 20 -10 31.5t-21.5 15.5t-38.5 10q-69 14 -69 96q0 47 28 81t78 34z" />
    <glyph glyph-name="hyphen" unicode="-" horiz-adv-x="600" 
d="M121 528h403q27 0 27 -12q0 -8 -39 -98q-9 -21 -29 -21h-407q-27 0 -27 13q0 9 37 98q5 11 12 15.5t23 4.5z" />
    <glyph glyph-name="period" unicode="." horiz-adv-x="446" 
d="M119 92v2q0 45 30 80t74 35q46 0 75.5 -35.5t29.5 -81.5q0 -47 -29.5 -82t-75.5 -35q-45 0 -74.5 35.5t-29.5 81.5z" />
    <glyph glyph-name="slash" unicode="/" horiz-adv-x="618" 
d="M-45 -293h-57q-19 0 -19 8q0 3 21 56l673 1650q9 27 31 27h66q18 0 18 -10q0 -9 -20 -54l-674 -1650q-6 -17 -13.5 -22t-25.5 -5z" />
    <glyph glyph-name="zero" unicode="0" 
d="M49 641v2q0 154 32.5 283t87.5 213t126 130t149 46t149 -46t126.5 -130.5t88 -213.5t32.5 -284t-32.5 -284.5t-87.5 -214t-126 -131t-150 -46.5t-150 46.5t-125.5 131t-87 214t-32.5 284.5zM248 641v-2q0 -313 45 -461.5t151 -148.5t151.5 149t45.5 463q0 313 -46 461.5
t-151 148.5q-106 0 -151 -147t-45 -463z" />
    <glyph glyph-name="one" unicode="1" 
d="M381 221v879q0 57 -33 57q-17 0 -82 -27q-71 -30 -78 -30q-9 0 -15.5 7t-6.5 19q0 20 57 48q195 95 291 133q20 8 27 8q12 0 17 -7.5t5 -27.5v-1094q0 -75 20 -98.5t85 -28.5q42 -5 58.5 -11.5t16.5 -22.5q0 -19 -11.5 -26t-37.5 -7q-4 0 -75 4t-154 4q-81 0 -146 -4
t-67 -4q-28 0 -39.5 6.5t-11.5 24.5q0 19 14 25t64 11q70 4 86 31t16 131z" />
    <glyph glyph-name="two" unicode="2" 
d="M772 983v-2q0 -64 -19.5 -125t-65 -127t-75.5 -102t-96 -109q-11 -12 -16 -18q-21 -25 -67.5 -77t-79 -90.5t-58.5 -74.5q-47 -63 -47 -78q0 -12 51 -12q170 0 238 6q84 7 125.5 41.5t56.5 108.5q2 8 5 21.5t5 19.5t4.5 15t5 12.5t6 8t7.5 6t10 1.5q14 0 19 -14.5
t5 -59.5q0 -203 -2 -289q0 -33 -7 -43t-27 -10q-10 0 -80 4q-86 4 -154 4q-79 0 -212 -1t-189 -1q-33 0 -33 29q0 12 10.5 31.5t28.5 45t20 29.5q117 163 195 277q123 185 178 314t55 245q0 123 -52.5 190.5t-145.5 67.5q-51 0 -92.5 -24t-67 -62t-40.5 -78t-19 -80
q-3 -45 -35 -45q-27 0 -27 39q0 60 22 119t63.5 108.5t109.5 80t151 30.5q154 0 245 -90t91 -242z" />
    <glyph glyph-name="three" unicode="3" 
d="M811 369v-2q0 -135 -72.5 -265.5t-195 -213.5t-256.5 -83q-95 0 -157 42t-62 110q0 42 24 66t58 24q43 0 64 -25.5t38 -74.5q14 -43 34 -59.5t60 -16.5q70 0 132.5 55.5t100 149.5t37.5 200q0 164 -74 262.5t-194 98.5q-15 0 -30 -2t-26 -4.5t-25 -8.5t-21.5 -9.5
t-21 -12t-18 -11t-18 -12t-14.5 -10.5q-22 -16 -37 -16q-22 0 -22 22q0 21 20 41q37 35 123 113q10 9 36.5 32.5t37.5 33t34 31t33.5 33.5t29 33t27 35.5t20 35.5t17 39.5t9.5 41t4 45.5q0 68 -35.5 107t-99.5 39q-102 0 -170 -119q-10 -18 -20.5 -45.5t-18 -40t-17.5 -12.5
q-24 0 -24 31q0 18 9 47t33 68.5t58.5 72.5t93 56.5t129.5 23.5q110 0 184 -53t74 -154q0 -123 -151 -238q-84 -64 -145 -102q-39 -25 -39 -31q0 -8 8 -8q2 0 37.5 7t66.5 7q141 0 236.5 -101t95.5 -273z" />
    <glyph glyph-name="four" unicode="4" 
d="M825 424h-112q-19 0 -25 -5t-6 -26v-223q0 -66 16.5 -87.5t71.5 -27.5q36 -3 48.5 -10t12.5 -22q0 -18 -12.5 -24.5t-40.5 -6.5q-14 0 -81.5 4t-112.5 4q-64 0 -126.5 -4t-74.5 -4q-25 0 -35 7t-10 24q0 18 18 24.5t68 9.5q45 3 60.5 28t15.5 97v211q0 21 -6 26t-29 5
h-324h-65q-21 0 -29 8.5t-8 34.5q0 32 4.5 45.5t24.5 44.5q257 427 528 854q23 38 32.5 50.5t22.5 13.5h41q21 0 15 -15q-4 -9 -16 -28.5t-17 -28.5q-66 -106 -244 -383t-260 -410q-41 -66 -41 -92q0 -16 23 -16h315q21 0 27 9t6 38v377q0 14 5.5 20t22.5 12q8 3 44.5 18
t63.5 25.5t32 10.5q14 0 14 -31v-444q0 -20 6 -26.5t21 -6.5h116q14 0 19.5 -8t5.5 -29q0 -27 -5.5 -35t-19.5 -8z" />
    <glyph glyph-name="five" unicode="5" 
d="M784 416v-2q0 -136 -69 -244t-180 -184q-93 -65 -209 -101.5t-183 -36.5q-30 0 -30 25q0 13 16 21t51 16q173 31 293 135q133 120 133 295q0 183 -153 264q-108 63 -289 66q-28 3 -37.5 8.5t-9.5 19.5q0 21 8 54q10 44 31.5 135t40 174.5t34.5 165.5q8 34 17.5 42
t36.5 11q347 25 473 25q20 0 20 -15q0 -9 -4.5 -31.5t-11.5 -54t-10 -49.5q-3 -10 -12.5 -13.5t-45.5 -6.5q-130 -10 -352 -15q-42 -1 -58.5 -14.5t-25.5 -50.5q-47 -187 -47 -195q0 -14 12.5 -21t50.5 -8q232 -13 359 -102q151 -109 151 -313z" />
    <glyph glyph-name="six" unicode="6" 
d="M836 442v-2q0 -203 -104 -338t-265 -135q-121 0 -216 86.5t-144.5 222.5t-49.5 291q0 237 94.5 437.5t258.5 343.5q93 85 206 136.5t168 51.5q35 0 35 -25q0 -6 -5.5 -11t-16.5 -10t-22 -8.5t-28 -9.5t-28 -10q-93 -35 -174.5 -107.5t-147 -179t-103.5 -257t-38 -326.5
q0 -260 64 -413.5t159 -153.5q80 0 125 89.5t45 250.5q-1 165 -57.5 282.5t-124.5 122.5q-27 1 -47.5 -9t-30.5 -21.5t-20 -21.5t-19 -9q-14 3 -14 22q0 35 54.5 82t137.5 47q73 0 134 -40.5t97.5 -103.5t56.5 -134.5t20 -139.5z" />
    <glyph glyph-name="seven" unicode="7" 
d="M840 1268v-2q0 -8 -13 -37q-132 -304 -323 -881q-100 -290 -133 -397q-19 -64 -29 -74q-7 -8 -18 -8h-39q-9 0 -15 5t-6 13q2 12 33 99q48 141 169.5 491t176.5 514q19 65 19 84q0 14 -19 18.5t-82 4.5h-332q-62 0 -100 -11.5t-41 -11.5q-14 0 -14 58q0 87 2 112
q3 27 11 35t24 8q6 0 116 -4t234 -4q87 0 205.5 4t144.5 4q29 0 29 -20z" />
    <glyph glyph-name="eight" unicode="8" 
d="M465 1315h2q143 0 244.5 -84.5t101.5 -216.5q0 -29 -8.5 -56.5t-17.5 -46.5t-31 -41.5t-33 -33t-40.5 -29.5t-36 -22.5t-36.5 -20.5q-43 -24 -45 -35q3 -7 13.5 -12t41 -21.5t68.5 -44.5q51 -37 84.5 -72.5t56.5 -91.5t23 -125q0 -170 -119.5 -282.5t-302.5 -112.5
q-170 0 -281.5 99t-111.5 227q0 36 7.5 67.5t16 54.5t30 48.5t35 40t45.5 37.5t47 33t54 34q45 27 50 35q-3 6 -14 12.5t-35 23t-50 38.5q-57 42 -98 106.5t-41 147.5q0 149 105 246.5t276 97.5zM494 768h2q10 0 35.5 17t55.5 46.5t52.5 79t22.5 103.5q0 104 -54 173.5
t-155 69.5q-95 0 -148 -60.5t-53 -147.5q0 -76 35 -128t102 -100q67 -53 105 -53zM442 25h2q108 0 172 77t64 187q0 74 -32.5 127.5t-96.5 97.5q-52 38 -100 64t-64 26q-15 0 -46 -23t-64.5 -60.5t-58.5 -95.5t-25 -118q0 -56 14.5 -105t43 -89.5t78 -64t113.5 -23.5z" />
    <glyph glyph-name="nine" unicode="9" 
d="M55 846v2q0 200 106.5 333.5t266.5 133.5q88 0 165 -47.5t129 -127.5t82 -186t30 -221q0 -242 -106.5 -447.5t-281.5 -355.5q-88 -82 -194 -134t-148 -52q-28 0 -28 25q0 21 45 41q83 30 157 80t140.5 127t114.5 173.5t76 225t28 274.5q0 262 -67.5 411.5t-159.5 149.5
q-81 0 -123.5 -85.5t-42.5 -237.5q0 -171 55 -282.5t123 -113.5q32 -1 55.5 14t37.5 29.5t24 12.5q14 -4 14 -25q0 -36 -56.5 -82.5t-131.5 -46.5q-77 0 -138.5 40t-97.5 103.5t-55 133t-19 135.5z" />
    <glyph glyph-name="colon" unicode=":" horiz-adv-x="446" 
d="M223 639h-2q-44 0 -73 35.5t-29 81.5q0 47 28.5 81.5t75.5 34.5q45 0 75 -34.5t30 -81.5q0 -46 -29.5 -81.5t-75.5 -35.5zM223 -25h-2q-44 0 -73 35.5t-29 81.5t28.5 81.5t75.5 35.5q45 0 75 -35t30 -82t-29.5 -82t-75.5 -35z" />
    <glyph glyph-name="semicolon" unicode=";" horiz-adv-x="446" 
d="M223 639h-2q-44 0 -74 35.5t-30 81.5t29.5 81t76.5 35q44 0 73.5 -35t29.5 -81q0 -48 -28.5 -82.5t-74.5 -34.5zM217 205h2q66 0 98.5 -55t32.5 -127q0 -135 -110 -289q-44 -63 -69.5 -86t-47.5 -23q-19 0 -19 23q0 8 9.5 21.5t31 39.5t35.5 45q70 94 70 183q0 20 -10 31
t-22 15.5t-40 10.5q-67 14 -67 96q0 47 28 81t78 34z" />
    <glyph glyph-name="less" unicode="&#x3c;" horiz-adv-x="1216" 
d="M1128 121v-137l-1040 471v127l1040 471v-138l-874 -397z" />
    <glyph glyph-name="equal" unicode="=" horiz-adv-x="1216" 
d="M1124 786v-131h-1032v131h1032zM1124 381v-131h-1032v131h1032z" />
    <glyph glyph-name="greater" unicode="&#x3e;" horiz-adv-x="1216" 
d="M88 121l877 397l-877 397v138l1040 -471v-127l-1040 -471v137z" />
    <glyph glyph-name="question" unicode="?" horiz-adv-x="614" 
d="M100 1188v2q0 39 11 61q15 36 52 51t111 15q126 0 218 -96.5t92 -247.5q0 -94 -31 -159.5t-94 -133.5q-15 -17 -66.5 -69.5t-79.5 -84.5q-34 -38 -39 -52q-5 -13 -6 -34q-5 -77 -9.5 -95.5t-22.5 -18.5q-17 0 -24.5 12.5t-10.5 40.5q-15 117 -15 213q0 36 7 60t16 35
t29 30q111 111 164 187t53 157t-38.5 134.5t-88.5 53.5q-36 0 -60 -30t-45 -82q-2 -6 -7 -18t-7.5 -17.5t-7 -16t-7.5 -15.5t-7 -12.5t-8 -11t-8.5 -7.5t-9 -5.5t-9.5 -1.5q-30 0 -41 33.5t-11 122.5zM238 -23h-2q-44 0 -72.5 35t-28.5 80q0 47 29 82t76 35q45 0 72.5 -35
t27.5 -82t-27.5 -81t-74.5 -34z" />
    <glyph glyph-name="at" unicode="@" horiz-adv-x="1611" 
d="M1217 985l-127 -496q-7 -40 -7 -55q0 -84 76 -84q74 0 134 64.5t90 156t30 185.5q0 96 -39 188.5t-109 166.5t-180 119.5t-241 45.5q-118 0 -223 -47t-183 -130t-123 -204.5t-45 -263.5q0 -123 44 -230.5t121.5 -185.5t191 -123t245.5 -45q64 0 116 6.5t104 24t76 27.5
t85 38l29 -63q-113 -53 -212 -82t-206 -29q-151 0 -278.5 40.5t-213 107t-145.5 153.5t-87 177.5t-27 181.5q0 158 58 293t157 227.5t233 144.5t283 52q141 0 263.5 -44.5t208 -122.5t134.5 -187t49 -234q0 -78 -25 -160t-70.5 -153t-118 -116.5t-157.5 -45.5q-46 0 -84 18
t-57 42.5t-29 46.5t-8 34h-6q-24 -41 -88.5 -90.5t-140.5 -50.5q-89 0 -141 59.5t-52 189.5q0 45 15 104.5t48 125.5t77.5 121.5t112 92t143.5 36.5q26 0 47.5 -7t34 -14t26 -25.5t18 -26t15.5 -30.5l20 76h138zM672 537v-2q0 -81 33.5 -121.5t87.5 -40.5q71 0 144 119
t89 303q0 127 -86 127q-37 0 -82.5 -28t-87.5 -75.5t-70 -122.5t-28 -159z" />
    <glyph glyph-name="A" unicode="A" horiz-adv-x="937" 
d="M526 442h-241q-27 0 -38.5 -14t-25.5 -72q-10 -39 -21 -80t-16.5 -62t-10.5 -42.5t-7 -34t-2 -22.5q0 -51 74 -64q46 -8 55 -16q6 -6 6 -17q0 -16 -9.5 -21t-29.5 -5q-16 0 -62.5 4t-70.5 4q-31 0 -79.5 -4t-53.5 -4q-31 0 -31 26q0 23 37 31q28 5 46 19t30 53
q113 347 303 1055q3 15 10 40.5t10 36.5q5 27 17.5 41.5t42.5 14.5q28 0 38.5 -10t18.5 -37q238 -785 340 -1115q26 -88 72 -98q4 -1 15 -4t16.5 -5t12.5 -5.5t10 -8.5t3 -12q0 -22 -49 -22q-27 0 -82.5 4t-85.5 4q-31 0 -91 -4t-83 -4q-45 0 -45 26q0 29 53 33q19 1 31 4.5
t22.5 15t10.5 31.5q0 12 -8 40t-26.5 91t-33.5 119q-18 61 -29 75.5t-43 14.5zM307 504h193q41 0 41 18q0 4 -9 45q-60 189 -102 342q-14 54 -31 54q-9 0 -15 -14.5t-17 -59.5q-38 -147 -84 -309q-13 -53 -13 -62q0 -14 37 -14z" />
    <glyph glyph-name="B" unicode="B" horiz-adv-x="1034" 
d="M170 152v960q0 58 -18.5 81t-67.5 24q-40 0 -47 4q-8 3 -8 14q0 31 84 45q140 33 323 33q218 0 342 -68q137 -77 137 -239q0 -107 -69.5 -177t-183.5 -104v-6q52 -7 94 -23q101 -36 163 -118.5t62 -210.5q0 -177 -111 -279q-105 -96 -290 -96q-45 0 -142 4t-143 4
t-117.5 -4t-85.5 -4q-45 0 -45 31q0 7 3.5 12t11 8.5t14 5.5t17 4t16.5 4q39 6 50 25t11 70zM365 1171v-395q0 -25 10.5 -31t48.5 -6q100 0 164 29q119 55 119 231q0 118 -57.5 186t-160.5 68q-75 0 -99.5 -18t-24.5 -64zM365 647v-452q0 -76 31 -110t116 -34q139 0 203 105
q51 77 51 217q0 125 -64 205q-80 102 -235 102q-67 0 -83 -5.5t-19 -27.5z" />
    <glyph glyph-name="C" unicode="C" horiz-adv-x="999" 
d="M936 350l-4 -235q0 -36 -8 -50t-33 -28q-46 -29 -125.5 -48.5t-157.5 -19.5q-243 0 -395 186.5t-152 485.5q0 297 153.5 484.5t401.5 187.5q75 0 149.5 -19t115.5 -39q17 -9 21.5 -21t6.5 -50q6 -56 6 -180q0 -50 -5 -64t-21 -14q-20 0 -32 21t-40 95q-77 211 -221 211
q-131 0 -219 -150.5t-88 -440.5q0 -165 27.5 -290.5t74.5 -198.5t103.5 -108.5t119.5 -35.5q163 0 226 243q28 105 35 119q11 18 24 19q20 0 28.5 -12t8.5 -48z" />
    <glyph glyph-name="D" unicode="D" horiz-adv-x="1159" 
d="M180 178v950q0 40 -11 57t-42 21q-9 1 -30.5 0t-33.5 0q-34 3 -34 23q0 16 13.5 23.5t66.5 21.5q133 39 366 39q290 0 451 -178q168 -174 168 -473q0 -145 -32 -263.5t-98 -211t-177 -144t-259 -51.5q-40 0 -133 4t-145 4q-41 0 -100.5 -4t-77.5 -4q-39 0 -39 28
q0 19 11.5 24.5t51.5 12.5q50 6 67 31t17 90zM377 1141v-944q0 -74 30 -111t105 -37q183 0 270 154q92 145 92 438q0 160 -29 279.5t-81.5 190.5t-119 105.5t-148.5 34.5q-74 0 -96.5 -23t-22.5 -87z" />
    <glyph glyph-name="E" unicode="E" horiz-adv-x="980" 
d="M180 172v965q0 48 -15 65.5t-50 24.5q-8 2 -21 4l-19.5 3t-13.5 4t-9.5 7.5t-2.5 11.5q0 31 53 31q17 0 126.5 -4t209.5 -4q101 0 232 4t159 4q31 0 39.5 -13t8.5 -65q0 -53 -1.5 -126t-1.5 -95q0 -26 -5.5 -36.5t-20.5 -10.5q-23 0 -37 39q-3 9 -12.5 33t-12.5 35
q-26 64 -57.5 101t-85 57t-135.5 20q-78 0 -107 -13q-26 -9 -26 -53v-405q0 -31 13.5 -37t76.5 -6q98 0 134.5 18t51.5 74q3 10 6 21t5 17.5t4 14t3.5 11.5t3.5 8.5t4 6.5t4.5 4t5.5 2.5t7 0.5q14 0 19.5 -9.5t5.5 -35.5q0 -28 -4 -83t-4 -81q0 -32 4 -99t4 -96
q0 -36 -25 -36q-14 0 -21.5 15.5t-17.5 57.5q-21 76 -55 101.5t-121 25.5q-69 0 -86.5 -7.5t-17.5 -33.5v-426q0 -72 40.5 -101.5t133.5 -29.5q68 0 115 13t80 43.5t54 72.5t40 109q12 44 22 60t25 16q18 0 20 -17q6 -30 6 -162q-3 -80 -6 -139q0 -19 -3 -30.5t-11 -17
t-15.5 -6.5t-21.5 -1q-78 0 -238 4q-43 0 -119 1t-108 1q-55 0 -151.5 -4t-137.5 -4q-31 0 -45 7t-14 26q0 14 12 20.5t41 11.5q54 6 70 29t16 86z" />
    <glyph glyph-name="F" unicode="F" horiz-adv-x="874" 
d="M373 596v-408q0 -76 18.5 -102t75.5 -31q50 -5 66 -10.5t16 -21.5q0 -18 -10 -24.5t-37 -6.5q-13 0 -79 4t-142 4q-69 0 -129.5 -4t-73.5 -4q-23 0 -34 6.5t-11 26.5q0 14 10.5 19.5t42.5 12.5q60 7 75 27t15 86v940q0 63 -12.5 86t-54.5 27q-9 2 -21.5 4t-18.5 2.5
t-13.5 2.5t-10.5 3.5t-6.5 4.5t-4.5 7t-1 10q0 31 49 31q27 0 131 -4t168 -4q85 0 215 4t184 4q44 0 54 -14t10 -78q0 -152 -2 -199q-1 -31 -6.5 -41t-18.5 -10q-17 0 -24.5 13t-20 52.5t-27.5 71.5q-37 78 -98 111t-168 33q-67 0 -86.5 -11.5t-19.5 -46.5v-421
q0 -29 12 -36t64 -7q96 0 133.5 20t52.5 76q19 72 25 81q8 9 20 9q13 0 17.5 -10.5t4.5 -38.5q0 -19 -4 -73.5t-4 -92.5q0 -31 4 -97t4 -94q0 -39 -24 -39q-14 0 -21.5 15.5t-17.5 56.5q-19 76 -53.5 100.5t-124.5 24.5q-60 0 -74 -7.5t-14 -39.5z" />
    <glyph glyph-name="G" unicode="G" horiz-adv-x="1134" 
d="M977 461v-342q0 -26 -8 -39q-12 -26 -47 -43q-111 -68 -299 -68q-165 0 -293 82.5t-198.5 229.5t-70.5 333q0 158 49.5 291.5t132.5 221.5t190.5 137t223.5 49q176 0 267 -51q19 -9 24.5 -30.5t7.5 -84.5v-146q-2 -38 -7.5 -49.5t-24.5 -11.5q-16 0 -27.5 18.5
t-36.5 75.5q-22 54 -40 89t-44.5 67t-60.5 47.5t-78 15.5q-104 0 -184.5 -82.5t-123 -221t-42.5 -306.5q0 -293 93.5 -453.5t258.5 -160.5q94 0 127 57q18 30 18 104v248q0 53 -9.5 79t-24 32.5t-48.5 11.5q-39 3 -53 9t-14 26q0 27 47 27q4 0 72 -4.5t120 -4.5
q53 0 109 4.5t68 4.5q45 0 45 -27q0 -9 -2 -14t-8 -8t-12.5 -4.5t-20 -4.5t-25.5 -6q-30 -8 -40.5 -25t-10.5 -73z" />
    <glyph glyph-name="H" unicode="H" horiz-adv-x="1163" 
d="M776 651h-389q-19 0 -24 -6.5t-5 -28.5v-462q0 -52 14.5 -72t51.5 -25q42 -9 50 -20q5 -7 5 -17q0 -28 -41 -28q-13 0 -64.5 4t-107.5 4q-62 0 -121 -4t-75 -4q-37 0 -37 35q0 22 39 28q60 9 75 28.5t15 78.5v975q0 36 -6 54.5t-16.5 24.5t-33.5 11q-12 3 -25.5 6
t-19.5 4.5t-12 4t-8 7t-2 11.5q0 28 43 28q16 0 81 -4t99 -4q36 0 94 4t78 4q25 0 35 -7t10 -24q0 -6 -1 -10.5t-4.5 -8t-6 -5.5t-9 -3.5t-10 -2t-13.5 -2t-15 -2.5q-34 -3 -48 -20t-14 -60v-393q0 -19 5.5 -25t23.5 -6h389q19 0 24 7t5 30v374q0 52 -13.5 71.5t-50.5 25.5
q-50 8 -57 16q-4 5 -4 12q0 33 47 33q18 0 74.5 -4t103.5 -4q61 0 117.5 4t71.5 4q34 0 34 -26q0 -19 -17.5 -27.5t-51.5 -11.5q-33 -3 -46.5 -18.5t-13.5 -51.5v-995q0 -51 11.5 -73t42.5 -28q10 -4 32 -9.5t30.5 -11.5t8.5 -18q0 -26 -39 -26q-15 0 -75 4t-109 4
q-50 0 -99.5 -4t-64.5 -4q-31 0 -42 7t-11 26q0 13 11 18.5t46 13.5q39 6 51.5 25.5t12.5 69.5v466q0 21 -5.5 27t-23.5 6z" />
    <glyph glyph-name="I" unicode="I" horiz-adv-x="618" 
d="M406 1130v-960q0 -59 13.5 -83t57.5 -30q4 -1 13 -2.5t12.5 -2.5t11 -2.5t11 -3t9 -4t8.5 -5t6 -5.5t4 -7t1 -9q0 -24 -49 -24q-5 0 -60 4t-135 4q-78 0 -133 -4t-63 -4q-14 0 -19.5 0.5t-13.5 2.5t-11 8.5t-3 16.5q0 15 15 22t47 13q7 1 11 2q48 7 59 24.5t11 80.5v968
q0 54 -12 71t-52 22q-13 2 -30 4t-23.5 3t-14 4t-9.5 8.5t-2 14.5q0 31 47 31q27 0 91 -4t105 -4q44 0 109.5 4t89.5 4q47 0 47 -31q0 -23 -62 -31q-5 -1 -7.5 -1t-6.5 -1t-8 -1q-38 -4 -51.5 -24.5t-13.5 -68.5z" />
    <glyph glyph-name="J" unicode="J" horiz-adv-x="542" 
d="M383 1059v-844q0 -145 -26 -239t-101 -201q-60 -84 -138.5 -135.5t-158.5 -51.5q-68 0 -105.5 37t-37.5 94q0 46 27.5 75.5t70.5 29.5q71 0 92 -76q1 -6 4 -20t5 -20.5t6 -15t11 -12.5t17 -4q32 0 60.5 33.5t46.5 85.5q30 79 30 283v1032q0 69 -15 88.5t-67 24.5
q-63 6 -72 15q-7 6 -7 19q0 31 55 31q21 0 93.5 -4t121.5 -4q55 0 115 4t75 4q47 0 47 -31q0 -9 -2.5 -14.5t-10 -8t-14.5 -4t-22 -3.5t-26 -4q-52 -9 -63 -37t-11 -127z" />
    <glyph glyph-name="K" unicode="K" horiz-adv-x="1042" 
d="M176 174v942q0 63 -9 83t-42 24q-9 2 -25 5t-22 4.5t-14 5t-10.5 9t-2.5 13.5q0 28 41 28q16 0 78.5 -4t110.5 -4q39 0 96 4t80 4q39 0 39 -31q0 -9 -2 -14t-8 -8t-11.5 -4t-19 -3.5t-23.5 -4.5q-34 -6 -46.5 -23.5t-12.5 -56.5v-385q0 -60 8 -60t41 45q15 19 69 86
t104 130.5t85 111.5q55 82 55 107t-14 35.5t-45 15.5q-18 2 -27.5 4.5t-16.5 9t-7 17.5q0 28 43 28q22 0 77 -4t84 -4q33 0 86 4t68 4q45 0 45 -28q0 -7 -2 -12t-9 -7.5t-11.5 -4t-18 -4t-20.5 -3.5q-73 -10 -168 -113q-117 -123 -185 -219q-32 -49 -32 -61q0 -7 26 -58
q5 -10 269 -520q67 -125 92.5 -159t56.5 -42q6 -2 20 -6t19 -6.5t10.5 -8.5t5.5 -16q0 -28 -43 -28q-22 0 -79.5 4t-92.5 4q-41 0 -100.5 -4t-75.5 -4q-26 0 -36.5 6.5t-12.5 21.5q0 11 7.5 17.5t15.5 8.5t24 5q17 4 25.5 7t17 13t8.5 25q-4 28 -57 131q-126 241 -199 375
q-29 60 -45 60q-13 0 -39 -31t-26 -53v-404q0 -66 15 -92t46 -29q3 0 11.5 -1t11.5 -1.5t10 -2t10 -2.5t7.5 -3.5t6.5 -5.5t3.5 -7.5t1.5 -9.5q0 -17 -13 -22.5t-41 -5.5q-17 0 -71.5 4t-96.5 4q-49 0 -104 -4t-76 -4q-43 0 -43 31q0 15 10.5 21.5t40.5 12.5q49 6 61.5 25.5
t12.5 91.5z" />
    <glyph glyph-name="L" unicode="L" horiz-adv-x="862" 
d="M180 164v926q0 79 -12.5 104.5t-50.5 28.5q-63 7 -74 15q-8 8 -8 19q0 31 45 31q19 0 83.5 -4t127.5 -4q53 0 118.5 4t75.5 4q41 0 41 -26q0 -8 -3 -13.5t-11.5 -9t-15.5 -5.5t-22.5 -4.5t-24.5 -4.5q-48 -7 -61 -25.5t-13 -75.5v-921q0 -83 28 -116.5t107 -33.5
q102 0 163.5 60t96.5 170q15 48 23 63.5t22 15.5t19.5 -13t5.5 -58q0 -35 -1 -73.5t-2.5 -85.5t-2.5 -73q-1 -44 -7.5 -55.5t-25.5 -11.5q-37 0 -171.5 4t-283.5 4q-86 0 -167 -4t-99 -4q-47 0 -47 28q0 17 15.5 24.5t53.5 12.5q47 4 62.5 26.5t15.5 80.5z" />
    <glyph glyph-name="M" unicode="M" horiz-adv-x="1374" 
d="M872 18v2q0 18 16.5 25t59.5 12q47 4 58.5 28.5t11.5 100.5q0 216 -23 846q-5 39 -10 41q-2 0 -4 -1.5t-3.5 -4.5l-3 -6t-3.5 -9t-4 -10q-41 -106 -260 -806q-9 -29 -17 -58t-13 -48l-10 -38t-8.5 -30.5t-7.5 -22t-7 -16t-7.5 -10t-9 -6t-11.5 -1.5q-18 0 -27 18t-24 85
q-46 171 -137 476t-139 455q-10 29 -21 29q-2 0 -3 -1t-2 -3t-1.5 -4.5t-1.5 -7t-1.5 -8t-1 -10t-1.5 -11.5q-27 -372 -27 -700q0 -156 13 -204q16 -57 55 -63q4 -1 22.5 -3.5t26 -4t19.5 -5.5t17 -10t5 -14q0 -28 -41 -28q-16 0 -61.5 4t-89.5 4q-41 0 -87 -4t-55 -4
q-17 0 -25 5.5t-8 22.5q0 9 3 14.5t10.5 9t14 4.5t18.5 3t20 4q41 8 55 43t19 117q35 639 35 868q2 87 -8.5 111t-61.5 31q-19 2 -26.5 3.5t-19.5 4.5t-17 9t-5 15q0 20 14.5 25.5t41.5 5.5q21 0 71.5 -3t73.5 -3q18 0 61.5 3t59.5 3q18 0 26 -7t15 -30q114 -375 225 -747
q29 -107 43 -107t41 88q156 500 234 748q9 30 19.5 42.5t27.5 12.5q14 0 57 -3t63 -3t71 3t73 3q43 0 43 -28q0 -19 -19 -26.5t-67 -10.5q-28 -3 -37.5 -28.5t-9.5 -94.5q0 -115 14 -479.5t16 -454.5q0 -56 14.5 -81t45.5 -28q59 -14 68 -23q6 -6 6 -16q0 -16 -11.5 -21
t-36.5 -5q-15 0 -74 4t-112 4q-46 0 -111 -4t-83 -4q-48 0 -48 26z" />
    <glyph glyph-name="N" unicode="N" horiz-adv-x="1124" 
d="M164 174v942q0 58 -13 81t-51 26q-50 7 -58 15q-7 6 -7 19q0 31 53 31q17 0 58 -3t61 -3q21 0 62 3t55 3q7 0 12.5 -1t10.5 -5t8 -7t8.5 -11.5t8.5 -14t10.5 -20t12.5 -23.5q368 -656 453 -794q30 -53 41 -58q8 0 8 27v702q0 78 -17 107.5t-59 32.5q-37 5 -53 11.5
t-16 22.5q0 13 9 22t23 9q8 0 54 -4t94 -4q27 0 70 4t61 4q37 0 37 -28q0 -13 -9 -20.5t-19 -10t-35 -5.5q-2 0 -3.5 -0.5t-3.5 -0.5q-40 -4 -53.5 -28.5t-13.5 -82.5v-1100q0 -36 -5.5 -43.5t-35.5 -7.5q-25 0 -37.5 13.5t-44.5 72.5q-38 65 -49 84q-52 93 -231 402.5
t-273 480.5q-30 63 -45 65q-13 -7 -13 -41v-757q0 -126 15.5 -173t60.5 -53q11 -2 27 -4.5t25.5 -4t19 -4.5t14 -9.5t4.5 -16.5q0 -24 -37 -24q-6 0 -48.5 4t-100.5 4q-51 0 -100 -4t-60 -4q-29 0 -29 24q0 12 11.5 19t40.5 13.5t30 6.5q38 9 50 34.5t12 84.5z" />
    <glyph glyph-name="O" unicode="O" horiz-adv-x="1171" 
d="M61 647v2q0 183 72.5 336.5t193 240.5t259.5 87q144 0 264 -90t189 -245.5t69 -340.5t-71.5 -339.5t-191.5 -241.5t-261 -87q-140 0 -260 90t-191.5 246.5t-71.5 341.5zM879 602v2q0 136 -17.5 247.5t-47 185t-69 123.5t-81.5 71.5t-86 21.5q-56 0 -106 -32.5t-92 -98
t-66.5 -180t-24.5 -264.5q0 -136 17 -246.5t46 -184t68.5 -124t82.5 -72.5t89 -22q42 0 82 19.5t77.5 63.5t65.5 109t45 163t17 218z" />
    <glyph glyph-name="P" unicode="P" horiz-adv-x="1005" 
d="M381 553v-385q0 -60 14 -84.5t54 -28.5q8 -1 19.5 -2.5t17.5 -2t14.5 -1.5t13 -2t10 -3t8 -3.5t5 -4t3.5 -6t1 -7.5q0 -31 -45 -31q-14 0 -77 4t-130 4t-125 -4t-68 -4q-25 0 -35 5t-10 21q0 19 14 26t60 13q35 1 47 22.5t12 74.5v964q0 60 -14 82t-51 25q-53 6 -60.5 12
t-7.5 20q0 31 35 31q29 0 99 -4t110 -4q41 0 130 4t134 4q184 0 288.5 -105.5t104.5 -269.5q0 -152 -105 -252t-259 -100q-66 0 -119 17q-50 12 -63 12q-16 0 -20.5 -8t-4.5 -29zM381 1147v-428q0 -42 22 -62q35 -28 97 -28q114 0 178.5 79.5t64.5 213.5q0 138 -65 222.5
t-193 84.5q-61 0 -82.5 -18.5t-21.5 -63.5z" />
    <glyph glyph-name="Q" unicode="Q" horiz-adv-x="1171" 
d="M61 645v2q0 185 73 339t194 240.5t260 86.5q107 0 203.5 -53.5t166 -144.5t110 -216.5t40.5 -263.5q0 -234 -112.5 -413t-282.5 -234q-28 -7 -33 -8q8 -16 12 -43q20 -126 93.5 -199.5t177.5 -73.5q43 0 90 21.5t51 21.5q24 0 24 -29q0 -33 -69 -61.5t-146 -28.5
q-114 0 -212 39.5t-160 117.5t-62 179q0 29 10 56q-40 6 -86 28q-149 77 -245.5 247t-96.5 390zM592 27h2q53 0 102 32t91 97t67 179.5t25 264.5q0 170 -25.5 300t-69 205t-95.5 111.5t-111 36.5q-44 0 -84.5 -20t-78 -64t-65.5 -109t-44.5 -162.5t-16.5 -215.5
q0 -324 87 -489.5t216 -165.5z" />
    <glyph glyph-name="R" unicode="R" horiz-adv-x="1112" 
d="M389 561v-399q0 -52 14.5 -76t57.5 -31q61 -12 70 -18q10 -8 10 -19q0 -26 -47 -26q-8 0 -68 4t-129 4q-71 0 -131.5 -4t-73.5 -4q-26 0 -38.5 5t-12.5 21t13.5 22t51.5 12q4 0 6.5 0.5t6.5 1t8 1.5q39 4 52.5 28t13.5 87v938q0 64 -12.5 87.5t-53.5 29.5q-9 2 -22.5 3.5
t-22 3t-17 4t-12.5 8t-4 13.5q0 31 49 31q30 0 93.5 -4t101.5 -4q48 0 137.5 4t136.5 4q181 0 292.5 -90t111.5 -237q0 -185 -168 -271q-34 -19 -72 -29t-43 -14l7 -4q7 -4 9 -5.5t8.5 -6.5t10.5 -10t9.5 -12t11 -16t10.5 -20q43 -87 98 -215.5t72 -164.5q23 -47 34.5 -67.5
t32 -43t41.5 -27.5q7 -2 21 -4.5t22.5 -4.5t18.5 -5.5t15 -9t5 -13.5q0 -26 -39 -26q-13 0 -52.5 3t-68.5 3q-22 0 -65 -3t-60 -3q-21 0 -33 18t-36 73q-2 5 -3.5 7.5t-3 7t-3.5 8.5q-18 42 -72 174.5t-96 231.5q-27 58 -51 75t-82 17q-37 0 -48.5 -8.5t-11.5 -34.5z
M389 1133v-431q0 -25 11.5 -31.5t62.5 -6.5q58 0 110 17.5t94.5 51t67.5 89.5t25 126q0 139 -65 210t-187 71q-77 0 -98 -19t-21 -77z" />
    <glyph glyph-name="S" unicode="S" horiz-adv-x="882" 
d="M821 369v-2q0 -179 -122.5 -288.5t-315.5 -109.5q-79 0 -157.5 17t-116.5 45q-17 17 -24.5 51t-8.5 108q0 136 8 179q1 17 8 23.5t21 6.5q13 0 21 -8t11 -17.5t7 -27.5q38 -157 101 -238t161 -81q96 0 159.5 71t63.5 176q0 103 -56.5 173t-162.5 135q-17 9 -50.5 31
t-37.5 24q-55 35 -91 64.5t-73.5 72.5t-56.5 96t-19 117q0 95 56 171t142.5 115.5t184.5 39.5q67 0 140.5 -16.5t107.5 -36.5q13 -7 16.5 -18.5t5.5 -47.5q2 -33 2 -139q0 -68 -4.5 -85.5t-25.5 -17.5q-8 0 -14 3.5t-9.5 12t-6 15.5t-5.5 21.5t-6 23.5q-34 116 -86.5 171.5
t-128.5 55.5t-131.5 -52t-55.5 -132q0 -46 16 -87.5t37.5 -70t61 -60t69 -50t78.5 -47.5q20 -11 29 -17q46 -29 77 -51t68.5 -57t59.5 -70t37.5 -85t15.5 -107z" />
    <glyph glyph-name="T" unicode="T" horiz-adv-x="987" 
d="M397 178v1006q0 24 -13.5 30.5t-66.5 6.5q-78 0 -122.5 -42.5t-83.5 -125.5q-5 -12 -13.5 -33.5t-13 -32.5t-11.5 -23.5t-13.5 -18t-14.5 -5.5q-15 0 -21 9.5t-6 35.5q0 4 1 11.5t2 19t2 20.5q22 156 40 240q9 39 17 57.5t22 18.5q9 0 16.5 -6t10 -10.5t8.5 -16.5
q17 -39 58 -39h604q51 0 73 8t33 27l6 9t5.5 9t5.5 7.5t7.5 6.5t8 3.5t10.5 1.5q14 0 19.5 -13.5t7.5 -44.5q0 -12 -1 -34t-1 -33q-4 -117 -10 -211q-5 -78 -37 -78q-8 0 -14 5.5t-10.5 18t-7.5 22.5t-7.5 31.5t-7.5 31.5q-11 42 -20.5 67t-27.5 51.5t-46.5 39.5t-69.5 14
h-74q-31 0 -40 -7.5t-9 -31.5v-1014q0 -58 14.5 -82t50.5 -27q6 -1 16 -2.5t15 -2.5t13 -2.5t12 -2.5t10 -3t9 -4t6 -5t4 -7t1 -8q0 -13 -8 -19.5t-16 -7.5t-23 -1q-11 0 -72 4t-128 4q-76 0 -138 -4t-69 -4q-45 0 -45 28q0 16 15 24.5t60 12.5q49 3 63.5 27.5t14.5 93.5z
" />
    <glyph glyph-name="U" unicode="U" horiz-adv-x="1120" 
d="M358 1102v-778q0 -142 52 -209q33 -43 87.5 -64.5t112.5 -21.5q163 0 240 118q49 77 49 220v698q0 92 -19.5 124t-72.5 34q-43 5 -51 14q-6 8 -6 20q0 14 11 22.5t30 8.5q13 0 54.5 -4t76.5 -4q44 0 87.5 4t53.5 4q33 0 33 -31q0 -8 -3 -13t-10.5 -8.5t-13 -5t-19 -4
t-20.5 -3.5q-40 -7 -51.5 -33.5t-11.5 -104.5v-696q0 -187 -78 -287q-98 -133 -322 -133q-185 0 -293 82q-110 85 -110 271v804q0 60 -10.5 78.5t-49.5 22.5q-36 5 -48.5 11t-12.5 24q0 26 43 26q29 0 89.5 -4t92.5 -4q50 0 111.5 4t79.5 4q19 0 28.5 -1t17 -7.5t7.5 -19.5
q0 -16 -15 -22t-53 -11q-25 -3 -38.5 -7t-26 -16.5t-17 -37t-4.5 -64.5z" />
    <glyph glyph-name="V" unicode="V" horiz-adv-x="933" 
d="M410 1257v-2q0 -4 -0.5 -7t-2.5 -5.5t-4 -4t-6.5 -3t-8 -2.5t-10 -2.5t-12 -2t-14.5 -2.5t-16 -3q-19 -3 -33 -17t-14 -35t20 -88l183 -604q44 -149 57 -149q9 0 23.5 45.5t52.5 193.5l135 467q22 95 22 133q0 50 -57 56q-36 3 -49.5 8.5t-13.5 21.5q0 33 40 33
q9 0 49.5 -4t71.5 -4q20 0 55.5 4t51.5 4q20 0 28.5 -6.5t8.5 -24.5q0 -9 -9 -16t-17.5 -10t-29.5 -8q-28 -8 -48 -59q-9 -20 -27 -80q-5 -14 -7 -21q-112 -377 -286 -1008q-5 -21 -9.5 -32.5t-11.5 -24t-17.5 -18t-25.5 -5.5q-28 0 -40 17.5t-23 66.5q-28 112 -78.5 284.5
t-132 438t-107.5 353.5q-16 47 -28 67t-35 23q-58 11 -58 35q0 28 37 28q22 0 78.5 -4t95.5 -4q45 0 107.5 4t79.5 4q35 0 35 -31z" />
    <glyph glyph-name="W" unicode="W" horiz-adv-x="1429" 
d="M737 528l-180 -499q-8 -23 -11.5 -31.5t-13.5 -16.5t-26 -8q-22 0 -32.5 17.5t-27.5 68.5l-350 1051q-20 60 -37.5 85t-40.5 30q-3 1 -11 3t-11 3t-9 3.5t-8.5 4t-6 4.5t-4.5 6.5t-1 7.5q0 31 37 31q30 0 84 -4t78 -4q29 0 78.5 4t70.5 4q23 0 33 -6.5t10 -24.5
q0 -16 -9 -21t-27 -7q-43 -9 -43 -45q0 -26 24 -103l232 -682q31 -88 43 -88t28 47l82 220q17 49 17 57q0 6 -4.5 21t-13 38t-11.5 33l-146 418q-28 74 -65 80q-16 2 -23.5 4.5t-13.5 9t-6 18.5q0 31 49 31q14 0 61.5 -4t79.5 -4q34 0 82 4t60 4q37 0 37 -31
q0 -14 -10.5 -20.5t-35.5 -11.5q-30 -4 -30 -41q0 -16 12.5 -58.5t31.5 -98t23 -69.5q21 -63 31 -63q7 0 33 72q69 185 69 219q0 36 -38 43q-37 4 -37 31q0 28 30 28q10 0 42 -4t49 -4q23 0 61 4t49 4q12 0 20.5 -7.5t8.5 -20.5q0 -12 -6 -18.5t-14 -9t-23 -3.5
q-52 -11 -82 -88l-96 -250q-31 -77 -31 -84q0 -5 20 -68l115 -338q25 -77 35 -77q9 0 33 84l206 665q21 73 21 109q0 23 -13.5 32t-37.5 13q-18 3 -26 4.5t-15.5 8t-7.5 17.5q0 31 32 31q16 0 55 -4t62 -4q21 0 56 4t49 4q34 0 34 -28q0 -16 -10 -22t-35 -11q-28 -4 -47 -38
t-43 -106l-332 -1054q-7 -22 -10.5 -30.5t-13 -17t-25.5 -8.5q-15 0 -24 6.5t-13 15t-10 28.5l-162 505h-4z" />
    <glyph glyph-name="X" unicode="X" horiz-adv-x="1011" 
d="M569 20v3q0 25 45 32q76 11 76 51q0 7 -4.5 20t-13 32t-17 37.5t-21 44.5t-20.5 43q-82 169 -110 219.5t-39 50.5q-16 0 -131 -223l-24.5 -49t-21 -41.5t-15.5 -32t-12.5 -28t-7.5 -20.5t-5.5 -20t-1.5 -16q0 -34 17.5 -48.5t53.5 -19.5q24 -3 33 -4.5t20 -9t11 -21.5
q0 -28 -41 -28q-7 0 -66.5 4t-93.5 4t-91.5 -4t-70.5 -4q-43 0 -43 28q0 26 50 37q43 10 68 26.5t59 64t90 149.5q38 70 86 159.5t63 116.5q27 62 27 70q0 10 -27 62q-89 161 -192 356q-60 105 -85 132t-67 32q-19 3 -27 4.5t-16 9t-8 21.5q0 13 10.5 20.5t26.5 7.5
q14 0 75.5 -4t118.5 -4q71 0 135 4t70 4q35 0 35 -28q0 -17 -13.5 -23.5t-47.5 -11.5q-54 -6 -54 -33q0 -13 13.5 -43t66.5 -137q105 -207 123 -207q15 0 100 168q53 105 68.5 141.5t15.5 61.5q0 43 -53 49q-35 3 -48 9.5t-13 22.5q0 31 37 31q12 0 70 -4t114 -4
q24 0 70.5 4t68.5 4q16 0 26.5 -8.5t10.5 -22.5q0 -8 -3 -13.5t-11 -8.5t-15 -4t-21 -3.5t-24 -4.5q-53 -9 -98.5 -60.5t-130.5 -204.5q-88 -164 -94 -176q-27 -53 -27 -63t33 -70q131 -240 196 -366q50 -101 78.5 -146.5t46.5 -59.5t49 -22q21 -3 31 -10.5t10 -24.5
q0 -28 -36 -28q-20 0 -85.5 4t-105.5 4t-106 -4t-95 -4q-45 0 -45 28z" />
    <glyph glyph-name="Y" unicode="Y" horiz-adv-x="942" 
d="M373 164v364q0 29 -6 49t-27 62q-26 56 -71 154t-83 179.5t-73 151.5q-30 56 -50.5 75t-52.5 24q-3 1 -11 2.5t-11 2t-8.5 2.5t-8 3.5t-5.5 4.5t-4 6.5t-1 8.5q0 17 11.5 26t29.5 9q20 0 78 -4t98 -4q59 0 125.5 4t75.5 4q16 0 28.5 -8.5t12.5 -22.5q0 -8 -2.5 -13.5
t-9 -8.5t-11 -4.5t-17 -3t-18.5 -2.5q-34 -8 -46.5 -16.5t-12.5 -30.5q0 -7 3.5 -18t12 -31.5t18 -41.5t27 -61.5t33.5 -77.5q112 -266 138 -266q11 0 27 28t65 131q18 37 28 58q113 232 113 272q0 25 -18 36.5t-62 17.5q-40 6 -46 16q-3 4 -3 10q0 37 45 37q22 0 67.5 -4
t69.5 -4q35 0 73.5 4t53.5 4q33 0 33 -31q0 -7 -1.5 -12t-3 -8t-7 -5.5t-7.5 -3.5t-10.5 -2.5t-11.5 -2.5q-36 -6 -63 -33.5t-60 -91.5q-39 -79 -108.5 -223t-102.5 -211q-25 -51 -32 -73.5t-7 -51.5v-385q0 -52 15 -74t55 -25q5 -1 14.5 -2.5t15 -2t13 -2.5t11.5 -4t8 -5.5
t6 -8t2 -10.5q0 -18 -11.5 -23t-38.5 -5q-18 0 -77 4t-103 4q-48 0 -116.5 -4t-90.5 -4q-26 0 -35.5 6.5t-9.5 21.5q0 16 16.5 23t59.5 14q45 3 58.5 23t13.5 84z" />
    <glyph glyph-name="Z" unicode="Z" horiz-adv-x="899" 
d="M322 66h2q145 0 239 12q99 15 148.5 66.5t74.5 158.5q15 61 24 79.5t24 18.5q21 0 26.5 -14.5t5.5 -69.5q0 -180 -4 -258q-3 -44 -11.5 -55.5t-33.5 -11.5q-9 0 -135 4t-283 4q-126 0 -237 -4t-119 -4q-11 0 -20 10.5t-9 20.5q0 5 3.5 13t12.5 27t15 33l528 1010
q39 83 39 92q0 23 -82 23q-110 0 -170 -11q-118 -21 -176 -133q-12 -23 -25.5 -65.5t-26 -64t-34.5 -21.5q-26 0 -26 53q0 33 6 74q3 25 9 79.5t11.5 95.5t10.5 70q8 62 36 62q9 0 15.5 -4t9 -6.5t8 -14t6.5 -12.5q16 -41 90 -41q46 0 141.5 -1t143.5 -1q46 0 136.5 1
t135.5 1q27 0 27 -16q0 -9 -43 -97q-101 -194 -287 -557t-227 -442q-39 -83 -39 -88q0 -10 11 -13t49 -3z" />
    <glyph glyph-name="bracketleft" unicode="[" horiz-adv-x="681" 
d="M205 -240v1637q0 32 9 41.5t40 9.5q26 0 77 -2t77 -2t76 2t75 2q28 0 39.5 -8.5t11.5 -28.5q0 -22 -12 -29.5t-41 -7.5q-26 0 -75.5 1t-73.5 1q-26 0 -36 -11t-10 -42v-1489q0 -31 10 -42t36 -11q24 0 73.5 1t75.5 1q29 0 41 -8t12 -31q0 -19 -11.5 -27t-39.5 -8
q-25 0 -75 2t-76 2t-77 -2t-77 -2q-31 0 -40 9.5t-9 41.5z" />
    <glyph glyph-name="backslash" unicode="\" horiz-adv-x="653" 
d="M739 -293h-57q-18 0 -25.5 5t-13.5 22l-674 1650q-20 45 -20 54q0 10 18 10h66q21 0 30 -27l674 -1650q21 -53 21 -56q0 -8 -19 -8z" />
    <glyph glyph-name="bracketright" unicode="]" horiz-adv-x="681" 
d="M475 1397v-1637q0 -32 -9 -41.5t-40 -9.5q-26 0 -77 2t-77 2t-76 -2t-75 -2q-28 0 -39.5 8.5t-11.5 28.5q0 22 12 29.5t41 7.5q26 0 75.5 -1t73.5 -1q26 0 35.5 11t9.5 42v1489q0 31 -10 42t-35 11q-24 0 -73.5 -1t-75.5 -1q-29 0 -41 8t-12 29q0 20 11.5 28.5t39.5 8.5
q25 0 75 -2t76 -2t77 2t77 2q31 0 40 -9.5t9 -41.5z" />
    <glyph glyph-name="asciicircum" unicode="^" horiz-adv-x="1216" 
d="M549 1280h121l422 -819h-140l-344 665l-344 -665h-139z" />
    <glyph glyph-name="underscore" unicode="_" horiz-adv-x="1024" 
d="M0 -256v102h1024v-102h-1024z" />
    <glyph glyph-name="grave" unicode="`" horiz-adv-x="534" 
d="M418 1077v-2q0 -6 -5 -11t-12 -5q-13 0 -69 31l-271 153q-63 39 -78 58q-16 19 -16 40q0 26 17.5 45t42.5 19q21 0 44.5 -12.5t36 -23.5t37.5 -34l236 -211q1 -1 9.5 -9t13 -13t9.5 -12t5 -13z" />
    <glyph glyph-name="a" unicode="a" horiz-adv-x="876" 
d="M537 637v119q0 73 -19.5 104t-66.5 31q-68 0 -108.5 -45t-68.5 -129q-22 -69 -69 -99q-40 -28 -82 -28q-29 0 -41 12.5t-12 40.5q0 45 32 98t87 99t137.5 77t173.5 31q124 0 170 -41q25 -19 34 -49t9 -80v-585q0 -89 57 -89q40 0 61 37q17 39 29 39q17 0 17 -35
q0 -44 -55 -104.5t-134 -60.5q-30 0 -53 10t-37.5 31t-21 33t-15.5 36q-11 29 -22 29q-7 0 -20.5 -10t-37 -31t-43.5 -35q-89 -70 -192 -70q-75 0 -123.5 49t-48.5 136q0 79 55.5 141.5t185.5 142.5q32 21 82.5 52.5t69.5 44.5q42 25 56 44t14 54zM258 197v-2q0 -55 28 -85
t74 -30q62 0 127 65q28 28 39 53.5t11 63.5v209q0 31 -15 31q-12 0 -47 -21q-71 -48 -119 -96q-98 -91 -98 -188z" />
    <glyph glyph-name="b" unicode="b" horiz-adv-x="905" 
d="M289 1409v-510q0 -33 14 -33q5 0 35 15q11 5 48.5 25t71 31t70.5 11q91 0 165 -62t114.5 -165t40.5 -223q0 -236 -117.5 -380.5t-302.5 -144.5q-11 0 -23 1.5t-21 2.5t-21 5l-18 6t-18.5 7t-16.5 6.5t-16.5 7.5t-14.5 7q-45 25 -64 25q-25 0 -47 -39q-1 -1 -2 -4
q-18 -38 -34 -44q-4 -1 -9 -1q-12 0 -19.5 9t-7.5 24q0 7 4.5 31.5t5.5 37.5q5 87 5 185v977q0 44 -13 59t-51 20q-29 7 -38 11.5t-9 17.5q0 14 10 19.5t45 15.5q131 41 172 61q43 19 47 19q15 0 15 -31zM657 438v2q0 210 -65.5 310t-173.5 100q-71 0 -111 -53
q-18 -23 -18 -66v-532q0 -166 133 -166q111 0 173 105.5t62 299.5z" />
    <glyph glyph-name="c" unicode="c" horiz-adv-x="765" 
d="M39 428v2q0 223 127.5 370.5t314.5 147.5q113 0 176 -39q32 -19 40.5 -32t9.5 -50v-73q0 -36 -7 -68q-3 -27 -13.5 -38t-31.5 -11q-11 0 -19 5.5t-16 19.5t-14 27t-17 40t-20 47q-23 55 -47.5 79t-66.5 24q-91 0 -157.5 -107t-66.5 -268q0 -208 69.5 -314t178.5 -106
q107 0 170 90q9 14 21.5 38t21 37t15.5 13q9 0 14.5 -8.5t5.5 -20.5q0 -38 -20 -81.5t-56.5 -84t-98 -67.5t-134.5 -27q-170 0 -274.5 126.5t-104.5 328.5z" />
    <glyph glyph-name="d" unicode="d" horiz-adv-x="907" 
d="M774 1403v-1241q0 -42 4.5 -58t16.5 -16q15 0 28.5 13.5t21 29.5t16.5 29.5t16 13.5q18 0 18 -41q0 -37 -6 -54.5t-27 -27.5q-7 -4 -21.5 -10t-34.5 -13.5t-30 -11.5q-112 -41 -127 -41q-21 0 -28 41q-5 41 -9 55.5t-12 14.5q-5 0 -13.5 -6.5t-25 -22.5t-29.5 -26
q-74 -58 -159 -58q-156 0 -244 132t-88 344q0 135 49 250t133.5 182t184.5 67q73 0 141 -37q36 -20 37 -20q12 0 12 18v322q0 36 -12.5 48.5t-50.5 18.5q-29 5 -38.5 9.5t-9.5 17.5t8.5 19t34.5 12q122 39 179 63q10 4 22.5 10t19 8.5t11.5 2.5q12 0 12 -37zM231 483v-2
q0 -196 54 -298.5t159 -102.5q71 0 113 37q41 33 41 92v483q0 87 -39 135q-45 54 -115 54q-29 0 -58 -13t-57.5 -43t-50 -74.5t-34.5 -113.5t-13 -154z" />
    <glyph glyph-name="e" unicode="e" horiz-adv-x="788" 
d="M678 508h-395q-32 0 -44 -10.5t-12 -38.5q0 -162 70 -270.5t186 -108.5q130 0 187 108q3 6 7 15t6.5 13.5t5.5 11t5.5 10t5.5 6.5t5.5 4.5t5.5 1.5q20 0 20 -29q0 -36 -37 -100q-38 -68 -107.5 -108t-158.5 -40q-179 0 -285 132t-106 337q0 122 33 220t89 159.5t126.5 94
t148.5 32.5q135 0 218 -91t83 -241q0 -75 -8.5 -91.5t-48.5 -16.5zM233 618v-2q0 -28 13 -36.5t63 -8.5q53 0 107 7q103 13 131 38q31 22 31 84q0 82 -39.5 135.5t-108.5 53.5q-85 0 -141 -83.5t-56 -187.5z" />
    <glyph glyph-name="f" unicode="f" horiz-adv-x="534" 
d="M315 786v-612q0 -67 18 -92.5t73 -32.5q3 -1 10.5 -2.5t10.5 -2t9 -2t8.5 -3t6.5 -4t5.5 -5t3 -6t1.5 -8.5q0 -24 -39 -24q-20 0 -87 4t-110 4q-39 0 -94.5 -4t-71.5 -4q-49 0 -49 24q0 27 45 33q51 4 66.5 28t15.5 95v623q0 27 -11.5 36.5t-37.5 12.5q-17 1 -26.5 3
t-18 8.5t-8.5 18.5q0 13 8.5 22.5t15.5 13t27 12.5q50 23 53 92q9 210 92 321q43 54 102.5 83.5t125.5 29.5q77 0 121.5 -26.5t44.5 -80.5q0 -24 -17 -98q-14 -61 -53 -61t-68 92q-10 29 -15.5 42.5t-16 32.5t-22.5 27t-27 8q-47 0 -70.5 -73.5t-24.5 -229.5q0 -81 2 -116
q1 -29 8 -36t31 -7h137q20 0 25.5 -7t5.5 -32q0 -26 -6 -33.5t-27 -7.5h-114q-36 0 -47 -11t-11 -45z" />
    <glyph glyph-name="g" unicode="g" horiz-adv-x="874" 
d="M100 627v2q0 129 92.5 224t233.5 95q74 0 166 -45q39 -20 84 -20h112q36 0 52 -9t16 -36q0 -24 -8.5 -32.5t-38.5 -8.5h-55q-37 0 -37 -11q0 -3 2 -10t6 -18t6 -21q17 -59 17 -121q0 -113 -65 -202.5t-191 -108.5q-136 -32 -181 -54.5t-45 -57.5q0 -32 32 -48t75 -18
q26 0 80 1t82 1q170 -1 248.5 -63.5t80.5 -188.5q0 -98 -68 -175t-171 -116t-219 -39q-59 0 -116.5 13t-109.5 39.5t-84.5 74.5t-32.5 111q0 95 99 152q14 9 36.5 19t33 16.5t10.5 11.5q0 3 -4 8.5t-12 14t-16.5 16.5t-21 20t-20.5 20q-76 72 -76 93q0 28 34 49q8 5 56 31
q117 54 117 69q0 3 -7 7.5t-23 14t-29 19.5q-140 98 -140 281zM432 342h2q62 0 100.5 66.5t38.5 191.5q0 133 -42.5 216t-112.5 83q-63 0 -102.5 -67t-39.5 -191q0 -133 42.5 -216t113.5 -83zM438 -393h2q110 0 185 59t75 162q0 43 -16.5 72.5t-48.5 45t-70 21.5t-90 6
q-121 0 -172 -14q-39 -21 -63.5 -66.5t-24.5 -89.5q0 -87 62 -141.5t161 -54.5z" />
    <glyph glyph-name="h" unicode="h" horiz-adv-x="1003" 
d="M145 164v1053q0 45 -11 60t-52 19q-29 7 -38 11.5t-9 17.5q0 14 10 19.5t47 15.5q123 37 166 61q43 19 51 19q9 0 12 -7.5t3 -29.5v-582q0 -18 12 -18t26 14q37 34 62.5 54.5t79 43.5t108.5 23q114 0 179.5 -71.5t68.5 -194.5v-525q0 -52 15.5 -74.5t52.5 -27.5
q49 -6 49 -29q0 -24 -31 -24l-58 4q-58 4 -112 4q-58 0 -108 -4t-56 -4q-34 0 -34 26q0 21 36 27q39 6 53.5 24t14.5 60v520q0 86 -33 127q-43 58 -127 58q-81 0 -143 -56q-55 -52 -55 -127v-516q0 -41 17.5 -62t61.5 -28q24 -5 31.5 -10.5t7.5 -18.5q0 -24 -30 -24l-53 4
q-53 4 -128 4q-58 0 -108.5 -4t-59.5 -4q-32 0 -32 26q0 13 11.5 21t27.5 10q48 4 61.5 26.5t13.5 88.5z" />
    <glyph glyph-name="i" unicode="i" horiz-adv-x="497" 
d="M254 1077h-2q-42 0 -72 32.5t-30 88.5t29.5 89.5t74.5 33.5q44 0 73 -32.5t29 -88.5q0 -58 -29 -90.5t-73 -32.5zM164 156v540q0 49 -15 66.5t-63 25.5q-35 6 -35 25q0 13 14.5 21.5t51.5 19.5q73 20 166 74q33 20 41 20q16 0 16 -30v-97v-659q0 -59 11.5 -82t60.5 -31
q30 -6 40.5 -12.5t10.5 -20.5t-7 -19t-26 -5q-16 0 -71.5 4t-106.5 4q-56 0 -112 -4t-68 -4q-31 0 -31 24q0 14 9.5 21t31.5 12q55 7 68.5 25.5t13.5 81.5z" />
    <glyph glyph-name="j" unicode="j" horiz-adv-x="483" 
d="M250 1077h-2q-42 0 -71.5 32.5t-29.5 88.5t29.5 89.5t73.5 33.5t74 -33t30 -88q0 -58 -29.5 -90.5t-74.5 -32.5zM338 911v-897q0 -113 -24 -190.5t-87 -155.5q-58 -75 -107 -112t-71 -37q-18 0 -18 22q0 4 1 8t4 9t5.5 9t8 11t9.5 11.5t11.5 13.5t11.5 14q38 42 58 98
t20 154v854q0 39 -12 53.5t-48 20.5q-29 5 -39 9.5t-10 16.5q0 14 9 20.5t34 12.5q93 27 176 70q49 22 54 22q14 0 14 -37z" />
    <glyph glyph-name="k" unicode="k" horiz-adv-x="905" 
d="M145 125v1102q0 38 -13 51t-50 18q-30 6 -38.5 11t-8.5 18q0 11 7.5 17t29.5 12q129 38 188 67q44 19 47 19q9 0 12 -7.5t3 -29.5v-844q0 -55 12 -55q15 0 45 35q26 31 90.5 103t97.5 112q37 50 37 69q0 22 -16 33.5t-56 15.5q-45 4 -45 31q0 16 10.5 20.5t37.5 4.5
q18 0 69 -3t78 -3q38 0 87.5 3t70.5 3q22 0 30.5 -5t8.5 -18t-11 -19.5t-37 -13.5q-50 -9 -133 -77q-66 -55 -135 -127q-33 -38 -33 -50q0 -6 25 -51q29 -48 225 -403q42 -69 62.5 -90.5t42.5 -24.5q29 -7 40 -13t11 -20q0 -24 -35 -24q-16 0 -70 4t-90 4q-35 0 -88 -4
t-67 -4q-27 0 -27 22q-1 12 8 18.5t25 10.5q33 8 33 31q-3 19 -37 78q-64 125 -148 258q-37 63 -47 63q-4 0 -20.5 -13.5t-33.5 -38.5t-17 -48v-238q0 -49 15.5 -66.5t43.5 -21.5q18 -3 26.5 -5t18.5 -8.5t10 -17.5q0 -24 -26 -24q-18 0 -81 4t-93 4q-34 0 -94 -4t-76 -4
q-31 0 -31 26q0 13 11.5 19.5t37.5 11.5q39 4 50 21.5t11 54.5z" />
    <glyph glyph-name="l" unicode="l" horiz-adv-x="497" 
d="M160 152v1067q0 45 -11.5 59t-52.5 18q-29 7 -38 11.5t-9 17.5q0 12 9 18.5t32 12.5q126 35 180 63q47 21 52 21q16 0 16 -41v-1262q0 -45 16.5 -61t69.5 -27q15 -4 22 -6.5t14 -9t7 -15.5q0 -26 -33 -26q-1 0 -54.5 4t-127.5 4q-70 0 -123.5 -4t-56.5 -4q-35 0 -35 26
q0 12 13 20.5t28 10.5q53 6 67.5 26.5t14.5 76.5z" />
    <glyph glyph-name="m" unicode="m" horiz-adv-x="1472" 
d="M141 162v534q0 51 -10.5 66t-50.5 18q-16 2 -21 3t-13.5 3.5t-10.5 7t-2 11.5q0 12 12 18.5t51 18.5q108 44 160 86q30 20 37 20q16 0 16 -33v-65q0 -33 2.5 -44t10.5 -11q7 0 20 9.5t36.5 30.5t39.5 33q94 70 172 70q20 0 38 -2.5t32 -6t28 -11.5t23.5 -13t20.5 -15.5
t16.5 -15.5t14 -17.5t11 -16t10 -16t7.5 -13.5q13 -20 20 -20q5 0 25 16l30 27q31 27 46.5 37.5t48 30t66.5 28t71 8.5q99 0 164 -59q73 -64 73 -187v-545q0 -50 13.5 -70.5t52.5 -29.5q49 -12 49 -29q0 -26 -35 -26q-19 0 -78.5 4t-97.5 4q-36 0 -92 -4t-76 -4
q-35 0 -35 24q0 21 37 29q52 9 69 31t17 86v491q0 86 -40.5 131t-114.5 45t-127 -47q-52 -46 -52 -118v-533q0 -47 12 -62t62 -22q37 -6 37 -29q0 -26 -43 -26q-13 0 -65.5 4t-90.5 4q-36 0 -88 -4t-71 -4q-37 0 -37 24q0 22 30 29q52 11 66 29.5t14 83.5v475q0 90 -26 133
q-35 63 -113 63q-79 0 -137 -55q-58 -52 -58 -131v-512q0 -42 12 -60.5t48 -25.5q37 -9 42 -16q3 -4 3 -13q0 -24 -35 -24q-1 0 -51 4t-123 4q-52 0 -95.5 -4t-51.5 -4q-39 0 -39 26q0 27 36 31q50 6 64 28t14 85z" />
    <glyph glyph-name="n" unicode="n" horiz-adv-x="1001" 
d="M145 164v532q0 52 -10 65.5t-49 18.5q-29 3 -39 7.5t-10 15.5q0 19 55 36q5 2 8 3q106 39 162 84q28 22 39 22q16 0 16 -35v-82q0 -34 9 -34q8 0 20 8t37.5 29.5t38.5 31.5q97 72 186 72q114 0 183 -72q67 -70 67 -196v-523q0 -52 15.5 -73.5t52.5 -26.5q29 -3 41 -9.5
t12 -21.5q0 -24 -37 -24q-4 0 -60.5 4t-113.5 4q-53 0 -101 -4t-57 -4q-18 0 -25 5.5t-7 20.5q0 20 34 27q39 8 54.5 25t15.5 59v520q0 79 -35 125q-45 57 -123 57q-82 0 -143 -55q-57 -54 -57 -125v-522q0 -41 11.5 -59t47.5 -25q50 -9 56 -16q3 -4 3 -11q0 -26 -30 -26
l-54 4q-54 4 -127 4q-61 0 -107 -4t-54 -4q-39 0 -39 26q0 27 37 31q49 4 63 27t14 88z" />
    <glyph glyph-name="o" unicode="o" horiz-adv-x="903" 
d="M453 -27h-2q-116 0 -209 66.5t-143 177.5t-50 244q0 132 49 242t142.5 177.5t212.5 67.5q121 0 214.5 -68t141 -177.5t47.5 -239.5q0 -134 -50 -245.5t-143 -178t-210 -66.5zM457 31h2q67 0 115.5 63t70 153.5t21.5 192.5q0 118 -23 218t-74 166.5t-120 66.5
q-67 0 -116 -61t-71 -151.5t-22 -197.5q0 -117 23.5 -217.5t74.5 -166.5t119 -66z" />
    <glyph glyph-name="p" unicode="p" horiz-adv-x="913" 
d="M309 -25v-270q0 -56 19 -77t73 -27q21 -4 28.5 -6t14.5 -8.5t7 -18.5q0 -25 -52 -25q-18 0 -70 4t-98 4q-42 0 -103.5 -4t-78.5 -4q-43 0 -43 25q0 14 7.5 21.5t27.5 11.5q62 11 76 29.5t14 88.5v961q0 49 -9.5 65t-43.5 25q-32 8 -43.5 13.5t-11.5 13.5q0 15 10 22
t37 15q119 49 172 88q10 6 21 13.5t15.5 10t8.5 2.5q16 0 16 -28v-80q0 -21 10 -21q7 0 62 47q91 74 164 74q136 0 231.5 -137t95.5 -348q0 -202 -102.5 -342t-263.5 -140q-50 0 -129 27q-41 18 -47 18q-10 0 -12.5 -9.5t-2.5 -33.5zM676 444v2q0 180 -55.5 282.5
t-149.5 102.5q-75 0 -121 -49q-41 -38 -41 -96v-485q0 -90 41 -131q39 -39 105 -39q99 0 160 104t61 309z" />
    <glyph glyph-name="q" unicode="q" horiz-adv-x="905" 
d="M614 -246v269q0 36 -16 36q-5 0 -12 -3.5t-13 -7.5t-17.5 -12t-18.5 -13q-61 -41 -150 -41q-154 0 -241 132.5t-87 334.5q0 112 33.5 207.5t90 158.5t129 98t151.5 35q81 0 149 -30q13 -5 33.5 -15.5t33.5 -15t23 -4.5q20 0 30.5 10.5t21.5 32.5q7 14 11 20.5t13 13.5
t21 7q9 0 14.5 -7t5.5 -16t-12 -67q-14 -79 -14 -164v-1020q0 -51 12.5 -67t66.5 -25q26 -5 37 -12t11 -21q0 -25 -48 -25q-12 0 -65 4t-111 4q-52 0 -107 -4t-69 -4q-27 0 -37 6.5t-10 20.5q0 24 41 31q69 9 84.5 34t15.5 119zM252 459v-2q0 -169 62.5 -275t158.5 -106
q95 0 123 57q18 39 18 152v422q0 104 -30 139q-31 39 -105 39q-92 0 -159.5 -113.5t-67.5 -312.5z" />
    <glyph glyph-name="r" unicode="r" horiz-adv-x="665" 
d="M160 162v516q0 57 -15.5 75.5t-58.5 20.5q-13 1 -19.5 3t-10 6t-3.5 12q0 16 10 22.5t37 13.5q96 31 152 78l8 8l7 7l6 6t6 5.5t5.5 4.5t5.5 4t4.5 2t5 1.5t5.5 0.5q19 0 19 -33q2 -27 2 -98q0 -49 8 -49q7 0 15 12t21 36t25 40q65 90 148 90q58 0 92.5 -40.5
t34.5 -106.5q0 -58 -25.5 -93.5t-73.5 -35.5q-64 0 -79 73q-12 51 -24 61q-6 5 -15 5q-48 0 -86 -86q-29 -62 -29 -139v-404q0 -74 13.5 -99.5t64.5 -31.5q42 -7 57.5 -13t15.5 -20t-10.5 -19t-38.5 -5q-2 0 -59 4t-131 4q-60 0 -110.5 -4t-55.5 -4q-41 0 -41 24q0 16 11 22
t40 11q43 4 54.5 24.5t11.5 88.5z" />
    <glyph glyph-name="s" unicode="s" horiz-adv-x="663" 
d="M51 686v2q0 124 93.5 192t232.5 68q114 0 178 -33q13 -8 16 -49q2 -18 2 -71v-54q-2 -27 -6.5 -39t-17.5 -12q-8 0 -13.5 4t-11 14.5t-10 21.5t-13 31.5t-16.5 37.5q-44 94 -125 94q-61 0 -102 -37t-41 -94q0 -14 3.5 -28t7.5 -25t14 -23.5t16 -20.5t21.5 -20t23 -18
t27.5 -18.5t27.5 -17t30.5 -17.5t30 -17q36 -21 60.5 -37.5t54 -43t47.5 -53.5t30.5 -64.5t12.5 -79.5q0 -144 -100.5 -225t-252.5 -81q-88 0 -161 25q-30 8 -39 16q-19 11 -21 58q-2 29 -2 121q0 61 6 82.5t21 21.5q9 0 14.5 -3.5t11 -14.5t9 -21.5t11.5 -35t15 -44.5
q57 -147 162 -147q70 0 114 42.5t44 110.5q0 25 -7 48.5t-13.5 40t-26 36.5t-28.5 29t-38 28.5t-36.5 24t-41.5 25.5q-39 22 -62.5 36.5t-55.5 40.5t-50 51t-31.5 62.5t-13.5 79.5z" />
    <glyph glyph-name="t" unicode="t" horiz-adv-x="528" 
d="M313 801v-602q0 -115 72 -115q47 0 80 51q3 4 10 14t10 14.5t8.5 10t9.5 8t9 2.5q20 0 20 -20q0 -15 -12 -43.5t-35 -63t-67.5 -59.5t-100.5 -25q-88 0 -135 50q-45 50 -45 163v631q0 30 -24 33q-14 2 -50 2q-34 0 -34 25q0 17 39 53q52 40 94.5 90t91.5 137
q15 28 22 37.5t17 9.5q11 0 15.5 -9t4.5 -34v-194q0 -24 9 -33.5t32 -9.5h111q26 0 34.5 -7.5t8.5 -29.5q0 -25 -9 -34t-38 -9q-17 0 -53 1t-54 1q-25 0 -33 -8.5t-8 -36.5z" />
    <glyph glyph-name="u" unicode="u" horiz-adv-x="999" 
d="M319 854v-590q0 -82 40 -129t122 -47q94 0 158 70q39 45 39 106v510q0 50 -11 69t-49 23q-6 1 -14.5 2t-12.5 1.5t-10 2t-9 2.5t-6.5 3.5t-5 5t-2.5 7t-1 9.5q0 29 41 29q16 0 52.5 -2t54.5 -2q19 0 57 2t59 2q17 0 25 -9t8 -38v-76v-602q0 -50 12 -69.5t45 -20.5
q30 -3 41 -8.5t11 -18.5q-1 -12 -14 -19t-50 -18q-133 -48 -176 -69q-21 -7 -29 -7q-10 0 -10 25v90q0 29 -14 29q-11 0 -31 -17l-17 -15q-17 -15 -22.5 -19.5t-24 -18t-29.5 -19.5t-31.5 -16.5t-37.5 -15t-40 -8.5t-46 -4q-114 0 -178 61q-72 69 -72 193v553q0 40 -12.5 56
t-48.5 19q-28 3 -39.5 10t-11.5 23q0 29 39 29q20 0 60 -2t60 -2q15 0 50 2t47 2q22 0 28 -15.5t6 -58.5z" />
    <glyph glyph-name="v" unicode="v" horiz-adv-x="788" 
d="M383 901v-2q0 -11 -11 -16.5t-36 -10.5q-32 -7 -44.5 -17.5t-12.5 -29.5q0 -9 20 -82q17 -61 53 -179.5t43 -141.5q17 -62 28 -95t17 -43t11 -10q7 0 14 11.5t20 47t33 101.5q16 49 46.5 142t45.5 139q25 80 25 104q0 28 -14.5 38.5t-40.5 14.5q-19 1 -28.5 2.5
t-18.5 8.5t-9 20q0 14 9 19.5t30 5.5q17 0 54 -3t57 -3q24 0 60 3t48 3q39 0 39 -21q0 -25 -45 -37q-11 -3 -20 -7.5t-17 -13.5t-13 -16.5t-12 -24t-11 -26t-12 -32.5t-13 -35q-34 -94 -223 -647q-2 -6 -6 -20t-6 -19.5t-6.5 -15.5t-8.5 -14t-10 -9.5t-13.5 -7.5t-17.5 -2
q-9 0 -16.5 2.5t-13 8.5t-9.5 10.5t-8 15t-5.5 15t-5.5 17.5t-5 17q-27 85 -102 322.5t-105 328.5q-35 105 -46 124q-17 26 -53 33q-38 7 -38 27q0 27 43 27q15 0 71.5 -3t93.5 -3q30 0 79 3t69 3q28 0 37.5 -5.5t9.5 -21.5z" />
    <glyph glyph-name="w" unicode="w" horiz-adv-x="1193" 
d="M610 526l-166 -491q-5 -16 -7.5 -22.5t-9.5 -16t-18 -13t-28 -3.5q-6 0 -11.5 0.5t-10 3t-7.5 4t-6.5 6t-5 6t-4.5 8t-3.5 8t-3.5 9t-3 8.5l-248 741q-17 50 -33 70.5t-39 25.5q-39 6 -39 31q0 27 37 27q25 0 74.5 -3t73.5 -3q25 0 73.5 3t71.5 3q41 0 41 -25
q0 -20 -43 -29q-49 -9 -49 -53q0 -23 24 -96l144 -410q16 -51 28 -51q15 0 33 60l86 262q17 53 17 67q0 19 -46 146q-22 59 -67 69q-16 4 -23.5 6.5t-14.5 9t-7 15.5q0 29 43 29q23 0 73.5 -3t75.5 -3q28 0 78 3t68 3q24 0 33.5 -7t9.5 -22q0 -21 -45 -29q-51 -8 -51 -43
q0 -12 18 -77l133 -424q21 -58 29 -58q10 0 33 76l118 393q15 43 15 76q0 47 -58 55q-19 3 -28 5t-19 8.5t-10 17.5q0 29 33 29q17 0 54 -3t58 -3q26 0 63.5 3t49.5 3q31 0 31 -29q0 -11 -7 -18t-12 -8.5t-20 -6.5q-46 -9 -68 -78l-233 -753q-7 -29 -17.5 -42t-38.5 -13
q-20 0 -32.5 8.5t-17 18t-9.5 28.5l-156 491h-4z" />
    <glyph glyph-name="x" unicode="x" horiz-adv-x="872" 
d="M457 23v2q0 13 35 22q34 6 46.5 14.5t12.5 28.5q0 10 -64 131q-10 17 -26 45q-37 64 -50.5 84.5t-21.5 20.5q-12 0 -30.5 -28t-67.5 -118q-55 -99 -55 -133q0 -37 53 -43q45 -13 45 -31q0 -15 -11 -20.5t-36 -5.5q-11 0 -51.5 4t-77.5 4q-41 0 -79.5 -4t-47.5 -4
q-39 0 -39 24q0 23 49 33q50 7 81.5 38t84.5 114q102 154 131 211q12 32 12 34q0 10 -16 37q-10 16 -61.5 99.5t-96.5 158.5q-49 78 -71 103t-52 28q-28 5 -39.5 10.5t-11.5 18.5q0 27 43 27q22 0 85 -3t99 -3q38 0 87.5 3t64.5 3q37 0 37 -25q0 -15 -10.5 -20.5t-40.5 -8.5
q-39 -6 -39 -30q0 -21 59 -129q81 -146 90 -146q16 0 84 123q68 119 68 144q0 28 -54 38q-28 5 -37.5 11t-9.5 20q0 23 27 23q15 0 62.5 -3t82.5 -3q30 0 72 3t53 3q33 0 33 -27q0 -12 -12 -18t-41 -11q-43 -6 -80 -43t-86 -118q-30 -51 -62.5 -104t-39.5 -66
q-17 -27 -17 -37q0 -5 19 -45q19 -30 139 -230q69 -117 95.5 -145.5t64.5 -34.5q22 -7 31.5 -13.5t9.5 -19.5q0 -24 -41 -24q-6 0 -62 4t-112 4q-54 0 -105 -4t-59 -4q-43 0 -43 31z" />
    <glyph glyph-name="y" unicode="y" horiz-adv-x="790" 
d="M104 -342v2q0 76 80 82q7 1 24.5 2.5t25 2.5t18.5 4t18 7q24 12 58 105t34 127q0 21 -4.5 42.5t-9.5 37.5t-22 67q-94 271 -220 615q-24 71 -41.5 94.5t-41.5 25.5q-23 3 -33 9.5t-10 23.5q0 23 38 23q24 0 83 -3t94 -3q33 0 84 3t63 3q37 0 37 -27q0 -4 -1 -7t-4 -5
t-6 -3.5t-9 -3t-10.5 -2.5t-12.5 -3t-14 -3q-50 -10 -50 -49q0 -23 37 -141q5 -14 21.5 -64t25.5 -77.5t25.5 -75t26.5 -76t21.5 -58.5t19 -44.5t10.5 -14.5q13 0 147 418q31 109 31 129q0 25 -17.5 35.5t-56.5 15.5q-2 1 -10 2.5t-12 2.5t-9 3.5t-7.5 6.5t-2.5 10
q0 31 33 31q7 0 50.5 -3t76.5 -3q16 0 49 3t53 3q31 0 31 -29q0 -18 -37 -25q-27 -6 -47 -37.5t-49 -107.5q-207 -589 -276 -801q-52 -168 -74 -250q-23 -81 -44 -105t-77 -24q-63 0 -85 23t-22 86z" />
    <glyph glyph-name="z" unicode="z" horiz-adv-x="751" 
d="M688 311h2q25 0 25 -57q0 -20 -1 -101.5t-1 -103.5q0 -34 -7.5 -43.5t-29.5 -9.5q-41 0 -146 2t-172 2q-54 0 -156 -2t-145 -2q-24 0 -24 22q0 8 3 15.5t13.5 24t16.5 28.5l395 698q33 56 33 64q0 14 -56 14q-92 0 -127 -2q-63 -6 -98 -27t-63 -75q-8 -17 -17 -36.5
t-12.5 -27.5t-8.5 -16t-9.5 -10t-12.5 -2q-22 0 -22 30q0 17 8 63.5t19.5 104.5t13.5 68q12 53 34 53q7 0 12 -2t9 -8t5 -8t5 -11q9 -31 53 -34h236h215q35 0 35 -19t-37 -84l-400 -694q-20 -45 -20 -53t8.5 -12t36.5 -5q101 0 150 4q89 9 126 39.5t62 102.5q7 20 13 41
t8.5 32t6 20.5t8.5 13t13 3.5z" />
    <glyph glyph-name="braceleft" unicode="{" horiz-adv-x="681" 
d="M254 4v303q0 102 -21 158.5t-77 66.5q-58 13 -58 39t58 39q56 10 77 67.5t21 158.5v303q0 91 21 153.5t60.5 95.5t86.5 46.5t110 13.5q37 0 37 -29q0 -28 -37 -28q-67 -3 -94.5 -62t-27.5 -176v-291q0 -131 -32.5 -196t-131.5 -93v-4q99 -28 131.5 -92.5t32.5 -195.5
v-291q0 -117 27.5 -176t94.5 -62q37 0 37 -28q0 -29 -37 -29q-63 0 -110 13.5t-86.5 46.5t-60.5 95.5t-21 153.5z" />
    <glyph glyph-name="bar" unicode="|" horiz-adv-x="569" 
d="M352 -512h-131v2048h131v-2048z" />
    <glyph glyph-name="braceright" unicode="}" horiz-adv-x="681" 
d="M414 1139v-303q0 -102 20.5 -159t75.5 -67q59 -13 59 -39q0 -27 -59 -39q-55 -10 -75.5 -66.5t-20.5 -158.5v-303q0 -91 -21 -153.5t-61 -95.5t-87 -46.5t-110 -13.5q-39 0 -39 31q0 26 37 26q68 3 96.5 62.5t28.5 175.5v291q0 131 32.5 195.5t129.5 92.5v4
q-97 28 -129.5 93t-32.5 196v291q0 116 -28.5 176.5t-96.5 61.5q-37 0 -37 28q0 29 39 29q63 0 110 -13.5t87 -46.5t61 -95.5t21 -153.5z" />
    <glyph glyph-name="asciitilde" unicode="~" horiz-adv-x="1216" 
d="M209 379l-82 92q47 81 109 129.5t153 48.5q85 0 234 -67q11 -5 42.5 -19.5t46.5 -20.5t39 -15.5t42.5 -13t35.5 -3.5q54 0 95.5 38t85.5 105l80 -92q-58 -85 -117.5 -131.5t-145.5 -46.5q-38 0 -77.5 11t-66.5 23.5t-71 35.5q-130 69 -229 69q-101 0 -174 -143z" />
    <glyph glyph-name="uni00A0" unicode="&#xa0;" horiz-adv-x="464" 
 />
    <glyph glyph-name="exclamdown" unicode="&#xa1;" horiz-adv-x="485" 
d="M242 967h2q43 0 71.5 -35.5t28.5 -81.5t-29 -81.5t-73 -35.5t-73.5 35.5t-29.5 81.5t29.5 81.5t73.5 35.5zM242 604h2q16 0 22.5 -17t9.5 -63q11 -111 23 -227q49 -466 51 -535q0 -70 -25 -102.5t-81 -32.5q-59 0 -83 32.5t-24 100.5q1 24 4.5 65.5t8.5 90.5t16 161
t22 228q3 45 9 110.5t8 84.5q5 62 12 83t25 21z" />
    <glyph glyph-name="cent" unicode="&#xa2;" horiz-adv-x="907" 
d="M469 260v-258q0 -20 -6 -25.5t-25 -5.5q-20 0 -25 5t-5 24v260q-137 9 -220.5 119t-83.5 252q0 160 85.5 274t218.5 137v242q0 20 5 25.5t23 5.5q20 0 26.5 -6t6.5 -23v-237q104 0 158 -31q22 -10 27 -20t5 -40q0 -28 -4 -110q-3 -43 -32 -43q-9 0 -16.5 5.5t-17.5 22
t-15 27.5t-19 41q-33 77 -86 90v-639q17 -2 49 2q39 5 67.5 27t40.5 45.5t24 42t22 18.5q16 0 16 -22q0 -64 -61.5 -129t-157.5 -76zM408 367v624q-67 -19 -110.5 -101.5t-43.5 -191.5q0 -127 42 -214t112 -117z" />
    <glyph glyph-name="sterling" unicode="&#xa3;" 
d="M315 590h-264q-13 0 -17.5 3.5t-4.5 14.5q0 47 34 47h222q-36 61 -54.5 98t-36.5 95.5t-18 114.5q0 90 41.5 170.5t120 131t174.5 50.5q78 0 146.5 -29t68.5 -67q0 -66 -14 -132.5t-45 -66.5q-23 0 -37 23.5t-23 57t-21.5 67.5t-40 57.5t-69.5 23.5q-72 0 -108.5 -49.5
t-36.5 -138.5q0 -50 19.5 -112.5t37.5 -99.5t58 -108.5t47 -85.5h235q27 0 27 -18q0 -47 -33 -47h-197q37 -72 37 -146q0 -58 -17.5 -112t-34.5 -84.5t-17 -32.5t1 -4t3.5 -5t5 -5t7.5 -5t8 -5t10 -6.5t10 -6.5q4 -2 21.5 -14t23.5 -15.5t22.5 -13.5t25 -14t23 -11t25 -10
t23.5 -5.5t24 -2.5q50 0 87.5 29.5t37.5 91.5q0 26 -17.5 41.5t-39 21.5t-39 25t-17.5 53q0 38 23 64t57 26q48 0 75.5 -40.5t27.5 -98.5q0 -77 -30 -152t-93.5 -128.5t-145.5 -53.5q-46 0 -89.5 19t-69.5 41.5t-46.5 41.5t-25.5 19q-6 0 -27.5 -19.5t-49.5 -43t-82 -43
t-116 -19.5q-92 0 -154.5 45t-62.5 119q0 85 68.5 135.5t173.5 50.5q53 0 108 -17t87 -32.5t34 -15.5q17 3 9 104q-7 109 -95 234zM70 141v-2q0 -48 36.5 -78t90.5 -30q58 0 118 44.5t60 69.5q0 10 -28 36t-74 50.5t-85 24.5q-53 0 -85.5 -31t-32.5 -84z" />
    <glyph glyph-name="currency" unicode="&#xa4;" 
d="M23 125l-89 88l181 182q-78 97 -78 242q0 140 78 242l-181 180l89 88l180 -180q99 77 241 77q70 0 135 -21t109 -56l180 180l90 -88l-182 -180q36 -46 58 -109.5t22 -132.5q0 -142 -80 -242l182 -182l-90 -88l-180 180q-104 -80 -244 -80q-141 0 -241 80zM444 930h-2
q-119 0 -201.5 -87t-82.5 -206q0 -120 83 -208.5t203 -88.5q121 0 206 88.5t85 208.5q0 119 -85 206t-206 87z" />
    <glyph glyph-name="yen" unicode="&#xa5;" 
d="M535 514v-373q0 -78 57 -86q6 -1 16 -2.5t15.5 -2t13 -2.5t12 -4t9 -5.5t6.5 -8t2 -10.5q0 -18 -11.5 -23t-40.5 -5q-14 0 -66 4t-97 4q-48 0 -110 -4t-81 -4q-27 0 -36 6t-9 22q0 15 18 23t60 14q37 5 49 24.5t12 74.5v358h-280q-11 0 -15 3t-4 13v35q0 10 4 13.5
t15 3.5h270q-4 15 -53 137h-217q-11 0 -15 3t-4 13v35q0 10 4 13t15 3h186q-84 197 -156 355q-22 46 -40 63.5t-44 22.5q-3 1 -11 2.5t-11 2t-8.5 2.5t-8 3.5t-5.5 4.5t-4 6.5t-1 8.5q0 35 39 35q24 0 83 -4t87 -4q38 0 99.5 4t74.5 4q16 0 28.5 -8t12.5 -22q0 -8 -2 -13.5
t-9 -9t-11 -4.5t-16 -3t-17 -3q-32 -8 -42.5 -17t-10.5 -30q0 -24 86 -228q49 -120 75 -178t36 -74t18 -16q10 0 20 18t38 79q30 66 52 114q107 227 107 279q0 24 -16 35.5t-58 17.5q-16 2 -24.5 4.5t-14.5 8t-6 15.5q0 35 41 35q21 0 63.5 -4t65.5 -4q28 0 67.5 4t53.5 4
q27 0 27 -30q0 -13 -5 -20t-10.5 -9t-21.5 -6q-31 -6 -53.5 -29t-51.5 -84q-40 -86 -149 -328h188q11 0 15 -3t4 -13v-35q0 -8 -2 -11.5t-5.5 -4t-11.5 -0.5h-221q-44 -106 -53 -137h274q11 0 15 -3.5t4 -13.5v-35q0 -8 -2 -11.5t-5.5 -4t-11.5 -0.5h-280z" />
    <glyph glyph-name="brokenbar" unicode="&#xa6;" horiz-adv-x="569" 
d="M352 666h-131v716h131v-716zM352 -358h-131v716h131v-716z" />
    <glyph glyph-name="section" unicode="&#xa7;" horiz-adv-x="995" 
d="M616 172l-4 -4q82 -56 133.5 -130t51.5 -159q0 -128 -89 -199t-225 -71q-109 0 -197.5 59.5t-88.5 153.5q0 46 30 80.5t74 34.5q48 0 76.5 -26.5t28.5 -76.5q0 -24 -16 -45.5t-32 -37t-16 -25.5q0 -27 44 -49.5t101 -22.5q83 0 133 42.5t50 117.5q0 44 -38 95.5
t-76.5 84.5t-135.5 108q-19 15 -29 23q-68 54 -110.5 92.5t-83 85.5t-59.5 94.5t-19 98.5q0 45 11.5 82.5t28 62t43 44t48 30t52.5 19t47 11t40 5.5l2 6q-188 145 -188 301q0 110 79.5 181t209.5 71q122 0 202 -55t80 -148q0 -52 -28.5 -83.5t-79.5 -31.5q-40 0 -69.5 25.5
t-29.5 68.5q0 28 11 48t24 28.5t24 18t11 18.5q0 27 -36 46.5t-97 19.5q-84 0 -129 -42t-45 -114q0 -16 3.5 -31.5t13.5 -32.5t19 -30.5t28 -32.5l31.5 -31.5t38.5 -34.5t41 -34t47 -37.5t48 -38.5q140 -110 210.5 -197.5t70.5 -189.5q0 -120 -70 -181.5t-195 -64.5z
M238 571v-2q0 -57 35.5 -111.5t142.5 -144.5q66 -56 108 -77t84 -21q74 0 113 38t39 105q0 49 -27.5 95t-101.5 114q-148 138 -260 138q-60 0 -96.5 -39t-36.5 -95z" />
    <glyph glyph-name="dieresis" unicode="&#xa8;" horiz-adv-x="544" 
d="M100 1087h-2q-40 0 -66 31t-26 74q0 44 25.5 73t68.5 29q42 0 69.5 -30.5t27.5 -71.5q0 -44 -27.5 -74.5t-69.5 -30.5zM444 1087h-2q-40 0 -67 31.5t-27 73.5q0 44 26.5 73t69.5 29q40 0 68.5 -30.5t28.5 -71.5q0 -43 -28 -74t-69 -31z" />
    <glyph glyph-name="copyright" unicode="&#xa9;" horiz-adv-x="1626" 
d="M1540 715v-2q0 -150 -57 -286.5t-154 -235.5t-231.5 -157.5t-282.5 -58.5q-199 0 -366.5 99.5t-264 269.5t-96.5 371q0 202 96.5 373t264 270.5t366.5 99.5q148 0 282.5 -58.5t231.5 -158t154 -237t57 -289.5zM207 715v-2q0 -127 48 -245.5t129.5 -206.5t194.5 -140.5
t236 -52.5t235 53t192.5 140.5t128.5 206.5t48 247q0 129 -47.5 248.5t-128 208t-193 141.5t-235.5 53q-124 0 -237 -53.5t-194 -142t-129 -208t-48 -247.5zM1171 535l-32 -148q-4 -16 -16 -24.5t-40 -18.5q-125 -35 -227 -35q-96 0 -175.5 24t-142 74t-97.5 133.5
t-35 194.5q0 55 17 111.5t54.5 111t91 97t132 68.5t171.5 26q51 0 94.5 -6.5t65.5 -13t60 -19.5q45 -16 45 -45v-150h-39q-7 76 -63.5 127.5t-170.5 51.5q-136 0 -214.5 -96t-80.5 -255q-2 -176 75.5 -278.5t232.5 -102.5q186 0 253 173h41z" />
    <glyph glyph-name="ordfeminine" unicode="&#xaa;" horiz-adv-x="591" 
d="M483 1212v-352q0 -47 35 -47q17 0 35 27q14 14 22 14q11 0 11 -16q0 -22 -17 -47q-16 -25 -44.5 -42.5t-59.5 -17.5q-43 0 -66 31q-6 7 -12 19t-10 19t-8 7t-45 -29q-69 -51 -142 -51q-50 0 -81 30t-31 83q0 51 35.5 95.5t119.5 92.5q41 26 88 49q30 18 37.5 29.5
t7.5 32.5v71q0 56 -45 56q-46 0 -70.5 -26t-39.5 -75q-14 -34 -41 -56t-62 -22q-34 0 -34 43q0 62 81 123.5t197 61.5q80 0 109.5 -24t29.5 -79zM252 805h2q30 0 67 28.5t37 73.5v111q0 18 -4 18q-19 0 -82 -49q-73 -57 -73 -121q0 -61 53 -61z" />
    <glyph glyph-name="guillemotleft" unicode="&#xab;" horiz-adv-x="878" 
d="M475 199h-104q-43 0 -70 41l-94 145q-13 22 -37 49q-14 10 -14 19q0 7 14 18q24 27 37 49l94 146q27 41 70 41h104q21 0 21 -11q0 -10 -25 -10q-20 0 -36 -15t-38 -48l-84 -131q-12 -21 -30 -39q18 -18 30 -39l84 -131q22 -33 38 -48.5t36 -15.5q25 0 25 -10t-21 -10z
M707 199h-105q-43 0 -70 41l-94 145q-13 22 -37 49q-14 10 -14 19q0 7 14 18q24 27 37 49l94 146q27 41 70 41h105q20 0 20 -11q0 -10 -25 -10q-20 0 -35.5 -15t-37.5 -48l-84 -131q-11 -19 -31 -39q20 -20 31 -39l84 -131q15 -23 24 -34t22 -20.5t27 -9.5q25 0 25 -10
t-20 -10z" />
    <glyph glyph-name="logicalnot" unicode="&#xac;" horiz-adv-x="1216" 
d="M995 221v434h-903v131h1032v-565h-129z" />
    <glyph glyph-name="uni00AD" unicode="&#xad;" horiz-adv-x="600" 
d="M121 528h403q27 0 27 -12q0 -8 -39 -98q-9 -21 -29 -21h-407q-27 0 -27 13q0 9 37 98q5 11 12 15.5t23 4.5z" />
    <glyph glyph-name="registered" unicode="&#xae;" horiz-adv-x="1626" 
d="M1540 715v-2q0 -150 -57 -286.5t-154 -235.5t-231.5 -157.5t-282.5 -58.5q-199 0 -366.5 99.5t-264 269.5t-96.5 371q0 202 96.5 373t264 270.5t366.5 99.5q148 0 282.5 -58.5t231.5 -158t154 -237t57 -289.5zM207 715v-2q0 -127 48 -245.5t129.5 -206.5t194.5 -140.5
t236 -52.5t235 53t192.5 140.5t128.5 206.5t48 247q0 129 -47.5 248.5t-128 208t-193 141.5t-235.5 53q-124 0 -237 -53.5t-194 -142t-129 -208t-48 -247.5zM469 1094v30h377q105 0 177.5 -50t72.5 -146q0 -81 -48 -140.5t-124 -85.5l123 -172q104 -139 165 -180v-18h-135
q-21 0 -41 15.5t-43.5 49.5t-45.5 71t-60 99t-74 115h-104v-213q0 -68 15 -83t89 -21v-33h-344v33q74 6 88 21t14 83v518q0 70 -14 85.5t-88 21.5zM709 1083v-362h94q76 0 114.5 53.5t38.5 145.5q0 86 -42.5 124.5t-114.5 38.5h-90z" />
    <glyph glyph-name="macron" unicode="&#xaf;" horiz-adv-x="540" 
d="M51 1231h459h15t8.5 -1t6 -3t1.5 -6q0 -6 -2.5 -14t-8 -22.5t-8.5 -25.5q-7 -21 -13 -25t-28 -4h-458q-23 0 -23 9q0 1 18 59q7 27 12 30t21 3z" />
    <glyph glyph-name="degree" unicode="&#xb0;" horiz-adv-x="819" 
d="M410 1315h2q123 0 209 -87t86 -212t-86.5 -212t-210.5 -87t-210.5 87t-86.5 212t86.5 212t210.5 87zM410 1241h-2q-88 0 -150.5 -66.5t-62.5 -158.5t62.5 -158.5t152.5 -66.5t152.5 66.5t62.5 158.5t-62.5 158.5t-152.5 66.5z" />
    <glyph glyph-name="plusminus" unicode="&#xb1;" horiz-adv-x="1216" 
d="M543 688v369h131v-369h450v-129h-450v-369h-131v369h-451v129h451zM92 -45v131h1032v-131h-1032z" />
    <glyph glyph-name="twosuperior" unicode="&#xb2;" horiz-adv-x="536" 
d="M492 729v-176q0 -33 -29 -33q-32 0 -100 2t-105 2q-34 0 -101.5 -2t-101.5 -2q-11 0 -18.5 7.5t-7.5 19.5q0 8 30 53q1 1 56.5 73t81.5 107q71 100 107 179t36 157q0 65 -32.5 102t-88.5 37q-54 0 -91 -41t-42 -98q-1 -15 -9.5 -25t-17.5 -10q-24 0 -24 35q0 75 62.5 137
t158.5 62q105 0 166 -53.5t61 -143.5q0 -25 -4.5 -47.5t-18 -48.5t-22.5 -43t-35.5 -49t-39.5 -47t-51 -57t-54 -60q-11 -12 -29 -32t-27.5 -30t-20 -23t-15 -21t-4.5 -13q0 -10 49 -10h111q54 0 81 22t37 66q10 49 31 49q12 0 16.5 -9.5t4.5 -35.5z" />
    <glyph glyph-name="threesuperior" unicode="&#xb3;" horiz-adv-x="536" 
d="M221 971l6 -6q38 10 78 10q84 0 145.5 -61t61.5 -162q0 -127 -103.5 -231.5t-234.5 -104.5q-64 0 -105.5 25t-41.5 67q0 28 15.5 44.5t41.5 16.5q48 0 63 -49q9 -29 21.5 -42t42.5 -13q64 0 114 70t50 159q0 93 -42.5 151t-119.5 58q-35 0 -64.5 -12.5t-48 -25.5
t-26.5 -13q-17 0 -17 22q0 13 12 26.5t50 41.5q33 25 49.5 38t47.5 41t46.5 49.5t29 52t13.5 59.5q0 34 -21.5 54.5t-58.5 20.5q-35 0 -65.5 -24.5t-42.5 -61.5q-15 -38 -37 -38q-21 0 -21 24q0 20 12.5 45.5t36.5 51.5t68 43.5t98 17.5q74 0 122 -31.5t48 -97.5
q0 -78 -96 -135q-24 -17 -71 -46t-56 -34z" />
    <glyph glyph-name="acute" unicode="&#xb4;" horiz-adv-x="534" 
d="M133 1059h-2q-16 0 -16 16q0 7 6.5 15.5t19.5 19.5l13 12l235 211q70 70 117 70q27 0 44 -17.5t17 -44.5q0 -15 -7 -29t-23 -26.5t-28.5 -21t-35.5 -21.5l-270 -156q-51 -28 -70 -28z" />
    <glyph glyph-name="mu" unicode="&#xb5;" horiz-adv-x="999" 
d="M319 854v-590q0 -81 40 -128.5t120 -47.5q96 0 160 70q39 45 39 106v510q0 50 -11 69t-49 23q-6 1 -14.5 2t-12.5 1.5t-10 2t-9 2.5t-6.5 3.5t-5 5t-2.5 7t-1 9.5q0 29 41 29q16 0 52.5 -2t54.5 -2q19 0 57 2t59 2q17 0 25 -9t8 -38v-76v-602q0 -50 12 -69.5t45 -20.5
q30 -3 41 -8.5t11 -18.5q-1 -12 -14 -19t-50 -18q-133 -48 -176 -69q-21 -7 -25 -7q-14 0 -14 25v90q0 29 -14 29q-11 0 -31 -17q-2 -1 -17.5 -15t-22 -19t-24 -18.5t-28.5 -20t-30.5 -16.5t-36 -14.5t-38 -8.5t-43.5 -4q-114 0 -172 96l-4 -4v-56q0 -76 29 -173t29 -150
q0 -64 -26 -105t-71 -41q-90 0 -90 148q0 51 23.5 153t23.5 185v188v566q0 40 -12.5 56t-48.5 19q-28 3 -39.5 10t-11.5 23q0 29 39 29q20 0 60 -2t60 -2q15 0 50 2t47 2q22 0 28 -15.5t6 -58.5z" />
    <glyph glyph-name="paragraph" unicode="&#xb6;" horiz-adv-x="1243" 
d="M569 1280h475q48 0 48 -29q0 -32 -50 -32q-34 0 -55.5 -5.5t-34 -14t-18 -28.5t-7 -37.5t-1.5 -52.5v-1413h-133v1536h-121v-1536h-133v787q-98 1 -176.5 37t-126 95t-72.5 131t-25 152q0 78 29 151t82.5 131t136.5 93t182 35z" />
    <glyph glyph-name="periodcentered" unicode="&#xb7;" horiz-adv-x="446" 
d="M223 401h-2q-44 0 -73 35.5t-29 81.5t30 81.5t74 35.5q46 0 75.5 -35t29.5 -82t-29.5 -82t-75.5 -35z" />
    <glyph glyph-name="cedilla" unicode="&#xb8;" horiz-adv-x="522" 
d="M225 0h68l-82 -123q32 4 51 4q49 0 91 -12.5t73 -45.5t31 -83q0 -73 -61 -117.5t-146 -44.5q-35 0 -74 6.5t-76 28.5t-37 55q0 18 9.5 32.5t29.5 14.5q19 0 34.5 -14.5t25.5 -32.5t32 -32.5t52 -14.5q42 0 75 29t33 69q0 101 -123 101q-20 0 -49.5 -4t-40.5 -4
q-20 0 -20 20q0 4 4 12.5t9.5 17.5t6.5 11z" />
    <glyph glyph-name="onesuperior" unicode="&#xb9;" horiz-adv-x="536" 
d="M350 1290v-631q0 -55 11.5 -72t50.5 -18q49 -2 49 -28q0 -21 -33 -21q-22 0 -70 2t-75 2t-74.5 -2t-67.5 -2q-18 0 -25 5t-7 18q0 26 41 26q40 1 52.5 19t12.5 69v512q0 39 -18 39q-11 0 -49 -16t-44 -16q-20 0 -20 22q0 16 43 35q81 38 170 70q32 12 35 12q18 0 18 -25z
" />
    <glyph glyph-name="ordmasculine" unicode="&#xba;" horiz-adv-x="591" 
d="M295 731h-2q-113 0 -185.5 84t-72.5 209q0 122 74 206.5t186 84.5q114 0 187 -84.5t73 -206.5q0 -125 -73 -209t-187 -84zM297 774h2q56 0 87.5 66t31.5 172q0 117 -34.5 188.5t-92.5 71.5q-55 0 -87 -64.5t-32 -171.5q0 -119 34 -190.5t91 -71.5z" />
    <glyph glyph-name="guillemotright" unicode="&#xbb;" horiz-adv-x="878" 
d="M172 707h107q40 0 67 -41l94 -146q17 -27 39 -49q13 -10 13 -18q0 -9 -13 -19q-22 -22 -39 -49l-94 -145q-27 -41 -67 -41h-107q-20 0 -20 10t24 10q34 0 74 64l84 131q20 28 31 39q-11 11 -31 39l-84 131q-39 63 -74 63q-24 0 -24 10q0 11 20 11zM403 707h107
q41 0 68 -41l94 -146q17 -27 39 -49q12 -9 12 -18q0 -10 -12 -19q-22 -22 -39 -49l-94 -145q-27 -41 -68 -41h-107q-20 0 -20 10t25 10q20 0 36.5 16t36.5 48l84 131q11 19 31 39q-20 20 -31 39l-84 131q-39 63 -73 63q-25 0 -25 10q0 11 20 11z" />
    <glyph glyph-name="onequarter" unicode="&#xbc;" horiz-adv-x="1335" 
d="M207 -25v2q0 8 26 50l809 1267q15 21 39 21h37q23 0 23 -10q0 -9 -27 -52l-809 -1267q-15 -21 -39 -21h-37q-22 0 -22 10zM350 1290v-631q0 -55 11.5 -72t50.5 -18q49 -2 49 -28q0 -21 -33 -21q-22 0 -70 2t-75 2t-74.5 -2t-67.5 -2q-18 0 -25 5t-7 18q0 26 41 26
q40 1 52.5 19t12.5 69v512q0 39 -18 39q-11 0 -49 -16t-44 -16q-20 0 -20 22q0 16 43 35q81 38 170 70q32 12 35 12q18 0 18 -25zM1169 586v-260q0 -21 21 -21h65q11 0 15 -6t4 -23q0 -18 -4 -22t-17 -4h-61q-23 0 -23 -21v-114q0 -40 10.5 -53.5t43.5 -18.5q25 -3 33 -8.5
t8 -18.5q0 -20 -35 -20q-15 0 -60 2t-69 2t-68.5 -2t-64.5 -2q-29 0 -29 20q0 14 11.5 20t39.5 9q27 3 37 16.5t10 53.5v114q0 13 -4.5 17t-15.5 4h-246q-15 0 -20 4t-5 20q0 20 4 32t17 32q10 15 338 506q25 37 39 37h26q17 0 17 -7q0 -4 -4 -10t-13 -19t-16 -24
q-102 -136 -315 -461q-27 -43 -27 -47q0 -8 20 -8h183q14 0 18 5t4 22v215q0 14 4 19.5t15 8.5q95 33 104 33q10 0 10 -22z" />
    <glyph glyph-name="onehalf" unicode="&#xbd;" horiz-adv-x="1335" 
d="M207 -25v2q0 8 26 50l809 1267q15 21 39 21h35q23 0 23 -10q0 -9 -27 -52l-807 -1267q-15 -21 -39 -21h-37q-22 0 -22 10zM350 1290v-631q0 -55 11.5 -72t50.5 -18q49 -2 49 -28q0 -21 -33 -21q-22 0 -70 2t-75 2t-74.5 -2t-67.5 -2q-18 0 -25 5t-7 18q0 26 41 26
q40 1 52.5 19t12.5 69v512q0 39 -18 39q-11 0 -49 -16t-44 -16q-20 0 -20 22q0 16 43 35q81 38 170 70q32 12 35 12q18 0 18 -25zM1284 203v-174q0 -33 -29 -33q-33 0 -101 2t-103 2q-34 0 -101.5 -2t-101.5 -2q-11 0 -19 7t-8 20q0 8 31 51q17 24 65.5 87t71.5 95
q71 99 107.5 177.5t36.5 156.5q0 67 -32.5 104t-88.5 37q-54 0 -91 -41t-42 -98q-1 -16 -9 -25.5t-18 -9.5q-11 0 -18 9t-7 24q0 77 63 139t159 62q105 0 165 -54t60 -145q0 -25 -4 -47t-17.5 -48t-22.5 -42.5t-35.5 -49t-39 -47t-50.5 -56.5t-54 -60q-12 -13 -29.5 -32
t-27.5 -30t-20.5 -23.5t-15 -20.5t-4.5 -13q0 -10 47 -10h113q100 0 119 86q10 51 31 51q12 0 16 -9.5t4 -37.5z" />
    <glyph glyph-name="threequarters" unicode="&#xbe;" horiz-adv-x="1335" 
d="M221 971l6 -6q38 10 78 10q84 0 145.5 -61t61.5 -162q0 -127 -103.5 -231.5t-234.5 -104.5q-64 0 -105.5 25t-41.5 67q0 28 15.5 44.5t41.5 16.5q48 0 63 -49q9 -29 21.5 -42t42.5 -13q64 0 114 70t50 159q0 93 -42.5 151t-119.5 58q-35 0 -64.5 -12.5t-48 -25.5
t-26.5 -13q-17 0 -17 22q0 13 12 26.5t50 41.5q33 25 49.5 38t47.5 41t46.5 49.5t29 52t13.5 59.5q0 34 -21.5 54.5t-58.5 20.5q-35 0 -65.5 -24.5t-42.5 -61.5q-15 -38 -37 -38q-21 0 -21 24q0 20 12.5 45.5t36.5 51.5t68 43.5t98 17.5q74 0 122 -31.5t48 -97.5
q0 -78 -96 -135q-24 -17 -71 -46t-56 -34zM207 -25v2q0 8 26 50l809 1267q15 21 39 21h37q23 0 23 -10q0 -9 -27 -52l-809 -1267q-15 -21 -39 -21h-37q-22 0 -22 10zM1169 586v-260q0 -21 21 -21h65q11 0 15 -6t4 -23q0 -18 -4 -22t-17 -4h-61q-23 0 -23 -21v-114
q0 -40 10.5 -53.5t43.5 -18.5q25 -3 33 -8.5t8 -18.5q0 -20 -35 -20q-15 0 -60 2t-69 2t-68.5 -2t-64.5 -2q-29 0 -29 20q0 14 11.5 20t39.5 9q27 3 37 16.5t10 53.5v114q0 13 -4.5 17t-15.5 4h-246q-15 0 -20 4t-5 20q0 20 4 32t17 32q10 15 338 506q25 37 39 37h26
q17 0 17 -7q0 -4 -4 -10t-13 -19t-16 -24q-102 -136 -315 -461q-27 -43 -27 -47q0 -8 20 -8h183q14 0 18 5t4 22v215q0 14 4 19.5t15 8.5q95 33 104 33q10 0 10 -22z" />
    <glyph glyph-name="questiondown" unicode="&#xbf;" horiz-adv-x="614" 
d="M375 733h-2q-45 0 -74 36t-29 81q0 46 29.5 81.5t75.5 35.5q45 0 72.5 -35.5t27.5 -81.5t-27.5 -81.5t-72.5 -35.5zM512 -242v-2q0 -41 -10 -61q-15 -36 -52 -50t-112 -14q-126 0 -217.5 96.5t-91.5 245.5q0 107 39 177t125 159q18 20 58 59.5t54 53.5q27 31 33.5 44
t9.5 42q1 70 7 90t22 20q17 0 24.5 -12t10.5 -39q14 -111 16 -215q0 -36 -7.5 -60t-15.5 -33.5t-30 -29.5q-111 -111 -164 -187t-53 -157q0 -80 39 -134t88 -54q36 0 59 30t45 83q32 76 46 92q12 14 26 14q30 0 40.5 -34t10.5 -124z" />
    <glyph glyph-name="Agrave" unicode="&#xc0;" horiz-adv-x="937" 
d="M526 442h-241q-27 0 -38.5 -14t-25.5 -72q-10 -39 -21 -80t-16.5 -62t-10.5 -42.5t-7 -34t-2 -22.5q0 -51 74 -64q46 -8 55 -16q6 -6 6 -17q0 -16 -9.5 -21t-29.5 -5q-16 0 -62.5 4t-70.5 4q-31 0 -79.5 -4t-53.5 -4q-31 0 -31 26q0 23 37 31q28 5 46 19t30 53
q113 347 303 1055q3 15 10 40.5t10 36.5q5 27 17.5 41.5t42.5 14.5q28 0 38.5 -10t18.5 -37q238 -785 340 -1115q26 -88 72 -98q4 -1 15 -4t16.5 -5t12.5 -5.5t10 -8.5t3 -12q0 -22 -49 -22q-27 0 -82.5 4t-85.5 4q-31 0 -91 -4t-83 -4q-45 0 -45 26q0 29 53 33q19 1 31 4.5
t22.5 15t10.5 31.5q0 12 -8 40t-26.5 91t-33.5 119q-18 61 -29 75.5t-43 14.5zM307 504h193q41 0 41 18q0 4 -9 45q-60 189 -102 342q-14 54 -31 54q-9 0 -15 -14.5t-17 -59.5q-38 -147 -84 -309q-13 -53 -13 -62q0 -14 37 -14zM608 1397v-2q0 -6 -4.5 -11.5t-11.5 -5.5
q-14 0 -70 31l-270 154q-23 13 -35.5 21t-28 21t-23 26t-7.5 28q0 28 17 46.5t42 18.5q21 0 44 -11.5t37.5 -23.5t37.5 -34l235 -213l13 -11q12 -11 18 -19t6 -15z" />
    <glyph glyph-name="Aacute" unicode="&#xc1;" horiz-adv-x="937" 
d="M526 442h-241q-27 0 -38.5 -14t-25.5 -72q-10 -39 -21 -80t-16.5 -62t-10.5 -42.5t-7 -34t-2 -22.5q0 -51 74 -64q46 -8 55 -16q6 -6 6 -17q0 -16 -9.5 -21t-29.5 -5q-16 0 -62.5 4t-70.5 4q-31 0 -79.5 -4t-53.5 -4q-31 0 -31 26q0 23 37 31q28 5 46 19t30 53
q113 347 303 1055q3 15 10 40.5t10 36.5q5 27 17.5 41.5t42.5 14.5q28 0 38.5 -10t18.5 -37q238 -785 340 -1115q26 -88 72 -98q4 -1 15 -4t16.5 -5t12.5 -5.5t10 -8.5t3 -12q0 -22 -49 -22q-27 0 -82.5 4t-85.5 4q-31 0 -91 -4t-83 -4q-45 0 -45 26q0 29 53 33q19 1 31 4.5
t22.5 15t10.5 31.5q0 12 -8 40t-26.5 91t-33.5 119q-18 61 -29 75.5t-43 14.5zM307 504h193q41 0 41 18q0 4 -9 45q-60 189 -102 342q-14 54 -31 54q-9 0 -15 -14.5t-17 -59.5q-38 -147 -84 -309q-13 -53 -13 -62q0 -14 37 -14zM319 1376h-2q-6 0 -11 6t-5 13t7 15.5t18 18
t14 13.5l235 211q23 22 37.5 34t37 23.5t42.5 11.5q28 0 45 -17t17 -44q0 -16 -7.5 -30t-23.5 -27.5t-28.5 -21.5t-35.5 -21l-270 -154q-56 -31 -70 -31z" />
    <glyph glyph-name="Acircumflex" unicode="&#xc2;" horiz-adv-x="937" 
d="M526 442h-241q-27 0 -38.5 -14t-25.5 -72q-10 -39 -21 -80t-16.5 -62t-10.5 -42.5t-7 -34t-2 -22.5q0 -51 74 -64q46 -8 55 -16q6 -6 6 -17q0 -16 -9.5 -21t-29.5 -5q-16 0 -62.5 4t-70.5 4q-31 0 -79.5 -4t-53.5 -4q-31 0 -31 26q0 23 37 31q28 5 46 19t30 53
q113 347 303 1055q3 15 10 40.5t10 36.5q5 27 17.5 41.5t42.5 14.5q28 0 38.5 -10t18.5 -37q238 -785 340 -1115q26 -88 72 -98q4 -1 15 -4t16.5 -5t12.5 -5.5t10 -8.5t3 -12q0 -22 -49 -22q-27 0 -82.5 4t-85.5 4q-31 0 -91 -4t-83 -4q-45 0 -45 26q0 29 53 33q19 1 31 4.5
t22.5 15t10.5 31.5q0 12 -8 40t-26.5 91t-33.5 119q-18 61 -29 75.5t-43 14.5zM307 504h193q41 0 41 18q0 4 -9 45q-60 189 -102 342q-14 54 -31 54q-9 0 -15 -14.5t-17 -59.5q-38 -147 -84 -309q-13 -53 -13 -62q0 -14 37 -14zM426 1726h55q23 0 35.5 -6t24.5 -24l182 -271
q14 -22 14 -36q0 -13 -24 -13q-22 0 -51 29l-207 205l-207 -205q-29 -29 -53 -29q-25 0 -25 13q0 14 14 36l185 271q17 30 57 30z" />
    <glyph glyph-name="Atilde" unicode="&#xc3;" horiz-adv-x="937" 
d="M526 442h-241q-27 0 -38.5 -14t-25.5 -72q-10 -39 -21 -80t-16.5 -62t-10.5 -42.5t-7 -34t-2 -22.5q0 -51 74 -64q46 -8 55 -16q6 -6 6 -17q0 -16 -9.5 -21t-29.5 -5q-16 0 -62.5 4t-70.5 4q-31 0 -79.5 -4t-53.5 -4q-31 0 -31 26q0 23 37 31q28 5 46 19t30 53
q113 347 303 1055q3 15 10 40.5t10 36.5q5 27 17.5 41.5t42.5 14.5q28 0 38.5 -10t18.5 -37q238 -785 340 -1115q26 -88 72 -98q4 -1 15 -4t16.5 -5t12.5 -5.5t10 -8.5t3 -12q0 -22 -49 -22q-27 0 -82.5 4t-85.5 4q-31 0 -91 -4t-83 -4q-45 0 -45 26q0 29 53 33q19 1 31 4.5
t22.5 15t10.5 31.5q0 12 -8 40t-26.5 91t-33.5 119q-18 61 -29 75.5t-43 14.5zM307 504h193q41 0 41 18q0 4 -9 45q-60 189 -102 342q-14 54 -31 54q-9 0 -15 -14.5t-17 -59.5q-38 -147 -84 -309q-13 -53 -13 -62q0 -14 37 -14zM580 1409h-2q-61 0 -154 66q-2 1 -14 9.5
t-15.5 10.5t-15 9.5t-16 10t-14.5 8t-16.5 7.5t-15 5t-16 4t-14.5 1q-25 0 -45 -18.5t-29.5 -40t-20.5 -40t-20 -18.5q-25 0 -25 27q1 19 12.5 48t33 60.5t59 53.5t82.5 22q67 0 162 -67q5 -3 24 -15.5t28.5 -18.5t25 -14.5t28.5 -12t25 -3.5q25 0 45 18t29.5 39.5
t20.5 39.5t21 18q23 0 23 -25q-2 -20 -13.5 -48.5t-32 -60t-58 -53.5t-82.5 -22z" />
    <glyph glyph-name="Adieresis" unicode="&#xc4;" horiz-adv-x="937" 
d="M526 442h-241q-27 0 -38.5 -14t-25.5 -72q-10 -39 -21 -80t-16.5 -62t-10.5 -42.5t-7 -34t-2 -22.5q0 -51 74 -64q46 -8 55 -16q6 -6 6 -17q0 -16 -9.5 -21t-29.5 -5q-16 0 -62.5 4t-70.5 4q-31 0 -79.5 -4t-53.5 -4q-31 0 -31 26q0 23 37 31q28 5 46 19t30 53
q113 347 303 1055q3 15 10 40.5t10 36.5q5 27 17.5 41.5t42.5 14.5q28 0 38.5 -10t18.5 -37q238 -785 340 -1115q26 -88 72 -98q4 -1 15 -4t16.5 -5t12.5 -5.5t10 -8.5t3 -12q0 -22 -49 -22q-27 0 -82.5 4t-85.5 4q-31 0 -91 -4t-83 -4q-45 0 -45 26q0 29 53 33q19 1 31 4.5
t22.5 15t10.5 31.5q0 12 -8 40t-26.5 91t-33.5 119q-18 61 -29 75.5t-43 14.5zM307 504h193q41 0 41 18q0 4 -9 45q-60 189 -102 342q-14 54 -31 54q-9 0 -15 -14.5t-17 -59.5q-38 -147 -84 -309q-13 -53 -13 -62q0 -14 37 -14zM281 1407h-2q-40 0 -66.5 31t-26.5 73
q0 44 26 73.5t69 29.5q42 0 69 -31t27 -74q0 -42 -27 -72t-69 -30zM625 1407h-2q-40 0 -67.5 31t-27.5 73q0 44 27 73.5t70 29.5q40 0 68 -31.5t28 -73.5t-27.5 -72t-68.5 -30z" />
    <glyph glyph-name="Aring" unicode="&#xc5;" horiz-adv-x="937" 
d="M526 442h-241q-27 0 -38.5 -14t-25.5 -72q-10 -39 -21 -80t-16.5 -62t-10.5 -42.5t-7 -34t-2 -22.5q0 -51 74 -64q46 -8 55 -16q6 -6 6 -17q0 -16 -9.5 -21t-29.5 -5q-16 0 -62.5 4t-70.5 4q-31 0 -79.5 -4t-53.5 -4q-31 0 -31 26q0 23 37 31q28 5 46 19t30 53
q113 347 303 1055q3 15 10 40.5t10 36.5q5 27 17.5 41.5t42.5 14.5q28 0 38.5 -10t18.5 -37q238 -785 340 -1115q26 -88 72 -98q4 -1 15 -4t16.5 -5t12.5 -5.5t10 -8.5t3 -12q0 -22 -49 -22q-27 0 -82.5 4t-85.5 4q-31 0 -91 -4t-83 -4q-45 0 -45 26q0 29 53 33q19 1 31 4.5
t22.5 15t10.5 31.5q0 12 -8 40t-26.5 91t-33.5 119q-18 61 -29 75.5t-43 14.5zM307 504h193q41 0 41 18q0 4 -9 45q-60 189 -102 342q-14 54 -31 54q-9 0 -15 -14.5t-17 -59.5q-38 -147 -84 -309q-13 -53 -13 -62q0 -14 37 -14zM457 1372h-2q-85 0 -144 59.5t-59 145.5
q0 85 59.5 145t145.5 60q85 0 145 -60t60 -145q0 -86 -60 -145.5t-145 -59.5zM457 1444h2q53 0 91 39t38 94q0 54 -38.5 92.5t-92.5 38.5q-55 0 -94 -38.5t-39 -92.5q0 -55 39 -94t94 -39z" />
    <glyph glyph-name="AE" unicode="&#xc6;" horiz-adv-x="1435" 
d="M874 1157v-399q0 -32 10 -38.5t52 -6.5q97 0 133 18t51 74q3 9 6 20.5t5 18t4 14t3.5 11.5t4 8.5t4.5 6.5t4.5 4t6 2.5t7.5 0.5q12 0 17.5 -9.5t5.5 -35.5q0 -28 -4 -83t-4 -83q0 -34 4 -101t4 -96q0 -37 -29 -37q-12 0 -19.5 15.5t-19.5 58.5q-22 78 -56.5 104.5
t-117.5 26.5q-48 0 -60 -6.5t-12 -30.5v-430q0 -70 35 -100.5t117 -30.5q115 0 171.5 54.5t94.5 187.5q10 42 20 58t25 16t21 -9t6 -36q0 -95 -2 -144q0 -17 -1 -62.5t-1 -60.5q0 -23 -3.5 -36.5t-13.5 -19t-18.5 -6.5t-26.5 -1q-39 0 -215 4q-45 0 -131.5 1t-120.5 1
q-66 0 -142.5 -4t-90.5 -4q-31 0 -44 7t-13 26q0 14 13 20.5t44 11.5q50 6 66 28.5t16 86.5v436q0 24 -14.5 31.5t-53.5 7.5h-163q-40 0 -55 -11t-32 -42q-129 -287 -167 -371q-37 -90 -37 -125q0 -34 55 -45q6 -1 15 -2t14.5 -1.5t13 -1.5t12 -2.5t10 -3t8.5 -4t6 -5.5
t4 -6.5t1 -8.5q0 -16 -11 -21t-34 -5q-14 0 -60.5 4t-76.5 4q-31 0 -76 -4t-62 -4q-38 0 -38 28t51 35q7 1 13 2.5t11.5 4t10.5 8t9.5 9.5t10 13.5t9 16t10.5 20.5t11.5 23.5l13.5 28.5t15 32q51 111 102.5 219.5t89 184t82.5 165t66.5 130t59.5 112.5t43 82q31 64 31 84
q0 17 -10.5 24.5t-32.5 10.5q-37 5 -50.5 10.5t-13.5 21.5q0 31 57 31q43 0 157.5 -4t186.5 -4q113 0 249.5 4t158.5 4q31 0 39 -12.5t8 -63.5q0 -37 -1 -112t-1 -101q0 -28 -4.5 -41.5t-20.5 -13.5q-8 0 -14.5 5t-13 17.5t-11.5 24t-14 35t-16 39.5q-39 86 -94.5 124
t-159.5 38q-65 0 -84 -13t-19 -57zM680 743v390q0 51 -14 51q-9 0 -31 -43q-65 -143 -176 -359q-21 -44 -21 -55q0 -18 39 -18h152q31 0 41 6.5t10 27.5z" />
    <glyph glyph-name="Ccedilla" unicode="&#xc7;" horiz-adv-x="999" 
d="M936 350l-4 -235q0 -36 -8 -50t-33 -28q-45 -30 -125 -49t-162 -19l-61 -92q36 4 51 4q49 0 90.5 -12.5t72.5 -45.5t31 -83q0 -73 -60.5 -117.5t-145.5 -44.5q-34 0 -73 6.5t-76.5 28.5t-37.5 55q0 17 10 32t29 15t34.5 -14.5t26 -32.5t32.5 -32.5t53 -14.5q42 0 74 28.5
t32 69.5q0 101 -123 101q-20 0 -49.5 -4t-40.5 -4q-18 0 -18 20q0 4 4 12.5t9.5 17.5t6.5 11l66 102q-216 25 -348 207t-132 459q0 297 153.5 484.5t401.5 187.5q75 0 149.5 -19t115.5 -39q17 -9 21.5 -21t6.5 -50q6 -56 6 -180q0 -50 -5 -64t-21 -14q-20 0 -32 21t-40 95
q-77 211 -221 211q-131 0 -219 -150.5t-88 -440.5q0 -165 27.5 -290.5t74.5 -198.5t103.5 -108.5t119.5 -35.5q163 0 226 243q28 105 35 119q11 18 24 19q20 0 28.5 -12t8.5 -48z" />
    <glyph glyph-name="Egrave" unicode="&#xc8;" horiz-adv-x="980" 
d="M180 172v965q0 48 -15 65.5t-50 24.5q-8 2 -21 4l-19.5 3t-13.5 4t-9.5 7.5t-2.5 11.5q0 31 53 31q17 0 126.5 -4t209.5 -4q101 0 232 4t159 4q31 0 39.5 -13t8.5 -65q0 -53 -1.5 -126t-1.5 -95q0 -26 -5.5 -36.5t-20.5 -10.5q-23 0 -37 39q-3 9 -12.5 33t-12.5 35
q-26 64 -57.5 101t-85 57t-135.5 20q-78 0 -107 -13q-26 -9 -26 -53v-405q0 -31 13.5 -37t76.5 -6q98 0 134.5 18t51.5 74q3 10 6 21t5 17.5t4 14t3.5 11.5t3.5 8.5t4 6.5t4.5 4t5.5 2.5t7 0.5q14 0 19.5 -9.5t5.5 -35.5q0 -28 -4 -83t-4 -81q0 -32 4 -99t4 -96
q0 -36 -25 -36q-14 0 -21.5 15.5t-17.5 57.5q-21 76 -55 101.5t-121 25.5q-69 0 -86.5 -7.5t-17.5 -33.5v-426q0 -72 40.5 -101.5t133.5 -29.5q68 0 115 13t80 43.5t54 72.5t40 109q12 44 22 60t25 16q18 0 20 -17q6 -30 6 -162q-3 -80 -6 -139q0 -19 -3 -30.5t-11 -17
t-15.5 -6.5t-21.5 -1q-78 0 -238 4q-43 0 -119 1t-108 1q-55 0 -151.5 -4t-137.5 -4q-31 0 -45 7t-14 26q0 14 12 20.5t41 11.5q54 6 70 29t16 86zM653 1397v-2q0 -6 -4.5 -11.5t-11.5 -5.5q-14 0 -70 31l-272 154q-30 18 -45.5 28.5t-31 29.5t-15.5 38q0 28 17 46.5
t42 18.5q48 0 117 -69l237 -213l12 -11q13 -11 19 -19t6 -15z" />
    <glyph glyph-name="Eacute" unicode="&#xc9;" horiz-adv-x="980" 
d="M180 172v965q0 48 -15 65.5t-50 24.5q-8 2 -21 4l-19.5 3t-13.5 4t-9.5 7.5t-2.5 11.5q0 31 53 31q17 0 126.5 -4t209.5 -4q101 0 232 4t159 4q31 0 39.5 -13t8.5 -65q0 -53 -1.5 -126t-1.5 -95q0 -26 -5.5 -36.5t-20.5 -10.5q-23 0 -37 39q-3 9 -12.5 33t-12.5 35
q-26 64 -57.5 101t-85 57t-135.5 20q-78 0 -107 -13q-26 -9 -26 -53v-405q0 -31 13.5 -37t76.5 -6q98 0 134.5 18t51.5 74q3 10 6 21t5 17.5t4 14t3.5 11.5t3.5 8.5t4 6.5t4.5 4t5.5 2.5t7 0.5q14 0 19.5 -9.5t5.5 -35.5q0 -28 -4 -83t-4 -81q0 -32 4 -99t4 -96
q0 -36 -25 -36q-14 0 -21.5 15.5t-17.5 57.5q-21 76 -55 101.5t-121 25.5q-69 0 -86.5 -7.5t-17.5 -33.5v-426q0 -72 40.5 -101.5t133.5 -29.5q68 0 115 13t80 43.5t54 72.5t40 109q12 44 22 60t25 16q18 0 20 -17q6 -30 6 -162q-3 -80 -6 -139q0 -19 -3 -30.5t-11 -17
t-15.5 -6.5t-21.5 -1q-78 0 -238 4q-43 0 -119 1t-108 1q-55 0 -151.5 -4t-137.5 -4q-31 0 -45 7t-14 26q0 14 12 20.5t41 11.5q54 6 70 29t16 86zM373 1376h-2q-6 0 -10.5 5.5t-4.5 13.5q0 9 18 27t19 20l238 211q69 69 117 69q26 0 43.5 -17.5t17.5 -43.5q0 -16 -7 -30
t-24.5 -27.5t-28 -20.5t-34.5 -22l-273 -154q-56 -31 -69 -31z" />
    <glyph glyph-name="Ecircumflex" unicode="&#xca;" horiz-adv-x="980" 
d="M180 172v965q0 48 -15 65.5t-50 24.5q-8 2 -21 4l-19.5 3t-13.5 4t-9.5 7.5t-2.5 11.5q0 31 53 31q17 0 126.5 -4t209.5 -4q101 0 232 4t159 4q31 0 39.5 -13t8.5 -65q0 -53 -1.5 -126t-1.5 -95q0 -26 -5.5 -36.5t-20.5 -10.5q-23 0 -37 39q-3 9 -12.5 33t-12.5 35
q-26 64 -57.5 101t-85 57t-135.5 20q-78 0 -107 -13q-26 -9 -26 -53v-405q0 -31 13.5 -37t76.5 -6q98 0 134.5 18t51.5 74q3 10 6 21t5 17.5t4 14t3.5 11.5t3.5 8.5t4 6.5t4.5 4t5.5 2.5t7 0.5q14 0 19.5 -9.5t5.5 -35.5q0 -28 -4 -83t-4 -81q0 -32 4 -99t4 -96
q0 -36 -25 -36q-14 0 -21.5 15.5t-17.5 57.5q-21 76 -55 101.5t-121 25.5q-69 0 -86.5 -7.5t-17.5 -33.5v-426q0 -72 40.5 -101.5t133.5 -29.5q68 0 115 13t80 43.5t54 72.5t40 109q12 44 22 60t25 16q18 0 20 -17q6 -30 6 -162q-3 -80 -6 -139q0 -19 -3 -30.5t-11 -17
t-15.5 -6.5t-21.5 -1q-78 0 -238 4q-43 0 -119 1t-108 1q-55 0 -151.5 -4t-137.5 -4q-31 0 -45 7t-14 26q0 14 12 20.5t41 11.5q54 6 70 29t16 86zM479 1726h56q40 0 57 -30l182 -271q17 -23 17 -36t-25 -13q-24 0 -53 29l-207 205l-207 -205q-29 -29 -51 -29q-27 0 -27 13
t17 36l182 271q12 18 24 24t35 6z" />
    <glyph glyph-name="Edieresis" unicode="&#xcb;" horiz-adv-x="980" 
d="M180 172v965q0 48 -15 65.5t-50 24.5q-8 2 -21 4l-19.5 3t-13.5 4t-9.5 7.5t-2.5 11.5q0 31 53 31q17 0 126.5 -4t209.5 -4q101 0 232 4t159 4q31 0 39.5 -13t8.5 -65q0 -53 -1.5 -126t-1.5 -95q0 -26 -5.5 -36.5t-20.5 -10.5q-23 0 -37 39q-3 9 -12.5 33t-12.5 35
q-26 64 -57.5 101t-85 57t-135.5 20q-78 0 -107 -13q-26 -9 -26 -53v-405q0 -31 13.5 -37t76.5 -6q98 0 134.5 18t51.5 74q3 10 6 21t5 17.5t4 14t3.5 11.5t3.5 8.5t4 6.5t4.5 4t5.5 2.5t7 0.5q14 0 19.5 -9.5t5.5 -35.5q0 -28 -4 -83t-4 -81q0 -32 4 -99t4 -96
q0 -36 -25 -36q-14 0 -21.5 15.5t-17.5 57.5q-21 76 -55 101.5t-121 25.5q-69 0 -86.5 -7.5t-17.5 -33.5v-426q0 -72 40.5 -101.5t133.5 -29.5q68 0 115 13t80 43.5t54 72.5t40 109q12 44 22 60t25 16q18 0 20 -17q6 -30 6 -162q-3 -80 -6 -139q0 -19 -3 -30.5t-11 -17
t-15.5 -6.5t-21.5 -1q-78 0 -238 4q-43 0 -119 1t-108 1q-55 0 -151.5 -4t-137.5 -4q-31 0 -45 7t-14 26q0 14 12 20.5t41 11.5q54 6 70 29t16 86zM332 1407h-2q-40 0 -67 31t-27 73q0 44 26.5 73.5t69.5 29.5q40 0 68 -31.5t28 -73.5t-27.5 -72t-68.5 -30zM676 1407h-2
q-42 0 -68 30.5t-26 73.5q0 44 26.5 73.5t69.5 29.5q40 0 67 -31.5t27 -73.5t-26.5 -72t-67.5 -30z" />
    <glyph glyph-name="Igrave" unicode="&#xcc;" horiz-adv-x="618" 
d="M406 1130v-960q0 -59 13.5 -83t57.5 -30q4 -1 13 -2.5t12.5 -2.5t11 -2.5t11 -3t9 -4t8.5 -5t6 -5.5t4 -7t1 -9q0 -24 -49 -24q-5 0 -60 4t-135 4q-78 0 -133 -4t-63 -4q-14 0 -19.5 0.5t-13.5 2.5t-11 8.5t-3 16.5q0 15 15 22t47 13q7 1 11 2q48 7 59 24.5t11 80.5v968
q0 54 -12 71t-52 22q-13 2 -30 4t-23.5 3t-14 4t-9.5 8.5t-2 14.5q0 31 47 31q27 0 91 -4t105 -4q44 0 109.5 4t89.5 4q47 0 47 -31q0 -23 -62 -31q-5 -1 -7.5 -1t-6.5 -1t-8 -1q-38 -4 -51.5 -24.5t-13.5 -68.5zM463 1397v-2q0 -6 -6 -11.5t-13 -5.5q-13 0 -69 31l-271 154
q-23 13 -35.5 21t-28 21t-23 26t-7.5 28q0 28 18 46.5t44 18.5q20 0 42.5 -12t36 -23.5t37.5 -33.5l236 -213q2 -2 13.5 -11.5t18.5 -18t7 -15.5z" />
    <glyph glyph-name="Iacute" unicode="&#xcd;" horiz-adv-x="618" 
d="M406 1130v-960q0 -59 13.5 -83t57.5 -30q4 -1 13 -2.5t12.5 -2.5t11 -2.5t11 -3t9 -4t8.5 -5t6 -5.5t4 -7t1 -9q0 -24 -49 -24q-5 0 -60 4t-135 4q-78 0 -133 -4t-63 -4q-14 0 -19.5 0.5t-13.5 2.5t-11 8.5t-3 16.5q0 15 15 22t47 13q7 1 11 2q48 7 59 24.5t11 80.5v968
q0 54 -12 71t-52 22q-13 2 -30 4t-23.5 3t-14 4t-9.5 8.5t-2 14.5q0 31 47 31q27 0 91 -4t105 -4q44 0 109.5 4t89.5 4q47 0 47 -31q0 -23 -62 -31q-5 -1 -7.5 -1t-6.5 -1t-8 -1q-38 -4 -51.5 -24.5t-13.5 -68.5zM172 1376h-2q-6 0 -11 6t-5 13t7 15.5t18 18t14 13.5
l235 211q23 22 37.5 34t37 23.5t42.5 11.5q27 0 44 -17t17 -44q0 -16 -7 -30t-23 -27t-28.5 -21.5t-35.5 -21.5l-270 -154q-56 -31 -70 -31z" />
    <glyph glyph-name="Icircumflex" unicode="&#xce;" horiz-adv-x="618" 
d="M406 1130v-960q0 -59 13.5 -83t57.5 -30q4 -1 13 -2.5t12.5 -2.5t11 -2.5t11 -3t9 -4t8.5 -5t6 -5.5t4 -7t1 -9q0 -24 -49 -24q-5 0 -60 4t-135 4q-78 0 -133 -4t-63 -4q-14 0 -19.5 0.5t-13.5 2.5t-11 8.5t-3 16.5q0 15 15 22t47 13q7 1 11 2q48 7 59 24.5t11 80.5v968
q0 54 -12 71t-52 22q-13 2 -30 4t-23.5 3t-14 4t-9.5 8.5t-2 14.5q0 31 47 31q27 0 91 -4t105 -4q44 0 109.5 4t89.5 4q47 0 47 -31q0 -23 -62 -31q-5 -1 -7.5 -1t-6.5 -1t-8 -1q-38 -4 -51.5 -24.5t-13.5 -68.5zM281 1726h57q21 0 33 -6t24 -24l183 -271q16 -21 16 -36
q0 -13 -27 -13q-22 0 -51 29l-207 205l-207 -205q-29 -29 -53 -29t-24 13q0 15 16 36l182 271q17 30 58 30z" />
    <glyph glyph-name="Idieresis" unicode="&#xcf;" horiz-adv-x="618" 
d="M406 1130v-960q0 -59 13.5 -83t57.5 -30q4 -1 13 -2.5t12.5 -2.5t11 -2.5t11 -3t9 -4t8.5 -5t6 -5.5t4 -7t1 -9q0 -24 -49 -24q-5 0 -60 4t-135 4q-78 0 -133 -4t-63 -4q-14 0 -19.5 0.5t-13.5 2.5t-11 8.5t-3 16.5q0 15 15 22t47 13q7 1 11 2q48 7 59 24.5t11 80.5v968
q0 54 -12 71t-52 22q-13 2 -30 4t-23.5 3t-14 4t-9.5 8.5t-2 14.5q0 31 47 31q27 0 91 -4t105 -4q44 0 109.5 4t89.5 4q47 0 47 -31q0 -23 -62 -31q-5 -1 -7.5 -1t-6.5 -1t-8 -1q-38 -4 -51.5 -24.5t-13.5 -68.5zM137 1407h-2q-40 0 -67 31t-27 73q0 44 26.5 73.5t69.5 29.5
q42 0 69 -31t27 -74q0 -42 -27.5 -72t-68.5 -30zM481 1407h-2q-42 0 -68 30.5t-26 73.5q0 44 26.5 73.5t69.5 29.5q40 0 67 -31.5t27 -73.5t-26.5 -72t-67.5 -30z" />
    <glyph glyph-name="Eth" unicode="&#xd0;" horiz-adv-x="1159" 
d="M180 719v409q0 40 -11 57t-42 21q-9 1 -30.5 0t-33.5 0q-34 3 -34 23q0 16 13.5 23.5t66.5 21.5q133 39 366 39q290 0 451 -178q168 -174 168 -473q0 -145 -32 -263.5t-98 -211t-177 -144t-259 -51.5q-40 0 -133 4t-145 4q-41 0 -101 -4t-79 -4q-37 0 -37 28
q0 19 11.5 24.5t51.5 12.5q50 6 67 31t17 90v471h-147q-15 0 -15 15v41q0 9 3 11.5t12 2.5h147zM377 649v-452q0 -74 30 -111t105 -37q183 0 270 154q92 145 92 438q0 160 -29 279.5t-81.5 190.5t-119 105.5t-148.5 34.5q-74 0 -96.5 -23t-22.5 -87v-422h254q9 0 11.5 -2.5
t2.5 -11.5v-41q0 -15 -14 -15h-254z" />
    <glyph glyph-name="Ntilde" unicode="&#xd1;" horiz-adv-x="1124" 
d="M164 174v942q0 58 -13 81t-51 26q-50 7 -58 15q-7 6 -7 19q0 31 53 31q17 0 58 -3t61 -3q21 0 62 3t55 3q7 0 12.5 -1t10.5 -5t8 -7t8.5 -11.5t8.5 -14t10.5 -20t12.5 -23.5q368 -656 453 -794q30 -53 41 -58q8 0 8 27v702q0 78 -17 107.5t-59 32.5q-37 5 -53 11.5
t-16 22.5q0 13 9 22t23 9q8 0 54 -4t94 -4q27 0 70 4t61 4q37 0 37 -28q0 -13 -9 -20.5t-19 -10t-35 -5.5q-2 0 -3.5 -0.5t-3.5 -0.5q-40 -4 -53.5 -28.5t-13.5 -82.5v-1100q0 -36 -5.5 -43.5t-35.5 -7.5q-25 0 -37.5 13.5t-44.5 72.5q-38 65 -49 84q-52 93 -231 402.5
t-273 480.5q-30 63 -45 65q-13 -7 -13 -41v-757q0 -126 15.5 -173t60.5 -53q11 -2 27 -4.5t25.5 -4t19 -4.5t14 -9.5t4.5 -16.5q0 -24 -37 -24q-6 0 -48.5 4t-100.5 4q-51 0 -100 -4t-60 -4q-29 0 -29 24q0 12 11.5 19t40.5 13.5t30 6.5q38 9 50 34.5t12 84.5zM698 1409h-2
q-60 0 -153 66q-4 3 -17 11t-18 11.5t-17 10.5t-18.5 10.5t-17 8.5t-18 7t-17 4t-17.5 2q-32 0 -54 -29t-35.5 -58.5t-24.5 -29.5q-12 0 -18.5 8t-4.5 19q1 20 12.5 48.5t32.5 60t58.5 53.5t83.5 22q66 0 161 -67q2 -1 14.5 -9.5t16.5 -11t15.5 -10.5t17.5 -11t17 -8
t18 -7.5t16 -4.5t16 -2q25 0 45 18t29.5 39.5t20.5 39.5t20 18q27 0 23 -25q-1 -19 -12 -48t-32 -60.5t-58.5 -53.5t-82.5 -22z" />
    <glyph glyph-name="Ograve" unicode="&#xd2;" horiz-adv-x="1171" 
d="M61 647v2q0 183 72.5 336.5t193 240.5t259.5 87q144 0 264 -90t189 -245.5t69 -340.5t-71.5 -339.5t-191.5 -241.5t-261 -87q-140 0 -260 90t-191.5 246.5t-71.5 341.5zM879 602v2q0 136 -17.5 247.5t-47 185t-69 123.5t-81.5 71.5t-86 21.5q-56 0 -106 -32.5t-92 -98
t-66.5 -180t-24.5 -264.5q0 -136 17 -246.5t46 -184t68.5 -124t82.5 -72.5t89 -22q42 0 82 19.5t77.5 63.5t65.5 109t45 163t17 218zM737 1397v-2q0 -6 -4.5 -11.5t-11.5 -5.5q-14 0 -70 31l-272 154q-23 13 -35.5 21t-28 21t-23 26t-7.5 28q0 27 18 46t43 19
q20 0 42.5 -11.5t37 -23.5t37.5 -34l235 -213q2 -2 13.5 -11.5t18.5 -18t7 -15.5z" />
    <glyph glyph-name="Oacute" unicode="&#xd3;" horiz-adv-x="1171" 
d="M61 647v2q0 183 72.5 336.5t193 240.5t259.5 87q144 0 264 -90t189 -245.5t69 -340.5t-71.5 -339.5t-191.5 -241.5t-261 -87q-140 0 -260 90t-191.5 246.5t-71.5 341.5zM879 602v2q0 136 -17.5 247.5t-47 185t-69 123.5t-81.5 71.5t-86 21.5q-56 0 -106 -32.5t-92 -98
t-66.5 -180t-24.5 -264.5q0 -136 17 -246.5t46 -184t68.5 -124t82.5 -72.5t89 -22q42 0 82 19.5t77.5 63.5t65.5 109t45 163t17 218zM451 1376h-2q-6 0 -10.5 5.5t-4.5 13.5q0 9 18 27t19 20l236 211q73 69 118 69q26 0 44 -17.5t18 -43.5q0 -16 -7 -30t-24.5 -27.5
t-28 -20.5t-34.5 -22l-273 -154q-56 -31 -69 -31z" />
    <glyph glyph-name="Ocircumflex" unicode="&#xd4;" horiz-adv-x="1171" 
d="M61 647v2q0 183 72.5 336.5t193 240.5t259.5 87q144 0 264 -90t189 -245.5t69 -340.5t-71.5 -339.5t-191.5 -241.5t-261 -87q-140 0 -260 90t-191.5 246.5t-71.5 341.5zM879 602v2q0 136 -17.5 247.5t-47 185t-69 123.5t-81.5 71.5t-86 21.5q-56 0 -106 -32.5t-92 -98
t-66.5 -180t-24.5 -264.5q0 -136 17 -246.5t46 -184t68.5 -124t82.5 -72.5t89 -22q42 0 82 19.5t77.5 63.5t65.5 109t45 163t17 218zM557 1726h57q39 0 58 -30l182 -271q16 -21 16 -36q0 -13 -26 -13q-22 0 -51 29l-207 205l-207 -205q-29 -29 -53 -29q-25 0 -25 13
q0 15 16 36l183 271q17 30 57 30z" />
    <glyph glyph-name="Otilde" unicode="&#xd5;" horiz-adv-x="1171" 
d="M61 647v2q0 183 72.5 336.5t193 240.5t259.5 87q144 0 264 -90t189 -245.5t69 -340.5t-71.5 -339.5t-191.5 -241.5t-261 -87q-140 0 -260 90t-191.5 246.5t-71.5 341.5zM879 602v2q0 136 -17.5 247.5t-47 185t-69 123.5t-81.5 71.5t-86 21.5q-56 0 -106 -32.5t-92 -98
t-66.5 -180t-24.5 -264.5q0 -136 17 -246.5t46 -184t68.5 -124t82.5 -72.5t89 -22q42 0 82 19.5t77.5 63.5t65.5 109t45 163t17 218zM709 1409h-2q-61 0 -154 66q-2 1 -14 9.5t-15.5 10.5t-15 9.5t-16 10t-14.5 8t-16.5 7.5t-15 5t-16 4t-14.5 1q-25 0 -45 -18.5t-29.5 -40
t-20.5 -40t-20 -18.5q-25 0 -25 27q2 20 13.5 48.5t32.5 60t58.5 53.5t82.5 22q67 0 162 -67q5 -3 24 -15.5t28.5 -18.5t25 -14.5t28.5 -12t25 -3.5q25 0 45 18t29.5 39.5t20.5 39.5t21 18q23 0 23 -25q-2 -20 -13.5 -48.5t-32 -60t-58 -53.5t-82.5 -22z" />
    <glyph glyph-name="Odieresis" unicode="&#xd6;" horiz-adv-x="1171" 
d="M61 647v2q0 183 72.5 336.5t193 240.5t259.5 87q144 0 264 -90t189 -245.5t69 -340.5t-71.5 -339.5t-191.5 -241.5t-261 -87q-140 0 -260 90t-191.5 246.5t-71.5 341.5zM879 602v2q0 136 -17.5 247.5t-47 185t-69 123.5t-81.5 71.5t-86 21.5q-56 0 -106 -32.5t-92 -98
t-66.5 -180t-24.5 -264.5q0 -136 17 -246.5t46 -184t68.5 -124t82.5 -72.5t89 -22q42 0 82 19.5t77.5 63.5t65.5 109t45 163t17 218zM414 1407h-2q-40 0 -67.5 31t-27.5 73q0 44 27 73.5t70 29.5q42 0 69 -31t27 -74q0 -42 -27.5 -72t-68.5 -30zM758 1407h-2q-42 0 -68 30.5
t-26 73.5q0 44 26.5 73.5t69.5 29.5q40 0 67 -31.5t27 -73.5t-26.5 -72t-67.5 -30z" />
    <glyph glyph-name="multiply" unicode="&#xd7;" horiz-adv-x="1216" 
d="M516 518l-385 385l92 92l383 -387l387 387l92 -92l-387 -385l387 -385l-92 -92l-387 387l-383 -387l-92 92z" />
    <glyph glyph-name="Oslash" unicode="&#xd8;" horiz-adv-x="1171" 
d="M346 285l442 798q-37 83 -93 126.5t-117 43.5q-56 0 -106 -32.5t-92 -98t-66.5 -179.5t-24.5 -263q0 -218 57 -395zM823 995l-442 -798q36 -81 92.5 -124.5t118.5 -43.5q42 0 82 19t78 63t66.5 108.5t45.5 163t17 219.5q0 210 -58 393zM289 92l-125 -221q-15 -27 -31 -27
h-45q-16 0 -16 6q0 3 14 31l150 262q-81 96 -128 226t-47 278q0 184 72.5 338t192.5 241t258 87q163 0 295 -123l127 221q15 27 30 27h43q19 0 19 -6q0 -1 -15 -31l-149 -262q81 -91 127.5 -222.5t46.5 -279.5q0 -185 -71.5 -339.5t-191.5 -241.5t-261 -87q-166 0 -295 123z
" />
    <glyph glyph-name="Ugrave" unicode="&#xd9;" horiz-adv-x="1120" 
d="M358 1102v-778q0 -142 52 -209q33 -43 87.5 -64.5t112.5 -21.5q163 0 240 118q49 77 49 220v698q0 92 -19.5 124t-72.5 34q-43 5 -51 14q-6 8 -6 20q0 14 11 22.5t30 8.5q13 0 54.5 -4t76.5 -4q44 0 87.5 4t53.5 4q33 0 33 -31q0 -8 -3 -13t-10.5 -8.5t-13 -5t-19 -4
t-20.5 -3.5q-40 -7 -51.5 -33.5t-11.5 -104.5v-696q0 -187 -78 -287q-98 -133 -322 -133q-185 0 -293 82q-110 85 -110 271v804q0 60 -10.5 78.5t-49.5 22.5q-36 5 -48.5 11t-12.5 24q0 26 43 26q29 0 89.5 -4t92.5 -4q50 0 111.5 4t79.5 4q19 0 28.5 -1t17 -7.5t7.5 -19.5
q0 -16 -15 -22t-53 -11q-25 -3 -38.5 -7t-26 -16.5t-17 -37t-4.5 -64.5zM727 1397v-2q0 -6 -4.5 -11.5t-11.5 -5.5q-14 0 -70 31l-272 154q-33 20 -47 29t-31 28.5t-17 38.5q0 27 18.5 46t43.5 19q48 0 117 -69l237 -213q2 -3 12.5 -12t17.5 -17.5t7 -15.5z" />
    <glyph glyph-name="Uacute" unicode="&#xda;" horiz-adv-x="1120" 
d="M358 1102v-778q0 -142 52 -209q33 -43 87.5 -64.5t112.5 -21.5q163 0 240 118q49 77 49 220v698q0 92 -19.5 124t-72.5 34q-43 5 -51 14q-6 8 -6 20q0 14 11 22.5t30 8.5q13 0 54.5 -4t76.5 -4q44 0 87.5 4t53.5 4q33 0 33 -31q0 -8 -3 -13t-10.5 -8.5t-13 -5t-19 -4
t-20.5 -3.5q-40 -7 -51.5 -33.5t-11.5 -104.5v-696q0 -187 -78 -287q-98 -133 -322 -133q-185 0 -293 82q-110 85 -110 271v804q0 60 -10.5 78.5t-49.5 22.5q-36 5 -48.5 11t-12.5 24q0 26 43 26q29 0 89.5 -4t92.5 -4q50 0 111.5 4t79.5 4q19 0 28.5 -1t17 -7.5t7.5 -19.5
q0 -16 -15 -22t-53 -11q-25 -3 -38.5 -7t-26 -16.5t-17 -37t-4.5 -64.5zM485 1376h-2q-6 0 -11 6t-5 13t7 15.5t18 18t14 13.5l235 211q73 69 117 69q28 0 45 -17t17 -44q0 -16 -7.5 -30t-23.5 -27.5t-28.5 -21.5t-35.5 -21l-270 -154q-56 -31 -70 -31z" />
    <glyph glyph-name="Ucircumflex" unicode="&#xdb;" horiz-adv-x="1120" 
d="M358 1102v-778q0 -142 52 -209q33 -43 87.5 -64.5t112.5 -21.5q163 0 240 118q49 77 49 220v698q0 92 -19.5 124t-72.5 34q-43 5 -51 14q-6 8 -6 20q0 14 11 22.5t30 8.5q13 0 54.5 -4t76.5 -4q44 0 87.5 4t53.5 4q33 0 33 -31q0 -8 -3 -13t-10.5 -8.5t-13 -5t-19 -4
t-20.5 -3.5q-40 -7 -51.5 -33.5t-11.5 -104.5v-696q0 -187 -78 -287q-98 -133 -322 -133q-185 0 -293 82q-110 85 -110 271v804q0 60 -10.5 78.5t-49.5 22.5q-36 5 -48.5 11t-12.5 24q0 26 43 26q29 0 89.5 -4t92.5 -4q50 0 111.5 4t79.5 4q19 0 28.5 -1t17 -7.5t7.5 -19.5
q0 -16 -15 -22t-53 -11q-25 -3 -38.5 -7t-26 -16.5t-17 -37t-4.5 -64.5zM557 1726h57q39 0 58 -30l182 -271q16 -21 16 -36q0 -13 -24 -13t-53 29l-207 205l-207 -205q-29 -29 -53 -29q-25 0 -25 13q0 15 16 36l183 271q12 18 24 24t33 6z" />
    <glyph glyph-name="Udieresis" unicode="&#xdc;" horiz-adv-x="1120" 
d="M358 1102v-778q0 -142 52 -209q33 -43 87.5 -64.5t112.5 -21.5q163 0 240 118q49 77 49 220v698q0 92 -19.5 124t-72.5 34q-43 5 -51 14q-6 8 -6 20q0 14 11 22.5t30 8.5q13 0 54.5 -4t76.5 -4q44 0 87.5 4t53.5 4q33 0 33 -31q0 -8 -3 -13t-10.5 -8.5t-13 -5t-19 -4
t-20.5 -3.5q-40 -7 -51.5 -33.5t-11.5 -104.5v-696q0 -187 -78 -287q-98 -133 -322 -133q-185 0 -293 82q-110 85 -110 271v804q0 60 -10.5 78.5t-49.5 22.5q-36 5 -48.5 11t-12.5 24q0 26 43 26q29 0 89.5 -4t92.5 -4q50 0 111.5 4t79.5 4q19 0 28.5 -1t17 -7.5t7.5 -19.5
q0 -16 -15 -22t-53 -11q-25 -3 -38.5 -7t-26 -16.5t-17 -37t-4.5 -64.5zM416 1407h-2q-40 0 -66 30.5t-26 73.5q0 44 26 73.5t68 29.5t69 -31t27 -74q0 -42 -27 -72t-69 -30zM760 1407h-2q-40 0 -67 31t-27 73q0 44 26.5 73.5t69.5 29.5q42 0 69 -31t27 -74q0 -42 -27.5 -72
t-68.5 -30z" />
    <glyph glyph-name="Yacute" unicode="&#xdd;" horiz-adv-x="942" 
d="M373 164v364q0 29 -6 49t-27 62q-26 56 -71 154t-83 179.5t-73 151.5q-30 56 -50.5 75t-52.5 24q-3 1 -11 2.5t-11 2t-8.5 2.5t-8 3.5t-5.5 4.5t-4 6.5t-1 8.5q0 17 11.5 26t29.5 9q20 0 78 -4t98 -4q59 0 125.5 4t75.5 4q16 0 28.5 -8.5t12.5 -22.5q0 -8 -2.5 -13.5
t-9 -8.5t-11 -4.5t-17 -3t-18.5 -2.5q-34 -8 -46.5 -16.5t-12.5 -30.5q0 -7 3.5 -18t12 -31.5t18 -41.5t27 -61.5t33.5 -77.5q112 -266 138 -266q11 0 27 28t65 131q18 37 28 58q113 232 113 272q0 25 -18 36.5t-62 17.5q-40 6 -46 16q-3 4 -3 10q0 37 45 37q22 0 67.5 -4
t69.5 -4q35 0 73.5 4t53.5 4q33 0 33 -31q0 -7 -1.5 -12t-3 -8t-7 -5.5t-7.5 -3.5t-10.5 -2.5t-11.5 -2.5q-36 -6 -63 -33.5t-60 -91.5q-39 -79 -108.5 -223t-102.5 -211q-25 -51 -32 -73.5t-7 -51.5v-385q0 -52 15 -74t55 -25q5 -1 14.5 -2.5t15 -2t13 -2.5t11.5 -4t8 -5.5
t6 -8t2 -10.5q0 -18 -11.5 -23t-38.5 -5q-18 0 -77 4t-103 4q-48 0 -116.5 -4t-90.5 -4q-26 0 -35.5 6.5t-9.5 21.5q0 16 16.5 23t59.5 14q45 3 58.5 23t13.5 84zM406 1376h-3q-6 0 -11 6t-5 13t7 15.5t18 18t14 13.5l236 211q24 22 37.5 33.5t36 23.5t42.5 12q28 0 45 -17
t17 -44q0 -16 -7.5 -30t-23.5 -27.5t-28.5 -21.5t-35.5 -21l-270 -154q-56 -31 -69 -31z" />
    <glyph glyph-name="Thorn" unicode="&#xde;" horiz-adv-x="1005" 
d="M381 303v-139q0 -57 13 -80.5t52 -26.5q13 -2 32 -4.5t27.5 -4t18.5 -4.5t13.5 -8t3.5 -13q0 -31 -45 -31q-13 0 -74.5 4t-130.5 4t-127 -4t-68 -4q-25 0 -35 5t-10 21q0 19 14 26t60 13q35 1 47 22.5t12 74.5v981q0 49 -14 68t-51 22q-53 6 -60.5 12t-7.5 20q0 31 35 31
q26 0 91.5 -3.5t107.5 -4.5q44 0 109 4t89 4q47 0 47 -31q0 -23 -62 -31q-5 -1 -7.5 -1t-6.5 -1t-8 -1q-65 -9 -65 -78v-101q0 -11 4 -14t16 -2q98 8 158 8q180 0 286.5 -101.5t106.5 -272.5q0 -152 -103.5 -252.5t-258.5 -100.5q-26 0 -50.5 3t-52.5 9t-36 7q-36 8 -45 8
q-25 0 -25 -33zM381 895v-428q0 -41 22 -61q36 -29 95 -29q114 0 179.5 78.5t65.5 214.5q0 147 -68.5 227t-189.5 80q-61 0 -82.5 -18.5t-21.5 -63.5z" />
    <glyph glyph-name="germandbls" unicode="&#xdf;" horiz-adv-x="1026" 
d="M338 969v-920q0 -36 -6.5 -46.5t-30.5 -10.5q-19 0 -54.5 4t-56.5 4q-34 0 -72 -4t-50 -4q-37 0 -37 26q0 28 37 31q60 7 77 30.5t17 94.5v588q0 31 -12 40t-46 9q-33 0 -46 6t-13 23q0 5 1.5 10t3.5 8t6.5 6.5t7 5t9.5 4.5t10 4t11.5 3.5t11.5 3.5q28 8 46.5 33t21.5 63
q11 210 112.5 338.5t268.5 128.5q157 0 253.5 -79.5t96.5 -223.5q0 -98 -41.5 -148.5t-111.5 -76.5q-14 -5 -38 -13l-37.5 -12.5t-31 -13t-27 -16.5t-16 -21t-6.5 -29q0 -28 19 -53.5t39 -39.5t67.5 -43t69.5 -44q42 -29 72 -56t60 -67.5t46 -94.5t16 -120
q0 -140 -90.5 -230t-237.5 -90q-113 0 -178 41q-26 14 -32.5 29.5t-6.5 50.5v176q0 62 35 62q21 0 36 -31t26 -75t25.5 -87.5t43 -74.5t70.5 -31q81 0 114 51t33 150q0 53 -20 99.5t-52 80t-71 64t-78 60t-71 60t-52 70.5t-20 86q0 37 9 64t27 43.5t37 27.5t46 23q3 1 5.5 2
t4.5 2q68 31 103.5 78.5t35.5 142.5q0 116 -48 180.5t-138 64.5q-109 0 -156 -98.5t-47 -318.5z" />
    <glyph glyph-name="agrave" unicode="&#xe0;" horiz-adv-x="876" 
d="M537 637v119q0 73 -19.5 104t-66.5 31q-68 0 -108.5 -45t-68.5 -129q-22 -69 -69 -99q-40 -28 -82 -28q-29 0 -41 12.5t-12 40.5q0 45 32 98t87 99t137.5 77t173.5 31q124 0 170 -41q25 -19 34 -49t9 -80v-585q0 -89 57 -89q40 0 61 37q17 39 29 39q17 0 17 -35
q0 -44 -55 -104.5t-134 -60.5q-30 0 -53 10t-37.5 31t-21 33t-15.5 36q-11 29 -22 29q-7 0 -20.5 -10t-37 -31t-43.5 -35q-89 -70 -192 -70q-75 0 -123.5 49t-48.5 136q0 79 55.5 141.5t185.5 142.5q32 21 82.5 52.5t69.5 44.5q42 25 56 44t14 54zM258 197v-2q0 -55 28 -85
t74 -30q62 0 127 65q28 28 39 53.5t11 63.5v209q0 31 -15 31q-12 0 -47 -21q-71 -48 -119 -96q-98 -91 -98 -188zM616 1077v-2q0 -16 -16 -16q-14 0 -70 31l-272 153q-3 2 -15 9.5t-15 10t-13.5 9.5t-14 10t-11 9.5t-10 11.5t-6.5 11.5t-5.5 13t-1.5 13.5q0 26 17 45t42 19
q21 0 44.5 -12t37 -23.5t37.5 -34.5l236 -211q1 -1 9.5 -9t12.5 -12.5t9 -12t5 -13.5z" />
    <glyph glyph-name="aacute" unicode="&#xe1;" horiz-adv-x="876" 
d="M537 637v119q0 73 -19.5 104t-66.5 31q-68 0 -108.5 -45t-68.5 -129q-22 -69 -69 -99q-40 -28 -82 -28q-29 0 -41 12.5t-12 40.5q0 45 32 98t87 99t137.5 77t173.5 31q124 0 170 -41q25 -19 34 -49t9 -80v-585q0 -89 57 -89q40 0 61 37q17 39 29 39q17 0 17 -35
q0 -44 -55 -104.5t-134 -60.5q-30 0 -53 10t-37.5 31t-21 33t-15.5 36q-11 29 -22 29q-7 0 -20.5 -10t-37 -31t-43.5 -35q-89 -70 -192 -70q-75 0 -123.5 49t-48.5 136q0 79 55.5 141.5t185.5 142.5q32 21 82.5 52.5t69.5 44.5q42 25 56 44t14 54zM258 197v-2q0 -55 28 -85
t74 -30q62 0 127 65q28 28 39 53.5t11 63.5v209q0 31 -15 31q-12 0 -47 -21q-71 -48 -119 -96q-98 -91 -98 -188zM295 1059h-2q-14 0 -14 16q0 6 5 13.5t9 12t12.5 12.5t9.5 9l236 211q70 70 117 70q27 0 44 -17.5t17 -44.5q0 -15 -7 -29t-23 -26.5t-28.5 -21t-35.5 -21.5
l-270 -156q-51 -28 -70 -28z" />
    <glyph glyph-name="acircumflex" unicode="&#xe2;" horiz-adv-x="876" 
d="M537 637v119q0 73 -19.5 104t-66.5 31q-68 0 -108.5 -45t-68.5 -129q-22 -69 -69 -99q-40 -28 -82 -28q-29 0 -41 12.5t-12 40.5q0 45 32 98t87 99t137.5 77t173.5 31q124 0 170 -41q25 -19 34 -49t9 -80v-585q0 -89 57 -89q40 0 61 37q17 39 29 39q17 0 17 -35
q0 -44 -55 -104.5t-134 -60.5q-30 0 -53 10t-37.5 31t-21 33t-15.5 36q-11 29 -22 29q-7 0 -20.5 -10t-37 -31t-43.5 -35q-89 -70 -192 -70q-75 0 -123.5 49t-48.5 136q0 79 55.5 141.5t185.5 142.5q32 21 82.5 52.5t69.5 44.5q42 25 56 44t14 54zM258 197v-2q0 -55 28 -85
t74 -30q62 0 127 65q28 28 39 53.5t11 63.5v209q0 31 -15 31q-12 0 -47 -21q-71 -48 -119 -96q-98 -91 -98 -188zM403 1407h56q39 0 59 -29l182 -272q15 -24 15 -35q0 -12 -25 -12q-23 0 -53 26l-207 207l-207 -207q-26 -26 -51 -26t-25 12q0 11 15 35l182 272q20 29 59 29z
" />
    <glyph glyph-name="atilde" unicode="&#xe3;" horiz-adv-x="876" 
d="M537 637v119q0 73 -19.5 104t-66.5 31q-68 0 -108.5 -45t-68.5 -129q-22 -69 -69 -99q-40 -28 -82 -28q-29 0 -41 12.5t-12 40.5q0 45 32 98t87 99t137.5 77t173.5 31q124 0 170 -41q25 -19 34 -49t9 -80v-585q0 -89 57 -89q40 0 61 37q17 39 29 39q17 0 17 -35
q0 -44 -55 -104.5t-134 -60.5q-30 0 -53 10t-37.5 31t-21 33t-15.5 36q-11 29 -22 29q-7 0 -20.5 -10t-37 -31t-43.5 -35q-89 -70 -192 -70q-75 0 -123.5 49t-48.5 136q0 79 55.5 141.5t185.5 142.5q32 21 82.5 52.5t69.5 44.5q42 25 56 44t14 54zM258 197v-2q0 -55 28 -85
t74 -30q62 0 127 65q28 28 39 53.5t11 63.5v209q0 31 -15 31q-12 0 -47 -21q-71 -48 -119 -96q-98 -91 -98 -188zM553 1090h-2q-58 0 -154 65q-2 1 -18 12t-20.5 14t-18.5 11.5t-21.5 12t-19 8.5t-21 6.5t-18.5 1.5q-25 0 -45 -18t-29.5 -39.5t-20.5 -39.5t-20 -18
q-11 0 -17.5 7t-6.5 17q2 20 13.5 48.5t32.5 61t58.5 55t83.5 22.5q27 0 59.5 -12t51.5 -23.5t51 -32.5q89 -65 131 -65q32 0 54.5 29t36 58t24.5 29q26 0 22 -24q-1 -19 -12.5 -48t-32.5 -61t-58.5 -54.5t-82.5 -22.5z" />
    <glyph glyph-name="adieresis" unicode="&#xe4;" horiz-adv-x="876" 
d="M537 637v119q0 73 -19.5 104t-66.5 31q-68 0 -108.5 -45t-68.5 -129q-22 -69 -69 -99q-40 -28 -82 -28q-29 0 -41 12.5t-12 40.5q0 45 32 98t87 99t137.5 77t173.5 31q124 0 170 -41q25 -19 34 -49t9 -80v-585q0 -89 57 -89q40 0 61 37q17 39 29 39q17 0 17 -35
q0 -44 -55 -104.5t-134 -60.5q-30 0 -53 10t-37.5 31t-21 33t-15.5 36q-11 29 -22 29q-7 0 -20.5 -10t-37 -31t-43.5 -35q-89 -70 -192 -70q-75 0 -123.5 49t-48.5 136q0 79 55.5 141.5t185.5 142.5q32 21 82.5 52.5t69.5 44.5q42 25 56 44t14 54zM258 197v-2q0 -55 28 -85
t74 -30q62 0 127 65q28 28 39 53.5t11 63.5v209q0 31 -15 31q-12 0 -47 -21q-71 -48 -119 -96q-98 -91 -98 -188zM262 1087h-2q-41 0 -67.5 31t-26.5 74q0 44 26.5 73t69.5 29q40 0 67 -30.5t27 -71.5q0 -44 -26.5 -74.5t-67.5 -30.5zM604 1087h-2q-40 0 -67 31.5t-27 73.5
q0 44 26.5 73t69.5 29q42 0 69 -30.5t27 -71.5q0 -43 -27.5 -74t-68.5 -31z" />
    <glyph glyph-name="aring" unicode="&#xe5;" horiz-adv-x="876" 
d="M537 637v119q0 73 -19.5 104t-66.5 31q-68 0 -108.5 -45t-68.5 -129q-22 -69 -69 -99q-40 -28 -82 -28q-29 0 -41 12.5t-12 40.5q0 45 32 98t87 99t137.5 77t173.5 31q124 0 170 -41q25 -19 34 -49t9 -80v-585q0 -89 57 -89q40 0 61 37q17 39 29 39q17 0 17 -35
q0 -44 -55 -104.5t-134 -60.5q-30 0 -53 10t-37.5 31t-21 33t-15.5 36q-11 29 -22 29q-7 0 -20.5 -10t-37 -31t-43.5 -35q-89 -70 -192 -70q-75 0 -123.5 49t-48.5 136q0 79 55.5 141.5t185.5 142.5q32 21 82.5 52.5t69.5 44.5q42 25 56 44t14 54zM258 197v-2q0 -55 28 -85
t74 -30q62 0 127 65q28 28 39 53.5t11 63.5v209q0 31 -15 31q-12 0 -47 -21q-71 -48 -119 -96q-98 -91 -98 -188zM434 1059h-2q-85 0 -144 60t-59 145t59.5 144.5t145.5 59.5q85 0 145 -59.5t60 -144.5t-60 -145t-145 -60zM434 1133h2q53 0 91 38.5t38 92.5q0 55 -38.5 93
t-92.5 38q-56 0 -94.5 -38t-38.5 -93q0 -54 39 -92.5t94 -38.5z" />
    <glyph glyph-name="ae" unicode="&#xe6;" horiz-adv-x="1253" 
d="M1143 512h-406q-30 0 -39.5 -10.5t-9.5 -38.5q0 -171 67.5 -277t186.5 -106q124 0 191 113q6 10 12 21t8.5 16.5t6.5 10.5t7 7t7 2q20 0 20 -29q0 -33 -25 -88q-33 -71 -101.5 -115.5t-168.5 -44.5q-200 0 -299 166q-128 -166 -324 -166q-111 0 -169 48.5t-58 138.5
q0 76 53.5 135t176.5 139q35 23 68.5 43t64.5 38t43 26q33 21 42 35.5t11 44.5v92q0 80 -29.5 129t-85.5 49q-93 0 -149 -172q-20 -60 -66 -96q-43 -31 -88 -31q-30 0 -41.5 12t-11.5 41q0 47 35.5 101.5t90 98.5t125.5 73.5t138 29.5q72 0 121.5 -38.5t70.5 -104.5
q44 71 118.5 107t162.5 36q136 0 221.5 -88.5t85.5 -236.5q0 -76 -10 -93.5t-53 -17.5zM700 623v-2q0 -25 14 -34t62 -9q100 0 191 18q41 9 58 35t17 74q0 84 -39 133t-100 49q-83 0 -143 -79.5t-60 -184.5zM352 66h2q65 0 109 42.5t45 118.5v215q0 32 -3.5 43t-15.5 11
q-7 0 -45 -23q-96 -65 -152 -132.5t-56 -147.5q0 -58 31.5 -92.5t84.5 -34.5z" />
    <glyph glyph-name="ccedilla" unicode="&#xe7;" horiz-adv-x="751" 
d="M39 428v2q0 223 127.5 370.5t314.5 147.5q113 0 176 -39q32 -19 40.5 -32.5t9.5 -51.5v-71q0 -40 -7 -68q-3 -29 -14 -40t-33 -11q-11 0 -19 5.5t-16 19.5t-14 27t-17 40t-20 47q-27 56 -49.5 78t-62.5 22q-92 0 -158 -105t-66 -265q0 -202 70.5 -310t179.5 -108
q100 0 166 92q10 15 19 32.5t13.5 27.5t11 17t14.5 7q22 0 22 -31q0 -92 -77.5 -171t-211.5 -85l-65 -98q36 4 51 4q49 0 90.5 -12.5t72.5 -45.5t31 -83q0 -73 -60.5 -117.5t-145.5 -44.5q-34 0 -73 6.5t-76.5 28.5t-37.5 55q0 17 10 32t29 15t34.5 -14.5t26 -32.5
t32.5 -32.5t53 -14.5q42 0 74 28.5t32 69.5q0 101 -123 101q-20 0 -49.5 -4t-40.5 -4q-18 0 -18 20q0 4 4 12.5t9.5 17.5t6.5 11l68 104q-152 17 -243 139.5t-91 311.5z" />
    <glyph glyph-name="egrave" unicode="&#xe8;" horiz-adv-x="788" 
d="M678 508h-395q-32 0 -44 -10.5t-12 -38.5q0 -162 70 -270.5t186 -108.5q130 0 187 108q3 6 7 15t6.5 13.5t5.5 11t5.5 10t5.5 6.5t5.5 4.5t5.5 1.5q20 0 20 -29q0 -36 -37 -100q-38 -68 -107.5 -108t-158.5 -40q-179 0 -285 132t-106 337q0 122 33 220t89 159.5t126.5 94
t148.5 32.5q135 0 218 -91t83 -241q0 -75 -8.5 -91.5t-48.5 -16.5zM233 618v-2q0 -28 13 -36.5t63 -8.5q53 0 107 7q103 13 131 38q31 22 31 84q0 82 -39.5 135.5t-108.5 53.5q-85 0 -141 -83.5t-56 -187.5zM551 1077v-2q0 -16 -16 -16q-14 0 -70 31l-270 153q-63 39 -78 57
q-17 19 -17 41q0 26 17.5 45t42.5 19q21 0 44.5 -12t37 -23.5t37.5 -34.5l235 -211q1 -1 9.5 -9t13 -13t9.5 -12t5 -13z" />
    <glyph glyph-name="eacute" unicode="&#xe9;" horiz-adv-x="788" 
d="M678 508h-395q-32 0 -44 -10.5t-12 -38.5q0 -162 70 -270.5t186 -108.5q130 0 187 108q3 6 7 15t6.5 13.5t5.5 11t5.5 10t5.5 6.5t5.5 4.5t5.5 1.5q20 0 20 -29q0 -36 -37 -100q-38 -68 -107.5 -108t-158.5 -40q-179 0 -285 132t-106 337q0 122 33 220t89 159.5t126.5 94
t148.5 32.5q135 0 218 -91t83 -241q0 -75 -8.5 -91.5t-48.5 -16.5zM233 618v-2q0 -28 13 -36.5t63 -8.5q53 0 107 7q103 13 131 38q31 22 31 84q0 82 -39.5 135.5t-108.5 53.5q-85 0 -141 -83.5t-56 -187.5zM262 1059h-2q-5 0 -9.5 4.5t-4.5 11.5t6.5 15.5t19.5 19.5l13 12
l235 211q70 70 117 70q27 0 44 -17.5t17 -44.5q0 -15 -7 -28.5t-24.5 -27.5t-27.5 -20.5t-35 -21.5l-270 -156q-54 -28 -72 -28z" />
    <glyph glyph-name="ecircumflex" unicode="&#xea;" horiz-adv-x="788" 
d="M678 508h-395q-32 0 -44 -10.5t-12 -38.5q0 -162 70 -270.5t186 -108.5q130 0 187 108q3 6 7 15t6.5 13.5t5.5 11t5.5 10t5.5 6.5t5.5 4.5t5.5 1.5q20 0 20 -29q0 -36 -37 -100q-38 -68 -107.5 -108t-158.5 -40q-179 0 -285 132t-106 337q0 122 33 220t89 159.5t126.5 94
t148.5 32.5q135 0 218 -91t83 -241q0 -75 -8.5 -91.5t-48.5 -16.5zM233 618v-2q0 -28 13 -36.5t63 -8.5q53 0 107 7q103 13 131 38q31 22 31 84q0 82 -39.5 135.5t-108.5 53.5q-85 0 -141 -83.5t-56 -187.5zM369 1407h55q39 0 59 -29l183 -272q14 -22 14 -35q0 -12 -25 -12
q-23 0 -53 26l-207 207l-207 -207q-26 -26 -51 -26q-24 0 -24 12q0 13 14 35l182 272q20 29 60 29z" />
    <glyph glyph-name="edieresis" unicode="&#xeb;" horiz-adv-x="788" 
d="M678 508h-395q-32 0 -44 -10.5t-12 -38.5q0 -162 70 -270.5t186 -108.5q130 0 187 108q3 6 7 15t6.5 13.5t5.5 11t5.5 10t5.5 6.5t5.5 4.5t5.5 1.5q20 0 20 -29q0 -36 -37 -100q-38 -68 -107.5 -108t-158.5 -40q-179 0 -285 132t-106 337q0 122 33 220t89 159.5t126.5 94
t148.5 32.5q135 0 218 -91t83 -241q0 -75 -8.5 -91.5t-48.5 -16.5zM233 618v-2q0 -28 13 -36.5t63 -8.5q53 0 107 7q103 13 131 38q31 22 31 84q0 82 -39.5 135.5t-108.5 53.5q-85 0 -141 -83.5t-56 -187.5zM225 1087h-2q-41 0 -67.5 31t-26.5 74q0 44 26.5 73t69.5 29
q40 0 67 -30.5t27 -71.5q0 -44 -26.5 -74.5t-67.5 -30.5zM567 1087h-2q-40 0 -67 31.5t-27 73.5q0 44 26.5 73t69.5 29q42 0 69.5 -30.5t27.5 -71.5q0 -43 -28 -74t-69 -31z" />
    <glyph glyph-name="igrave" unicode="&#xec;" horiz-adv-x="497" 
d="M164 160v536q0 49 -15 66.5t-63 25.5q-35 6 -35 25q0 13 14.5 21.5t51.5 19.5q73 20 166 74q33 20 41 20q16 0 16 -30v-97v-659q0 -59 11.5 -82t60.5 -31q30 -6 40.5 -12.5t10.5 -20.5t-7 -19t-26 -5q-16 0 -71.5 4t-106.5 4q-56 0 -112 -4t-68 -4q-31 0 -31 24
q0 14 9.5 21t31.5 12q55 7 68.5 26.5t13.5 84.5zM401 1077v-2q0 -16 -18 -16q-12 0 -68 31l-272 153q-63 39 -78 58q-16 19 -16 40q0 26 18 45t43 19q20 0 43 -12t36.5 -23.5t37.5 -34.5l235 -211l13 -12q13 -11 19.5 -19.5t6.5 -15.5z" />
    <glyph glyph-name="iacute" unicode="&#xed;" horiz-adv-x="497" 
d="M164 160v536q0 49 -15 66.5t-63 25.5q-35 6 -35 25q0 13 14.5 21.5t51.5 19.5q73 20 166 74q33 20 41 20q16 0 16 -30v-97v-659q0 -59 11.5 -82t60.5 -31q30 -6 40.5 -12.5t10.5 -20.5t-7 -19t-26 -5q-16 0 -71.5 4t-106.5 4q-56 0 -112 -4t-68 -4q-31 0 -31 24
q0 14 9.5 21t31.5 12q55 7 68.5 26.5t13.5 84.5zM109 1059h-3q-16 0 -16 16q0 7 6.5 15.5t19.5 19.5l13 12l236 211q70 70 116 70q27 0 44.5 -17.5t17.5 -44.5q0 -15 -7 -29t-23 -26.5t-28.5 -21t-35.5 -21.5l-271 -156q-51 -28 -69 -28z" />
    <glyph glyph-name="icircumflex" unicode="&#xee;" horiz-adv-x="497" 
d="M164 160v536q0 49 -15 66.5t-63 25.5q-35 6 -35 25q0 13 14.5 21.5t51.5 19.5q73 20 166 74q33 20 41 20q16 0 16 -30v-97v-659q0 -59 11.5 -82t60.5 -31q30 -6 40.5 -12.5t10.5 -20.5t-7 -19t-26 -5q-16 0 -71.5 4t-106.5 4q-56 0 -112 -4t-68 -4q-31 0 -31 24
q0 14 9.5 21t31.5 12q55 7 68.5 26.5t13.5 84.5zM223 1407h58q37 0 57 -29l182 -272q17 -23 17 -35t-27 -12q-21 0 -51 26l-207 207l-207 -207q-30 -26 -53 -26q-25 0 -25 12t17 35l182 272q18 29 57 29z" />
    <glyph glyph-name="idieresis" unicode="&#xef;" horiz-adv-x="497" 
d="M164 160v536q0 49 -15 66.5t-63 25.5q-35 6 -35 25q0 13 14.5 21.5t51.5 19.5q73 20 166 74q33 20 41 20q16 0 16 -30v-97v-659q0 -59 11.5 -82t60.5 -31q30 -6 40.5 -12.5t10.5 -20.5t-7 -19t-26 -5q-16 0 -71.5 4t-106.5 4q-56 0 -112 -4t-68 -4q-31 0 -31 24
q0 14 9.5 21t31.5 12q55 7 68.5 26.5t13.5 84.5zM78 1087h-2q-41 0 -67.5 31t-26.5 74q0 44 26.5 73t69.5 29q40 0 67 -30.5t27 -71.5q0 -44 -26.5 -74.5t-67.5 -30.5zM420 1087h-2q-40 0 -66 31t-26 74q0 44 25.5 73t68.5 29q42 0 69 -30.5t27 -71.5q0 -44 -27 -74.5
t-69 -30.5z" />
    <glyph glyph-name="eth" unicode="&#xf0;" horiz-adv-x="903" 
d="M465 1200l-236 -133l-9 -4.5t-9 -3.5t-12 10l-15 25q-4 8 -4 12q0 6 15 14l231 129q-81 93 -147 131q-17 11 -38 20.5t-27.5 14.5t-6.5 12q0 19 24 19q50 0 128 -39.5t153 -108.5l238 134q12 8 16 8q7 0 12 -10l15 -23q6 -9 6 -12q0 -7 -15 -15l-223 -127
q132 -132 213.5 -333t81.5 -398q0 -253 -113 -401t-290 -148q-117 0 -210 66.5t-143.5 177.5t-50.5 244q0 132 49 242t141.5 176.5t211.5 66.5q93 0 153 -51l4 4q-48 187 -143 301zM457 31h2q67 0 115.5 63t70 153.5t21.5 192.5q0 118 -23 218t-74 166.5t-120 66.5
q-67 0 -116 -61t-71 -151.5t-22 -197.5q0 -117 23.5 -217.5t74.5 -166.5t119 -66z" />
    <glyph glyph-name="ntilde" unicode="&#xf1;" horiz-adv-x="1001" 
d="M145 164v532q0 52 -10 65.5t-49 18.5q-29 3 -39 7.5t-10 15.5q0 19 55 36q5 2 8 3q106 39 162 84q28 22 39 22q16 0 16 -35v-82q0 -34 9 -34q8 0 20 8t37.5 29.5t38.5 31.5q97 72 186 72q114 0 183 -72q67 -70 67 -196v-523q0 -52 15.5 -73.5t52.5 -26.5q29 -3 41 -9.5
t12 -21.5q0 -24 -37 -24q-4 0 -60.5 4t-113.5 4q-53 0 -101 -4t-57 -4q-18 0 -25 5.5t-7 20.5q0 20 34 27q39 8 54.5 25t15.5 59v520q0 79 -35 125q-45 57 -123 57q-82 0 -143 -55q-57 -54 -57 -125v-522q0 -41 11.5 -59t47.5 -25q50 -9 56 -16q3 -4 3 -11q0 -26 -30 -26
l-54 4q-54 4 -127 4q-61 0 -107 -4t-54 -4q-39 0 -39 26q0 27 37 31q49 4 63 27t14 88zM625 1090h-2q-62 0 -154 65q-5 3 -22 14.5t-24.5 16t-22.5 13t-24.5 12t-22 7t-23.5 3.5q-25 0 -45 -18t-29.5 -39.5t-20.5 -39.5t-20 -18q-11 0 -17.5 7t-4.5 17q1 20 12 49t32 61
t58.5 54.5t83.5 22.5q28 0 60.5 -12.5t50 -22.5t51.5 -33q89 -65 131 -65q25 0 44.5 18t29.5 40t20.5 40t19.5 18q13 0 19 -7t4 -17q-1 -20 -12 -48.5t-31.5 -60.5t-58 -54.5t-82.5 -22.5z" />
    <glyph glyph-name="ograve" unicode="&#xf2;" horiz-adv-x="903" 
d="M453 -27h-2q-116 0 -209 66.5t-143 177.5t-50 244q0 132 49 242t142.5 177.5t212.5 67.5q121 0 214.5 -68t141 -177.5t47.5 -239.5q0 -134 -50 -245.5t-143 -178t-210 -66.5zM457 31h2q67 0 115.5 63t70 153.5t21.5 192.5q0 118 -23 218t-74 166.5t-120 66.5
q-67 0 -116 -61t-71 -151.5t-22 -197.5q0 -117 23.5 -217.5t74.5 -166.5t119 -66zM604 1077v-2q0 -16 -16 -16q-14 0 -70 31l-272 153q-4 3 -16.5 11t-17.5 11t-15.5 10.5t-15 11.5t-11.5 11.5t-10 13.5t-5.5 13.5t-2.5 15.5q0 26 18 45t43 19q47 0 117 -70l237 -211
q2 -3 12.5 -12.5t17.5 -18.5t7 -16z" />
    <glyph glyph-name="oacute" unicode="&#xf3;" horiz-adv-x="903" 
d="M453 -27h-2q-116 0 -209 66.5t-143 177.5t-50 244q0 132 49 242t142.5 177.5t212.5 67.5q121 0 214.5 -68t141 -177.5t47.5 -239.5q0 -134 -50 -245.5t-143 -178t-210 -66.5zM457 31h2q67 0 115.5 63t70 153.5t21.5 192.5q0 118 -23 218t-74 166.5t-120 66.5
q-67 0 -116 -61t-71 -151.5t-22 -197.5q0 -117 23.5 -217.5t74.5 -166.5t119 -66zM317 1059h-2q-14 0 -14 16q0 7 7 16t17.5 18.5t12.5 12.5l237 211q66 70 117 70q26 0 44 -18t18 -44q0 -20 -17 -40t-31 -29t-47 -29l-272 -156q-51 -28 -70 -28z" />
    <glyph glyph-name="ocircumflex" unicode="&#xf4;" horiz-adv-x="903" 
d="M453 -27h-2q-116 0 -209 66.5t-143 177.5t-50 244q0 132 49 242t142.5 177.5t212.5 67.5q121 0 214.5 -68t141 -177.5t47.5 -239.5q0 -134 -50 -245.5t-143 -178t-210 -66.5zM457 31h2q67 0 115.5 63t70 153.5t21.5 192.5q0 118 -23 218t-74 166.5t-120 66.5
q-67 0 -116 -61t-71 -151.5t-22 -197.5q0 -117 23.5 -217.5t74.5 -166.5t119 -66zM424 1407h57q38 0 58 -29l182 -272q16 -21 16 -35q0 -12 -24 -12t-54 26l-206 207l-207 -207q-30 -26 -53 -26q-25 0 -25 12q0 14 16 35l183 272q20 29 57 29z" />
    <glyph glyph-name="otilde" unicode="&#xf5;" horiz-adv-x="903" 
d="M453 -27h-2q-116 0 -209 66.5t-143 177.5t-50 244q0 132 49 242t142.5 177.5t212.5 67.5q121 0 214.5 -68t141 -177.5t47.5 -239.5q0 -134 -50 -245.5t-143 -178t-210 -66.5zM457 31h2q67 0 115.5 63t70 153.5t21.5 192.5q0 118 -23 218t-74 166.5t-120 66.5
q-67 0 -116 -61t-71 -151.5t-22 -197.5q0 -117 23.5 -217.5t74.5 -166.5t119 -66zM575 1090h-2q-61 0 -153 65q-2 1 -18 12t-20.5 14t-18.5 11.5t-21.5 12t-19 8.5t-21 6.5t-18.5 1.5q-25 0 -45 -18t-29.5 -39.5t-20.5 -39.5t-20 -18q-25 0 -25 24q2 20 13.5 48.5t32.5 61
t58.5 55t82.5 22.5q28 0 61.5 -13t48.5 -22t54 -33q89 -65 131 -65q25 0 44.5 18t29 40t20 40t20.5 18q23 0 23 -24q-1 -15 -8 -36.5t-22.5 -48t-36 -49t-52 -37.5t-68.5 -15z" />
    <glyph glyph-name="odieresis" unicode="&#xf6;" horiz-adv-x="903" 
d="M453 -27h-2q-116 0 -209 66.5t-143 177.5t-50 244q0 132 49 242t142.5 177.5t212.5 67.5q121 0 214.5 -68t141 -177.5t47.5 -239.5q0 -134 -50 -245.5t-143 -178t-210 -66.5zM457 31h2q67 0 115.5 63t70 153.5t21.5 192.5q0 118 -23 218t-74 166.5t-120 66.5
q-67 0 -116 -61t-71 -151.5t-22 -197.5q0 -117 23.5 -217.5t74.5 -166.5t119 -66zM281 1087h-2q-40 0 -67.5 31.5t-27.5 73.5q0 44 27 73t70 29q42 0 69 -30.5t27 -71.5q0 -44 -27 -74.5t-69 -30.5zM625 1087h-2q-42 0 -68.5 31t-26.5 74q0 44 27 73t70 29q40 0 68 -30.5
t28 -71.5q0 -43 -27.5 -74t-68.5 -31z" />
    <glyph glyph-name="divide" unicode="&#xf7;" horiz-adv-x="1216" 
d="M479 942v2q0 52 38 89.5t91 37.5t92 -38.5t39 -90.5q0 -50 -39 -89.5t-90 -39.5q-54 0 -92.5 38t-38.5 91zM1124 453h-1032v131h1032v-131zM479 94v2q0 52 38 89.5t91 37.5t92 -38.5t39 -90.5q0 -50 -39 -89.5t-90 -39.5q-54 0 -92.5 38t-38.5 91z" />
    <glyph glyph-name="oslash" unicode="&#xf8;" horiz-adv-x="903" 
d="M248 37l-109 -203q-12 -18 -26 -18h-31q-19 0 -19 8q0 4 2.5 9l6.5 13t6 13l117 219q-68 68 -107 168.5t-39 214.5q0 132 49 242t142.5 177.5t212.5 67.5q110 0 204 -63l109 202q10 19 29 19h28q17 0 17 -8q0 -5 -15 -35l-116 -221q69 -63 108 -164t39 -217
q0 -133 -50 -244t-143 -177.5t-210 -66.5q-113 0 -205 64zM287 207l297 581q-23 46 -58.5 74.5t-76.5 28.5q-69 0 -118 -63t-70 -153t-21 -194q0 -144 47 -274zM618 715l-299 -582q54 -102 138 -102q67 0 116 62.5t71 153t22 193.5q0 148 -48 275z" />
    <glyph glyph-name="ugrave" unicode="&#xf9;" horiz-adv-x="999" 
d="M319 854v-590q0 -82 40 -129t122 -47q94 0 158 70q39 45 39 106v510q0 50 -11 69t-49 23q-6 1 -14.5 2t-12.5 1.5t-10 2t-9 2.5t-6.5 3.5t-5 5t-2.5 7t-1 9.5q0 29 41 29q16 0 52.5 -2t54.5 -2q19 0 57 2t59 2q17 0 25 -9t8 -38v-76v-602q0 -50 12 -69.5t45 -20.5
q30 -3 41 -8.5t11 -18.5q-1 -12 -14 -19t-50 -18q-133 -48 -176 -69q-21 -7 -29 -7q-10 0 -10 25v90q0 29 -14 29q-11 0 -31 -17l-17 -15q-17 -15 -22.5 -19.5t-24 -18t-29.5 -19.5t-31.5 -16.5t-37.5 -15t-40 -8.5t-46 -4q-114 0 -178 61q-72 69 -72 193v553q0 40 -12.5 56
t-48.5 19q-28 3 -39.5 10t-11.5 23q0 29 39 29q20 0 60 -2t60 -2q15 0 50 2t47 2q22 0 28 -15.5t6 -58.5zM631 1077v-2q0 -6 -6 -11t-13 -5q-13 0 -69 31l-271 153q-63 39 -78 58q-16 19 -16 40q0 26 18 45t44 19q20 0 43 -12.5t35.5 -23.5t37.5 -34l236 -211l13 -12
q13 -11 19.5 -19.5t6.5 -15.5z" />
    <glyph glyph-name="uacute" unicode="&#xfa;" horiz-adv-x="999" 
d="M319 854v-590q0 -82 40 -129t122 -47q94 0 158 70q39 45 39 106v510q0 50 -11 69t-49 23q-6 1 -14.5 2t-12.5 1.5t-10 2t-9 2.5t-6.5 3.5t-5 5t-2.5 7t-1 9.5q0 29 41 29q16 0 52.5 -2t54.5 -2q19 0 57 2t59 2q17 0 25 -9t8 -38v-76v-602q0 -50 12 -69.5t45 -20.5
q30 -3 41 -8.5t11 -18.5q-1 -12 -14 -19t-50 -18q-133 -48 -176 -69q-21 -7 -29 -7q-10 0 -10 25v90q0 29 -14 29q-11 0 -31 -17l-17 -15q-17 -15 -22.5 -19.5t-24 -18t-29.5 -19.5t-31.5 -16.5t-37.5 -15t-40 -8.5t-46 -4q-114 0 -178 61q-72 69 -72 193v553q0 40 -12.5 56
t-48.5 19q-28 3 -39.5 10t-11.5 23q0 29 39 29q20 0 60 -2t60 -2q15 0 50 2t47 2q22 0 28 -15.5t6 -58.5zM379 1059h-2q-15 0 -15 16q0 6 5 13t9.5 12t13 13t9.5 9l236 211q70 70 117 70q27 0 44 -17.5t17 -44.5q0 -20 -15.5 -39.5t-31 -30t-45.5 -28.5l-272 -156
q-51 -28 -70 -28z" />
    <glyph glyph-name="ucircumflex" unicode="&#xfb;" horiz-adv-x="999" 
d="M319 854v-590q0 -82 40 -129t122 -47q94 0 158 70q39 45 39 106v510q0 50 -11 69t-49 23q-6 1 -14.5 2t-12.5 1.5t-10 2t-9 2.5t-6.5 3.5t-5 5t-2.5 7t-1 9.5q0 29 41 29q16 0 52.5 -2t54.5 -2q19 0 57 2t59 2q17 0 25 -9t8 -38v-76v-602q0 -50 12 -69.5t45 -20.5
q30 -3 41 -8.5t11 -18.5q-1 -12 -14 -19t-50 -18q-133 -48 -176 -69q-21 -7 -29 -7q-10 0 -10 25v90q0 29 -14 29q-11 0 -31 -17l-17 -15q-17 -15 -22.5 -19.5t-24 -18t-29.5 -19.5t-31.5 -16.5t-37.5 -15t-40 -8.5t-46 -4q-114 0 -178 61q-72 69 -72 193v553q0 40 -12.5 56
t-48.5 19q-28 3 -39.5 10t-11.5 23q0 29 39 29q20 0 60 -2t60 -2q15 0 50 2t47 2q22 0 28 -15.5t6 -58.5zM467 1407h55q40 0 60 -29l182 -272q14 -22 14 -35q0 -12 -24 -12t-54 26l-206 207l-207 -207q-26 -26 -51 -26t-25 12q0 13 14 35l183 272q20 29 59 29z" />
    <glyph glyph-name="udieresis" unicode="&#xfc;" horiz-adv-x="999" 
d="M319 854v-590q0 -82 40 -129t122 -47q94 0 158 70q39 45 39 106v510q0 50 -11 69t-49 23q-6 1 -14.5 2t-12.5 1.5t-10 2t-9 2.5t-6.5 3.5t-5 5t-2.5 7t-1 9.5q0 29 41 29q16 0 52.5 -2t54.5 -2q19 0 57 2t59 2q17 0 25 -9t8 -38v-76v-602q0 -50 12 -69.5t45 -20.5
q30 -3 41 -8.5t11 -18.5q-1 -12 -14 -19t-50 -18q-133 -48 -176 -69q-21 -7 -29 -7q-10 0 -10 25v90q0 29 -14 29q-11 0 -31 -17l-17 -15q-17 -15 -22.5 -19.5t-24 -18t-29.5 -19.5t-31.5 -16.5t-37.5 -15t-40 -8.5t-46 -4q-114 0 -178 61q-72 69 -72 193v553q0 40 -12.5 56
t-48.5 19q-28 3 -39.5 10t-11.5 23q0 29 39 29q20 0 60 -2t60 -2q15 0 50 2t47 2q22 0 28 -15.5t6 -58.5zM317 1087h-2q-40 0 -67 31.5t-27 73.5q0 44 26.5 73t69.5 29q40 0 68.5 -30.5t28.5 -71.5q0 -43 -28 -74t-69 -31zM659 1087h-2q-40 0 -66 31t-26 74q0 44 25.5 73
t68.5 29q42 0 69.5 -30.5t27.5 -71.5q0 -44 -27.5 -74.5t-69.5 -30.5z" />
    <glyph glyph-name="yacute" unicode="&#xfd;" horiz-adv-x="790" 
d="M104 -342v2q0 76 80 82q7 1 24.5 2.5t25 2.5t18.5 4t18 7q24 12 58 105t34 127q0 21 -4.5 42.5t-9.5 37.5t-22 67q-94 271 -220 615q-24 71 -41.5 94.5t-41.5 25.5q-23 3 -33 9.5t-10 23.5q0 23 38 23q24 0 83 -3t94 -3q33 0 84 3t63 3q37 0 37 -27q0 -4 -1 -7t-4 -5
t-6 -3.5t-9 -3t-10.5 -2.5t-12.5 -3t-14 -3q-50 -10 -50 -49q0 -23 37 -141q5 -14 21.5 -64t25.5 -77.5t25.5 -75t26.5 -76t21.5 -58.5t19 -44.5t10.5 -14.5q13 0 147 418q31 109 31 129q0 25 -17.5 35.5t-56.5 15.5q-2 1 -10 2.5t-12 2.5t-9 3.5t-7.5 6.5t-2.5 10
q0 31 33 31q7 0 50.5 -3t76.5 -3q16 0 49 3t53 3q31 0 31 -29q0 -18 -37 -25q-27 -6 -47 -37.5t-49 -107.5q-207 -589 -276 -801q-52 -168 -74 -250q-23 -81 -44 -105t-77 -24q-63 0 -85 23t-22 86zM311 1059h-2q-14 0 -14 16q0 7 6.5 15.5t19.5 19.5l13 12l235 211
q66 70 117 70q26 0 44 -18t18 -44q0 -20 -17 -40t-31 -29t-47 -29l-272 -156q-51 -28 -70 -28z" />
    <glyph glyph-name="thorn" unicode="&#xfe;" horiz-adv-x="913" 
d="M297 -25v-270q0 -56 19 -77t73 -27q21 -4 28.5 -6t14 -8.5t6.5 -18.5q0 -25 -51 -25q-18 0 -70 4t-98 4q-42 0 -102.5 -4t-77.5 -4q-45 0 -45 25q0 14 8 21.5t29 11.5q60 11 74 29.5t14 88.5v1500q0 45 -11.5 59t-52.5 18q-29 7 -38 11.5t-9 17.5q0 12 9 18.5t32 12.5
q126 35 180 63q47 21 52 21q16 0 16 -41v-553q0 -23 8 -23q7 0 60 45q84 72 163 72q134 0 230 -136.5t96 -340.5q0 -201 -102.5 -342.5t-262.5 -147.5q-52 0 -131 27q-41 18 -47 18q-10 0 -12 -9t-2 -34zM664 444v2q0 180 -55.5 282.5t-149.5 102.5q-72 0 -121 -49
q-41 -38 -41 -96v-485q0 -90 41 -131q39 -39 104 -39q100 0 161 104t61 309z" />
    <glyph glyph-name="ydieresis" unicode="&#xff;" horiz-adv-x="790" 
d="M104 -342v2q0 76 80 82q7 1 24.5 2.5t25 2.5t18.5 4t18 7q24 12 58 105t34 127q0 21 -4.5 42.5t-9.5 37.5t-22 67q-94 271 -220 615q-24 71 -41.5 94.5t-41.5 25.5q-23 3 -33 9.5t-10 23.5q0 23 38 23q24 0 83 -3t94 -3q33 0 84 3t63 3q37 0 37 -27q0 -4 -1 -7t-4 -5
t-6 -3.5t-9 -3t-10.5 -2.5t-12.5 -3t-14 -3q-50 -10 -50 -49q0 -23 37 -141q5 -14 21.5 -64t25.5 -77.5t25.5 -75t26.5 -76t21.5 -58.5t19 -44.5t10.5 -14.5q13 0 147 418q31 109 31 129q0 25 -17.5 35.5t-56.5 15.5q-2 1 -10 2.5t-12 2.5t-9 3.5t-7.5 6.5t-2.5 10
q0 31 33 31q7 0 50.5 -3t76.5 -3q16 0 49 3t53 3q31 0 31 -29q0 -18 -37 -25q-27 -6 -47 -37.5t-49 -107.5q-207 -589 -276 -801q-52 -168 -74 -250q-23 -81 -44 -105t-77 -24q-63 0 -85 23t-22 86zM242 1087h-2q-40 0 -67.5 31.5t-27.5 73.5q0 44 27 73t70 29
q42 0 69 -30.5t27 -71.5q0 -44 -27 -74.5t-69 -30.5zM586 1087h-2q-42 0 -68.5 31t-26.5 74q0 44 27 73t70 29q40 0 68 -30.5t28 -71.5q0 -43 -27.5 -74t-68.5 -31z" />
    <glyph glyph-name="dotlessi" unicode="&#x131;" horiz-adv-x="497" 
d="M164 160v536q0 49 -15 66.5t-63 25.5q-35 6 -35 25q0 13 14.5 21.5t51.5 19.5q73 20 166 74q33 20 41 20q16 0 16 -30v-97v-659q0 -59 11.5 -82t60.5 -31q30 -6 40.5 -12.5t10.5 -20.5t-7 -19t-26 -5q-16 0 -71.5 4t-106.5 4q-56 0 -112 -4t-68 -4q-31 0 -31 24
q0 14 9.5 21t31.5 12q55 7 68.5 26.5t13.5 84.5z" />
    <glyph glyph-name="Lslash" unicode="&#x141;" horiz-adv-x="862" 
d="M375 668v-465q0 -83 28 -116.5t107 -33.5q102 0 163.5 60t96.5 170q15 48 23 63.5t22 15.5t19.5 -13t5.5 -58q0 -35 -1 -73.5t-2.5 -85.5t-2.5 -73q-1 -44 -7.5 -55.5t-25.5 -11.5q-76 0 -229 4t-222 4q-50 0 -139 -4t-131 -4q-47 0 -47 28q0 17 15.5 24.5t53.5 12.5
q47 4 62.5 26.5t15.5 80.5v371l-147 -105q-24 -16 -31 -16q-6 0 -6 18v33q0 16 24 35l160 112v478q0 79 -12.5 104.5t-50.5 28.5q-63 7 -74 15q-8 8 -8 19q0 31 45 31q20 0 86.5 -4t124.5 -4q57 0 118.5 4t75.5 4q41 0 41 -26q0 -8 -3 -13.5t-11.5 -9t-15.5 -5.5t-22.5 -4.5
t-24.5 -4.5q-48 -7 -61 -25.5t-13 -75.5v-379l262 185q24 16 31 16q6 0 6 -18v-37q0 -15 -25 -33z" />
    <glyph glyph-name="lslash" unicode="&#x142;" horiz-adv-x="497" 
d="M338 809v-672q0 -45 16.5 -61t69.5 -27q15 -4 22 -6.5t14 -9t7 -15.5q0 -26 -33 -26q-1 0 -54.5 4t-127.5 4q-70 0 -123.5 -4t-56.5 -4q-35 0 -35 26q0 12 13 20.5t28 10.5q53 6 67.5 26.5t14.5 76.5v516l-137 -117q-20 -16 -23 -16q-6 0 -6 16v35q0 12 3 17.5t13 14.5
l150 130v471q0 45 -11.5 59t-52.5 18q-29 7 -38 11.5t-9 17.5q0 12 9 18.5t32 12.5q111 31 180 63q44 21 52 21q16 0 16 -41v-512l141 119q16 16 23 16q6 0 6 -16v-37q0 -15 -19 -31z" />
    <glyph glyph-name="OE" unicode="&#x152;" horiz-adv-x="1536" 
d="M989 614v-430q0 -69 34 -100t114 -31q105 0 163 56t95 188q11 41 20.5 55.5t26.5 14.5q13 0 17.5 -10t4.5 -42v-77q-2 -35 -2 -168q-1 -50 -11.5 -63t-43.5 -13q-18 0 -83.5 1t-109.5 1q-164 4 -270 4q-63 0 -168 -10q-29 -2 -91.5 -7.5t-86.5 -5.5q-152 0 -275.5 85
t-192.5 233t-69 328q0 157 45.5 289t120 216t166 130.5t187.5 46.5q40 0 112 -11q91 -14 172 -14q38 0 256 4t271 4q33 0 41 -12t8 -64v-213q-1 -33 -6.5 -44t-18.5 -11q-17 0 -25.5 13t-21.5 46q-1 5 -2 7q-36 97 -86.5 147.5t-132.5 63.5q-47 6 -80 6q-47 0 -62.5 -13
t-15.5 -43v-415q0 -30 10 -36.5t52 -6.5q93 0 129 18.5t51 73.5q18 69 23 76q7 10 20 10t17.5 -9t4.5 -36q0 -28 -3 -83t-3 -81q0 -31 3 -96.5t3 -93.5q0 -37 -24 -37q-14 0 -21.5 15t-17.5 54q-19 75 -54.5 101t-117.5 26q-48 0 -60 -6.5t-12 -30.5zM281 639v-2
q0 -275 84.5 -438.5t244.5 -163.5q89 0 136 51t47 141v404v411q0 103 -52 152q-50 53 -145 53q-148 0 -231.5 -157.5t-83.5 -450.5z" />
    <glyph glyph-name="oe" unicode="&#x153;" horiz-adv-x="1384" 
d="M1266 514h-383q-29 0 -43 -14q-11 -18 -11 -43q0 -160 69.5 -268.5t178.5 -108.5q126 0 191 110q6 10 12 21.5t8.5 17.5t6.5 11.5t7 7.5t7 2q20 0 20 -29q0 -38 -24 -88q-36 -69 -105.5 -114.5t-167.5 -45.5q-167 0 -252 111q-16 20 -39 59q-16 -31 -41 -59
q-94 -111 -258 -111q-168 0 -280.5 142.5t-112.5 345.5q0 205 115 346t278 141q157 0 267 -133q23 -31 32 -53q8 19 39 63q95 123 252 123q129 0 213 -88.5t84 -234.5q0 -77 -9.5 -94t-53.5 -17zM453 31h2q60 0 102 39t62.5 104.5t29 130.5t8.5 137q0 117 -24 217.5t-74 166
t-117 65.5t-114.5 -63.5t-67.5 -153.5t-20 -193q0 -117 24 -218t73.5 -166.5t115.5 -65.5zM842 625v-2q0 -27 13 -36t63 -9q92 0 169 18q45 12 64.5 37t19.5 72q0 84 -40 134t-101 50q-81 0 -134.5 -81t-53.5 -183z" />
    <glyph glyph-name="Scaron" unicode="&#x160;" horiz-adv-x="882" 
d="M821 369v-2q0 -179 -122.5 -288.5t-315.5 -109.5q-79 0 -157.5 17t-116.5 45q-17 17 -24.5 51t-8.5 108q0 136 8 179q1 17 8 23.5t21 6.5q13 0 21 -8t11 -17.5t7 -27.5q38 -157 101 -238t161 -81q96 0 159.5 71t63.5 176q0 103 -56.5 173t-162.5 135q-17 9 -50.5 31
t-37.5 24q-55 35 -91 64.5t-73.5 72.5t-56.5 96t-19 117q0 95 56 171t142.5 115.5t184.5 39.5q67 0 140.5 -16.5t107.5 -36.5q13 -7 16.5 -18.5t5.5 -47.5q2 -33 2 -139q0 -68 -4.5 -85.5t-25.5 -17.5q-8 0 -14 3.5t-9.5 12t-6 15.5t-5.5 21.5t-6 23.5q-34 116 -86.5 171.5
t-128.5 55.5t-131.5 -52t-55.5 -132q0 -46 16 -87.5t37.5 -70t61 -60t69 -50t78.5 -47.5q20 -11 29 -17q46 -29 77 -51t68.5 -57t59.5 -70t37.5 -85t15.5 -107zM489 1378h-55q-39 0 -57 29l-182 272q-17 23 -17 35t25 12q23 0 53 -26l207 -207l207 207q30 26 51 26
q27 0 27 -12t-17 -35l-182 -272q-20 -29 -60 -29z" />
    <glyph glyph-name="scaron" unicode="&#x161;" horiz-adv-x="663" 
d="M51 686v2q0 124 93.5 192t232.5 68q114 0 178 -33q13 -8 16 -49q2 -18 2 -71v-54q-2 -27 -6.5 -39t-17.5 -12q-8 0 -13.5 4t-11 14.5t-10 21.5t-13 31.5t-16.5 37.5q-44 94 -125 94q-61 0 -102 -37t-41 -94q0 -14 3.5 -28t7.5 -25t14 -23.5t16 -20.5t21.5 -20t23 -18
t27.5 -18.5t27.5 -17t30.5 -17.5t30 -17q36 -21 60.5 -37.5t54 -43t47.5 -53.5t30.5 -64.5t12.5 -79.5q0 -144 -100.5 -225t-252.5 -81q-88 0 -161 25q-30 8 -39 16q-19 11 -21 58q-2 29 -2 121q0 61 6 82.5t21 21.5q9 0 14.5 -3.5t11 -14.5t9 -21.5t11.5 -35t15 -44.5
q57 -147 162 -147q70 0 114 42.5t44 110.5q0 25 -7 48.5t-13.5 40t-26 36.5t-28.5 29t-38 28.5t-36.5 24t-41.5 25.5q-39 22 -62.5 36.5t-55.5 40.5t-50 51t-31.5 62.5t-13.5 79.5zM371 1059h-56q-40 0 -59 28l-182 273q-17 27 -17 35q0 12 27 12q20 0 51 -27l207 -206
l207 206q31 27 53 27q25 0 25 -12q0 -11 -15 -35l-184 -273q-17 -28 -57 -28z" />
    <glyph glyph-name="Ydieresis" unicode="&#x178;" horiz-adv-x="942" 
d="M373 164v364q0 29 -6 49t-27 62q-26 56 -71 154t-83 179.5t-73 151.5q-30 56 -50.5 75t-52.5 24q-3 1 -11 2.5t-11 2t-8.5 2.5t-8 3.5t-5.5 4.5t-4 6.5t-1 8.5q0 17 11.5 26t29.5 9q20 0 78 -4t98 -4q59 0 125.5 4t75.5 4q16 0 28.5 -8.5t12.5 -22.5q0 -8 -2.5 -13.5
t-9 -8.5t-11 -4.5t-17 -3t-18.5 -2.5q-34 -8 -46.5 -16.5t-12.5 -30.5q0 -7 3.5 -18t12 -31.5t18 -41.5t27 -61.5t33.5 -77.5q112 -266 138 -266q11 0 27 28t65 131q18 37 28 58q113 232 113 272q0 25 -18 36.5t-62 17.5q-40 6 -46 16q-3 4 -3 10q0 37 45 37q22 0 67.5 -4
t69.5 -4q35 0 73.5 4t53.5 4q33 0 33 -31q0 -7 -1.5 -12t-3 -8t-7 -5.5t-7.5 -3.5t-10.5 -2.5t-11.5 -2.5q-36 -6 -63 -33.5t-60 -91.5q-39 -79 -108.5 -223t-102.5 -211q-25 -51 -32 -73.5t-7 -51.5v-385q0 -52 15 -74t55 -25q5 -1 14.5 -2.5t15 -2t13 -2.5t11.5 -4t8 -5.5
t6 -8t2 -10.5q0 -18 -11.5 -23t-38.5 -5q-18 0 -77 4t-103 4q-48 0 -116.5 -4t-90.5 -4q-26 0 -35.5 6.5t-9.5 21.5q0 16 16.5 23t59.5 14q45 3 58.5 23t13.5 84zM315 1407h-2q-42 0 -68 30.5t-26 73.5q0 44 26.5 73.5t69.5 29.5q40 0 67.5 -31.5t27.5 -73.5t-27 -72
t-68 -30zM657 1407h-2q-40 0 -67 31t-27 73q0 44 26.5 73.5t69.5 29.5q42 0 69.5 -31.5t27.5 -73.5t-27.5 -72t-69.5 -30z" />
    <glyph glyph-name="Zcaron" unicode="&#x17d;" horiz-adv-x="899" 
d="M322 66h2q145 0 239 12q99 15 148.5 66.5t74.5 158.5q15 61 24 79.5t24 18.5q21 0 26.5 -14.5t5.5 -69.5q0 -180 -4 -258q-3 -44 -11.5 -55.5t-33.5 -11.5q-9 0 -135 4t-283 4q-126 0 -237 -4t-119 -4q-11 0 -20 10.5t-9 20.5q0 5 3.5 13t12.5 27t15 33l528 1010
q39 83 39 92q0 23 -82 23q-110 0 -170 -11q-118 -21 -176 -133q-12 -23 -25.5 -65.5t-26 -64t-34.5 -21.5q-26 0 -26 53q0 33 6 74q3 25 9 79.5t11.5 95.5t10.5 70q8 62 36 62q9 0 15.5 -4t9 -6.5t8 -14t6.5 -12.5q16 -41 90 -41q46 0 141.5 -1t143.5 -1q46 0 136.5 1
t135.5 1q27 0 27 -16q0 -9 -43 -97q-101 -194 -287 -557t-227 -442q-39 -83 -39 -88q0 -10 11 -13t49 -3zM504 1376h-55q-38 0 -60 31l-182 270q-14 22 -14 37q0 12 24 12q23 0 53 -26l207 -207l207 207q26 26 51 26t25 -12q0 -13 -15 -37l-182 -270q-22 -31 -59 -31z" />
    <glyph glyph-name="zcaron" unicode="&#x17e;" horiz-adv-x="751" 
d="M688 311h2q25 0 25 -57q0 -20 -1 -101.5t-1 -103.5q0 -34 -7.5 -43.5t-29.5 -9.5q-41 0 -146 2t-172 2q-54 0 -156 -2t-145 -2q-24 0 -24 22q0 8 3 15.5t13.5 24t16.5 28.5l395 698q33 56 33 64q0 14 -56 14q-92 0 -127 -2q-63 -6 -98 -27t-63 -75q-8 -17 -17 -36.5
t-12.5 -27.5t-8.5 -16t-9.5 -10t-12.5 -2q-22 0 -22 30q0 17 8 63.5t19.5 104.5t13.5 68q12 53 34 53q7 0 12 -2t9 -8t5 -8t5 -11q9 -31 53 -34h236h215q35 0 35 -19t-37 -84l-400 -694q-20 -45 -20 -53t8.5 -12t36.5 -5q101 0 150 4q89 9 126 39.5t62 102.5q7 20 13 41
t8.5 32t6 20.5t8.5 13t13 3.5zM426 1059h-57q-39 0 -58 28l-182 273q-16 21 -16 35q0 12 26 12q20 0 51 -27l207 -206l207 206q31 27 53 27q25 0 25 -12q0 -14 -16 -35l-183 -273q-19 -28 -57 -28z" />
    <glyph glyph-name="florin" unicode="&#x192;" 
d="M285 727h-131q-11 0 -15.5 3.5t-3.5 12.5q0 9 8 29q4 12 9.5 15.5t19.5 3.5h129q33 125 74.5 221.5t105.5 167.5q59 66 132.5 100.5t148.5 34.5q168 0 168 -105q0 -32 -15 -98q-18 -61 -53 -61q-38 0 -67 94q-11 33 -20 53t-25 37.5t-35 17.5q-56 0 -101 -63
q-55 -70 -98 -234q-7 -28 -21.5 -83t-21.5 -82h154q13 0 18 -3t4 -12q0 -7 -8 -31q-3 -18 -27 -18h-157q-57 -225 -115 -442q-93 -380 -188 -547q-122 -211 -318 -211q-168 0 -168 102q0 39 17 99q6 28 19.5 45.5t31.5 17.5q38 0 67 -94q28 -73 45 -92t39 -19q35 0 60 28
t53 99q12 28 24.5 63.5t30.5 99t27.5 99t37 141.5t38.5 148q21 77 63 231.5t64 231.5z" />
    <glyph glyph-name="circumflex" unicode="&#x2c6;" horiz-adv-x="550" 
d="M248 1407h55q39 0 59 -29l183 -272q14 -22 14 -35q0 -12 -24 -12q-26 0 -52 26l-207 207l-206 -207q-30 -26 -54 -26t-24 12q0 13 14 35l182 272q20 29 60 29z" />
    <glyph glyph-name="caron" unicode="&#x2c7;" horiz-adv-x="550" 
d="M303 1059h-55q-41 0 -60 28l-182 273q-14 22 -14 35q0 12 24 12q23 0 54 -27l206 -206l207 206q27 27 52 27q24 0 24 -12q0 -13 -14 -35l-183 -273q-19 -28 -59 -28z" />
    <glyph glyph-name="uni02C9" unicode="&#x2c9;" horiz-adv-x="540" 
d="M51 1231h459h15t8.5 -1t6 -3t1.5 -6q0 -6 -2.5 -14t-8 -22.5t-8.5 -25.5q-7 -21 -13 -25t-28 -4h-458q-23 0 -23 9q0 1 18 59q7 27 12 30t21 3z" />
    <glyph glyph-name="breve" unicode="&#x2d8;" horiz-adv-x="544" 
d="M272 1069h-2q-58 0 -107 26t-79 65.5t-47 84.5t-17 86q0 39 25 39q21 0 31 -37q39 -145 196 -145q158 0 197 145q10 37 31 37q26 0 26 -39q0 -56 -27.5 -114.5t-88 -103t-138.5 -44.5z" />
    <glyph glyph-name="dotaccent" unicode="&#x2d9;" horiz-adv-x="495" 
d="M248 1083h-2q-43 0 -71 32t-28 77q0 44 29.5 77.5t73.5 33.5q42 0 71 -33.5t29 -77.5t-29 -76.5t-73 -32.5z" />
    <glyph glyph-name="ring" unicode="&#x2da;" horiz-adv-x="512" 
d="M256 1059h-2q-83 0 -143 60t-60 145t60 144.5t145 59.5t145 -59.5t60 -144.5t-60 -145t-145 -60zM256 1133h2q53 0 91 38.5t38 92.5q0 55 -38.5 93t-92.5 38t-92.5 -38t-38.5 -93q0 -54 38.5 -92.5t92.5 -38.5z" />
    <glyph glyph-name="ogonek" unicode="&#x2db;" horiz-adv-x="518" 
d="M326 0h63q-35 -19 -66 -40.5t-67 -53t-57 -71.5t-21 -81q0 -44 34 -71t75 -27q55 0 102 29q31 22 45 22q21 0 21 -24q0 -29 -67.5 -64t-133.5 -35q-79 0 -132.5 40t-53.5 120q0 55 45 110.5t102.5 92t110.5 53.5z" />
    <glyph glyph-name="tilde" unicode="&#x2dc;" horiz-adv-x="550" 
d="M399 1090h-2q-61 0 -153 65q-4 2 -26 17t-30 19.5t-25.5 13.5t-30.5 12.5t-26 3.5q-33 0 -55.5 -28.5t-36 -57.5t-24.5 -29q-12 0 -18.5 7.5t-4.5 16.5q1 20 12.5 49t32.5 61t58.5 54.5t83.5 22.5q28 0 60.5 -12.5t49 -22.5t51.5 -33q89 -65 131 -65q32 0 54.5 29t36 58
t24.5 29q13 0 19 -7t4 -17q-1 -20 -12 -48.5t-32 -60.5t-58.5 -54.5t-82.5 -22.5z" />
    <glyph glyph-name="hungarumlaut" unicode="&#x2dd;" horiz-adv-x="540" 
d="M45 1059h-2q-14 0 -14 14q0 8 26 47l154 217q20 27 30.5 39.5t29.5 25.5t38 13q28 0 45 -13.5t17 -39.5q0 -38 -62 -92l-194 -172q-45 -39 -68 -39zM319 1059h-2q-14 0 -14 14q0 7 27 47l155 217q17 25 28.5 39t30.5 26.5t38 12.5q63 0 63 -53q0 -37 -63 -92l-193 -172
q-45 -39 -70 -39z" />
    <glyph glyph-name="uni03A9" unicode="&#x3a9;" horiz-adv-x="1165" 
d="M1112 274l-41 -274h-389l-12 33q10 27 44.5 115t53 142t43.5 136t37 157t12 146q-1 141 -23.5 246.5t-62.5 166t-88.5 89.5t-105.5 29q-275 0 -275 -539q0 -86 15.5 -176t49.5 -190t57 -159t67 -163l-17 -33h-387l-37 274l49 2q24 -84 49.5 -108.5t77.5 -24.5h160
q-41 41 -70.5 73.5t-73 93t-71 118.5t-48 140t-20.5 167q0 131 37.5 241.5t102 185t152.5 116t188 41.5q207 0 339 -155.5t132 -418.5q0 -79 -19.5 -156.5t-47 -135.5t-71 -121.5t-75.5 -101t-78 -87.5h172q53 0 75.5 22.5t47.5 110.5z" />
    <glyph glyph-name="uni03BC" unicode="&#x3bc;" horiz-adv-x="999" 
d="M319 854v-590q0 -81 40 -128.5t120 -47.5q96 0 160 70q39 45 39 106v510q0 50 -11 69t-49 23q-6 1 -14.5 2t-12.5 1.5t-10 2t-9 2.5t-6.5 3.5t-5 5t-2.5 7t-1 9.5q0 29 41 29q16 0 52.5 -2t54.5 -2q19 0 57 2t59 2q17 0 25 -9t8 -38v-76v-602q0 -50 12 -69.5t45 -20.5
q30 -3 41 -8.5t11 -18.5q-1 -12 -14 -19t-50 -18q-133 -48 -176 -69q-21 -7 -25 -7q-14 0 -14 25v90q0 29 -14 29q-11 0 -31 -17q-2 -1 -17.5 -15t-22 -19t-24 -18.5t-28.5 -20t-30.5 -16.5t-36 -14.5t-38 -8.5t-43.5 -4q-114 0 -172 96l-4 -4v-56q0 -76 29 -173t29 -150
q0 -64 -26 -105t-71 -41q-90 0 -90 148q0 51 23.5 153t23.5 185v188v566q0 40 -12.5 56t-48.5 19q-28 3 -39.5 10t-11.5 23q0 29 39 29q20 0 60 -2t60 -2q15 0 50 2t47 2q22 0 28 -15.5t6 -58.5z" />
    <glyph glyph-name="pi" unicode="&#x3c0;" horiz-adv-x="950" 
d="M858 874l47 -14q-17 -100 -59 -174q-29 -10 -111 -10q-8 -95 -8 -412q0 -88 16 -129t54 -41q22 0 39.5 11.5t42.5 39.5l22 -41q-32 -59 -81 -93t-101 -34q-75 0 -117.5 54t-42.5 192q0 151 16 459q-44 0 -122 1t-111 1v-29q0 -152 -13 -276.5t-33 -197.5t-36.5 -112.5
t-30.5 -58.5q-61 -30 -112 -33l-13 33q87 122 124.5 310t37.5 368q-75 0 -115 -16.5t-100 -59.5l-26 45q1 1 21 26.5t27.5 33t30 29.5t41 31.5t46.5 22.5t60.5 18t70.5 5q387 -6 438 -6q42 0 60.5 11t37.5 46z" />
    <glyph glyph-name="endash" unicode="&#x2013;" horiz-adv-x="1024" 
d="M63 524h936q21 0 21 -12q0 -3 -8 -31l-21 -59q-5 -13 -10.5 -17t-19.5 -4h-936q-21 0 -21 11q0 6 8 30l21 62q5 12 10 16t20 4z" />
    <glyph glyph-name="emdash" unicode="&#x2014;" horiz-adv-x="2048" 
d="M63 524h1960q21 0 21 -12q0 -3 -8 -31l-21 -59q-5 -13 -10.5 -17t-19.5 -4h-1960q-21 0 -21 11q0 6 8 30l21 62q5 12 10 16t20 4z" />
    <glyph glyph-name="quoteleft" unicode="&#x2018;" horiz-adv-x="460" 
d="M326 1423h2q20 0 20 -20q0 -6 -7 -14.5t-23 -26t-29 -35.5q-25 -37 -35.5 -53t-22.5 -47t-12 -58q0 -7 1 -12.5t3 -9.5t4 -7.5t6.5 -6t7 -4t8.5 -3.5l9 -3t10.5 -2.5t10.5 -2.5q67 -21 67 -94q0 -45 -26 -74.5t-74 -29.5q-59 0 -90 48.5t-31 114.5q0 58 26 122.5
t60 110.5t67 76.5t48 30.5z" />
    <glyph glyph-name="quoteright" unicode="&#x2019;" horiz-adv-x="460" 
d="M115 1208v2q0 44 26.5 73.5t73.5 29.5q59 0 90 -48t31 -116q0 -58 -26 -122.5t-60 -110.5t-67 -76.5t-48 -30.5q-9 0 -15.5 5.5t-6.5 14.5q0 7 7 15.5t23 26t29 36.5q23 32 35 51t23.5 49t11.5 58q0 9 -2.5 16.5t-5 11.5t-11 8.5t-11 5.5t-15 4.5t-15.5 4.5
q-67 18 -67 92z" />
    <glyph glyph-name="quotesinglbase" unicode="&#x201a;" horiz-adv-x="460" 
d="M115 96v2q0 44 26.5 73.5t73.5 29.5q59 0 91 -48.5t32 -115.5q0 -58 -26 -122.5t-61 -110.5t-68 -76.5t-48 -30.5q-20 0 -20 20q0 7 7 15.5t23 26t29 36.5q23 32 35 51t23.5 48.5t11.5 56.5q0 10 -2.5 17.5t-5.5 12t-10.5 8.5t-11.5 5.5t-15 5t-15 4.5q-69 18 -69 92z
" />
    <glyph glyph-name="quotedblleft" unicode="&#x201c;" horiz-adv-x="825" 
d="M313 1423h2q19 0 19 -20q0 -6 -7 -14.5t-22.5 -26t-28.5 -35.5q-24 -35 -35 -52.5t-22.5 -47.5t-11.5 -58q0 -8 1.5 -14t3 -10t6 -8t6.5 -6t9 -4.5t9 -3t11 -2.5t11 -3q70 -21 70 -94q0 -45 -26.5 -74.5t-74.5 -29.5q-59 0 -89.5 48t-30.5 115q0 58 25.5 122.5t60 110.5
t67 76.5t47.5 30.5zM700 1423h2q8 0 13.5 -5.5t5.5 -14.5q0 -6 -6.5 -14.5t-22 -26t-28.5 -35.5q-25 -37 -35.5 -53t-22.5 -47t-12 -58q0 -8 1.5 -14t3 -10t6 -8t6.5 -6t9 -4.5t9 -3t11 -2.5t11 -3q70 -21 70 -94q0 -45 -26 -74.5t-74 -29.5q-59 0 -90 48.5t-31 114.5
q0 58 25.5 122.5t60 110.5t67 76.5t47.5 30.5z" />
    <glyph glyph-name="quotedblright" unicode="&#x201d;" horiz-adv-x="825" 
d="M104 1208v2q0 44 27 73.5t74 29.5q59 0 90 -48t31 -116q0 -58 -26 -122.5t-60 -110.5t-67 -76.5t-48 -30.5q-9 0 -16 5.5t-7 14.5q0 7 7.5 15.5t23.5 26t29 36.5q22 31 34.5 51t23.5 49.5t11 57.5q0 9 -2.5 16.5t-5 11.5t-10 8.5t-10.5 5.5t-14.5 4.5t-14.5 4.5
q-70 18 -70 92zM492 1208v2q0 44 26.5 73.5t73.5 29.5q59 0 90 -48t31 -116q0 -58 -26 -122.5t-60 -110.5t-67 -76.5t-48 -30.5q-9 0 -16 5.5t-7 14.5q0 7 7.5 15.5t23.5 26t29 36.5q22 31 34.5 51t23.5 49t11 56q0 10 -2.5 17.5t-4.5 12t-10 9t-10.5 5.5t-15 4.5t-14.5 4.5
q-69 18 -69 92z" />
    <glyph glyph-name="quotedblbase" unicode="&#x201e;" horiz-adv-x="819" 
d="M104 96v2q0 44 27 73.5t74 29.5q59 0 91 -48.5t32 -115.5q0 -58 -26 -122.5t-61 -110.5t-68 -76.5t-48 -30.5q-21 0 -21 20q0 7 7.5 15.5t23.5 26t29 36.5q22 33 33 51t22.5 48t11.5 57q0 10 -2.5 17.5t-4.5 12t-10 9t-10.5 5.5t-15 4.5t-14.5 4.5q-70 18 -70 92zM489 96
v2q0 44 26 73.5t73 29.5q59 0 91 -48.5t32 -115.5q0 -58 -26 -122.5t-60.5 -110.5t-67 -76.5t-47.5 -30.5q-23 0 -23 20q0 7 7.5 15.5t23.5 26t29 36.5q22 31 34.5 51t23.5 49t11 56q0 10 -2.5 17.5t-5.5 12t-10.5 8.5t-11 5.5t-15 5t-14.5 4.5q-68 18 -68 92z" />
    <glyph glyph-name="dagger" unicode="&#x2020;" horiz-adv-x="1007" 
d="M526 -383h-45q-2 346 -20 530t-64 299q81 121 84 375q-100 0 -180 -33q-4 -2 -19 -8.5t-19.5 -8.5t-17 -6.5t-19.5 -6t-18 -3t-22 -1.5q-45 0 -68.5 26t-23.5 64t23.5 64t68.5 26q15 0 31.5 -3.5t26 -6.5t30.5 -11.5t29 -11.5q84 -35 178 -35q0 76 -12 136.5t-27 90
t-27 63.5t-12 65q0 40 27.5 67t73.5 27t73 -27t27 -67q0 -31 -12 -65t-27 -63.5t-27 -90t-12 -136.5q99 0 179 35q8 3 29.5 11.5t30.5 11.5t25.5 6.5t30.5 3.5q45 0 68.5 -26t23.5 -64t-23.5 -64t-68.5 -26q-11 0 -22 1.5t-17.5 3t-19.5 6.5t-16 6t-19 8.5t-18 8.5
q-85 33 -183 33q3 -254 84 -375q-46 -115 -64 -299t-20 -530z" />
    <glyph glyph-name="daggerdbl" unicode="&#x2021;" horiz-adv-x="1007" 
d="M913 844v-2q0 -37 -23.5 -62.5t-68.5 -25.5q-11 0 -22 1.5t-17.5 3t-19.5 6.5t-16 6t-19 8.5t-18 8.5q-85 33 -183 33q7 -215 78 -354q-71 -141 -78 -354q106 0 183 34q6 2 26.5 11t28.5 12t24.5 6.5t32.5 3.5q45 0 68.5 -26t23.5 -64t-23.5 -64t-68.5 -26
q-11 0 -21.5 1.5t-18.5 3.5t-19 6t-16.5 6.5t-18.5 9t-18 8.5q-85 33 -183 33q0 -77 12 -137.5t27 -90.5t27 -63.5t12 -63.5q0 -41 -27 -67.5t-73 -26.5t-73.5 26.5t-27.5 67.5q0 30 12 63.5t27 63.5t27 90.5t12 137.5q-100 0 -180 -33q-5 -2 -22.5 -10t-23.5 -10.5
t-19.5 -7t-25 -6t-24.5 -1.5q-45 0 -68.5 26t-23.5 64t23.5 64t68.5 26q16 0 32.5 -3.5t25.5 -6.5t29.5 -11.5t27.5 -11.5q74 -34 180 -34q-7 213 -78 354q71 139 78 354q-100 0 -180 -33q-4 -2 -19 -8.5t-19.5 -8.5t-17 -6.5t-19.5 -6t-18 -3t-22 -1.5q-45 0 -68.5 26
t-23.5 64t23.5 64t68.5 26q15 0 31.5 -3.5t26 -6.5t30.5 -11.5t29 -11.5q84 -35 178 -35q0 76 -12 136.5t-27 90t-27 63.5t-12 65q0 40 27.5 67t73.5 27t73 -27t27 -67q0 -31 -12 -65t-27 -63.5t-27 -90t-12 -136.5q99 0 179 35q8 3 29.5 11.5t30.5 11.5t25.5 6.5t30.5 3.5
q45 0 68.5 -26t23.5 -64z" />
    <glyph glyph-name="bullet" unicode="&#x2022;" horiz-adv-x="1058" 
d="M528 989h2q114 0 193.5 -78.5t79.5 -193.5q0 -114 -80 -194.5t-195 -80.5q-114 0 -194 80.5t-80 194.5q-1 115 79 193.5t195 78.5z" />
    <glyph glyph-name="ellipsis" unicode="&#x2026;" horiz-adv-x="2048" 
d="M342 209h2q43 0 72.5 -35t29.5 -82q0 -48 -29 -82.5t-75 -34.5q-45 0 -74.5 35.5t-29.5 81.5t28.5 81.5t75.5 35.5zM1024 209h2q43 0 72.5 -35t29.5 -82q0 -48 -29 -82.5t-75 -34.5q-45 0 -74.5 35.5t-29.5 81.5t28.5 81.5t75.5 35.5zM1706 209h2q43 0 72.5 -35t29.5 -82
q0 -48 -29 -82.5t-75 -34.5q-45 0 -74.5 35.5t-29.5 81.5t28.5 81.5t75.5 35.5z" />
    <glyph glyph-name="perthousand" unicode="&#x2030;" horiz-adv-x="1857" 
d="M301 662h-2q-78 0 -142 47t-98 121.5t-34 156.5q0 129 78.5 227.5t197.5 98.5t198 -98.5t79 -227.5q0 -130 -78.5 -227.5t-198.5 -97.5zM301 702h2q58 0 89.5 74t31.5 211t-31.5 211t-91.5 74t-91.5 -74t-31.5 -211t31.5 -211t91.5 -74zM911 -31h-2q-117 0 -194.5 99
t-77.5 227t78.5 227t195.5 99q120 0 198.5 -98t78.5 -228t-78.5 -228t-198.5 -98zM911 10h2q60 0 91.5 74t31.5 211t-32 211t-93 74q-59 0 -91 -74.5t-32 -210.5t32 -210.5t91 -74.5zM1556 -31h-2q-117 0 -194.5 99t-77.5 227t78.5 227t195.5 99q120 0 198.5 -98t78.5 -228
t-78.5 -228t-198.5 -98zM1556 10h3q58 0 90 74t32 211t-32.5 211t-92.5 74t-91 -74t-31 -211t31 -211t91 -74zM143 -23v3q0 4 4.5 12.5t13 20.5t11.5 16l807 1265q15 21 39 21h29q22 0 22 -10q0 -9 -27 -52l-809 -1265q-15 -21 -38 -21h-29q-23 0 -23 10z" />
    <glyph glyph-name="guilsinglleft" unicode="&#x2039;" horiz-adv-x="559" 
d="M430 199h-104q-43 0 -70 41l-92 145q-8 13 -39 49q-12 9 -12 19q0 9 12 18q31 36 39 49l92 146q27 41 70 41h104q23 0 23 -11q0 -10 -25 -10q-21 0 -37.5 -15t-38.5 -48l-84 -131q-15 -26 -28 -39q13 -13 28 -39l84 -131q15 -22 24.5 -34t23 -21t28.5 -9q25 0 25 -10
t-23 -10z" />
    <glyph glyph-name="guilsinglright" unicode="&#x203a;" horiz-adv-x="559" 
d="M129 707h104q43 0 70 -41l92 -146q8 -13 39 -49q15 -11 15 -18q0 -8 -15 -19q-31 -36 -39 -49l-92 -145q-27 -41 -70 -41h-104q-23 0 -23 10t25 10q21 0 37 15.5t39 48.5l84 131q15 26 28 39q-13 13 -28 39l-84 131q-22 33 -38.5 48t-37.5 15q-25 0 -25 10q0 11 23 11z
" />
    <glyph glyph-name="fraction" unicode="&#x2044;" horiz-adv-x="337" 
d="M-297 -25v2q0 7 27 50l809 1267q15 21 39 21h34q23 0 23 -10q0 -9 -27 -52l-809 -1267q-15 -21 -37 -21h-36q-23 0 -23 10z" />
    <glyph glyph-name="Euro" unicode="&#x20ac;" 
d="M627 575q0 -14 -7 -33.5t-18 -19.5h-246q6 -87 20.5 -166.5t40.5 -157t70 -123.5t101 -46q74 0 108.5 40.5t63.5 168.5q20 92 31.5 131.5t17.5 48t16 8.5q14 0 19 -3.5t9.5 -27.5t5.5 -66.5t1 -131.5q0 -79 -6 -110t-23 -48q-28 -28 -89 -51t-158 -23q-84 0 -152.5 32
t-114.5 85t-80 127t-51.5 150.5t-25.5 162.5h-133q-13 0 -13 10q0 16 9 36t20 20h113q0 9 -1 28.5t-1 28.5q0 53 2 82h-129q-13 0 -13 10q0 16 9 36t20 20h119q10 80 30 152t55.5 141t82.5 118.5t115 80t149 30.5q132 0 217 -60q15 -10 19 -38.5t4 -122.5q0 -103 -6 -131.5
t-29 -28.5q-14 0 -25.5 23.5t-40.5 111.5q-27 83 -49.5 122t-42.5 49.5t-57 10.5q-212 0 -230 -458h310q10 0 10 -13q0 -14 -7 -33.5t-18 -19.5h-297v-74q0 -8 1 -30t1 -35h262q11 0 11 -13z" />
    <glyph glyph-name="afii61289" unicode="&#x2113;" horiz-adv-x="712" 
d="M645 209l39 -31q-99 -209 -289 -209q-123 0 -182 72q-31 43 -43 99t-12 171v158l-95 -74l-22 49l117 97v250q0 219 17.5 314.5t70.5 164.5q68 100 162 100q76 0 118.5 -69t42.5 -179q0 -156 -62 -283.5t-179 -258.5v-181q0 -178 32.5 -246.5t108.5 -68.5q96 0 176 125z
M328 893v-219q65 84 105 205.5t40 240.5q0 193 -72 193q-42 0 -57.5 -87.5t-15.5 -332.5z" />
    <glyph glyph-name="trademark" unicode="&#x2122;" horiz-adv-x="1994" 
d="M170 1112h-43v170h639v-170h-45q-6 56 -36 90.5t-81 34.5h-92v-559q0 -64 13.5 -79t78.5 -21v-46h-317v46q64 6 77 21t13 79v559h-88q-50 0 -80.5 -34.5t-38.5 -90.5zM844 1282h229l283 -567l280 567h207v-45q-57 -3 -78.5 -27.5t-21.5 -74.5v-482q0 -47 12.5 -57
t77.5 -18v-46h-317v46q66 7 78 17.5t12 57.5v439h-4l-279 -564h-20l-277 564h-4v-394q0 -64 18.5 -89t77.5 -31v-46h-241v46q58 6 75 29.5t17 90.5v449q-10 39 -46.5 64.5t-78.5 25.5v45z" />
    <glyph glyph-name="Omega" unicode="&#x2126;" horiz-adv-x="1165" 
d="M1112 274l-41 -274h-389l-12 33q10 27 44.5 115t53 142t43.5 136t37 157t12 146q-1 141 -23.5 246.5t-62.5 166t-88.5 89.5t-105.5 29q-275 0 -275 -539q0 -86 15.5 -176t49.5 -190t57 -159t67 -163l-17 -33h-387l-37 274l49 2q24 -84 49.5 -108.5t77.5 -24.5h160
q-41 41 -70.5 73.5t-73 93t-71 118.5t-48 140t-20.5 167q0 131 37.5 241.5t102 185t152.5 116t188 41.5q207 0 339 -155.5t132 -418.5q0 -79 -19.5 -156.5t-47 -135.5t-71 -121.5t-75.5 -101t-78 -87.5h172q53 0 75.5 22.5t47.5 110.5z" />
    <glyph glyph-name="estimated" unicode="&#x212e;" horiz-adv-x="1624" 
d="M1561 621h-1213q-10 0 -10 -9v-366q0 -24 16 -43q90 -93 208.5 -146t250.5 -53q141 0 266 59.5t215 163.5h109q-101 -120 -257.5 -190t-334.5 -70q-204 0 -376 89.5t-272 244.5t-100 338t100 338.5t272 245.5t376 90t376.5 -90t273 -245.5t100.5 -338.5v-18zM1284 668
v368q0 26 -16 45q-92 89 -209.5 140t-245.5 51q-130 0 -248.5 -52.5t-208.5 -144.5q-18 -18 -18 -47v-360q0 -4 3 -8.5t7 -4.5h928q8 0 8 13z" />
    <glyph glyph-name="partialdiff" unicode="&#x2202;" 
d="M444 784h2q58 0 113 -27t92 -83q17 165 19 205q7 166 -41 288q-28 67 -82.5 112.5t-130.5 45.5q-115 0 -228 -98q-13 -1 -28.5 21t-23.5 53t-1 51q107 73 232 73q228 0 354 -268q84 -185 84 -442q0 -115 -20.5 -241.5t-59.5 -219.5q-53 -132 -142.5 -208.5t-207.5 -76.5
q-137 0 -220 96t-83 267q0 179 100 311q46 62 118.5 101.5t153.5 39.5zM481 709h-2q-99 0 -162 -107q-37 -70 -57 -171.5t-20 -205.5q0 -88 36.5 -144t100.5 -56q54 0 99 59t77 143q59 145 82 365q-14 41 -57.5 79t-96.5 38z" />
    <glyph glyph-name="Delta" unicode="&#x2206;" horiz-adv-x="1058" 
d="M999 0h-942v51l426 1247l74 21l442 -1268v-51zM784 94l-317 934l-309 -934h626z" />
    <glyph glyph-name="product" unicode="&#x220f;" horiz-adv-x="1159" 
d="M1110 1300v-51q-57 -5 -85 -10.5t-45 -23.5t-20.5 -41.5t-3.5 -73.5v-1049q0 -102 24 -128.5t128 -35.5v-51h-457v51q92 7 111.5 32t19.5 130v1125q0 41 -11.5 52t-51.5 11h-287q-38 0 -47.5 -9.5t-9.5 -47.5v-1131q0 -93 8 -115q12 -30 61 -40q18 -4 48 -7v-51h-445v51
q103 9 127.5 35t24.5 127v1051q0 40 -3 62t-10.5 39.5t-27 25.5t-45 13t-72.5 9v51h1069z" />
    <glyph glyph-name="summation" unicode="&#x2211;" horiz-adv-x="923" 
d="M885 178l-76 -350h-760v47l373 627l-367 751v47h756q1 -15 4 -60.5t8 -114.5t8 -117l-53 -11q-20 110 -53 174q-19 39 -54 52.5t-128 13.5h-275l305 -602l-378 -649h397q42 0 65 1.5t47.5 9t38 19t29.5 36t29 56t30 82.5z" />
    <glyph glyph-name="minus" unicode="&#x2212;" horiz-adv-x="1216" 
d="M1124 453h-1032v131h1032v-131z" />
    <glyph glyph-name="uni2215" unicode="&#x2215;" horiz-adv-x="337" 
d="M-297 -25v2q0 7 27 50l809 1267q15 21 39 21h34q23 0 23 -10q0 -9 -27 -52l-809 -1267q-15 -21 -37 -21h-36q-23 0 -23 10z" />
    <glyph glyph-name="uni2219" unicode="&#x2219;" horiz-adv-x="446" 
d="M223 401h-2q-44 0 -73 35.5t-29 81.5t30 81.5t74 35.5q46 0 75.5 -35t29.5 -82t-29.5 -82t-75.5 -35z" />
    <glyph glyph-name="radical" unicode="&#x221a;" horiz-adv-x="944" 
d="M915 1649l-290 -1948l-41 -18l-359 1017l-147 -65l-21 63l285 125l260 -774h4l234 1616z" />
    <glyph glyph-name="infinity" unicode="&#x221e;" horiz-adv-x="1310" 
d="M1227 541v-2q0 -130 -79 -209.5t-187 -79.5q-80 0 -151 43.5t-153 150.5q-78 -95 -149.5 -144.5t-165.5 -49.5q-107 0 -184.5 79t-77.5 201q0 126 78 205.5t198 79.5q88 0 160.5 -49t145.5 -141q76 86 114 117q91 73 193 73q112 0 185 -75.5t73 -198.5zM356 358h2
q28 0 57 11.5t48 22.5t49.5 41.5t40.5 41.5t43 49q-29 39 -43 57.5t-41 48.5t-48 44t-51.5 25.5t-62.5 11.5q-74 0 -116.5 -52t-40.5 -131q-2 -71 45.5 -120.5t117.5 -49.5zM958 711h-2q-25 0 -51 -9.5t-44.5 -21t-43.5 -35t-36 -36t-35 -41t-29 -33.5q84 -101 134 -139
t114 -38q68 0 109.5 53.5t41.5 118.5q0 80 -44 130.5t-114 50.5z" />
    <glyph glyph-name="integral" unicode="&#x222b;" horiz-adv-x="671" 
d="M279 4l-37 766q-9 192 4.5 337.5t41 230t70 137.5t83.5 70.5t89 17.5q43 0 79 -25t36 -68q0 -42 -27 -66t-63 -24q-21 0 -35.5 14.5t-20 32t-15.5 32t-23 14.5q-77 0 -62 -291l33 -697q9 -192 -2.5 -341t-37.5 -244t-67 -156.5t-86.5 -86t-99.5 -24.5q-50 0 -82 28
t-32 67q-1 41 29.5 68.5t70.5 27.5q19 0 32.5 -15.5t20 -34.5t16.5 -34.5t23 -15.5q36 0 52 74.5t10 205.5z" />
    <glyph glyph-name="approxequal" unicode="&#x2248;" horiz-adv-x="888" 
d="M750 805l73 -62q-37 -78 -93.5 -127t-125.5 -49q-45 0 -83.5 15t-96.5 51q-83 59 -139 59q-49 0 -81 -31.5t-69 -93.5l-74 60q36 79 98.5 127.5t135.5 48.5q19 0 38.5 -3.5t33 -7.5t31.5 -12.5t26 -13t24.5 -15t20.5 -12.5q7 -4 22.5 -14t22 -13.5t19 -10.5t19.5 -10
t17 -6.5t19 -5t18 -1.5q44 0 77 32t67 95zM750 500l73 -62q-37 -78 -93.5 -127t-125.5 -49q-44 0 -83 15.5t-97 50.5q-83 59 -139 59q-26 0 -48.5 -9.5t-41.5 -31t-30 -37.5t-30 -47l-74 57q36 80 98.5 128.5t135.5 48.5q23 0 44.5 -3.5t42 -12t31 -14t31.5 -18t25 -14.5
q5 -3 18.5 -12l18 -12t16 -9.5t17 -9.5t15.5 -7.5t17.5 -6t16.5 -3t18 -1.5q44 0 75.5 31t68.5 96z" />
    <glyph glyph-name="notequal" unicode="&#x2260;" horiz-adv-x="888" 
d="M649 909l-65 -151h223v-115h-264l-99 -233h363v-113h-404l-79 -188l-88 34l65 154h-221v113h262l98 233h-360v115h401l80 186z" />
    <glyph glyph-name="lessequal" unicode="&#x2264;" horiz-adv-x="888" 
d="M803 195l-715 387v123l715 387v-138l-602 -307v-4l602 -311v-137zM809 10h-727v117h727v-117z" />
    <glyph glyph-name="greaterequal" unicode="&#x2265;" horiz-adv-x="888" 
d="M92 1092l715 -387v-123l-715 -387v137l602 309v4l-602 309v138zM809 10h-727v117h727v-117z" />
    <glyph glyph-name="lozenge" unicode="&#x25ca;" horiz-adv-x="944" 
d="M860 631l-317 -750h-142l-317 750l322 755h137zM735 631l-258 631h-6l-260 -629l260 -633h6z" />
    </font>
</defs>
</svg>
