<?xml version="1.0" standalone="no"?>
<!DOCTYPE svg PUBLIC "-//W3C//DTD SVG 1.1//EN" "http://www.w3.org/Graphics/SVG/1.1/DTD/svg11.dtd" >
<svg xmlns="http://www.w3.org/2000/svg" xmlns:xlink="http://www.w3.org/1999/xlink" version="1.1">
<metadata>
Created by FontForge 20170731 at Fri Nov 20 17:46:45 2020
 By Aleksey,,,
Copyright (c) 1994, 2001 Adobe Systems Incorporated.  All Rights Reserved.
</metadata>
<defs>
<font id="ITCGaramondStd-BdNarrow" horiz-adv-x="987" >
  <font-face 
    font-family="ITC Garamond Std Book Narrow"
    font-weight="700"
    font-stretch="semi-condensed"
    units-per-em="2048"
    panose-1="2 2 8 3 7 7 6 2 3 4"
    ascent="1440"
    descent="-608"
    x-height="928"
    cap-height="1288"
    bbox="-362 -512 2044 1798"
    underline-thickness="102"
    underline-position="-307"
    unicode-range="U+0020-FB02"
  />
<missing-glyph horiz-adv-x="1024" 
d="M0 0v1434h1024v-1434h-1024zM512 809l348 522h-696zM573 717l349 -522v1044zM164 102h696l-348 523zM102 1239v-1044l349 522z" />
    <glyph glyph-name="fi" unicode="fi" horiz-adv-x="1105" 
d="M596 825h-115q-42 0 -55.5 -14t-13.5 -53v-598q0 -47 12.5 -69.5t48.5 -29.5q17 -3 26.5 -5.5t18 -10.5t8.5 -22q0 -31 -47 -31q-22 0 -92 4t-115 4q-47 0 -110.5 -4t-81.5 -4q-60 0 -60 31q0 19 12 27t38 11q48 7 60.5 29t12.5 88v602q0 25 -12 33t-39 10q-20 1 -31 3.5
t-19.5 10.5t-8.5 23q0 24 14.5 35.5t46.5 22.5q26 12 39.5 29t16.5 50q5 145 74 248.5t179.5 153t251.5 49.5q151 0 225 -39.5t74 -91.5q0 -43 -10 -87.5t-37.5 -81t-66.5 -36.5q-24 0 -42.5 9.5t-32.5 30.5t-21.5 38t-18.5 47t-18.5 46t-22 37t-34.5 30.5t-46 9.5
q-194 0 -194 -367q0 -48 10.5 -60.5t46.5 -12.5h176q109 0 217 22q20 5 50.5 16t41.5 11q17 0 17 -45v-107v-647q0 -58 11 -77.5t56 -31.5q20 -5 27.5 -7.5t13.5 -10t6 -20.5q0 -31 -41 -31q-29 0 -97 4t-107 4q-38 0 -105 -4t-94 -4q-18 0 -29.5 9t-11.5 24q0 29 45 36
q38 7 47.5 27t9.5 84v547q0 63 -21 84.5t-83 21.5z" />
    <glyph glyph-name="fl" unicode="fl" horiz-adv-x="1105" 
d="M143 178v602q0 25 -12 33t-39 10q-20 1 -31 3.5t-19.5 10.5t-8.5 23q0 24 15 35.5t46 22.5q26 12 39.5 29t16.5 50q9 208 138.5 329.5t321.5 121.5q63 0 104.5 -12t66 -28t28.5 -17q7 1 25 8.5t46.5 20.5t39.5 18q20 10 30 10q11 0 15 -8t4 -29v-1259q0 -43 15.5 -62.5
t55.5 -28.5q43 -7 43 -34q0 -20 -10 -27.5t-31 -7.5q-17 0 -87.5 4t-112.5 4t-111 -4t-92 -4q-17 0 -29 8.5t-12 24.5q0 28 45 36q36 7 46.5 25.5t10.5 73.5v968q-13 9 -23.5 21t-18.5 29.5t-12.5 28.5t-12 35.5t-10.5 33.5q-16 44 -34.5 64t-49.5 20q-23 0 -42 -9
t-31.5 -29t-22.5 -40.5t-15.5 -53.5t-9 -57.5t-4.5 -64.5t-1.5 -61t-0.5 -60q0 -45 7.5 -55t37.5 -10h118q18 0 23.5 -8t5.5 -38q0 -32 -6 -40.5t-29 -8.5h-106q-30 0 -40.5 -11t-10.5 -40v-614q0 -47 12.5 -69.5t48.5 -29.5q17 -3 26.5 -5.5t18 -10.5t8.5 -22
q0 -31 -47 -31q-22 0 -91 4t-114 4q-48 0 -112.5 -4t-81.5 -4q-60 0 -60 31q0 19 12.5 27t39.5 11q46 7 58.5 29.5t12.5 87.5z" />
    <glyph glyph-name=".notdef" horiz-adv-x="1024" 
d="M0 0v1434h1024v-1434h-1024zM512 809l348 522h-696zM573 717l349 -522v1044zM164 102h696l-348 523zM102 1239v-1044l349 522z" />
    <glyph glyph-name=".null" horiz-adv-x="0" 
 />
    <glyph glyph-name="nonmarkingreturn" horiz-adv-x="682" 
 />
    <glyph glyph-name="space" unicode=" " horiz-adv-x="501" 
 />
    <glyph glyph-name="exclam" unicode="!" horiz-adv-x="544" 
d="M283 369h-2q-27 0 -37.5 17.5t-16.5 66.5q-26 145 -37 223q-64 403 -68 457q-1 13 -1 24q0 164 151 164q150 0 150 -154q0 -21 -2 -45t-7.5 -67t-11 -84.5t-18 -129.5t-23.5 -171q-18 -128 -24 -185q-9 -69 -19 -92.5t-34 -23.5zM281 -23h-2q-57 0 -97.5 43.5
t-40.5 106.5q0 61 41.5 104t98.5 43q59 0 99 -43.5t40 -103.5q0 -61 -40 -105.5t-99 -44.5z" />
    <glyph glyph-name="quotedbl" unicode="&#x22;" horiz-adv-x="681" 
d="M170 1313h2q94 0 94 -113q0 -27 -2 -45q-19 -191 -43 -385q-7 -61 -51 -61q-40 0 -51 61q-33 301 -41 385q-2 18 -2 45q0 113 94 113zM512 1313h2q92 0 92 -113v-45q-19 -191 -43 -385q-7 -61 -51 -61t-51 61q-24 194 -43 385q-2 18 -2 45q0 113 96 113z" />
    <glyph glyph-name="numbersign" unicode="#" 
d="M702 1100l58 178q8 23 16.5 29t36.5 6q29 0 40 -2.5t11 -12.5q0 -8 -8 -24l-53 -168q-6 -24 -6 -27q0 -12 26 -12h146q19 0 23.5 -1.5t4.5 -10.5t-32 -113q-6 -17 -13 -22t-22 -5h-164q-20 0 -25.5 -5.5t-11.5 -28.5l-43 -129q-6 -24 -6 -25q0 -7 6 -9.5t23 -2.5h145
q31 0 31 -13q0 -16 -35 -114q-6 -17 -13 -22t-22 -5h-166q-18 0 -23.5 -5.5t-11.5 -27.5l-61 -188q-9 -23 -18 -28t-43 -5q-43 0 -43 15q0 3 2.5 10t3.5 12l57 180q8 16 8 27q0 7 -5.5 8.5t-25.5 1.5h-157q-20 0 -25.5 -5.5t-11.5 -27.5l-62 -188q-7 -23 -16 -28t-37 -5
q-29 0 -39 2.5t-10 12.5t6 22l58 180q6 24 6 27q0 7 -5.5 8.5t-25.5 1.5h-143q-18 0 -23.5 2.5t-5.5 9.5q0 25 35 115q6 17 12 22t18 5h173q15 0 20.5 6t11.5 27l45 129q1 4 3.5 13.5t2.5 12.5q0 7 -5.5 9.5t-24.5 2.5h-146q-19 0 -24.5 2t-5.5 11q0 19 34 114q7 25 35 25
h166q17 0 23 5.5t12 27.5l59 178q9 23 19 29t41 6q25 0 34 -2.5t9 -12.5q0 -8 -4 -24l-58 -168q-6 -24 -6 -27q0 -12 29 -12h160q17 0 22.5 5.5t13.5 27.5zM389 715h162q18 0 23 3.5t10 16.5l45 142q8 20 8 26q0 7 -6 8.5t-25 1.5h-162q-14 0 -19.5 -4.5t-10.5 -17.5
l-47 -139q-1 -3 -2.5 -8.5t-3 -10t-1.5 -8.5q0 -7 5 -8.5t24 -1.5z" />
    <glyph glyph-name="dollar" unicode="$" horiz-adv-x="1036" 
d="M698 1137l-28 -389q127 -72 188.5 -146t61.5 -194q0 -135 -84 -236.5t-215 -142.5l-21 -254q-1 -24 -8 -29.5t-37 -5.5q-33 0 -41.5 5t-7.5 28l18 235q-27 -4 -63 -4h-33l-16 -229q-1 -24 -9 -29.5t-38 -5.5q-32 0 -40.5 5.5t-7.5 27.5l17 237q-113 14 -178 58
q-27 17 -29 73q-6 65 -6 203q0 66 37 66q10 0 18.5 -3.5t16 -12.5t13 -17.5t11.5 -24.5t9.5 -27t10.5 -32l11 -33q34 -96 94 -139l31 432q-110 62 -171 142.5t-61 199.5q0 123 81 223.5t202 145.5l14 192q1 25 8.5 30t38.5 5q32 0 40 -5t7 -28l-12 -174q16 4 43 4
q33 0 51 -6l13 174q1 24 9 29.5t40 5.5t39 -5t6 -28l-12 -190q72 -19 118 -49q45 -28 45 -66q0 -103 -12 -164q-9 -30 -18 -44.5t-25 -14.5q-19 0 -32 7.5t-22 25.5t-14 32.5t-12 43.5q-1 5 -2 8q-8 50 -37 90zM580 797l28 401q-33 10 -55 10q-4 0 -17 -1t-22 -1l-27 -358
q17 -8 49 -26.5t44 -24.5zM399 918l19 249q-68 -49 -68 -137q0 -66 49 -112zM465 502l-31 -416q12 -4 41 -4q26 0 53 6l27 363q-68 41 -90 51zM645 381l-18 -256q63 50 63 129q0 76 -45 127z" />
    <glyph glyph-name="percent" unicode="%" horiz-adv-x="1380" 
d="M1030 20h2q92 0 92 279q0 143 -23 209.5t-71 66.5t-71 -66.5t-23 -209.5q0 -145 23 -212t71 -67zM221 -23v3q0 6 27 49l803 1265q15 21 45 21h39q26 0 26 -10t-26 -52l-803 -1265q-15 -21 -45 -21h-41q-25 0 -25 10zM1030 -33h-2q-128 0 -215.5 99.5t-87.5 232.5
t88.5 231.5t216.5 98.5q129 0 217 -98t88 -232t-88 -233t-217 -99zM350 653h-2q-128 0 -215.5 98.5t-87.5 231.5t88.5 231.5t216.5 98.5q129 0 217 -98t88 -232q0 -133 -88 -231.5t-217 -98.5zM350 707h2q92 0 92 276q0 277 -94 277t-94 -277q0 -143 23 -209.5t71 -66.5z
" />
    <glyph glyph-name="ampersand" unicode="&#x26;" horiz-adv-x="1218" 
d="M219 1008v2q0 132 99 217.5t247 85.5q130 0 216.5 -66t86.5 -172q0 -48 -14.5 -87t-47 -72t-54 -49t-67.5 -46l-9 -6q-41 -30 -41 -37q0 -4 18 -35q25 -33 78 -111.5t72 -105.5q24 -32 33 -32q16 0 49 68t33 95q0 41 -44 52q-45 11 -45 39q0 38 52 38q20 0 64 -4t67 -4
q22 0 73 4t64 4q25 0 36 -8.5t11 -29.5q0 -10 -4.5 -16.5t-17.5 -11.5t-20.5 -7t-27.5 -6q-38 -9 -61 -25.5t-47 -52.5q-16 -24 -32 -50.5t-33 -55.5t-25 -42q-5 -9 -13 -22t-12.5 -20t-8 -15t-3.5 -12q0 -12 20 -45q76 -122 109 -172q37 -56 65.5 -83.5t59.5 -33.5
q39 -9 55.5 -18.5t16.5 -32.5q0 -22 -12 -28.5t-38 -6.5q-24 0 -92.5 4t-111.5 4q-51 0 -113.5 -4t-81.5 -4q-22 0 -31 5.5t-12 22.5q-2 19 16 33q20 7 17 31q-3 16 -23.5 47t-29.5 31q-5 0 -12 -6t-19.5 -20t-22.5 -23q-132 -140 -282 -140q-158 0 -252 97t-94 247
q0 51 14 96t34.5 76t51 59t57.5 45t60 34q19 10 51.5 25.5t46.5 24t14 15.5q0 8 -33 54.5t-66.5 119t-33.5 142.5zM592 1235h-2q-54 0 -86.5 -38.5t-32.5 -100.5q0 -43 23.5 -101.5t51.5 -98.5t42 -40q8 0 28 14.5t44 38.5t42.5 66t18.5 88q0 78 -32.5 125t-96.5 47z
M276 416v-2q0 -62 25 -125t76.5 -108.5t116.5 -45.5q60 0 106.5 38.5t46.5 66.5q0 9 -37.5 67t-99 147.5t-72.5 106.5q-29 45 -43 45q-12 0 -38.5 -21t-53.5 -67.5t-27 -101.5z" />
    <glyph glyph-name="quotesingle" unicode="'" horiz-adv-x="452" 
d="M225 1313h2q95 0 95 -113q0 -6 -1.5 -21t-1.5 -24q-19 -191 -43 -385q-7 -61 -51 -61t-51 61q-28 222 -41 385q-4 36 -4 45q0 113 96 113z" />
    <glyph glyph-name="parenleft" unicode="(" horiz-adv-x="757" 
d="M143 571v2q0 112 24 220t63.5 193.5t89.5 162.5t102 132t101 96t86.5 61t58.5 20q32 0 32 -28q0 -21 -41 -66q-2 -1 -5 -4l-5 -6q-139 -150 -194.5 -347.5t-55.5 -435.5t55.5 -435t194.5 -347q51 -55 51 -74q0 -30 -32 -30q-25 0 -72 28.5t-106 80t-120 131.5t-112 174
t-83 218.5t-32 253.5z" />
    <glyph glyph-name="parenright" unicode=")" horiz-adv-x="757" 
d="M614 571v-2q0 -111 -24 -219t-63.5 -193.5t-89.5 -162t-102 -132t-101 -96.5t-86.5 -61t-57.5 -20q-35 0 -35 30q0 6 2.5 12t8.5 14.5t10.5 14t15 17t14.5 16.5q140 150 195 346t55 436q0 155 -19.5 283t-77 263t-153.5 237q-4 5 -14.5 16.5t-15 17t-10.5 14t-8.5 15
t-2.5 13.5q0 28 35 28q20 0 57.5 -20t86.5 -61t101 -96.5t102 -132t89.5 -162.5t63.5 -194.5t24 -220.5z" />
    <glyph glyph-name="asterisk" unicode="*" horiz-adv-x="800" 
d="M399 559h-2q-37 0 -62.5 26.5t-25.5 67.5q0 29 38 109t38 110q0 25 -18 25q-21 0 -42 -23.5t-53 -70.5q-35 -45 -65 -69.5t-66 -24.5q-37 0 -61.5 29t-24.5 63q0 49 41 68.5t109 25.5q9 1 24 2t24.5 1.5t22.5 2t21 2.5t18 3t15.5 5t11 6.5t8 8t2.5 10.5q0 7 -2.5 12.5
t-8 9.5t-11 7t-15.5 5.5t-18 4t-21.5 3t-22 2t-24.5 1.5t-24 2q-45 5 -73.5 12.5t-52.5 30t-24 59.5q0 40 25 64.5t65 24.5q60 0 117 -97q5 -7 13.5 -20.5t13.5 -20.5t13 -18t13.5 -16.5t13 -11.5t14.5 -8.5t15 -2.5q27 0 27 27q0 20 -38 103.5t-38 125.5q0 35 26 57.5
t66 22.5t66.5 -23t26.5 -59q0 -40 -38 -123.5t-38 -103.5q0 -27 18 -27q7 0 13.5 2.5t14 8.5t13 11.5t13.5 16t12.5 17.5t13.5 20t14 20q59 94 115 94q38 0 66 -27t28 -65q0 -52 -39 -72t-104 -24q-9 -1 -23.5 -2t-24 -1.5t-21.5 -1.5t-20.5 -2.5t-17.5 -3.5t-15 -5t-11 -7
t-7.5 -9.5t-2.5 -12.5q0 -6 2.5 -10.5t8 -8t11 -6.5t15.5 -5t18 -3t20.5 -2.5t22 -2t24 -1.5t23.5 -2q43 -3 72.5 -11t52 -29t22.5 -54q0 -36 -29.5 -64t-66.5 -28q-55 0 -121 94q-21 33 -31.5 48t-27 30.5t-31.5 15.5q-20 0 -20 -29q0 -35 35.5 -111.5t35.5 -103.5
q0 -41 -25.5 -67.5t-64.5 -26.5z" />
    <glyph glyph-name="plus" unicode="+" horiz-adv-x="1222" 
d="M524 606v430h176v-430h428v-176h-428v-430h-176v430h-428v176h428z" />
    <glyph glyph-name="comma" unicode="," horiz-adv-x="495" 
d="M246 270h2q84 0 129 -68.5t45 -156.5q0 -86 -41.5 -177t-106.5 -167q-88 -115 -151 -115q-14 0 -22.5 8t-8.5 21q0 9 8.5 21t19.5 23l31.5 31.5t34.5 35.5q93 102 93 196q0 36 -19.5 49t-75.5 23q-39 9 -62.5 41t-23.5 82q0 62 38.5 107.5t109.5 45.5z" />
    <glyph glyph-name="hyphen" unicode="-" horiz-adv-x="628" 
d="M141 557h410q17 0 23 -3.5t6 -12.5q0 -6 -54 -152q-9 -20 -37 -20h-413q-27 0 -27 16q0 7 21 65t32 85q7 22 39 22z" />
    <glyph glyph-name="period" unicode="." horiz-adv-x="495" 
d="M100 123v2q0 60 43.5 103.5t104.5 43.5t103 -43.5t42 -105.5t-42 -106t-103 -44q-62 0 -105 44.5t-43 105.5z" />
    <glyph glyph-name="slash" unicode="/" horiz-adv-x="626" 
d="M-20 -299h-105q-27 0 -27 10q0 3 23 56l676 1654q9 27 39 27h110q27 0 27 -10q0 -4 -3.5 -13t-10.5 -22.5t-9 -18.5l-675 -1658q-6 -16 -15 -20.5t-30 -4.5z" />
    <glyph glyph-name="zero" unicode="0" 
d="M49 639v2q0 299 127.5 486.5t317.5 187.5t317 -186.5t127 -487.5q0 -300 -127 -488t-317 -188q-191 0 -318 188.5t-127 485.5zM340 643v-2q0 -311 36 -449.5t118 -138.5q81 0 116 136.5t35 451.5q0 311 -36.5 449.5t-116.5 138.5t-116 -137t-36 -449z" />
    <glyph glyph-name="one" unicode="1" 
d="M377 217v836q0 57 -39 57q-15 0 -76 -18q-10 -4 -25 -10.5t-25 -10.5t-17 -4q-27 0 -27 33q0 35 78 61q56 20 116.5 44.5t133.5 55.5t100 42q32 12 39 12q24 0 24 -39v-1071q0 -77 20 -101.5t81 -29.5q37 -3 54 -12t17 -29q0 -41 -55 -41q-10 0 -41 2t-88.5 4t-132.5 2
q-69 0 -125 -2t-87 -4t-40 -2q-57 0 -57 39q0 21 16.5 29t69.5 14q57 6 71.5 31t14.5 112z" />
    <glyph glyph-name="two" unicode="2" 
d="M852 965v-2q0 -67 -19 -126.5t-61.5 -116.5t-86.5 -101.5t-116 -108.5q-141 -128 -209 -201q-49 -49 -49 -63q0 -10 43 -10q151 0 217 4q93 3 138 38.5t67 104.5q22 65 32 77q12 13 28 13q20 0 27 -18.5t7 -75.5q-4 -285 -6 -324q-1 -40 -9.5 -51.5t-29.5 -11.5
q-10 0 -40.5 1t-49.5 1q-85 6 -219 6q-121 0 -391 -6q-41 0 -41 41q0 12 9.5 31t18 31t26 34.5t18.5 24.5q132 173 202 278q100 154 149.5 275.5t49.5 224.5q0 123 -49.5 193.5t-134.5 70.5q-48 0 -86 -22t-60.5 -58t-35.5 -73t-17 -76q-6 -58 -43 -58q-35 0 -35 52
q0 92 41.5 170.5t129.5 130t208 51.5q173 0 275 -98.5t102 -251.5z" />
    <glyph glyph-name="three" unicode="3" 
d="M909 428v-2q0 -107 -54 -216t-138.5 -191t-193.5 -133.5t-214 -51.5q-99 0 -167 45.5t-68 132.5q0 52 31.5 80.5t76.5 28.5q51 0 82 -28.5t51 -82.5q12 -27 18 -39t16.5 -26.5t22.5 -19.5t29 -5q60 0 109 60.5t74.5 148.5t25.5 178q0 142 -64.5 235t-183.5 93
q-25 0 -47.5 -4.5t-42.5 -14t-31.5 -15.5t-30.5 -19.5t-24 -16.5q-28 -14 -41 -14q-11 0 -19.5 9t-8.5 22q0 17 16 41q14 14 54 47t65 57q60 55 93.5 88.5t70.5 79.5t53 90t16 92q0 60 -32 95.5t-86 35.5q-85 0 -154 -104q-10 -15 -22 -41.5t-21.5 -39.5t-22.5 -13
q-30 0 -30 37q0 19 10.5 48.5t38.5 68.5t67.5 72t105 56t144.5 23q76 0 137.5 -19.5t103.5 -69t42 -122.5q0 -123 -158 -227q-85 -58 -143 -84q-41 -25 -43 -31q0 -6 1.5 -7t6.5 -1l47 12q47 12 94 12q149 0 243.5 -93.5t94.5 -256.5z" />
    <glyph glyph-name="four" unicode="4" 
d="M915 422h-122q-17 0 -24 -5t-7 -22v-235q0 -47 18 -63.5t74 -22.5q38 -6 51 -14t13 -27q0 -23 -18 -32t-54 -9q-18 0 -89.5 4t-140.5 4q-96 0 -165 -4t-76 -4q-37 0 -51.5 8.5t-14.5 32.5q0 20 20 29t62 12q52 3 72 29t20 96v194q0 18 -6 23.5t-24 5.5h-328h-49
q-20 0 -26.5 12.5t-6.5 57.5q0 26 5.5 40.5t25.5 45.5q108 169 547 813q22 32 34.5 43t34.5 14h62q12 0 17 -3t3 -9q-3 -9 -27 -45q-41 -59 -258 -363.5t-294 -423.5q-39 -58 -39 -74q0 -14 22 -14h277q19 0 24.5 12t5.5 47v306q0 18 9 27.5t30 17.5q45 22 130 59t96 37
q14 0 14 -31v-446q0 -27 22 -27h131q17 0 22 -9t5 -40t-5.5 -39t-21.5 -8z" />
    <glyph glyph-name="five" unicode="5" 
d="M868 442v-2q0 -141 -73.5 -253t-194.5 -193q-105 -70 -228 -109t-204 -39q-20 0 -32.5 9t-12.5 24q0 18 17 28t61 21q173 45 266 117q129 106 129 272q0 162 -152 240q-86 45 -239 59q-51 8 -65.5 14t-14.5 21q0 3 1 10t3 19.5t4 26.5q50 230 96 520q6 32 17 39.5t47 9.5
q131 6 306.5 17t238.5 12q24 0 24 -19q0 -8 -4.5 -34.5t-12 -69t-11.5 -80.5q-3 -15 -14 -20.5t-50 -8.5q-67 -4 -208 -9.5t-208 -8.5q-43 -3 -57.5 -12.5t-20.5 -36.5q-30 -120 -30 -134q0 -17 16 -21.5t76 -6.5q227 -13 362 -96q168 -105 168 -306z" />
    <glyph glyph-name="six" unicode="6" 
d="M934 457v-2q0 -135 -51.5 -245.5t-148 -176.5t-220.5 -66q-104 0 -191 49.5t-144 133t-88.5 192.5t-31.5 229q0 248 113.5 446t298.5 329q100 72 211.5 112.5t187.5 40.5q28 0 40 -5.5t12 -23.5q0 -7 -5.5 -13t-18 -11.5t-24.5 -9.5l-33 -11l-36 -12
q-213 -71 -335 -295.5t-122 -525.5q0 -242 53 -394.5t131 -152.5q123 0 123 274q0 137 -42.5 268.5t-104.5 141.5q-26 2 -49 -9t-29 -9q-12 6 -12 24q0 41 57.5 85t138.5 44q94 0 168.5 -60.5t113 -152.5t38.5 -194z" />
    <glyph glyph-name="seven" unicode="7" 
d="M930 1260v-3q0 -5 -12 -40q-143 -335 -338 -900q-11 -32 -63 -177.5t-77 -221.5q-11 -36 -21 -47.5t-32 -11.5h-39q-29 0 -29 22q0 7 23 78q29 83 162 452t182 511q16 41 16 63q0 9 -7 13t-28.5 6t-66.5 2h-371q-38 0 -72 -5.5t-44 -5.5q-19 0 -19 60q0 145 2 180
q3 33 10.5 43t26.5 10q18 0 136.5 -4t236.5 -4q106 0 237 4t156 4q31 0 31 -28z" />
    <glyph glyph-name="eight" unicode="8" 
d="M516 1315h2q93 0 176.5 -30.5t142 -98.5t58.5 -160q0 -26 -6.5 -50t-14.5 -42t-24.5 -36t-28 -28.5t-33 -24.5t-31.5 -19.5t-32 -17t-27 -13.5q-5 -3 -14 -8l-13.5 -7.5t-8.5 -6t-5 -7.5q2 -5 8.5 -9t26 -14t41.5 -24q28 -17 39.5 -24t39 -27.5t41.5 -36t35 -43
t31.5 -54.5t18.5 -65.5t8 -81.5q0 -190 -133 -305t-346 -115q-181 0 -303.5 97t-122.5 243q0 104 59.5 170t163.5 117q53 26 55 33q-1 4 -6 8.5t-11.5 8.5t-18.5 12.5t-23 17.5q-29 21 -41 29.5t-43.5 38.5t-47 55.5t-30 68t-14.5 88.5q0 158 117.5 259.5t314.5 101.5z
M563 821h2q30 0 77.5 64t47.5 141q0 91 -48.5 151t-139.5 60q-79 0 -127.5 -47.5t-48.5 -124.5q0 -113 137 -199q64 -45 100 -45zM481 45h2q93 0 151 69.5t58 164.5q0 131 -131 213q-43 32 -92 55.5t-63 23.5q-22 0 -59 -33.5t-69 -96t-32 -128.5q0 -72 23 -130.5t78 -98
t134 -39.5z" />
    <glyph glyph-name="nine" unicode="9" 
d="M55 842v2q0 198 123 334.5t305 136.5q104 0 189.5 -46t141 -124t86 -180.5t30.5 -216.5q0 -131 -40.5 -256.5t-112 -230.5t-159 -191.5t-192.5 -157.5q-83 -62 -178.5 -105t-132.5 -43q-20 0 -31.5 10t-11.5 25q0 26 73 56q233 99 366.5 307.5t133.5 511.5
q0 244 -60.5 398.5t-135.5 154.5q-115 0 -115 -244q0 -163 42.5 -272t98.5 -117q22 -1 47 8t35 4q10 -10 10 -26q0 -49 -62 -97.5t-136 -48.5q-76 0 -138 38t-99.5 99t-57 131t-19.5 140z" />
    <glyph glyph-name="colon" unicode=":" horiz-adv-x="495" 
d="M248 604h-2q-61 0 -103.5 44.5t-42.5 105.5q0 60 41.5 104.5t106.5 44.5q59 0 102 -43.5t43 -105.5t-42 -106t-103 -44zM248 -27h-2q-61 0 -103.5 44.5t-42.5 105.5q0 60 41.5 104.5t106.5 44.5q59 0 102 -43.5t43 -105.5t-42 -106t-103 -44z" />
    <glyph glyph-name="semicolon" unicode=";" horiz-adv-x="495" 
d="M248 604h-2q-61 0 -102.5 44.5t-41.5 105.5q0 59 41.5 103t106.5 44q59 0 101 -42.5t42 -104.5t-41.5 -106t-103.5 -44zM246 270h2q84 0 129 -68.5t45 -156.5q0 -86 -41.5 -177t-106.5 -167q-88 -115 -151 -115q-14 0 -22.5 8t-8.5 21q0 9 8.5 21t19.5 23l31.5 31.5
t34.5 35.5q93 102 93 196q0 36 -19.5 49t-75.5 23q-39 9 -62.5 41t-23.5 82q0 62 38.5 107.5t109.5 45.5z" />
    <glyph glyph-name="less" unicode="&#x3c;" horiz-adv-x="1222" 
d="M1133 160v-176l-1041 456v156l1041 457v-176l-816 -359z" />
    <glyph glyph-name="equal" unicode="=" horiz-adv-x="1222" 
d="M1128 815v-176h-1032v176h1032zM1128 397v-176h-1032v176h1032z" />
    <glyph glyph-name="greater" unicode="&#x3e;" horiz-adv-x="1222" 
d="M92 160l813 358l-813 359v176l1041 -457v-156l-1041 -456v176z" />
    <glyph glyph-name="question" unicode="?" horiz-adv-x="679" 
d="M96 1182v2q0 51 19 76q46 61 188 61q143 0 251 -98.5t108 -249.5q0 -92 -36 -160.5t-102 -134.5q-25 -24 -79.5 -69.5t-77.5 -67.5q-4 -4 -12 -11t-11 -9.5t-9 -8t-8.5 -8.5t-6 -7.5t-5.5 -8.5l-4.5 -9t-3.5 -10q-2 -8 -4.5 -20t-4 -19t-3.5 -16.5t-4 -15t-4.5 -12.5
t-5 -10.5t-6 -7t-8 -5t-9.5 -1.5q-38 0 -45 64q-1 12 -9.5 101t-8.5 141q0 43 13.5 67.5t47.5 55.5q47 46 63 62t51.5 55.5t49 62.5t26.5 56t13 63q0 62 -31.5 104.5t-77.5 42.5q-26 0 -47.5 -20t-32 -40t-28.5 -61q-17 -37 -26.5 -55.5t-25.5 -34.5t-32 -16
q-35 0 -48.5 37.5t-13.5 134.5zM274 -23h-2q-62 0 -99.5 45t-37.5 105q0 59 38 103t101 44q61 0 100.5 -44t39.5 -103q0 -61 -39.5 -105.5t-100.5 -44.5z" />
    <glyph glyph-name="at" unicode="@" horiz-adv-x="1601" 
d="M1229 1032l-125 -504q-6 -30 -6 -61q0 -35 17 -59.5t52 -24.5q62 0 116.5 59t86 154t31.5 197q0 97 -40 190t-111 166t-179 117.5t-233 44.5q-111 0 -213.5 -46t-182.5 -129t-128 -210.5t-48 -278.5q0 -163 83.5 -297t220 -207t294.5 -73q127 0 213 26t180 78l35 -80
q-240 -123 -430 -123q-157 0 -290 43.5t-221.5 114t-151.5 161.5t-91 184t-28 183q0 163 61 304t164 237t241.5 150.5t291.5 54.5q193 0 349.5 -78.5t245.5 -218.5t89 -313q0 -64 -16 -132t-49 -133t-78 -116t-108.5 -82t-135.5 -31q-48 0 -87 18.5t-59.5 44.5t-31 48.5
t-9.5 35.5h-8q-16 -38 -84 -91t-149 -56q-83 0 -142 62.5t-59 195.5q0 51 15.5 114.5t49 132.5t79.5 126t115.5 94t149.5 37q33 0 57.5 -8t41.5 -26.5t24.5 -30.5t20.5 -38l20 74h150zM680 580v-2q0 -81 29.5 -124.5t78.5 -43.5q80 0 150 120.5t80 288.5q0 133 -84 133
q-81 0 -167.5 -110t-86.5 -262z" />
    <glyph glyph-name="A" unicode="A" horiz-adv-x="1030" 
d="M528 418h-235q-23 0 -32 -10t-21 -50q-50 -184 -50 -221q0 -55 68 -69q47 -11 56 -21q8 -8 8 -22q0 -33 -43 -33q-15 0 -61 4t-71 4q-29 0 -77.5 -4t-59.5 -4q-39 0 -39 35q0 11 6.5 19t14.5 11.5t22 8.5q27 7 43.5 21t28.5 50q65 186 287 1020q23 89 24 94q6 27 25.5 37
t75.5 10q55 0 72.5 -8.5t25.5 -36.5q58 -193 186 -592.5t162 -506.5q24 -78 72 -91q4 -2 13.5 -5.5t14 -5.5t10.5 -6t8.5 -9.5t2.5 -13.5q0 -20 -15.5 -25.5t-45.5 -5.5q-29 0 -96 4t-103 4q-32 0 -103.5 -4t-99.5 -4q-33 0 -48 7.5t-15 27.5q0 33 55 41q17 4 26.5 7.5
t18 14t8.5 25.5q0 28 -59 235q-13 44 -24 56t-36 12zM315 498h174q39 0 39 24q0 13 -10 43q-11 40 -40 134.5t-44 144.5q-20 69 -33 69q-10 0 -16 -15.5t-20 -74.5q-11 -45 -72 -266q-8 -36 -8 -45q0 -14 30 -14z" />
    <glyph glyph-name="B" unicode="B" horiz-adv-x="1132" 
d="M160 166v944q0 55 -19 74.5t-63 19.5q-43 0 -51 10q-9 6 -9 17q0 20 23 32t78 21q163 27 373 27q239 0 372 -62q158 -77 158 -252q0 -112 -70.5 -179.5t-187.5 -94.5v-8q35 -5 96 -23q100 -36 160.5 -117.5t60.5 -207.5q0 -178 -112 -279q-108 -96 -291 -96
q-46 0 -154.5 4t-163.5 4q-63 0 -159 -4t-109 -4q-29 0 -41 8t-12 29q0 13 11 22.5t21.5 13t28.5 7.5q36 6 48 26.5t12 67.5zM457 1163v-393q0 -21 8 -27t37 -6q76 0 127 33q88 56 88 215q0 117 -45 182.5t-127 65.5q-54 0 -71 -16t-17 -54zM457 625v-426q0 -70 22 -99.5
t86 -29.5q110 0 160 102q37 70 37 184q0 113 -45 189q-61 114 -189 114q-46 0 -57.5 -6t-13.5 -28z" />
    <glyph glyph-name="C" unicode="C" horiz-adv-x="1046" 
d="M989 354l-4 -225q0 -42 -11 -59t-42 -33q-56 -31 -135 -50.5t-156 -19.5q-181 0 -316 91t-202.5 242.5t-67.5 340.5q0 193 70.5 344.5t206.5 239.5t317 88q72 0 149.5 -16.5t119.5 -36.5q26 -10 32 -23t8 -57q7 -150 7 -219q0 -38 -9 -52t-30 -14q-30 0 -49 30.5
t-46 104.5q-35 98 -78.5 151.5t-111.5 53.5q-112 0 -181 -148t-69 -423q0 -164 25 -288t67 -193t89 -102.5t98 -33.5q41 0 73.5 19.5t55 57.5t37 75t28.5 90q29 98 43 119q15 22 35 22q25 0 36 -16.5t11 -59.5z" />
    <glyph glyph-name="D" unicode="D" horiz-adv-x="1245" 
d="M174 193v925q0 37 -11 53.5t-42 20.5h-66q-35 0 -35 27q0 20 19 31.5t72 23.5q157 37 407 37q318 0 486 -168q182 -173 182 -492q0 -143 -33.5 -261t-101 -208t-178 -140t-255.5 -50q-47 0 -158 4t-163 4q-43 0 -119.5 -4t-107.5 -4q-41 0 -41 37q0 22 13.5 30t51.5 13
q47 6 63.5 30.5t16.5 90.5zM469 1133v-934q0 -65 24.5 -97t88.5 -32q146 0 211 178q59 130 59 389q0 303 -81 446.5t-214 143.5q-52 0 -70 -19t-18 -75z" />
    <glyph glyph-name="E" unicode="E" horiz-adv-x="1036" 
d="M174 178v946q0 11 -1.5 20.5t-3 17t-6 14t-7 10.5t-9.5 8.5t-10 6.5t-11.5 5t-11.5 4t-13 3.5t-13 3.5q-4 1 -12.5 3.5t-12 3.5t-9 3.5t-7.5 5.5t-4 7.5t-2 10.5q0 37 61 37q20 0 134 -4q118 -4 225 -4q77 0 225 4q40 0 105 1t88 1q33 0 43 -11t10 -50q0 -191 -2 -271
q0 -27 -7 -39t-26 -12q-30 0 -55 51q-15 33 -31 80q-17 42 -32.5 69.5t-41 53t-63.5 37.5t-90 12q-72 0 -92 -14q-23 -12 -23 -53v-387q0 -25 12 -31t56 -6q73 0 103 20t42 74q13 57 21 72.5t30 15.5q19 0 27 -13t8 -46q0 -26 -4 -83t-4 -83q0 -31 4 -98t4 -95
q0 -45 -37 -45q-18 0 -27 16t-20 60q-19 76 -46 100.5t-91 24.5q-48 0 -63 -7t-15 -28v-428q0 -56 29.5 -77t105.5 -21q114 0 170 55.5t90 181.5q14 47 28 66.5t36 19.5q20 0 28 -12q13 -29 13 -156q-3 -115 -6 -182q-3 -35 -13.5 -44t-40.5 -9q-77 0 -245 4q-42 0 -122 1
t-118 1q-66 0 -177.5 -4t-148.5 -4q-32 0 -46.5 8.5t-14.5 30.5q0 18 13 27t42 14q49 7 65.5 28.5t16.5 77.5z" />
    <glyph glyph-name="F" unicode="F" horiz-adv-x="929" 
d="M461 586v-402q0 -63 15 -86.5t61 -27.5q46 -5 62.5 -12.5t16.5 -28.5q0 -22 -12 -29.5t-49 -7.5q-17 0 -87 4t-153 4q-66 0 -133.5 -4t-89.5 -4q-18 0 -29 1.5t-20.5 11t-9.5 26.5q0 19 13 26t56 15q41 6 52.5 25.5t11.5 78.5v916q0 64 -11.5 86.5t-54.5 29.5
q-51 9 -59 18q-8 8 -8 21q0 41 61 41q25 0 136.5 -4t191.5 -4q108 0 248.5 4t169.5 4q42 0 51.5 -11t9.5 -56v-256q-1 -34 -9 -47t-26 -13q-13 0 -21.5 5t-15.5 18t-12 26.5t-15.5 41.5t-21.5 53q-40 89 -90.5 123t-146.5 34q-49 0 -65.5 -10.5t-16.5 -38.5v-412
q0 -24 10 -30t49 -6q71 0 101.5 21.5t42.5 76.5q16 69 26 81q10 11 27 11q21 0 27 -13t6 -50q0 -23 -3.5 -79.5t-3.5 -88.5t3.5 -96t3.5 -87q0 -27 -7.5 -39t-25.5 -12q-19 0 -29 16t-20 56q-17 74 -46 97.5t-94 23.5q-44 0 -55.5 -7t-11.5 -34z" />
    <glyph glyph-name="G" unicode="G" horiz-adv-x="1177" 
d="M1038 473v-336q0 -27 -8 -43q-14 -29 -55 -51q-128 -76 -336 -76q-113 0 -209 34t-164 94t-116.5 141.5t-71.5 176.5t-23 199q0 156 48.5 288t133.5 222t202 140.5t251 50.5q154 0 260 -41q29 -9 38 -26.5t11 -61.5q5 -118 5 -185q-2 -54 -9.5 -72t-33.5 -18
q-20 0 -36 21t-42 74q-52 117 -82 158q-56 73 -133 73q-123 0 -203 -152t-80 -454q0 -294 69 -438t189 -144q74 0 94 55q13 23 13 86v263q0 17 -1 30.5t-5 24t-6 18t-9.5 13.5t-10 9t-13.5 7t-13.5 4.5t-16.5 4t-16 3.5q-27 3 -38 10t-11 25q0 35 60 35q23 0 88.5 -4
t128.5 -4q66 0 129.5 4t73.5 4q32 0 45.5 -7.5t13.5 -27.5q0 -6 -1 -10t-4 -7.5t-5 -5.5t-8 -4t-9.5 -3t-13 -3.5t-14.5 -3.5q-30 -9 -43 -26t-13 -64z" />
    <glyph glyph-name="H" unicode="H" horiz-adv-x="1255" 
d="M772 643h-287q-18 0 -24 -7t-6 -30v-442q0 -45 11 -64t42 -28q51 -11 51 -45q0 -35 -45 -35q-17 0 -83 4t-112 4q-58 0 -139 -4t-102 -4q-45 0 -45 41q0 18 12 26t39 13q48 6 61 26.5t13 79.5v946q0 20 -3 35t-6.5 23.5t-11.5 15.5t-13.5 9.5t-17 7t-16.5 6.5
q-6 2 -14 4.5t-11.5 3.5t-8.5 3t-6.5 4.5t-3 6.5t-1.5 10q0 21 12 28t37 7q18 0 98 -4t121 -4t109.5 4t87.5 4q29 0 41 -9t12 -32q0 -17 -12.5 -24.5t-42.5 -14.5q-29 -7 -41 -24t-12 -64v-356q0 -21 6.5 -28t25.5 -7h285q19 0 24 6.5t5 32.5v360q0 12 -1 22t-4 18
t-4.5 13.5t-7 10.5t-7.5 7.5t-10 6t-10 4t-12 3.5t-12 4q-21 5 -31 11.5t-10 18.5q0 41 51 41q13 0 83 -4t124 -4q74 0 145 4t81 4q45 0 45 -39q0 -35 -64 -41q-33 -3 -47 -22.5t-14 -63.5v-952q0 -48 12 -70t39 -28q8 -3 26 -8.5t25 -9t14 -11t7 -18.5q0 -33 -50 -33
q-17 0 -93 4t-134 4q-46 0 -108 -4t-80 -4q-32 0 -45 9.5t-13 31.5q0 16 12.5 24.5t43.5 16.5q31 6 40 24.5t9 63.5v444q0 23 -5.5 30t-23.5 7z" />
    <glyph glyph-name="I" unicode="I" horiz-adv-x="677" 
d="M485 1114v-938q0 -54 13 -76t49 -28q28 -5 41 -8.5t24 -12.5t11 -24q0 -22 -15.5 -28.5t-44.5 -6.5q-12 0 -75 4t-144 4q-82 0 -148 -4t-81 -4q-19 0 -29 1t-20.5 10t-10.5 26q0 12 10 20.5t19.5 11t35.5 8.5q9 2 13 3q38 6 47.5 24t9.5 76v942q0 54 -10.5 71.5
t-42.5 22.5q-62 10 -71 17q-11 8 -11 26q0 37 62 37q25 0 95.5 -4t129.5 -4q61 0 130.5 4t92.5 4q58 0 58 -39q0 -19 -13.5 -25.5t-55.5 -13.5q-7 -1 -11 -2q-33 -5 -45.5 -25t-12.5 -69z" />
    <glyph glyph-name="J" unicode="J" horiz-adv-x="634" 
d="M479 1077v-801q0 -152 -29 -251t-116 -218q-73 -100 -170 -165.5t-195 -65.5q-84 0 -131 47t-47 123q0 60 38 98.5t95 38.5q50 0 79.5 -28t37.5 -76q2 -10 2.5 -30.5t1.5 -32t9 -21.5t24 -10q34 0 60 43.5t34 103.5q10 72 10 297v973q0 65 -14 83t-64 23q-43 3 -61 11
t-18 28q0 41 71 41q29 0 111 -4t135 -4q51 0 123 4t98 4q58 0 58 -41q0 -20 -15.5 -27t-52.5 -12q-50 -9 -62 -32t-12 -99z" />
    <glyph glyph-name="K" unicode="K" horiz-adv-x="1140" 
d="M166 178v928q0 58 -9 78t-38 24q-57 11 -66.5 19t-9.5 24q0 21 11.5 29t41.5 8q20 0 87.5 -4t131.5 -4q54 0 121 4t90 4q47 0 47 -37q0 -20 -11.5 -28t-43.5 -15q-31 -6 -44 -24t-13 -51v-388q0 -33 2 -43t8 -10q9 0 41 43q18 25 64.5 87t86.5 118t70 102q49 76 49 117
q0 29 -14.5 40.5t-44.5 14.5q-18 4 -26.5 6.5t-15.5 10t-7 20.5q0 37 51 37q26 0 79.5 -4t82.5 -4q36 0 91.5 4t74.5 4q49 0 49 -39q0 -16 -13 -21.5t-49 -10.5q-72 -15 -133 -76q-90 -90 -153 -185q-29 -50 -29 -67q0 -10 20 -51q211 -470 263 -578q48 -100 74 -138t57 -50
q2 -1 8.5 -3t9 -2.5t7.5 -2.5t7 -3t6 -3.5t5.5 -4.5t4 -4.5t3 -5.5t1.5 -7t1 -9q0 -35 -45 -35q-25 0 -93 4t-104 4q-43 0 -106.5 -4t-83.5 -4q-46 0 -49 33q-2 19 20 34q25 17 23 41q-10 42 -52 127q-111 245 -161 340q-23 51 -39 51q-12 0 -26.5 -19.5t-14.5 -41.5v-385
q0 -96 55 -104q3 -1 14 -3t13.5 -2.5t10 -3.5t10 -6.5t5 -9.5t2.5 -14q0 -16 -9.5 -25t-19.5 -10.5t-26 -1.5q-23 0 -87.5 4t-121.5 4q-61 0 -124 -4t-85 -4q-27 0 -41 6.5t-14 30.5q0 21 12.5 28t53.5 15q35 5 46 25t11 81z" />
    <glyph glyph-name="L" unicode="L" horiz-adv-x="921" 
d="M174 176v918q0 65 -11 87t-44 27q-34 6 -47.5 9.5t-23 11.5t-9.5 22q0 37 55 37q22 0 89 -4t136 -4q43 0 132.5 4t103.5 4q51 0 51 -31q0 -6 -1.5 -11t-3.5 -8.5t-7 -6t-8 -4.5t-10.5 -3.5t-11 -2t-12.5 -2t-13 -2.5q-45 -9 -57.5 -28t-12.5 -77v-922q0 -68 21 -92
t90 -24q39 0 71.5 14.5t53.5 34.5t41 55.5t31 62t26 70.5q16 53 25.5 69.5t29.5 16.5q21 0 28.5 -18t6.5 -74q0 -82 -4 -250q-3 -42 -9.5 -52.5t-25.5 -10.5q-65 0 -212 3.5t-236 4.5q-85 0 -184.5 -4t-129.5 -4q-59 0 -59 37q0 19 16 27.5t53 15.5q43 6 57.5 27t14.5 77z
" />
    <glyph glyph-name="M" unicode="M" horiz-adv-x="1470" 
d="M866 25v2q0 23 20.5 32.5t61.5 12.5q43 6 54.5 32t11.5 111q0 92 -19 741q0 41 -12 41q-6 0 -18 -32q-32 -82 -263 -815q-32 -105 -43 -123q-16 -25 -53 -25q-30 0 -42 24.5t-42 143.5q-91 348 -223 786q-10 41 -20 41q-9 0 -14 -35q0 -6 -1 -10q-24 -439 -24 -678v-40
t1 -35.5t2.5 -33.5t4 -27.5t6.5 -25t10 -18t14 -14t19 -6.5q69 -13 83 -25q11 -8 11 -22q0 -35 -47 -35q-19 0 -70 4t-84 4q-30 0 -80 -4t-65 -4q-19 0 -28 7.5t-9 27.5q0 9 3 15t6 10t11.5 7t13 4t17 3.5l17.5 3.5q38 6 53 33t18 92q4 88 15.5 287.5t19.5 357t8 239.5
q2 78 -9.5 100t-67.5 31q-22 4 -30.5 6.5t-18 10t-9.5 20.5q0 41 76 41q31 0 98.5 -4t98.5 -4q25 0 76.5 4t74.5 4q21 0 29.5 -7.5t15.5 -37.5q10 -37 73 -262t97 -344q14 -57 21.5 -79.5t17.5 -22.5q13 0 39 88q11 35 84 262t113 346q15 57 47 57q24 0 83 -4t87 -4
q30 0 95 4t93 4q58 0 58 -39q0 -21 -17 -29.5t-61 -13.5q-37 -4 -51.5 -28t-14.5 -78q1 -128 12.5 -456t12.5 -466q1 -55 13.5 -78t39.5 -28q71 -19 81 -28q9 -7 9 -21q0 -31 -70 -31q-31 0 -107 4t-126 4q-43 0 -118.5 -4t-104.5 -4q-64 0 -64 33z" />
    <glyph glyph-name="N" unicode="N" horiz-adv-x="1175" 
d="M160 168v962q0 43 -15 60t-49 20q-23 2 -34.5 5t-20 11t-8.5 23q0 25 18 32t49 7q23 0 80.5 -3t89.5 -3q29 0 84.5 3t69.5 3q5 0 9 -0.5t7.5 -2.5t6.5 -3t6.5 -5.5t5.5 -6.5t6 -8.5t5.5 -9.5t6.5 -12t8 -13q378 -667 414 -729q19 -32 27 -35q8 3 8 22v611q0 62 -14 85.5
t-48 26.5q-75 10 -75 43q0 18 11.5 27.5t27.5 9.5q8 0 55 -4t92 -4q29 0 70 4t55 4q43 0 43 -35q0 -16 -12.5 -25.5t-25 -13t-40.5 -8.5q-30 -3 -42.5 -25t-12.5 -67v-1106q0 -29 -12 -36t-66 -7q-49 0 -65 11.5t-41 56.5q-8 14 -25 42.5t-25 43.5q-22 39 -211.5 370.5
t-285.5 505.5q-21 41 -31 43q-12 -6 -12 -30v-777q0 -85 15 -120t52 -43q9 -2 29.5 -5.5t30 -6t18 -11t8.5 -22.5q0 -18 -11 -24.5t-34 -6.5q-7 0 -53 4t-94 4q-46 0 -92.5 -4t-57.5 -4q-35 0 -35 26q0 10 5.5 17.5t16 12.5t19.5 8t23 6.5t20 5.5q34 10 45 30.5t11 69.5z
" />
    <glyph glyph-name="O" unicode="O" horiz-adv-x="1251" 
d="M55 655v2q0 134 45.5 256t122 209.5t182 139t220.5 51.5q169 0 301 -98t200 -252.5t68 -333.5q0 -180 -74.5 -332t-205.5 -241t-289 -89q-121 0 -228 56t-181.5 150t-117.5 220t-43 262zM858 530v2q0 352 -71.5 527.5t-180.5 175.5q-94 0 -153.5 -122t-59.5 -368
q0 -179 20 -316t55 -218.5t79 -122.5t96 -41q93 0 154 123.5t61 359.5z" />
    <glyph glyph-name="P" unicode="P" horiz-adv-x="1105" 
d="M471 532v-358q0 -56 12.5 -78.5t48.5 -25.5q37 -5 52.5 -8t26 -11t10.5 -22q0 -22 -17 -29.5t-49 -7.5q-17 0 -85.5 4t-143.5 4q-70 0 -138 -4t-84 -4q-28 0 -40.5 6t-12.5 29q0 22 15 30.5t61 14.5q29 3 39 23.5t10 72.5v946q0 55 -13.5 75t-45.5 23q-25 3 -35 5
t-18.5 9.5t-8.5 22.5q0 39 39 39q21 0 112 -4t156 -4q42 0 140 4t151 4q189 0 297.5 -107t108.5 -280q0 -154 -102.5 -258t-254.5 -104q-75 0 -137 20q-38 12 -65 12q-18 0 -23.5 -8.5t-5.5 -30.5zM471 1135v-416q0 -39 18 -57q25 -25 76 -25q86 0 136.5 71.5t50.5 200.5
q0 142 -52.5 220.5t-146.5 78.5q-47 0 -64.5 -17t-17.5 -56z" />
    <glyph glyph-name="Q" unicode="Q" horiz-adv-x="1251" 
d="M55 657v2q0 136 46 257.5t123.5 208t183 137.5t221.5 51q125 0 233 -57t180 -152.5t113 -219.5t41 -257q0 -220 -109 -391.5t-282 -235.5q-13 -6 -41 -12q3 -8 12 -47q22 -123 88 -185.5t170 -62.5q36 0 89 18.5t61 18.5q28 0 28 -31q0 -34 -47 -60.5t-107.5 -38.5
t-117.5 -12q-82 0 -162 19t-150 56.5t-113.5 100.5t-43.5 142q0 34 16 80q-34 9 -77 28q-152 73 -253.5 250t-101.5 393zM643 45h2q90 0 151.5 116.5t61.5 364.5q0 190 -21 331.5t-58 221.5t-80.5 118t-94.5 38q-94 0 -152.5 -123.5t-58.5 -361.5q0 -357 70 -531t180 -174z
" />
    <glyph glyph-name="R" unicode="R" horiz-adv-x="1216" 
d="M475 549v-385q0 -45 15.5 -66.5t50.5 -29.5q27 -7 37.5 -10t21 -12t10.5 -23q0 -20 -15.5 -25.5t-51.5 -5.5q-15 0 -81 4t-132 4t-138 -4t-92 -4t-31.5 1.5t-21.5 9t-10 22.5q0 26 33 35q6 1 43 8q37 5 52 26t15 80v934q0 57 -13.5 78t-49.5 26q-4 1 -12 2l-12 1.5t-11 2
t-10.5 3t-8.5 3.5t-7.5 4t-5.5 5t-4 7t-1 9q0 24 15 31.5t51 7.5q37 0 115.5 -4t138.5 -4q51 0 146.5 4t156.5 4q187 0 304.5 -92t117.5 -250q0 -175 -140 -262q-20 -12 -39.5 -20.5t-42.5 -16t-30 -10.5q37 -12 67 -76q28 -62 71.5 -164t61.5 -141q24 -57 39 -87t38 -60
t48 -39q3 -1 11 -3t11.5 -3.5t10.5 -3.5t10.5 -4t9 -4.5t8.5 -5.5t6 -6.5t4 -7.5t1 -9q0 -31 -53 -31q-18 0 -69 3t-83 3q-31 0 -83.5 -3t-69.5 -3q-23 0 -41.5 18.5t-28.5 39t-31 71.5q-2 5 -3.5 8t-3 7.5t-3.5 8.5q-23 57 -73.5 184.5t-78.5 196.5q-18 36 -36 47t-56 11
q-30 0 -38.5 -6t-8.5 -29zM475 1128v-411q0 -37 10.5 -46t57.5 -9q102 0 170.5 75.5t68.5 194.5q0 136 -56 206t-159 70q-58 0 -75 -16t-17 -64z" />
    <glyph glyph-name="S" unicode="S" horiz-adv-x="978" 
d="M911 391v-2q0 -130 -67 -227t-177.5 -145t-248.5 -48q-81 0 -180 18.5t-134 55.5q-28 35 -28 170q0 137 8 174q8 39 39 39q21 0 33.5 -15.5t23.5 -43.5q48 -141 68 -181q61 -127 160 -138q11 -1 22 -1q83 0 137 58.5t54 140.5q0 50 -16.5 93t-50.5 80t-68 64t-87 62
q-17 10 -46.5 31t-37.5 26q-50 36 -84.5 68t-68 76t-51 98t-17.5 117q0 85 40.5 154.5t105 111.5t139 64t149.5 22q157 0 269 -45q23 -8 29.5 -19t7.5 -49q2 -31 2 -143v-36.5t-1.5 -28t-4 -22.5t-7.5 -13.5t-13 -10t-19 -2.5q-7 0 -12.5 2t-10.5 7t-8.5 9t-8 13t-6.5 14.5
t-7 18t-7 18.5q-32 100 -76.5 154.5t-119.5 54.5q-63 0 -106.5 -41.5t-43.5 -110.5q0 -23 4.5 -44.5t10.5 -39t19.5 -36.5t23 -32t30 -31t32.5 -28.5t38.5 -28.5t39 -26t43 -27.5t42.5 -27.5q42 -29 71 -51t64.5 -58t56.5 -71.5t36 -85t15 -105.5z" />
    <glyph glyph-name="T" unicode="T" horiz-adv-x="1038" 
d="M371 199v960q0 24 -10 32.5t-42 8.5q-37 0 -65.5 -13t-50 -40.5t-35 -51t-31.5 -63.5q-4 -8 -11.5 -25t-11.5 -24.5t-10.5 -20t-11 -18t-11 -12.5t-13 -9.5t-13.5 -2.5q-37 0 -37 51q0 6 3 26.5t4 34.5q23 152 43 250q8 45 18 64.5t29 19.5q4 0 8 -0.5t7 -1.5t6 -3
l4.5 -3t4 -4.5t4 -4.5t3.5 -5.5t3 -6t3.5 -7t3.5 -7.5q5 -13 10.5 -20.5t20.5 -15t38 -7.5h557q66 0 94.5 8t45.5 31q2 2 7 9.5l7 10.5t6.5 9t8 8.5t8 5.5t9.5 4.5t11 1.5q18 0 24.5 -15.5t8.5 -45.5q2 -18 2 -64q0 -132 -6 -237q-3 -50 -14 -71.5t-33 -21.5q-7 0 -13.5 3
t-11.5 11.5t-9 15t-8 21t-6.5 22.5t-7 26.5t-6.5 25.5q-23 81 -47.5 116.5t-77.5 39.5q-34 6 -65 6q-29 0 -38 -7t-9 -28v-991q0 -53 14 -76t47 -26q44 -7 62 -15t18 -28q0 -16 -10 -25t-21 -10.5t-28 -1.5t-85 4t-141 4q-86 0 -164 -4t-88 -4q-49 0 -49 35q0 22 14 31
t52 14q52 6 67 32.5t15 94.5z" />
    <glyph glyph-name="U" unicode="U" horiz-adv-x="1165" 
d="M446 1102v-783q0 -126 46 -192q61 -80 184 -80q153 0 217 100q45 67 45 195v735q0 74 -19 101t-65 32q-23 3 -32.5 4.5t-20 10.5t-10.5 24q0 39 45 39q15 0 59.5 -4t75.5 -4q34 0 81.5 4t59.5 4q39 0 39 -37q0 -6 -1.5 -11.5t-5.5 -9.5t-7.5 -6.5t-11 -5.5t-11.5 -4
t-14.5 -4t-14.5 -4q-40 -9 -50.5 -30.5t-10.5 -90.5v-718q0 -197 -92 -289q-103 -111 -336 -111q-198 0 -311 78q-135 85 -135 274v795q0 55 -12.5 74t-47.5 24q-47 8 -56 17q-9 8 -9 22q0 37 55 37q33 0 109 -4t120 -4q49 0 123 4t100 4q19 0 30.5 -1.5t21.5 -10.5t10 -25
q0 -20 -17 -28t-59 -15q-43 -5 -57.5 -25t-14.5 -81z" />
    <glyph glyph-name="V" unicode="V" horiz-adv-x="1015" 
d="M530 1249v-2q0 -9 -3.5 -15t-12 -9.5t-15.5 -5t-23 -4.5t-25 -5q-41 -12 -41 -55q0 -16 20 -94l139 -490q26 -98 36 -126.5t20 -28.5q9 0 22 37.5t45 158.5l121 418q25 84 25 129q0 25 -13.5 36.5t-40.5 14.5q-36 7 -50.5 14.5t-14.5 26.5q0 39 49 39q12 0 52 -4t69 -4
q18 0 54 4t52 4q24 0 35.5 -9t11.5 -32q0 -13 -7.5 -21t-16 -11.5t-27.5 -8.5q-11 -3 -20.5 -9t-17.5 -17.5t-13.5 -22t-12.5 -29.5t-11 -32t-11.5 -36.5t-11.5 -37.5q-116 -384 -285 -959q-15 -49 -31 -63t-69 -14q-56 0 -74.5 14t-30.5 66q-39 148 -299 1062
q-23 74 -63 84q-61 13 -61 41q0 35 51 35q31 0 107.5 -4t119.5 -4q44 0 121 4t104 4q47 0 47 -39z" />
    <glyph glyph-name="W" unicode="W" horiz-adv-x="1546" 
d="M805 498l-178 -473q-6 -17 -11 -25t-18 -14t-37 -6q-34 0 -46 10.5t-21 36.5l-396 1095q-24 81 -86 92q-41 8 -49 17q-6 7 -6 20q0 18 15 27.5t34 9.5q35 0 107 -4t108 -4q32 0 95.5 4t93.5 4q47 0 47 -35q0 -29 -31 -36q-35 -8 -35 -43q0 -29 31 -113l201 -555
q36 -107 47 -107t32 54l46 104q16 40 16 57q0 16 -31 101l-149 426q-19 57 -56 73q-28 10 -28 31q0 43 61 43q43 0 126.5 -4t127.5 -4q52 0 153.5 4t145.5 4q41 0 56.5 -8t15.5 -27q0 -29 -39 -36q-20 -4 -35.5 -19t-22 -28t-18.5 -42l-70 -163q-32 -74 -32 -80q0 -8 16 -56
l115 -301q32 -98 41 -98q13 0 39 94l161 531q23 79 23 119q0 38 -45 45q-47 10 -47 34q0 37 43 37q17 0 53 -4t55 -4q20 0 54.5 4t50.5 4q19 0 32 -9t13 -24q0 -12 -7 -19t-12.5 -9t-25.5 -8q-50 -12 -72 -82l-356 -1114q-7 -24 -19.5 -34.5t-46.5 -10.5q-22 0 -35 6
t-17.5 13t-10.5 24l-162 475h-4zM852 1180q0 -28 43 -146q21 -57 29 -57q6 0 30 61q37 113 37 140q0 20 -14 26t-55 6q-39 0 -54.5 -6.5t-15.5 -23.5z" />
    <glyph glyph-name="X" unicode="X" horiz-adv-x="1069" 
d="M541 29v2q0 26 43 37q63 15 63 49q0 15 -72 184q-68 144 -89.5 183.5t-32.5 39.5q-19 0 -107 -198q-5 -12 -14.5 -33.5t-13 -30t-10.5 -24.5t-9.5 -23t-7 -19t-6 -18t-3.5 -14.5t-2.5 -15t-0.5 -13.5q0 -34 15 -48t44 -21q18 -3 27 -5.5t17.5 -11.5t8.5 -24
q0 -17 -15.5 -25t-33.5 -8q-12 0 -72 4t-90 4q-32 0 -84.5 -4t-64.5 -4q-51 0 -51 33q0 21 14.5 30.5t56.5 18.5q55 12 89.5 49t90.5 147q134 281 138 289q28 62 28 74q0 9 -28 67q-89 173 -205 394q-39 73 -62 94t-59 26q-19 2 -28 5t-16 11t-7 23t12.5 25t32.5 10
q27 0 101 -4t130 -4q71 0 150 4t86 4q17 0 30 -8.5t13 -28.5q0 -13 -7.5 -21t-16 -11t-25.5 -7q-43 -10 -43 -36q0 -22 63 -156q56 -122 77 -160.5t32 -38.5q9 0 26.5 32t61.5 128q63 134 63 176q0 28 -13 40t-38 15q-28 5 -40.5 12.5t-12.5 24.5q0 39 43 39q16 0 70 -4
t96 -4q26 0 73 4t64 4q19 0 33 -10t14 -29q0 -6 -1.5 -11t-6 -8.5t-8.5 -6t-12 -4.5t-13.5 -3.5t-17 -4t-17.5 -3.5q-52 -13 -88.5 -55.5t-93.5 -146.5q-26 -54 -61.5 -125.5t-45.5 -94.5q-22 -50 -22 -63t33 -80q126 -250 211 -420q48 -89 73.5 -116t59.5 -35
q16 -5 23.5 -8.5t14.5 -12.5t7 -24q0 -35 -51 -35q-23 0 -97.5 4t-126.5 4q-53 0 -125.5 -4t-99.5 -4q-32 0 -46.5 8t-14.5 29z" />
    <glyph glyph-name="Y" unicode="Y" horiz-adv-x="1024" 
d="M367 174v350q0 43 -29 97q-185 415 -223 497q-24 48 -46 65.5t-55 24.5q-4 1 -13 3t-12 3t-9.5 3.5t-9 4.5t-6 5.5t-4.5 7.5t-1 10q0 21 15 32t38 11q36 0 102 -4t119 -4q67 0 151 4t101 4q43 0 43 -35q0 -14 -9 -23t-17.5 -11.5t-28.5 -6.5q-20 -5 -29.5 -8.5t-17.5 -13
t-8 -25.5q0 -5 1 -11.5t4.5 -17t7.5 -20.5t12 -29.5t14.5 -36t20 -48.5t24.5 -58q39 -97 64 -150.5t36 -69t19 -15.5q13 0 30.5 33t77.5 165q94 210 94 246q0 28 -16 39t-53 18q-41 9 -49 20q-5 7 -5 17q0 41 58 41q23 0 68.5 -4t70.5 -4q30 0 71 4t56 4q41 0 41 -37
q0 -5 -0.5 -9t-1.5 -7.5t-3.5 -6t-3.5 -4.5t-5 -4t-5.5 -3t-7 -2.5t-7.5 -2t-8.5 -2t-8.5 -2.5q-67 -16 -111 -110q-103 -229 -205 -434q-24 -53 -31.5 -77.5t-7.5 -51.5v-375q0 -48 16 -68.5t52 -25.5q4 -1 16 -2.5t16.5 -2.5t13 -4t12.5 -6.5t7 -9.5t3 -14q0 -21 -13 -28
t-43 -7q-20 0 -90 4t-125 4q-62 0 -144 -4t-104 -4q-51 0 -51 33q0 19 16 29.5t60 17.5q39 5 52.5 24t13.5 78z" />
    <glyph glyph-name="Z" unicode="Z" horiz-adv-x="946" 
d="M434 80h2q106 0 180 12q88 19 128 75t65 159q17 63 29 82.5t32 19.5q26 0 34.5 -20t8.5 -86q0 -193 -4 -261q-3 -45 -12 -57t-33 -12q-10 0 -133 4t-278 4q-135 0 -264 -4t-142 -4t-21 8.5t-8 19.5q0 17 37 105l447 962q35 78 35 95q0 22 -62 22q-86 0 -137 -10
q-56 -13 -90 -46t-62 -89q-8 -19 -20 -53.5t-19 -53.5t-21 -35t-32 -16t-28.5 17t-10.5 45q0 11 1 24t2.5 29.5t2.5 25.5q3 28 12.5 127t14.5 131q3 27 14 41.5t27 14.5q13 0 22 -6t12.5 -11t10.5 -18q10 -19 26 -28t50 -9q49 0 154.5 -2t162.5 -2q48 0 142 2t141 2
q39 0 39 -24q0 -14 -43 -107q-64 -138 -436 -965q-35 -80 -35 -88q0 -12 12.5 -16t46.5 -4z" />
    <glyph glyph-name="bracketleft" unicode="[" horiz-adv-x="741" 
d="M190 -252v1653q0 28 10.5 37.5t37.5 9.5q31 0 95 -2t97 -2q32 0 96 2t95 2q33 0 46 -9.5t13 -35.5q0 -27 -13.5 -36t-45.5 -9q-28 0 -81 1t-79 1q-25 -2 -34 -11.5t-9 -35.5v-1477q0 -26 9.5 -35.5t33.5 -11.5q26 0 79 1t81 1q32 0 45.5 -9t13.5 -36q0 -26 -13 -35.5
t-46 -9.5q-31 0 -95 2t-96 2q-33 0 -97 -2t-95 -2q-27 0 -37.5 9.5t-10.5 37.5z" />
    <glyph glyph-name="backslash" unicode="\" horiz-adv-x="643" 
d="M760 -299h-105q-21 0 -30 4.5t-15 20.5l-678 1658q-20 45 -20 54q0 10 25 10h112q27 0 39 -27l676 -1654q3 -9 8.5 -22.5t8.5 -21.5t3 -12q0 -10 -24 -10z" />
    <glyph glyph-name="bracketright" unicode="]" horiz-adv-x="741" 
d="M551 1401v-1653q0 -28 -10 -37.5t-37 -9.5q-32 0 -97 2t-96 2t-96 -2t-96 -2q-32 0 -45 9.5t-13 35.5q0 27 13 36t47 9q27 0 80 -1t80 -1q24 2 33.5 11.5t9.5 35.5v1477q0 26 -9.5 35.5t-33.5 11.5q-27 0 -80 -1t-80 -1q-34 0 -47 9t-13 36q0 26 13 35.5t45 9.5
q31 0 96 -2t96 -2t96 2t97 2q27 0 37 -9.5t10 -37.5z" />
    <glyph glyph-name="asciicircum" unicode="^" horiz-adv-x="1222" 
d="M532 1280h160l424 -819h-182l-324 631l-321 -631h-183z" />
    <glyph glyph-name="underscore" unicode="_" horiz-adv-x="1024" 
d="M0 -256v102h1024v-102h-1024z" />
    <glyph glyph-name="grave" unicode="`" horiz-adv-x="587" 
d="M453 1081v-2q0 -20 -23 -20q-20 0 -90 41l-268 151q-88 50 -88 109q0 33 24.5 56.5t57.5 23.5q38 0 69 -20.5t70 -63.5l213 -221q35 -41 35 -54z" />
    <glyph glyph-name="a" unicode="a" horiz-adv-x="962" 
d="M547 637v133q0 109 -72 109q-48 0 -79 -37.5t-56 -106.5q-36 -97 -115 -139q-39 -25 -84 -25q-78 0 -78 74q0 50 33.5 104t92 99.5t147.5 74.5t190 29q154 0 222 -45q38 -24 52.5 -60t14.5 -95v-539q0 -72 49 -72q37 0 56 27q2 3 8 13t10.5 14t9.5 4q19 0 19 -39
q0 -57 -67.5 -122t-156.5 -65q-17 0 -32.5 3.5t-27 7t-23.5 12.5t-18.5 13.5t-16.5 17.5t-12.5 16.5t-12 18.5t-10.5 16q-18 28 -29 28q-6 0 -19.5 -9.5t-38 -28t-44.5 -31.5q-99 -68 -199 -68q-86 0 -140 54t-54 145q0 86 59 156t201 145q40 23 143 76q46 23 62 40.5
t16 51.5zM334 219v-2q0 -51 22.5 -77.5t63.5 -26.5q53 0 96 49q31 36 31 88v215q0 29 -15 29q-11 0 -36 -19q-44 -27 -95 -88q-67 -81 -67 -168z" />
    <glyph glyph-name="b" unicode="b" horiz-adv-x="991" 
d="M379 1376v-481q0 -27 16 -27q11 0 56 27q3 2 20.5 11t23 11.5t21 9.5t24 9.5t22.5 6.5t27 5.5t27 1.5q137 0 231.5 -128.5t94.5 -319.5q0 -235 -124.5 -384t-309.5 -149q-81 0 -191 56q-58 30 -79 30q-29 0 -56 -49q-2 -3 -6 -11l-5.5 -11t-5 -9.5t-5.5 -9t-6 -6.5
t-7 -5.5t-7 -3t-9 -1.5q-37 0 -37 41q0 7 7 37t8 51q0 13 1 55.5t1 77.5v952q0 52 -11.5 69t-46.5 23q-37 9 -48 16t-11 21q0 7 1.5 12t6 9t9 6.5t14.5 5.5t18 5t25 6t30 7q139 37 201 60q55 24 63 24q11 0 14 -11.5t3 -39.5zM653 428v2q0 196 -53 289.5t-139 93.5
q-49 0 -72 -33q-10 -17 -10 -43v-526q0 -81 22.5 -119.5t75.5 -38.5q83 0 129.5 101t46.5 274z" />
    <glyph glyph-name="c" unicode="c" horiz-adv-x="833" 
d="M43 428v2q0 226 138 373t337 147q53 0 111 -12t94 -35q30 -19 38 -35t11 -53q2 -25 2 -78q0 -48 -6 -75q-4 -30 -17 -42t-38 -12q-12 0 -23 6t-18 14t-15.5 24.5t-14 29.5t-15 37t-15.5 39q-24 56 -46 81t-58 25q-71 0 -124.5 -100t-53.5 -252q0 -197 66 -297t163 -100
q87 0 146 88q36 59 49 67q5 4 10 4q29 0 29 -34q0 -37 -20.5 -81.5t-59 -88t-105.5 -72.5t-149 -29q-185 0 -300.5 127t-115.5 332z" />
    <glyph glyph-name="d" unicode="d" horiz-adv-x="995" 
d="M866 1374v-1192q0 -31 5 -44t18 -13q16 0 30.5 18t27 36t22.5 18q20 0 20 -45q0 -75 -41 -95q-10 -4 -61 -19t-66 -20q-139 -47 -162 -47q-24 0 -28 54q-1 5 -2 12.5t-1.5 11.5t-1.5 10t-1.5 9.5t-2 7.5t-2.5 6t-2.5 4t-3.5 3t-4 1q-3 0 -9 -3t-14 -9.5t-15.5 -13
t-19.5 -16.5t-20 -17q-81 -62 -159 -62q-150 0 -241 132.5t-91 342.5q0 142 52.5 259.5t136 182t176.5 64.5q78 0 143 -37q36 -16 37 -16q12 0 12 23v258q0 42 -12 57.5t-45 21.5q-36 8 -47 14.5t-11 22.5q0 19 13.5 26t56.5 15q111 24 225 66q67 24 72 24q16 0 16 -51z
M328 483v-2q0 -172 43.5 -265t124.5 -93q46 0 73 24q29 26 29 70v488q0 61 -27 102q-30 41 -82 41q-64 0 -112.5 -88t-48.5 -277z" />
    <glyph glyph-name="e" unicode="e" horiz-adv-x="868" 
d="M741 504h-352q-34 0 -46.5 -13.5t-12.5 -44.5q0 -83 26 -157.5t79.5 -125t123.5 -50.5q109 0 174 104q3 4 7.5 12.5t6.5 12t6 10t6.5 9t5.5 6t6.5 4.5t6.5 1q31 0 31 -41q0 -43 -45 -110q-42 -67 -118.5 -109.5t-182.5 -42.5q-126 0 -223 64.5t-147 171t-50 235.5
q0 236 120.5 373t311.5 137q156 0 250 -92.5t94 -245.5q0 -73 -13 -90.5t-65 -17.5zM334 637v-2q0 -30 11 -42.5t44 -12.5q49 0 92 16q78 23 99 66q18 24 18 71q0 61 -28 100t-78 39q-47 0 -84.5 -39t-55.5 -92t-18 -104z" />
    <glyph glyph-name="f" unicode="f" horiz-adv-x="624" 
d="M416 764v-588q0 -59 17 -82t77 -33q18 -2 28 -5t18.5 -11t8.5 -22q0 -31 -53 -31q-27 0 -106.5 4t-126.5 4q-48 0 -113 -4t-84 -4q-57 0 -57 31q0 19 11 27t38 11q46 7 59.5 29.5t13.5 87.5v600q0 27 -12 35t-39 10q-20 1 -31.5 3.5t-20.5 10.5t-9 23q0 22 15.5 34.5
t45.5 23.5q54 24 56 79q12 215 120 332q113 119 275 119q213 0 213 -125q0 -43 -27 -129q-8 -32 -27.5 -53t-48.5 -21q-52 0 -88 107q-4 10 -11 29.5t-10.5 28.5t-10 24t-11.5 22.5t-11.5 15.5t-14 11.5t-15.5 3.5q-40 0 -57.5 -60t-17.5 -192q-2 -58 2 -129q3 -39 13 -50
t38 -11h125q19 0 24.5 -8t5.5 -38q0 -33 -5 -41t-27 -8h-107q-38 0 -50.5 -13.5t-12.5 -47.5z" />
    <glyph glyph-name="g" unicode="g" horiz-adv-x="925" 
d="M88 612v2q0 143 100.5 239.5t264.5 96.5q105 0 202 -53q2 -1 11.5 -6t13 -6.5t12 -5t14 -5t13.5 -3.5t16 -2.5t17 -0.5q43 2 118 2q34 0 46 -11t14 -42q0 -33 -6.5 -42t-34.5 -9q-43 0 -68 2q-35 0 -35 -12q0 -4 2 -9.5t5.5 -16t5.5 -17.5q12 -53 12 -111
q0 -123 -83 -213.5t-220 -99.5q-110 -17 -157.5 -40.5t-47.5 -58.5q0 -56 103 -59q27 -1 89 -1t89 -1q169 -6 251.5 -65.5t82.5 -186.5q0 -83 -43.5 -150.5t-114.5 -108.5t-156 -63t-174 -22q-69 0 -135.5 13t-125.5 39t-95.5 72.5t-36.5 106.5q0 89 108 136q11 4 26 9.5
t24.5 9l19 7t14 7.5t4.5 8q0 11 -83 90q-84 84 -84 106q0 23 24 42t80 44q98 48 113 63q6 6 6 11q0 6 -9.5 12.5t-28.5 18.5t-34 24q-129 88 -129 260zM459 352h2q51 0 78.5 60t27.5 172q0 130 -33.5 214.5t-91.5 84.5q-53 0 -81.5 -61t-28.5 -175q0 -128 33.5 -211.5
t93.5 -83.5zM446 -383h3q100 0 163 47q62 45 62 123q0 67 -52.5 95t-158.5 28q-122 0 -152 -12q-28 -15 -44.5 -47.5t-16.5 -69.5q0 -74 55.5 -119t140.5 -45z" />
    <glyph glyph-name="h" unicode="h" horiz-adv-x="1095" 
d="M137 174v987q0 52 -11 69t-48 25q-36 8 -47 14.5t-11 22.5q0 6 1 10t3.5 7.5t5 6t8 4.5l11 4t14.5 4t17 3.5t21.5 4t25.5 5.5q102 29 192 62q57 24 68 24q13 0 17 -12t4 -39v-547q0 -24 14 -24q17 0 31 14q7 6 30.5 25.5t35.5 28.5t36.5 25t44.5 23.5t48.5 14t58.5 6.5
q121 0 186.5 -75.5t67.5 -200.5v-525q0 -40 17.5 -60t51.5 -28q35 -9 35 -28q0 -33 -33 -33q-1 0 -64 4t-128 4q-60 0 -122 -4t-67 -4q-43 0 -43 35q0 17 25 24q30 10 44.5 25t14.5 47v495q0 76 -22 113q-29 57 -105 57q-67 0 -114 -47q-43 -40 -43 -102v-510
q0 -32 15.5 -48.5t49.5 -29.5q25 -8 25 -26q0 -33 -39 -33q-1 0 -56.5 4t-130.5 4q-71 0 -133 -4t-69 -4q-43 0 -43 33q0 32 45 36q41 6 53 28.5t12 84.5z" />
    <glyph glyph-name="i" unicode="i" horiz-adv-x="550" 
d="M283 1057h-2q-59 0 -102.5 44.5t-43.5 112.5q0 65 42 110.5t108 45.5q61 0 104 -44.5t43 -111.5q0 -68 -43.5 -112.5t-105.5 -44.5zM143 172v500q0 55 -12 72.5t-51 25.5q-30 6 -40.5 13t-10.5 22q0 19 14.5 27t60.5 20q70 14 238 82q48 20 53 20q19 0 19 -45v-104v-635
q0 -58 10.5 -77.5t54.5 -31.5q21 -5 29 -7.5t14 -10t6 -20.5q0 -31 -41 -31q-29 0 -97 4t-107 4q-51 0 -120.5 -4t-94.5 -4q-18 0 -29.5 8t-11.5 23q0 19 9 26t34 12q50 10 61.5 28.5t11.5 82.5z" />
    <glyph glyph-name="j" unicode="j" horiz-adv-x="538" 
d="M285 1057h-2q-59 0 -102.5 44.5t-43.5 112.5q0 65 42 110.5t108 45.5q61 0 104 -44.5t43 -111.5q0 -68 -43.5 -112.5t-105.5 -44.5zM414 905v-860q0 -109 -34.5 -196t-107.5 -168q-64 -71 -131 -115.5t-102 -44.5q-29 0 -29 33q0 4 1.5 8.5t4.5 9.5t6.5 9.5t9.5 11.5
t10.5 11.5t13 13.5t14.5 15q36 40 55.5 94t19.5 144v821q0 44 -10.5 60t-44.5 24q-35 6 -46 12.5t-11 22.5q0 19 12.5 26t54.5 15q109 25 228 74q60 28 69 28q11 0 14 -10t3 -39z" />
    <glyph glyph-name="k" unicode="k" horiz-adv-x="1003" 
d="M139 156v1009q0 49 -12 65.5t-47 24.5q-36 8 -46.5 14.5t-10.5 22.5q0 17 11 24t42 13q137 32 256 78q48 20 57 20q12 0 15.5 -10.5t3.5 -40.5v-817q0 -51 10 -51q14 0 45 39q11 14 67.5 80t83.5 102q37 49 37 76t-15.5 38.5t-49.5 16.5q-24 4 -36.5 11.5t-12.5 27.5
q0 19 12.5 24t46.5 5q18 0 71 -4t81 -4q42 0 95 4t70 4q48 0 48 -29q0 -18 -13 -26t-43 -13q-43 -7 -108 -51q-74 -53 -105 -84q-28 -28 -28 -51q0 -19 20 -66q89 -167 215 -444q29 -53 49.5 -74.5t42.5 -28.5q27 -7 39 -15.5t12 -25.5q0 -28 -43 -28q-27 0 -86 4t-96 4
q-36 0 -91 -4t-75 -4q-28 0 -33 24q-2 16 15 33q13 13 10 33q-9 25 -33 74q-56 125 -123 243q-3 5 -6.5 11t-5.5 9.5t-4.5 8.5t-4 7.5t-3.5 5.5t-3.5 4.5l-3 3t-3 2t-2.5 0.5q-10 0 -26.5 -23.5t-16.5 -54.5v-236q0 -66 45 -78q16 -4 23 -6.5t14.5 -10t7.5 -19.5
q0 -31 -39 -31q-27 0 -94 4t-101 4q-37 0 -105.5 -4t-95.5 -4q-38 0 -38 33q0 29 53 36q40 7 50.5 26.5t10.5 68.5z" />
    <glyph glyph-name="l" unicode="l" horiz-adv-x="548" 
d="M141 168v993q0 53 -11 69.5t-48 24.5q-34 8 -44.5 14.5t-10.5 22.5q0 18 12 25.5t49 13.5q118 25 236 72q12 5 27.5 11.5t24 9.5t13.5 3q14 0 17.5 -14.5t3.5 -48.5v-1212q0 -44 14 -62.5t59 -28.5q15 -2 23.5 -5t16 -10.5t7.5 -20.5q0 -33 -47 -33q-3 0 -62 4t-142 4
t-144 -4t-63 -4q-52 0 -52 33q0 32 48 36q48 7 60.5 28t12.5 79z" />
    <glyph glyph-name="m" unicode="m" horiz-adv-x="1566" 
d="M135 168v504q0 53 -10.5 70.5t-44.5 23.5q-25 5 -33 7t-15 8.5t-7 17.5q0 22 25 32q12 4 81 21q141 41 195 80q46 22 51 22q18 0 18 -49v-78q0 -41 11 -41q7 0 20.5 11t37.5 33.5t40 35.5q95 76 178 76q45 0 81 -12.5t61 -36.5t36.5 -39t26.5 -41q13 -22 20 -22q4 0 7 2
t9 7.5t9 8.5q4 3 22 19.5t28.5 25t31 24.5t38 25t40.5 19.5t47.5 15t50.5 4.5q103 0 172 -63q72 -72 72 -195v-541q0 -39 13 -57t46 -27q24 -7 33.5 -13.5t9.5 -20.5q0 -33 -39 -33q-28 0 -94 4t-105 4q-34 0 -96.5 -4t-89.5 -4q-35 0 -35 28q0 20 29 31q35 10 50 30.5
t15 74.5v471q0 68 -31 108.5t-96 40.5q-55 0 -94 -33q-37 -34 -37 -88v-530q0 -34 11 -48t41 -20q30 -9 30 -32q0 -33 -47 -33q-14 0 -66.5 4t-97.5 4q-34 0 -88 -4t-73 -4q-48 0 -48 33q0 18 23 26q24 8 34 14.5t16.5 24.5t6.5 53v473q0 72 -18 109q-28 49 -92 49
q-63 0 -107 -47q-39 -42 -39 -109v-487q0 -33 13 -50t41 -28q3 -1 9 -4l8 -4t5.5 -3.5t4.5 -4.5t2 -5t1 -7q0 -33 -47 -33q-4 0 -54.5 4t-117.5 4q-76 0 -131.5 -4t-62.5 -4q-45 0 -45 33t43 36q44 9 55.5 30t11.5 77z" />
    <glyph glyph-name="n" unicode="n" horiz-adv-x="1091" 
d="M139 174v500q0 51 -11 68t-44 22q-35 6 -46 12.5t-11 22.5q0 7 1.5 11.5t6.5 8.5t9.5 6.5t15 5.5t19 5.5t25 6.5t29.5 7q139 40 199 80q9 4 19 9.5t15 8t10 4.5t9 2q18 0 18 -49v-78q3 -32 11 -32t20.5 8.5t36.5 30.5t37 32q97 76 192 76q115 0 189 -74q67 -70 67 -202
v-525q0 -24 4.5 -39.5t17 -24.5t22 -12.5t30.5 -9.5q20 -3 28.5 -9.5t8.5 -20.5q0 -18 -12.5 -25.5t-40.5 -7.5q-12 0 -82.5 4t-116.5 4q-47 0 -102 -4t-68 -4q-41 0 -41 35q0 13 25 24q30 12 44.5 28t14.5 48v500q0 63 -24 106q-30 53 -97 53t-114 -41q-45 -42 -45 -98
v-518q0 -32 12.5 -47.5t40.5 -26.5q21 -6 28 -11t7 -17q0 -35 -39 -35q-1 0 -59 4t-126 4q-76 0 -133 -4t-67 -4q-43 0 -43 33q0 32 43 36q43 6 55 28.5t12 84.5z" />
    <glyph glyph-name="o" unicode="o" horiz-adv-x="985" 
d="M492 -31h-3q-193 0 -316.5 141t-123.5 349q0 209 124 350t319 141q135 0 237.5 -67t154.5 -177.5t52 -244.5q0 -208 -123.5 -350t-320.5 -142zM504 43h2q38 0 67 31.5t45.5 85t24.5 116t8 132.5q0 134 -19 239t-58 168.5t-93 63.5q-48 0 -81.5 -50t-48.5 -130t-15 -185
q0 -205 45.5 -338t122.5 -133z" />
    <glyph glyph-name="p" unicode="p" horiz-adv-x="999" 
d="M395 -20v-267q0 -55 20 -76t64 -28q38 -8 49 -15t11 -26q0 -31 -66 -31q-29 0 -97.5 4t-107.5 4q-37 0 -111.5 -4t-103.5 -4q-53 0 -53 31q0 19 8.5 26.5t32.5 14.5q59 12 72.5 30t13.5 91v899q0 75 -9.5 96.5t-43.5 30.5q-41 10 -53.5 15.5t-12.5 16.5q0 18 15 28t59 20
q136 39 231 94q46 24 54 24q18 0 18 -30v-70q0 -20 2 -25.5t8 -5.5q5 0 14.5 7.5t26.5 23.5t29 25q82 69 162 69q139 0 233 -140t94 -345q0 -92 -25.5 -179.5t-71 -158t-115.5 -113.5t-152 -43q-39 0 -129 31q-46 16 -47 16q-11 0 -15 -8t-4 -28zM668 428v2q0 176 -46.5 266
t-119.5 90q-51 0 -80 -32q-27 -27 -27 -70v-504q0 -58 27 -88q29 -29 74 -29q79 0 125.5 90.5t46.5 274.5z" />
    <glyph glyph-name="q" unicode="q" horiz-adv-x="989" 
d="M608 -262v291q0 28 -12 28q-4 0 -11 -4t-13.5 -8.5t-18 -14t-18.5 -14.5q-69 -43 -150 -43q-102 0 -178.5 67t-114 175t-37.5 240q0 111 34 205.5t91 157t132.5 97.5t158.5 35q101 0 186 -37q10 -4 26.5 -11.5t25.5 -11t20.5 -8t19 -6.5t13.5 -2q15 0 26.5 7.5t17 15.5
t17.5 27q11 23 22.5 35t31.5 12q24 0 24 -27q0 -20 -10 -65q-14 -55 -14 -170v-1002q0 -54 14.5 -71t69.5 -27q27 -7 37 -14.5t10 -26.5q0 -31 -54 -31q-26 0 -96.5 4t-116.5 4t-115.5 -4t-95.5 -4q-34 0 -47.5 7.5t-13.5 25.5q0 32 53 39q58 7 72 29t14 100zM342 479v-2
q0 -168 48 -268t126 -100q61 0 78 36q14 27 14 127v437q0 99 -18 125q-20 28 -72 28q-71 0 -123.5 -98.5t-52.5 -284.5z" />
    <glyph glyph-name="r" unicode="r" horiz-adv-x="800" 
d="M150 160v504q0 48 -14.5 66.5t-49.5 23.5q-37 5 -43 14q-4 7 -4 16q0 18 13 26t57 21q123 33 215 89q46 34 59 34q23 0 23 -36q2 -35 2 -117q0 -33 8 -33q7 0 15 10.5t21.5 35t24.5 40.5q66 96 160 96q72 0 114 -51.5t42 -128.5q0 -74 -35 -121t-99 -47q-65 0 -96 72
q-23 50 -35 60q-10 7 -20 7q-38 0 -66 -55q-22 -48 -22 -108v-394q0 -67 14.5 -91t63.5 -30q50 -8 67 -16t17 -27q0 -17 -14 -22.5t-42 -5.5q-5 0 -78.5 4t-158.5 4q-72 0 -137 -4t-74 -4q-47 0 -47 33q0 12 8 19t18.5 9.5t38.5 7.5q33 6 43.5 24.5t10.5 74.5z" />
    <glyph glyph-name="s" unicode="s" horiz-adv-x="755" 
d="M55 664v2q0 135 106 209.5t279 74.5q140 0 205 -30q20 -6 23 -68q2 -18 2 -70v-49q-2 -27 -8.5 -40t-24.5 -13q-10 0 -17 4t-14.5 14.5t-12 19t-14.5 29.5t-16 33q-49 99 -123 99q-49 0 -80.5 -30t-31.5 -75q0 -31 11 -57t42 -52.5t47.5 -38t66.5 -41.5q12 -8 19 -12
q43 -26 71.5 -47.5t61 -55.5t48.5 -77.5t16 -95.5q0 -107 -59 -183t-150 -110.5t-201 -34.5q-113 0 -184 27q-38 15 -45 22q-19 16 -21 64q-2 33 -2 131q0 55 6.5 77.5t28.5 22.5q23 0 38 -23.5t42 -88.5q33 -72 70.5 -115t91.5 -43q58 0 91.5 34.5t33.5 94.5q0 30 -11.5 57
t-25.5 46.5t-44 44t-49.5 37.5t-58.5 38q-38 24 -60 40t-54 43.5t-49.5 52t-30.5 60t-13 73.5z" />
    <glyph glyph-name="t" unicode="t" horiz-adv-x="620" 
d="M406 772v-524q0 -65 18 -93t53 -28q44 0 74 43q4 5 12 14.5t12 14t10.5 8.5t12.5 4q25 0 25 -33q0 -20 -17.5 -52.5t-49.5 -68t-87.5 -61t-120.5 -25.5q-101 0 -158 60q-53 56 -53 174v579q0 35 -31 35q-14 2 -53 2q-35 3 -35 29q0 14 9.5 25t38.5 32q90 59 144.5 111
t119.5 156q28 55 49 55q14 0 20.5 -8t6.5 -29v-227q0 -24 8.5 -34.5t31.5 -10.5q18 0 63 1t64 1q24 0 30.5 -9t6.5 -36q0 -36 -7 -45t-36 -9q-17 0 -55 1t-57 1q-29 0 -39 -10.5t-10 -42.5z" />
    <glyph glyph-name="u" unicode="u" horiz-adv-x="1087" 
d="M401 864v-598q0 -137 127 -137q75 0 125 57q31 36 31 84v488q0 52 -10 72t-41 26q-28 3 -39.5 10.5t-11.5 28.5q0 33 55 33q16 0 61 -3t70 -3q22 0 69 3t74 3q21 0 31 -9.5t10 -35.5v-76v-588q0 -44 15.5 -64.5t48.5 -23.5q43 -3 43 -29q0 -4 -1 -7.5t-2 -6t-4 -5
t-5.5 -4t-7.5 -3.5l-10 -4t-13.5 -4.5t-16 -4.5t-20 -5.5t-23.5 -6.5q-204 -69 -217 -74q-27 -6 -34 -6q-17 0 -17 33v90q0 29 -14 29q-8 0 -31 -19q-2 -2 -21.5 -19.5t-27.5 -24t-29 -22t-37 -23t-39 -17.5t-47.5 -14t-50.5 -4q-116 0 -182 63q-76 67 -76 193v546
q0 37 -13.5 52t-47.5 20q-47 6 -47 39q0 35 36 35q27 0 81 -3t81 -3q20 0 75.5 3t70.5 3q18 0 25 -14t7 -50z" />
    <glyph glyph-name="v" unicode="v" horiz-adv-x="872" 
d="M477 893v-2q0 -22 -45 -33q-28 -7 -38.5 -18t-10.5 -31q0 -15 18 -80q10 -35 34 -116t38 -130q28 -102 39 -129.5t20 -27.5q12 0 24 28t46 135q67 203 72 220q20 78 20 102q0 22 -13 33t-36 16q-18 4 -25.5 6.5t-15.5 10t-8 20.5q0 31 41 31q18 0 54.5 -4t58.5 -4
q23 0 59 4t51 4t27 -7.5t12 -21.5q0 -18 -12.5 -27t-40.5 -18q-10 -3 -18.5 -9.5t-14 -13t-12.5 -21.5t-10.5 -24.5t-11.5 -32t-13 -34.5q-29 -78 -236 -670q-9 -26 -14.5 -35t-26 -16.5t-61.5 -7.5q-39 0 -60 8.5t-26.5 18.5t-13.5 34q-198 629 -211 670q-29 89 -43.5 112
t-59.5 31q-39 7 -39 29q0 35 54 35q19 0 89 -4t120 -4q44 0 106 4t80 4q32 0 42.5 -7t10.5 -28z" />
    <glyph glyph-name="w" unicode="w" horiz-adv-x="1318" 
d="M670 475l-140 -436q-7 -21 -14.5 -30t-30.5 -14t-71 -5q-52 0 -66 8.5t-22 36.5l-230 710q-23 64 -37 85.5t-41 25.5q-43 8 -43 39q0 33 48 33q69 0 213 -4t217 -4q71 0 216 4t216 4q29 0 41 -7t12 -26q0 -25 -37 -33q-39 -13 -39 -47q0 -29 17 -82l102 -366
q14 -58 27 -58q2 0 4 1t3.5 3.5t3 5.5t3.5 7.5t3 8t3 9.5t3 9.5t2.5 10t2.5 9.5l103 346q12 46 12 82q0 48 -51 59q-18 3 -27 5t-17.5 9t-8.5 19q0 35 38 35q17 0 54 -4t59 -4q24 0 59.5 4t49.5 4q34 0 34 -33q0 -5 -1 -8.5t-2 -6.5t-4.5 -5.5t-5 -4t-7 -4t-7 -3t-8 -2.5
t-8.5 -3q-45 -11 -65 -76l-227 -741q-10 -32 -25 -41.5t-70 -9.5q-61 0 -78.5 9t-25.5 36l-131 440h-6zM496 862h-62q-74 0 -74 -57q0 -28 17 -86l115 -352q18 -66 34 -66q17 0 35 64l62 200q12 37 12 64q0 28 -33 125q-8 25 -11 34.5t-10 26t-13 22t-16.5 13.5t-24 10
t-31.5 2z" />
    <glyph glyph-name="x" unicode="x" horiz-adv-x="921" 
d="M436 29v2q0 14 33 26q25 8 35 16.5t10 24.5q0 24 -55 125q-6 11 -16 30q-16 31 -23.5 44.5t-17 29.5t-15.5 21.5t-10 5.5q-16 0 -84 -121q-47 -89 -47 -124q0 -31 45 -48q41 -16 41 -34q0 -35 -53 -35q-14 0 -52.5 4t-68.5 4q-34 0 -73.5 -4t-51.5 -4q-47 0 -47 31
q0 13 8 20.5t15 9.5t30 8q38 6 67 30.5t62 76.5q119 181 147 233q13 29 13 43q0 15 -17 43q-17 31 -75.5 126t-94.5 157q-29 47 -50 66t-48 24q-51 11 -51 35q0 33 55 33q36 0 115.5 -4t124.5 -4q36 0 88 4t71 4q43 0 43 -31q0 -18 -7 -24t-27 -9q-31 -10 -31 -30
q0 -8 39 -97q71 -145 84 -145q17 0 82 127q43 77 43 102q0 32 -45 43q-21 3 -30 10t-9 25q0 13 9 21t21 8t58 -4t78 -4q24 0 61 4t49 4q41 0 41 -33q0 -13 -10.5 -21.5t-38.5 -15.5q-38 -7 -71 -39.5t-72 -97.5q-24 -42 -56 -96t-41 -70q-16 -36 -16 -39q0 -13 21 -53
q113 -200 149 -266q50 -85 70.5 -107.5t48.5 -28.5q25 -8 35 -15.5t10 -20.5q0 -33 -60 -33q-12 0 -81 4t-119 4q-49 0 -112 -4t-77 -4q-49 0 -49 37z" />
    <glyph glyph-name="y" unicode="y" horiz-adv-x="876" 
d="M119 -326v2q0 50 25 83t79 34q21 1 38 0.5t34.5 0t28.5 3.5q33 3 59 60q23 59 23 84q0 41 -41 147q-53 142 -261 674q-21 54 -37.5 73.5t-39.5 24.5q-21 3 -31 10.5t-10 24.5q0 33 49 33q22 0 94.5 -4t122.5 -4q51 0 108 4t68 4q41 0 41 -33q0 -8 -7 -14t-14 -8.5
t-22 -6.5q-41 -13 -41 -51q0 -23 33 -121q7 -21 27 -80.5t32.5 -97t28.5 -82.5t27 -67.5t16 -22.5q21 0 127 354q26 81 26 111q0 24 -14.5 35t-44.5 16q-1 0 -7.5 2.5t-8 3t-7 2.5t-7 4t-4.5 5t-4 7t-1 9q0 17 10.5 26t26.5 9q7 0 49.5 -4t75.5 -4q18 0 50 4t50 4
q39 0 39 -35q0 -5 -1.5 -9t-6.5 -7t-8.5 -4.5t-12 -5t-12.5 -5.5q-52 -15 -92 -127q-53 -147 -146.5 -405t-133.5 -369q-52 -153 -74 -258q-13 -54 -22.5 -80t-27 -47.5t-43 -28t-69.5 -6.5q-80 0 -108.5 31t-28.5 102z" />
    <glyph glyph-name="z" unicode="z" horiz-adv-x="796" 
d="M727 342h2q16 0 24.5 -15t8.5 -55q0 -162 -2 -211q-1 -45 -10.5 -56t-38.5 -11q-27 0 -141 3t-208 3q-64 0 -170.5 -3t-138.5 -3q-30 0 -30 26q0 15 24 58l354 692q6 12 12 23.5t9.5 17.5t5.5 11t2 9q0 17 -39 17q-46 0 -104 -4q-45 -5 -72.5 -23t-50.5 -59
q-11 -21 -22 -44t-15.5 -32t-10.5 -18.5t-11.5 -12t-14.5 -2.5q-17 0 -24 12t-7 40q0 79 31 225q12 63 41 63q3 0 6.5 -0.5t5.5 -1t4.5 -2.5t4 -2.5t3.5 -3.5t3 -4t3 -4t2.5 -4l2.5 -5t2 -5q7 -34 43 -37q98 -4 285 -4q26 0 110 2t111 2q37 0 37 -23q0 -19 -41 -100
l-324 -619q-37 -76 -37 -90q0 -21 47 -24q67 0 111 10q66 11 99.5 44t56.5 97q31 99 38 110q8 13 23 13z" />
    <glyph glyph-name="braceleft" unicode="{" horiz-adv-x="731" 
d="M231 -4v289q0 112 -22 172t-80 67q-53 10 -53 45q0 37 53 43q30 4 50.5 23.5t31.5 53t15.5 73t4.5 92.5v289q0 76 19 132.5t49 89t74.5 52t86.5 25.5t95 6q55 0 55 -41q0 -20 -10.5 -27.5t-32.5 -11.5q-112 -8 -112 -207v-293q0 -137 -32.5 -203t-131.5 -94v-4
q99 -28 131.5 -94t32.5 -203v-293q0 -197 112 -208q43 -3 43 -39q0 -39 -55 -39q-53 0 -95 6t-86.5 25.5t-74.5 52t-49 89t-19 132.5z" />
    <glyph glyph-name="bar" unicode="|" horiz-adv-x="557" 
d="M369 -512h-181v2048h181v-2048z" />
    <glyph glyph-name="braceright" unicode="}" horiz-adv-x="731" 
d="M453 1143v-289q0 -113 22 -173.5t80 -68.5q53 -6 53 -43q0 -35 -53 -45q-30 -4 -50.5 -22.5t-31.5 -51.5t-15.5 -72.5t-4.5 -92.5v-289q0 -76 -19 -132.5t-49 -89t-74.5 -52t-86.5 -25.5t-95 -6q-55 0 -55 41q0 20 10.5 27.5t32.5 11.5q112 8 112 206v293q0 137 32.5 203
t131.5 94v4q-99 28 -131.5 94t-32.5 203v293q0 198 -112 209q-43 3 -43 37q0 41 55 41q53 0 95 -6t86.5 -25.5t74.5 -52t49 -89t19 -132.5z" />
    <glyph glyph-name="asciitilde" unicode="~" horiz-adv-x="1222" 
d="M209 365l-92 122q54 85 117.5 133t156.5 48q39 0 84 -11.5t73 -23.5t79 -35q6 -3 30 -14t32 -14.5t29 -12.5t32 -12.5t27.5 -8t30 -6.5t26.5 -2q54 0 95 36t85 102l92 -121q-40 -57 -73 -93t-86.5 -64t-115.5 -28q-12 0 -24 1.5t-22 2.5t-23 5t-21 6t-22.5 8t-20.5 8.5
t-21.5 10t-20 9.5t-22 10.5t-20.5 10.5q-44 22 -71.5 34.5t-71 23.5t-84.5 10q-57 0 -99.5 -36.5t-78.5 -98.5z" />
    <glyph glyph-name="uni00A0" unicode="&#xa0;" horiz-adv-x="501" 
 />
    <glyph glyph-name="exclamdown" unicode="&#xa1;" horiz-adv-x="544" 
d="M264 961h2q59 0 98 -43.5t39 -104.5t-40 -105t-99 -44q-57 0 -98 44t-41 105q0 62 40.5 105t98.5 43zM264 569h2q26 0 35 -16t16 -61q6 -36 19 -112t20 -120q63 -398 67 -459q1 -11 1 -22q0 -160 -152 -160q-149 0 -149 154q0 25 4.5 67.5t11 89.5t20.5 149t27 202
q4 34 12 90.5t11 77.5q9 73 19.5 96.5t35.5 23.5z" />
    <glyph glyph-name="cent" unicode="&#xa2;" horiz-adv-x="1036" 
d="M565 272v-268q0 -24 -7.5 -30.5t-33.5 -6.5q-25 0 -32 6t-7 29v270q-142 12 -236.5 118t-94.5 251q0 157 91 266.5t240 132.5v236q0 25 7.5 32t31.5 7q26 0 33.5 -6.5t7.5 -30.5v-234q120 -5 170 -36q21 -7 21 -56v-110q-4 -54 -37 -54q-39 0 -74 80q-14 30 -22 45.5
t-24.5 36.5t-33.5 29v-588q12 -4 49 -4q40 1 70 19.5t43.5 40t27 39.5t23.5 18q21 0 21 -31q0 -18 -15 -47.5t-42.5 -61t-74.5 -58t-102 -34.5zM485 426v553q-55 -22 -85.5 -94t-30.5 -156q0 -95 30 -177t86 -126z" />
    <glyph glyph-name="sterling" unicode="&#xa3;" 
d="M291 600h-242q-20 0 -20 23q0 65 34 65h187q-84 148 -84 258q0 154 108.5 261.5t272.5 107.5q108 0 187 -34.5t79 -76.5q0 -90 -17 -155.5t-55 -65.5q-28 0 -46.5 26t-30 63t-25 74t-41.5 63t-70 26q-62 0 -94.5 -42t-32.5 -112q0 -37 10.5 -79t32.5 -89t38.5 -78
t46.5 -81.5t38 -65.5h217q23 0 23 -24q0 -25 -9 -44.5t-26 -19.5h-164q37 -80 37 -149q0 -53 -17.5 -102.5t-35 -78t-17.5 -30.5q0 -8 52 -33q2 -1 20 -11.5t21.5 -12.5t20 -11t22.5 -11.5t20 -9t22 -9t19.5 -6t21 -4.5t19.5 -1q46 0 79.5 21.5t33.5 70.5q0 23 -15 37
t-36.5 21.5t-43 17t-36.5 31t-15 55.5q0 53 30 87t79 34q62 0 94.5 -48.5t32.5 -117.5q0 -56 -19 -118.5t-54.5 -120t-95 -95t-130.5 -37.5q-49 0 -95 21t-72.5 46.5t-47 46.5t-25.5 21q-6 0 -29 -21.5t-53.5 -47t-89 -47t-127.5 -21.5q-115 0 -181.5 49t-66.5 131
q0 88 69.5 142.5t184.5 54.5q58 0 111 -14.5t80.5 -27t30.5 -11.5q11 5 -17 106q-19 84 -98 203zM129 152v-2q0 -45 33.5 -71t81.5 -26q54 0 110 40t56 73q0 22 -56 58t-112 36q-49 0 -81 -29t-32 -79z" />
    <glyph glyph-name="currency" unicode="&#xa4;" 
d="M61 96l-108 109l190 190q-75 97 -75 242q0 141 75 244l-190 188l108 109l189 -189q104 74 244 74q141 0 243 -74l189 189l108 -109l-188 -188q74 -105 74 -244q0 -137 -74 -242l188 -190l-108 -109l-189 191q-103 -76 -243 -76q-141 0 -244 76zM494 909h-2
q-109 0 -185 -81t-76 -191t76 -190t187 -80t186.5 80t75.5 190q0 111 -75.5 191.5t-186.5 80.5z" />
    <glyph glyph-name="yen" unicode="&#xa5;" 
d="M627 487v-331q0 -81 59 -90q4 -1 16 -3t16 -2.5t12.5 -3.5t12 -6.5t6.5 -9.5t3 -14q0 -21 -11.5 -28t-40.5 -7q-20 0 -81 4t-115 4q-59 0 -131 -4t-94 -4q-50 0 -50 33q0 19 16.5 29t57.5 18q34 6 45.5 24t11.5 74v317h-266q-16 0 -20 4.5t-4 20.5v41q0 16 4 20.5t20 4.5
h256q-7 22 -28 75.5t-23 57.5h-205q-17 0 -20.5 4t-3.5 22v39q0 16 4 20.5t20 4.5h166q-75 182 -135 323q-22 44 -41.5 61.5t-46.5 24.5q-3 1 -11.5 3t-11.5 3t-9 3.5t-8.5 4.5t-5.5 5.5t-4 7.5t-1 10q0 21 14 32t35 11q31 0 100.5 -4t102.5 -4q48 0 125.5 4t99.5 4
q41 0 41 -35q0 -15 -8.5 -23.5t-16 -11t-26.5 -6.5q-29 -7 -41.5 -16.5t-12.5 -30.5q0 -7 2 -16t9 -28.5t13.5 -37.5t23 -60t30.5 -79q41 -106 62.5 -157t31.5 -66.5t19 -15.5q10 0 19.5 17t43.5 96q22 51 37 85q88 203 88 250q0 28 -14.5 40t-48.5 17q-16 4 -24.5 7
t-16.5 11t-8 21q0 39 49 39q24 0 67 -4t64 -4q24 0 63.5 4t55.5 4q36 0 36 -37q0 -16 -6.5 -24.5t-13 -11t-27.5 -7.5q-29 -8 -51 -30t-45 -74q-120 -281 -131 -305h168q15 0 20 -5t5 -20v-39q0 -17 -5 -21.5t-20 -4.5h-209q-31 -73 -51 -133h260q15 0 20 -5t5 -20v-41
q0 -17 -4.5 -21t-20.5 -4h-268z" />
    <glyph glyph-name="brokenbar" unicode="&#xa6;" horiz-adv-x="557" 
d="M369 666h-181v716h181v-716zM369 -358h-181v716h181v-716z" />
    <glyph glyph-name="section" unicode="&#xa7;" horiz-adv-x="1038" 
d="M696 166l-4 -4q156 -121 156 -271q0 -130 -96.5 -206t-255.5 -76q-135 0 -226.5 60.5t-91.5 160.5q0 57 36 97t93 40q58 0 91.5 -31t33.5 -90q0 -29 -16 -51t-31.5 -37.5t-15.5 -29.5q0 -23 38 -41.5t95 -18.5q75 0 122.5 35.5t47.5 101.5q0 55 -57 112.5t-232 195.5
q-155 122 -213.5 198.5t-58.5 177.5q0 60 21 107.5t58.5 77.5t78 48.5t89.5 29.5l2 6q-75 62 -117 128.5t-42 151.5q0 122 85 197.5t238 75.5q129 0 219.5 -56.5t90.5 -160.5q0 -59 -34 -94t-91 -35q-50 0 -86.5 29t-36.5 79q0 33 18 57.5t35.5 39.5t17.5 24q0 23 -32 40
t-88 17q-74 0 -118 -39.5t-44 -105.5q0 -17 5 -33.5t11.5 -30t22.5 -32t27.5 -30.5t38.5 -34.5t43.5 -35.5t54 -42t59.5 -47q80 -65 126.5 -107.5t88 -93.5t59 -102t17.5 -110q0 -110 -61.5 -171.5t-170.5 -70.5zM266 582v-2q0 -49 35 -101.5t143 -142.5q74 -64 120 -89.5
t83 -25.5q61 0 94 31t33 86q0 47 -29.5 91.5t-117.5 125.5q-74 67 -140 102t-108 35q-52 0 -82.5 -32t-30.5 -78z" />
    <glyph glyph-name="dieresis" unicode="&#xa8;" horiz-adv-x="593" 
d="M113 1087h-2q-47 0 -80 35.5t-33 85.5q0 51 33 87t82 36t82.5 -36.5t33.5 -86.5q0 -51 -33.5 -86t-82.5 -35zM481 1087h-2q-49 0 -81.5 35.5t-32.5 85.5q0 52 33 87.5t83 35.5q47 0 81 -36.5t34 -86.5q0 -51 -33.5 -86t-81.5 -35z" />
    <glyph glyph-name="copyright" unicode="&#xa9;" horiz-adv-x="1632" 
d="M1542 715v-2q0 -152 -56 -288.5t-152 -235t-231 -156.5t-286 -58q-152 0 -287 58t-231.5 156.5t-152.5 235.5t-56 290q0 204 95 374.5t262.5 269.5t369.5 99q151 0 285.5 -57.5t231 -156.5t152.5 -237t56 -292zM236 715v-2q0 -169 76 -313.5t210 -230t295 -85.5
q162 0 296 85.5t210 230.5t76 315t-76 316t-210.5 232.5t-295.5 86.5q-122 0 -230.5 -51t-185 -137t-121 -203t-44.5 -244zM1174 547l-35 -154q-3 -16 -15.5 -24.5t-42.5 -18.5q-120 -39 -223 -39q-205 0 -326.5 107t-121.5 319q0 55 15.5 110.5t51.5 111t88 97.5t132 68.5
t177 26.5q116 0 218 -41q45 -15 45 -45v-147h-43q-14 75 -68.5 126.5t-153.5 51.5q-123 0 -193.5 -94.5t-72.5 -253.5q-2 -175 65.5 -279t207.5 -104q170 0 249 182h46z" />
    <glyph glyph-name="ordfeminine" unicode="&#xaa;" horiz-adv-x="657" 
d="M549 1200v-328q0 -38 31 -38q20 0 34 18q13 10 21 10q10 0 10 -18q0 -23 -18 -47q-22 -31 -57 -49.5t-70 -18.5q-51 0 -80 33q-7 7 -14.5 18t-12.5 17t-10 6q-3 0 -55 -31q-74 -45 -138 -45q-56 0 -91.5 32t-35.5 87q0 53 38 98t132 90q45 23 86 41q32 16 42 25t10 26v84
q0 54 -43 54q-54 0 -86 -84q-18 -47 -54 -73t-75 -26q-52 0 -52 49q0 66 86 125.5t215 59.5q103 0 145 -28.5t42 -86.5zM291 817h2q25 0 51.5 22t26.5 54v123q0 16 -9 16q-21 0 -67 -43q-53 -53 -53 -108q0 -64 49 -64z" />
    <glyph glyph-name="guillemotleft" unicode="&#xab;" horiz-adv-x="946" 
d="M514 188h-147q-22 0 -37 8.5t-33 34.5l-111 158q-12 16 -43 47q-14 10 -14 21q0 9 14 20q22 19 43 47l111 158q18 25 33 33t37 8h147q23 0 23 -14q0 -15 -25 -15q-23 0 -40 -13.5t-38 -43.5l-100 -141q-20 -28 -31 -39q6 -6 17 -20.5t14 -18.5l100 -142q21 -31 38 -45
t40 -14q25 0 25 -14q0 -15 -23 -15zM799 188h-146q-22 0 -37.5 8.5t-33.5 34.5l-111 158q-10 16 -41 47q-16 12 -16 21q0 8 16 20q25 21 41 47l111 158q29 41 71 41h146q24 0 24 -14q0 -15 -26 -15q-23 0 -40 -13.5t-38 -43.5l-101 -141q-12 -21 -30 -39q12 -12 30 -39
l101 -142q21 -31 38 -45t40 -14q26 0 26 -14q0 -15 -24 -15z" />
    <glyph glyph-name="logicalnot" unicode="&#xac;" horiz-adv-x="1222" 
d="M952 221v418h-856v176h1032v-594h-176z" />
    <glyph glyph-name="uni00AD" unicode="&#xad;" horiz-adv-x="628" 
d="M141 557h410q17 0 23 -3.5t6 -12.5q0 -6 -54 -152q-9 -20 -37 -20h-413q-27 0 -27 16q0 7 21 65t32 85q7 22 39 22z" />
    <glyph glyph-name="registered" unicode="&#xae;" horiz-adv-x="1632" 
d="M1542 715v-2q0 -152 -56 -288.5t-152 -235t-231 -156.5t-286 -58q-152 0 -287 58t-231.5 156.5t-152.5 235.5t-56 290q0 204 95 374.5t262.5 269.5t369.5 99q151 0 285.5 -57.5t231 -156.5t152.5 -237t56 -292zM236 715v-2q0 -169 76 -313.5t210 -230t295 -85.5
q162 0 296 85.5t210 230.5t76 315t-76 316t-210.5 232.5t-295.5 86.5q-122 0 -230.5 -51t-185 -137t-121 -203t-44.5 -244zM469 1092v34h401q104 0 172 -51t68 -151q0 -73 -45.5 -132.5t-120.5 -84.5l121 -175q90 -125 147 -174v-24h-161q-31 0 -63.5 45t-85.5 144.5
t-93 160.5h-80v-219q0 -60 14 -74t84 -20v-37h-358v37q70 6 83 19.5t13 74.5v530q0 35 -1 48t-11 26t-28 16.5t-56 6.5zM729 1079v-350h76q69 0 102 53.5t33 135.5q0 161 -133 161h-78z" />
    <glyph glyph-name="macron" unicode="&#xaf;" horiz-adv-x="589" 
d="M55 1268h504q35 0 35 -11q0 -9 -25 -88q-7 -22 -12.5 -26t-24.5 -4h-505q-31 0 -31 8q0 4 2 11t9.5 29t15.5 48q1 4 2.5 9.5t2 8t2 6t2.5 4t3 2.5t5 2t6.5 0.5t8.5 0.5z" />
    <glyph glyph-name="degree" unicode="&#xb0;" horiz-adv-x="819" 
d="M412 1315h2q124 0 212.5 -90.5t88.5 -216.5q0 -129 -88.5 -219.5t-214.5 -90.5q-129 0 -218.5 90.5t-89.5 219.5q0 127 90 217t218 90zM412 1223h-2q-86 0 -145.5 -63.5t-59.5 -151.5q0 -90 59.5 -153.5t147.5 -63.5q86 0 144 63.5t58 153.5q0 88 -58.5 151.5
t-143.5 63.5z" />
    <glyph glyph-name="plusminus" unicode="&#xb1;" horiz-adv-x="1222" 
d="M524 741v349h176v-349h428v-176h-428v-346h-176v346h-428v176h428zM96 -78v174h1032v-174h-1032z" />
    <glyph glyph-name="twosuperior" unicode="&#xb2;" horiz-adv-x="598" 
d="M545 756v-191q0 -45 -37 -45q-33 0 -106 2t-113 2q-38 0 -113 -2t-113 -2q-28 0 -28 29q0 18 41 65q60 75 127 162q133 193 133 316q0 67 -32 107t-83 40q-48 0 -81 -38t-38 -93q-6 -39 -32 -39q-13 0 -21 11t-8 28q0 82 69.5 144.5t178.5 62.5q111 0 178.5 -59
t67.5 -150q0 -34 -11 -66t-23 -54t-48.5 -60.5t-57 -58t-78.5 -72.5q-112 -101 -112 -113q0 -8 41 -8h106q58 0 86.5 23t44.5 65q7 19 10 27t10.5 16t16.5 8q15 0 20 -11.5t5 -45.5z" />
    <glyph glyph-name="threesuperior" unicode="&#xb3;" horiz-adv-x="598" 
d="M260 987l6 -6q46 16 101 16q89 0 151 -54.5t62 -147.5q0 -86 -58 -169t-148.5 -134.5t-180.5 -51.5q-67 0 -112.5 28t-45.5 81q0 33 21 51t53 18q58 0 84 -57q8 -21 12.5 -30.5t16.5 -19t28 -9.5q52 0 89.5 71t37.5 142q0 83 -38 135.5t-114 52.5q-35 0 -63.5 -11.5
t-47 -22.5t-30.5 -11q-18 0 -18 23q0 14 12.5 28t56.5 47q164 117 164 220q0 32 -19.5 49.5t-50.5 17.5q-29 0 -54.5 -19t-41.5 -48q-27 -46 -47 -46q-23 0 -23 27q0 18 13.5 43t40.5 51.5t77.5 45t114.5 18.5q49 0 87.5 -11t65.5 -41t27 -75q0 -74 -108 -137
q-18 -11 -61.5 -32t-59.5 -32z" />
    <glyph glyph-name="acute" unicode="&#xb4;" horiz-adv-x="587" 
d="M158 1053h-2q-9 0 -15 7t-6 17q0 12 35 53l213 220q38 44 69.5 65t69.5 21q35 0 58.5 -23.5t23.5 -56.5q0 -62 -88 -109l-266 -151q-77 -43 -92 -43z" />
    <glyph glyph-name="mu" unicode="&#xb5;" horiz-adv-x="1087" 
d="M401 864v-598q0 -137 127 -137q75 0 125 57q31 36 31 84v488q0 52 -10 72t-41 26q-28 3 -39.5 10.5t-11.5 28.5q0 33 55 33q16 0 61 -3t70 -3q22 0 69 3t74 3q21 0 31 -9.5t10 -35.5v-76v-588q0 -44 15.5 -64.5t48.5 -23.5q43 -3 43 -29q0 -4 -1 -7.5t-2 -6t-4 -5
t-5.5 -4t-7.5 -3.5l-10 -4t-13.5 -4.5t-16 -4.5t-20 -5.5t-23.5 -6.5q-204 -69 -217 -74q-27 -6 -34 -6q-17 0 -17 33v90q0 29 -14 29q-8 0 -31 -19q-3 -3 -21.5 -19.5t-27.5 -23.5t-29 -22.5t-35.5 -23t-37.5 -17.5t-45 -14t-48 -4q-47 0 -89.5 23t-65.5 63l-4 -3v-51
q0 -69 38.5 -166.5t38.5 -148.5q0 -71 -33.5 -112.5t-93.5 -41.5q-120 0 -120 158q0 49 31.5 159t31.5 193v172v557q0 37 -13.5 52t-47.5 20q-47 6 -47 39q0 35 36 35q27 0 81 -3t81 -3q20 0 75.5 3t70.5 3q18 0 25 -14t7 -50z" />
    <glyph glyph-name="paragraph" unicode="&#xb6;" horiz-adv-x="1253" 
d="M539 1280h512q61 0 61 -39t-59 -39q-57 0 -74.5 -25.5t-17.5 -91.5v-1419h-185v1516h-119v-1516h-184v780q-171 9 -267.5 127t-96.5 293t118.5 294.5t311.5 119.5z" />
    <glyph glyph-name="periodcentered" unicode="&#xb7;" horiz-adv-x="495" 
d="M248 369h-2q-61 0 -103.5 44t-42.5 105q0 62 43.5 106t104.5 44t103 -44t42 -106t-42 -105.5t-103 -43.5z" />
    <glyph glyph-name="cedilla" unicode="&#xb8;" horiz-adv-x="581" 
d="M231 2h91l-64 -127q32 4 45 4q87 0 145 -38.5t58 -108.5t-62.5 -119t-164.5 -49q-42 0 -85.5 8.5t-80.5 32.5t-37 59q0 53 45 53q23 0 40 -14.5t26 -32.5t30 -32.5t51 -14.5q41 0 71 25.5t30 62.5q0 47 -29 71.5t-76 24.5q-22 0 -53.5 -5t-40.5 -5q-11 0 -18 6.5t-7 16.5
q0 14 15 39z" />
    <glyph glyph-name="onesuperior" unicode="&#xb9;" horiz-adv-x="598" 
d="M414 1290v-628q0 -51 9.5 -66t43.5 -18q29 -4 40 -11.5t11 -21.5q0 -25 -35 -25q-23 0 -78.5 2t-91.5 2q-32 0 -86.5 -2t-76.5 -2q-35 0 -35 27q0 13 10 20.5t39 10.5q33 3 43 19t10 62v486q0 37 -22 37q-12 0 -45 -12.5t-41 -12.5q-21 0 -21 27q0 23 62 43q27 9 190 69
q51 19 53 19q9 0 15 -7t6 -18z" />
    <glyph glyph-name="ordmasculine" unicode="&#xba;" horiz-adv-x="657" 
d="M328 729h-2q-125 0 -204 83.5t-79 209.5q0 124 80 208.5t203 84.5q129 0 207.5 -84.5t78.5 -208.5q0 -127 -78.5 -210t-205.5 -83zM334 776h2q42 0 64 60t22 153q0 125 -28.5 201t-74.5 76q-41 0 -63.5 -57t-22.5 -156q0 -126 28 -201.5t73 -75.5z" />
    <glyph glyph-name="guillemotright" unicode="&#xbb;" horiz-adv-x="946" 
d="M145 723h148q22 0 36.5 -8t32.5 -33l111 -158q21 -28 43 -47q14 -11 14 -20q0 -11 -14 -21q-31 -31 -43 -47l-111 -158q-18 -25 -33 -34t-36 -9h-148q-22 0 -22 15q0 14 24 14q23 0 40 14t38 45l101 142q22 32 30 39q-8 8 -30 39l-101 141q-21 30 -38 43.5t-40 13.5
q-24 0 -24 15q0 14 22 14zM432 723h146q42 0 71 -41l111 -158q16 -26 41 -47q16 -12 16 -20q0 -9 -16 -21q-31 -31 -41 -47l-111 -158q-31 -43 -71 -43h-146q-24 0 -24 15q0 14 26 14q23 0 40 14t38 45l100 142q11 19 31 39q-20 20 -31 39l-100 141q-21 30 -38 43.5
t-40 13.5q-26 0 -26 15q0 14 24 14z" />
    <glyph glyph-name="onequarter" unicode="&#xbc;" horiz-adv-x="1482" 
d="M264 -25v2q0 7 27 50l801 1267q15 21 45 21h63q27 0 27 -10q0 -5 -4.5 -13.5t-13.5 -22l-11 -16.5l-801 -1267q-15 -21 -45 -21h-63q-25 0 -25 10zM414 1290v-628q0 -51 9.5 -66t43.5 -18q29 -4 40 -11.5t11 -21.5q0 -25 -35 -25q-23 0 -78.5 2t-91.5 2q-32 0 -86.5 -2
t-76.5 -2q-35 0 -35 27q0 13 10 20.5t39 10.5q33 3 43 19t10 62v486q0 37 -22 37q-12 0 -45 -12.5t-41 -12.5q-21 0 -21 27q0 23 62 43q27 9 190 69q51 19 53 19q9 0 15 -7t6 -18zM1290 590v-262q0 -10 4 -13.5t13 -3.5h77q11 0 15 -6t4 -26t-4.5 -25.5t-16.5 -5.5h-73
q-11 0 -15 -3.5t-4 -15.5v-114q0 -35 11 -47t45 -17q25 -3 32.5 -9t7.5 -22q0 -24 -38 -24q-20 0 -72.5 2t-81.5 2q-33 0 -89 -2t-79 -2q-37 0 -37 27q0 9 3 14.5t13.5 8.5t15 4t23.5 3q29 3 41.5 16.5t12.5 49.5v110q0 11 -4 15t-13 4h-239q-14 0 -19.5 6.5t-5.5 30.5
q0 21 5 32.5t24 38.5q112 161 340 467q22 35 45 35h35q22 0 22 -6q0 -7 -45 -64q-114 -140 -307 -409q-7 -10 -18.5 -25.5t-17 -23.5t-5.5 -11q0 -8 18 -8h164q13 0 17 7t4 28v170q0 17 6 24.5t20 12.5q13 4 49.5 18.5t67.5 26.5t37 12q12 0 12 -20z" />
    <glyph glyph-name="onehalf" unicode="&#xbd;" horiz-adv-x="1482" 
d="M262 -25v2q0 7 27 50l803 1267q15 21 45 21h61q27 0 27 -10q0 -9 -27 -52l-803 -1267q-15 -21 -45 -21h-61q-27 0 -27 10zM414 1290v-628q0 -51 9.5 -66t43.5 -18q29 -4 40 -11.5t11 -21.5q0 -25 -35 -25q-23 0 -78.5 2t-91.5 2q-32 0 -86.5 -2t-76.5 -2q-35 0 -35 27
q0 13 10 20.5t39 10.5q33 3 43 19t10 62v486q0 37 -22 37q-12 0 -45 -12.5t-41 -12.5q-21 0 -21 27q0 23 62 43q27 9 190 69q51 19 53 19q9 0 15 -7t6 -18zM1409 231v-192q0 -43 -37 -43q-33 0 -106.5 2t-112.5 2q-38 0 -112.5 -2t-112.5 -2q-29 0 -29 29q0 18 41 65
q93 117 125 162q135 187 135 315q0 67 -31.5 106.5t-83.5 39.5q-50 0 -81.5 -36.5t-36.5 -92.5q-6 -39 -33 -39q-13 0 -21 11t-8 28q0 82 69 144.5t177 62.5q111 0 179.5 -59t68.5 -150q0 -79 -46.5 -140t-170.5 -172q-14 -13 -34 -31t-32 -29t-24 -22.5t-17.5 -19
t-5.5 -10.5q0 -8 41 -8h107q58 0 87 22t44 64q7 27 14.5 40t21.5 13q15 0 20 -12t5 -46z" />
    <glyph glyph-name="threequarters" unicode="&#xbe;" horiz-adv-x="1482" 
d="M260 987l6 -6q46 16 101 16q89 0 151 -54.5t62 -147.5q0 -86 -58 -169t-148.5 -134.5t-180.5 -51.5q-67 0 -112.5 28t-45.5 81q0 33 21 51t53 18q58 0 84 -57q8 -21 12.5 -30.5t16.5 -19t28 -9.5q52 0 89.5 71t37.5 142q0 83 -38 135.5t-114 52.5q-35 0 -63.5 -11.5
t-47 -22.5t-30.5 -11q-18 0 -18 23q0 14 12.5 28t56.5 47q164 117 164 220q0 32 -19.5 49.5t-50.5 17.5q-29 0 -54.5 -19t-41.5 -48q-27 -46 -47 -46q-23 0 -23 27q0 18 13.5 43t40.5 51.5t77.5 45t114.5 18.5q49 0 87.5 -11t65.5 -41t27 -75q0 -74 -108 -137
q-18 -11 -61.5 -32t-59.5 -32zM264 -25v2q0 7 27 50l801 1267q15 21 45 21h63q27 0 27 -10q0 -5 -4.5 -13.5t-13.5 -22l-11 -16.5l-801 -1267q-15 -21 -45 -21h-63q-25 0 -25 10zM1290 590v-262q0 -10 4 -13.5t13 -3.5h77q11 0 15 -6t4 -26t-4.5 -25.5t-16.5 -5.5h-73
q-11 0 -15 -3.5t-4 -15.5v-114q0 -35 11 -47t45 -17q25 -3 32.5 -9t7.5 -22q0 -24 -38 -24q-20 0 -72.5 2t-81.5 2q-33 0 -89 -2t-79 -2q-37 0 -37 27q0 9 3 14.5t13.5 8.5t15 4t23.5 3q29 3 41.5 16.5t12.5 49.5v110q0 11 -4 15t-13 4h-239q-14 0 -19.5 6.5t-5.5 30.5
q0 21 5 32.5t24 38.5q112 161 340 467q22 35 45 35h35q22 0 22 -6q0 -7 -45 -64q-114 -140 -307 -409q-7 -10 -18.5 -25.5t-17 -23.5t-5.5 -11q0 -8 18 -8h164q13 0 17 7t4 28v170q0 17 6 24.5t20 12.5q13 4 49.5 18.5t67.5 26.5t37 12q12 0 12 -20z" />
    <glyph glyph-name="questiondown" unicode="&#xbf;" horiz-adv-x="679" 
d="M403 664h-2q-60 0 -98.5 44.5t-38.5 104.5q0 61 39.5 104.5t102.5 43.5q62 0 99.5 -44.5t37.5 -103.5t-38.5 -104t-101.5 -45zM584 -242v-2q0 -51 -21 -75q-42 -60 -188 -60q-141 0 -249 97.5t-108 248.5q0 100 40 172.5t116 145.5q22 21 49.5 43.5t59 46.5t45.5 35
q22 20 28 26.5t13 19.5t10 31q5 50 13.5 70.5t27.5 20.5q38 0 45 -64q2 -17 7.5 -67.5t9 -93.5t3.5 -81q0 -42 -14 -66t-49 -56q-47 -46 -63 -62t-51.5 -55.5t-49 -62t-26.5 -55.5t-13 -62q0 -61 32.5 -104.5t76.5 -43.5q20 0 36.5 9t30.5 30t21.5 35t21.5 45
q17 37 26.5 55.5t24.5 34.5t31 16q35 0 49.5 -38t14.5 -134z" />
    <glyph glyph-name="Agrave" unicode="&#xc0;" horiz-adv-x="1030" 
d="M528 418h-235q-23 0 -32 -10t-21 -50q-50 -184 -50 -221q0 -55 68 -69q47 -11 56 -21q8 -8 8 -22q0 -33 -43 -33q-15 0 -61 4t-71 4q-29 0 -77.5 -4t-59.5 -4q-39 0 -39 35q0 11 6.5 19t14.5 11.5t22 8.5q27 7 43.5 21t28.5 50q65 186 287 1020q23 89 24 94q6 27 25.5 37
t75.5 10q55 0 72.5 -8.5t25.5 -36.5q58 -193 186 -592.5t162 -506.5q24 -78 72 -91q4 -2 13.5 -5.5t14 -5.5t10.5 -6t8.5 -9.5t2.5 -13.5q0 -20 -15.5 -25.5t-45.5 -5.5q-29 0 -96 4t-103 4q-32 0 -103.5 -4t-99.5 -4q-33 0 -48 7.5t-15 27.5q0 33 55 41q17 4 26.5 7.5
t18 14t8.5 25.5q0 28 -59 235q-13 44 -24 56t-36 12zM315 498h174q39 0 39 24q0 13 -10 43q-11 40 -40 134.5t-44 144.5q-20 69 -33 69q-10 0 -16 -15.5t-20 -74.5q-11 -45 -72 -266q-8 -36 -8 -45q0 -14 30 -14zM657 1401v-2q0 -8 -6 -14.5t-16 -6.5q-23 0 -90 43l-269 150
q-44 27 -66 51t-22 57q0 34 24.5 57t57.5 23q38 0 69.5 -21t70.5 -63l213 -219q2 -3 10 -12.5t12 -15.5t8 -13.5t4 -13.5z" />
    <glyph glyph-name="Aacute" unicode="&#xc1;" horiz-adv-x="1030" 
d="M528 418h-235q-23 0 -32 -10t-21 -50q-50 -184 -50 -221q0 -55 68 -69q47 -11 56 -21q8 -8 8 -22q0 -33 -43 -33q-15 0 -61 4t-71 4q-29 0 -77.5 -4t-59.5 -4q-39 0 -39 35q0 11 6.5 19t14.5 11.5t22 8.5q27 7 43.5 21t28.5 50q65 186 287 1020q23 89 24 94q6 27 25.5 37
t75.5 10q55 0 72.5 -8.5t25.5 -36.5q58 -193 186 -592.5t162 -506.5q24 -78 72 -91q4 -2 13.5 -5.5t14 -5.5t10.5 -6t8.5 -9.5t2.5 -13.5q0 -20 -15.5 -25.5t-45.5 -5.5q-29 0 -96 4t-103 4q-32 0 -103.5 -4t-99.5 -4q-33 0 -48 7.5t-15 27.5q0 33 55 41q17 4 26.5 7.5
t18 14t8.5 25.5q0 28 -59 235q-13 44 -24 56t-36 12zM315 498h174q39 0 39 24q0 13 -10 43q-11 40 -40 134.5t-44 144.5q-20 69 -33 69q-10 0 -16 -15.5t-20 -74.5q-11 -45 -72 -266q-8 -36 -8 -45q0 -14 30 -14zM356 1374h-2q-9 0 -14.5 7t-5.5 16q0 16 37 53l211 221
q39 43 70 63.5t69 20.5q35 0 58.5 -22.5t23.5 -55.5q0 -59 -86 -110l-268 -152q-73 -41 -93 -41z" />
    <glyph glyph-name="Acircumflex" unicode="&#xc2;" horiz-adv-x="1030" 
d="M528 418h-235q-23 0 -32 -10t-21 -50q-50 -184 -50 -221q0 -55 68 -69q47 -11 56 -21q8 -8 8 -22q0 -33 -43 -33q-15 0 -61 4t-71 4q-29 0 -77.5 -4t-59.5 -4q-39 0 -39 35q0 11 6.5 19t14.5 11.5t22 8.5q27 7 43.5 21t28.5 50q65 186 287 1020q23 89 24 94q6 27 25.5 37
t75.5 10q55 0 72.5 -8.5t25.5 -36.5q58 -193 186 -592.5t162 -506.5q24 -78 72 -91q4 -2 13.5 -5.5t14 -5.5t10.5 -6t8.5 -9.5t2.5 -13.5q0 -20 -15.5 -25.5t-45.5 -5.5q-29 0 -96 4t-103 4q-32 0 -103.5 -4t-99.5 -4q-33 0 -48 7.5t-15 27.5q0 33 55 41q17 4 26.5 7.5
t18 14t8.5 25.5q0 28 -59 235q-13 44 -24 56t-36 12zM315 498h174q39 0 39 24q0 13 -10 43q-11 40 -40 134.5t-44 144.5q-20 69 -33 69q-10 0 -16 -15.5t-20 -74.5q-11 -45 -72 -266q-8 -36 -8 -45q0 -14 30 -14zM455 1743h82q44 0 71 -37l176 -270q21 -32 21 -45
q0 -17 -31 -17q-24 0 -65 33l-213 192l-215 -192q-37 -33 -66 -33t-29 17q0 13 21 45l176 270q24 37 72 37z" />
    <glyph glyph-name="Atilde" unicode="&#xc3;" horiz-adv-x="1030" 
d="M528 418h-235q-23 0 -32 -10t-21 -50q-50 -184 -50 -221q0 -55 68 -69q47 -11 56 -21q8 -8 8 -22q0 -33 -43 -33q-15 0 -61 4t-71 4q-29 0 -77.5 -4t-59.5 -4q-39 0 -39 35q0 11 6.5 19t14.5 11.5t22 8.5q27 7 43.5 21t28.5 50q65 186 287 1020q23 89 24 94q6 27 25.5 37
t75.5 10q55 0 72.5 -8.5t25.5 -36.5q58 -193 186 -592.5t162 -506.5q24 -78 72 -91q4 -2 13.5 -5.5t14 -5.5t10.5 -6t8.5 -9.5t2.5 -13.5q0 -20 -15.5 -25.5t-45.5 -5.5q-29 0 -96 4t-103 4q-32 0 -103.5 -4t-99.5 -4q-33 0 -48 7.5t-15 27.5q0 33 55 41q17 4 26.5 7.5
t18 14t8.5 25.5q0 28 -59 235q-13 44 -24 56t-36 12zM315 498h174q39 0 39 24q0 13 -10 43q-11 40 -40 134.5t-44 144.5q-20 69 -33 69q-10 0 -16 -15.5t-20 -74.5q-11 -45 -72 -266q-8 -36 -8 -45q0 -14 30 -14zM616 1417h-2q-25 0 -57 11.5t-46 19t-52 29.5
q-32 20 -49 29.5t-43.5 19.5t-47.5 10q-30 0 -50 -16.5t-28 -36.5t-20 -36.5t-28 -16.5q-34 0 -31 43q7 72 64.5 136t148.5 64q60 0 160 -59q4 -2 19 -11.5t21 -12.5t19 -10.5t20.5 -10.5t18 -7.5t19.5 -6t18 -1.5q30 0 50.5 16.5t29 37t21 37t28.5 16.5q33 0 30 -43
q-7 -72 -64.5 -136.5t-148.5 -64.5z" />
    <glyph glyph-name="Adieresis" unicode="&#xc4;" horiz-adv-x="1030" 
d="M528 418h-235q-23 0 -32 -10t-21 -50q-50 -184 -50 -221q0 -55 68 -69q47 -11 56 -21q8 -8 8 -22q0 -33 -43 -33q-15 0 -61 4t-71 4q-29 0 -77.5 -4t-59.5 -4q-39 0 -39 35q0 11 6.5 19t14.5 11.5t22 8.5q27 7 43.5 21t28.5 50q65 186 287 1020q23 89 24 94q6 27 25.5 37
t75.5 10q55 0 72.5 -8.5t25.5 -36.5q58 -193 186 -592.5t162 -506.5q24 -78 72 -91q4 -2 13.5 -5.5t14 -5.5t10.5 -6t8.5 -9.5t2.5 -13.5q0 -20 -15.5 -25.5t-45.5 -5.5q-29 0 -96 4t-103 4q-32 0 -103.5 -4t-99.5 -4q-33 0 -48 7.5t-15 27.5q0 33 55 41q17 4 26.5 7.5
t18 14t8.5 25.5q0 28 -59 235q-13 44 -24 56t-36 12zM315 498h174q39 0 39 24q0 13 -10 43q-11 40 -40 134.5t-44 144.5q-20 69 -33 69q-10 0 -16 -15.5t-20 -74.5q-11 -45 -72 -266q-8 -36 -8 -45q0 -14 30 -14zM309 1407h-2q-47 0 -80.5 36.5t-33.5 86.5q0 52 32.5 86.5
t83.5 34.5q49 0 83 -35.5t34 -85.5q0 -51 -34 -87t-83 -36zM676 1407h-2q-47 0 -80 36.5t-33 86.5q0 51 33 86t82 35t83 -35.5t34 -85.5q0 -51 -34 -87t-83 -36z" />
    <glyph glyph-name="Aring" unicode="&#xc5;" horiz-adv-x="1030" 
d="M528 418h-235q-23 0 -32 -10t-21 -50q-50 -184 -50 -221q0 -55 68 -69q47 -11 56 -21q8 -8 8 -22q0 -33 -43 -33q-15 0 -61 4t-71 4q-29 0 -77.5 -4t-59.5 -4q-39 0 -39 35q0 11 6.5 19t14.5 11.5t22 8.5q27 7 43.5 21t28.5 50q65 186 287 1020q23 89 24 94q6 27 25.5 37
t75.5 10q55 0 72.5 -8.5t25.5 -36.5q58 -193 186 -592.5t162 -506.5q24 -78 72 -91q4 -2 13.5 -5.5t14 -5.5t10.5 -6t8.5 -9.5t2.5 -13.5q0 -20 -15.5 -25.5t-45.5 -5.5q-29 0 -96 4t-103 4q-32 0 -103.5 -4t-99.5 -4q-33 0 -48 7.5t-15 27.5q0 33 55 41q17 4 26.5 7.5
t18 14t8.5 25.5q0 28 -59 235q-13 44 -24 56t-36 12zM315 498h174q39 0 39 24q0 13 -10 43q-11 40 -40 134.5t-44 144.5q-20 69 -33 69q-10 0 -16 -15.5t-20 -74.5q-11 -45 -72 -266q-8 -36 -8 -45q0 -14 30 -14zM496 1370h-2q-88 0 -150.5 62.5t-62.5 150.5q0 89 63 152
t152 63q88 0 150.5 -63t62.5 -152q0 -88 -62.5 -150.5t-150.5 -62.5zM496 1462h2q47 0 82.5 36t35.5 85q0 51 -35 87t-85 36t-85.5 -36t-35.5 -87q0 -49 35.5 -85t85.5 -36z" />
    <glyph glyph-name="AE" unicode="&#xc6;" horiz-adv-x="1554" 
d="M1010 1139v-383q0 -28 10.5 -34.5t50.5 -6.5q70 0 97.5 19.5t39.5 72.5q13 59 21 74.5t31 15.5q17 0 24.5 -13.5t7.5 -45.5q0 -26 -4 -84t-4 -84q0 -31 4 -98.5t4 -94.5q0 -47 -37 -47q-18 0 -27 16.5t-20 61.5q-20 76 -49 101.5t-92 25.5q-35 0 -46 -6.5t-11 -30.5v-426
q0 -56 26.5 -77t96.5 -21q104 0 157.5 56.5t87.5 182.5q23 86 62 86q23 0 32 -16.5t9 -60.5q0 -95 -2 -140q0 -18 -1 -57.5t-1 -54.5q0 -51 -13 -63.5t-45 -12.5q-41 0 -205 4q-40 0 -130.5 1t-137.5 1q-94 0 -197.5 -4t-117.5 -4q-53 0 -53 39q0 20 13.5 27t51.5 14
q42 8 56 28t14 78v397q0 30 -12 40t-42 10h-194q-22 0 -35 -7t-19 -16t-20 -37q-119 -250 -149 -321q-41 -96 -41 -131q0 -34 57 -41q51 -8 62 -17q12 -9 12 -26q0 -37 -62 -37q-16 0 -58.5 4t-66.5 4q-27 0 -72 -4t-65 -4q-49 0 -49 37q0 21 14.5 30.5t42.5 14.5
q7 1 13.5 3.5t13 8t11.5 10t11.5 14t10.5 16t11.5 20.5t11.5 22.5t13.5 27.5l14.5 29q95 200 257.5 519.5t178.5 353.5q27 56 27 71q0 22 -15 29.5t-49 9.5q-29 3 -42 10.5t-13 24.5q0 45 66 45q48 0 170 -4t190 -4q115 0 287 4q48 0 118 1t89 1q33 0 43 -11t10 -50v-267
q-1 -17 -3.5 -27.5t-9.5 -19t-20 -8.5q-31 0 -56 54q-10 20 -34 85q-34 82 -79 123t-134 41q-58 0 -78 -13t-20 -54zM713 737v383q0 47 -11 47t-36 -55q-29 -60 -88.5 -178.5t-77.5 -157.5q-21 -42 -21 -51q0 -20 31 -20h164q23 0 31 6.5t8 25.5z" />
    <glyph glyph-name="Ccedilla" unicode="&#xc7;" horiz-adv-x="1046" 
d="M989 354l-4 -225q0 -42 -11 -59t-42 -33q-122 -68 -287 -68l-45 -94q32 4 43 4q87 0 145 -38.5t58 -108.5t-62 -119t-166 -49q-30 0 -62 5t-64.5 16t-53 31.5t-20.5 47.5q0 53 43 53q23 0 40 -14.5t27 -32.5t31 -32.5t51 -14.5q41 0 71 25.5t30 62.5q0 47 -30 71.5
t-77 24.5q-21 0 -52 -5t-42 -5t-18 6.5t-7 16.5q0 2 15 39l57 114q-157 21 -272 115.5t-172.5 236.5t-57.5 316q0 193 70.5 344.5t206.5 239.5t317 88q72 0 149.5 -16.5t119.5 -36.5q26 -10 32 -23t8 -57q7 -150 7 -219q0 -38 -9 -52t-30 -14q-30 0 -49 30.5t-46 104.5
q-35 98 -78.5 151.5t-111.5 53.5q-112 0 -181 -148t-69 -423q0 -164 25 -288t67 -193t89 -102.5t98 -33.5q41 0 73.5 19.5t55 57.5t37 75t28.5 90q29 98 43 119q15 22 35 22q25 0 36 -16.5t11 -59.5z" />
    <glyph glyph-name="Egrave" unicode="&#xc8;" horiz-adv-x="1036" 
d="M174 178v946q0 11 -1.5 20.5t-3 17t-6 14t-7 10.5t-9.5 8.5t-10 6.5t-11.5 5t-11.5 4t-13 3.5t-13 3.5q-4 1 -12.5 3.5t-12 3.5t-9 3.5t-7.5 5.5t-4 7.5t-2 10.5q0 37 61 37q20 0 134 -4q118 -4 225 -4q77 0 225 4q40 0 105 1t88 1q33 0 43 -11t10 -50q0 -191 -2 -271
q0 -27 -7 -39t-26 -12q-30 0 -55 51q-15 33 -31 80q-17 42 -32.5 69.5t-41 53t-63.5 37.5t-90 12q-72 0 -92 -14q-23 -12 -23 -53v-387q0 -25 12 -31t56 -6q73 0 103 20t42 74q13 57 21 72.5t30 15.5q19 0 27 -13t8 -46q0 -26 -4 -83t-4 -83q0 -31 4 -98t4 -95
q0 -45 -37 -45q-18 0 -27 16t-20 60q-19 76 -46 100.5t-91 24.5q-48 0 -63 -7t-15 -28v-428q0 -56 29.5 -77t105.5 -21q114 0 170 55.5t90 181.5q14 47 28 66.5t36 19.5q20 0 28 -12q13 -29 13 -156q-3 -115 -6 -182q-3 -35 -13.5 -44t-40.5 -9q-77 0 -245 4q-42 0 -122 1
t-118 1q-66 0 -177.5 -4t-148.5 -4q-32 0 -46.5 8.5t-14.5 30.5q0 18 13 27t42 14q49 7 65.5 28.5t16.5 77.5zM690 1401v-2q0 -8 -6 -14.5t-16 -6.5q-23 0 -90 43l-269 150q-44 27 -66 51t-22 57q0 34 24.5 57t57.5 23q38 0 69 -20.5t70 -63.5l213 -219q1 -1 13 -15.5
t17 -23.5t5 -16z" />
    <glyph glyph-name="Eacute" unicode="&#xc9;" horiz-adv-x="1036" 
d="M174 178v946q0 11 -1.5 20.5t-3 17t-6 14t-7 10.5t-9.5 8.5t-10 6.5t-11.5 5t-11.5 4t-13 3.5t-13 3.5q-4 1 -12.5 3.5t-12 3.5t-9 3.5t-7.5 5.5t-4 7.5t-2 10.5q0 37 61 37q20 0 134 -4q118 -4 225 -4q77 0 225 4q40 0 105 1t88 1q33 0 43 -11t10 -50q0 -191 -2 -271
q0 -27 -7 -39t-26 -12q-30 0 -55 51q-15 33 -31 80q-17 42 -32.5 69.5t-41 53t-63.5 37.5t-90 12q-72 0 -92 -14q-23 -12 -23 -53v-387q0 -25 12 -31t56 -6q73 0 103 20t42 74q13 57 21 72.5t30 15.5q19 0 27 -13t8 -46q0 -26 -4 -83t-4 -83q0 -31 4 -98t4 -95
q0 -45 -37 -45q-18 0 -27 16t-20 60q-19 76 -46 100.5t-91 24.5q-48 0 -63 -7t-15 -28v-428q0 -56 29.5 -77t105.5 -21q114 0 170 55.5t90 181.5q14 47 28 66.5t36 19.5q20 0 28 -12q13 -29 13 -156q-3 -115 -6 -182q-3 -35 -13.5 -44t-40.5 -9q-77 0 -245 4q-42 0 -122 1
t-118 1q-66 0 -177.5 -4t-148.5 -4q-32 0 -46.5 8.5t-14.5 30.5q0 18 13 27t42 14q49 7 65.5 28.5t16.5 77.5zM397 1374h-2q-8 0 -14 7t-6 16q0 16 37 53l211 221q39 43 70 63.5t69 20.5q35 0 58.5 -22.5t23.5 -55.5q0 -59 -86 -110l-269 -152q-73 -41 -92 -41z" />
    <glyph glyph-name="Ecircumflex" unicode="&#xca;" horiz-adv-x="1036" 
d="M174 178v946q0 11 -1.5 20.5t-3 17t-6 14t-7 10.5t-9.5 8.5t-10 6.5t-11.5 5t-11.5 4t-13 3.5t-13 3.5q-4 1 -12.5 3.5t-12 3.5t-9 3.5t-7.5 5.5t-4 7.5t-2 10.5q0 37 61 37q20 0 134 -4q118 -4 225 -4q77 0 225 4q40 0 105 1t88 1q33 0 43 -11t10 -50q0 -191 -2 -271
q0 -27 -7 -39t-26 -12q-30 0 -55 51q-15 33 -31 80q-17 42 -32.5 69.5t-41 53t-63.5 37.5t-90 12q-72 0 -92 -14q-23 -12 -23 -53v-387q0 -25 12 -31t56 -6q73 0 103 20t42 74q13 57 21 72.5t30 15.5q19 0 27 -13t8 -46q0 -26 -4 -83t-4 -83q0 -31 4 -98t4 -95
q0 -45 -37 -45q-18 0 -27 16t-20 60q-19 76 -46 100.5t-91 24.5q-48 0 -63 -7t-15 -28v-428q0 -56 29.5 -77t105.5 -21q114 0 170 55.5t90 181.5q14 47 28 66.5t36 19.5q20 0 28 -12q13 -29 13 -156q-3 -115 -6 -182q-3 -35 -13.5 -44t-40.5 -9q-77 0 -245 4q-42 0 -122 1
t-118 1q-66 0 -177.5 -4t-148.5 -4q-32 0 -46.5 8.5t-14.5 30.5q0 18 13 27t42 14q49 7 65.5 28.5t16.5 77.5zM489 1743h80q48 0 72 -37l176 -270q23 -30 23 -45q0 -17 -31 -17q-25 0 -66 33l-213 192l-215 -192q-37 -33 -65 -33q-29 0 -29 17q0 13 21 45l176 270
q24 37 71 37z" />
    <glyph glyph-name="Edieresis" unicode="&#xcb;" horiz-adv-x="1036" 
d="M174 178v946q0 11 -1.5 20.5t-3 17t-6 14t-7 10.5t-9.5 8.5t-10 6.5t-11.5 5t-11.5 4t-13 3.5t-13 3.5q-4 1 -12.5 3.5t-12 3.5t-9 3.5t-7.5 5.5t-4 7.5t-2 10.5q0 37 61 37q20 0 134 -4q118 -4 225 -4q77 0 225 4q40 0 105 1t88 1q33 0 43 -11t10 -50q0 -191 -2 -271
q0 -27 -7 -39t-26 -12q-30 0 -55 51q-15 33 -31 80q-17 42 -32.5 69.5t-41 53t-63.5 37.5t-90 12q-72 0 -92 -14q-23 -12 -23 -53v-387q0 -25 12 -31t56 -6q73 0 103 20t42 74q13 57 21 72.5t30 15.5q19 0 27 -13t8 -46q0 -26 -4 -83t-4 -83q0 -31 4 -98t4 -95
q0 -45 -37 -45q-18 0 -27 16t-20 60q-19 76 -46 100.5t-91 24.5q-48 0 -63 -7t-15 -28v-428q0 -56 29.5 -77t105.5 -21q114 0 170 55.5t90 181.5q14 47 28 66.5t36 19.5q20 0 28 -12q13 -29 13 -156q-3 -115 -6 -182q-3 -35 -13.5 -44t-40.5 -9q-77 0 -245 4q-42 0 -122 1
t-118 1q-66 0 -177.5 -4t-148.5 -4q-32 0 -46.5 8.5t-14.5 30.5q0 18 13 27t42 14q49 7 65.5 28.5t16.5 77.5zM344 1407h-2q-47 0 -80 36.5t-33 86.5q0 51 33 86t82 35t83 -35.5t34 -85.5q0 -51 -34 -87t-83 -36zM713 1407h-2q-49 0 -82 36.5t-33 86.5q0 51 33 86t84 35
q49 0 81.5 -35.5t32.5 -85.5q0 -52 -32.5 -87.5t-81.5 -35.5z" />
    <glyph glyph-name="Igrave" unicode="&#xcc;" horiz-adv-x="677" 
d="M485 1114v-938q0 -54 13 -76t49 -28q28 -5 41 -8.5t24 -12.5t11 -24q0 -22 -15.5 -28.5t-44.5 -6.5q-12 0 -75 4t-144 4q-82 0 -148 -4t-81 -4q-19 0 -29 1t-20.5 10t-10.5 26q0 12 10 20.5t19.5 11t35.5 8.5q9 2 13 3q38 6 47.5 24t9.5 76v942q0 54 -10.5 71.5
t-42.5 22.5q-62 10 -71 17q-11 8 -11 26q0 37 62 37q25 0 95.5 -4t129.5 -4q61 0 130.5 4t92.5 4q58 0 58 -39q0 -19 -13.5 -25.5t-55.5 -13.5q-7 -1 -11 -2q-33 -5 -45.5 -25t-12.5 -69zM504 1401v-2q0 -8 -7 -14.5t-16 -6.5q-21 0 -92 43l-268 150q-43 27 -64.5 51.5
t-21.5 56.5q0 35 23.5 57.5t56.5 22.5q38 0 70.5 -21t70.5 -63l211 -219q37 -42 37 -55z" />
    <glyph glyph-name="Iacute" unicode="&#xcd;" horiz-adv-x="677" 
d="M485 1114v-938q0 -54 13 -76t49 -28q28 -5 41 -8.5t24 -12.5t11 -24q0 -22 -15.5 -28.5t-44.5 -6.5q-12 0 -75 4t-144 4q-82 0 -148 -4t-81 -4q-19 0 -29 1t-20.5 10t-10.5 26q0 12 10 20.5t19.5 11t35.5 8.5q9 2 13 3q38 6 47.5 24t9.5 76v942q0 54 -10.5 71.5
t-42.5 22.5q-62 10 -71 17q-11 8 -11 26q0 37 62 37q25 0 95.5 -4t129.5 -4q61 0 130.5 4t92.5 4q58 0 58 -39q0 -19 -13.5 -25.5t-55.5 -13.5q-7 -1 -11 -2q-33 -5 -45.5 -25t-12.5 -69zM195 1374h-2q-9 0 -15 7t-6 16q0 12 35 53l213 221q39 43 70 63.5t69 20.5
q35 0 58.5 -22.5t23.5 -55.5q0 -58 -88 -110l-268 -152q-70 -41 -90 -41z" />
    <glyph glyph-name="Icircumflex" unicode="&#xce;" horiz-adv-x="677" 
d="M485 1114v-938q0 -54 13 -76t49 -28q28 -5 41 -8.5t24 -12.5t11 -24q0 -22 -15.5 -28.5t-44.5 -6.5q-12 0 -75 4t-144 4q-82 0 -148 -4t-81 -4q-19 0 -29 1t-20.5 10t-10.5 26q0 12 10 20.5t19.5 11t35.5 8.5q9 2 13 3q38 6 47.5 24t9.5 76v942q0 54 -10.5 71.5
t-42.5 22.5q-62 10 -71 17q-11 8 -11 26q0 37 62 37q25 0 95.5 -4t129.5 -4q61 0 130.5 4t92.5 4q58 0 58 -39q0 -19 -13.5 -25.5t-55.5 -13.5q-7 -1 -11 -2q-33 -5 -45.5 -25t-12.5 -69zM299 1743h82q45 0 72 -37l176 -270q20 -30 20 -45q0 -17 -31 -17q-24 0 -65 33
l-213 192l-215 -192q-37 -33 -66 -33q-28 0 -28 17q0 15 20 45l176 270q24 37 72 37z" />
    <glyph glyph-name="Idieresis" unicode="&#xcf;" horiz-adv-x="677" 
d="M485 1114v-938q0 -54 13 -76t49 -28q28 -5 41 -8.5t24 -12.5t11 -24q0 -22 -15.5 -28.5t-44.5 -6.5q-12 0 -75 4t-144 4q-82 0 -148 -4t-81 -4q-19 0 -29 1t-20.5 10t-10.5 26q0 12 10 20.5t19.5 11t35.5 8.5q9 2 13 3q38 6 47.5 24t9.5 76v942q0 54 -10.5 71.5
t-42.5 22.5q-62 10 -71 17q-11 8 -11 26q0 37 62 37q25 0 95.5 -4t129.5 -4q61 0 130.5 4t92.5 4q58 0 58 -39q0 -19 -13.5 -25.5t-55.5 -13.5q-7 -1 -11 -2q-33 -5 -45.5 -25t-12.5 -69zM156 1407h-2q-47 0 -81 36.5t-34 86.5q0 51 33 86t84 35q49 0 82.5 -35.5t33.5 -85.5
q0 -51 -33.5 -87t-82.5 -36zM524 1407h-2q-49 0 -81.5 36.5t-32.5 86.5q0 52 32.5 86.5t83.5 34.5q47 0 81 -35.5t34 -85.5q0 -51 -34 -87t-81 -36z" />
    <glyph glyph-name="Eth" unicode="&#xd0;" horiz-adv-x="1245" 
d="M174 731v387q0 37 -11 53.5t-42 20.5h-66q-17 0 -26 8.5t-9 20.5q0 19 19 30t72 23q157 37 407 37q318 0 486 -168q182 -173 182 -492q0 -143 -33.5 -261t-101 -208t-178 -140t-255.5 -50q-47 0 -158 4t-163 4q-43 0 -120 -4t-109 -4q-39 0 -39 37q0 22 13.5 30t51.5 13
q47 6 63.5 30.5t16.5 90.5v448h-133q-13 0 -17 3t-4 15v54q0 10 4.5 14t16.5 4h133zM469 641v-442q0 -65 24.5 -97t88.5 -32q146 0 211 178q59 130 59 389q0 303 -81 446.5t-214 143.5q-52 0 -70 -19t-18 -75v-402h195q12 0 16 -3.5t4 -14.5v-54q0 -12 -4 -15t-16 -3h-195z
" />
    <glyph glyph-name="Ntilde" unicode="&#xd1;" horiz-adv-x="1175" 
d="M160 168v962q0 43 -15 60t-49 20q-23 2 -34.5 5t-20 11t-8.5 23q0 25 18 32t49 7q23 0 80.5 -3t89.5 -3q29 0 84.5 3t69.5 3q5 0 9 -0.5t7.5 -2.5t6.5 -3t6.5 -5.5t5.5 -6.5t6 -8.5t5.5 -9.5t6.5 -12t8 -13q378 -667 414 -729q19 -32 27 -35q8 3 8 22v611q0 62 -14 85.5
t-48 26.5q-75 10 -75 43q0 18 11.5 27.5t27.5 9.5q8 0 55 -4t92 -4q29 0 70 4t55 4q43 0 43 -35q0 -16 -12.5 -25.5t-25 -13t-40.5 -8.5q-30 -3 -42.5 -25t-12.5 -67v-1106q0 -29 -12 -36t-66 -7q-49 0 -65 11.5t-41 56.5q-8 14 -25 42.5t-25 43.5q-22 39 -211.5 370.5
t-285.5 505.5q-21 41 -31 43q-12 -6 -12 -30v-777q0 -85 15 -120t52 -43q9 -2 29.5 -5.5t30 -6t18 -11t8.5 -22.5q0 -18 -11 -24.5t-34 -6.5q-7 0 -53 4t-94 4q-46 0 -92.5 -4t-57.5 -4q-35 0 -35 26q0 10 5.5 17.5t16 12.5t19.5 8t23 6.5t20 5.5q34 10 45 30.5t11 69.5z
M719 1417h-2q-56 0 -156 60q-96 59 -139 59q-30 0 -50 -16.5t-28.5 -36.5t-21 -36.5t-29.5 -16.5t-24.5 12t-4.5 31q7 72 63.5 136t147.5 64q62 0 162 -59q77 -48 110 -57q13 -3 25 -3q30 0 50.5 16.5t29 37t21 37t28.5 16.5q32 0 29 -43q-7 -73 -63.5 -137t-147.5 -64z" />
    <glyph glyph-name="Ograve" unicode="&#xd2;" horiz-adv-x="1251" 
d="M55 655v2q0 134 45.5 256t122 209.5t182 139t220.5 51.5q169 0 301 -98t200 -252.5t68 -333.5q0 -180 -74.5 -332t-205.5 -241t-289 -89q-121 0 -228 56t-181.5 150t-117.5 220t-43 262zM858 530v2q0 352 -71.5 527.5t-180.5 175.5q-94 0 -153.5 -122t-59.5 -368
q0 -179 20 -316t55 -218.5t79 -122.5t96 -41q93 0 154 123.5t61 359.5zM784 1401v-2q0 -8 -5.5 -14.5t-14.5 -6.5q-21 0 -92 43l-269 150q-44 27 -66 51t-22 57q0 34 24.5 57t57.5 23q66 0 140 -84l213 -219q2 -3 10 -12.5t12 -15.5t8 -13.5t4 -13.5z" />
    <glyph glyph-name="Oacute" unicode="&#xd3;" horiz-adv-x="1251" 
d="M55 655v2q0 134 45.5 256t122 209.5t182 139t220.5 51.5q169 0 301 -98t200 -252.5t68 -333.5q0 -180 -74.5 -332t-205.5 -241t-289 -89q-121 0 -228 56t-181.5 150t-117.5 220t-43 262zM858 530v2q0 352 -71.5 527.5t-180.5 175.5q-94 0 -153.5 -122t-59.5 -368
q0 -179 20 -316t55 -218.5t79 -122.5t96 -41q93 0 154 123.5t61 359.5zM489 1374h-2q-8 0 -14 7t-6 16q0 16 37 53l211 221q39 43 70 63.5t69 20.5q35 0 58.5 -22.5t23.5 -55.5q0 -59 -86 -110l-268 -152q-73 -41 -93 -41z" />
    <glyph glyph-name="Ocircumflex" unicode="&#xd4;" horiz-adv-x="1251" 
d="M55 655v2q0 134 45.5 256t122 209.5t182 139t220.5 51.5q169 0 301 -98t200 -252.5t68 -333.5q0 -180 -74.5 -332t-205.5 -241t-289 -89q-121 0 -228 56t-181.5 150t-117.5 220t-43 262zM858 530v2q0 352 -71.5 527.5t-180.5 175.5q-94 0 -153.5 -122t-59.5 -368
q0 -179 20 -316t55 -218.5t79 -122.5t96 -41q93 0 154 123.5t61 359.5zM586 1743h82q44 0 71 -37l176 -270q21 -32 21 -45q0 -17 -31 -17q-24 0 -65 33l-213 192l-215 -192q-37 -33 -66 -33t-29 17q0 13 21 45l176 270q24 37 72 37z" />
    <glyph glyph-name="Otilde" unicode="&#xd5;" horiz-adv-x="1251" 
d="M55 655v2q0 134 45.5 256t122 209.5t182 139t220.5 51.5q169 0 301 -98t200 -252.5t68 -333.5q0 -180 -74.5 -332t-205.5 -241t-289 -89q-121 0 -228 56t-181.5 150t-117.5 220t-43 262zM858 530v2q0 352 -71.5 527.5t-180.5 175.5q-94 0 -153.5 -122t-59.5 -368
q0 -179 20 -316t55 -218.5t79 -122.5t96 -41q93 0 154 123.5t61 359.5zM748 1417h-3q-55 0 -155 60q-33 21 -49 30t-42.5 19t-47.5 10q-30 0 -50 -16.5t-28 -36.5t-20.5 -36.5t-28.5 -16.5q-34 0 -31 43q7 72 63.5 136t147.5 64q62 0 162 -59q96 -60 135 -60q30 0 50.5 16.5
t29 37t21 37t28.5 16.5q35 0 28 -43q-5 -72 -62 -136.5t-148 -64.5z" />
    <glyph glyph-name="Odieresis" unicode="&#xd6;" horiz-adv-x="1251" 
d="M55 655v2q0 134 45.5 256t122 209.5t182 139t220.5 51.5q169 0 301 -98t200 -252.5t68 -333.5q0 -180 -74.5 -332t-205.5 -241t-289 -89q-121 0 -228 56t-181.5 150t-117.5 220t-43 262zM858 530v2q0 352 -71.5 527.5t-180.5 175.5q-94 0 -153.5 -122t-59.5 -368
q0 -179 20 -316t55 -218.5t79 -122.5t96 -41q93 0 154 123.5t61 359.5zM442 1407h-2q-47 0 -80.5 36.5t-33.5 86.5q0 52 32.5 86.5t83.5 34.5q49 0 83 -35.5t34 -85.5q0 -51 -34 -87t-83 -36zM811 1407h-2q-49 0 -82 36.5t-33 86.5q0 51 33 86t84 35q47 0 81 -35.5t34 -85.5
q0 -51 -34 -87t-81 -36z" />
    <glyph glyph-name="multiply" unicode="&#xd7;" horiz-adv-x="1222" 
d="M489 518l-362 361l123 122l360 -362l363 362l123 -122l-365 -361l365 -360l-123 -123l-363 362l-360 -362l-123 123z" />
    <glyph glyph-name="Oslash" unicode="&#xd8;" horiz-adv-x="1251" 
d="M428 365l358 682q-30 93 -77 140.5t-103 47.5q-94 0 -153.5 -121t-59.5 -366q0 -208 35 -383zM821 915l-356 -682q27 -88 75 -137t103 -49q93 0 154 121.5t61 363.5q0 195 -37 383zM328 72l-125 -228q-15 -28 -37 -28h-57q-23 0 -23 10q0 7 20 43l146 264
q-91 92 -144 230.5t-53 291.5q0 135 45.5 257t122 210t182 139.5t220.5 51.5q163 0 299 -103l125 226q9 17 15.5 22.5t18.5 5.5h56q24 0 24 -8q0 -11 -20 -43l-146 -264q93 -92 145 -230t52 -290q0 -180 -74.5 -332t-205.5 -241t-289 -89q-164 0 -297 105z" />
    <glyph glyph-name="Ugrave" unicode="&#xd9;" horiz-adv-x="1165" 
d="M446 1102v-783q0 -126 46 -192q61 -80 184 -80q153 0 217 100q45 67 45 195v735q0 74 -19 101t-65 32q-23 3 -32.5 4.5t-20 10.5t-10.5 24q0 39 45 39q15 0 59.5 -4t75.5 -4q34 0 81.5 4t59.5 4q39 0 39 -37q0 -6 -1.5 -11.5t-5.5 -9.5t-7.5 -6.5t-11 -5.5t-11.5 -4
t-14.5 -4t-14.5 -4q-40 -9 -50.5 -30.5t-10.5 -90.5v-718q0 -197 -92 -289q-103 -111 -336 -111q-198 0 -311 78q-135 85 -135 274v795q0 55 -12.5 74t-47.5 24q-47 8 -56 17q-9 8 -9 22q0 37 55 37q33 0 109 -4t120 -4q49 0 123 4t100 4q19 0 30.5 -1.5t21.5 -10.5t10 -25
q0 -20 -17 -28t-59 -15q-43 -5 -57.5 -25t-14.5 -81zM766 1401v-2q0 -8 -6.5 -14.5t-16.5 -6.5q-21 0 -92 43l-268 150q-43 27 -64.5 51.5t-21.5 56.5q0 35 23.5 57.5t56.5 22.5q38 0 70.5 -21t70.5 -63l211 -219q37 -42 37 -55z" />
    <glyph glyph-name="Uacute" unicode="&#xda;" horiz-adv-x="1165" 
d="M446 1102v-783q0 -126 46 -192q61 -80 184 -80q153 0 217 100q45 67 45 195v735q0 74 -19 101t-65 32q-23 3 -32.5 4.5t-20 10.5t-10.5 24q0 39 45 39q15 0 59.5 -4t75.5 -4q34 0 81.5 4t59.5 4q39 0 39 -37q0 -6 -1.5 -11.5t-5.5 -9.5t-7.5 -6.5t-11 -5.5t-11.5 -4
t-14.5 -4t-14.5 -4q-40 -9 -50.5 -30.5t-10.5 -90.5v-718q0 -197 -92 -289q-103 -111 -336 -111q-198 0 -311 78q-135 85 -135 274v795q0 55 -12.5 74t-47.5 24q-47 8 -56 17q-9 8 -9 22q0 37 55 37q33 0 109 -4t120 -4q49 0 123 4t100 4q19 0 30.5 -1.5t21.5 -10.5t10 -25
q0 -20 -17 -28t-59 -15q-43 -5 -57.5 -25t-14.5 -81zM524 1374h-2q-9 0 -14.5 7t-5.5 16q0 12 35 53l213 221q39 43 70 63.5t69 20.5q35 0 58.5 -22.5t23.5 -55.5q0 -60 -88 -110l-267 -152q-73 -41 -92 -41z" />
    <glyph glyph-name="Ucircumflex" unicode="&#xdb;" horiz-adv-x="1165" 
d="M446 1102v-783q0 -126 46 -192q61 -80 184 -80q153 0 217 100q45 67 45 195v735q0 74 -19 101t-65 32q-23 3 -32.5 4.5t-20 10.5t-10.5 24q0 39 45 39q15 0 59.5 -4t75.5 -4q34 0 81.5 4t59.5 4q39 0 39 -37q0 -6 -1.5 -11.5t-5.5 -9.5t-7.5 -6.5t-11 -5.5t-11.5 -4
t-14.5 -4t-14.5 -4q-40 -9 -50.5 -30.5t-10.5 -90.5v-718q0 -197 -92 -289q-103 -111 -336 -111q-198 0 -311 78q-135 85 -135 274v795q0 55 -12.5 74t-47.5 24q-47 8 -56 17q-9 8 -9 22q0 37 55 37q33 0 109 -4t120 -4q49 0 123 4t100 4q19 0 30.5 -1.5t21.5 -10.5t10 -25
q0 -20 -17 -28t-59 -15q-43 -5 -57.5 -25t-14.5 -81zM575 1743h80q48 0 72 -37l176 -270q21 -32 21 -45q0 -17 -29 -17t-66 33l-215 192l-213 -192q-41 -33 -65 -33q-31 0 -31 17q0 15 23 45l176 270q14 22 30 29.5t41 7.5z" />
    <glyph glyph-name="Udieresis" unicode="&#xdc;" horiz-adv-x="1165" 
d="M446 1102v-783q0 -126 46 -192q61 -80 184 -80q153 0 217 100q45 67 45 195v735q0 74 -19 101t-65 32q-23 3 -32.5 4.5t-20 10.5t-10.5 24q0 39 45 39q15 0 59.5 -4t75.5 -4q34 0 81.5 4t59.5 4q39 0 39 -37q0 -6 -1.5 -11.5t-5.5 -9.5t-7.5 -6.5t-11 -5.5t-11.5 -4
t-14.5 -4t-14.5 -4q-40 -9 -50.5 -30.5t-10.5 -90.5v-718q0 -197 -92 -289q-103 -111 -336 -111q-198 0 -311 78q-135 85 -135 274v795q0 55 -12.5 74t-47.5 24q-47 8 -56 17q-9 8 -9 22q0 37 55 37q33 0 109 -4t120 -4q49 0 123 4t100 4q19 0 30.5 -1.5t21.5 -10.5t10 -25
q0 -20 -17 -28t-59 -15q-43 -5 -57.5 -25t-14.5 -81zM438 1407h-2q-47 0 -79.5 36.5t-32.5 86.5q0 51 32.5 86t81.5 35t83 -35.5t34 -85.5q0 -51 -34 -87t-83 -36zM807 1407h-2q-47 0 -81 36.5t-34 86.5q0 51 33 86t84 35q49 0 82 -35.5t33 -85.5q0 -51 -33 -87t-82 -36z
" />
    <glyph glyph-name="Yacute" unicode="&#xdd;" horiz-adv-x="1024" 
d="M367 174v350q0 43 -29 97q-185 415 -223 497q-24 48 -46 65.5t-55 24.5q-4 1 -13 3t-12 3t-9.5 3.5t-9 4.5t-6 5.5t-4.5 7.5t-1 10q0 21 15 32t38 11q36 0 102 -4t119 -4q67 0 151 4t101 4q43 0 43 -35q0 -14 -9 -23t-17.5 -11.5t-28.5 -6.5q-20 -5 -29.5 -8.5t-17.5 -13
t-8 -25.5q0 -5 1 -11.5t4.5 -17t7.5 -20.5t12 -29.5t14.5 -36t20 -48.5t24.5 -58q39 -97 64 -150.5t36 -69t19 -15.5q13 0 30.5 33t77.5 165q94 210 94 246q0 28 -16 39t-53 18q-41 9 -49 20q-5 7 -5 17q0 41 58 41q23 0 68.5 -4t70.5 -4q30 0 71 4t56 4q41 0 41 -37
q0 -5 -0.5 -9t-1.5 -7.5t-3.5 -6t-3.5 -4.5t-5 -4t-5.5 -3t-7 -2.5t-7.5 -2t-8.5 -2t-8.5 -2.5q-67 -16 -111 -110q-103 -229 -205 -434q-24 -53 -31.5 -77.5t-7.5 -51.5v-375q0 -48 16 -68.5t52 -25.5q4 -1 16 -2.5t16.5 -2.5t13 -4t12.5 -6.5t7 -9.5t3 -14q0 -21 -13 -28
t-43 -7q-20 0 -90 4t-125 4q-62 0 -144 -4t-104 -4q-51 0 -51 33q0 19 16 29.5t60 17.5q39 5 52.5 24t13.5 78zM449 1374h-3q-8 0 -14 7t-6 16q0 16 37 53l211 221q39 43 70 63.5t69 20.5q35 0 58.5 -22.5t23.5 -55.5q0 -59 -86 -110l-268 -152q-73 -41 -92 -41z" />
    <glyph glyph-name="Thorn" unicode="&#xde;" horiz-adv-x="1105" 
d="M471 276v-114q0 -46 12 -66.5t41 -23.5q9 -1 23 -3.5t21 -3.5t17 -3.5t14.5 -5t9.5 -6.5t7 -9t2 -12q0 -23 -16 -30t-47 -7q-15 0 -81 4t-142 4q-78 0 -145 -4t-83 -4q-28 0 -40.5 6t-12.5 29q0 22 15 30.5t61 14.5q29 3 39 23.5t10 72.5v954q0 49 -13.5 68t-45.5 22
q-25 3 -35 5t-18.5 9.5t-8.5 22.5q0 39 39 39q19 0 99.5 -4t134.5 -4q62 0 131.5 4t91.5 4q28 0 43.5 -7.5t15.5 -31.5q0 -18 -14 -25t-54 -14q-8 -1 -12 -2q-59 -9 -59 -73v-91q0 -14 5 -17.5t22 -2.5q135 6 153 6q189 0 298.5 -104t109.5 -283q0 -153 -101.5 -256.5
t-255.5 -103.5q-31 0 -56.5 3t-63.5 10.5t-41 8.5q-32 8 -39 8q-18 0 -24.5 -8.5t-6.5 -28.5zM471 879v-416q0 -39 18 -57q25 -25 76 -25q84 0 135.5 70.5t51.5 199.5q0 147 -54.5 224t-144.5 77q-47 0 -64.5 -17t-17.5 -56z" />
    <glyph glyph-name="germandbls" unicode="&#xdf;" horiz-adv-x="1163" 
d="M420 1030v-952q0 -53 -7 -69.5t-38 -16.5q-24 0 -70 4t-72 4q-42 0 -91.5 -4t-63.5 -4q-51 0 -51 33q0 18 11.5 26.5t35.5 11.5q50 7 64 29t14 82v588q0 29 -12.5 37t-43.5 8q-34 2 -47.5 8.5t-13.5 28.5q0 32 56 52q5 2 7 3q56 20 64 82q22 216 137.5 341.5t302.5 125.5
q192 0 307 -90t115 -244q0 -90 -37 -141t-100 -80q-16 -7 -40 -15.5t-38.5 -14t-29.5 -13t-22 -17.5t-7 -22q0 -22 23.5 -40.5t77.5 -46.5t85 -48q84 -55 135 -136t51 -210q0 -158 -100.5 -255.5t-269.5 -97.5q-125 0 -191 39q-18 9 -27.5 25t-11 26.5t-2.5 36.5v166
q0 45 10.5 63.5t32.5 18.5q27 0 45.5 -30t30 -73.5t24.5 -86.5t36.5 -73t58.5 -30q119 0 119 174q0 53 -19 98.5t-48.5 78.5t-66 62.5t-73 58t-66 58.5t-48.5 69.5t-19 84.5q0 26 6 47t12 33.5t24 27t27 20.5t35 22q56 34 83.5 84.5t27.5 132.5q0 123 -42 187.5t-122 64.5
q-88 0 -128 -77t-40 -255z" />
    <glyph glyph-name="agrave" unicode="&#xe0;" horiz-adv-x="962" 
d="M547 637v133q0 109 -72 109q-48 0 -79 -37.5t-56 -106.5q-36 -97 -115 -139q-39 -25 -84 -25q-78 0 -78 74q0 50 33.5 104t92 99.5t147.5 74.5t190 29q154 0 222 -45q38 -24 52.5 -60t14.5 -95v-539q0 -72 49 -72q37 0 56 27q2 3 8 13t10.5 14t9.5 4q19 0 19 -39
q0 -57 -67.5 -122t-156.5 -65q-17 0 -32.5 3.5t-27 7t-23.5 12.5t-18.5 13.5t-16.5 17.5t-12.5 16.5t-12 18.5t-10.5 16q-18 28 -29 28q-6 0 -19.5 -9.5t-38 -28t-44.5 -31.5q-99 -68 -199 -68q-86 0 -140 54t-54 145q0 86 59 156t201 145q40 23 143 76q46 23 62 40.5
t16 51.5zM334 219v-2q0 -51 22.5 -77.5t63.5 -26.5q53 0 96 49q31 36 31 88v215q0 29 -15 29q-11 0 -36 -19q-44 -27 -95 -88q-67 -81 -67 -168zM653 1081v-2q0 -20 -22 -20q-20 0 -90 41l-269 151q-88 50 -88 109q0 33 24.5 56.5t57.5 23.5q38 0 69.5 -21t70.5 -63
l212 -221q35 -41 35 -54z" />
    <glyph glyph-name="aacute" unicode="&#xe1;" horiz-adv-x="962" 
d="M547 637v133q0 109 -72 109q-48 0 -79 -37.5t-56 -106.5q-36 -97 -115 -139q-39 -25 -84 -25q-78 0 -78 74q0 50 33.5 104t92 99.5t147.5 74.5t190 29q154 0 222 -45q38 -24 52.5 -60t14.5 -95v-539q0 -72 49 -72q37 0 56 27q2 3 8 13t10.5 14t9.5 4q19 0 19 -39
q0 -57 -67.5 -122t-156.5 -65q-17 0 -32.5 3.5t-27 7t-23.5 12.5t-18.5 13.5t-16.5 17.5t-12.5 16.5t-12 18.5t-10.5 16q-18 28 -29 28q-6 0 -19.5 -9.5t-38 -28t-44.5 -31.5q-99 -68 -199 -68q-86 0 -140 54t-54 145q0 86 59 156t201 145q40 23 143 76q46 23 62 40.5
t16 51.5zM334 219v-2q0 -51 22.5 -77.5t63.5 -26.5q53 0 96 49q31 36 31 88v215q0 29 -15 29q-11 0 -36 -19q-44 -27 -95 -88q-67 -81 -67 -168zM336 1053h-2q-8 0 -13.5 7t-5.5 17q0 12 35 53l213 220q36 43 68.5 64.5t70.5 21.5q34 0 58 -24t24 -56q0 -61 -88 -109
l-268 -151q-77 -43 -92 -43z" />
    <glyph glyph-name="acircumflex" unicode="&#xe2;" horiz-adv-x="962" 
d="M547 637v133q0 109 -72 109q-48 0 -79 -37.5t-56 -106.5q-36 -97 -115 -139q-39 -25 -84 -25q-78 0 -78 74q0 50 33.5 104t92 99.5t147.5 74.5t190 29q154 0 222 -45q38 -24 52.5 -60t14.5 -95v-539q0 -72 49 -72q37 0 56 27q2 3 8 13t10.5 14t9.5 4q19 0 19 -39
q0 -57 -67.5 -122t-156.5 -65q-17 0 -32.5 3.5t-27 7t-23.5 12.5t-18.5 13.5t-16.5 17.5t-12.5 16.5t-12 18.5t-10.5 16q-18 28 -29 28q-6 0 -19.5 -9.5t-38 -28t-44.5 -31.5q-99 -68 -199 -68q-86 0 -140 54t-54 145q0 86 59 156t201 145q40 23 143 76q46 23 62 40.5
t16 51.5zM334 219v-2q0 -51 22.5 -77.5t63.5 -26.5q53 0 96 49q31 36 31 88v215q0 29 -15 29q-11 0 -36 -19q-44 -27 -95 -88q-67 -81 -67 -168zM438 1421h80q50 0 72 -37l176 -268q20 -33 20 -47q0 -16 -28 -16q-32 0 -66 34l-215 191l-213 -191q-38 -34 -65 -34
q-31 0 -31 16t22 47l177 268q14 23 29.5 30t41.5 7z" />
    <glyph glyph-name="atilde" unicode="&#xe3;" horiz-adv-x="962" 
d="M547 637v133q0 109 -72 109q-48 0 -79 -37.5t-56 -106.5q-36 -97 -115 -139q-39 -25 -84 -25q-78 0 -78 74q0 50 33.5 104t92 99.5t147.5 74.5t190 29q154 0 222 -45q38 -24 52.5 -60t14.5 -95v-539q0 -72 49 -72q37 0 56 27q2 3 8 13t10.5 14t9.5 4q19 0 19 -39
q0 -57 -67.5 -122t-156.5 -65q-17 0 -32.5 3.5t-27 7t-23.5 12.5t-18.5 13.5t-16.5 17.5t-12.5 16.5t-12 18.5t-10.5 16q-18 28 -29 28q-6 0 -19.5 -9.5t-38 -28t-44.5 -31.5q-99 -68 -199 -68q-86 0 -140 54t-54 145q0 86 59 156t201 145q40 23 143 76q46 23 62 40.5
t16 51.5zM334 219v-2q0 -51 22.5 -77.5t63.5 -26.5q53 0 96 49q31 36 31 88v215q0 29 -15 29q-11 0 -36 -19q-44 -27 -95 -88q-67 -81 -67 -168zM600 1098h-2q-64 0 -156 59q-6 3 -23 13.5t-25 14.5t-22.5 11.5t-24 11t-22 6.5t-22.5 3q-30 0 -50.5 -16.5t-29 -37t-21 -37
t-28.5 -16.5q-34 0 -31 43q9 73 65.5 136t147.5 63q63 0 160 -60q3 -2 15 -9t16 -9.5t15 -9t16 -8.5t14.5 -7t16 -7t15 -4.5t15.5 -3.5t14 -1q29 0 49 17t28.5 37t21.5 37t30 17q32 0 29 -45q-7 -72 -64 -135t-147 -63z" />
    <glyph glyph-name="adieresis" unicode="&#xe4;" horiz-adv-x="962" 
d="M547 637v133q0 109 -72 109q-48 0 -79 -37.5t-56 -106.5q-36 -97 -115 -139q-39 -25 -84 -25q-78 0 -78 74q0 50 33.5 104t92 99.5t147.5 74.5t190 29q154 0 222 -45q38 -24 52.5 -60t14.5 -95v-539q0 -72 49 -72q37 0 56 27q2 3 8 13t10.5 14t9.5 4q19 0 19 -39
q0 -57 -67.5 -122t-156.5 -65q-17 0 -32.5 3.5t-27 7t-23.5 12.5t-18.5 13.5t-16.5 17.5t-12.5 16.5t-12 18.5t-10.5 16q-18 28 -29 28q-6 0 -19.5 -9.5t-38 -28t-44.5 -31.5q-99 -68 -199 -68q-86 0 -140 54t-54 145q0 86 59 156t201 145q40 23 143 76q46 23 62 40.5
t16 51.5zM334 219v-2q0 -51 22.5 -77.5t63.5 -26.5q53 0 96 49q31 36 31 88v215q0 29 -15 29q-11 0 -36 -19q-44 -27 -95 -88q-67 -81 -67 -168zM293 1087h-2q-47 0 -80 35.5t-33 85.5q0 51 33 87t82 36t83 -36.5t34 -86.5q0 -51 -34 -86t-83 -35zM662 1087h-3
q-49 0 -81.5 35.5t-32.5 85.5q0 52 33.5 87.5t83.5 35.5q49 0 81.5 -36.5t32.5 -86.5q0 -51 -33.5 -86t-80.5 -35z" />
    <glyph glyph-name="aring" unicode="&#xe5;" horiz-adv-x="962" 
d="M547 637v133q0 109 -72 109q-48 0 -79 -37.5t-56 -106.5q-36 -97 -115 -139q-39 -25 -84 -25q-78 0 -78 74q0 50 33.5 104t92 99.5t147.5 74.5t190 29q154 0 222 -45q38 -24 52.5 -60t14.5 -95v-539q0 -72 49 -72q37 0 56 27q2 3 8 13t10.5 14t9.5 4q19 0 19 -39
q0 -57 -67.5 -122t-156.5 -65q-17 0 -32.5 3.5t-27 7t-23.5 12.5t-18.5 13.5t-16.5 17.5t-12.5 16.5t-12 18.5t-10.5 16q-18 28 -29 28q-6 0 -19.5 -9.5t-38 -28t-44.5 -31.5q-99 -68 -199 -68q-86 0 -140 54t-54 145q0 86 59 156t201 145q40 23 143 76q46 23 62 40.5
t16 51.5zM334 219v-2q0 -51 22.5 -77.5t63.5 -26.5q53 0 96 49q31 36 31 88v215q0 29 -15 29q-11 0 -36 -19q-44 -27 -95 -88q-67 -81 -67 -168zM479 1055h-2q-86 0 -148.5 62.5t-62.5 150.5q0 89 62.5 152t150.5 63q89 0 152 -63t63 -152q0 -88 -63 -150.5t-152 -62.5z
M479 1147h2q48 0 83.5 36t35.5 85q0 51 -35.5 87t-85.5 36t-85.5 -36t-35.5 -87q0 -50 36 -85.5t85 -35.5z" />
    <glyph glyph-name="ae" unicode="&#xe6;" horiz-adv-x="1337" 
d="M1210 506h-368q-26 0 -35.5 -13t-9.5 -42q0 -136 61.5 -237t163.5 -101q36 0 65.5 9.5t51 28t34.5 34.5t29 40l12.5 20t9 12.5t11 10.5t10.5 2q29 0 29 -37q0 -32 -25 -90q-36 -74 -110 -124t-193 -50q-47 0 -88 9t-67 20t-52.5 31t-38 32t-29.5 34t-22 26q-6 -5 -28 -25
t-37.5 -33t-47 -32.5t-62 -31.5t-76.5 -21t-97 -9q-129 0 -192.5 56.5t-63.5 154.5q0 44 17.5 83.5t53 74t73.5 61.5t94 60q21 11 190 94q27 13 36.5 26t12.5 37q4 25 4 97q-3 166 -84 166q-74 0 -125 -144q-33 -91 -106 -133q-48 -31 -94 -31q-78 0 -78 74q0 51 36 105.5
t94 98.5t136 72.5t156 28.5q150 0 215 -110q93 110 270 110q148 0 248 -88t100 -246q0 -72 -14.5 -91t-69.5 -19zM803 639v-2q0 -27 11 -40t46 -13q70 0 139 32q64 34 64 117q0 64 -25.5 100.5t-74.5 36.5q-68 0 -114 -71.5t-46 -159.5zM406 104h2q54 0 85 37.5t31 96.5
q2 59 2 180q0 41 -3.5 55t-14.5 14q-14 0 -45 -22q-148 -110 -148 -254q0 -107 91 -107z" />
    <glyph glyph-name="ccedilla" unicode="&#xe7;" horiz-adv-x="794" 
d="M43 428v2q0 226 138 373t337 147q53 0 111 -12t94 -35q30 -19 38 -35t11 -53q2 -25 2 -78q0 -48 -6 -75q-4 -30 -17 -43t-38 -13q-15 0 -26.5 7t-21.5 24t-17 31t-18.5 43.5t-19.5 46.5q-25 57 -46 81.5t-56 24.5q-71 0 -124.5 -100t-53.5 -252q0 -194 67 -294.5
t164 -100.5q85 0 141 88q5 7 13.5 21.5t13 21t11 14.5t12 11t12.5 3q14 0 21.5 -10.5t7.5 -25.5q0 -39 -19 -82.5t-55 -84.5t-99 -69.5t-141 -32.5l-49 -96q32 4 45 4q87 0 145 -38.5t58 -108.5t-62.5 -119t-164.5 -49q-42 0 -85.5 8.5t-80.5 32.5t-37 59q0 53 45 53
q23 0 40 -14.5t26 -32.5t30 -32.5t51 -14.5q41 0 71 25.5t30 62.5q0 47 -29 71.5t-76 24.5q-22 0 -53 -5t-41 -5q-11 0 -18 6.5t-7 16.5q0 14 15 39l57 118q-157 22 -251.5 144t-94.5 307z" />
    <glyph glyph-name="egrave" unicode="&#xe8;" horiz-adv-x="868" 
d="M741 504h-352q-34 0 -46.5 -13.5t-12.5 -44.5q0 -83 26 -157.5t79.5 -125t123.5 -50.5q109 0 174 104q3 4 7.5 12.5t6.5 12t6 10t6.5 9t5.5 6t6.5 4.5t6.5 1q31 0 31 -41q0 -43 -45 -110q-42 -67 -118.5 -109.5t-182.5 -42.5q-126 0 -223 64.5t-147 171t-50 235.5
q0 236 120.5 373t311.5 137q156 0 250 -92.5t94 -245.5q0 -73 -13 -90.5t-65 -17.5zM334 637v-2q0 -30 11 -42.5t44 -12.5q49 0 92 16q78 23 99 66q18 24 18 71q0 61 -28 100t-78 39q-47 0 -84.5 -39t-55.5 -92t-18 -104zM596 1081v-2q0 -20 -23 -20q-20 0 -90 41l-268 151
q-88 50 -88 109q0 33 24.5 56.5t57.5 23.5q38 0 69 -20.5t70 -63.5l213 -221q35 -41 35 -54z" />
    <glyph glyph-name="eacute" unicode="&#xe9;" horiz-adv-x="868" 
d="M741 504h-352q-34 0 -46.5 -13.5t-12.5 -44.5q0 -83 26 -157.5t79.5 -125t123.5 -50.5q109 0 174 104q3 4 7.5 12.5t6.5 12t6 10t6.5 9t5.5 6t6.5 4.5t6.5 1q31 0 31 -41q0 -43 -45 -110q-42 -67 -118.5 -109.5t-182.5 -42.5q-126 0 -223 64.5t-147 171t-50 235.5
q0 236 120.5 373t311.5 137q156 0 250 -92.5t94 -245.5q0 -73 -13 -90.5t-65 -17.5zM334 637v-2q0 -30 11 -42.5t44 -12.5q49 0 92 16q78 23 99 66q18 24 18 71q0 61 -28 100t-78 39q-47 0 -84.5 -39t-55.5 -92t-18 -104zM307 1053h-2q-20 0 -20 24q0 13 34 53l213 220
q38 43 70 64.5t70 21.5q35 0 58.5 -23.5t23.5 -56.5q0 -62 -86 -109l-269 -151q-77 -43 -92 -43z" />
    <glyph glyph-name="ecircumflex" unicode="&#xea;" horiz-adv-x="868" 
d="M741 504h-352q-34 0 -46.5 -13.5t-12.5 -44.5q0 -83 26 -157.5t79.5 -125t123.5 -50.5q109 0 174 104q3 4 7.5 12.5t6.5 12t6 10t6.5 9t5.5 6t6.5 4.5t6.5 1q31 0 31 -41q0 -43 -45 -110q-42 -67 -118.5 -109.5t-182.5 -42.5q-126 0 -223 64.5t-147 171t-50 235.5
q0 236 120.5 373t311.5 137q156 0 250 -92.5t94 -245.5q0 -73 -13 -90.5t-65 -17.5zM334 637v-2q0 -30 11 -42.5t44 -12.5q49 0 92 16q78 23 99 66q18 24 18 71q0 61 -28 100t-78 39q-47 0 -84.5 -39t-55.5 -92t-18 -104zM399 1421h80q26 0 42 -7t30 -30l176 -268
q23 -38 23 -47q0 -16 -31 -16q-32 0 -66 34l-215 191l-213 -191q-34 -34 -65 -34t-31 16q0 14 23 47l176 268q14 23 29.5 30t41.5 7z" />
    <glyph glyph-name="edieresis" unicode="&#xeb;" horiz-adv-x="868" 
d="M741 504h-352q-34 0 -46.5 -13.5t-12.5 -44.5q0 -83 26 -157.5t79.5 -125t123.5 -50.5q109 0 174 104q3 4 7.5 12.5t6.5 12t6 10t6.5 9t5.5 6t6.5 4.5t6.5 1q31 0 31 -41q0 -43 -45 -110q-42 -67 -118.5 -109.5t-182.5 -42.5q-126 0 -223 64.5t-147 171t-50 235.5
q0 236 120.5 373t311.5 137q156 0 250 -92.5t94 -245.5q0 -73 -13 -90.5t-65 -17.5zM334 637v-2q0 -30 11 -42.5t44 -12.5q49 0 92 16q78 23 99 66q18 24 18 71q0 61 -28 100t-78 39q-47 0 -84.5 -39t-55.5 -92t-18 -104zM256 1087h-2q-49 0 -82 35.5t-33 85.5
q0 52 33.5 87.5t83.5 35.5q49 0 82 -36.5t33 -86.5q0 -51 -33.5 -86t-81.5 -35zM623 1087h-2q-47 0 -80 35.5t-33 85.5q0 51 33 87t82 36t82.5 -36.5t33.5 -86.5q0 -51 -33.5 -86t-82.5 -35z" />
    <glyph glyph-name="igrave" unicode="&#xec;" horiz-adv-x="550" 
d="M143 180v492q0 55 -12 72.5t-51 25.5q-30 6 -40.5 13t-10.5 22q0 19 14.5 27t60.5 20q70 14 238 82q48 20 53 20q19 0 19 -45v-104v-635q0 -58 10.5 -77.5t54.5 -31.5q21 -5 29 -7.5t14 -10t6 -20.5q0 -31 -41 -31q-29 0 -97 4t-107 4q-51 0 -120.5 -4t-94.5 -4
q-18 0 -29.5 8t-11.5 23q0 19 9 26t34 12q51 10 62 29t11 90zM436 1081v-2q0 -20 -22 -20q-19 0 -92 41l-267 151q-88 50 -88 109q0 33 24.5 56.5t57.5 23.5q38 0 69 -20.5t70 -63.5l213 -221q35 -41 35 -54z" />
    <glyph glyph-name="iacute" unicode="&#xed;" horiz-adv-x="550" 
d="M143 180v492q0 55 -12 72.5t-51 25.5q-30 6 -40.5 13t-10.5 22q0 19 14.5 27t60.5 20q70 14 238 82q48 20 53 20q19 0 19 -45v-104v-635q0 -58 10.5 -77.5t54.5 -31.5q21 -5 29 -7.5t14 -10t6 -20.5q0 -31 -41 -31q-29 0 -97 4t-107 4q-51 0 -120.5 -4t-94.5 -4
q-18 0 -29.5 8t-11.5 23q0 19 9 26t34 12q51 10 62 29t11 90zM133 1053h-2q-8 0 -14 7t-6 17q0 17 36 53l211 220q38 43 70 64.5t70 21.5q35 0 58.5 -23.5t23.5 -56.5q0 -62 -86 -109l-269 -151q-77 -43 -92 -43z" />
    <glyph glyph-name="icircumflex" unicode="&#xee;" horiz-adv-x="550" 
d="M143 180v492q0 55 -12 72.5t-51 25.5q-30 6 -40.5 13t-10.5 22q0 19 14.5 27t60.5 20q70 14 238 82q48 20 53 20q19 0 19 -45v-104v-635q0 -58 10.5 -77.5t54.5 -31.5q21 -5 29 -7.5t14 -10t6 -20.5q0 -31 -41 -31q-29 0 -97 4t-107 4q-51 0 -120.5 -4t-94.5 -4
q-18 0 -29.5 8t-11.5 23q0 19 9 26t34 12q51 10 62 29t11 90zM236 1421h81q25 0 40.5 -7t31.5 -30l176 -268q21 -35 21 -47q0 -16 -31 -16q-29 0 -63 34l-216 191l-213 -191q-38 -34 -65 -34q-31 0 -31 16q0 12 21 47l176 268q16 23 31.5 30t40.5 7z" />
    <glyph glyph-name="idieresis" unicode="&#xef;" horiz-adv-x="550" 
d="M143 180v492q0 55 -12 72.5t-51 25.5q-30 6 -40.5 13t-10.5 22q0 19 14.5 27t60.5 20q70 14 238 82q48 20 53 20q19 0 19 -45v-104v-635q0 -58 10.5 -77.5t54.5 -31.5q21 -5 29 -7.5t14 -10t6 -20.5q0 -31 -41 -31q-29 0 -97 4t-107 4q-51 0 -120.5 -4t-94.5 -4
q-18 0 -29.5 8t-11.5 23q0 19 9 26t34 12q51 10 62 29t11 90zM92 1087h-2q-49 0 -82 35.5t-33 85.5q0 52 33.5 87.5t83.5 35.5q47 0 81 -36.5t34 -86.5q0 -51 -33.5 -86t-81.5 -35zM459 1087h-2q-47 0 -80 35.5t-33 85.5q0 51 33 87t82 36t82.5 -36.5t33.5 -86.5
q0 -51 -33.5 -86t-82.5 -35z" />
    <glyph glyph-name="eth" unicode="&#xf0;" horiz-adv-x="985" 
d="M479 1178l-223 -123q-22 -11 -25 -11q-9 0 -16 13l-18 26q-7 14 -7 19q0 7 21 20l219 119q-72 87 -145 129q-12 7 -25.5 14.5t-20.5 11t-14 8t-9.5 9t-2.5 10.5q0 10 11 16.5t24 6.5q58 0 138.5 -36.5t162.5 -104.5l229 127q17 10 27 10q7 0 16 -12l17 -27q6 -9 6 -19
q0 -7 -19 -18l-209 -115q141 -136 230.5 -332.5t89.5 -408.5q1 -248 -122.5 -394.5t-319.5 -146.5t-320.5 141t-124.5 349q0 212 123.5 351.5t314.5 139.5q65 0 107 -28l4 6q-38 142 -119 250zM504 43h2q38 0 67 31.5t45.5 85t24.5 116t8 132.5q0 205 -45 337t-125 132
q-48 0 -81.5 -49t-48.5 -129t-15 -185q0 -205 45.5 -338t122.5 -133z" />
    <glyph glyph-name="ntilde" unicode="&#xf1;" horiz-adv-x="1091" 
d="M139 174v500q0 51 -11 68t-44 22q-35 6 -46 12.5t-11 22.5q0 7 1.5 11.5t6.5 8.5t9.5 6.5t15 5.5t19 5.5t25 6.5t29.5 7q139 40 199 80q9 4 19 9.5t15 8t10 4.5t9 2q18 0 18 -49v-78q3 -32 11 -32t20.5 8.5t36.5 30.5t37 32q97 76 192 76q115 0 189 -74q67 -70 67 -202
v-525q0 -24 4.5 -39.5t17 -24.5t22 -12.5t30.5 -9.5q20 -3 28.5 -9.5t8.5 -20.5q0 -18 -12.5 -25.5t-40.5 -7.5q-12 0 -82.5 4t-116.5 4q-47 0 -102 -4t-68 -4q-41 0 -41 35q0 13 25 24q30 12 44.5 28t14.5 48v500q0 63 -24 106q-30 53 -97 53t-114 -41q-45 -42 -45 -98
v-518q0 -32 12.5 -47.5t40.5 -26.5q21 -6 28 -11t7 -17q0 -35 -39 -35q-1 0 -59 4t-126 4q-76 0 -133 -4t-67 -4q-43 0 -43 33q0 32 43 36q43 6 55 28.5t12 84.5zM668 1098h-2q-64 0 -156 59q-6 3 -23 13.5t-25 14.5t-22.5 11.5t-24 11t-22 6.5t-22.5 3q-30 0 -50 -16.5
t-28.5 -37t-21 -37t-29.5 -16.5t-24.5 12t-4.5 31q7 72 63.5 135.5t147.5 63.5q61 0 162 -60q32 -20 47 -28.5t41.5 -19.5t46.5 -11q30 0 50.5 17t29 37t21 37t28.5 17q32 0 29 -45q-7 -72 -64 -135t-147 -63z" />
    <glyph glyph-name="ograve" unicode="&#xf2;" horiz-adv-x="985" 
d="M492 -31h-3q-193 0 -316.5 141t-123.5 349q0 209 124 350t319 141q135 0 237.5 -67t154.5 -177.5t52 -244.5q0 -208 -123.5 -350t-320.5 -142zM504 43h2q38 0 67 31.5t45.5 85t24.5 116t8 132.5q0 134 -19 239t-58 168.5t-93 63.5q-48 0 -81.5 -50t-48.5 -130t-15 -185
q0 -205 45.5 -338t122.5 -133zM651 1081v-2q0 -20 -22 -20q-17 0 -90 41l-269 151q-88 50 -88 109q0 33 24.5 56.5t57.5 23.5q38 0 69 -20.5t70 -63.5l213 -221q35 -41 35 -54z" />
    <glyph glyph-name="oacute" unicode="&#xf3;" horiz-adv-x="985" 
d="M492 -31h-3q-193 0 -316.5 141t-123.5 349q0 209 124 350t319 141q135 0 237.5 -67t154.5 -177.5t52 -244.5q0 -208 -123.5 -350t-320.5 -142zM504 43h2q38 0 67 31.5t45.5 85t24.5 116t8 132.5q0 134 -19 239t-58 168.5t-93 63.5q-48 0 -81.5 -50t-48.5 -130t-15 -185
q0 -205 45.5 -338t122.5 -133zM356 1053h-2q-20 0 -20 24q0 16 37 53l211 220q38 44 69.5 65t69.5 21q35 0 58.5 -23.5t23.5 -56.5q0 -62 -86 -109l-268 -151q-77 -43 -93 -43z" />
    <glyph glyph-name="ocircumflex" unicode="&#xf4;" horiz-adv-x="985" 
d="M492 -31h-3q-193 0 -316.5 141t-123.5 349q0 209 124 350t319 141q135 0 237.5 -67t154.5 -177.5t52 -244.5q0 -208 -123.5 -350t-320.5 -142zM504 43h2q38 0 67 31.5t45.5 85t24.5 116t8 132.5q0 134 -19 239t-58 168.5t-93 63.5q-48 0 -81.5 -50t-48.5 -130t-15 -185
q0 -205 45.5 -338t122.5 -133zM453 1421h82q25 0 40 -7t29 -30l176 -268q23 -33 23 -47q0 -16 -31 -16q-27 0 -65 34l-213 191l-215 -191q-34 -34 -66 -34q-29 0 -29 16q0 12 21 47l176 268q22 37 72 37z" />
    <glyph glyph-name="otilde" unicode="&#xf5;" horiz-adv-x="985" 
d="M492 -31h-3q-193 0 -316.5 141t-123.5 349q0 209 124 350t319 141q135 0 237.5 -67t154.5 -177.5t52 -244.5q0 -208 -123.5 -350t-320.5 -142zM504 43h2q38 0 67 31.5t45.5 85t24.5 116t8 132.5q0 134 -19 239t-58 168.5t-93 63.5q-48 0 -81.5 -50t-48.5 -130t-15 -185
q0 -205 45.5 -338t122.5 -133zM614 1098h-2q-63 0 -155 59q-4 2 -27 15.5t-31 18t-25.5 12.5t-30.5 11t-26 3q-30 0 -50 -16.5t-28 -37t-20.5 -37t-28.5 -16.5q-33 0 -30 43q7 72 63.5 135.5t147.5 63.5q60 0 161 -60q94 -59 136 -59q30 0 50.5 17t29 37t21 37t28.5 17
q35 0 28 -45q-5 -71 -62 -134.5t-149 -63.5z" />
    <glyph glyph-name="odieresis" unicode="&#xf6;" horiz-adv-x="985" 
d="M492 -31h-3q-193 0 -316.5 141t-123.5 349q0 209 124 350t319 141q135 0 237.5 -67t154.5 -177.5t52 -244.5q0 -208 -123.5 -350t-320.5 -142zM504 43h2q38 0 67 31.5t45.5 85t24.5 116t8 132.5q0 134 -19 239t-58 168.5t-93 63.5q-48 0 -81.5 -50t-48.5 -130t-15 -185
q0 -205 45.5 -338t122.5 -133zM309 1087h-2q-47 0 -80.5 35.5t-33.5 85.5q0 52 33 87.5t83 35.5q49 0 83 -36.5t34 -86.5q0 -51 -34 -86t-83 -35zM676 1087h-2q-47 0 -80 35.5t-33 85.5q0 51 33 87t82 36t83 -36.5t34 -86.5q0 -51 -34 -86t-83 -35z" />
    <glyph glyph-name="divide" unicode="&#xf7;" horiz-adv-x="1222" 
d="M459 942v2q0 63 45.5 107.5t107.5 44.5t108 -45.5t46 -108.5q0 -58 -46.5 -106t-105.5 -48q-63 0 -109 45.5t-46 108.5zM1128 430h-1032v176h1032v-176zM459 94v2q0 63 45.5 107.5t107.5 44.5t108 -45.5t46 -108.5q0 -58 -46.5 -105.5t-105.5 -47.5q-63 0 -109 45
t-46 108z" />
    <glyph glyph-name="oslash" unicode="&#xf8;" horiz-adv-x="985" 
d="M272 31l-106 -191q-14 -20 -33 -20h-37q-22 0 -22 10q0 8 18 39l115 207q-73 66 -115.5 166.5t-42.5 216.5q0 209 124.5 350t320.5 141q124 0 219 -59l108 190q12 21 31 21h37q22 0 22 -10q0 -8 -18 -39l-115 -207q74 -64 116 -165t42 -220q0 -136 -54.5 -247.5
t-156 -178t-231.5 -66.5q-122 0 -222 62zM360 285l236 454q-18 65 -47.5 102.5t-67.5 37.5q-39 0 -68 -31t-45.5 -84.5t-24 -116t-7.5 -135.5q0 -110 24 -227zM625 637l-236 -455q18 -64 48 -101.5t67 -37.5q39 0 68.5 31t46 84t24.5 115.5t8 134.5q0 122 -26 229z" />
    <glyph glyph-name="ugrave" unicode="&#xf9;" horiz-adv-x="1087" 
d="M401 864v-598q0 -137 127 -137q75 0 125 57q31 36 31 84v488q0 52 -10 72t-41 26q-28 3 -39.5 10.5t-11.5 28.5q0 33 55 33q16 0 61 -3t70 -3q22 0 69 3t74 3q21 0 31 -9.5t10 -35.5v-76v-588q0 -44 15.5 -64.5t48.5 -23.5q43 -3 43 -29q0 -4 -1 -7.5t-2 -6t-4 -5
t-5.5 -4t-7.5 -3.5l-10 -4t-13.5 -4.5t-16 -4.5t-20 -5.5t-23.5 -6.5q-204 -69 -217 -74q-27 -6 -34 -6q-17 0 -17 33v90q0 29 -14 29q-8 0 -31 -19q-2 -2 -21.5 -19.5t-27.5 -24t-29 -22t-37 -23t-39 -17.5t-47.5 -14t-50.5 -4q-116 0 -182 63q-76 67 -76 193v546
q0 37 -13.5 52t-47.5 20q-47 6 -47 39q0 35 36 35q27 0 81 -3t81 -3q20 0 75.5 3t70.5 3q18 0 25 -14t7 -50zM686 1081v-2q0 -20 -22 -20q-21 0 -91 41l-268 151q-88 50 -88 109q0 33 24.5 56.5t57.5 23.5q38 0 69 -20.5t70 -63.5l213 -221q35 -41 35 -54z" />
    <glyph glyph-name="uacute" unicode="&#xfa;" horiz-adv-x="1087" 
d="M401 864v-598q0 -137 127 -137q75 0 125 57q31 36 31 84v488q0 52 -10 72t-41 26q-28 3 -39.5 10.5t-11.5 28.5q0 33 55 33q16 0 61 -3t70 -3q22 0 69 3t74 3q21 0 31 -9.5t10 -35.5v-76v-588q0 -44 15.5 -64.5t48.5 -23.5q43 -3 43 -29q0 -4 -1 -7.5t-2 -6t-4 -5
t-5.5 -4t-7.5 -3.5l-10 -4t-13.5 -4.5t-16 -4.5t-20 -5.5t-23.5 -6.5q-204 -69 -217 -74q-27 -6 -34 -6q-17 0 -17 33v90q0 29 -14 29q-8 0 -31 -19q-2 -2 -21.5 -19.5t-27.5 -24t-29 -22t-37 -23t-39 -17.5t-47.5 -14t-50.5 -4q-116 0 -182 63q-76 67 -76 193v546
q0 37 -13.5 52t-47.5 20q-47 6 -47 39q0 35 36 35q27 0 81 -3t81 -3q20 0 75.5 3t70.5 3q18 0 25 -14t7 -50zM414 1053h-2q-8 0 -14.5 7t-6.5 17q0 16 37 53l211 220q38 44 69.5 65t69.5 21q35 0 58.5 -23.5t23.5 -56.5q0 -62 -86 -109l-268 -151q-77 -43 -92 -43z" />
    <glyph glyph-name="ucircumflex" unicode="&#xfb;" horiz-adv-x="1087" 
d="M401 864v-598q0 -137 127 -137q75 0 125 57q31 36 31 84v488q0 52 -10 72t-41 26q-28 3 -39.5 10.5t-11.5 28.5q0 33 55 33q16 0 61 -3t70 -3q22 0 69 3t74 3q21 0 31 -9.5t10 -35.5v-76v-588q0 -44 15.5 -64.5t48.5 -23.5q43 -3 43 -29q0 -4 -1 -7.5t-2 -6t-4 -5
t-5.5 -4t-7.5 -3.5l-10 -4t-13.5 -4.5t-16 -4.5t-20 -5.5t-23.5 -6.5q-204 -69 -217 -74q-27 -6 -34 -6q-17 0 -17 33v90q0 29 -14 29q-8 0 -31 -19q-2 -2 -21.5 -19.5t-27.5 -24t-29 -22t-37 -23t-39 -17.5t-47.5 -14t-50.5 -4q-116 0 -182 63q-76 67 -76 193v546
q0 37 -13.5 52t-47.5 20q-47 6 -47 39q0 35 36 35q27 0 81 -3t81 -3q20 0 75.5 3t70.5 3q18 0 25 -14t7 -50zM496 1421h82q25 0 41 -7t30 -30l176 -268q21 -35 21 -47q0 -16 -29 -16q-31 0 -65 34l-215 191l-213 -191q-38 -34 -66 -34q-31 0 -31 16q0 12 21 47l176 268
q16 23 31.5 30t40.5 7z" />
    <glyph glyph-name="udieresis" unicode="&#xfc;" horiz-adv-x="1087" 
d="M401 864v-598q0 -137 127 -137q75 0 125 57q31 36 31 84v488q0 52 -10 72t-41 26q-28 3 -39.5 10.5t-11.5 28.5q0 33 55 33q16 0 61 -3t70 -3q22 0 69 3t74 3q21 0 31 -9.5t10 -35.5v-76v-588q0 -44 15.5 -64.5t48.5 -23.5q43 -3 43 -29q0 -4 -1 -7.5t-2 -6t-4 -5
t-5.5 -4t-7.5 -3.5l-10 -4t-13.5 -4.5t-16 -4.5t-20 -5.5t-23.5 -6.5q-204 -69 -217 -74q-27 -6 -34 -6q-17 0 -17 33v90q0 29 -14 29q-8 0 -31 -19q-2 -2 -21.5 -19.5t-27.5 -24t-29 -22t-37 -23t-39 -17.5t-47.5 -14t-50.5 -4q-116 0 -182 63q-76 67 -76 193v546
q0 37 -13.5 52t-47.5 20q-47 6 -47 39q0 35 36 35q27 0 81 -3t81 -3q20 0 75.5 3t70.5 3q18 0 25 -14t7 -50zM350 1087h-2q-47 0 -79.5 35.5t-32.5 85.5q0 52 32.5 87.5t81.5 35.5t83 -36.5t34 -86.5q0 -51 -34 -86t-83 -35zM719 1087h-2q-49 0 -82 35.5t-33 85.5
q0 52 33.5 87.5t83.5 35.5q47 0 81 -36.5t34 -86.5q0 -51 -33.5 -86t-81.5 -35z" />
    <glyph glyph-name="yacute" unicode="&#xfd;" horiz-adv-x="876" 
d="M119 -326v2q0 50 25 83t79 34q21 1 38 0.5t34.5 0t28.5 3.5q33 3 59 60q23 59 23 84q0 41 -41 147q-53 142 -261 674q-21 54 -37.5 73.5t-39.5 24.5q-21 3 -31 10.5t-10 24.5q0 33 49 33q22 0 94.5 -4t122.5 -4q51 0 108 4t68 4q41 0 41 -33q0 -8 -7 -14t-14 -8.5
t-22 -6.5q-41 -13 -41 -51q0 -23 33 -121q7 -21 27 -80.5t32.5 -97t28.5 -82.5t27 -67.5t16 -22.5q21 0 127 354q26 81 26 111q0 24 -14.5 35t-44.5 16q-1 0 -7.5 2.5t-8 3t-7 2.5t-7 4t-4.5 5t-4 7t-1 9q0 17 10.5 26t26.5 9q7 0 49.5 -4t75.5 -4q18 0 50 4t50 4
q39 0 39 -35q0 -5 -1.5 -9t-6.5 -7t-8.5 -4.5t-12 -5t-12.5 -5.5q-52 -15 -92 -127q-53 -147 -146.5 -405t-133.5 -369q-52 -153 -74 -258q-13 -54 -22.5 -80t-27 -47.5t-43 -28t-69.5 -6.5q-80 0 -108.5 31t-28.5 102zM365 1053h-3q-20 0 -20 24q0 12 35 53l213 220
q38 44 69.5 65t69.5 21q35 0 58.5 -23.5t23.5 -56.5q0 -61 -88 -109l-266 -151q-77 -43 -92 -43z" />
    <glyph glyph-name="thorn" unicode="&#xfe;" horiz-adv-x="999" 
d="M389 -20v-267q0 -55 20 -76t64 -28q37 -8 48 -15t11 -26q0 -31 -63 -31q-30 0 -99.5 4t-107.5 4q-37 0 -111.5 -4t-103.5 -4q-53 0 -53 31q0 19 8.5 26.5t32.5 14.5q59 12 72.5 30t13.5 91v1431q0 53 -11.5 69.5t-50.5 24.5q-34 8 -44.5 14.5t-10.5 22.5q0 18 13.5 25.5
t50.5 13.5q118 26 235 72q62 24 66 24q12 0 16 -15t4 -48v-506q0 -24 10 -24q5 0 13.5 6t25.5 22t25 23q79 63 158 63q90 0 165.5 -64t118.5 -174.5t43 -242.5q0 -91 -25.5 -179t-71 -159t-115.5 -115t-152 -45q-39 0 -129 31q-46 16 -47 16q-11 0 -15 -8t-4 -28zM662 428v2
q0 176 -46 266t-118 90q-53 0 -82 -32q-27 -30 -27 -70v-504q0 -58 27 -88q29 -29 76 -29q78 0 124 90.5t46 274.5z" />
    <glyph glyph-name="ydieresis" unicode="&#xff;" horiz-adv-x="876" 
d="M119 -326v2q0 50 25 83t79 34q21 1 38 0.5t34.5 0t28.5 3.5q33 3 59 60q23 59 23 84q0 41 -41 147q-53 142 -261 674q-21 54 -37.5 73.5t-39.5 24.5q-21 3 -31 10.5t-10 24.5q0 33 49 33q22 0 94.5 -4t122.5 -4q51 0 108 4t68 4q41 0 41 -33q0 -8 -7 -14t-14 -8.5
t-22 -6.5q-41 -13 -41 -51q0 -23 33 -121q7 -21 27 -80.5t32.5 -97t28.5 -82.5t27 -67.5t16 -22.5q21 0 127 354q26 81 26 111q0 24 -14.5 35t-44.5 16q-1 0 -7.5 2.5t-8 3t-7 2.5t-7 4t-4.5 5t-4 7t-1 9q0 17 10.5 26t26.5 9q7 0 49.5 -4t75.5 -4q18 0 50 4t50 4
q39 0 39 -35q0 -5 -1.5 -9t-6.5 -7t-8.5 -4.5t-12 -5t-12.5 -5.5q-52 -15 -92 -127q-53 -147 -146.5 -405t-133.5 -369q-52 -153 -74 -258q-13 -54 -22.5 -80t-27 -47.5t-43 -28t-69.5 -6.5q-80 0 -108.5 31t-28.5 102zM291 1087h-2q-47 0 -80 35.5t-33 85.5q0 51 33 87
t82 36t83 -36.5t34 -86.5q0 -51 -34 -86t-83 -35zM659 1087h-2q-47 0 -80.5 35.5t-33.5 85.5q0 52 33 87.5t83 35.5q49 0 83 -36.5t34 -86.5q0 -51 -34 -86t-83 -35z" />
    <glyph glyph-name="dotlessi" unicode="&#x131;" horiz-adv-x="550" 
d="M143 180v492q0 55 -12 72.5t-51 25.5q-30 6 -40.5 13t-10.5 22q0 19 14.5 27t60.5 20q70 14 238 82q48 20 53 20q19 0 19 -45v-104v-635q0 -58 10.5 -77.5t54.5 -31.5q21 -5 29 -7.5t14 -10t6 -20.5q0 -31 -41 -31q-29 0 -97 4t-107 4q-51 0 -120.5 -4t-94.5 -4
q-18 0 -29.5 8t-11.5 23q0 19 9 26t34 12q51 10 62 29t11 90z" />
    <glyph glyph-name="Lslash" unicode="&#x141;" horiz-adv-x="921" 
d="M469 690v-500q0 -68 21 -92t90 -24q39 0 71.5 14.5t53.5 34.5t41 55.5t31 62t26 70.5q16 53 25.5 69.5t29.5 16.5q21 0 28.5 -18t6.5 -74q0 -82 -4 -250q-3 -42 -9.5 -52.5t-25.5 -10.5q-84 0 -251.5 4t-194.5 4q-68 0 -171 -4t-145 -4q-59 0 -59 37q0 19 16 27.5
t53 15.5q43 6 57.5 27t14.5 77v320l-123 -84q-35 -23 -41 -23q-8 0 -8 25v45q0 12 5 19.5t22 19.5l145 100v496q0 65 -11 87t-44 27q-34 6 -47.5 9.5t-23 11.5t-9.5 22q0 37 55 37q25 0 97 -4t128 -4q55 0 133.5 4t102.5 4q51 0 51 -31q0 -10 -3 -16.5t-11 -10.5t-14 -5.5
t-19 -3.5t-20 -4q-45 -12 -57.5 -30t-12.5 -75v-319l227 153q34 23 39 23q10 0 10 -25v-47q0 -13 -5 -20t-23 -17z" />
    <glyph glyph-name="lslash" unicode="&#x142;" horiz-adv-x="548" 
d="M410 815v-663q0 -44 14 -62.5t59 -28.5q15 -2 23.5 -5t16 -10.5t7.5 -20.5q0 -33 -47 -33q-3 0 -62 4t-142 4t-144 -4t-63 -4q-52 0 -52 33q0 32 48 36q48 7 60.5 28t12.5 79v446l-129 -104q-24 -16 -26 -16q-9 0 -9 18v49q0 19 19 35l145 117v448q0 53 -11 69.5
t-48 24.5q-34 8 -44.5 14.5t-10.5 22.5q0 18 12 25.5t49 13.5q118 25 236 72q14 5 29.5 12t23 9.5t12.5 2.5q14 0 17.5 -14.5t3.5 -48.5v-449l133 105q18 14 26 14q6 0 6 -16v-49q0 -21 -18 -35z" />
    <glyph glyph-name="OE" unicode="&#x152;" horiz-adv-x="1622" 
d="M1098 600v-428q0 -55 26 -76.5t97 -21.5q92 0 145 57.5t86 181.5q12 46 26.5 65t37.5 19q21 0 28 -13t8 -58v-80q0 -16 -1 -78.5t-1 -93.5q0 -49 -10.5 -64.5t-42.5 -15.5q-20 0 -103.5 1t-138.5 1q-200 4 -282 4q-71 0 -189 -12q-19 -2 -81 -9.5t-89 -7.5
q-126 0 -232.5 55t-177 147t-110 210.5t-39.5 247.5q0 108 25.5 209.5t73.5 186t113.5 148t150 99t178.5 35.5q52 0 125 -15q96 -14 153 -14q51 0 293 4q69 0 175 1t126 1q34 0 45 -11t11 -50q0 -49 -1 -139t-1 -128q0 -55 -33 -55q-21 0 -35.5 19t-34.5 65q-32 84 -71 136
t-101 71q-35 12 -71 12q-42 0 -60 -12.5t-18 -44.5v-395q0 -27 10 -33t47 -6q62 0 89.5 20t39.5 72q16 70 24 80t25 10q19 0 27 -13t8 -46q0 -27 -4 -82.5t-4 -79.5q0 -32 4 -96.5t4 -87.5q0 -48 -35 -48q-18 0 -27.5 15.5t-19.5 52.5q-19 74 -45 98.5t-84 24.5
q-36 0 -47.5 -6.5t-11.5 -28.5zM389 641v-2q0 -588 254 -588q83 0 119.5 52t38.5 149v371v395q-3 112 -41 160q-41 53 -125 53q-246 0 -246 -590z" />
    <glyph glyph-name="oe" unicode="&#x153;" horiz-adv-x="1449" 
d="M1313 506h-348q-26 0 -39 -23q-6 -10 -6 -41q0 -81 25 -155t77 -124t119 -50t107 30.5t71 79.5q1 2 4 7q23 35 34 39q3 1 7 1q29 0 29 -34q0 -30 -27 -89q-38 -74 -115 -126t-194 -52q-148 0 -240 92q-24 21 -37 43q-24 -28 -39 -43q-103 -92 -254 -92q-188 0 -313 140
t-125 352t125.5 350.5t314.5 138.5q147 0 250 -100q27 -27 35 -39q10 16 41 47q92 92 242 92q91 0 167.5 -37t125.5 -114.5t49 -182.5q0 -72 -15 -91t-71 -19zM504 43h2q143 0 143 367q0 130 -19 235t-57.5 169.5t-91.5 64.5q-39 0 -68.5 -31.5t-45.5 -85t-23.5 -115.5
t-7.5 -133q0 -202 45.5 -336.5t122.5 -134.5zM926 641v-2q0 -29 10 -42t45 -13q70 0 129 32q68 36 68 117q0 60 -29 98.5t-76 38.5q-45 0 -80 -38t-51 -89t-16 -102z" />
    <glyph glyph-name="Scaron" unicode="&#x160;" horiz-adv-x="978" 
d="M911 391v-2q0 -130 -67 -227t-177.5 -145t-248.5 -48q-81 0 -180 18.5t-134 55.5q-28 35 -28 170q0 137 8 174q8 39 39 39q21 0 33.5 -15.5t23.5 -43.5q48 -141 68 -181q61 -127 160 -138q11 -1 22 -1q83 0 137 58.5t54 140.5q0 50 -16.5 93t-50.5 80t-68 64t-87 62
q-17 10 -46.5 31t-37.5 26q-50 36 -84.5 68t-68 76t-51 98t-17.5 117q0 85 40.5 154.5t105 111.5t139 64t149.5 22q157 0 269 -45q23 -8 29.5 -19t7.5 -49q2 -31 2 -143v-36.5t-1.5 -28t-4 -22.5t-7.5 -13.5t-13 -10t-19 -2.5q-7 0 -12.5 2t-10.5 7t-8.5 9t-8 13t-6.5 14.5
t-7 18t-7 18.5q-32 100 -76.5 154.5t-119.5 54.5q-63 0 -106.5 -41.5t-43.5 -110.5q0 -23 4.5 -44.5t10.5 -39t19.5 -36.5t23 -32t30 -31t32.5 -28.5t38.5 -28.5t39 -26t43 -27.5t42.5 -27.5q42 -29 71 -51t64.5 -58t56.5 -71.5t36 -85t15 -105.5zM557 1376h-82
q-25 0 -40.5 7t-31.5 30l-176 268q-20 33 -20 48q0 16 31 16q26 0 65 -35l213 -190l215 190q35 35 66 35q28 0 28 -16q0 -15 -20 -48l-176 -268q-22 -37 -72 -37z" />
    <glyph glyph-name="scaron" unicode="&#x161;" horiz-adv-x="755" 
d="M55 664v2q0 135 106 209.5t279 74.5q140 0 205 -30q20 -6 23 -68q2 -18 2 -70v-49q-2 -27 -8.5 -40t-24.5 -13q-10 0 -17 4t-14.5 14.5t-12 19t-14.5 29.5t-16 33q-49 99 -123 99q-49 0 -80.5 -30t-31.5 -75q0 -31 11 -57t42 -52.5t47.5 -38t66.5 -41.5q12 -8 19 -12
q43 -26 71.5 -47.5t61 -55.5t48.5 -77.5t16 -95.5q0 -107 -59 -183t-150 -110.5t-201 -34.5q-113 0 -184 27q-38 15 -45 22q-19 16 -21 64q-2 33 -2 131q0 55 6.5 77.5t28.5 22.5q23 0 38 -23.5t42 -88.5q33 -72 70.5 -115t91.5 -43q58 0 91.5 34.5t33.5 94.5q0 30 -11.5 57
t-25.5 46.5t-44 44t-49.5 37.5t-58.5 38q-38 24 -60 40t-54 43.5t-49.5 52t-30.5 60t-13 73.5zM434 1053h-80q-26 0 -41.5 7t-29.5 30l-177 268q-22 31 -22 47t31 16q25 0 65 -32l213 -193l215 193q36 32 66 32q31 0 31 -16q0 -9 -23 -47l-176 -268q-22 -37 -72 -37z" />
    <glyph glyph-name="Ydieresis" unicode="&#x178;" horiz-adv-x="1024" 
d="M367 174v350q0 43 -29 97q-185 415 -223 497q-24 48 -46 65.5t-55 24.5q-4 1 -13 3t-12 3t-9.5 3.5t-9 4.5t-6 5.5t-4.5 7.5t-1 10q0 21 15 32t38 11q36 0 102 -4t119 -4q67 0 151 4t101 4q43 0 43 -35q0 -14 -9 -23t-17.5 -11.5t-28.5 -6.5q-20 -5 -29.5 -8.5t-17.5 -13
t-8 -25.5q0 -5 1 -11.5t4.5 -17t7.5 -20.5t12 -29.5t14.5 -36t20 -48.5t24.5 -58q39 -97 64 -150.5t36 -69t19 -15.5q13 0 30.5 33t77.5 165q94 210 94 246q0 28 -16 39t-53 18q-41 9 -49 20q-5 7 -5 17q0 41 58 41q23 0 68.5 -4t70.5 -4q30 0 71 4t56 4q41 0 41 -37
q0 -5 -0.5 -9t-1.5 -7.5t-3.5 -6t-3.5 -4.5t-5 -4t-5.5 -3t-7 -2.5t-7.5 -2t-8.5 -2t-8.5 -2.5q-67 -16 -111 -110q-103 -229 -205 -434q-24 -53 -31.5 -77.5t-7.5 -51.5v-375q0 -48 16 -68.5t52 -25.5q4 -1 16 -2.5t16.5 -2.5t13 -4t12.5 -6.5t7 -9.5t3 -14q0 -21 -13 -28
t-43 -7q-20 0 -90 4t-125 4q-62 0 -144 -4t-104 -4q-51 0 -51 33q0 19 16 29.5t60 17.5q39 5 52.5 24t13.5 78zM365 1407h-3q-47 0 -80.5 36.5t-33.5 86.5q0 51 33 86t84 35q49 0 82.5 -35.5t33.5 -85.5q0 -51 -33.5 -87t-82.5 -36zM731 1407h-2q-47 0 -80 36.5t-33 86.5
q0 51 33 86t82 35t83 -35.5t34 -85.5q0 -51 -34 -87t-83 -36z" />
    <glyph glyph-name="Zcaron" unicode="&#x17d;" horiz-adv-x="946" 
d="M434 80h2q106 0 180 12q88 19 128 75t65 159q17 63 29 82.5t32 19.5q26 0 34.5 -20t8.5 -86q0 -193 -4 -261q-3 -45 -12 -57t-33 -12q-10 0 -133 4t-278 4q-135 0 -264 -4t-142 -4t-21 8.5t-8 19.5q0 17 37 105l447 962q35 78 35 95q0 22 -62 22q-86 0 -137 -10
q-56 -13 -90 -46t-62 -89q-8 -19 -20 -53.5t-19 -53.5t-21 -35t-32 -16t-28.5 17t-10.5 45q0 11 1 24t2.5 29.5t2.5 25.5q3 28 12.5 127t14.5 131q3 27 14 41.5t27 14.5q13 0 22 -6t12.5 -11t10.5 -18q10 -19 26 -28t50 -9q49 0 154.5 -2t162.5 -2q48 0 142 2t141 2
q39 0 39 -24q0 -14 -43 -107q-64 -138 -436 -965q-35 -80 -35 -88q0 -12 12.5 -16t46.5 -4zM543 1374h-80q-26 0 -42 7t-30 30l-176 268q-22 31 -22 45q0 19 30 19q27 0 66 -35l213 -190l215 190q39 35 65 35q31 0 31 -19q0 -8 -22 -45l-177 -268q-14 -23 -30 -30t-41 -7z
" />
    <glyph glyph-name="zcaron" unicode="&#x17e;" horiz-adv-x="796" 
d="M727 342h2q16 0 24.5 -15t8.5 -55q0 -162 -2 -211q-1 -45 -10.5 -56t-38.5 -11q-27 0 -141 3t-208 3q-64 0 -170.5 -3t-138.5 -3q-30 0 -30 26q0 15 24 58l354 692q6 12 12 23.5t9.5 17.5t5.5 11t2 9q0 17 -39 17q-46 0 -104 -4q-45 -5 -72.5 -23t-50.5 -59
q-11 -21 -22 -44t-15.5 -32t-10.5 -18.5t-11.5 -12t-14.5 -2.5q-17 0 -24 12t-7 40q0 79 31 225q12 63 41 63q3 0 6.5 -0.5t5.5 -1t4.5 -2.5t4 -2.5t3.5 -3.5t3 -4t3 -4t2.5 -4l2.5 -5t2 -5q7 -34 43 -37q98 -4 285 -4q26 0 110 2t111 2q37 0 37 -23q0 -19 -41 -100
l-324 -619q-37 -76 -37 -90q0 -21 47 -24q67 0 111 10q66 11 99.5 44t56.5 97q31 99 38 110q8 13 23 13zM453 1053h-80q-26 0 -42 7t-30 30l-176 268q-23 33 -23 47q0 16 31 16q26 0 66 -32l213 -193l215 193q36 32 65 32t29 -16q0 -12 -21 -47l-176 -268q-14 -23 -30 -30
t-41 -7z" />
    <glyph glyph-name="florin" unicode="&#x192;" 
d="M274 702h-135q-27 0 -24 17q0 16 10 43q7 17 13.5 21.5t21.5 4.5h137q42 137 90 232t123 164q134 131 307 131q223 0 223 -119q0 -35 -24 -129q-23 -74 -78 -74q-48 0 -84 107q-3 7 -9.5 26.5t-10 28t-10 24.5t-11.5 23.5t-11.5 16.5t-14 12.5t-15.5 3.5q-46 0 -88 -74
q-49 -74 -84 -211q-3 -11 -19 -70.5t-24 -91.5h156q15 0 21 -3t5 -13q0 -14 -10 -47q-6 -23 -31 -23h-161q-23 -95 -68.5 -272.5t-48.5 -191.5q-87 -335 -205 -506q-151 -209 -358 -209q-219 0 -219 119q0 43 24 127q10 32 29.5 52.5t46.5 20.5q29 0 48 -28t36 -76
q3 -8 8 -22t8 -22t8 -20t8.5 -19.5t8.5 -17t10 -14.5l10.5 -10.5t11.5 -7.5t13 -2q29 0 53 36.5t53 118.5q35 88 127 445q89 344 133 499z" />
    <glyph glyph-name="circumflex" unicode="&#x2c6;" horiz-adv-x="595" 
d="M258 1421h80q26 0 42 -7t30 -30l176 -268q22 -31 22 -47t-30 -16q-32 0 -66 34l-213 191l-215 -191q-34 -34 -66 -34q-30 0 -30 16q0 10 22 47l176 268q14 23 30 30t42 7z" />
    <glyph glyph-name="caron" unicode="&#x2c7;" horiz-adv-x="595" 
d="M338 1053h-80q-26 0 -42 7t-30 30l-176 268q-22 37 -22 47q0 16 30 16t66 -32l215 -193l213 193q36 32 66 32t30 -16t-22 -47l-176 -268q-14 -23 -30 -30t-42 -7z" />
    <glyph glyph-name="uni02C9" unicode="&#x2c9;" horiz-adv-x="589" 
d="M55 1268h504q35 0 35 -11q0 -9 -25 -88q-7 -22 -12.5 -26t-24.5 -4h-505q-31 0 -31 8q0 4 2 11t9.5 29t15.5 48q1 4 2.5 9.5t2 8t2 6t2.5 4t3 2.5t5 2t6.5 0.5t8.5 0.5z" />
    <glyph glyph-name="breve" unicode="&#x2d8;" horiz-adv-x="593" 
d="M297 1067h-2q-122 0 -198.5 86t-76.5 186q0 50 37 50q16 0 24 -10.5t17 -35.5q40 -131 199 -131t199 131q6 18 9.5 25.5t11.5 14t20 6.5q36 0 36 -50q0 -100 -76.5 -186t-199.5 -86z" />
    <glyph glyph-name="dotaccent" unicode="&#x2d9;" horiz-adv-x="569" 
d="M285 1081h-2q-51 0 -86 38t-35 91q0 52 35.5 89.5t87.5 37.5t87.5 -37.5t35.5 -89.5q0 -53 -35.5 -91t-87.5 -38z" />
    <glyph glyph-name="ring" unicode="&#x2da;" horiz-adv-x="577" 
d="M289 1055h-2q-88 0 -150.5 62.5t-62.5 150.5q0 89 63 152t152 63q88 0 150.5 -63t62.5 -152q0 -88 -62.5 -150.5t-150.5 -62.5zM289 1147h2q48 0 83.5 36t35.5 85q0 51 -35.5 87t-85.5 36t-85.5 -36t-35.5 -87q0 -50 36 -85.5t85 -35.5z" />
    <glyph glyph-name="ogonek" unicode="&#x2db;" horiz-adv-x="579" 
d="M340 0h94q-35 -17 -67.5 -38.5t-68.5 -52.5t-57.5 -69.5t-21.5 -77.5q0 -49 35.5 -75.5t81.5 -26.5q57 0 96 27q35 22 53 22q25 0 25 -37q0 -20 -35 -45t-88 -43t-100 -18q-86 0 -147.5 40.5t-61.5 131.5q0 44 27.5 89t69.5 78.5t85 58t80 36.5z" />
    <glyph glyph-name="tilde" unicode="&#x2dc;" horiz-adv-x="595" 
d="M420 1098h-2q-64 0 -156 59q-6 3 -23 13.5t-25 14.5t-22.5 11.5t-24 11t-22 6.5t-22.5 3q-30 0 -50 -16.5t-28.5 -37t-21 -37t-29.5 -16.5t-24.5 12t-4.5 31q7 72 63.5 135.5t147.5 63.5q61 0 162 -60q32 -20 47 -28.5t41.5 -19.5t46.5 -11q30 0 50.5 17t29 37t21 37
t28.5 17q32 0 29 -45q-7 -72 -63.5 -135t-147.5 -63z" />
    <glyph glyph-name="hungarumlaut" unicode="&#x2dd;" horiz-adv-x="589" 
d="M59 1053h-2q-9 0 -14.5 6.5t-5.5 15.5q0 6 5 15.5t14.5 23t11.5 16.5l157 226q59 88 121 88q35 0 59.5 -18.5t24.5 -51.5q0 -54 -68 -106l-212 -168q-59 -47 -91 -47zM385 1053h-2q-9 0 -15 6.5t-6 15.5q0 6 5 15.5t14.5 23t11.5 16.5l156 226q63 88 123 88
q35 0 59.5 -18.5t24.5 -51.5q0 -54 -68 -106l-213 -168q-59 -47 -90 -47z" />
    <glyph glyph-name="uni03A9" unicode="&#x3a9;" horiz-adv-x="1292" 
d="M1235 326l-49 -326h-455l-16 41q6 18 36 102t42 119t36 112t34.5 125.5t20 112.5t9.5 117q-3 516 -252 516q-57 0 -99 -23.5t-76 -80.5t-51.5 -161t-17.5 -255q0 -148 47 -312.5t129 -371.5l-18 -41h-455l-43 326h64q29 -80 56 -103.5t87 -23.5h160q-42 33 -69 56.5
t-69 64.5t-69 81.5t-54 93t-40.5 115t-13.5 131.5q0 173 71.5 305.5t193.5 202.5t275 70q234 0 383.5 -154.5t149.5 -414.5q0 -55 -11.5 -107t-26.5 -92.5t-46 -86.5t-52 -74t-64 -70.5t-63.5 -61t-66.5 -59.5h184q54 0 79 23t52 104h68z" />
    <glyph glyph-name="uni03BC" unicode="&#x3bc;" horiz-adv-x="1087" 
d="M401 864v-598q0 -137 127 -137q75 0 125 57q31 36 31 84v488q0 52 -10 72t-41 26q-28 3 -39.5 10.5t-11.5 28.5q0 33 55 33q16 0 61 -3t70 -3q22 0 69 3t74 3q21 0 31 -9.5t10 -35.5v-76v-588q0 -44 15.5 -64.5t48.5 -23.5q43 -3 43 -29q0 -4 -1 -7.5t-2 -6t-4 -5
t-5.5 -4t-7.5 -3.5l-10 -4t-13.5 -4.5t-16 -4.5t-20 -5.5t-23.5 -6.5q-204 -69 -217 -74q-27 -6 -34 -6q-17 0 -17 33v90q0 29 -14 29q-8 0 -31 -19q-3 -3 -21.5 -19.5t-27.5 -23.5t-29 -22.5t-35.5 -23t-37.5 -17.5t-45 -14t-48 -4q-47 0 -89.5 23t-65.5 63l-4 -3v-51
q0 -69 38.5 -166.5t38.5 -148.5q0 -71 -33.5 -112.5t-93.5 -41.5q-120 0 -120 158q0 49 31.5 159t31.5 193v172v557q0 37 -13.5 52t-47.5 20q-47 6 -47 39q0 35 36 35q27 0 81 -3t81 -3q20 0 75.5 3t70.5 3q18 0 25 -14t7 -50z" />
    <glyph glyph-name="pi" unicode="&#x3c0;" horiz-adv-x="1054" 
d="M956 893l58 -14q-6 -58 -28 -128.5t-42 -99.5q-35 -12 -108 -12q-11 -137 -11 -346q1 -89 17.5 -125.5t50.5 -36.5t78 35l22 -51q-33 -58 -95 -99t-124 -41q-194 0 -194 261q0 155 18 409q-46 -1 -117 0.5t-92 1.5v-14q0 -450 -119 -623q-64 -27 -137 -35l-16 43
q90 133 131 304t41 329q-74 1 -118 -12.5t-108 -52.5l-30 61q3 4 18.5 25t22.5 29t24 28t29.5 29.5t33 25t41 23.5t46.5 17t56.5 12.5t64.5 3.5q423 -6 481 -6q46 0 66.5 12t39.5 47z" />
    <glyph glyph-name="endash" unicode="&#x2013;" horiz-adv-x="1024" 
d="M90 553h901q29 0 29 -14q0 -11 -12 -47l-31 -89q-6 -19 -13.5 -24.5t-29.5 -5.5h-901q-29 0 -29 14q0 11 12 47l31 88q6 19 14 25t29 6z" />
    <glyph glyph-name="emdash" unicode="&#x2014;" horiz-adv-x="2048" 
d="M90 553h1925q29 0 29 -14q0 -11 -12 -47l-31 -89q-6 -19 -13.5 -24.5t-29.5 -5.5h-1925q-29 0 -29 14q0 11 12 47l31 88q6 19 14 25t29 6z" />
    <glyph glyph-name="quoteleft" unicode="&#x2018;" horiz-adv-x="473" 
d="M344 1419h2q12 0 21.5 -8t9.5 -22q0 -5 -3 -10.5t-9.5 -13.5t-13 -15t-18 -19.5t-20.5 -23.5q-82 -100 -82 -160q0 -20 12 -30t36 -17q106 -26 106 -129q0 -61 -37 -102.5t-104 -41.5q-73 0 -113.5 58t-40.5 135q0 68 32 143t75 129.5t84.5 90.5t62.5 36z" />
    <glyph glyph-name="quoteright" unicode="&#x2019;" horiz-adv-x="473" 
d="M88 1169v2q0 60 36.5 101t104.5 41q73 0 113.5 -58t40.5 -135q0 -68 -32 -143t-75.5 -129.5t-85.5 -90.5t-63 -36q-12 0 -21.5 8.5t-9.5 22.5q0 5 3 10.5t9.5 13.5t13 15t18 19.5t20.5 23.5q24 30 39 50t29 51.5t14 57.5q0 20 -12 30t-37 17q-105 27 -105 129z" />
    <glyph glyph-name="quotesinglbase" unicode="&#x201a;" horiz-adv-x="473" 
d="M88 121v2q0 59 37 100t104 41q73 0 113.5 -57.5t40.5 -134.5q0 -68 -32 -143.5t-74.5 -130t-84.5 -90.5t-63 -36q-13 0 -23 8.5t-10 22.5q0 5 3 10.5t9.5 13.5t13 15t18 19.5t20.5 23.5q82 100 82 160q0 20 -12 30t-35 17q-107 27 -107 129z" />
    <glyph glyph-name="quotedblleft" unicode="&#x201c;" horiz-adv-x="882" 
d="M338 1419h2q12 0 21.5 -8t9.5 -22q0 -5 -3 -10.5t-9.5 -13.5t-13 -15t-18 -19.5t-20.5 -23.5q-82 -100 -82 -160q0 -20 11.5 -30t35.5 -17q107 -27 107 -129q0 -61 -37 -102.5t-104 -41.5q-73 0 -113.5 58t-40.5 135q0 68 32 143t74.5 129.5t84.5 90.5t63 36zM760 1419h2
q12 0 20.5 -8t8.5 -22q0 -7 -6.5 -16.5t-25.5 -30.5t-30 -35q-25 -31 -39.5 -50.5t-29.5 -51.5t-15 -58q0 -20 12 -30t37 -17q105 -27 105 -129q0 -61 -37 -102.5t-105 -41.5q-73 0 -112 57.5t-39 135.5q0 68 32 143t74.5 129.5t84.5 90.5t63 36z" />
    <glyph glyph-name="quotedblright" unicode="&#x201d;" horiz-adv-x="882" 
d="M84 1169v2q0 60 36.5 101t104.5 41q73 0 112.5 -57.5t39.5 -135.5q0 -68 -32 -143t-74.5 -129.5t-84.5 -90.5t-63 -36q-13 0 -23 8.5t-10 22.5q0 7 7.5 17t26 30t30.5 35q26 31 40 50t29 51t15 58q0 20 -12.5 30t-37.5 17q-104 26 -104 129zM504 1169v2q0 59 37 100.5
t104 41.5q73 0 113.5 -58.5t40.5 -134.5q0 -68 -32 -143t-75 -129.5t-84.5 -90.5t-62.5 -36q-13 0 -23 8.5t-10 22.5q0 5 2.5 10.5t9 13.5t13 15t18 20t20.5 23q24 30 39 50t29 51.5t14 57.5q0 20 -11 29t-36 18q-106 26 -106 129z" />
    <glyph glyph-name="quotedblbase" unicode="&#x201e;" horiz-adv-x="880" 
d="M84 121v2q0 60 36.5 100.5t104.5 40.5q73 0 112.5 -57t39.5 -135q0 -68 -32 -143.5t-74.5 -130t-84.5 -90.5t-63 -36q-13 0 -22 8.5t-9 22.5q0 7 6.5 16.5t25.5 30.5t30 35q25 31 39.5 50.5t29.5 51.5t15 58q0 20 -12.5 30t-37.5 17q-104 27 -104 129zM502 121v2
q0 59 37.5 100t105.5 41q72 0 112 -57.5t40 -134.5q0 -68 -32 -143.5t-74.5 -130t-84.5 -90.5t-63 -36q-13 0 -23 8.5t-10 22.5q0 7 7 17t25.5 30.5t30.5 34.5q82 100 82 160q0 20 -11.5 30t-35.5 17q-106 26 -106 129z" />
    <glyph glyph-name="dagger" unicode="&#x2020;" horiz-adv-x="1044" 
d="M553 -389h-61q-4 310 -25 501.5t-86 329.5q105 121 111 365q-55 0 -98 -13.5t-66.5 -29.5t-56 -29.5t-68.5 -13.5q-53 0 -84 33t-31 84t31 83.5t84 32.5q35 0 68 -13.5t57.5 -29.5t67.5 -29.5t96 -13.5q0 73 -24 134.5t-47.5 109.5t-23.5 88q0 51 33.5 84t91.5 33
t91.5 -33t33.5 -84q0 -33 -15 -70.5t-33 -69t-32.5 -83.5t-13.5 -109q53 0 96 13.5t67.5 29.5t57.5 29.5t68 13.5q52 0 83 -33t31 -83q0 -51 -31 -84t-83 -33q-36 0 -69 13.5t-56 29.5t-66 29.5t-98 13.5q3 -240 111 -365q-65 -139 -87 -333.5t-24 -497.5z" />
    <glyph glyph-name="daggerdbl" unicode="&#x2021;" horiz-adv-x="1044" 
d="M956 838v-2q0 -49 -31.5 -82t-82.5 -33q-36 0 -69 13.5t-56 29.5t-66 29.5t-98 13.5q6 -92 35 -184t71 -160q-42 -66 -71 -158t-35 -184q55 0 98 13.5t66 29.5t56 29.5t69 13.5q52 0 83 -33t31 -84t-31 -84t-83 -33q-36 0 -69 13.5t-56 29.5t-66 29.5t-98 13.5
q-1 -57 13.5 -109t32.5 -83.5t33 -69t15 -69.5q0 -51 -33.5 -84t-91.5 -33t-91.5 33t-33.5 84q0 39 23.5 86.5t47.5 109.5t24 135q-55 0 -98 -13t-66.5 -29t-56 -29t-68.5 -13q-53 0 -84 32t-31 83t31 84t84 33q36 0 68.5 -13.5t56 -29.5t66.5 -29.5t98 -13.5q-6 91 -36 183
t-73 159q43 69 73 161t36 183q-55 0 -98 -13.5t-66.5 -29.5t-56 -29.5t-68.5 -13.5q-53 0 -84 33t-31 84t31 83.5t84 32.5q35 0 68 -13.5t57.5 -29.5t67.5 -29.5t96 -13.5q0 73 -24 134.5t-47.5 109.5t-23.5 88q0 51 33.5 84t91.5 33t91.5 -33t33.5 -84q0 -33 -15 -70.5
t-33 -69t-32.5 -83.5t-13.5 -109q53 0 96 13.5t67.5 29.5t57.5 29.5t68 13.5q52 0 83 -33t31 -83z" />
    <glyph glyph-name="bullet" unicode="&#x2022;" horiz-adv-x="1040" 
d="M520 1020h2q126 0 213.5 -88.5t87.5 -214.5t-88 -214.5t-215 -88.5q-126 0 -214.5 88.5t-88.5 214.5q-1 126 87 214.5t216 88.5z" />
    <glyph glyph-name="ellipsis" unicode="&#x2026;" horiz-adv-x="2048" 
d="M342 272h2q58 0 100.5 -43.5t42.5 -105.5t-42 -106t-103 -44q-62 0 -103.5 44.5t-41.5 105.5q0 60 40.5 104.5t104.5 44.5zM1024 272h2q58 0 100.5 -43.5t42.5 -105.5t-42 -106t-103 -44q-62 0 -103.5 44.5t-41.5 105.5q0 60 40.5 104.5t104.5 44.5zM1706 272h2
q58 0 100.5 -43.5t42.5 -105.5t-41.5 -106t-103.5 -44t-103.5 44.5t-41.5 105.5q0 60 40.5 104.5t104.5 44.5z" />
    <glyph glyph-name="perthousand" unicode="&#x2030;" horiz-adv-x="1970" 
d="M969 20h2q46 0 68 67t22 212t-22.5 210.5t-71.5 65.5q-95 0 -95 -276q0 -145 23.5 -212t73.5 -67zM176 -23v3q0 6 27 49l801 1265q15 21 45 21h41q26 0 26 -10t-26 -52l-803 -1265q-15 -21 -45 -21h-41q-25 0 -25 10zM967 -33h-2q-128 0 -215.5 99.5t-87.5 232.5
t88.5 231.5t216.5 98.5q129 0 217 -98t88 -232t-88 -233t-217 -99zM324 653h-2q-128 0 -216 98.5t-88 231.5t89 231.5t217 98.5q129 0 217 -98t88 -232q0 -133 -88 -231.5t-217 -98.5zM324 707h2q92 0 92 276q0 277 -94 277q-95 0 -95 -277q0 -276 95 -276zM1647 -33h-2
q-128 0 -216 99.5t-88 232.5t89 231.5t217 98.5q129 0 217 -98t88 -232t-88 -233t-217 -99zM1647 20h2q92 0 92 279q0 143 -23 209.5t-71 66.5q-95 0 -95 -276q0 -279 95 -279z" />
    <glyph glyph-name="guilsinglleft" unicode="&#x2039;" horiz-adv-x="618" 
d="M494 188h-148q-22 0 -37 8.5t-33 34.5l-110 158q-12 16 -43 47q-14 10 -14 21q0 9 14 20q22 19 43 47l110 158q18 25 33 33t37 8h148q22 0 22 -14q0 -15 -24 -15q-23 0 -40 -13.5t-38 -43.5l-101 -141q-22 -31 -30 -39q6 -6 16 -20t14 -19l101 -142q21 -31 38 -45t40 -14
q24 0 24 -14q0 -15 -22 -15z" />
    <glyph glyph-name="guilsinglright" unicode="&#x203a;" horiz-adv-x="618" 
d="M125 723h147q22 0 37 -8t33 -33l111 -158q21 -28 43 -47q14 -11 14 -20q0 -11 -14 -21q-31 -31 -43 -47l-111 -158q-18 -25 -33.5 -34t-36.5 -9h-147q-23 0 -23 15q0 14 25 14q23 0 40 14t38 45l100 142q20 28 31 39q-11 11 -31 39l-100 141q-21 30 -38 43.5t-40 13.5
q-25 0 -25 15q0 14 23 14z" />
    <glyph glyph-name="fraction" unicode="&#x2044;" horiz-adv-x="335" 
d="M-313 -25v2q0 8 26 50l803 1267q15 21 45 21h62q26 0 26 -10t-26 -52l-803 -1267q-15 -21 -45 -21h-64q-24 0 -24 10z" />
    <glyph glyph-name="Euro" unicode="&#x20ac;" 
d="M702 588q8 0 15.5 -6t7.5 -15q0 -16 -8.5 -40.5t-20.5 -24.5h-219q3 -66 10 -123.5t21.5 -120t35 -106.5t53.5 -72.5t75 -28.5q50 0 82 38.5t55 115.5q12 43 22.5 87.5t14.5 64t11 37.5t15.5 23t24.5 5q43 0 43 -80q0 -88 -10 -246q-2 -36 -34 -63.5t-78.5 -41t-88.5 -20
t-76 -6.5q-87 0 -160 30.5t-123.5 81t-89 121t-59.5 145.5t-31 159h-108q-9 0 -16 5.5t-7 14.5q0 17 8.5 41.5t20.5 24.5h94v41q0 28 4 90h-104q-9 0 -16 5.5t-7 14.5q0 17 8.5 41.5t20.5 24.5h109q17 102 54 191t92.5 161.5t136 115t175.5 42.5q54 0 107.5 -7t99.5 -27.5
t47 -51.5l11 -246q1 -35 -8.5 -47t-34.5 -12q-5 0 -10.5 2.5t-10.5 7.5t-9.5 10.5t-10 15.5t-9.5 17.5t-9.5 21t-9 22t-10 24.5t-10.5 24q-31 73 -63.5 116.5t-73.5 43.5t-73 -39.5t-51.5 -106.5t-30.5 -134.5t-17 -143.5h264q8 0 15.5 -6t7.5 -15q0 -16 -8.5 -40.5
t-20.5 -24.5h-262q-2 -29 -2 -72v-59h229z" />
    <glyph glyph-name="afii61289" unicode="&#x2113;" horiz-adv-x="819" 
d="M743 258l50 -41q-127 -250 -349 -250q-144 0 -213 76q-37 47 -52 101.5t-15 177.5v127l-98 -66l-27 63l125 89v270q0 190 20.5 282.5t77.5 167.5q44 61 99.5 93t113.5 32q95 0 147 -72.5t52 -189.5q0 -153 -62 -269t-200 -255v-148q0 -184 29 -253.5t110 -69.5
q57 0 102.5 36t89.5 99zM412 899v-192q59 68 94 175t35 230q0 199 -66 199q-21 0 -32.5 -15t-19 -63t-9.5 -123.5t-2 -210.5z" />
    <glyph glyph-name="trademark" unicode="&#x2122;" horiz-adv-x="2021" 
d="M164 1118h-51v164h671v-164h-51q-19 113 -110 113h-86v-557q0 -30 1.5 -42t11 -23.5t27.5 -15t54 -5.5v-51h-367v51q65 4 78.5 18.5t13.5 67.5v557h-82q-49 0 -76 -31.5t-34 -81.5zM852 1282h272l250 -510l258 510h240v-51q-60 -4 -78 -23t-18 -65v-481q0 -45 14 -57.5
t78 -16.5v-51h-367v51q66 4 79 16t13 58v405h-4l-264 -530h-27l-256 530h-4v-352q0 -74 17 -98.5t80 -28.5v-51h-246v51q60 4 74 26.5t14 100.5v422q-4 41 -42 67.5t-83 28.5v49z" />
    <glyph glyph-name="Omega" unicode="&#x2126;" horiz-adv-x="1292" 
d="M1235 326l-49 -326h-455l-16 41q6 18 36 102t42 119t36 112t34.5 125.5t20 112.5t9.5 117q-3 516 -252 516q-57 0 -99 -23.5t-76 -80.5t-51.5 -161t-17.5 -255q0 -148 47 -312.5t129 -371.5l-18 -41h-455l-43 326h64q29 -80 56 -103.5t87 -23.5h160q-42 33 -69 56.5
t-69 64.5t-69 81.5t-54 93t-40.5 115t-13.5 131.5q0 173 71.5 305.5t193.5 202.5t275 70q234 0 383.5 -154.5t149.5 -414.5q0 -55 -11.5 -107t-26.5 -92.5t-46 -86.5t-52 -74t-64 -70.5t-63.5 -61t-66.5 -59.5h184q54 0 79 23t52 104h68z" />
    <glyph glyph-name="estimated" unicode="&#x212e;" horiz-adv-x="1624" 
d="M1561 621h-1213q-10 0 -10 -9v-366q0 -24 16 -43q90 -93 208.5 -146t250.5 -53q141 0 266 59.5t215 163.5h109q-101 -120 -257.5 -190t-334.5 -70q-204 0 -376 89.5t-272 244.5t-100 338t100 338.5t272 245.5t376 90t376.5 -90t273 -245.5t100.5 -338.5v-18zM1284 668
v368q0 26 -16 45q-92 89 -209.5 140t-245.5 51q-130 0 -248.5 -52.5t-208.5 -144.5q-18 -18 -18 -47v-360q0 -4 3 -8.5t7 -4.5h928q8 0 8 13z" />
    <glyph glyph-name="partialdiff" unicode="&#x2202;" horiz-adv-x="1005" 
d="M494 799h2q56 0 110 -24.5t92 -74.5q23 175 25 213q11 172 -41 279q-56 113 -199 113q-119 0 -264 -121q-16 -1 -37.5 30.5t-33.5 74t-3 67.5q120 74 265 74q136 0 239 -72.5t170 -202.5q53 -102 77 -223.5t24 -229.5q0 -259 -93 -450q-62 -131 -165.5 -208t-243.5 -77
q-156 0 -250 98t-94 269q0 95 31.5 179.5t80.5 143.5q56 65 136.5 103.5t171.5 38.5zM549 707h-2q-43 0 -79.5 -21.5t-70.5 -83.5q-38 -72 -60 -187t-22 -225q0 -153 109 -153q81 0 166 203q60 153 88 368q-15 36 -49.5 67.5t-79.5 31.5z" />
    <glyph glyph-name="Delta" unicode="&#x2206;" horiz-adv-x="1185" 
d="M1124 0h-1065v72l467 1220l109 27l489 -1247v-72zM811 123l-315 825l-303 -825h618z" />
    <glyph glyph-name="product" unicode="&#x220f;" horiz-adv-x="1312" 
d="M1266 1311v-68q-42 -3 -67.5 -6.5t-46.5 -13t-30.5 -20t-16 -34t-8 -48t-1.5 -68.5v-944q0 -46 1.5 -72.5t8 -51t16 -35.5t30.5 -21t45.5 -14.5t66.5 -8.5v-66h-557v66q34 3 52.5 6.5t35.5 12.5t24 19.5t12 35.5t6 51t1 75v1051q0 47 -13 59.5t-59 12.5h-225
q-44 0 -55 -11.5t-11 -54.5v-1057q0 -117 9 -145q13 -36 59 -47q19 -5 51 -8v-66h-547v66q41 4 66 8t45.5 14t30.5 21.5t16.5 35.5t8 50t1.5 71v947q0 44 -1.5 69t-8.5 48t-16.5 33.5t-31.5 20t-47.5 13t-68.5 6.5v68h1225z" />
    <glyph glyph-name="summation" unicode="&#x2211;" horiz-adv-x="1028" 
d="M989 240l-88 -416h-852v63l391 578l-387 780v66h848q1 -12 9.5 -135t13.5 -199l-68 -14q-29 121 -68 190q-22 47 -60 62.5t-136 15.5h-232l295 -576l-405 -612h401q47 0 73 1.5t53.5 9.5t42.5 20t33.5 38t33 58t35.5 86z" />
    <glyph glyph-name="minus" unicode="&#x2212;" horiz-adv-x="1222" 
d="M1128 430h-1032v176h1032v-176z" />
    <glyph glyph-name="uni2215" unicode="&#x2215;" horiz-adv-x="335" 
d="M-313 -25v2q0 8 26 50l803 1267q15 21 45 21h62q26 0 26 -10t-26 -52l-803 -1267q-15 -21 -45 -21h-64q-24 0 -24 10z" />
    <glyph glyph-name="uni2219" unicode="&#x2219;" horiz-adv-x="495" 
d="M248 369h-2q-61 0 -103.5 44t-42.5 105q0 62 43.5 106t104.5 44t103 -44t42 -106t-42 -105.5t-103 -43.5z" />
    <glyph glyph-name="radical" unicode="&#x221a;" horiz-adv-x="1036" 
d="M1020 1624l-332 -1954l-55 -22l-379 1014l-162 -70l-26 80l356 151l244 -706h6l250 1525z" />
    <glyph glyph-name="infinity" unicode="&#x221e;" horiz-adv-x="1394" 
d="M1313 537v-2q0 -148 -88.5 -237t-208.5 -89q-84 0 -159.5 42t-156.5 157q-76 -99 -151.5 -149t-175.5 -50q-119 0 -205 87.5t-86 227.5q0 143 87.5 232.5t219.5 89.5q95 0 170.5 -47.5t145.5 -143.5q69 80 103 108q98 83 216 83q122 0 205.5 -85.5t83.5 -223.5zM391 354
h2q63 0 113.5 41.5t114.5 122.5q-69 95 -96 122q-62 62 -138 62q-73 0 -115.5 -49.5t-42.5 -130.5q0 -69 47.5 -118.5t114.5 -49.5zM1010 702h-2q-19 0 -37.5 -5.5t-33 -11t-33 -20.5t-28.5 -22.5t-28.5 -29t-24 -27.5t-24.5 -30t-21 -26q78 -103 127.5 -139.5t114.5 -36.5
q64 0 103.5 53.5t39.5 114.5q0 77 -42 128.5t-111 51.5z" />
    <glyph glyph-name="integral" unicode="&#x222b;" horiz-adv-x="761" 
d="M297 -33l-41 740q-10 151 -0.5 270t25.5 208t46 153t61 106t69.5 66.5t72 34t68.5 9.5q56 0 103 -30t47 -84q0 -56 -37 -87.5t-84 -31.5q-26 0 -44 20t-24.5 43.5t-16 43.5t-22.5 20q-18 0 -27.5 -20t-14.5 -80t1 -170l37 -672q10 -185 -3.5 -337.5t-46 -256t-81 -175
t-105 -104t-120.5 -32.5q-60 0 -103 34.5t-43 81.5q-1 55 42 92t94 37q23 0 39 -21.5t23 -48t17 -48t23 -21.5q32 0 41.5 65.5t3.5 194.5z" />
    <glyph glyph-name="approxequal" unicode="&#x2248;" horiz-adv-x="952" 
d="M791 852l100 -88q-44 -88 -110.5 -142.5t-137.5 -54.5q-51 0 -92.5 16t-97.5 54q-42 30 -73.5 44.5t-68.5 14.5q-27 0 -49 -9t-43 -33t-30.5 -36.5t-32.5 -48.5l-101 86q40 85 112.5 140t154.5 55q14 0 26.5 -1t25.5 -4t22 -5t21.5 -7.5t18.5 -8t18.5 -9.5t15.5 -8.5
t16 -10t14 -8.5q9 -6 29.5 -18.5t27 -17t21 -12t22.5 -10t19 -5t22 -2.5q43 0 77 32.5t73 96.5zM791 502l100 -86q-45 -89 -110.5 -143t-139.5 -54q-48 0 -90 16t-98 52q-43 31 -75 46t-67 15q-26 0 -48 -9t-41 -29.5t-29.5 -35.5t-29.5 -44q-5 -7 -7 -11l-101 88
q40 83 112.5 138t154.5 55q18 0 34.5 -2t32.5 -6.5t26.5 -7.5t25.5 -11.5t20.5 -11t21 -12.5t17.5 -11q12 -7 36 -22.5t36.5 -22.5t31.5 -13.5t37 -6.5q45 0 76 30.5t74 98.5z" />
    <glyph glyph-name="notequal" unicode="&#x2260;" horiz-adv-x="952" 
d="M715 948l-64 -147h217v-158h-272l-96 -233h368v-156h-426l-82 -197l-120 45l63 152h-221v156h278l95 233h-373v158h430l82 192z" />
    <glyph glyph-name="lessequal" unicode="&#x2264;" horiz-adv-x="952" 
d="M864 188l-774 404v168l774 401v-180l-624 -303v-4l624 -303v-183zM872 -35h-786v160h786v-160z" />
    <glyph glyph-name="greaterequal" unicode="&#x2265;" horiz-adv-x="952" 
d="M96 1161l772 -401v-170l-774 -402v183l627 303v4l-625 303v180zM868 -35h-782v160h782v-160z" />
    <glyph glyph-name="lozenge" unicode="&#x25ca;" horiz-adv-x="1040" 
d="M954 629l-338 -760h-194l-336 760l342 764h188zM780 629l-256 600h-6l-258 -600l258 -604h6z" />
    </font>
</defs>
</svg>
