<?xml version="1.0" standalone="no"?>
<!DOCTYPE svg PUBLIC "-//W3C//DTD SVG 1.1//EN" "http://www.w3.org/Graphics/SVG/1.1/DTD/svg11.dtd" >
<svg xmlns="http://www.w3.org/2000/svg" xmlns:xlink="http://www.w3.org/1999/xlink" version="1.1">
<metadata>
Created by FontForge 20170731 at Fri Nov 20 17:46:48 2020
 By Aleksey,,,
Copyright (c) 1994, 2001 Adobe Systems Incorporated.  All Rights Reserved.
</metadata>
<defs>
<font id="ITCGaramondStd-UltCond" horiz-adv-x="1024" >
  <font-face 
    font-family="ITC Garamond Std Ult Cond"
    font-weight="800"
    font-stretch="ultra-condensed"
    units-per-em="2048"
    panose-1="2 8 9 3 6 7 6 2 3 4"
    ascent="1440"
    descent="-608"
    x-height="934"
    cap-height="1290"
    bbox="-414 -512 2044 1808"
    underline-thickness="102"
    underline-position="-307"
    unicode-range="U+0020-FB02"
  />
<missing-glyph 
d="M0 0v1434h1024v-1434h-1024zM512 809l348 522h-696zM573 717l349 -522v1044zM164 102h696l-348 523zM102 1239v-1044l349 522z" />
    <glyph glyph-name="fi" unicode="fi" horiz-adv-x="1138" 
d="M612 823h-86q-33 0 -46 -14.5t-13 -50.5v-619q0 -28 7 -44t30 -21q15 -4 23.5 -7.5t17 -13.5t8.5 -24q0 -37 -57 -37q-29 0 -95 4t-106 4q-46 0 -115.5 -4t-93.5 -4q-40 0 -54 9t-14 28q0 22 11.5 31t38.5 14q36 7 45.5 24.5t9.5 57.5v635q0 4 -1 8t-3 6.5t-3.5 4.5
t-5.5 3.5t-6.5 2t-8 1.5t-8 1t-9 0.5t-8.5 0.5q-17 1 -27 3.5t-18.5 11.5t-8.5 24q0 25 15.5 39t42.5 25t42 24t15 35q0 125 43 220t118 151t168.5 83t203.5 27q100 0 170 -12t105.5 -34.5t50 -47.5t14.5 -57q0 -29 -6 -66.5t-19 -82.5t-41 -75t-66 -30q-24 0 -44 9
t-32.5 21.5t-24 35t-17.5 40t-15 45.5q-10 31 -14.5 46t-16 39.5t-22 36t-28.5 21t-40 9.5q-155 0 -155 -361q0 -50 8.5 -61.5t36.5 -11.5h137q140 0 246 28q22 6 45 14t37 12.5t24 4.5q13 0 16 -12.5t3 -48.5v-115v-637q0 -40 5 -57.5t14.5 -24.5t37.5 -16
q26 -8 34.5 -16.5t8.5 -30.5q0 -35 -47 -35q-36 0 -108.5 4t-108.5 4q-38 0 -107.5 -4t-99.5 -4q-22 0 -36.5 11t-14.5 26q0 21 13 30t36 15q18 5 23.5 23t5.5 75v586q0 36 -14 50.5t-46 14.5z" />
    <glyph glyph-name="fl" unicode="fl" horiz-adv-x="1138" 
d="M123 156v635q0 4 -1 8t-3 6.5t-3.5 4.5t-5.5 3.5t-6.5 2t-8 1.5t-8 1t-9 0.5t-8.5 0.5q-17 1 -27 3.5t-18.5 11.5t-8.5 24q0 25 15.5 39t42.5 25t42 24t15 35q0 219 132 350t349 131q64 0 110 -9.5t64.5 -21t32 -21t19.5 -9.5q3 0 25 9t53.5 22t50.5 20q27 10 32 10
q17 0 17 -37v-1269q0 -66 55 -82q39 -10 39 -41q0 -25 -11 -33t-38 -8q-21 0 -91.5 4t-117.5 4q-38 0 -107.5 -4t-99.5 -4q-22 0 -36.5 11t-14.5 26q0 21 13 30t36 15q17 4 23 17.5t6 47.5v944q-44 62 -68 191q-9 45 -21 65.5t-40 20.5q-19 0 -33 -13.5t-22 -44t-13 -58
t-7 -79.5t-2.5 -83.5t-0.5 -92.5q0 -42 6 -52.5t25 -10.5h102q14 0 18.5 -8.5t4.5 -45.5q0 -34 -3.5 -41.5t-21.5 -7.5h-92q-37 0 -37 -39v-645q0 -28 7 -44t30 -21q15 -4 23.5 -7.5t17 -13.5t8.5 -24q0 -37 -57 -37q-29 0 -95 4t-106 4q-47 0 -117 -4t-92 -4q-40 0 -54 9
t-14 28q0 22 11.5 31t38.5 14q36 7 45.5 24.5t9.5 57.5z" />
    <glyph glyph-name=".notdef" 
d="M0 0v1434h1024v-1434h-1024zM512 809l348 522h-696zM573 717l349 -522v1044zM164 102h696l-348 523zM102 1239v-1044l349 522z" />
    <glyph glyph-name=".null" horiz-adv-x="0" 
 />
    <glyph glyph-name="nonmarkingreturn" horiz-adv-x="682" 
 />
    <glyph glyph-name="space" unicode=" " horiz-adv-x="512" 
 />
    <glyph glyph-name="exclam" unicode="!" horiz-adv-x="569" 
d="M303 397h-2q-34 0 -46.5 14.5t-21.5 59.5q-10 49 -27.5 125t-23.5 102q-8 37 -18.5 84.5t-16.5 73t-13.5 59.5t-11 51.5t-8.5 41t-7.5 36t-5 28t-3.5 26t-1.5 21t-0.5 20.5q0 176 189 176q188 0 188 -162q0 -27 -5 -66.5t-12 -79t-25.5 -140t-33.5 -189.5
q-13 -73 -24 -146q-13 -83 -27 -109t-43 -26zM301 -16h-2q-71 0 -118.5 52.5t-47.5 125.5q0 72 48.5 125t119.5 53q70 0 119 -53.5t49 -124.5q0 -72 -48 -125t-120 -53z" />
    <glyph glyph-name="quotedbl" unicode="&#x22;" horiz-adv-x="681" 
d="M158 1315h2q112 0 112 -129q0 -25 -2 -43q-8 -73 -24.5 -218.5t-24.5 -217.5q-8 -68 -63 -68q-56 0 -64 68q-8 72 -24.5 217.5t-24.5 218.5q-2 18 -2 43q0 129 115 129zM524 1315h2q113 0 113 -129q0 -25 -2 -43q-8 -73 -24.5 -218.5t-24.5 -217.5q-8 -68 -64 -68
q-55 0 -63 68q-8 72 -24.5 217.5t-24.5 218.5q-2 18 -2 43q0 129 114 129z" />
    <glyph glyph-name="numbersign" unicode="#" 
d="M713 1116l51 168q7 22 17.5 26.5t47.5 4.5q39 0 51.5 -2.5t12.5 -12.5l-4 -16l-49 -168q-4 -16 -4 -20q0 -11 22 -11h166q20 0 20 -12q0 -11 -43 -143q-6 -20 -13 -25.5t-25 -5.5h-164q-21 0 -26.5 -5.5t-10.5 -25.5l-37 -116q-4 -16 -4 -21q0 -10 22 -10h160
q23 0 23 -12q0 -14 -43 -146q-6 -18 -14 -23t-25 -5h-156q-19 0 -25 -5.5t-12 -25.5l-53 -168q-7 -22 -18.5 -26.5t-55.5 -4.5q-35 0 -45 2t-10 12q0 1 4 17l51 168q4 16 4 20q0 11 -22 11h-146q-21 0 -27 -5.5t-11 -25.5l-54 -168q-6 -22 -15.5 -26.5t-45.5 -4.5
q-41 0 -54.5 2t-13.5 12q0 5 4 17l52 168q4 16 4 20q0 11 -25 11h-164q-22 0 -22 12q0 27 43 143q7 19 15 25t22 6h168q18 0 24 5.5t12 25.5l37 116q4 16 4 21q0 10 -24 10h-158q-25 0 -25 12q0 3 44 146q6 18 14 23t24 5h158q18 0 24.5 5.5t12.5 25.5l51 168
q9 22 20.5 26.5t55.5 4.5q35 0 44 -1.5t9 -10.5q0 -11 -2 -19l-53 -168q-4 -16 -4 -20q0 -11 24 -11h146q20 0 26.5 5.5t12.5 25.5zM414 721h147q28 0 33 10l43 137q4 16 4 21q0 10 -23 10h-149q-26 0 -31 -10l-43 -137q-4 -16 -4 -21q0 -10 23 -10z" />
    <glyph glyph-name="dollar" unicode="$" 
d="M694 1452l-8 -180q51 -7 123 -33q31 -12 43 -27.5t12 -56.5v-176q0 -40 -8.5 -53t-32.5 -13q-7 0 -14 2.5t-12.5 7.5t-10.5 11t-10 15.5t-8.5 17.5t-8.5 21t-8 21.5t-8 23.5l-8 24q-23 65 -56.5 104t-90.5 39q-55 0 -89 -35t-34 -90q0 -28 9.5 -54t21 -44t37.5 -41
t41 -34t51.5 -36t50.5 -35q47 -33 79 -62t65 -73.5t50 -104.5t17 -134q0 -134 -65.5 -250t-178.5 -170l-10 -266q-2 -25 -11 -33t-38 -8q-30 0 -40 8t-9 31l8 237q-30 -6 -62 -6q-27 0 -43 2l-8 -231q-2 -25 -11 -33t-38 -8t-39 8t-10 31l8 249q-103 20 -174 64
q-29 18 -29 104q0 113 4 191q3 50 14.5 68t37.5 18q27 0 41.5 -30.5t36.5 -109.5l3 -12q27 -100 70 -156.5t121 -56.5q69 0 112.5 44.5t43.5 119.5q0 21 -4 40.5t-8 35t-16 32.5t-18.5 28t-25 27t-26 23.5t-31 23.5t-31 21t-34.5 22.5t-34 21.5q-51 34 -84.5 61.5t-70 71.5
t-54.5 102t-18 131q0 113 60.5 204t158.5 136l8 207q2 25 11 33t38 8q30 0 40.5 -8t9.5 -31l-7 -174q32 8 54 8h51l6 164q2 25 11 33t38 8q30 0 40 -8t9 -31z" />
    <glyph glyph-name="percent" unicode="%" horiz-adv-x="1478" 
d="M266 -23v3q0 6 27 49l797 1265q15 21 51 21h43q28 0 28 -10t-26 -52l-797 -1265q-15 -21 -51 -21h-43q-29 0 -29 10zM389 709h2q23 0 36.5 21t21.5 81.5t8 169.5t-8 169.5t-22 81.5t-38 21t-38 -21t-21.5 -81.5t-7.5 -169.5t7.5 -169.5t21.5 -81.5t38 -21zM1090 29h2
q23 0 36.5 21t21 81.5t7.5 169.5t-7.5 169.5t-21.5 81.5t-38 21t-38 -21t-22 -81.5t-8 -169.5t8 -169.5t22 -81.5t38 -21zM389 647h-2q-135 0 -233.5 99t-98.5 235q0 137 98.5 235.5t235.5 98.5t235.5 -98.5t98.5 -235.5t-98.5 -235.5t-235.5 -98.5zM1090 -33h-3
q-135 0 -233 99t-98 235q0 137 99 235.5t235 98.5t234.5 -98.5t98.5 -235.5t-98.5 -235.5t-234.5 -98.5z" />
    <glyph glyph-name="ampersand" unicode="&#x26;" horiz-adv-x="1138" 
d="M195 991v2q0 142 104.5 232t249.5 90q126 0 211.5 -67t85.5 -167q0 -47 -13.5 -87t-39.5 -71t-45.5 -48.5t-47.5 -39.5q-5 -4 -8 -6q-5 -4 -11.5 -9t-10.5 -8t-7.5 -6t-5.5 -6t-2 -5q0 -3 17 -33q16 -26 57.5 -98.5t52.5 -90.5q14 -24 25 -24q14 0 33.5 45.5t19.5 69.5
q0 37 -37 49q-39 12 -39 43q0 19 12.5 31t37.5 12q24 0 60 -4t54 -4q20 0 63.5 4t61.5 4q51 0 51 -43q0 -17 -12.5 -25t-44.5 -16q-42 -10 -61 -21.5t-41 -44.5q-14 -22 -37 -67.5t-31 -59.5q-35 -64 -35 -69q0 -10 17 -41q54 -96 110 -209q50 -103 88 -113q36 -10 52 -22.5
t16 -36.5q0 -22 -10 -30.5t-33 -8.5t-91.5 4t-101.5 4q-36 0 -98 -4t-82 -4q-22 0 -29 4.5t-12 19.5q-3 11 -12 33q-7 21 -12 31q-22 43 -29 43q-6 0 -33 -27q-129 -129 -248 -129q-154 0 -248 98t-94 250q0 63 19 113t53.5 83.5t66 54t72.5 38.5q15 7 34 14.5t30.5 12.5
t22.5 10.5t16.5 10.5t5.5 10q0 9 -34 59t-68.5 125.5t-34.5 144.5zM596 1225h-2q-40 0 -62 -32t-22 -85q0 -51 36 -136t64 -85q10 0 29.5 23t37 67.5t17.5 91.5q0 156 -98 156zM328 436v-2q0 -40 11.5 -85t33 -87t57.5 -70t80 -28q31 0 47 9t16 36q0 14 -57 123t-100 180
q-27 45 -37 45q-18 0 -34.5 -37.5t-16.5 -83.5z" />
    <glyph glyph-name="quotesingle" unicode="'" horiz-adv-x="454" 
d="M227 1315h2q113 0 113 -129q0 -25 -2 -43q-8 -73 -24.5 -218.5t-24.5 -217.5q-8 -68 -64 -68q-55 0 -63 68q-8 72 -24.5 217.5t-24.5 218.5q-2 18 -2 43q0 129 114 129z" />
    <glyph glyph-name="parenleft" unicode="(" horiz-adv-x="796" 
d="M143 575v3q0 130 31 255.5t80.5 222t109 179t118 135.5t106 83t74.5 30q40 0 40 -37q0 -29 -43 -88q-81 -113 -127 -247t-59.5 -255t-13.5 -281q0 -118 7.5 -212t28 -195.5t61.5 -195t103 -179.5q43 -59 43 -88q0 -37 -40 -37q-27 0 -74.5 30t-106 83t-118 136t-109 179
t-80.5 222.5t-31 256.5z" />
    <glyph glyph-name="parenright" unicode=")" horiz-adv-x="796" 
d="M653 575v-2q0 -112 -23 -221.5t-61.5 -197t-87 -166t-99 -136t-99 -100t-87 -63.5t-61.5 -21q-19 0 -30 10t-11 27q0 29 43 88q118 164 159.5 350.5t41.5 431.5t-41.5 432t-159.5 351q-43 59 -43 88q0 17 11 27t30 10q33 0 93.5 -40.5t134 -122.5t138 -187.5t108.5 -254
t44 -303.5z" />
    <glyph glyph-name="asterisk" unicode="*" horiz-adv-x="796" 
d="M395 516h-2q-39 0 -66.5 32t-27.5 77q0 24 41 101t41 118q0 28 -19 28q-6 0 -13 -2.5t-12.5 -5.5t-12.5 -10t-11.5 -12t-12.5 -15.5t-12 -16t-13 -18.5t-13 -18q-35 -48 -66 -74t-71 -26q-41 0 -66.5 33t-25.5 69q0 37 24.5 59t54 28.5t76.5 10.5q12 1 33 2t32.5 2t28 3
t26 4.5t19 6.5t13.5 9.5t4 13.5q0 7 -2.5 13t-8.5 10.5t-12 8t-16.5 6t-19 4t-22.5 3t-23.5 2t-26 1.5t-25.5 2q-33 3 -57.5 8t-48.5 16.5t-36.5 32.5t-12.5 51q0 47 26.5 72.5t73.5 25.5q37 0 63 -26.5t54 -75.5q2 -4 7 -12q18 -32 28.5 -47t28 -30t36.5 -15q31 0 31 28
q0 26 -41 110t-41 126q0 37 28.5 61.5t69.5 24.5q44 0 73.5 -24.5t29.5 -61.5q0 -42 -41 -126t-41 -110q0 -28 18 -28q7 0 14 2.5t14.5 9t13.5 12t14 17t12.5 18t14 20.5t13.5 21q31 48 57 74t56 26q45 0 77 -30.5t32 -75.5q0 -29 -12 -48.5t-35 -29.5t-46 -14t-55 -6
q-9 0 -25 -1t-25 -1.5t-22.5 -1.5t-21 -2t-18 -3.5t-16 -5.5t-11 -7.5t-8 -10.5t-2.5 -13q0 -8 4 -13.5t13.5 -9.5t18.5 -6.5t25 -4.5t28 -3t32 -2t32 -2q46 -4 76 -11t54 -29t24 -58q0 -40 -35 -71t-76 -31q-36 0 -64 26.5t-59 73.5q-3 5 -12.5 20.5t-13.5 21t-12 17
t-13 16.5t-12 11.5t-13.5 9t-13.5 2.5q-22 0 -22 -34q0 -50 37 -121t37 -92q0 -45 -28 -77t-69 -32z" />
    <glyph glyph-name="plus" unicode="+" horiz-adv-x="1228" 
d="M508 625v411h213v-411h409v-213h-409v-412h-213v412h-410v213h410z" />
    <glyph glyph-name="comma" unicode="," horiz-adv-x="512" 
d="M258 332h2q101 0 157 -81.5t56 -187.5q0 -100 -50 -207.5t-124 -189.5q-50 -57 -99 -91t-83 -34q-37 0 -37 35q0 13 12.5 28t48 44.5t49.5 42.5q111 103 111 215q0 47 -23.5 63t-97.5 27q-42 7 -72 44.5t-30 102.5q0 82 48.5 135.5t131.5 53.5z" />
    <glyph glyph-name="hyphen" unicode="-" horiz-adv-x="681" 
d="M170 586h428q27 0 27 -21q0 -9 -30.5 -94.5t-41.5 -112.5q-7 -18 -41 -18h-428q-27 0 -27 20q0 6 15.5 51t35.5 99t21 57q7 19 41 19z" />
    <glyph glyph-name="period" unicode="." horiz-adv-x="512" 
d="M78 154v2q0 72 53 124t125 52t125 -52.5t53 -125.5t-53 -126t-125 -53t-125 53t-53 126z" />
    <glyph glyph-name="slash" unicode="/" horiz-adv-x="569" 
d="M-23 -311h-145q-29 0 -29 12q0 3 21 55l661 1680q9 26 43 26h154q29 0 29 -12q0 -4 -21 -51l-661 -1684q-6 -16 -17 -21t-35 -5z" />
    <glyph glyph-name="zero" unicode="0" 
d="M49 641v2q0 190 59 343.5t165 241t239 87.5t239 -87.5t165 -241.5t59 -345t-59 -345t-165 -241.5t-239 -87.5t-239 87.5t-165 241.5t-59 345zM406 641v-2q0 -161 7 -273t21.5 -176t33 -92t44.5 -28t44.5 28t33 92t21.5 176.5t7 274.5t-7 274.5t-21.5 176.5t-33 92
t-44.5 28t-44.5 -28t-33 -92t-21.5 -176.5t-7 -274.5z" />
    <glyph glyph-name="one" unicode="1" 
d="M354 203v815q0 24 -13.5 37.5t-37.5 13.5q-27 0 -59 -12q-6 -2 -17 -7t-20 -7.5t-17 -2.5q-24 0 -24 35q0 43 84 72q150 51 407 160q19 8 31 8q23 0 23 -39v-1073q0 -65 20 -90t70 -31q55 -7 55 -45q0 -45 -53 -45q-7 0 -37 2t-91 4t-143 2t-142.5 -2t-90.5 -4t-37 -2
q-53 0 -53 45q0 20 15 27.5t65 17.5q40 8 52.5 31t12.5 90z" />
    <glyph glyph-name="two" unicode="2" 
d="M879 948v-2q0 -67 -15 -119.5t-53 -103t-82.5 -92t-124.5 -105.5q-168 -135 -207 -174t-39 -47q0 -6 35 -6h168q55 0 96.5 12.5t67 35.5t40 45.5t26.5 53.5q3 9 9 25.5t9 25t9 20.5t11 17.5t12.5 10t16.5 4.5q23 0 31 -23.5t8 -99.5q0 -268 -6 -356q-3 -37 -9 -54
t-12 -20.5t-20 -3.5q-55 0 -88 2q-189 6 -268 6q-118 0 -236 -4q-114 -4 -121 -4q-24 0 -32.5 12t-8.5 35q0 12 5.5 26.5t17 32t19 29t22 30t16.5 21.5q129 175 191 281q155 270 155 440q0 130 -46.5 203.5t-115.5 73.5q-48 0 -83 -22.5t-53 -60t-26 -75.5t-8 -78
q0 -76 -45 -76t-45 66q0 172 102.5 278.5t282.5 106.5q175 0 284.5 -105.5t109.5 -261.5z" />
    <glyph glyph-name="three" unicode="3" 
d="M946 475v-2q0 -107 -56.5 -219.5t-144 -199t-199.5 -142t-218 -55.5q-108 0 -175 53t-67 158q0 57 33 89.5t90 32.5q105 0 153 -122q5 -13 12 -33t11 -30.5t11 -22.5t15.5 -17.5t20.5 -5.5q38 0 67 40.5t43 103.5t20.5 122.5t6.5 114.5q0 56 -10.5 104.5t-33.5 93.5
t-68 71t-107 26q-42 0 -73.5 -11t-62 -32.5t-36.5 -24.5q-20 -10 -39 -10q-9 0 -18.5 9.5t-9.5 21.5q0 20 14 41q11 12 52 44t69 60q100 102 151.5 183t51.5 159q0 50 -28 83.5t-73 33.5q-39 0 -68.5 -23t-60.5 -69q-10 -15 -23 -45t-24 -46t-27 -16q-36 0 -36 41
q0 21 11 52.5t39.5 72.5t70 75t111 57.5t153.5 23.5t147 -20.5t103 -70t40 -124.5q0 -67 -41 -120t-122 -101q-62 -37 -136 -70q-31 -14 -40 -19.5t-9 -11.5q0 -8 10 -8q5 0 26.5 8t59.5 16.5t84 8.5q146 0 238 -85t92 -243z" />
    <glyph glyph-name="four" unicode="4" 
d="M948 422h-127q-24 0 -24 -16v-273q0 -22 17 -32.5t60 -18.5q38 -6 50 -14t12 -29q0 -26 -18.5 -36.5t-57.5 -10.5q-30 0 -105 4t-161 4q-97 0 -162 -4t-74 -4q-51 0 -67.5 10t-16.5 39q0 37 68 41q54 3 76 30t22 95v194q0 21 -18 21h-320h-32q-14 0 -17.5 15.5t-3.5 86.5
q0 23 31 70q22 33 78.5 112t189.5 265t283 399q16 23 32 34t44 15q14 2 57 2q24 0 24 -8q0 -3 -20 -33q-39 -58 -276 -379.5t-295 -410.5q-29 -44 -29 -51q0 -15 22 -15h226q16 0 20 15t4 59v246q0 32 52 55q278 131 290 131q15 0 15 -26v-461q0 -19 12 -19h141q13 0 19 -10
t6 -43q0 -22 -4.5 -33.5t-9 -13.5t-13.5 -2z" />
    <glyph glyph-name="five" unicode="5" 
d="M887 471v-2q0 -146 -71.5 -262.5t-188.5 -200.5q-107 -75 -228 -116.5t-211 -41.5q-25 0 -37 10.5t-12 24.5q0 20 15 31.5t59 26.5q8 3 46 16t51 18t41 17t47.5 24.5t39.5 28.5q113 91 113 250q0 150 -154 227q-60 31 -153 47q-88 15 -97 22q-8 5 -8 17q0 1 0.5 7
t1.5 19.5t2 29.5q15 141 60 563q3 28 15.5 34.5t60.5 8.5q200 7 336.5 13t179.5 8.5t67 2.5q23 0 23 -20q0 -7 -3.5 -34t-10 -83t-11.5 -121q-1 -11 -4 -15.5t-18 -8.5t-47 -6q-76 -5 -227.5 -9.5t-227.5 -9.5q-41 -3 -53.5 -9.5t-14.5 -19.5q-10 -72 -10 -79q0 -20 15 -24
t76 -6q24 0 38 -1q211 -6 344 -88q156 -100 156 -289z" />
    <glyph glyph-name="six" unicode="6" 
d="M975 473v-2q0 -136 -52.5 -250t-156 -184t-238.5 -70q-143 0 -250.5 82t-162 218t-54.5 306q0 134 34.5 255t95.5 215.5t136.5 168t166.5 127.5q203 123 407 123q37 0 47 -4.5t10 -23.5q0 -7 -6 -13t-19.5 -11.5t-27.5 -10t-38 -11.5t-42 -14q-89 -31 -160.5 -95.5
t-116.5 -143.5t-75 -174t-42.5 -184.5t-12.5 -178.5q0 -234 39 -387.5t98 -153.5q37 0 56.5 47.5t19.5 171.5q0 66 -8.5 149.5t-35 169t-65.5 93.5q-32 7 -43 23q-6 9 -6 24q0 42 53.5 85.5t132.5 43.5q138 0 227 -115t89 -276z" />
    <glyph glyph-name="seven" unicode="7" 
d="M967 1253v-2q0 -3 -13 -41q-98 -264 -329 -921q-16 -46 -64 -179.5t-76 -215.5q-9 -28 -18.5 -36t-38.5 -8h-27q-16 0 -25 8t-9 19t14 62q30 90 164.5 468.5t161.5 460.5q14 38 14 45q0 6 -6 9t-31.5 5.5t-75.5 2.5h-395h-82q-16 0 -16 61q0 185 4 228q3 46 10.5 58.5
t26.5 12.5q21 0 134.5 -4t229.5 -4q132 0 263.5 4t148.5 4q35 0 35 -37z" />
    <glyph glyph-name="eight" unicode="8" 
d="M537 1315h2q65 0 129.5 -14.5t124 -44.5t96.5 -85.5t37 -128.5q0 -43 -14 -77t-41 -56.5t-48.5 -36t-54 -27.5t-39.5 -18q-5 -3 -15.5 -7t-17 -7.5t-6.5 -7.5q0 -9 27 -21l26 -13t32 -16.5t33 -20t36 -25.5t34 -30.5t33 -37.5t27 -45t23.5 -54.5t14 -63.5t5.5 -75
q0 -89 -27 -162t-74.5 -123.5t-112.5 -84.5t-139 -50t-157 -16q-82 0 -157 22t-136.5 63.5t-98 110t-36.5 154.5q0 90 60.5 161t150.5 102q63 22 63 32q0 6 -22 23q-3 2 -23 14t-29 18.5t-30 21.5t-33 27.5t-30 31.5t-28.5 39t-21 44t-15.5 52t-5 59q0 92 36.5 165
t100 117.5t145 67.5t175.5 23zM604 870h2q31 0 56.5 56t25.5 114q0 81 -43 133t-123 52q-63 0 -105 -34t-42 -106q0 -50 42 -99t99 -83q61 -33 88 -33zM489 57h3q76 0 125 63.5t49 143.5q0 120 -121 209q-39 31 -81 50.5t-56 19.5q-42 0 -84.5 -71.5t-42.5 -154.5
q0 -114 53.5 -187t154.5 -73z" />
    <glyph glyph-name="nine" unicode="9" 
d="M57 842v2q0 124 57 232t160.5 173.5t229.5 65.5q94 0 172 -31t130.5 -84t89 -125t53 -152.5t16.5 -168.5q0 -133 -46 -263.5t-126 -239.5t-182 -199.5t-220 -157.5q-82 -46 -161.5 -78.5t-108.5 -32.5q-24 0 -38.5 11t-14.5 28q0 8 4.5 15.5t18 16t23 13t33.5 16.5
q239 114 356.5 315.5t117.5 469.5q0 117 -15.5 222.5t-39 173.5t-50.5 108t-51 40q-32 0 -48 -36.5t-16 -131.5q0 -169 29.5 -274.5t67.5 -110.5q32 -5 49 -30q6 -12 6 -27q0 -64 -65 -114t-132 -50q-76 0 -135.5 37.5t-94 98t-52 129t-17.5 139.5z" />
    <glyph glyph-name="colon" unicode=":" horiz-adv-x="512" 
d="M256 573h-2q-71 0 -123.5 53t-52.5 126t53 125.5t125 52.5t125 -52.5t53 -125.5t-53 -126t-125 -53zM256 -25h-2q-71 0 -123.5 53t-52.5 126t53 125.5t125 52.5t125 -52.5t53 -125.5t-53 -126t-125 -53z" />
    <glyph glyph-name="semicolon" unicode=";" horiz-adv-x="512" 
d="M256 573h-2q-71 0 -123.5 53t-52.5 126t53 125.5t125 52.5t125 -52.5t53 -125.5t-53 -126t-125 -53zM258 332h2q101 0 157 -81.5t56 -187.5q0 -100 -50 -207.5t-124 -189.5q-50 -57 -99 -91t-83 -34q-37 0 -37 35q0 13 12.5 28t48 44.5t49.5 42.5q111 103 111 215
q0 47 -23.5 63t-97.5 27q-42 7 -72 44.5t-30 102.5q0 82 48.5 135.5t131.5 53.5z" />
    <glyph glyph-name="less" unicode="&#x3c;" horiz-adv-x="1228" 
d="M1135 193v-209l-1041 446v176l1041 447v-209l-764 -326z" />
    <glyph glyph-name="equal" unicode="=" horiz-adv-x="1228" 
d="M1130 838v-213h-1032v213h1032zM1130 412v-213h-1032v213h1032z" />
    <glyph glyph-name="greater" unicode="&#x3e;" horiz-adv-x="1228" 
d="M94 193l764 325l-764 326v209l1041 -447v-176l-1041 -446v209z" />
    <glyph glyph-name="question" unicode="?" horiz-adv-x="681" 
d="M86 1167v2q0 26 9.5 54.5t23.5 38.5q69 53 200 53q95 0 179 -43.5t136 -123t52 -175.5q0 -166 -125 -287q-19 -18 -43 -37.5t-38.5 -30t-44 -30.5t-36.5 -25q-59 -39 -77 -59q-9 -11 -16 -39t-16 -48t-28 -20q-48 0 -51 68q-2 35 -14.5 132.5t-12.5 145.5q0 44 58 109
q17 19 58 61t64 67.5t43.5 63.5t20.5 72q0 42 -24.5 75.5t-65.5 33.5q-20 0 -36.5 -10.5t-29.5 -33.5t-20.5 -41t-18.5 -50q-14 -40 -21 -58.5t-23 -37.5t-35 -19q-35 0 -51.5 41t-16.5 151zM293 -16h-2q-71 0 -118.5 52.5t-47.5 125.5q0 72 48.5 125t119.5 53
q70 0 119 -53.5t49 -124.5q0 -72 -48 -125t-120 -53z" />
    <glyph glyph-name="at" unicode="@" horiz-adv-x="1638" 
d="M1264 1075l-123 -512q-6 -27 -6 -63t17 -62t46 -26q79 0 148 124.5t69 288.5q0 98 -41.5 192t-113.5 167t-177.5 117.5t-224.5 44.5q-83 0 -164.5 -28t-155.5 -85t-130.5 -137t-89.5 -192t-33 -242q0 -99 35 -189.5t94 -158.5t135 -119t161 -77t169 -26q134 0 226 27.5
t183 81.5l37 -92q-237 -134 -442 -134q-163 0 -300.5 46t-229.5 120t-157 169t-94.5 190.5t-29.5 185.5q0 169 63.5 315t171 245.5t250.5 155.5t301 56q196 0 358.5 -81.5t256.5 -227t94 -324.5q0 -66 -16.5 -136.5t-51 -137.5t-81 -120t-113 -85.5t-140.5 -32.5
q-50 0 -90.5 19.5t-61.5 46.5t-31.5 51.5t-8.5 38.5h-12q-3 -14 -23 -37.5t-50.5 -49.5t-75.5 -46t-89 -23q-34 0 -68 13.5t-67 42.5t-53.5 83.5t-20.5 127.5q0 56 16 124t51 139.5t83 130.5t120.5 96.5t155.5 37.5q33 0 58 -8t41 -25.5t24.5 -31t19.5 -37.5l21 69h160z
M711 621v-3q0 -174 100 -174q60 0 112 62t80.5 153.5t28.5 182.5q0 71 -18.5 105t-63.5 34q-47 0 -102 -46t-96 -131.5t-41 -182.5z" />
    <glyph glyph-name="A" unicode="A" 
d="M479 397h-209q-17 0 -23 -5t-11 -21q-50 -169 -50 -219q0 -59 60 -76q3 -1 12.5 -4t13 -4t10.5 -4t10 -6t6.5 -7t5 -9.5t1.5 -12.5q0 -21 -9.5 -29t-31.5 -8q-16 0 -56 4t-63 4q-21 0 -63 -4t-64 -4q-41 0 -41 39q0 16 11 25t32 18q17 8 25.5 13t19 16.5t15.5 25.5
q17 50 258 1014q12 53 24 102q6 27 26 32t99 5q75 0 96.5 -6t30.5 -35q54 -179 162.5 -537.5t163.5 -537.5q21 -72 68 -96q3 -2 9.5 -5.5t9 -5t7 -5t6 -7t3 -8.5t1.5 -12q0 -16 -11 -24.5t-23.5 -9.5t-38.5 -1q-34 0 -101.5 4t-101.5 4t-101.5 -4t-101.5 -4q-49 0 -62.5 8
t-13.5 31q0 30 43 47q22 9 32.5 18.5t10.5 26.5q0 36 -59 242q-6 20 -14 26t-23 6zM289 487h145q33 0 33 29q0 7 -8 43q-3 10 -60 205q-19 63 -25 77.5t-14 14.5q-10 0 -17 -19t-24 -98q-12 -55 -24 -104.5t-17.5 -73t-7.5 -33.5q-2 -12 -2 -26q0 -15 21 -15z" />
    <glyph glyph-name="B" unicode="B" horiz-adv-x="1138" 
d="M135 152v983q0 23 -6.5 38t-20.5 20.5t-24.5 7t-28.5 1.5q-43 0 -49 12q-4 8 -4 17q0 22 25 35t100 24q159 25 383 25q254 0 381 -62q153 -75 153 -260q0 -114 -67.5 -181t-181.5 -89v-12q31 -4 96 -25q97 -36 152 -121t55 -205q0 -167 -99 -266q-102 -102 -268 -102
q-57 0 -167.5 4t-160.5 4q-66 0 -183.5 -4t-131.5 -4q-36 0 -47.5 8t-11.5 33q0 36 55 49q51 12 51 70zM512 1176v-420q0 -12 5 -16.5t20 -4.5q46 0 79 39q52 61 52 203q0 124 -33.5 186t-81.5 62q-41 0 -41 -49zM512 616v-423q0 -61 10.5 -86t48.5 -25q74 0 107 106
q18 58 18 152q0 96 -20 166q-18 65 -50.5 102t-76.5 37q-22 0 -29.5 -6.5t-7.5 -22.5z" />
    <glyph glyph-name="C" unicode="C" 
d="M977 369v-226q0 -46 -14.5 -66t-51.5 -40q-129 -70 -280 -70q-141 0 -254 54t-184.5 147.5t-109.5 214t-38 258.5q0 139 38.5 260t111 214t187.5 146.5t259 53.5q61 0 131.5 -14t118.5 -33q37 -13 44 -26t9 -64q4 -102 4 -273q0 -28 -12.5 -40.5t-30.5 -12.5
q-20 0 -36.5 12.5t-30 39.5t-21.5 50t-20 62q-11 37 -18.5 61t-22 55t-28.5 49t-36 31t-47 13q-85 0 -129.5 -141t-44.5 -416q0 -132 14 -239t36 -175t51 -113.5t57 -64.5t55 -19q24 0 43.5 9.5t35.5 31.5t26.5 40.5t22 55t17 55.5t15.5 60q12 49 20.5 76t24.5 49.5t35 22.5
q28 0 40.5 -17.5t12.5 -70.5z" />
    <glyph glyph-name="D" unicode="D" horiz-adv-x="1251" 
d="M152 180v948q0 27 -10.5 39t-37.5 15q-16 2 -67 2q-25 0 -25 28q0 21 22.5 35.5t78.5 26.5q191 41 415 41q319 0 492 -170q178 -172 178 -504q0 -145 -33.5 -263.5t-98.5 -204.5t-166.5 -133.5t-231.5 -47.5q-58 0 -167.5 4t-164.5 4q-52 0 -143 -4t-138 -4
q-18 0 -27.5 12.5t-9.5 28.5q0 23 13 33t47 16q40 7 57 26.5t17 71.5zM528 1135v-951q0 -51 18 -76.5t66 -25.5q96 0 136 201q24 126 24 354q0 575 -190 575q-29 0 -41.5 -14.5t-12.5 -62.5z" />
    <glyph glyph-name="E" unicode="E" 
d="M152 152v993q0 29 -18 42.5t-48.5 19.5t-40.5 12q-16 13 -16 30q0 21 14.5 31t54.5 10q13 0 142 -4t264 -4q42 0 178 4t186 4q56 0 56 -45v-342q0 -43 -33 -43q-43 0 -72 68q-25 58 -37 98q-29 86 -50 116q-41 58 -116 58q-50 0 -71 -18q-17 -14 -17 -49v-396
q0 -13 9 -16.5t32 -3.5q52 0 73.5 22t31.5 72q13 59 21 74.5t32 15.5q19 0 29 -13.5t10 -51.5q0 -29 -4 -87.5t-4 -84.5q0 -31 4 -100t4 -97q0 -49 -41 -49q-18 0 -28 17.5t-21 64.5q-18 74 -40.5 100.5t-60.5 26.5q-47 0 -47 -21v-467q0 -33 18 -45t68 -12q94 0 146.5 62.5
t83.5 191.5q12 50 27.5 71t37.5 21q23 0 31 -8q18 -24 18 -162q0 -174 -4 -213q-3 -34 -12 -43.5t-37 -9.5q-77 0 -231.5 4t-231.5 4q-85 0 -203 -4t-149 -4q-35 0 -48 10t-13 35q0 18 10.5 28.5t38.5 16.5q74 17 74 70z" />
    <glyph glyph-name="F" unicode="F" horiz-adv-x="909" 
d="M512 590v-438q0 -34 11.5 -52t39.5 -22q43 -6 59.5 -15t16.5 -30q0 -26 -13.5 -33.5t-64.5 -7.5q-30 0 -97 4t-134 4t-134.5 -4t-97.5 -4q-17 0 -25.5 1t-20.5 4t-17.5 12t-5.5 24q0 21 13.5 29t68.5 20q24 5 24 70v950q0 22 -0.5 32t-3 24t-8 20.5t-15.5 13t-26 10.5
t-20.5 5t-15 5.5t-14 11.5t-3.5 17q0 21 17.5 35t51.5 14q16 0 136 -4t225 -4q92 0 173 2t128.5 4t58.5 2q41 0 53.5 -8.5t12.5 -34.5v-323q0 -33 -7.5 -47.5t-29.5 -14.5q-12 0 -20.5 4t-14 10t-11 20t-10 28t-13 40t-17.5 50q-42 106 -82 146t-109 40q-31 0 -45 -7
t-14 -28v-426q0 -18 8 -24t29 -6q48 0 70 25.5t32 76.5q11 60 20.5 78t35.5 18q23 0 30.5 -14t7.5 -57q0 -29 -4 -87.5t-4 -84.5q0 -33 4 -98t4 -83q0 -32 -8 -44.5t-28 -12.5q-22 0 -34 17t-20 57q-14 72 -37 95t-63 23q-19 0 -26 -1t-12 -7t-5 -20z" />
    <glyph glyph-name="G" unicode="G" horiz-adv-x="1138" 
d="M1028 502v-355q0 -24 -12 -45q-18 -30 -60 -55q-58 -37 -148.5 -58.5t-193.5 -21.5q-139 0 -249 50t-179 137.5t-105 203.5t-36 252q0 120 24.5 225.5t75.5 194t125 152t177.5 98.5t228.5 35q131 0 231 -27q39 -10 52 -22.5t16 -42.5q4 -35 4 -228q0 -75 -7.5 -98
t-35.5 -23q-36 0 -72 87q-7 16 -23 54.5t-26 61t-28.5 54.5t-34.5 49.5t-40 31t-50 13.5q-207 0 -207 -623q0 -545 147 -545q27 0 40 12.5t17 45.5q5 20 5 67v295q0 33 -11.5 54t-24.5 27t-32.5 12t-26.5 10q-16 6 -16 28q0 39 63 39q29 0 96 -4t134 -4q70 0 130.5 4t72.5 4
q38 0 53.5 -9t15.5 -32q0 -21 -33 -33q-14 -5 -21 -8.5t-17 -11.5t-14.5 -20.5t-4.5 -30.5z" />
    <glyph glyph-name="H" unicode="H" horiz-adv-x="1251" 
d="M715 647h-172q-15 0 -23 -8t-8 -31v-463q0 -28 8.5 -40t34.5 -23q39 -17 39 -53q0 -37 -41 -37q-26 0 -103.5 4t-107.5 4q-54 0 -144.5 -4t-119.5 -4q-15 0 -24.5 2.5t-17 13.5t-7.5 31q0 19 12.5 29t42.5 14t40.5 23.5t10.5 62.5v981q0 26 -9.5 40.5t-21.5 17t-26.5 7.5
t-20.5 13q-8 12 -8 28q0 24 12.5 29.5t40.5 5.5q21 0 110 -4t130 -4q31 0 106 4t97 4q35 0 47 -10t12 -37q0 -23 -49 -43q-13 -5 -20.5 -10.5t-15 -21t-7.5 -40.5v-352q0 -23 8 -31t23 -8h172q14 0 19 7.5t5 31.5v391q0 23 -13 32t-33.5 12.5t-28.5 9.5q-9 9 -9 22
q0 47 47 47q12 0 94.5 -4t131.5 -4q70 0 152 4t94 4q49 0 49 -47q0 -17 -10.5 -28t-41.5 -15q-55 -7 -55 -74v-970q0 -54 41 -74q6 -3 19.5 -9.5t19.5 -9.5t13.5 -9t10.5 -12.5t3 -14.5q0 -10 -3 -16.5t-17 -12.5t-40 -6q-19 0 -102.5 4t-136.5 4q-39 0 -114 -4t-97 -4
q-29 0 -41.5 10.5t-12.5 36.5t52 43q18 6 23 23t5 57v446q0 24 -5 31.5t-19 7.5z" />
    <glyph glyph-name="I" unicode="I" horiz-adv-x="681" 
d="M528 1130v-978q0 -60 41 -70q42 -10 57 -19t15 -30q0 -15 -5.5 -24t-17.5 -12t-20 -4t-23 -1q-30 0 -97 4t-134 4t-134 -4t-97 -4q-14 0 -21 0.5t-19 2.5t-18 6t-11 12t-5 20q0 20 16 28.5t64 20.5q19 4 26 19.5t7 50.5v978q0 35 -7 50.5t-26 19.5q-53 13 -66.5 20.5
t-13.5 28.5q0 12 5 20t11 12t18 6t19 2.5t21 0.5q30 0 97 -4t134 -4t134 4t97 4q17 0 25 -1t19.5 -4t16.5 -12t5 -24q0 -21 -13.5 -29.5t-58.5 -19.5q-41 -10 -41 -70z" />
    <glyph glyph-name="J" unicode="J" horiz-adv-x="681" 
d="M541 1126v-798q0 -151 -33.5 -254t-124.5 -236q-84 -121 -191 -198.5t-221 -77.5q-98 0 -155.5 56.5t-57.5 154.5q0 71 42 119.5t112 48.5q68 0 102.5 -38t34.5 -102q0 -11 -3 -32.5t-4.5 -37.5t0 -32.5t11 -25.5t27.5 -9q40 0 64 57t24 129q0 37 -2 151t-2 169v956
q0 43 -13 56t-57 18q-78 9 -78 41q0 49 93 49q38 0 118.5 -4t124.5 -4t125 4t119 4q68 0 68 -49q0 -31 -54 -41q-44 -7 -56.5 -21t-12.5 -53z" />
    <glyph glyph-name="K" unicode="K" horiz-adv-x="1138" 
d="M135 152v978q0 64 -29 70q-47 11 -62 19.5t-15 29.5q0 25 12 33t53 8q30 0 97.5 -4t134.5 -4t134 4t97 4q49 0 49 -41q0 -43 -41 -49q-25 -4 -39 -19.5t-14 -35.5v-416q0 -45 8 -45q11 0 37 41q140 221 180 293q37 67 37 129q0 32 -13.5 44.5t-37.5 16.5q-17 3 -25.5 5
t-17 11t-8.5 23q0 22 11.5 32.5t45.5 10.5q31 0 79 -4t69 -4q24 0 80.5 4t84.5 4q21 0 34.5 -12t13.5 -33q0 -22 -56 -33q-64 -12 -86 -32q-75 -70 -117 -150q-24 -50 -24 -78q0 -12 12 -49q26 -77 125 -340t111 -299q52 -157 106 -182q26 -12 35.5 -22t9.5 -33
q0 -35 -39 -35q-22 0 -92.5 4t-105.5 4q-33 0 -93.5 -4t-84.5 -4q-16 0 -26.5 5.5t-14 11t-7.5 16.5q-2 6 -6 17t-6 17t-6 18.5t-6 18.5q-8 21 -23.5 64t-23.5 65q-7 19 -115 310q-11 29 -17 36t-14 7q-9 0 -11.5 -6t-2.5 -27v-389q0 -68 47 -80q1 0 8 -1.5t8 -2t7 -2.5
t7 -3t5 -3.5t5.5 -5t3.5 -6.5t2.5 -8.5t0.5 -10.5q0 -41 -49 -41q-30 0 -97 4t-134 4t-134.5 -4t-97.5 -4q-22 0 -33 1.5t-21.5 11t-10.5 28.5q0 22 13.5 30t63.5 19q29 6 29 70z" />
    <glyph glyph-name="L" unicode="L" horiz-adv-x="909" 
d="M152 160v970q0 34 -9 49.5t-28 20.5q-46 12 -60 21t-14 28q0 41 61 41q30 0 97.5 -4t134.5 -4q17 0 121.5 4t124.5 4q21 0 31 -1.5t18 -8t8 -20.5q0 -7 -1.5 -12.5t-5 -9.5t-6 -7t-9 -5.5t-9 -3.5t-9.5 -3t-9 -2q-37 -11 -48.5 -27t-11.5 -60v-966q0 -54 10 -68t58 -14
q30 0 55 13.5t41 32.5t30 50t21 54t16.5 58.5t14.5 49.5q18 58 29 73t31 15q22 0 30 -18.5t8 -83.5q0 -231 -2 -277q-1 -38 -7.5 -47.5t-22.5 -9.5q-137 0 -387 8q-89 0 -204 -4t-151 -4q-37 0 -53 9.5t-16 31.5q0 18 15 28.5t48 20.5q33 9 46.5 26t13.5 52z" />
    <glyph glyph-name="M" unicode="M" horiz-adv-x="1478" 
d="M817 27v2q0 44 80 53q26 3 37 15.5t15.5 44.5t4.5 104q0 108 -10 641q0 43 -16 43q-3 0 -5 -1t-4.5 -4.5t-3.5 -6.5t-3.5 -9.5t-4.5 -9.5q-10 -27 -32.5 -102t-85.5 -286.5t-136 -449.5q-11 -36 -30 -48.5t-70 -12.5q-39 0 -53 31.5t-60 218.5q-1 4 -2 6
q-131 537 -151 633q-9 45 -21 45q-10 0 -12 -8.5t-4 -34.5q-27 -459 -27 -674q0 -35 0.5 -51t4 -36.5t12 -30t22.5 -13.5q38 -10 53 -15t28 -15.5t13 -26.5q0 -37 -49 -37q-23 0 -70.5 4t-70.5 4q-22 0 -68.5 -4t-68.5 -4q-18 0 -25.5 9t-7.5 30q0 25 15 33t44 12
q64 8 66 74q5 141 30 487.5t25 447.5q0 70 -12.5 91t-73.5 32q-37 7 -37 33q0 49 92 49q39 0 117 -4t117 -4q29 0 85 4t85 4q24 0 33.5 -9t17.5 -48q21 -91 56 -261.5t42 -205.5q12 -63 18 -80.5t17 -17.5q7 0 14.5 16.5t22.5 67.5q77 252 154 481q18 57 45 57q29 0 101 -4
t108 -4q38 0 113.5 4t107.5 4q67 0 67 -47q0 -20 -13.5 -29t-49.5 -14q-42 -6 -61 -25.5t-19 -56.5q0 -166 9 -481t9 -461q0 -83 35 -94q83 -26 93 -33q14 -11 14 -29q0 -28 -88 -28q-44 0 -131 4t-131 4q-39 0 -118 -4t-118 -4q-80 0 -80 35z" />
    <glyph glyph-name="N" unicode="N" horiz-adv-x="1138" 
d="M143 137v1030q0 6 -1.5 11.5t-3.5 9t-7 6.5l-7.5 4.5t-9.5 3t-10 2t-11.5 1.5t-10.5 1q-49 7 -49 41q0 19 11.5 29t24 12t33.5 2q32 0 97 -4t96 -4q33 0 103.5 4t88.5 4q14 0 22.5 -10t20.5 -35q59 -110 176 -327.5t175 -327.5q1 -2 3.5 -5.5t4 -5t3.5 -3t5 -1.5
q8 0 8 13v542q0 68 -37 72q-80 9 -80 47q0 41 39 41q9 0 53.5 -4t80.5 -4q31 0 66.5 4t45.5 4q37 0 37 -35q0 -40 -76 -53q-39 -8 -39 -63v-1143q0 -11 -6 -16.5t-29 -9t-71 -3.5q-43 0 -66 6.5t-30.5 14.5t-18.5 30q-7 13 -20.5 38.5t-20.5 39.5q-69 129 -465 877
q-11 22 -20 22q-15 0 -15 -14v-815q0 -73 50 -92q7 -3 32.5 -8t37.5 -14t12 -27q0 -19 -10 -26t-38 -7q-9 0 -49 4t-73 4q-41 0 -83 -4t-51 -4q-38 0 -38 24q0 14 9 24t19 14.5t28 10.5t25 9q27 11 33 22.5t6 40.5z" />
    <glyph glyph-name="O" unicode="O" horiz-adv-x="1251" 
d="M45 670v2q0 127 43.5 244.5t119 205.5t185.5 140.5t236 52.5q130 0 240.5 -60.5t182.5 -160t112 -225t40 -257.5q0 -172 -73 -319t-208 -236.5t-302 -89.5q-105 0 -198 39.5t-161 107.5t-117.5 157.5t-74.5 191.5t-25 207zM778 451v2q0 176 -10 313t-27 222t-41 139.5
t-48.5 76t-53.5 21.5q-127 0 -127 -394q0 -177 10 -314t27 -222.5t41 -140t48.5 -76t53.5 -21.5q127 0 127 394z" />
    <glyph glyph-name="P" unicode="P" horiz-adv-x="1138" 
d="M528 516v-364q0 -68 43 -74q54 -7 68 -15t14 -30q0 -15 -5.5 -23.5t-19.5 -12.5t-24.5 -4.5t-32.5 -0.5q-30 0 -97 4t-134 4t-134 -4t-97 -4q-21 0 -30.5 1.5t-17.5 11t-8 28.5q0 22 12 31t56 18q31 7 31 70v993q0 33 -12.5 46t-35.5 17q-16 3 -23.5 5t-15.5 11.5
t-8 24.5q0 18 10 29.5t27 11.5q15 0 118 -4t187 -4q48 0 144 4t143 4q188 0 298 -105.5t110 -293.5q0 -151 -89.5 -260t-234.5 -109q-63 0 -141 21q-34 10 -68 10q-21 0 -27 -7t-6 -30zM528 1141v-424q0 -39 9 -53q14 -21 51 -21q55 0 92 65.5t37 194.5q0 87 -13 149t-35 92
t-44 43t-45 13q-30 0 -41 -14.5t-11 -44.5z" />
    <glyph glyph-name="Q" unicode="Q" horiz-adv-x="1251" 
d="M45 670v2q0 127 43.5 244.5t119 205.5t185.5 140.5t236 52.5q130 0 240.5 -60.5t182.5 -160t112 -225t40 -257.5q0 -202 -102 -367.5t-273 -238.5q-24 -10 -43 -14q10 -25 15 -47q24 -120 78.5 -174t146.5 -54q34 0 91 19.5t67 19.5q22 0 22 -26q0 -35 -35 -63t-86.5 -44
t-103 -24.5t-92.5 -8.5q-75 0 -150.5 16.5t-144.5 49.5t-112.5 92t-43.5 135q0 38 23 109q-26 7 -70 26q-152 72 -249 259.5t-97 392.5zM651 57h2q125 0 125 394q0 177 -10 314t-27 222.5t-41 140t-48.5 76t-53.5 21.5q-127 0 -127 -394q0 -177 10 -314t27 -222.5t41 -140
t48.5 -76t53.5 -21.5z" />
    <glyph glyph-name="R" unicode="R" horiz-adv-x="1251" 
d="M528 545v-393q0 -59 56 -80q1 0 9 -3t9.5 -3.5t8 -3t8.5 -4t6.5 -4.5t6 -5.5t4 -6t3 -8t0.5 -9.5q0 -15 -12 -23t-24 -9t-34 -1q-23 0 -91 4t-142 4q-68 0 -136 -4t-98 -4q-23 0 -35 1t-25 10t-13 26q0 10 4 17t7.5 10.5t15 7.5t15.5 4.5t19 3.5q18 4 30 10t22 23.5
t10 46.5v991q0 55 -56 67q-21 4 -29 6.5t-18 10.5t-10 22q0 26 16.5 33.5t65.5 7.5q52 0 143.5 -4t163.5 -4q46 0 134.5 4t154.5 4q88 0 164.5 -21.5t137 -63.5t95.5 -112t35 -159q0 -168 -111 -254q-49 -36 -94 -51q31 -13 57 -78q15 -37 42.5 -109.5t41.5 -109.5
q23 -60 36 -90t32.5 -69t38 -61t39.5 -34q2 -1 11.5 -6t12 -6.5l10 -6t10 -7t6.5 -7.5t5.5 -9.5t1.5 -10.5q0 -18 -14 -25.5t-45 -7.5q-20 0 -80 2t-94 2q-37 0 -94 -2t-74 -2q-26 0 -46.5 14t-36 40.5t-28.5 58t-28 71.5q-2 7 -3.5 11t-3.5 9.5t-4 10.5q-23 57 -67 172
t-66 172q-10 16 -47 16q-13 0 -17 -0.5t-8 -5.5t-4 -16zM528 1139v-412q0 -52 8 -61t54 -9q77 0 129.5 76t52.5 189q0 278 -180 278q-38 0 -51 -12t-13 -49z" />
    <glyph glyph-name="S" unicode="S" 
d="M950 406v-3q0 -87 -29 -159t-78.5 -122t-116.5 -84.5t-142.5 -50.5t-157.5 -16q-51 0 -114.5 5.5t-136 26.5t-85.5 54q-16 41 -16 199q0 143 10 168q8 27 39 27q36 0 59 -41q14 -25 30.5 -74t32 -93t37.5 -87t58.5 -69t85.5 -26q65 0 106 46.5t41 107.5q0 46 -15.5 87.5
t-48 79t-64 65.5t-80.5 65q-32 24 -78 66q-93 85 -143 167.5t-50 198.5q0 89 41 161t107.5 116.5t147 68t163.5 23.5q148 0 268 -33q33 -9 40.5 -19t10.5 -53q2 -27 2 -145q0 -31 -0.5 -45.5t-3 -34t-8.5 -27.5t-16.5 -14t-26.5 -6q-21 0 -34.5 22t-30.5 68q-37 99 -63 135
q-47 61 -116 62q-48 0 -76 -29t-28 -88q0 -35 12 -68t26.5 -57t47 -56t52 -48t64 -51t62.5 -50q48 -39 81.5 -72.5t66.5 -79t50 -100.5t17 -118z" />
    <glyph glyph-name="T" unicode="T" 
d="M324 197v958q0 37 -25 37q-34 0 -62.5 -29.5t-41.5 -56.5t-35 -83l-6 -15q-21 -55 -40.5 -84t-45.5 -29q-39 0 -39 55q0 20 6 76q8 74 39 272q8 51 17 68.5t30 17.5q13 0 21 -3.5t13.5 -12.5t8 -15t6.5 -20q16 -51 72 -51h475q83 0 118.5 8.5t57.5 36.5q1 2 9.5 13t13 16
t13 13t16.5 11.5t16 3.5q9 0 15.5 -5t9.5 -18.5t3.5 -17t1.5 -20.5q4 -32 4 -63q0 -232 -2 -271q-3 -60 -14 -82t-37 -22q-9 0 -16 4t-13 13.5t-10 19t-8.5 25t-7.5 27t-7.5 30.5t-7.5 30q-20 74 -37.5 107t-41.5 43q-19 8 -54 8q-39 0 -39 -21v-1019q0 -30 15 -48.5
t37 -21.5q41 -6 54 -16t13 -33q0 -15 -5.5 -24t-17.5 -12t-20.5 -4t-25.5 -1q-30 0 -97.5 4t-134.5 4q-101 0 -183.5 -4t-94.5 -4q-54 0 -54 37q0 24 11 35.5t41 17.5q52 10 69 37.5t17 77.5z" />
    <glyph glyph-name="U" unicode="U" horiz-adv-x="1138" 
d="M498 1130v-831q0 -115 41 -172q50 -70 157 -70q137 0 191 78q41 58 41 166v809q0 49 -19 68t-57 28q-2 0 -13.5 2.5t-14.5 3.5t-12 4.5t-12 7t-6 10.5t-3 15q0 41 40 41q21 0 65 -4t65 -4q23 0 69 4t62 4q41 0 41 -41q0 -7 -2 -12.5t-7 -10t-8 -8t-11.5 -6.5t-11.5 -4.5
t-13 -4.5t-11 -3q-32 -11 -41.5 -25.5t-9.5 -60.5v-784q0 -200 -100 -281q-100 -82 -336 -82q-191 0 -310 66q-151 84 -151 268v829q0 64 -53 76q-3 1 -16.5 3t-18.5 4t-13.5 6.5t-12 11.5t-3.5 18q0 41 64 41q50 0 141 -3.5t121 -4.5q39 0 115.5 4t115.5 4q13 0 20 -0.5
t18.5 -2.5t17 -6t10 -12t4.5 -20q0 -21 -16.5 -30t-63.5 -19q-32 -7 -42.5 -24.5t-10.5 -45.5z" />
    <glyph glyph-name="V" unicode="V" 
d="M608 1245v-2q0 -17 -12.5 -24.5t-39 -12t-32.5 -6.5q-30 -10 -30 -59q0 -17 18 -97l96 -397q32 -139 37 -149q4 -6 12 -6q11 0 19.5 23.5t36.5 123.5l106 383q23 79 23 131q0 40 -37 47q-42 8 -58 17.5t-16 31.5q0 41 51 41q18 0 53 -4t58 -4q13 0 44 4t50 4
q26 0 38.5 -11t12.5 -38q0 -33 -34 -41q-20 -5 -36 -21.5t-27.5 -44t-18 -48.5t-15.5 -57t-12 -46q-176 -606 -266 -909q-7 -22 -10 -31.5t-11 -20.5t-12.5 -13.5t-22 -5.5t-31 -3h-46.5q-80 0 -101.5 10.5t-34.5 63.5q-44 179 -132 537.5t-132 537.5q-10 47 -51 59
q-59 17 -59 45q0 37 59 37q43 0 129 -4t129 -4t126 4t122 4q57 0 57 -45z" />
    <glyph glyph-name="W" unicode="W" horiz-adv-x="1478" 
d="M750 555l-152 -530q-4 -17 -29.5 -21t-85.5 -4q-73 0 -87.5 6.5t-24.5 44.5l-289 1043q-1 3 -5.5 20.5t-6.5 25.5t-8 23.5t-11 23.5t-13.5 15.5t-17.5 9.5q-16 4 -23.5 6.5t-13.5 10t-6 20.5q0 17 15.5 29t44.5 12q99 0 269 -4t247 -4q76 0 227.5 4t227.5 4
q45 0 65.5 -10t20.5 -35q0 -9 -3.5 -15.5t-6 -9.5t-12.5 -6t-12.5 -3.5t-15.5 -2.5q-15 -2 -24 -5.5t-17 -12t-8 -23.5q0 -27 13 -80q8 -30 53 -220t74 -289q1 -4 2.5 -9.5t2.5 -8.5t2 -7.5t2 -7t2.5 -6t2.5 -5t2 -3.5t2.5 -2.5t3.5 -0.5q9 0 23 56q45 169 108 463
q15 70 15 90q0 52 -33 65q-6 2 -22 6t-23.5 7t-15 12.5t-7.5 23.5q0 39 55 39q15 0 53 -4t50 -4q17 0 51.5 4t48.5 4q20 0 30.5 -12t10.5 -31q0 -21 -39 -41q-43 -22 -57 -78l-272 -1075q-9 -40 -25 -46.5t-98 -6.5q-87 0 -103.5 6t-25.5 43l-127 506h-4zM520 1200h-2
q-42 0 -55.5 -8t-13.5 -39q0 -40 22 -117l135 -487q10 -35 23 -35q10 0 16.5 13t16.5 46l34 119q13 41 13 62q0 22 -15 75l-84 308q-11 41 -28.5 52t-61.5 11z" />
    <glyph glyph-name="X" unicode="X" 
d="M467 31v2q0 11 8 20t14 12t21 11q22 9 32.5 18.5t10.5 26.5q0 24 -72 203q-55 135 -67 159.5t-23 24.5q-5 0 -8.5 -3.5t-12 -22.5t-21 -53.5t-36.5 -102.5q-45 -131 -45 -183q0 -24 7.5 -39.5t15 -21t20.5 -10.5q16 -4 22.5 -6.5t13.5 -13t7 -27.5t-16 -25t-33 -8
t-69.5 4t-71.5 4q-32 0 -73 -4t-52 -4q-17 0 -26.5 1.5t-18 10t-8.5 23.5q0 24 15 33.5t60 21.5q43 11 65 37.5t54 109.5q25 63 71.5 181t53.5 137q33 80 33 86q0 4 -6 17t-15.5 32.5t-13.5 28.5q-34 74 -101.5 221.5t-101.5 220.5q-9 22 -23 35.5t-24 17.5t-26 8
q-12 2 -16.5 3.5t-12 5.5t-10 11.5t-2.5 20.5q0 15 14.5 25t34.5 10q46 0 132.5 -4t127.5 -4q44 0 131.5 4t99.5 4q16 0 29.5 -10t13.5 -31q0 -12 -6 -21t-10 -11.5t-16 -10.5q-33 -16 -33 -39q0 -10 5.5 -27t20.5 -55t25 -65q64 -171 73 -182q5 -7 13 -7q7 0 12 9t18 44
q6 16 10 26t12 30.5t16 40.5q49 118 49 166q0 31 -12 43.5t-35 17.5q-3 1 -13.5 4t-13.5 5t-9.5 6t-8.5 10t-2 14q0 43 45 43q22 0 69.5 -4t67.5 -4q22 0 65 4t56 4q20 0 36.5 -12t16.5 -33q0 -6 -2 -10.5t-6.5 -8t-9 -6.5t-12 -6t-13.5 -4.5t-15.5 -4.5t-15.5 -5
q-32 -11 -56.5 -35.5t-34.5 -43.5t-26 -54q-79 -181 -116 -276q-19 -52 -19 -70q0 -15 37 -96q36 -81 107.5 -243t107.5 -243q8 -19 22 -32t23 -17t25 -10q23 -7 33 -16t10 -33q0 -39 -60 -39q-35 0 -109 4t-118 4q-57 0 -133 -4t-109 -4t-48 8.5t-15 30.5z" />
    <glyph glyph-name="Y" unicode="Y" 
d="M324 172v365q0 28 -17 69q-119 300 -213 529q-20 51 -82 67q-4 1 -12 4t-11.5 4t-9.5 3.5t-8.5 5t-6 5.5t-4.5 7.5t-1 9.5q0 24 18 36.5t46 12.5q64 0 130 -4t105 -4q66 0 162 4t125 4q41 0 41 -35q0 -14 -8 -24t-16.5 -14t-24.5 -9q-15 -4 -20.5 -6t-15 -7.5t-13 -13
t-3.5 -18.5q0 -28 72 -219q30 -80 46.5 -123t27.5 -65t16 -26.5t12 -4.5q12 0 20 15.5t46 106.5q15 37 25 60q77 193 77 236q0 21 -9 34.5t-19 18.5t-27 10q-2 1 -10.5 3t-11 3t-9 3t-9 4t-7 5t-6 6.5t-3 8t-1.5 10.5q0 41 59 41q28 0 70.5 -4t60.5 -4q19 0 59.5 4t57.5 4
q43 0 43 -39q0 -13 -3 -21.5t-12.5 -14t-13.5 -7t-20 -6.5q-18 -6 -30.5 -13t-29 -26t-28.5 -47q-41 -101 -77.5 -188t-67 -156t-38.5 -88q-45 -103 -45 -139v-398q0 -38 16 -53.5t46 -23.5q4 -1 12 -2.5t12.5 -2.5t11 -2.5t9.5 -4t7 -6.5t5.5 -9t1.5 -12q0 -23 -12 -31
t-47 -8q-18 0 -88 4t-144 4q-85 0 -169.5 -4t-108.5 -4q-55 0 -55 35q0 12 3.5 20t21 17.5t50.5 17.5q19 5 28 10.5t16.5 25t7.5 54.5z" />
    <glyph glyph-name="Z" unicode="Z" horiz-adv-x="909" 
d="M506 82h2q58 0 108 16q17 6 32 14.5t26 17t21.5 23t17 23.5t14 28.5t11 27.5t8.5 30t6.5 28.5t6 30.5t5.5 27q23 115 67 115q29 0 37.5 -23.5t8.5 -109.5q0 -199 -5 -260q-4 -51 -13.5 -64.5t-31.5 -13.5q-17 0 -128.5 4t-237.5 4q-117 0 -256.5 -4t-165.5 -4
q-27 0 -27 24q0 17 47 150l334 915q29 82 29 97q0 22 -43 22q-55 0 -90 -12q-76 -28 -119 -139q-7 -20 -16 -49.5t-15 -49t-14 -38.5t-19 -28.5t-26 -9.5q-45 0 -45 68q0 59 2 90q3 47 6 105t5.5 109.5t2.5 60.5q1 22 12.5 32.5t26.5 10.5q18 0 27.5 -7t19.5 -22
q19 -31 49 -31q49 0 161.5 -4t174.5 -4q46 0 134 4t132 4q52 0 52 -35q0 -15 -41 -125q-61 -167 -170.5 -479.5t-157.5 -445.5q-31 -85 -31 -99t15 -19t51 -5z" />
    <glyph glyph-name="bracketleft" unicode="[" horiz-adv-x="796" 
d="M180 -270v1691q0 23 10.5 32t30.5 9q39 0 117 -2t117 -2t116.5 2t116.5 2q37 0 49.5 -11t12.5 -42t-12.5 -42t-49.5 -11q-32 0 -95 1t-93 1q-37 0 -37 -37v-1491q0 -37 37 -37q30 0 93 1t95 1q37 0 49.5 -11t12.5 -42t-12.5 -42t-49.5 -11q-39 0 -116.5 2t-116.5 2
t-117 -2t-117 -2q-20 0 -30.5 9t-10.5 32z" />
    <glyph glyph-name="backslash" unicode="\" horiz-adv-x="569" 
d="M733 -311h-145q-24 0 -34.5 5t-16.5 21l-662 1684q-20 45 -20 51q0 12 28 12h154q34 0 43 -26l661 -1680q21 -53 21 -55q0 -12 -29 -12z" />
    <glyph glyph-name="bracketright" unicode="]" horiz-adv-x="796" 
d="M616 1421v-1691q0 -23 -10.5 -32t-30.5 -9q-39 0 -116.5 2t-116.5 2t-116.5 -2t-116.5 -2q-37 0 -49.5 11t-12.5 42t12.5 42t49.5 11q32 0 95 -1t93 -1q37 0 37 37v1491q0 37 -37 37q-30 0 -93 -1t-95 -1q-37 0 -49.5 11t-12.5 42t12.5 42t49.5 11q39 0 116.5 -2
t116.5 -2t116.5 2t116.5 2q20 0 30.5 -9t10.5 -32z" />
    <glyph glyph-name="asciicircum" unicode="^" horiz-adv-x="1228" 
d="M518 1282h193l426 -819h-217l-308 602l-303 -602h-217z" />
    <glyph glyph-name="underscore" unicode="_" 
d="M0 -256v102h1024v-102h-1024z" />
    <glyph glyph-name="grave" unicode="`" horiz-adv-x="569" 
d="M446 1079v-2q0 -11 -7 -18.5t-19 -7.5q-22 0 -109 53l-266 158q-72 45 -72 116q0 40 30 66t67 26q49 0 81 -21t76 -75l187 -233q32 -41 32 -62z" />
    <glyph glyph-name="a" unicode="a" 
d="M551 639v156q0 39 -15 60.5t-42 21.5q-53 0 -91 -111q-47 -137 -157 -191q-43 -22 -88 -22q-54 0 -77.5 21t-23.5 73q0 121 140 216t344 95q175 0 254 -40q100 -50 100 -175v-518q0 -49 41 -49q30 0 47 14q4 4 9.5 10t9.5 9.5t8 3.5q18 0 18 -37q0 -67 -73 -138t-171 -71
q-36 0 -64.5 9t-51.5 29.5t-31.5 30.5t-26.5 34q-21 28 -32 28q-7 0 -21 -8t-42.5 -27t-45.5 -30q-106 -66 -197 -66q-95 0 -155 57t-60 152q0 198 279 324q4 2 127 51q48 19 68 37t20 51zM401 238v-2q0 -97 70 -97q46 0 66 33q14 20 14 57v242q0 25 -14 25t-29 -15
q-32 -22 -70 -90q-37 -80 -37 -153z" />
    <glyph glyph-name="b" unicode="b" 
d="M457 1360v-471q0 -21 16 -21q10 0 78 45q72 45 127 45q126 0 215.5 -125.5t89.5 -326.5q0 -236 -119.5 -387.5t-302.5 -151.5q-90 0 -215 66q-5 3 -21 11.5t-21.5 11t-16 7t-17.5 6t-14 1.5q-34 0 -61 -56q-13 -24 -19 -33.5t-18 -21.5t-25 -12q-21 0 -29 10t-8 33
q0 9 8.5 42.5t8.5 71.5v76v948q0 53 -10 72t-35 25q-40 9 -52 17t-12 26q0 9 2 15.5t8.5 11.5t13.5 8t21 6.5t27.5 6t37.5 8t46 11.5q144 38 205 60q74 26 75 26q17 0 17 -61zM618 426v2q0 186 -39 272t-96 86q-19 0 -24 -10q-2 -4 -2 -18v-541q0 -63 6 -95.5t16 -42
t29 -9.5q47 0 78.5 97t31.5 259z" />
    <glyph glyph-name="c" unicode="c" horiz-adv-x="872" 
d="M45 428v2q0 116 39 215t105.5 167.5t156.5 107t191 38.5q64 0 125.5 -16.5t97.5 -44.5q25 -19 32.5 -36t10.5 -54q4 -46 4 -86q0 -58 -6 -88q-6 -33 -20.5 -45.5t-43.5 -12.5q-13 0 -24 4.5t-20 16t-15.5 21.5t-13 29t-10 30.5t-10 35t-9.5 33.5q-16 55 -36.5 85
t-53.5 30q-52 0 -93.5 -100t-41.5 -248q0 -188 58.5 -280.5t141.5 -92.5q44 0 71 26t52 71q12 23 18 33t16 20t21 10q19 0 27 -13t8 -28q0 -39 -19 -85.5t-57 -94.5t-108.5 -79.5t-159.5 -31.5q-198 0 -316 127.5t-118 333.5z" />
    <glyph glyph-name="d" unicode="d" 
d="M903 1360v-1165q0 -33 21 -33q16 0 36 32.5t33 32.5q23 0 23 -55q0 -23 -2 -37t-14 -32t-35 -29q-20 -9 -144 -47q-20 -6 -49 -16t-49 -17t-41 -13.5t-34 -10t-19 -3.5q-16 0 -20.5 15.5t-6.5 43.5v7q0 3 -1 10q-5 54 -17 57q-4 0 -10 -3t-15.5 -10.5t-16 -13
t-21.5 -18.5t-23 -20q-80 -68 -154 -68q-131 0 -217 130t-86 341q0 113 29 212t76 165.5t107.5 104.5t123.5 38q76 0 137 -36q6 -3 13.5 -7.5t11.5 -7t6 -2.5q7 0 10 4t3.5 8.5t0.5 14.5v196q0 53 -10 72t-35 25q-39 9 -51 17t-12 26q0 23 15 31t66 18q99 19 261 74
q88 30 94 30t9.5 -4.5t4.5 -14.5t1.5 -18t0.5 -24zM406 483v-2q0 -86 9.5 -150t25.5 -99t34.5 -51.5t38.5 -16.5q22 0 33 14q12 15 12 45v520q0 39 -12 60q-13 20 -39 20q-15 0 -28 -8t-27 -31.5t-24 -60t-16.5 -98.5t-6.5 -142z" />
    <glyph glyph-name="e" unicode="e" horiz-adv-x="909" 
d="M764 500h-289q-34 0 -47.5 -17.5t-13.5 -54.5q0 -57 19 -120.5t64.5 -116t106.5 -52.5q32 0 57.5 9.5t44 28.5t28.5 33t24 38q10 17 15.5 25.5t14.5 16t17 7.5q41 0 41 -49q0 -16 -12 -51t-35 -72q-102 -158 -322 -158q-125 0 -224 66.5t-151.5 173.5t-52.5 233
q0 238 120 378t323 140q167 0 267.5 -95.5t100.5 -258.5q0 -68 -15.5 -86t-80.5 -18zM414 653v-2q0 -69 37 -69q43 0 75 26q44 38 60 101q8 27 8 59q0 40 -16.5 66t-47.5 26q-40 0 -68.5 -41t-38 -85.5t-9.5 -80.5z" />
    <glyph glyph-name="f" unicode="f" horiz-adv-x="681" 
d="M496 766v-594q0 -50 16.5 -68t79.5 -30q49 -8 49 -45q0 -21 -16.5 -29t-51.5 -8q-41 0 -123.5 4t-123.5 4q-47 0 -117 -4t-94 -4q-40 0 -54 9t-14 28q0 22 11 31t38 14q36 7 46 25t10 57v630q0 27 -33 31q-4 1 -21 2t-26.5 3.5t-18 11.5t-8.5 24q0 25 15 39t42 25
q18 7 28.5 13t20 18.5t9.5 27.5q0 223 114 352q116 129 312 129q260 0 260 -147q0 -45 -27 -160q-23 -88 -100 -88q-32 0 -54.5 32t-43.5 89q-6 16 -16 48t-16.5 49t-15.5 37t-18 29t-20 9q-29 0 -41.5 -45t-12.5 -162q0 -99 6 -149q6 -49 19 -63.5t41 -14.5h108
q15 0 20 -8.5t5 -45.5q0 -34 -3 -41.5t-20 -7.5h-98q-63 0 -63 -57z" />
    <glyph glyph-name="g" unicode="g" horiz-adv-x="909" 
d="M72 602v2q0 160 98 257t276 97q52 0 115.5 -18t110.5 -45q3 -2 14 -8t16 -9t15.5 -7.5t18 -6.5t18 -4t20.5 -2h117q19 0 27.5 -6t10 -15.5t1.5 -33.5q0 -37 -4.5 -46t-28.5 -9h-66q-34 0 -34 -11q0 -3 8 -39q10 -46 10 -104q0 -81 -33 -152t-105.5 -119.5t-172.5 -48.5
q-91 0 -146 -23t-55 -61q0 -27 18.5 -39t75.5 -16q31 -2 92 -4t91 -4q175 -11 255 -69t80 -185q0 -93 -45.5 -164.5t-118.5 -110.5t-152 -58t-159 -19q-115 0 -211.5 24t-159.5 76.5t-63 124.5q0 79 107 111q15 5 46.5 12.5t44.5 13t13 13.5q0 14 -94 104q-96 92 -96 115
q0 16 18.5 34t38.5 29.5t57 30.5q7 4 23 12t24 12.5t20.5 11.5t19 11.5t13.5 10.5t10 11.5t3 10.5q0 9 -11 19t-35 27.5t-40 31.5q-96 87 -96 235zM453 356h2q73 0 73 215q0 128 -25.5 217t-68.5 89q-39 0 -57.5 -51t-18.5 -164q0 -128 26 -217t69 -89zM424 -377h2
q78 0 129 33q49 32 49 90q0 55 -50 84t-167 29q-54 0 -90 -23q-37 -23 -37 -80q0 -62 45.5 -97.5t118.5 -35.5z" />
    <glyph glyph-name="h" unicode="h" horiz-adv-x="1138" 
d="M123 156v972q0 53 -10 72t-35 25q-40 9 -52 17t-12 26q0 9 2 15.5t8.5 11.5t13.5 8t21 6.5t27.5 6t37.5 8t46 11.5q114 30 199 62q70 24 75 24q16 0 19.5 -13.5t3.5 -47.5v-531q0 -28 18 -28q15 0 31 12q15 11 48 41t54.5 46t62.5 31t89 15q125 0 185.5 -79.5
t60.5 -204.5v-541q0 -14 8 -26t14 -16.5t24 -13.5t19 -10q17 -10 17 -22q0 -41 -35 -41q-5 0 -25.5 2t-66 4t-111.5 2q-51 0 -94 -2t-68 -4t-32 -2q-56 0 -56 41q0 12 8 20q3 4 28.5 19.5t25.5 31.5v514q0 54 -13 87q-19 45 -75 45q-46 0 -84 -33q-33 -30 -33 -74v-530
q0 -14 8.5 -24t23.5 -19.5t21 -16.5q8 -12 8 -22q0 -23 -11 -31t-32 -8q-1 0 -51.5 4t-140.5 4q-94 0 -152.5 -4t-60.5 -4q-51 0 -51 37q0 36 49 45q26 4 35.5 24t9.5 58z" />
    <glyph glyph-name="i" unicode="i" horiz-adv-x="569" 
d="M295 1036h-2q-75 0 -127.5 58t-52.5 135t53 134.5t129 57.5t129 -57.5t53 -134.5t-53 -135t-129 -58zM113 172v494q0 52 -10 71t-35 25q-40 9 -52 17t-12 26q0 23 16 31t70 20q57 14 285 84q59 18 63 18q13 0 16 -12.5t3 -48.5v-115v-610q0 -40 5 -57.5t14.5 -24.5
t37.5 -16q26 -8 34.5 -16.5t8.5 -30.5q0 -35 -47 -35q-46 0 -122.5 4t-96.5 4q-25 0 -104 -4t-124 -4q-51 0 -51 35q0 22 8 30.5t33 16.5q41 12 50.5 26.5t9.5 71.5z" />
    <glyph glyph-name="j" unicode="j" horiz-adv-x="569" 
d="M305 1036h-2q-75 0 -127.5 58t-52.5 135t53 134.5t129 57.5t129 -57.5t53 -134.5t-53 -135t-129 -58zM467 897v-836q0 -99 -48.5 -196.5t-125.5 -179.5q-69 -72 -142.5 -118t-117.5 -46q-15 0 -25 10.5t-10 30.5q0 9 5.5 19.5t11.5 18t20.5 24t21.5 24.5q66 78 66 196
v822q0 52 -10 71t-35 25q-40 9 -52 17t-12 26q0 23 15.5 31t66.5 18q116 22 275 78q73 26 78 26q12 0 15 -12t3 -49z" />
    <glyph glyph-name="k" unicode="k" 
d="M123 156v972q0 53 -10 72t-35 25q-40 9 -52 17t-12 26q0 20 12 27.5t52 17.5q193 50 307 90q53 18 64 18q12 0 15 -12t3 -49v-799q0 -30 1 -37.5t7 -7.5q14 0 45 45q100 139 113 160q31 53 31 74q0 33 -14.5 46t-39.5 17q-18 3 -27 5.5t-17.5 12t-8.5 25.5q0 21 16 27
t58 6q19 0 70 -4t77 -4q42 0 91 4t65 4q18 0 28.5 -8.5t10.5 -22.5q0 -21 -12.5 -30.5t-42.5 -14.5q-27 -4 -76 -24q-44 -18 -70 -41q-27 -24 -27 -54q0 -24 19 -80q27 -76 194 -512q21 -57 70 -75q45 -18 45 -49t-43 -31q-36 0 -94.5 4t-93.5 4q-33 0 -82 -4t-68 -4
q-26 0 -33 22q-7 21 -14 35q-10 25 -16 37q-17 40 -31 74q-29 74 -98 233q-12 27 -16.5 34t-10.5 7t-6 -51v-248q0 -53 33 -69q30 -15 30 -37t-9 -29.5t-32 -7.5q-36 0 -106.5 4t-106.5 4t-107.5 -4t-107.5 -4q-45 0 -45 37q0 33 58 45q30 7 39.5 25t9.5 57z" />
    <glyph glyph-name="l" unicode="l" horiz-adv-x="569" 
d="M113 156v972q0 53 -10 72t-35 25q-40 9 -52 17t-12 26q0 22 15.5 31.5t58.5 17.5q100 17 276 78q15 5 33 12t28.5 10.5t14.5 3.5q18 0 22.5 -20t4.5 -66v-1179q0 -39 10.5 -57t46.5 -25q49 -9 49 -45q0 -37 -67 -37q-9 0 -28.5 2t-65 4t-117.5 2t-117.5 -2t-65 -4
t-28.5 -2q-68 0 -68 37q0 36 49 45q36 7 47 25t11 57z" />
    <glyph glyph-name="m" unicode="m" horiz-adv-x="1593" 
d="M123 156v510q0 52 -10 71t-35 25q-40 9 -52 17t-12 26q0 9 2 15.5t8.5 11.5t13.5 8t21 6.5t27.5 6t37.5 8t46 11.5q142 38 203 64q58 22 63 22q19 0 19 -65v-88q0 -27 12 -27q6 0 18.5 11.5t35 34t40.5 38.5q92 84 176 84q45 0 80.5 -12t60.5 -36.5t34.5 -37.5t24.5 -39
l3 -4.5t2 -3.5q13 -22 19 -22q4 0 7 2t7.5 6.5l7.5 7.5l23 23q23 23 33 31.5t36.5 28.5t46.5 29.5t49.5 18t57.5 8.5q107 0 170 -63q71 -71 71 -199v-561q0 -36 48 -53q18 -7 26 -15.5t8 -25.5q0 -15 -12.5 -26t-32.5 -11q-30 0 -96 4t-104 4q-34 0 -101.5 -4t-101.5 -4
q-14 0 -22.5 9.5t-8.5 23.5q0 15 17 28q1 1 6.5 4t7.5 4.5t7.5 5t7.5 7t6 8.5t6 11t4 13.5t3 17.5t1 21v457q0 58 -21.5 90.5t-77.5 32.5q-33 0 -55 -16q-22 -19 -22 -52v-553q0 -12 6 -21t9 -11t15 -9q21 -11 21 -32q0 -39 -49 -39q-10 0 -60.5 4t-107.5 4q-33 0 -85.5 -4
t-70.5 -4q-55 0 -55 43q0 12 8 20q1 1 13.5 9t18 20t5.5 35v485q0 57 -10 82q-19 39 -68 39t-76 -45q-22 -39 -22 -88v-469q0 -15 8.5 -26.5t24 -24t20.5 -17.5q10 -13 10 -24q0 -39 -57 -39q-5 0 -53 4t-111 4q-97 0 -157 -4t-68 -4q-52 0 -52 39q0 35 48 43
q36 7 45.5 24.5t9.5 57.5z" />
    <glyph glyph-name="n" unicode="n" horiz-adv-x="1138" 
d="M123 156v510q0 52 -10 71t-35 25q-40 9 -52 17t-12 26q0 9 2 15.5t8.5 11.5t13.5 8t21 6.5t27.5 6t37.5 8t46 11.5q126 32 213 66q65 20 66 20q18 0 18 -65q0 -56 2 -72q0 -30 8 -30t19 7t20.5 16.5t26.5 26t30 27.5q90 78 189 78q123 0 190 -74q64 -75 64 -210v-541
q0 -27 12 -37.5t36.5 -15t31.5 -7.5q14 -7 14 -28q0 -24 -14.5 -32.5t-57.5 -8.5q-20 0 -94 4t-104 4q-39 0 -102.5 -4t-82.5 -4q-45 0 -45 41q0 8 8 20q3 4 28.5 19.5t25.5 31.5v514q0 52 -15 82q-23 50 -67 50q-46 0 -86 -29q-37 -29 -37 -72v-536q0 -13 8 -22.5
t22.5 -18.5t20.5 -15q8 -12 8 -22q0 -26 -10.5 -34.5t-30.5 -8.5q-5 0 -59 4t-117 4q-95 0 -158.5 -4t-78.5 -4q-18 0 -32.5 10.5t-14.5 26.5q0 37 47 45q31 4 41 23t10 59z" />
    <glyph glyph-name="o" unicode="o" 
d="M512 -33h-2q-204 0 -332.5 138.5t-128.5 357.5t129 357t334 138t334 -138t129 -357t-129 -357.5t-334 -138.5zM530 49h2q44 0 61 83t17 241q0 233 -31.5 368.5t-84.5 135.5q-46 0 -63 -82.5t-17 -241.5q0 -233 31.5 -368.5t84.5 -135.5z" />
    <glyph glyph-name="p" unicode="p" 
d="M457 -14v-277q0 -82 67 -98q48 -12 59 -19.5t11 -27.5q0 -19 -17 -27t-65 -8q-45 0 -123.5 4t-103.5 4t-104 -4t-124 -4q-34 0 -47.5 8.5t-13.5 26.5q0 23 8.5 32t32.5 15q53 14 64.5 27.5t11.5 70.5v883q0 72 -4 103.5t-11.5 41t-27.5 15.5q-41 10 -55.5 17.5
t-14.5 18.5q0 20 21 33.5t79 24.5q80 17 269 94q41 18 51 18q16 0 16 -30v-60q0 -41 10 -41q7 0 17 8.5t28 27t31 30.5q69 65 148 65q94 0 167 -70t109.5 -180t36.5 -237q0 -78 -21.5 -163t-61.5 -163t-108 -128t-151 -50q-14 0 -31.5 4t-28 7.5t-32 11.5t-25.5 10
q-40 16 -45 16q-13 0 -17.5 -6t-4.5 -24zM618 420v2q0 93 -11 160t-28.5 100.5t-35.5 48t-37 14.5q-26 0 -37 -14q-12 -12 -12 -41v-549q0 -25 12 -37q11 -14 35 -14q32 0 56.5 30.5t41 106.5t16.5 193z" />
    <glyph glyph-name="q" unicode="q" 
d="M567 -307v346q0 18 -8 18q-3 0 -10.5 -6t-21 -18t-25.5 -21q-61 -45 -137 -45q-100 0 -173.5 73t-108 184.5t-34.5 242.5q0 216 116.5 353.5t291.5 137.5q119 0 207 -43t116 -43q15 0 29 9t20 17.5t19 27.5q11 17 17 25.5t18.5 17t25.5 8.5q25 0 25 -29q0 -24 -10 -57
q-13 -43 -13 -170v-1012q0 -56 14 -70.5t68 -27.5q24 -6 32.5 -15t8.5 -32q0 -18 -13.5 -26.5t-47.5 -8.5q-45 0 -124 4t-104 4t-103.5 -4t-123.5 -4q-48 0 -65 8t-17 27q0 39 64 47q42 6 54.5 21.5t12.5 60.5zM414 498v-2q0 -178 32 -271.5t80 -93.5q23 0 33 16q8 13 8 105
v475q0 101 -6 113q-6 16 -29 16q-21 0 -41 -19t-37.5 -58.5t-28.5 -112t-11 -168.5z" />
    <glyph glyph-name="r" unicode="r" horiz-adv-x="909" 
d="M135 123v553q0 33 -14 47.5t-39 19.5q-3 1 -10 2.5t-10 2t-8.5 2t-8 3t-6.5 4.5t-5.5 6t-3 7.5t-1.5 9.5q0 20 15.5 30t64.5 26q205 67 276 100q51 22 57 22q23 0 23 -32v-146q0 -12 2 -15t8 -3q8 0 15.5 11t21.5 39t27 48q62 98 159 98q85 0 135 -63t50 -154t-42.5 -150
t-123.5 -59q-39 0 -63.5 19.5t-45.5 54.5q-4 7 -12.5 21.5t-13 21t-11.5 15.5t-14.5 12.5t-15.5 3.5q-25 0 -43 -21q-19 -22 -19 -67v-410q0 -57 15.5 -79t54.5 -27q60 -9 77 -19.5t17 -36.5q0 -28 -55 -28q-7 0 -90.5 4t-178.5 4q-81 0 -153.5 -4t-85.5 -4q-27 0 -41 8
t-14 33q0 14 16 22t63 19q31 8 31 49z" />
    <glyph glyph-name="s" unicode="s" horiz-adv-x="796" 
d="M51 645v2q0 150 116.5 230.5t311.5 80.5q133 0 209 -30q23 -9 29 -99q2 -16 2 -61v-43q-2 -30 -8.5 -42.5t-24.5 -12.5q-6 0 -12 1.5t-11.5 5t-9.5 7t-9 10.5t-8 12t-8 14.5t-8 14.5t-8 16.5t-8 16.5q-12 25 -20.5 40t-23 33.5t-33 27t-40.5 8.5q-37 0 -58 -23.5
t-21 -58.5q0 -18 4.5 -35t9.5 -29.5t18.5 -29t20 -24.5t28 -24.5t27.5 -21.5t32.5 -23.5t31.5 -21.5q38 -27 64 -50.5t53 -57.5t41 -77t14 -94q0 -74 -26.5 -133.5t-70.5 -97t-103 -63t-121 -36t-128 -10.5q-101 0 -180 21q-43 14 -53 24q-21 18 -23 76q-2 31 -2 139
q0 50 8 76.5t31 26.5q24 0 44.5 -27t49.5 -82q19 -36 26.5 -49.5t26 -43.5t32 -42.5t33.5 -24.5t40 -12q88 0 88 103q0 30 -12 58t-42.5 59.5t-50 48t-66.5 53.5l-15 12q-43 34 -69.5 57t-57 57.5t-45.5 71t-15 76.5z" />
    <glyph glyph-name="t" unicode="t" horiz-adv-x="681" 
d="M479 766v-471q0 -69 17.5 -98t52.5 -29q38 0 63 37q1 2 5 7t5.5 7t5 6t6 6t6 4.5t7.5 3.5t8 1q27 0 27 -41q0 -26 -20.5 -62.5t-57.5 -74.5t-100.5 -64.5t-138.5 -26.5q-113 0 -172 68q-58 64 -58 178v553q0 33 -33 33h-55q-29 7 -29 26q0 15 10 27.5t40 32.5
q121 78 183 134.5t150 176.5q39 53 52 53q28 0 28 -26v-260q0 -22 10 -31.5t33 -9.5h123q20 0 24.5 -9t4.5 -43q0 -36 -4.5 -43.5t-28.5 -7.5h-108q-32 0 -44 -13t-12 -44z" />
    <glyph glyph-name="u" unicode="u" horiz-adv-x="1138" 
d="M467 879v-625q0 -53 20 -71.5t72 -18.5q53 0 90 43q23 26 23 61v486q0 56 -7.5 74t-31.5 26q-14 4 -20.5 7t-13.5 12.5t-7 23.5q0 22 17.5 29.5t49.5 7.5q11 0 61 -4t81 -4q22 0 76 4t90 4q49 0 49 -45v-76v-592q0 -29 20.5 -48.5t48.5 -22.5q25 -3 25 -33
q-1 -7 -2 -11.5t-3 -8t-6.5 -6.5t-9.5 -5t-15.5 -5l-21 -6t-29 -8.5t-36.5 -11.5q-202 -62 -258 -80q-31 -8 -39 -8q-18 0 -18 41v96q0 27 -13 27q-12 0 -30 -18q-1 -1 -29 -28t-42.5 -38t-44.5 -30.5t-62.5 -28t-69.5 -8.5q-110 0 -176 57q-82 67 -82 180v580q0 19 -9 31
t-19 16t-25 6q-41 7 -41 45q0 15 8 27t22 12q29 0 91.5 -4t93.5 -4q24 0 100 4t88 4q35 0 35 -55z" />
    <glyph glyph-name="v" unicode="v" horiz-adv-x="909" 
d="M543 893v-2q0 -27 -41 -39q-26 -7 -34.5 -18t-8.5 -33q0 -29 16 -86q29 -94 45 -160q19 -71 28 -104t17 -53t11.5 -22.5t11.5 -2.5q11 0 16.5 11t23.5 70q18 57 31 99q33 100 48 156q16 60 16 104q0 29 -41 45q-14 5 -20.5 8.5t-13.5 12.5t-7 22q0 14 9 23.5t26 9.5
q22 0 56.5 -4t53.5 -4q20 0 58 4t57 4q13 0 24 -10t11 -23q0 -9 -3 -16.5t-5.5 -11.5t-10.5 -9t-11.5 -6.5t-14.5 -6t-14 -5.5q-10 -4 -17 -11t-13 -19.5t-9.5 -22.5t-10.5 -31t-12 -35q-48 -134 -135.5 -390t-104.5 -306q-7 -23 -24 -27t-107 -4q-85 0 -101.5 5t-25.5 34
q-142 474 -206 702q-20 71 -36 91.5t-71 33.5q-31 7 -31 27q0 41 54 41q32 0 110.5 -4t134.5 -4q48 0 119.5 4t91.5 4q35 0 47.5 -9t12.5 -32z" />
    <glyph glyph-name="w" unicode="w" horiz-adv-x="1366" 
d="M690 418l-104 -375q-9 -31 -33.5 -37t-134.5 -6q-80 0 -96 4.5t-23 30.5l-197 694q-26 88 -37 103t-32 20q-47 9 -47 43q0 39 41 39q75 0 233.5 -4t239.5 -4q77 0 231.5 4t231.5 4q29 0 41 -8.5t12 -28.5q0 -27 -27 -37q-28 -12 -28 -49q0 -24 14 -94l72 -324
q11 -53 24 -53t25 45l84 322q12 47 12 86q0 32 -13 46t-36 19q-18 4 -25 6.5t-15.5 10t-8.5 20.5q0 39 39 39q15 0 51.5 -4t62.5 -4q24 0 54.5 4t44.5 4q16 0 25 -11t9 -26q0 -5 -1 -9.5t-3.5 -7.5t-4.5 -5.5t-6.5 -4.5t-6.5 -3t-8.5 -3.5t-8.5 -3.5q-44 -17 -57 -63
l-217 -748q-10 -37 -26.5 -43t-100.5 -6q-98 0 -118.5 4.5t-26.5 28.5l-101 385h-4zM537 862h-37q-28 0 -44 -18t-16 -49q0 -33 11 -78l86 -311q12 -48 20 -65t18 -17q19 0 35 67l35 139q8 36 8 64q0 26 -32 151q-19 72 -33 94.5t-51 22.5z" />
    <glyph glyph-name="x" unicode="x" horiz-adv-x="909" 
d="M387 35v2q0 2 0.5 4t1.5 4t2 3.5t3.5 3.5t3.5 3t4 3t4.5 2.5t5 2.5t4.5 3q28 20 28 43q0 28 -49 131l-10 22.5t-10 21.5l-9.5 19t-9 17t-7.5 12t-8 9t-7 3q-16 0 -64 -98q-43 -88 -43 -123q0 -26 39 -49q1 -1 4 -3q30 -25 33 -40q0 -18 -10 -27.5t-19.5 -10.5t-25.5 -1
q-18 0 -53 4t-52 4q-19 0 -55 -4t-53 -4q-53 0 -53 35q0 14 7 22.5t14.5 12t23.5 8.5q56 12 77 47q8 12 27.5 41.5t27.5 41.5t24 37t23.5 37l20 32t19 33t14 27.5t12.5 26.5q13 33 13 51q0 15 -17 54q-18 40 -85 154.5t-95 164.5q-14 24 -59 39q-43 14 -43 39q0 39 61 39
q49 0 146.5 -4t146.5 -4q24 0 72 4t71 4q18 0 31.5 -10.5t13.5 -28.5q0 -27 -20 -35q-8 -3 -12 -5t-7.5 -8.5t-3.5 -17.5q0 -4 3 -13t8.5 -26.5t9.5 -29.5q10 -35 37 -92.5t37 -57.5q12 0 37 43t45 92q18 49 18 68q0 21 -9 30t-26 15q-11 3 -16.5 5t-12 11.5t-6.5 24.5
q0 14 9 24.5t22 10.5q11 0 54.5 -4t64.5 -4q16 0 48 4t48 4q17 0 31 -9.5t14 -25.5t-9 -26t-40 -21q-61 -21 -109 -113q-15 -31 -34.5 -68.5t-32 -62t-19.5 -39.5q-16 -37 -16 -43q0 -18 21 -65q22 -47 147 -295q42 -84 65 -92q33 -11 43.5 -19.5t10.5 -25.5t-13.5 -26
t-25 -10t-31.5 -1q-18 0 -101 4t-126 4q-35 0 -104.5 -4t-90.5 -4q-49 0 -49 43z" />
    <glyph glyph-name="y" unicode="y" horiz-adv-x="909" 
d="M125 -307v2q0 64 29 106.5t92 42.5q26 0 65 -4t54 -4q41 0 53 12q10 10 10 39q0 42 -49 166q-20 55 -57 148.5t-103 262t-127 324.5q-17 48 -61 66q-14 5 -21 8.5t-12.5 11.5t-5.5 21q0 39 55 39q26 0 109 -4t129 -4q56 0 118.5 4t77.5 4q23 0 33 -8.5t10 -28.5
q0 -15 -28 -31q-29 -17 -29 -51q0 -39 27 -113q12 -34 38 -117.5t43 -128t27 -44.5q6 0 14 12.5t17 36t17.5 48.5t18 57.5t15.5 55t13.5 50t9.5 33.5q20 76 20 96q0 17 -7 29t-14 16.5t-20 9.5q-16 6 -22.5 8.5t-13.5 10.5t-7 20q0 16 12 27.5t25 11.5q5 0 47.5 -4t75.5 -4
q14 0 44.5 4t47.5 4q43 0 43 -39q0 -7 -4 -12t-8 -7t-14.5 -6.5t-16.5 -7.5q-50 -26 -76 -98q-79 -224 -163.5 -458.5t-100.5 -278.5q-51 -146 -76 -277q-10 -49 -17 -77.5t-18 -55.5t-23 -40t-32 -23.5t-45 -13.5t-63 -3q-89 0 -122.5 38.5t-33.5 117.5z" />
    <glyph glyph-name="z" unicode="z" horiz-adv-x="796" 
d="M729 379h2q12 0 19 -3.5t12.5 -22t5.5 -54.5q0 -168 -2 -219q-3 -61 -13.5 -74.5t-45.5 -13.5q-19 0 -134 4t-221 4q-57 0 -172.5 -4t-138.5 -4q-33 0 -33 31q0 15 15 45l303 694q24 56 24 65q0 17 -20 17q-48 0 -80 -4q-55 -6 -84 -62q-11 -22 -21.5 -44t-16 -34.5
t-11.5 -24.5t-9.5 -17.5t-8 -10t-9.5 -5.5t-12 -1q-20 0 -27.5 15t-7.5 59q0 141 12 215t47 74q27 0 39 -31q13 -36 23 -39q27 -8 338 -8q15 0 107 4t110 4q35 0 35 -27q0 -7 -2 -15t-7 -20.5t-10 -24t-15 -33.5t-18 -40l-227 -524q-55 -124 -55 -141q0 -35 49 -35
q38 0 70 16q82 42 114 143q20 68 33.5 100t21.5 39t21 7z" />
    <glyph glyph-name="braceleft" unicode="{" horiz-adv-x="796" 
d="M213 -10v282q0 123 -23.5 186.5t-83.5 67.5q-22 2 -35.5 15t-13.5 34t13.5 34.5t35.5 15.5q59 4 83 70t24 184v282q0 79 23.5 137t57.5 88.5t86.5 48.5t95.5 22.5t99 4.5q72 0 72 -51q0 -24 -12.5 -33.5t-36.5 -13.5q-37 -6 -61 -35.5t-32.5 -66t-8.5 -80.5v-301
q0 -141 -32.5 -208t-133.5 -95v-5q101 -28 133.5 -95t32.5 -208v-303q0 -44 8.5 -80.5t32.5 -66t61 -35.5q24 -4 36.5 -13.5t12.5 -33.5q0 -49 -72 -49q-56 0 -99 4.5t-95.5 22.5t-86.5 48.5t-57.5 88.5t-23.5 137z" />
    <glyph glyph-name="bar" unicode="|" horiz-adv-x="454" 
d="M338 -512h-221v2048h221v-2048z" />
    <glyph glyph-name="braceright" unicode="}" horiz-adv-x="796" 
d="M492 1161v-282q0 -81 8.5 -133t32.5 -85t65 -36q22 -2 35.5 -15.5t13.5 -34.5t-13.5 -34t-35.5 -15q-59 -4 -82.5 -70t-23.5 -184v-282q0 -57 -12 -103.5t-31.5 -77t-50 -53.5t-60 -35.5t-68.5 -20t-70.5 -9.5t-70.5 -2q-72 0 -72 51q0 24 12.5 33.5t36.5 13.5
q54 8 78.5 60.5t24.5 121.5v301q0 141 32.5 208t133.5 95v5q-101 28 -133.5 95t-32.5 208v303q0 69 -24.5 121.5t-78.5 60.5q-24 4 -36.5 13.5t-12.5 33.5q0 49 72 49q39 0 70.5 -2t70.5 -9.5t68.5 -20t60 -35.5t50 -53.5t31.5 -77t12 -103.5z" />
    <glyph glyph-name="asciitilde" unicode="~" horiz-adv-x="1228" 
d="M211 354l-111 144q64 89 131 136.5t160 47.5q20 0 38.5 -2t38.5 -7.5t34 -9t36 -13t31 -13.5t33.5 -15t30.5 -14q49 -23 71.5 -33t61.5 -21t72 -11q98 0 180 127l110 -140q-41 -59 -78.5 -97t-92.5 -64.5t-119 -26.5q-23 0 -46 4t-48 13t-41 16t-45.5 21.5t-41.5 19.5
q-101 47 -146 58q-40 9 -79 7q-98 0 -180 -127z" />
    <glyph glyph-name="uni00A0" unicode="&#xa0;" horiz-adv-x="512" 
 />
    <glyph glyph-name="exclamdown" unicode="&#xa1;" horiz-adv-x="569" 
d="M268 958h2q71 0 118.5 -52.5t47.5 -125.5q0 -72 -48.5 -125t-119.5 -53q-70 0 -119 53.5t-49 124.5q0 72 48 125t120 53zM266 545h2q34 0 46.5 -14.5t21.5 -59.5q10 -49 27.5 -125t23.5 -102q8 -37 18.5 -84.5t16.5 -73t13.5 -59.5t11 -51.5t8.5 -41t7.5 -36t5 -28
t3.5 -26t1.5 -21t0.5 -20.5q0 -176 -188 -176q-189 0 -189 162q0 27 5 66.5t12 79t25.5 140t33.5 189.5q20 110 25 146q14 83 27 109t42 26z" />
    <glyph glyph-name="cent" unicode="&#xa2;" 
d="M504 266v-256q0 -26 -8.5 -34.5t-38.5 -8.5t-38.5 8.5t-8.5 32.5v260q-120 19 -195.5 117.5t-75.5 237.5q0 151 75.5 257.5t195.5 141.5v250q0 26 8.5 34.5t38.5 8.5t38.5 -8.5t8.5 -32.5v-238q44 0 92 -12t78 -35q20 -15 26.5 -29.5t6.5 -41.5v-111q0 -36 -13 -49
t-37 -13q-11 0 -19.5 5.5t-15.5 19t-11 25.5l-12 36l-13 39q-15 45 -32.5 70t-47.5 25q-35 0 -61.5 -54.5t-26.5 -165.5q0 -348 155 -348q80 0 113 76q22 49 41 49q27 0 27 -33q0 -29 -13 -62.5t-40 -68.5t-78.5 -60.5t-118.5 -31.5z" />
    <glyph glyph-name="sterling" unicode="&#xa3;" 
d="M242 614h-219q-15 0 -15 25q0 27 7.5 52.5t25.5 25.5h158q-64 108 -64 213q0 166 118 275.5t292 109.5q131 0 217 -38.5t86 -84.5q0 -246 -80 -246q-33 0 -54.5 28.5t-34 70t-26.5 82.5t-41.5 69.5t-70.5 28.5q-49 0 -75 -34.5t-26 -84.5q0 -25 5 -53t18.5 -62t22 -56
t31.5 -63.5t29.5 -53.5t33 -56t26.5 -45h199q14 0 14 -25q0 -27 -7.5 -52.5t-25.5 -25.5h-135q37 -79 37 -157q0 -48 -16 -93.5t-32.5 -72t-16.5 -27.5q0 -3 3.5 -6.5t10.5 -7.5t13 -6.5t16 -6.5t14 -6q124 -63 172 -63q96 0 96 65q0 23 -17.5 37.5t-42 23t-49 19.5t-42 37
t-17.5 66q0 65 34.5 106t94.5 41q74 0 110 -55t36 -133q0 -55 -20 -122t-57 -132.5t-101.5 -109.5t-143.5 -44q-48 0 -92.5 23t-69.5 51t-44.5 51t-24.5 23t-21 -15t-41.5 -37t-59.5 -44t-86.5 -37t-111.5 -15q-131 0 -199.5 53.5t-68.5 141.5q0 91 69.5 149t190.5 58
q58 0 109 -12.5t74.5 -22.5t25.5 -8q5 4 -10 42.5t-33 73.5q-24 48 -98 172zM162 160v-2q0 -43 30 -64.5t74 -21.5q48 0 101 35t53 79q0 24 -48 51t-104 27q-45 0 -75.5 -28t-30.5 -76z" />
    <glyph glyph-name="currency" unicode="&#xa4;" 
d="M70 74l-123 123l196 196q-71 104 -71 244q0 141 71 248l-196 196l123 123l196 -196q104 71 248 71q147 0 244 -71l196 196l123 -123l-196 -196q71 -104 71 -248q0 -140 -71 -244l196 -196l-123 -123l-196 196q-97 -71 -244 -71q-144 0 -248 71zM514 895h-2
q-104 0 -174 -76t-70 -182t70 -180t176 -74q103 0 172.5 74.5t69.5 179.5q0 106 -69.5 182t-172.5 76z" />
    <glyph glyph-name="yen" unicode="&#xa5;" 
d="M680 467v-320q0 -39 14 -54.5t41 -22.5q3 -1 12 -3t12.5 -2.5t10 -3.5t9 -6.5t5 -9.5t2.5 -14q0 -23 -10 -31t-41 -8q-16 0 -78.5 4t-128.5 4q-76 0 -151.5 -4t-95.5 -4q-50 0 -50 35q0 18 13 31t55 24q16 5 24 10.5t14.5 25t6.5 54.5v295h-221q-20 0 -25.5 5.5
t-5.5 25.5v41q0 20 5.5 25t25.5 5h215q-2 14 -9.5 39t-18 56.5l-13.5 40.5h-174q-20 0 -25.5 5t-5.5 25v41q0 20 5.5 25.5t25.5 5.5h135q-20 54 -59.5 164t-59.5 164q-18 51 -71 67q-3 1 -11 4t-10.5 4t-8.5 3.5t-8 5t-5 5.5t-4 7.5t-1 9.5q0 24 15.5 36.5t40.5 12.5
q35 0 105.5 -4t105.5 -4q57 0 143 4t111 4q37 0 37 -35q0 -14 -7.5 -24.5t-14 -13.5t-21.5 -9q-14 -4 -19 -6t-13.5 -7.5t-12 -13t-3.5 -18.5q0 -24 66 -219q34 -103 51 -150t24 -58t15 -11q10 0 16.5 14t34.5 89q17 47 29 79q70 196 70 236q0 21 -8 34.5t-17 18.5t-25 10
q-2 1 -10.5 3.5t-11 3.5t-9 3.5t-8.5 5t-6 6.5t-5 9.5t-1 11.5q0 41 53 41q25 0 63 -4t54 -4t52 4t53 4q37 0 37 -39q0 -17 -6.5 -27.5t-13 -13.5t-23.5 -8q-17 -6 -28.5 -13t-26 -26t-23.5 -47q-29 -79 -67.5 -182.5t-47.5 -126.5h133q20 0 25.5 -5.5t5.5 -25.5v-41
q0 -20 -5.5 -25t-25.5 -5h-174q-36 -100 -41 -136h215q20 0 25.5 -5t5.5 -25v-41q0 -20 -5.5 -25.5t-25.5 -5.5h-221z" />
    <glyph glyph-name="brokenbar" unicode="&#xa6;" horiz-adv-x="454" 
d="M338 666h-221v716h221v-716zM338 -358h-221v716h221v-716z" />
    <glyph glyph-name="section" unicode="&#xa7;" 
d="M741 164l-2 -4q125 -112 125 -256q0 -130 -101.5 -211.5t-281.5 -81.5q-158 0 -251 62.5t-93 168.5q0 66 42 111t108 45q68 0 106.5 -35t38.5 -102q0 -35 -16 -58t-31.5 -38.5t-15.5 -32.5q0 -19 30.5 -33t89.5 -14q69 0 113.5 27.5t44.5 86.5q0 45 -51.5 96t-245.5 207
q-167 133 -217.5 206.5t-50.5 180.5q0 92 55 164.5t168 104.5l2 4q-65 58 -99 119.5t-34 140.5q0 133 90 213t264 80q62 0 119 -13t106 -39.5t78 -73t29 -106.5q0 -64 -39 -102.5t-102 -38.5q-59 0 -100 33.5t-41 89.5q0 24 11 46.5t23.5 36t23.5 26.5t11 20q0 17 -28.5 32
t-77.5 15q-64 0 -107 -37t-43 -96q0 -21 7 -40t16 -33.5t34.5 -38t45 -39t67.5 -53.5t82 -66q89 -72 139.5 -119.5t90 -100t54.5 -104t15 -117.5q0 -99 -53 -158.5t-148 -74.5zM266 596v-2q0 -43 37 -95t146 -143q88 -73 132.5 -101t75.5 -28q47 0 74 23.5t27 66.5
q0 46 -31.5 91t-132.5 139q-66 61 -130.5 100t-105.5 39q-42 0 -67 -27t-25 -63z" />
    <glyph glyph-name="dieresis" unicode="&#xa8;" horiz-adv-x="569" 
d="M92 1087h-2q-54 0 -92.5 41t-38.5 99q0 57 39 98t94 41t94 -41t39 -98q0 -58 -38.5 -99t-94.5 -41zM477 1087h-2q-54 0 -92.5 41t-38.5 99q0 57 39 98t94 41t94 -41t39 -98q0 -58 -38.5 -99t-94.5 -41z" />
    <glyph glyph-name="copyright" unicode="&#xa9;" horiz-adv-x="1638" 
d="M1546 715v-2q0 -154 -55.5 -290.5t-151.5 -235t-230.5 -155.5t-287.5 -57q-206 0 -373 97.5t-261.5 267t-94.5 375.5q0 207 94.5 377t262 268t372.5 98q153 0 287.5 -57t230.5 -155.5t151.5 -236.5t55.5 -294zM260 715v-2q0 -169 72 -310.5t201 -224t288 -82.5t287 82.5
t199 224t71 312.5q0 169 -71 311t-199.5 226.5t-286.5 84.5q-160 0 -289.5 -84.5t-200.5 -226.5t-71 -311zM1174 555l-33 -156q-4 -17 -17.5 -26t-44.5 -19q-113 -41 -221 -41q-207 0 -326.5 109t-119.5 317q0 56 14.5 111t50 110.5t87.5 97.5t133.5 68.5t181.5 26.5
q111 0 213 -41q45 -17 45 -45v-147h-45q-22 75 -74 125.5t-139 50.5q-113 0 -177.5 -93t-64.5 -251q-3 -173 56.5 -279t185.5 -106q162 0 245 188h50z" />
    <glyph glyph-name="ordfeminine" unicode="&#xaa;" horiz-adv-x="681" 
d="M590 1186v-309q0 -29 26 -29q22 0 35 10q16 8 17 8q8 0 8 -20t-17 -47q-20 -33 -61 -55.5t-80 -22.5q-57 0 -92 35q-7 7 -16.5 19t-15.5 18t-11 6q-4 0 -13 -5t-27 -16t-30 -18q-76 -39 -129 -39q-61 0 -100 34t-39 91q0 116 182 192q41 18 80 33q35 14 46.5 21t11.5 20
v105q0 49 -35 49q-34 0 -60 -68q-24 -64 -70.5 -95.5t-88.5 -31.5q-35 0 -50.5 13t-15.5 44q0 72 91.5 129.5t223.5 57.5q131 0 180.5 -33.5t49.5 -95.5zM309 823h2q20 0 37 11.5t17 31.5v152q0 7 -1.5 10t-3.5 3.5t-6 0.5q-23 0 -51 -43q-33 -50 -33 -98q0 -35 7.5 -51.5
t31.5 -16.5z" />
    <glyph glyph-name="guillemotleft" unicode="&#xab;" 
d="M557 182h-186q-21 0 -36 8.5t-34 34.5l-127 170q-19 26 -45 45q-16 12 -16 23q0 10 16 22q26 19 45 45l127 170q33 43 70 43h186q25 0 25 -18t-27 -18q-24 0 -40.5 -12t-39.5 -42l-115 -151q-18 -24 -32 -39q6 -6 18 -21.5t14 -17.5l115 -152q22 -29 38.5 -41t41.5 -12
q27 0 27 -18q0 -19 -25 -19zM895 182h-186q-21 0 -36 8.5t-34 34.5l-127 170q-19 26 -45 45q-16 12 -16 23q0 10 16 22q26 19 45 45l127 170q33 43 70 43h186q25 0 25 -18t-27 -18q-24 0 -40.5 -12t-39.5 -42l-115 -151q-18 -24 -32 -39q6 -6 18 -21.5t14 -17.5l115 -152
q22 -29 38.5 -41t41.5 -12q27 0 27 -18q0 -19 -25 -19z" />
    <glyph glyph-name="logicalnot" unicode="&#xac;" horiz-adv-x="1228" 
d="M918 221v404h-820v213h1032v-617h-212z" />
    <glyph glyph-name="uni00AD" unicode="&#xad;" horiz-adv-x="681" 
d="M170 586h428q27 0 27 -21q0 -9 -30.5 -94.5t-41.5 -112.5q-7 -18 -41 -18h-428q-27 0 -27 20q0 6 15.5 51t35.5 99t21 57q7 19 41 19z" />
    <glyph glyph-name="registered" unicode="&#xae;" horiz-adv-x="1638" 
d="M1546 715v-2q0 -154 -55.5 -290.5t-151.5 -235t-230.5 -155.5t-287.5 -57q-206 0 -373 97.5t-261.5 267t-94.5 375.5q0 207 94.5 377t262 268t372.5 98q153 0 287.5 -57t230.5 -155.5t151.5 -236.5t55.5 -294zM260 715v-2q0 -169 72 -310.5t201 -224t288 -82.5t287 82.5
t199 224t71 312.5q0 169 -71 311t-199.5 226.5t-286.5 84.5q-160 0 -289.5 -84.5t-200.5 -226.5t-71 -311zM471 1090v38h418q104 0 168.5 -51.5t64.5 -154.5q0 -70 -43.5 -129t-117.5 -82l120 -176q82 -116 131 -170v-29h-186q-29 0 -62 51t-80 148t-79 149h-57v-223
q0 -53 13 -66.5t77 -17.5v-41h-367v41q65 4 77.5 17.5t12.5 66.5v543q0 53 -13 67.5t-77 18.5zM748 1077v-342h59q63 0 90 52t27 128q0 87 -28 124.5t-83 37.5h-65z" />
    <glyph glyph-name="macron" unicode="&#xaf;" horiz-adv-x="569" 
d="M27 1303h542q41 0 41 -9q0 -10 -32 -112q-6 -22 -11.5 -27.5t-23.5 -5.5h-543q-41 0 -41 8q0 5 33 113q6 22 11.5 27.5t23.5 5.5z" />
    <glyph glyph-name="degree" unicode="&#xb0;" horiz-adv-x="819" 
d="M412 1315h2q127 0 218 -93.5t91 -222.5q0 -132 -91 -225.5t-220 -93.5q-132 0 -224 93.5t-92 225.5q0 130 92.5 223t223.5 93zM412 1204h-2q-83 0 -139 -60t-56 -145q0 -87 56 -147.5t141 -60.5q82 0 137 60.5t55 147.5q0 85 -55 145t-137 60z" />
    <glyph glyph-name="plusminus" unicode="&#xb1;" horiz-adv-x="1228" 
d="M508 786v332h213v-332h409v-213h-409v-331h-213v331h-410v213h410zM98 -106v212h1032v-212h-1032z" />
    <glyph glyph-name="twosuperior" unicode="&#xb2;" horiz-adv-x="614" 
d="M561 782v-204q0 -58 -47 -58q-28 0 -101 2t-114 2q-39 0 -115.5 -2t-115.5 -2q-27 0 -27 29q0 22 47 78q60 69 113 149q114 174 114 295q0 70 -31 112t-75 42q-46 0 -75.5 -39t-29.5 -96q0 -46 -28 -46q-33 0 -33 48q0 94 72.5 158.5t181.5 64.5q104 0 178 -64t74 -155
q0 -41 -9.5 -72.5t-37.5 -65t-58.5 -60.5t-91.5 -75q-33 -26 -60.5 -50.5t-41.5 -40t-14 -19.5q0 -8 28 -8h86q108 0 144 92q1 4 4 12t4.5 11.5t4 9.5t4 9t4.5 7t5.5 5.5t6.5 3t8 1.5q14 0 20 -15t6 -59z" />
    <glyph glyph-name="threesuperior" unicode="&#xb3;" horiz-adv-x="614" 
d="M270 997l4 -8q58 23 115 23q95 0 155 -49t60 -136q0 -85 -60.5 -171.5t-154.5 -141.5t-186 -55q-70 0 -114 32t-44 95q0 34 21.5 53.5t58.5 19.5q39 0 60 -17.5t36 -47.5q3 -7 8.5 -19.5t8.5 -18.5t8 -13.5t11 -11t13 -3.5q28 0 48.5 42.5t28 86t7.5 72.5q0 172 -137 172
q-45 0 -83 -18.5t-54 -18.5q-17 0 -17 19q0 13 16 29.5t71 56.5q40 29 85.5 91t45.5 111q0 62 -56 62q-43 0 -82 -53q-6 -7 -15.5 -20.5t-14.5 -20t-12.5 -12t-14.5 -5.5q-25 0 -25 31q0 16 13 40.5t40.5 53t83 48.5t128.5 20q78 0 129 -29t51 -96q0 -73 -121 -139
q-15 -8 -59.5 -26.5t-55.5 -27.5z" />
    <glyph glyph-name="acute" unicode="&#xb4;" horiz-adv-x="569" 
d="M150 1051h-3q-10 0 -17 8t-7 20q0 20 33 62l186 233q43 55 75 75.5t81 20.5q40 0 69 -26.5t29 -63.5q0 -74 -72 -118l-266 -158q-87 -53 -108 -53z" />
    <glyph glyph-name="mu" unicode="&#xb5;" horiz-adv-x="1138" 
d="M467 879v-625q0 -53 19.5 -71.5t70.5 -18.5q55 0 92 43q23 26 23 61v486q0 56 -7.5 74t-31.5 26q-14 4 -20.5 7t-13.5 12.5t-7 23.5q0 22 17.5 29.5t49.5 7.5q11 0 61 -4t81 -4q22 0 76 4t90 4q49 0 49 -45v-76v-592q0 -29 20.5 -48.5t48.5 -22.5q25 -3 25 -33
q-1 -7 -2 -11.5t-3 -8t-6.5 -6.5t-9.5 -5t-15.5 -5l-21 -6t-29 -8.5t-36.5 -11.5q-202 -62 -258 -80q-31 -8 -39 -8q-18 0 -18 41v96q0 27 -13 27q-12 0 -30 -18q-3 -3 -29 -28.5t-41.5 -37.5t-44 -31t-60 -27.5t-65.5 -8.5q-38 0 -78 19.5t-59 53.5l-4 -4v-47
q0 -53 25 -108t50 -106t25 -95q0 -76 -42.5 -118t-115.5 -42q-145 0 -145 168q0 46 39 164t39 201v151v580q0 19 -9 31t-19 16t-25 6q-41 7 -41 45q0 15 8 27t22 12q29 0 91.5 -4t93.5 -4q24 0 100 4t88 4q35 0 35 -55z" />
    <glyph glyph-name="paragraph" unicode="&#xb6;" horiz-adv-x="1269" 
d="M514 1282h533q39 0 56 -9.5t17 -35.5q0 -45 -65 -45q-29 0 -45.5 -20t-16.5 -54v-1446h-229v1495h-119v-1495h-229v770q-152 15 -242 128.5t-90 293.5q0 187 119.5 302.5t310.5 115.5z" />
    <glyph glyph-name="periodcentered" unicode="&#xb7;" horiz-adv-x="512" 
d="M256 340h-2q-71 0 -123.5 52.5t-52.5 125.5t53 125.5t125 52.5t125 -52.5t53 -125.5t-53 -125.5t-125 -52.5z" />
    <glyph glyph-name="cedilla" unicode="&#xb8;" horiz-adv-x="569" 
d="M201 2h114l-45 -127q14 2 37 2q93 0 151 -42.5t58 -110.5q0 -69 -62 -121t-182 -52q-36 0 -71.5 6t-69.5 17.5t-55 34t-21 51.5q0 17 1.5 26.5t13 21t34.5 11.5q22 0 37.5 -9.5t25.5 -23.5l20 -28t27.5 -23.5t41.5 -9.5q40 0 67 23.5t27 56.5q0 40 -24.5 66t-65.5 26
q-23 0 -56 -7t-42 -7q-12 0 -20.5 7.5t-8.5 16.5q0 20 8 39z" />
    <glyph glyph-name="onesuperior" unicode="&#xb9;" horiz-adv-x="614" 
d="M446 1292v-639q0 -39 7 -52.5t28 -18.5q30 -7 40.5 -14t10.5 -19q0 -17 -8 -23t-26 -6q-30 0 -91 2t-92 2q-27 0 -84 -2t-84 -2q-18 0 -26 6t-8 23q0 13 10.5 20t40.5 13q22 5 29.5 18.5t7.5 52.5v471q0 16 -8 25.5t-19 9.5q-16 0 -39 -9t-33 -9q-18 0 -18 26q0 31 70 52
q73 23 196 71q66 25 74 25q9 0 15.5 -6t6.5 -17z" />
    <glyph glyph-name="ordmasculine" unicode="&#xba;" horiz-adv-x="681" 
d="M340 721h-2q-133 0 -216 83t-83 214t83.5 214t217.5 83t217.5 -83t83.5 -214t-83.5 -214t-217.5 -83zM350 770h2q29 0 40 49t11 144q0 140 -20.5 221.5t-54.5 81.5q-52 0 -52 -195q0 -139 20.5 -220t53.5 -81z" />
    <glyph glyph-name="guillemotright" unicode="&#xbb;" 
d="M129 743h186q21 0 36 -8.5t34 -34.5l127 -170q19 -26 45 -45q16 -12 16 -22q0 -11 -16 -23q-26 -19 -45 -45l-127 -170q-33 -43 -70 -43h-186q-25 0 -25 19q0 18 27 18q25 0 41.5 12t38.5 41l115 152q18 24 32 39q-6 6 -18 21.5t-14 17.5l-115 151q-23 30 -39.5 42
t-40.5 12q-27 0 -27 18t25 18zM467 743h186q21 0 36 -8.5t34 -34.5l127 -170q19 -26 45 -45q16 -12 16 -22q0 -11 -16 -23q-26 -19 -45 -45l-127 -170q-33 -43 -70 -43h-186q-25 0 -25 19q0 18 27 18q25 0 41.5 12t38.5 41l115 152q17 24 32 39q-6 6 -18 21.5t-14 17.5
l-115 151q-23 30 -39.5 42t-40.5 12q-27 0 -27 18t25 18z" />
    <glyph glyph-name="onequarter" unicode="&#xbc;" horiz-adv-x="1536" 
d="M274 -23v3q0 6 27 49l797 1265q15 21 51 21h86q29 0 29 -10q0 -9 -27 -52l-797 -1265q-15 -21 -51 -21h-86q-29 0 -29 10zM446 1292v-639q0 -39 7 -52.5t28 -18.5q30 -7 40.5 -14t10.5 -19q0 -17 -8 -23t-26 -6q-30 0 -91 2t-92 2q-27 0 -84 -2t-84 -2q-18 0 -26 6t-8 23
q0 13 10.5 20t40.5 13q22 5 29.5 18.5t7.5 52.5v471q0 16 -8 25.5t-19 9.5q-16 0 -39 -9t-33 -9q-18 0 -18 26q0 31 70 52q73 23 196 71q66 25 74 25q9 0 15.5 -6t6.5 -17zM1337 602v-272q0 -15 13 -15h84q10 0 14 -6t4 -26t-4.5 -24.5t-15.5 -4.5h-78q-17 0 -17 -14v-127
q0 -27 12 -39t40 -17q24 -4 30 -10t6 -24q0 -27 -34 -27q-29 0 -87 2t-87 2q-31 0 -92 -2t-91 -2q-39 0 -39 29q0 10 2.5 16t10 9.5t10.5 4.5t16.5 2.5t16.5 1.5q24 4 38.5 17t14.5 45v117q0 16 -12 16h-226q-11 0 -13.5 7t-2.5 38q0 21 6.5 34.5t30.5 45.5q18 23 57.5 74.5
t119 153.5t165.5 214q21 31 47 31h29q26 0 26 -4q0 -5 -57 -78q-28 -37 -140 -177t-155 -196q-51 -67 -51 -73q0 -9 14 -9h145q10 0 13.5 9.5t3.5 35.5v138q0 29 33 41q14 5 60 25.5t84.5 37t43.5 16.5q8 0 10 -3.5t2 -12.5z" />
    <glyph glyph-name="onehalf" unicode="&#xbd;" horiz-adv-x="1536" 
d="M272 -23v3q0 6 27 49l797 1265q15 21 51 21h86q29 0 29 -10q0 -9 -27 -52l-797 -1265q-15 -21 -51 -21h-86q-29 0 -29 10zM446 1292v-639q0 -39 7 -52.5t28 -18.5q30 -7 40.5 -14t10.5 -19q0 -17 -8 -23t-26 -6q-30 0 -91 2t-92 2q-27 0 -84 -2t-84 -2q-18 0 -26 6t-8 23
q0 13 10.5 20t40.5 13q22 5 29.5 18.5t7.5 52.5v471q0 16 -8 25.5t-19 9.5q-16 0 -39 -9t-33 -9q-18 0 -18 26q0 31 70 52q73 23 196 71q66 25 74 25q9 0 15.5 -6t6.5 -17zM1450 258v-205q0 -57 -47 -57q-28 0 -101 2t-114 2q-39 0 -116 -2t-116 -2q-26 0 -26 29
q0 14 10 29.5t37 47.5q57 66 113 150q114 174 114 295q0 70 -31 111.5t-75 41.5q-46 0 -75.5 -39t-29.5 -96q0 -45 -28 -45q-33 0 -33 47q0 95 72.5 159.5t181.5 64.5q104 0 178 -64.5t74 -155.5q0 -78 -40 -129t-157 -143q-33 -26 -61 -51t-42 -40.5t-14 -19.5q0 -8 29 -8
h86q107 0 143 92q2 4 5 13.5t4.5 13l4.5 10.5t5 10t5.5 6.5t7.5 5t9 1.5q14 0 20.5 -15t6.5 -59z" />
    <glyph glyph-name="threequarters" unicode="&#xbe;" horiz-adv-x="1536" 
d="M270 997l4 -8q58 23 115 23q95 0 155 -49t60 -136q0 -85 -60.5 -171.5t-154.5 -141.5t-186 -55q-70 0 -114 32t-44 95q0 34 21.5 53.5t58.5 19.5q39 0 60 -17.5t36 -47.5q3 -7 8.5 -19.5t8.5 -18.5t8 -13.5t11 -11t13 -3.5q28 0 48.5 42.5t28 86t7.5 72.5q0 172 -137 172
q-45 0 -83 -18.5t-54 -18.5q-17 0 -17 19q0 13 16 29.5t71 56.5q40 29 85.5 91t45.5 111q0 62 -56 62q-43 0 -82 -53q-6 -7 -15.5 -20.5t-14.5 -20t-12.5 -12t-14.5 -5.5q-25 0 -25 31q0 16 13 40.5t40.5 53t83 48.5t128.5 20q78 0 129 -29t51 -96q0 -73 -121 -139
q-15 -8 -59.5 -26.5t-55.5 -27.5zM274 -23v3q0 6 27 49l797 1265q15 21 51 21h86q29 0 29 -10q0 -9 -27 -52l-797 -1265q-15 -21 -51 -21h-86q-29 0 -29 10zM1337 602v-272q0 -15 13 -15h84q10 0 14 -6t4 -26t-4.5 -24.5t-15.5 -4.5h-78q-17 0 -17 -14v-127q0 -27 12 -39
t40 -17q24 -4 30 -10t6 -24q0 -27 -34 -27q-29 0 -87 2t-87 2q-31 0 -92 -2t-91 -2q-39 0 -39 29q0 10 2.5 16t10 9.5t10.5 4.5t16.5 2.5t16.5 1.5q24 4 38.5 17t14.5 45v117q0 16 -12 16h-226q-11 0 -13.5 7t-2.5 38q0 21 6.5 34.5t30.5 45.5q18 23 57.5 74.5t119 153.5
t165.5 214q21 31 47 31h29q26 0 26 -4q0 -5 -57 -78q-28 -37 -140 -177t-155 -196q-51 -67 -51 -73q0 -9 14 -9h145q10 0 13.5 9.5t3.5 35.5v138q0 29 33 41q14 5 60 25.5t84.5 37t43.5 16.5q8 0 10 -3.5t2 -12.5z" />
    <glyph glyph-name="questiondown" unicode="&#xbf;" horiz-adv-x="681" 
d="M389 602h-2q-69 0 -117.5 53.5t-48.5 124.5q0 72 48 125t120 53t120 -52.5t48 -125.5q0 -72 -48.5 -125t-119.5 -53zM596 -225v-2q0 -26 -9.5 -54t-23.5 -38q-70 -54 -201 -54q-95 0 -178.5 43.5t-135.5 122.5t-52 176q0 171 127 291q15 15 33 29.5t31.5 25t34 25
t30 20.5t31.5 20t26 17q32 21 45.5 35.5t20.5 38.5q2 6 5.5 20t6 21t7 16t11 13t15.5 4q48 0 51 -68q2 -35 14.5 -132.5t12.5 -145.5q0 -44 -58 -109q-17 -19 -58 -61t-64 -67.5t-43.5 -63.5t-20.5 -72q0 -42 24.5 -75.5t65.5 -33.5q27 0 48.5 23t31.5 46t25 67q8 24 12 35
t12.5 29.5t15 27t17 15.5t22.5 7q35 0 51.5 -41t16.5 -151z" />
    <glyph glyph-name="Agrave" unicode="&#xc0;" 
d="M479 397h-209q-17 0 -23 -5t-11 -21q-50 -169 -50 -219q0 -59 60 -76q3 -1 12.5 -4t13 -4t10.5 -4t10 -6t6.5 -7t5 -9.5t1.5 -12.5q0 -21 -9.5 -29t-31.5 -8q-16 0 -56 4t-63 4q-21 0 -63 -4t-64 -4q-41 0 -41 39q0 16 11 25t32 18q17 8 25.5 13t19 16.5t15.5 25.5
q17 50 258 1014q12 53 24 102q6 27 26 32t99 5q75 0 96.5 -6t30.5 -35q54 -179 162.5 -537.5t163.5 -537.5q21 -72 68 -96q3 -2 9.5 -5.5t9 -5t7 -5t6 -7t3 -8.5t1.5 -12q0 -16 -11 -24.5t-23.5 -9.5t-38.5 -1q-34 0 -101.5 4t-101.5 4t-101.5 -4t-101.5 -4q-49 0 -62.5 8
t-13.5 31q0 30 43 47q22 9 32.5 18.5t10.5 26.5q0 36 -59 242q-6 20 -14 26t-23 6zM289 487h145q33 0 33 29q0 7 -8 43q-3 10 -60 205q-19 63 -25 77.5t-14 14.5q-10 0 -17 -19t-24 -98q-12 -55 -24 -104.5t-17.5 -73t-7.5 -33.5q-2 -12 -2 -26q0 -15 21 -15zM649 1395v-2
q0 -11 -7 -19t-19 -8q-22 0 -109 53l-266 158q-72 45 -72 117q0 40 29.5 66t66.5 26q49 0 81.5 -21t76.5 -75l186 -234q33 -42 33 -61z" />
    <glyph glyph-name="Aacute" unicode="&#xc1;" 
d="M479 397h-209q-17 0 -23 -5t-11 -21q-50 -169 -50 -219q0 -59 60 -76q3 -1 12.5 -4t13 -4t10.5 -4t10 -6t6.5 -7t5 -9.5t1.5 -12.5q0 -21 -9.5 -29t-31.5 -8q-16 0 -56 4t-63 4q-21 0 -63 -4t-64 -4q-41 0 -41 39q0 16 11 25t32 18q17 8 25.5 13t19 16.5t15.5 25.5
q17 50 258 1014q12 53 24 102q6 27 26 32t99 5q75 0 96.5 -6t30.5 -35q54 -179 162.5 -537.5t163.5 -537.5q21 -72 68 -96q3 -2 9.5 -5.5t9 -5t7 -5t6 -7t3 -8.5t1.5 -12q0 -16 -11 -24.5t-23.5 -9.5t-38.5 -1q-34 0 -101.5 4t-101.5 4t-101.5 -4t-101.5 -4q-49 0 -62.5 8
t-13.5 31q0 30 43 47q22 9 32.5 18.5t10.5 26.5q0 36 -59 242q-6 20 -14 26t-23 6zM289 487h145q33 0 33 29q0 7 -8 43q-3 10 -60 205q-19 63 -25 77.5t-14 14.5q-10 0 -17 -19t-24 -98q-12 -55 -24 -104.5t-17.5 -73t-7.5 -33.5q-2 -12 -2 -26q0 -15 21 -15zM352 1366h-2
q-10 0 -17 8.5t-7 20.5q0 20 32 61l187 234q43 55 74.5 75.5t80.5 20.5q40 0 69.5 -26.5t29.5 -63.5q0 -75 -72 -119l-266 -158q-87 -53 -109 -53z" />
    <glyph glyph-name="Acircumflex" unicode="&#xc2;" 
d="M479 397h-209q-17 0 -23 -5t-11 -21q-50 -169 -50 -219q0 -59 60 -76q3 -1 12.5 -4t13 -4t10.5 -4t10 -6t6.5 -7t5 -9.5t1.5 -12.5q0 -21 -9.5 -29t-31.5 -8q-16 0 -56 4t-63 4q-21 0 -63 -4t-64 -4q-41 0 -41 39q0 16 11 25t32 18q17 8 25.5 13t19 16.5t15.5 25.5
q17 50 258 1014q12 53 24 102q6 27 26 32t99 5q75 0 96.5 -6t30.5 -35q54 -179 162.5 -537.5t163.5 -537.5q21 -72 68 -96q3 -2 9.5 -5.5t9 -5t7 -5t6 -7t3 -8.5t1.5 -12q0 -16 -11 -24.5t-23.5 -9.5t-38.5 -1q-34 0 -101.5 4t-101.5 4t-101.5 -4t-101.5 -4q-49 0 -62.5 8
t-13.5 31q0 30 43 47q22 9 32.5 18.5t10.5 26.5q0 36 -59 242q-6 20 -14 26t-23 6zM289 487h145q33 0 33 29q0 7 -8 43q-3 10 -60 205q-19 63 -25 77.5t-14 14.5q-10 0 -17 -19t-24 -98q-12 -55 -24 -104.5t-17.5 -73t-7.5 -33.5q-2 -12 -2 -26q0 -15 21 -15zM436 1751h103
q19 0 30.5 -2t26 -12t27.5 -29l170 -266q26 -43 26 -56q0 -20 -35 -20q-27 0 -77 39l-220 178l-219 -178q-50 -39 -78 -39q-34 0 -34 20q0 13 26 56l170 266q18 28 36.5 35.5t47.5 7.5z" />
    <glyph glyph-name="Atilde" unicode="&#xc3;" 
d="M479 397h-209q-17 0 -23 -5t-11 -21q-50 -169 -50 -219q0 -59 60 -76q3 -1 12.5 -4t13 -4t10.5 -4t10 -6t6.5 -7t5 -9.5t1.5 -12.5q0 -21 -9.5 -29t-31.5 -8q-16 0 -56 4t-63 4q-21 0 -63 -4t-64 -4q-41 0 -41 39q0 16 11 25t32 18q17 8 25.5 13t19 16.5t15.5 25.5
q17 50 258 1014q12 53 24 102q6 27 26 32t99 5q75 0 96.5 -6t30.5 -35q54 -179 162.5 -537.5t163.5 -537.5q21 -72 68 -96q3 -2 9.5 -5.5t9 -5t7 -5t6 -7t3 -8.5t1.5 -12q0 -16 -11 -24.5t-23.5 -9.5t-38.5 -1q-34 0 -101.5 4t-101.5 4t-101.5 -4t-101.5 -4q-49 0 -62.5 8
t-13.5 31q0 30 43 47q22 9 32.5 18.5t10.5 26.5q0 36 -59 242q-6 20 -14 26t-23 6zM289 487h145q33 0 33 29q0 7 -8 43q-3 10 -60 205q-19 63 -25 77.5t-14 14.5q-10 0 -17 -19t-24 -98q-12 -55 -24 -104.5t-17.5 -73t-7.5 -33.5q-2 -12 -2 -26q0 -15 21 -15zM606 1421h-2
q-57 0 -155 54q-100 53 -140 53q-34 0 -54.5 -15.5t-27 -33.5t-20.5 -33.5t-37 -15.5q-44 0 -37 61q11 91 74 152t160 61q61 0 157 -53q87 -46 120 -52q11 -2 20 -2q34 0 54.5 15.5t27.5 34t21.5 34t37.5 15.5q20 0 29 -17t6 -45q-9 -91 -73 -152t-161 -61z" />
    <glyph glyph-name="Adieresis" unicode="&#xc4;" 
d="M479 397h-209q-17 0 -23 -5t-11 -21q-50 -169 -50 -219q0 -59 60 -76q3 -1 12.5 -4t13 -4t10.5 -4t10 -6t6.5 -7t5 -9.5t1.5 -12.5q0 -21 -9.5 -29t-31.5 -8q-16 0 -56 4t-63 4q-21 0 -63 -4t-64 -4q-41 0 -41 39q0 16 11 25t32 18q17 8 25.5 13t19 16.5t15.5 25.5
q17 50 258 1014q12 53 24 102q6 27 26 32t99 5q75 0 96.5 -6t30.5 -35q54 -179 162.5 -537.5t163.5 -537.5q21 -72 68 -96q3 -2 9.5 -5.5t9 -5t7 -5t6 -7t3 -8.5t1.5 -12q0 -16 -11 -24.5t-23.5 -9.5t-38.5 -1q-34 0 -101.5 4t-101.5 4t-101.5 -4t-101.5 -4q-49 0 -62.5 8
t-13.5 31q0 30 43 47q22 9 32.5 18.5t10.5 26.5q0 36 -59 242q-6 20 -14 26t-23 6zM289 487h145q33 0 33 29q0 7 -8 43q-3 10 -60 205q-19 63 -25 77.5t-14 14.5q-10 0 -17 -19t-24 -98q-12 -55 -24 -104.5t-17.5 -73t-7.5 -33.5q-2 -12 -2 -26q0 -15 21 -15zM295 1403h-2
q-54 0 -92.5 40.5t-38.5 98.5q0 57 39 98t94 41t94 -41t39 -98q0 -58 -38.5 -98.5t-94.5 -40.5zM680 1403h-2q-54 0 -92.5 40.5t-38.5 98.5q0 57 39 98t94 41t94 -41t39 -98q0 -58 -38.5 -98.5t-94.5 -40.5z" />
    <glyph glyph-name="Aring" unicode="&#xc5;" 
d="M479 397h-209q-17 0 -23 -5t-11 -21q-50 -169 -50 -219q0 -59 60 -76q3 -1 12.5 -4t13 -4t10.5 -4t10 -6t6.5 -7t5 -9.5t1.5 -12.5q0 -21 -9.5 -29t-31.5 -8q-16 0 -56 4t-63 4q-21 0 -63 -4t-64 -4q-41 0 -41 39q0 16 11 25t32 18q17 8 25.5 13t19 16.5t15.5 25.5
q17 50 258 1014q12 53 24 102q6 27 26 32t99 5q75 0 96.5 -6t30.5 -35q54 -179 162.5 -537.5t163.5 -537.5q21 -72 68 -96q3 -2 9.5 -5.5t9 -5t7 -5t6 -7t3 -8.5t1.5 -12q0 -16 -11 -24.5t-23.5 -9.5t-38.5 -1q-34 0 -101.5 4t-101.5 4t-101.5 -4t-101.5 -4q-49 0 -62.5 8
t-13.5 31q0 30 43 47q22 9 32.5 18.5t10.5 26.5q0 36 -59 242q-6 20 -14 26t-23 6zM289 487h145q33 0 33 29q0 7 -8 43q-3 10 -60 205q-19 63 -25 77.5t-14 14.5q-10 0 -17 -19t-24 -98q-12 -55 -24 -104.5t-17.5 -73t-7.5 -33.5q-2 -12 -2 -26q0 -15 21 -15zM487 1366h-2
q-89 0 -154 65t-65 156t65 156t156 65t156.5 -65t65.5 -156t-65.5 -156t-156.5 -65zM487 1477h2q43 0 76 33t33 77t-33.5 77.5t-77.5 33.5t-77 -33.5t-33 -77.5t33 -77t77 -33z" />
    <glyph glyph-name="AE" unicode="&#xc6;" horiz-adv-x="1593" 
d="M1108 1137v-392q0 -19 10.5 -23.5t42.5 -4.5q47 0 65.5 21.5t28.5 72.5q15 69 23 79q9 11 31 11q37 0 37 -65q0 -29 -4.5 -87.5t-4.5 -84.5q0 -31 4.5 -100t4.5 -97q0 -49 -41 -49q-18 0 -28.5 17.5t-21.5 64.5q-18 74 -42.5 100.5t-65.5 26.5q-13 0 -19.5 -1t-13 -8.5
t-6.5 -21.5v-457q0 -33 18 -45t68 -12q87 0 137.5 63t81.5 191q22 92 66 92q28 0 38.5 -23t10.5 -90v-137v-92q0 -62 -12 -78t-41 -16q-24 0 -165 4t-266 4q-136 0 -259 -4t-130 -4q-27 0 -37 11t-10 34q0 5 1.5 9.5t3 7.5t5.5 6t7 5t10 4.5t12 3.5t15 4t16 5
q28 8 40.5 23.5t12.5 46.5v399q0 34 -9.5 44.5t-31.5 10.5h-227q-19 0 -26.5 -8t-23.5 -40q-1 -2 -2 -3t-1.5 -3t-1.5 -3.5t-2 -3.5q-106 -213 -140 -291q-43 -96 -43 -139q0 -11 9 -17.5t16.5 -8t26.5 -4.5q4 -1 6 -1q55 -8 55 -47q0 -45 -74 -45q-16 0 -50 4t-50 4
q-20 0 -59 -4t-58 -4q-59 0 -59 41q0 6 1 11.5t3.5 10t5 8t7.5 6.5l7.5 4.5t9 4t9 3t9.5 2.5t9 3q14 4 28 19.5t21.5 29.5t20.5 41t18 37q22 42 104.5 203t138 269t118 233.5t86.5 181.5q18 45 18 51q0 29 -19 37.5t-73 11.5q-26 2 -37.5 8.5t-11.5 24.5q0 57 65 57
q56 0 186.5 -4t190.5 -4q115 0 311 4t226 4q55 0 55 -45v-342q0 -43 -33 -43q-31 0 -54 37.5t-54 128.5q-30 90 -52 120q-39 54 -104 54q-88 0 -88 -63zM731 717v401q0 41 -6 41t-39 -65q-120 -225 -166 -334q-16 -37 -16 -43q0 -21 18 -21h187q22 0 22 21z" />
    <glyph glyph-name="Ccedilla" unicode="&#xc7;" 
d="M977 369v-226q0 -46 -14.5 -66t-51.5 -40q-125 -66 -264 -68l-33 -94q14 2 37 2q93 0 151 -42.5t58 -110.5q0 -69 -62 -121t-182 -52q-36 0 -71.5 6t-69.5 17.5t-55 34t-21 51.5q0 16 2 26.5t13.5 21.5t34.5 11q27 0 45 -14.5t27.5 -32.5t29.5 -32.5t49 -14.5
q40 0 67 23.5t27 56.5q0 40 -24.5 66t-65.5 26q-23 0 -56 -7t-42 -7q-12 0 -20.5 7.5t-8.5 16.5q0 20 8 39l50 129q-158 24 -270.5 121t-166 236.5t-53.5 308.5q0 139 38.5 260t111 214t187.5 146.5t259 53.5q61 0 131.5 -14t118.5 -33q37 -13 44 -26t9 -64q4 -102 4 -273
q0 -28 -12.5 -40.5t-30.5 -12.5q-20 0 -36.5 12.5t-30 39.5t-21.5 50t-20 62q-11 37 -18.5 61t-22 55t-28.5 49t-36 31t-47 13q-85 0 -129.5 -141t-44.5 -416q0 -132 14 -239t36 -175t51 -113.5t57 -64.5t55 -19q24 0 43.5 9.5t35.5 31.5t26.5 40.5t22 55t17 55.5t15.5 60
q12 49 20.5 76t24.5 49.5t35 22.5q28 0 40.5 -17.5t12.5 -70.5z" />
    <glyph glyph-name="Egrave" unicode="&#xc8;" 
d="M152 152v993q0 29 -18 42.5t-48.5 19.5t-40.5 12q-16 13 -16 30q0 21 14.5 31t54.5 10q13 0 142 -4t264 -4q42 0 178 4t186 4q56 0 56 -45v-342q0 -43 -33 -43q-43 0 -72 68q-25 58 -37 98q-29 86 -50 116q-41 58 -116 58q-50 0 -71 -18q-17 -14 -17 -49v-396
q0 -13 9 -16.5t32 -3.5q52 0 73.5 22t31.5 72q13 59 21 74.5t32 15.5q19 0 29 -13.5t10 -51.5q0 -29 -4 -87.5t-4 -84.5q0 -31 4 -100t4 -97q0 -49 -41 -49q-18 0 -28 17.5t-21 64.5q-18 74 -40.5 100.5t-60.5 26.5q-47 0 -47 -21v-467q0 -33 18 -45t68 -12q94 0 146.5 62.5
t83.5 191.5q12 50 27.5 71t37.5 21q23 0 31 -8q18 -24 18 -162q0 -174 -4 -213q-3 -34 -12 -43.5t-37 -9.5q-77 0 -231.5 4t-231.5 4q-85 0 -203 -4t-149 -4q-35 0 -48 10t-13 35q0 18 10.5 28.5t38.5 16.5q74 17 74 70zM674 1395v-2q0 -11 -7.5 -19t-19.5 -8q-21 0 -108 53
l-267 158q-71 44 -71 117q0 40 29.5 66t66.5 26q49 0 81.5 -21t76.5 -75l186 -234q33 -42 33 -61z" />
    <glyph glyph-name="Eacute" unicode="&#xc9;" 
d="M152 152v993q0 29 -18 42.5t-48.5 19.5t-40.5 12q-16 13 -16 30q0 21 14.5 31t54.5 10q13 0 142 -4t264 -4q42 0 178 4t186 4q56 0 56 -45v-342q0 -43 -33 -43q-43 0 -72 68q-25 58 -37 98q-29 86 -50 116q-41 58 -116 58q-50 0 -71 -18q-17 -14 -17 -49v-396
q0 -13 9 -16.5t32 -3.5q52 0 73.5 22t31.5 72q13 59 21 74.5t32 15.5q19 0 29 -13.5t10 -51.5q0 -29 -4 -87.5t-4 -84.5q0 -31 4 -100t4 -97q0 -49 -41 -49q-18 0 -28 17.5t-21 64.5q-18 74 -40.5 100.5t-60.5 26.5q-47 0 -47 -21v-467q0 -33 18 -45t68 -12q94 0 146.5 62.5
t83.5 191.5q12 50 27.5 71t37.5 21q23 0 31 -8q18 -24 18 -162q0 -174 -4 -213q-3 -34 -12 -43.5t-37 -9.5q-77 0 -231.5 4t-231.5 4q-85 0 -203 -4t-149 -4q-35 0 -48 10t-13 35q0 18 10.5 28.5t38.5 16.5q74 17 74 70zM377 1366h-2q-10 0 -17.5 8.5t-7.5 20.5q0 19 33 61
l186 234q43 55 75 75.5t81 20.5q40 0 69 -26.5t29 -63.5q0 -76 -71 -119l-267 -158q-87 -53 -108 -53z" />
    <glyph glyph-name="Ecircumflex" unicode="&#xca;" 
d="M152 152v993q0 29 -18 42.5t-48.5 19.5t-40.5 12q-16 13 -16 30q0 21 14.5 31t54.5 10q13 0 142 -4t264 -4q42 0 178 4t186 4q56 0 56 -45v-342q0 -43 -33 -43q-43 0 -72 68q-25 58 -37 98q-29 86 -50 116q-41 58 -116 58q-50 0 -71 -18q-17 -14 -17 -49v-396
q0 -13 9 -16.5t32 -3.5q52 0 73.5 22t31.5 72q13 59 21 74.5t32 15.5q19 0 29 -13.5t10 -51.5q0 -29 -4 -87.5t-4 -84.5q0 -31 4 -100t4 -97q0 -49 -41 -49q-18 0 -28 17.5t-21 64.5q-18 74 -40.5 100.5t-60.5 26.5q-47 0 -47 -21v-467q0 -33 18 -45t68 -12q94 0 146.5 62.5
t83.5 191.5q12 50 27.5 71t37.5 21q23 0 31 -8q18 -24 18 -162q0 -174 -4 -213q-3 -34 -12 -43.5t-37 -9.5q-77 0 -231.5 4t-231.5 4q-85 0 -203 -4t-149 -4q-35 0 -48 10t-13 35q0 18 10.5 28.5t38.5 16.5q74 17 74 70zM461 1751h102q19 0 30.5 -2t26 -12t27.5 -29
l170 -266q27 -44 27 -56q0 -20 -35 -20q-28 0 -78 39l-219 178l-219 -178q-50 -39 -78 -39q-35 0 -35 20q0 12 27 56l170 266q18 28 36.5 35.5t47.5 7.5z" />
    <glyph glyph-name="Edieresis" unicode="&#xcb;" 
d="M152 152v993q0 29 -18 42.5t-48.5 19.5t-40.5 12q-16 13 -16 30q0 21 14.5 31t54.5 10q13 0 142 -4t264 -4q42 0 178 4t186 4q56 0 56 -45v-342q0 -43 -33 -43q-43 0 -72 68q-25 58 -37 98q-29 86 -50 116q-41 58 -116 58q-50 0 -71 -18q-17 -14 -17 -49v-396
q0 -13 9 -16.5t32 -3.5q52 0 73.5 22t31.5 72q13 59 21 74.5t32 15.5q19 0 29 -13.5t10 -51.5q0 -29 -4 -87.5t-4 -84.5q0 -31 4 -100t4 -97q0 -49 -41 -49q-18 0 -28 17.5t-21 64.5q-18 74 -40.5 100.5t-60.5 26.5q-47 0 -47 -21v-467q0 -33 18 -45t68 -12q94 0 146.5 62.5
t83.5 191.5q12 50 27.5 71t37.5 21q23 0 31 -8q18 -24 18 -162q0 -174 -4 -213q-3 -34 -12 -43.5t-37 -9.5q-77 0 -231.5 4t-231.5 4q-85 0 -203 -4t-149 -4q-35 0 -48 10t-13 35q0 18 10.5 28.5t38.5 16.5q74 17 74 70zM319 1403h-2q-54 0 -92.5 40.5t-38.5 98.5
q0 57 39 98t94 41t94.5 -41t39.5 -98q0 -58 -39 -98.5t-95 -40.5zM705 1403h-3q-54 0 -92.5 40.5t-38.5 98.5q0 57 39.5 98t94.5 41t94 -41t39 -98q0 -58 -38.5 -98.5t-94.5 -40.5z" />
    <glyph glyph-name="Igrave" unicode="&#xcc;" horiz-adv-x="681" 
d="M528 1130v-978q0 -60 41 -70q42 -10 57 -19t15 -30q0 -15 -5.5 -24t-17.5 -12t-20 -4t-23 -1q-30 0 -97 4t-134 4t-134 -4t-97 -4q-14 0 -21 0.5t-19 2.5t-18 6t-11 12t-5 20q0 20 16 28.5t64 20.5q19 4 26 19.5t7 50.5v978q0 35 -7 50.5t-26 19.5q-53 13 -66.5 20.5
t-13.5 28.5q0 12 5 20t11 12t18 6t19 2.5t21 0.5q30 0 97 -4t134 -4t134 4t97 4q17 0 25 -1t19.5 -4t16.5 -12t5 -24q0 -21 -13.5 -29.5t-58.5 -19.5q-41 -10 -41 -70zM504 1395v-2q0 -11 -7.5 -19t-19.5 -8q-21 0 -108 53l-267 158q-71 44 -71 117q0 40 29.5 66t66.5 26
q49 0 81.5 -21t76.5 -75l186 -234q33 -42 33 -61z" />
    <glyph glyph-name="Iacute" unicode="&#xcd;" horiz-adv-x="681" 
d="M528 1130v-978q0 -60 41 -70q42 -10 57 -19t15 -30q0 -15 -5.5 -24t-17.5 -12t-20 -4t-23 -1q-30 0 -97 4t-134 4t-134 -4t-97 -4q-14 0 -21 0.5t-19 2.5t-18 6t-11 12t-5 20q0 20 16 28.5t64 20.5q19 4 26 19.5t7 50.5v978q0 35 -7 50.5t-26 19.5q-53 13 -66.5 20.5
t-13.5 28.5q0 12 5 20t11 12t18 6t19 2.5t21 0.5q30 0 97 -4t134 -4t134 4t97 4q17 0 25 -1t19.5 -4t16.5 -12t5 -24q0 -21 -13.5 -29.5t-58.5 -19.5q-41 -10 -41 -70zM207 1366h-2q-10 0 -17.5 8.5t-7.5 20.5q0 19 33 61l186 234q43 55 75 75.5t81 20.5q40 0 69 -26.5
t29 -63.5q0 -76 -71 -119l-267 -158q-87 -53 -108 -53z" />
    <glyph glyph-name="Icircumflex" unicode="&#xce;" horiz-adv-x="681" 
d="M528 1130v-978q0 -60 41 -70q42 -10 57 -19t15 -30q0 -15 -5.5 -24t-17.5 -12t-20 -4t-23 -1q-30 0 -97 4t-134 4t-134 -4t-97 -4q-14 0 -21 0.5t-19 2.5t-18 6t-11 12t-5 20q0 20 16 28.5t64 20.5q19 4 26 19.5t7 50.5v978q0 35 -7 50.5t-26 19.5q-53 13 -66.5 20.5
t-13.5 28.5q0 12 5 20t11 12t18 6t19 2.5t21 0.5q30 0 97 -4t134 -4t134 4t97 4q17 0 25 -1t19.5 -4t16.5 -12t5 -24q0 -21 -13.5 -29.5t-58.5 -19.5q-41 -10 -41 -70zM291 1751h102q19 0 30.5 -2t26 -12t27.5 -29l170 -266q27 -44 27 -56q0 -20 -35 -20q-28 0 -78 39
l-219 178l-219 -178q-50 -39 -78 -39q-35 0 -35 20q0 12 27 56l170 266q18 28 36.5 35.5t47.5 7.5z" />
    <glyph glyph-name="Idieresis" unicode="&#xcf;" horiz-adv-x="681" 
d="M528 1130v-978q0 -60 41 -70q42 -10 57 -19t15 -30q0 -15 -5.5 -24t-17.5 -12t-20 -4t-23 -1q-30 0 -97 4t-134 4t-134 -4t-97 -4q-14 0 -21 0.5t-19 2.5t-18 6t-11 12t-5 20q0 20 16 28.5t64 20.5q19 4 26 19.5t7 50.5v978q0 35 -7 50.5t-26 19.5q-53 13 -66.5 20.5
t-13.5 28.5q0 12 5 20t11 12t18 6t19 2.5t21 0.5q30 0 97 -4t134 -4t134 4t97 4q17 0 25 -1t19.5 -4t16.5 -12t5 -24q0 -21 -13.5 -29.5t-58.5 -19.5q-41 -10 -41 -70zM150 1403h-3q-54 0 -92.5 40.5t-38.5 98.5q0 57 39.5 98t94.5 41t94 -41t39 -98q0 -58 -38.5 -98.5
t-94.5 -40.5zM535 1403h-3q-54 0 -92.5 40.5t-38.5 98.5q0 57 39.5 98t94.5 41t94 -41t39 -98q0 -58 -38.5 -98.5t-94.5 -40.5z" />
    <glyph glyph-name="Eth" unicode="&#xd0;" horiz-adv-x="1251" 
d="M152 743v385q0 27 -10.5 39t-37.5 15q-16 2 -65 2q-27 0 -27 30q0 20 22.5 34.5t78.5 25.5q191 41 415 41q319 0 492 -170q178 -172 178 -504q0 -145 -33.5 -263.5t-98.5 -204.5t-166.5 -133.5t-231.5 -47.5q-58 0 -167.5 4t-164.5 4q-51 0 -143 -4t-142 -4
q-14 0 -23.5 12.5t-9.5 28.5q0 23 13 33t47 16q40 7 57 26.5t17 71.5v461h-111q-12 0 -16.5 4.5t-4.5 16.5v61q0 12 4.5 16t16.5 4h111zM528 641v-457q0 -51 18 -76.5t66 -25.5q96 0 136 201q24 126 24 354q0 575 -190 575q-29 0 -41.5 -14.5t-12.5 -62.5v-392h127
q12 0 16.5 -4t4.5 -16v-61q0 -12 -4.5 -16.5t-16.5 -4.5h-127z" />
    <glyph glyph-name="Ntilde" unicode="&#xd1;" horiz-adv-x="1138" 
d="M143 137v1030q0 6 -1.5 11.5t-3.5 9t-7 6.5l-7.5 4.5t-9.5 3t-10 2t-11.5 1.5t-10.5 1q-49 7 -49 41q0 19 11.5 29t24 12t33.5 2q32 0 97 -4t96 -4q33 0 103.5 4t88.5 4q14 0 22.5 -10t20.5 -35q59 -110 176 -327.5t175 -327.5q1 -2 3.5 -5.5t4 -5t3.5 -3t5 -1.5
q8 0 8 13v542q0 68 -37 72q-80 9 -80 47q0 41 39 41q9 0 53.5 -4t80.5 -4q31 0 66.5 4t45.5 4q37 0 37 -35q0 -40 -76 -53q-39 -8 -39 -63v-1143q0 -11 -6 -16.5t-29 -9t-71 -3.5q-43 0 -66 6.5t-30.5 14.5t-18.5 30q-7 13 -20.5 38.5t-20.5 39.5q-69 129 -465 877
q-11 22 -20 22q-15 0 -15 -14v-815q0 -73 50 -92q7 -3 32.5 -8t37.5 -14t12 -27q0 -19 -10 -26t-38 -7q-9 0 -49 4t-73 4q-41 0 -83 -4t-51 -4q-38 0 -38 24q0 14 9 24t19 14.5t28 10.5t25 9q27 11 33 22.5t6 40.5zM688 1421h-2q-58 0 -156 54q-37 19 -52 27t-41.5 17
t-45.5 9q-34 0 -54.5 -15.5t-27 -33.5t-20.5 -33.5t-37 -15.5q-44 0 -37 61q11 91 74 152t160 61q61 0 157 -53q3 -1 16.5 -8.5t17 -9.5t15.5 -8t16.5 -8t15 -6.5t16 -6t14 -3.5t15 -3t13.5 -1q28 0 46 10t27 24.5t17 29.5t20.5 25t31.5 10q20 0 29 -17t6 -45
q-9 -91 -73 -152t-161 -61z" />
    <glyph glyph-name="Ograve" unicode="&#xd2;" horiz-adv-x="1251" 
d="M45 670v2q0 127 43.5 244.5t119 205.5t185.5 140.5t236 52.5q130 0 240.5 -60.5t182.5 -160t112 -225t40 -257.5q0 -172 -73 -319t-208 -236.5t-302 -89.5q-105 0 -198 39.5t-161 107.5t-117.5 157.5t-74.5 191.5t-25 207zM778 451v2q0 176 -10 313t-27 222t-41 139.5
t-48.5 76t-53.5 21.5q-127 0 -127 -394q0 -177 10 -314t27 -222.5t41 -140t48.5 -76t53.5 -21.5q127 0 127 394zM788 1395v-2q0 -11 -7 -19t-19 -8q-22 0 -109 53l-266 158q-72 45 -72 117q0 40 30 66t67 26q49 0 81 -21t76 -75l187 -234q32 -41 32 -61z" />
    <glyph glyph-name="Oacute" unicode="&#xd3;" horiz-adv-x="1251" 
d="M45 670v2q0 127 43.5 244.5t119 205.5t185.5 140.5t236 52.5q130 0 240.5 -60.5t182.5 -160t112 -225t40 -257.5q0 -172 -73 -319t-208 -236.5t-302 -89.5q-105 0 -198 39.5t-161 107.5t-117.5 157.5t-74.5 191.5t-25 207zM778 451v2q0 176 -10 313t-27 222t-41 139.5
t-48.5 76t-53.5 21.5q-127 0 -127 -394q0 -177 10 -314t27 -222.5t41 -140t48.5 -76t53.5 -21.5q127 0 127 394zM492 1366h-3q-10 0 -17 8.5t-7 20.5q0 19 33 61l186 234q43 55 75 75.5t81 20.5q40 0 69 -26.5t29 -63.5q0 -75 -72 -119l-266 -158q-87 -53 -108 -53z" />
    <glyph glyph-name="Ocircumflex" unicode="&#xd4;" horiz-adv-x="1251" 
d="M45 670v2q0 127 43.5 244.5t119 205.5t185.5 140.5t236 52.5q130 0 240.5 -60.5t182.5 -160t112 -225t40 -257.5q0 -172 -73 -319t-208 -236.5t-302 -89.5q-105 0 -198 39.5t-161 107.5t-117.5 157.5t-74.5 191.5t-25 207zM778 451v2q0 176 -10 313t-27 222t-41 139.5
t-48.5 76t-53.5 21.5q-127 0 -127 -394q0 -177 10 -314t27 -222.5t41 -140t48.5 -76t53.5 -21.5q127 0 127 394zM575 1751h103q19 0 30.5 -2t26 -12t27.5 -29l170 -266q26 -43 26 -56q0 -20 -34 -20q-28 0 -78 39l-219 178l-219 -178q-50 -39 -78 -39q-35 0 -35 20
q0 12 27 56l170 266q18 28 36.5 35.5t46.5 7.5z" />
    <glyph glyph-name="Otilde" unicode="&#xd5;" horiz-adv-x="1251" 
d="M45 670v2q0 127 43.5 244.5t119 205.5t185.5 140.5t236 52.5q130 0 240.5 -60.5t182.5 -160t112 -225t40 -257.5q0 -172 -73 -319t-208 -236.5t-302 -89.5q-105 0 -198 39.5t-161 107.5t-117.5 157.5t-74.5 191.5t-25 207zM778 451v2q0 176 -10 313t-27 222t-41 139.5
t-48.5 76t-53.5 21.5q-127 0 -127 -394q0 -177 10 -314t27 -222.5t41 -140t48.5 -76t53.5 -21.5q127 0 127 394zM745 1421h-2q-57 0 -155 54q-37 19 -52 27t-41.5 17t-45.5 9q-28 0 -46.5 -10t-27 -24.5t-16 -29t-19.5 -24.5t-31 -10q-44 0 -37 61q11 91 74 152t160 61
q62 0 158 -53q3 -1 16.5 -8.5t17 -9.5t15.5 -8t16.5 -8t15 -6.5t16 -6t14 -3.5t15 -3t13.5 -1q34 0 54.5 15.5t27.5 34t21.5 34t37.5 15.5q20 0 29 -17t6 -45q-9 -91 -73 -152t-161 -61z" />
    <glyph glyph-name="Odieresis" unicode="&#xd6;" horiz-adv-x="1251" 
d="M45 670v2q0 127 43.5 244.5t119 205.5t185.5 140.5t236 52.5q130 0 240.5 -60.5t182.5 -160t112 -225t40 -257.5q0 -172 -73 -319t-208 -236.5t-302 -89.5q-105 0 -198 39.5t-161 107.5t-117.5 157.5t-74.5 191.5t-25 207zM778 451v2q0 176 -10 313t-27 222t-41 139.5
t-48.5 76t-53.5 21.5q-127 0 -127 -394q0 -177 10 -314t27 -222.5t41 -140t48.5 -76t53.5 -21.5q127 0 127 394zM434 1403h-2q-54 0 -92.5 40.5t-38.5 98.5q0 57 39 98t94 41t94 -41t39 -98q0 -58 -38.5 -98.5t-94.5 -40.5zM819 1403h-2q-54 0 -92.5 40.5t-38.5 98.5
q0 57 39 98t94 41t94 -41t39 -98q0 -58 -38.5 -98.5t-94.5 -40.5z" />
    <glyph glyph-name="multiply" unicode="&#xd7;" horiz-adv-x="1228" 
d="M467 518l-342 342l147 148l342 -342l342 342l148 -148l-344 -342l344 -342l-148 -147l-342 344l-342 -344l-147 147z" />
    <glyph glyph-name="Oslash" unicode="&#xd8;" horiz-adv-x="1251" 
d="M483 449l254 559q-45 217 -139 217q-127 0 -127 -394q0 -177 12 -382zM766 834l-254 -560q20 -101 57 -159t82 -58q127 0 127 394q0 175 -12 383zM334 55l-131 -252q-9 -18 -16 -23t-21 -5h-64q-24 0 -24 12q0 5 24 53l148 285q-95 92 -150 239t-55 306q0 128 43.5 245.5
t119 206t185.5 141t236 52.5q150 0 286 -88l132 252q9 18 15.5 23t20.5 5h62q26 0 26 -12q0 -5 -24 -53l-148 -285q96 -95 150.5 -241t54.5 -304q0 -172 -73 -319t-208 -236.5t-302 -89.5q-157 0 -287 88z" />
    <glyph glyph-name="Ugrave" unicode="&#xd9;" horiz-adv-x="1138" 
d="M498 1130v-831q0 -115 41 -172q50 -70 157 -70q137 0 191 78q41 58 41 166v809q0 49 -19 68t-57 28q-2 0 -13.5 2.5t-14.5 3.5t-12 4.5t-12 7t-6 10.5t-3 15q0 41 40 41q21 0 65 -4t65 -4q23 0 69 4t62 4q41 0 41 -41q0 -7 -2 -12.5t-7 -10t-8 -8t-11.5 -6.5t-11.5 -4.5
t-13 -4.5t-11 -3q-32 -11 -41.5 -25.5t-9.5 -60.5v-784q0 -200 -100 -281q-100 -82 -336 -82q-191 0 -310 66q-151 84 -151 268v829q0 64 -53 76q-3 1 -16.5 3t-18.5 4t-13.5 6.5t-12 11.5t-3.5 18q0 41 64 41q50 0 141 -3.5t121 -4.5q39 0 115.5 4t115.5 4q13 0 20 -0.5
t18.5 -2.5t17 -6t10 -12t4.5 -20q0 -21 -16.5 -30t-63.5 -19q-32 -7 -42.5 -24.5t-10.5 -45.5zM762 1395v-2q0 -11 -7.5 -19t-19.5 -8q-21 0 -108 53l-267 158q-71 44 -71 117q0 40 29.5 66t66.5 26q49 0 81.5 -21t76.5 -75l186 -234q33 -42 33 -61z" />
    <glyph glyph-name="Uacute" unicode="&#xda;" horiz-adv-x="1138" 
d="M498 1130v-831q0 -115 41 -172q50 -70 157 -70q137 0 191 78q41 58 41 166v809q0 49 -19 68t-57 28q-2 0 -13.5 2.5t-14.5 3.5t-12 4.5t-12 7t-6 10.5t-3 15q0 41 40 41q21 0 65 -4t65 -4q23 0 69 4t62 4q41 0 41 -41q0 -7 -2 -12.5t-7 -10t-8 -8t-11.5 -6.5t-11.5 -4.5
t-13 -4.5t-11 -3q-32 -11 -41.5 -25.5t-9.5 -60.5v-784q0 -200 -100 -281q-100 -82 -336 -82q-191 0 -310 66q-151 84 -151 268v829q0 64 -53 76q-3 1 -16.5 3t-18.5 4t-13.5 6.5t-12 11.5t-3.5 18q0 41 64 41q50 0 141 -3.5t121 -4.5q39 0 115.5 4t115.5 4q13 0 20 -0.5
t18.5 -2.5t17 -6t10 -12t4.5 -20q0 -21 -16.5 -30t-63.5 -19q-32 -7 -42.5 -24.5t-10.5 -45.5zM516 1366h-2q-10 0 -17.5 8.5t-7.5 20.5q0 19 33 61l187 234q43 55 74.5 75.5t80.5 20.5q40 0 69.5 -26.5t29.5 -63.5q0 -75 -72 -119l-266 -158q-87 -53 -109 -53z" />
    <glyph glyph-name="Ucircumflex" unicode="&#xdb;" horiz-adv-x="1138" 
d="M498 1130v-831q0 -115 41 -172q50 -70 157 -70q137 0 191 78q41 58 41 166v809q0 49 -19 68t-57 28q-2 0 -13.5 2.5t-14.5 3.5t-12 4.5t-12 7t-6 10.5t-3 15q0 41 40 41q21 0 65 -4t65 -4q23 0 69 4t62 4q41 0 41 -41q0 -7 -2 -12.5t-7 -10t-8 -8t-11.5 -6.5t-11.5 -4.5
t-13 -4.5t-11 -3q-32 -11 -41.5 -25.5t-9.5 -60.5v-784q0 -200 -100 -281q-100 -82 -336 -82q-191 0 -310 66q-151 84 -151 268v829q0 64 -53 76q-3 1 -16.5 3t-18.5 4t-13.5 6.5t-12 11.5t-3.5 18q0 41 64 41q50 0 141 -3.5t121 -4.5q39 0 115.5 4t115.5 4q13 0 20 -0.5
t18.5 -2.5t17 -6t10 -12t4.5 -20q0 -21 -16.5 -30t-63.5 -19q-32 -7 -42.5 -24.5t-10.5 -45.5zM549 1751h102q19 0 30.5 -2t26 -12t27.5 -29l170 -266q27 -44 27 -56q0 -20 -35 -20q-28 0 -78 39l-219 178l-219 -178q-50 -39 -78 -39q-35 0 -35 20q0 12 27 56l170 266
q18 28 36.5 35.5t47.5 7.5z" />
    <glyph glyph-name="Udieresis" unicode="&#xdc;" horiz-adv-x="1138" 
d="M498 1130v-831q0 -115 41 -172q50 -70 157 -70q137 0 191 78q41 58 41 166v809q0 49 -19 68t-57 28q-2 0 -13.5 2.5t-14.5 3.5t-12 4.5t-12 7t-6 10.5t-3 15q0 41 40 41q21 0 65 -4t65 -4q23 0 69 4t62 4q41 0 41 -41q0 -7 -2 -12.5t-7 -10t-8 -8t-11.5 -6.5t-11.5 -4.5
t-13 -4.5t-11 -3q-32 -11 -41.5 -25.5t-9.5 -60.5v-784q0 -200 -100 -281q-100 -82 -336 -82q-191 0 -310 66q-151 84 -151 268v829q0 64 -53 76q-3 1 -16.5 3t-18.5 4t-13.5 6.5t-12 11.5t-3.5 18q0 41 64 41q50 0 141 -3.5t121 -4.5q39 0 115.5 4t115.5 4q13 0 20 -0.5
t18.5 -2.5t17 -6t10 -12t4.5 -20q0 -21 -16.5 -30t-63.5 -19q-32 -7 -42.5 -24.5t-10.5 -45.5zM418 1403h-2q-54 0 -92.5 40.5t-38.5 98.5q0 57 39 98t94 41t94 -41t39 -98q0 -58 -38.5 -98.5t-94.5 -40.5zM803 1403h-2q-54 0 -92.5 40.5t-38.5 98.5q0 57 39 98t94 41
t94 -41t39 -98q0 -58 -38.5 -98.5t-94.5 -40.5z" />
    <glyph glyph-name="Yacute" unicode="&#xdd;" 
d="M324 172v365q0 28 -17 69q-119 300 -213 529q-20 51 -82 67q-4 1 -12 4t-11.5 4t-9.5 3.5t-8.5 5t-6 5.5t-4.5 7.5t-1 9.5q0 24 18 36.5t46 12.5q64 0 130 -4t105 -4q66 0 162 4t125 4q41 0 41 -35q0 -14 -8 -24t-16.5 -14t-24.5 -9q-15 -4 -20.5 -6t-15 -7.5t-13 -13
t-3.5 -18.5q0 -28 72 -219q30 -80 46.5 -123t27.5 -65t16 -26.5t12 -4.5q12 0 20 15.5t46 106.5q15 37 25 60q77 193 77 236q0 21 -9 34.5t-19 18.5t-27 10q-2 1 -10.5 3t-11 3t-9 3t-9 4t-7 5t-6 6.5t-3 8t-1.5 10.5q0 41 59 41q28 0 70.5 -4t60.5 -4q19 0 59.5 4t57.5 4
q43 0 43 -39q0 -13 -3 -21.5t-12.5 -14t-13.5 -7t-20 -6.5q-18 -6 -30.5 -13t-29 -26t-28.5 -47q-41 -101 -77.5 -188t-67 -156t-38.5 -88q-45 -103 -45 -139v-398q0 -38 16 -53.5t46 -23.5q4 -1 12 -2.5t12.5 -2.5t11 -2.5t9.5 -4t7 -6.5t5.5 -9t1.5 -12q0 -23 -12 -31
t-47 -8q-18 0 -88 4t-144 4q-85 0 -169.5 -4t-108.5 -4q-55 0 -55 35q0 12 3.5 20t21 17.5t50.5 17.5q19 5 28 10.5t16.5 25t7.5 54.5zM449 1366h-3q-10 0 -17 8.5t-7 20.5q0 19 33 61l186 234q43 55 75 75.5t81 20.5q40 0 69 -26.5t29 -63.5q0 -75 -72 -119l-266 -158
q-87 -53 -108 -53z" />
    <glyph glyph-name="Thorn" unicode="&#xde;" horiz-adv-x="1138" 
d="M528 250v-98q0 -63 31 -70q9 -2 22.5 -4.5t20.5 -4t17 -4t15 -5.5t10 -7t7 -10t2 -14q0 -15 -5.5 -23.5t-19.5 -12.5t-24.5 -4.5t-32.5 -0.5q-30 0 -97 4t-134 4t-134 -4t-97 -4q-21 0 -30.5 1.5t-17.5 11t-8 28.5q0 22 12 31t56 18q31 7 31 70v993q0 33 -12.5 46
t-35.5 17q-16 3 -23.5 5t-15.5 11.5t-8 24.5q0 18 10 29.5t27 11.5q22 0 111 -4t139 -4q67 0 134 4t97 4q17 0 25 -1t19.5 -4t16.5 -12t5 -24q0 -21 -13.5 -29.5t-58.5 -19.5q-41 -10 -41 -70v-90q0 -14 4.5 -17.5t22.5 -2.5q90 4 129 4q190 0 300 -105t110 -294
q0 -151 -89.5 -260t-234.5 -109q-46 0 -111.5 13.5t-66.5 13.5q-20 4 -31 4q-21 0 -27 -7t-6 -30zM528 874v-423q0 -41 9 -54q13 -20 51 -20q54 0 91.5 66t37.5 194q0 86 -13.5 148.5t-35.5 92.5t-43.5 43t-44.5 13q-30 0 -41 -15t-11 -45z" />
    <glyph glyph-name="germandbls" unicode="&#xdf;" horiz-adv-x="1251" 
d="M479 1118v-1018q0 -67 -7.5 -87.5t-43.5 -20.5q-28 0 -82 4t-82 4q-40 0 -96 -4t-74 -4q-40 0 -53.5 9t-13.5 28q0 22 11.5 31.5t41.5 15.5q36 7 45.5 24.5t9.5 57.5v628q0 20 -12.5 25.5t-37.5 7.5h-5q-17 1 -26.5 3.5t-18 11.5t-8.5 24q0 17 9 30.5t19 20t27 13.5
q52 21 61 59q28 230 149.5 355.5t321.5 125.5q139 0 246 -41t170.5 -125.5t63.5 -201.5q0 -146 -109 -211q-21 -13 -51.5 -26t-45 -21t-14.5 -17q0 -10 22.5 -20t66.5 -30t79 -44q168 -118 168 -358q0 -181 -109.5 -282t-291.5 -101q-124 0 -186 32q-16 8 -24.5 27.5
t-9.5 30.5t-3 39q-2 35 -2 163q0 58 9.5 80.5t35.5 22.5q31 0 51.5 -31.5t31.5 -76t22 -89.5t29.5 -76.5t47.5 -31.5q42 0 67 36t25 105q0 52 -16.5 96.5t-43 77t-58 62t-63.5 58.5t-58.5 60t-43 73t-16.5 91q0 36 10 62.5t21.5 40.5t42.5 45q43 43 57.5 92.5t14.5 120.5
q0 266 -138 266q-64 0 -98.5 -51.5t-34.5 -190.5z" />
    <glyph glyph-name="agrave" unicode="&#xe0;" 
d="M551 639v156q0 39 -15 60.5t-42 21.5q-53 0 -91 -111q-47 -137 -157 -191q-43 -22 -88 -22q-54 0 -77.5 21t-23.5 73q0 121 140 216t344 95q175 0 254 -40q100 -50 100 -175v-518q0 -49 41 -49q30 0 47 14q4 4 9.5 10t9.5 9.5t8 3.5q18 0 18 -37q0 -67 -73 -138t-171 -71
q-36 0 -64.5 9t-51.5 29.5t-31.5 30.5t-26.5 34q-21 28 -32 28q-7 0 -21 -8t-42.5 -27t-45.5 -30q-106 -66 -197 -66q-95 0 -155 57t-60 152q0 198 279 324q4 2 127 51q48 19 68 37t20 51zM401 238v-2q0 -97 70 -97q46 0 66 33q14 20 14 57v242q0 25 -14 25t-29 -15
q-32 -22 -70 -90q-37 -80 -37 -153zM674 1079v-2q0 -11 -7.5 -18.5t-19.5 -7.5q-21 0 -108 53l-267 158q-71 44 -71 116q0 40 29.5 66t66.5 26q49 0 81.5 -21t76.5 -75l186 -233q33 -42 33 -62z" />
    <glyph glyph-name="aacute" unicode="&#xe1;" 
d="M551 639v156q0 39 -15 60.5t-42 21.5q-53 0 -91 -111q-47 -137 -157 -191q-43 -22 -88 -22q-54 0 -77.5 21t-23.5 73q0 121 140 216t344 95q175 0 254 -40q100 -50 100 -175v-518q0 -49 41 -49q30 0 47 14q4 4 9.5 10t9.5 9.5t8 3.5q18 0 18 -37q0 -67 -73 -138t-171 -71
q-36 0 -64.5 9t-51.5 29.5t-31.5 30.5t-26.5 34q-21 28 -32 28q-7 0 -21 -8t-42.5 -27t-45.5 -30q-106 -66 -197 -66q-95 0 -155 57t-60 152q0 198 279 324q4 2 127 51q48 19 68 37t20 51zM401 238v-2q0 -97 70 -97q46 0 66 33q14 20 14 57v242q0 25 -14 25t-29 -15
q-32 -22 -70 -90q-37 -80 -37 -153zM377 1051h-2q-11 0 -18 8t-7 20q0 20 33 62l186 233q43 55 75 75.5t81 20.5q40 0 69 -26.5t29 -63.5q0 -75 -71 -118l-267 -158q-87 -53 -108 -53z" />
    <glyph glyph-name="acircumflex" unicode="&#xe2;" 
d="M551 639v156q0 39 -15 60.5t-42 21.5q-53 0 -91 -111q-47 -137 -157 -191q-43 -22 -88 -22q-54 0 -77.5 21t-23.5 73q0 121 140 216t344 95q175 0 254 -40q100 -50 100 -175v-518q0 -49 41 -49q30 0 47 14q4 4 9.5 10t9.5 9.5t8 3.5q18 0 18 -37q0 -67 -73 -138t-171 -71
q-36 0 -64.5 9t-51.5 29.5t-31.5 30.5t-26.5 34q-21 28 -32 28q-7 0 -21 -8t-42.5 -27t-45.5 -30q-106 -66 -197 -66q-95 0 -155 57t-60 152q0 198 279 324q4 2 127 51q48 19 68 37t20 51zM401 238v-2q0 -97 70 -97q46 0 66 33q14 20 14 57v242q0 25 -14 25t-29 -15
q-32 -22 -70 -90q-37 -80 -37 -153zM461 1436h102q19 0 30.5 -2t26 -12t27.5 -29l170 -267q27 -44 27 -55q0 -20 -35 -20q-28 0 -78 39l-219 178l-219 -178q-50 -39 -78 -39q-35 0 -35 20q0 11 27 55l170 267q18 28 36.5 35.5t47.5 7.5z" />
    <glyph glyph-name="atilde" unicode="&#xe3;" 
d="M551 639v156q0 39 -15 60.5t-42 21.5q-53 0 -91 -111q-47 -137 -157 -191q-43 -22 -88 -22q-54 0 -77.5 21t-23.5 73q0 121 140 216t344 95q175 0 254 -40q100 -50 100 -175v-518q0 -49 41 -49q30 0 47 14q4 4 9.5 10t9.5 9.5t8 3.5q18 0 18 -37q0 -67 -73 -138t-171 -71
q-36 0 -64.5 9t-51.5 29.5t-31.5 30.5t-26.5 34q-21 28 -32 28q-7 0 -21 -8t-42.5 -27t-45.5 -30q-106 -66 -197 -66q-95 0 -155 57t-60 152q0 198 279 324q4 2 127 51q48 19 68 37t20 51zM401 238v-2q0 -97 70 -97q46 0 66 33q14 20 14 57v242q0 25 -14 25t-29 -15
q-32 -22 -70 -90q-37 -80 -37 -153zM631 1106h-2q-60 0 -156 53q-37 19 -52 27t-41.5 17t-45.5 9q-34 0 -54.5 -15.5t-27 -33.5t-20.5 -33.5t-37 -15.5q-44 0 -37 62q11 91 74 152t159 61q60 0 158 -54q37 -19 52 -27t41.5 -17t45.5 -9q34 0 54.5 15.5t27.5 33.5t21.5 33.5
t37.5 15.5q20 0 29 -16.5t6 -44.5q-9 -91 -72.5 -152t-160.5 -61z" />
    <glyph glyph-name="adieresis" unicode="&#xe4;" 
d="M551 639v156q0 39 -15 60.5t-42 21.5q-53 0 -91 -111q-47 -137 -157 -191q-43 -22 -88 -22q-54 0 -77.5 21t-23.5 73q0 121 140 216t344 95q175 0 254 -40q100 -50 100 -175v-518q0 -49 41 -49q30 0 47 14q4 4 9.5 10t9.5 9.5t8 3.5q18 0 18 -37q0 -67 -73 -138t-171 -71
q-36 0 -64.5 9t-51.5 29.5t-31.5 30.5t-26.5 34q-21 28 -32 28q-7 0 -21 -8t-42.5 -27t-45.5 -30q-106 -66 -197 -66q-95 0 -155 57t-60 152q0 198 279 324q4 2 127 51q48 19 68 37t20 51zM401 238v-2q0 -97 70 -97q46 0 66 33q14 20 14 57v242q0 25 -14 25t-29 -15
q-32 -22 -70 -90q-37 -80 -37 -153zM319 1087h-2q-54 0 -92.5 41t-38.5 99q0 57 39 98t94 41t94.5 -41t39.5 -98q0 -58 -39 -99t-95 -41zM705 1087h-3q-54 0 -92.5 41t-38.5 99q0 57 39.5 98t94.5 41t94 -41t39 -98q0 -58 -38.5 -99t-94.5 -41z" />
    <glyph glyph-name="aring" unicode="&#xe5;" 
d="M551 639v156q0 39 -15 60.5t-42 21.5q-53 0 -91 -111q-47 -137 -157 -191q-43 -22 -88 -22q-54 0 -77.5 21t-23.5 73q0 121 140 216t344 95q175 0 254 -40q100 -50 100 -175v-518q0 -49 41 -49q30 0 47 14q4 4 9.5 10t9.5 9.5t8 3.5q18 0 18 -37q0 -67 -73 -138t-171 -71
q-36 0 -64.5 9t-51.5 29.5t-31.5 30.5t-26.5 34q-21 28 -32 28q-7 0 -21 -8t-42.5 -27t-45.5 -30q-106 -66 -197 -66q-95 0 -155 57t-60 152q0 198 279 324q4 2 127 51q48 19 68 37t20 51zM401 238v-2q0 -97 70 -97q46 0 66 33q14 20 14 57v242q0 25 -14 25t-29 -15
q-32 -22 -70 -90q-37 -80 -37 -153zM512 1051h-2q-89 0 -154 65t-65 156t65 156t156 65t156 -65t65 -156t-65 -156t-156 -65zM512 1161h2q43 0 76 33.5t33 77.5t-33.5 77t-77.5 33t-77.5 -33t-33.5 -77t33.5 -77.5t77.5 -33.5z" />
    <glyph glyph-name="ae" unicode="&#xe6;" horiz-adv-x="1366" 
d="M1219 500h-310q-25 0 -33 -16t-8 -50q0 -60 20 -126t63.5 -117.5t99.5 -51.5q17 0 32 2.5t28 8t23 10t20.5 14.5t16.5 15.5t15 18.5t12 17.5t11 18.5t10 16q10 14 14 19.5t12.5 11.5t16.5 6q34 0 34 -49q0 -37 -20 -86q-14 -36 -36.5 -67t-59 -61.5t-94.5 -48.5t-130 -18
q-65 0 -115 14.5t-77.5 34.5t-46.5 40.5t-30 35t-19 14.5t-25 -14.5t-44 -34.5t-64 -40.5t-96.5 -35t-129.5 -14.5q-134 0 -203 61t-69 173q0 154 227 276q100 50 201 82q24 8 35.5 19t17.5 32q6 23 6 107q0 90 -9 125t-40 35q-54 0 -92 -111q-45 -129 -147 -184
q-51 -29 -99 -29q-53 0 -76.5 21t-23.5 73q0 76 65 149t168 117.5t207 44.5q147 0 225 -84q104 84 250 84q164 0 270.5 -90.5t106.5 -253.5q0 -69 -21 -91.5t-89 -22.5zM868 653v-2q0 -20 1.5 -32.5t10.5 -24.5t25 -12q54 0 92 55q41 56 41 131q0 47 -12.5 69.5t-46.5 22.5
q-36 0 -62.5 -36t-37.5 -81.5t-11 -89.5zM446 139h3q38 0 56.5 30t18.5 71v157q0 31 -1 50t-3 30t-4.5 15t-7.5 4q-16 0 -41 -25q-35 -35 -60.5 -99.5t-25.5 -142.5q0 -48 13.5 -69t51.5 -21z" />
    <glyph glyph-name="ccedilla" unicode="&#xe7;" horiz-adv-x="796" 
d="M45 428v2q0 116 39 215t105.5 167.5t156.5 107t191 38.5q64 0 125.5 -16.5t97.5 -44.5q25 -19 32.5 -36t10.5 -54q4 -46 4 -86q0 -58 -6 -88q-6 -33 -20.5 -45.5t-43.5 -12.5q-13 0 -24 4.5t-20 16t-15.5 21.5t-13 29t-10 30.5t-10 35t-9.5 33.5q-16 55 -36.5 85
t-53.5 30q-52 0 -93.5 -100t-41.5 -248q0 -188 58.5 -280.5t141.5 -92.5q44 0 71 26t52 71q12 23 18 33t16 20t21 10q19 0 27 -13t8 -28q0 -30 -10 -64.5t-35 -74t-60.5 -71.5t-92 -54t-125.5 -25l-33 -94q14 2 37 2q93 0 151 -42.5t58 -110.5q0 -69 -62 -121t-182 -52
q-36 0 -71.5 6t-69.5 17.5t-55 34t-21 51.5q0 17 1.5 26.5t13 21t34.5 11.5q22 0 37.5 -9.5t25.5 -23.5l20 -28t27.5 -23.5t41.5 -9.5q40 0 67 23.5t27 56.5q0 40 -24.5 66t-65.5 26q-23 0 -56.5 -7t-42.5 -7q-12 0 -20 7.5t-8 16.5q0 20 8 39l49 129q-159 31 -250.5 152.5
t-91.5 300.5z" />
    <glyph glyph-name="egrave" unicode="&#xe8;" horiz-adv-x="909" 
d="M764 500h-289q-34 0 -47.5 -17.5t-13.5 -54.5q0 -57 19 -120.5t64.5 -116t106.5 -52.5q32 0 57.5 9.5t44 28.5t28.5 33t24 38q10 17 15.5 25.5t14.5 16t17 7.5q41 0 41 -49q0 -16 -12 -51t-35 -72q-102 -158 -322 -158q-125 0 -224 66.5t-151.5 173.5t-52.5 233
q0 238 120 378t323 140q167 0 267.5 -95.5t100.5 -258.5q0 -68 -15.5 -86t-80.5 -18zM414 653v-2q0 -69 37 -69q43 0 75 26q44 38 60 101q8 27 8 59q0 40 -16.5 66t-47.5 26q-40 0 -68.5 -41t-38 -85.5t-9.5 -80.5zM616 1079v-2q0 -11 -7 -18.5t-19 -7.5q-22 0 -109 53
l-266 158q-72 45 -72 116q0 40 30 66t67 26q49 0 81 -21t76 -75l187 -233q32 -41 32 -62z" />
    <glyph glyph-name="eacute" unicode="&#xe9;" horiz-adv-x="909" 
d="M764 500h-289q-34 0 -47.5 -17.5t-13.5 -54.5q0 -57 19 -120.5t64.5 -116t106.5 -52.5q32 0 57.5 9.5t44 28.5t28.5 33t24 38q10 17 15.5 25.5t14.5 16t17 7.5q41 0 41 -49q0 -16 -12 -51t-35 -72q-102 -158 -322 -158q-125 0 -224 66.5t-151.5 173.5t-52.5 233
q0 238 120 378t323 140q167 0 267.5 -95.5t100.5 -258.5q0 -68 -15.5 -86t-80.5 -18zM414 653v-2q0 -69 37 -69q43 0 75 26q44 38 60 101q8 27 8 59q0 40 -16.5 66t-47.5 26q-40 0 -68.5 -41t-38 -85.5t-9.5 -80.5zM319 1051h-2q-10 0 -17 8t-7 20q0 20 33 62l186 233
q43 55 75 75.5t81 20.5q40 0 69 -26.5t29 -63.5q0 -74 -72 -118l-266 -158q-87 -53 -109 -53z" />
    <glyph glyph-name="ecircumflex" unicode="&#xea;" horiz-adv-x="909" 
d="M764 500h-289q-34 0 -47.5 -17.5t-13.5 -54.5q0 -57 19 -120.5t64.5 -116t106.5 -52.5q32 0 57.5 9.5t44 28.5t28.5 33t24 38q10 17 15.5 25.5t14.5 16t17 7.5q41 0 41 -49q0 -16 -12 -51t-35 -72q-102 -158 -322 -158q-125 0 -224 66.5t-151.5 173.5t-52.5 233
q0 238 120 378t323 140q167 0 267.5 -95.5t100.5 -258.5q0 -68 -15.5 -86t-80.5 -18zM414 653v-2q0 -69 37 -69q43 0 75 26q44 38 60 101q8 27 8 59q0 40 -16.5 66t-47.5 26q-40 0 -68.5 -41t-38 -85.5t-9.5 -80.5zM403 1436h103q19 0 30.5 -2t26 -12t27.5 -29l170 -267
q26 -43 26 -55q0 -20 -34 -20q-28 0 -78 39l-219 178l-219 -178q-50 -39 -78 -39q-35 0 -35 20q0 11 27 55l169 267q18 28 36.5 35.5t47.5 7.5z" />
    <glyph glyph-name="edieresis" unicode="&#xeb;" horiz-adv-x="909" 
d="M764 500h-289q-34 0 -47.5 -17.5t-13.5 -54.5q0 -57 19 -120.5t64.5 -116t106.5 -52.5q32 0 57.5 9.5t44 28.5t28.5 33t24 38q10 17 15.5 25.5t14.5 16t17 7.5q41 0 41 -49q0 -16 -12 -51t-35 -72q-102 -158 -322 -158q-125 0 -224 66.5t-151.5 173.5t-52.5 233
q0 238 120 378t323 140q167 0 267.5 -95.5t100.5 -258.5q0 -68 -15.5 -86t-80.5 -18zM414 653v-2q0 -69 37 -69q43 0 75 26q44 38 60 101q8 27 8 59q0 40 -16.5 66t-47.5 26q-40 0 -68.5 -41t-38 -85.5t-9.5 -80.5zM262 1087h-2q-54 0 -92.5 41t-38.5 99q0 57 39 98t94 41
t94 -41t39 -98q0 -58 -38.5 -99t-94.5 -41zM647 1087h-2q-54 0 -92.5 41t-38.5 99q0 57 39 98t94 41t94 -41t39 -98q0 -58 -38.5 -99t-94.5 -41z" />
    <glyph glyph-name="igrave" unicode="&#xec;" horiz-adv-x="569" 
d="M113 172v494q0 52 -10 71t-35 25q-40 9 -52 17t-12 26q0 23 16 31t70 20q57 14 285 84q59 18 63 18q13 0 16 -12.5t3 -48.5v-115v-610q0 -40 5 -57.5t14.5 -24.5t37.5 -16q26 -8 34.5 -16.5t8.5 -30.5q0 -35 -47 -35q-46 0 -122.5 4t-96.5 4q-25 0 -104 -4t-124 -4
q-51 0 -51 35q0 22 8 30.5t33 16.5q41 12 50.5 26.5t9.5 71.5zM446 1079v-2q0 -11 -7 -18.5t-19 -7.5q-22 0 -109 53l-266 158q-72 45 -72 116q0 40 30 66t67 26q49 0 81 -21t76 -75l187 -233q32 -41 32 -62z" />
    <glyph glyph-name="iacute" unicode="&#xed;" horiz-adv-x="569" 
d="M113 172v494q0 52 -10 71t-35 25q-40 9 -52 17t-12 26q0 23 16 31t70 20q57 14 285 84q59 18 63 18q13 0 16 -12.5t3 -48.5v-115v-610q0 -40 5 -57.5t14.5 -24.5t37.5 -16q26 -8 34.5 -16.5t8.5 -30.5q0 -35 -47 -35q-46 0 -122.5 4t-96.5 4q-25 0 -104 -4t-124 -4
q-51 0 -51 35q0 22 8 30.5t33 16.5q41 12 50.5 26.5t9.5 71.5zM150 1051h-3q-10 0 -17 8t-7 20q0 20 33 62l186 233q43 55 75 75.5t81 20.5q40 0 69 -26.5t29 -63.5q0 -74 -72 -118l-266 -158q-87 -53 -108 -53z" />
    <glyph glyph-name="icircumflex" unicode="&#xee;" horiz-adv-x="569" 
d="M113 172v494q0 52 -10 71t-35 25q-40 9 -52 17t-12 26q0 23 16 31t70 20q57 14 285 84q59 18 63 18q13 0 16 -12.5t3 -48.5v-115v-610q0 -40 5 -57.5t14.5 -24.5t37.5 -16q26 -8 34.5 -16.5t8.5 -30.5q0 -35 -47 -35q-46 0 -122.5 4t-96.5 4q-25 0 -104 -4t-124 -4
q-51 0 -51 35q0 22 8 30.5t33 16.5q41 12 50.5 26.5t9.5 71.5zM233 1436h103q19 0 30.5 -2t26 -12t27.5 -29l170 -267q26 -43 26 -55q0 -20 -34 -20q-28 0 -78 39l-219 178l-219 -178q-50 -39 -78 -39q-35 0 -35 20q0 11 27 55l170 267q18 28 36.5 35.5t46.5 7.5z" />
    <glyph glyph-name="idieresis" unicode="&#xef;" horiz-adv-x="569" 
d="M113 172v494q0 52 -10 71t-35 25q-40 9 -52 17t-12 26q0 23 16 31t70 20q57 14 285 84q59 18 63 18q13 0 16 -12.5t3 -48.5v-115v-610q0 -40 5 -57.5t14.5 -24.5t37.5 -16q26 -8 34.5 -16.5t8.5 -30.5q0 -35 -47 -35q-46 0 -122.5 4t-96.5 4q-25 0 -104 -4t-124 -4
q-51 0 -51 35q0 22 8 30.5t33 16.5q41 12 50.5 26.5t9.5 71.5zM92 1087h-2q-54 0 -92.5 41t-38.5 99q0 57 39 98t94 41t94 -41t39 -98q0 -58 -38.5 -99t-94.5 -41zM477 1087h-2q-54 0 -92.5 41t-38.5 99q0 57 39 98t94 41t94 -41t39 -98q0 -58 -38.5 -99t-94.5 -41z" />
    <glyph glyph-name="eth" unicode="&#xf0;" 
d="M475 1174l-205 -115q-20 -10 -24 -10q-10 0 -17 14l-16 31q-6 12 -6 20q0 9 20 21l199 110q-21 33 -58 72t-75 65q-10 7 -23 15l-19.5 12t-13.5 9.5t-9.5 10t-2.5 9.5q0 10 9 17t20 7q129 0 305 -141l225 127q20 10 25 10q9 0 16 -14l17 -31q6 -12 6 -20t-21 -21
l-196 -110q96 -91 169.5 -203t123.5 -263t51 -309q1 -245 -127.5 -382.5t-333.5 -137.5q-206 0 -335.5 138.5t-129.5 357.5t129 357t336 138q35 0 49 -4l4 7q-29 112 -92 213zM530 49h2q44 0 61 83t17 241q0 233 -31.5 368.5t-84.5 135.5q-46 0 -63 -82.5t-17 -241.5
q0 -233 31.5 -368.5t84.5 -135.5z" />
    <glyph glyph-name="ntilde" unicode="&#xf1;" horiz-adv-x="1138" 
d="M123 156v510q0 52 -10 71t-35 25q-40 9 -52 17t-12 26q0 9 2 15.5t8.5 11.5t13.5 8t21 6.5t27.5 6t37.5 8t46 11.5q126 32 213 66q65 20 66 20q18 0 18 -65q0 -56 2 -72q0 -30 8 -30t19 7t20.5 16.5t26.5 26t30 27.5q90 78 189 78q123 0 190 -74q64 -75 64 -210v-541
q0 -27 12 -37.5t36.5 -15t31.5 -7.5q14 -7 14 -28q0 -24 -14.5 -32.5t-57.5 -8.5q-20 0 -94 4t-104 4q-39 0 -102.5 -4t-82.5 -4q-45 0 -45 41q0 8 8 20q3 4 28.5 19.5t25.5 31.5v514q0 52 -15 82q-23 50 -67 50q-46 0 -86 -29q-37 -29 -37 -72v-536q0 -13 8 -22.5
t22.5 -18.5t20.5 -15q8 -12 8 -22q0 -26 -10.5 -34.5t-30.5 -8.5q-5 0 -59 4t-117 4q-95 0 -158.5 -4t-78.5 -4q-18 0 -32.5 10.5t-14.5 26.5q0 37 47 45q31 4 41 23t10 59zM688 1106h-2q-60 0 -156 53q-37 19 -52 27t-41.5 17t-45.5 9q-34 0 -54.5 -15.5t-27 -33.5
t-20.5 -33.5t-37 -15.5q-44 0 -37 62q11 91 74 152t160 61q59 0 157 -54q37 -19 52 -27t41.5 -17t45.5 -9q34 0 54.5 15.5t27.5 33.5t22 33.5t38 15.5q20 0 29 -16.5t6 -44.5q-9 -91 -73 -152t-161 -61z" />
    <glyph glyph-name="ograve" unicode="&#xf2;" 
d="M512 -33h-2q-204 0 -332.5 138.5t-128.5 357.5t129 357t334 138t334 -138t129 -357t-129 -357.5t-334 -138.5zM530 49h2q44 0 61 83t17 241q0 233 -31.5 368.5t-84.5 135.5q-46 0 -63 -82.5t-17 -241.5q0 -233 31.5 -368.5t84.5 -135.5zM674 1079v-2q0 -11 -7.5 -18.5
t-19.5 -7.5q-21 0 -108 53l-267 158q-71 44 -71 116q0 40 29.5 66t66.5 26q49 0 81.5 -21t76.5 -75l186 -233q33 -42 33 -62z" />
    <glyph glyph-name="oacute" unicode="&#xf3;" 
d="M512 -33h-2q-204 0 -332.5 138.5t-128.5 357.5t129 357t334 138t334 -138t129 -357t-129 -357.5t-334 -138.5zM530 49h2q44 0 61 83t17 241q0 233 -31.5 368.5t-84.5 135.5q-46 0 -63 -82.5t-17 -241.5q0 -233 31.5 -368.5t84.5 -135.5zM377 1051h-2q-11 0 -18 8t-7 20
q0 20 33 62l186 233q43 55 75 75.5t81 20.5q40 0 69 -26.5t29 -63.5q0 -75 -71 -118l-267 -158q-87 -53 -108 -53z" />
    <glyph glyph-name="ocircumflex" unicode="&#xf4;" 
d="M512 -33h-2q-204 0 -332.5 138.5t-128.5 357.5t129 357t334 138t334 -138t129 -357t-129 -357.5t-334 -138.5zM530 49h2q44 0 61 83t17 241q0 233 -31.5 368.5t-84.5 135.5q-46 0 -63 -82.5t-17 -241.5q0 -233 31.5 -368.5t84.5 -135.5zM461 1436h102q19 0 30.5 -2
t26 -12t27.5 -29l170 -267q27 -44 27 -55q0 -20 -35 -20q-28 0 -78 39l-219 178l-219 -178q-50 -39 -78 -39q-35 0 -35 20q0 11 27 55l170 267q18 28 36.5 35.5t47.5 7.5z" />
    <glyph glyph-name="otilde" unicode="&#xf5;" 
d="M512 -33h-2q-204 0 -332.5 138.5t-128.5 357.5t129 357t334 138t334 -138t129 -357t-129 -357.5t-334 -138.5zM530 49h2q44 0 61 83t17 241q0 233 -31.5 368.5t-84.5 135.5q-46 0 -63 -82.5t-17 -241.5q0 -233 31.5 -368.5t84.5 -135.5zM631 1106h-2q-60 0 -156 53
q-37 19 -52 27t-41.5 17t-45.5 9q-34 0 -54.5 -15.5t-27 -33.5t-20.5 -33.5t-37 -15.5q-44 0 -37 62q11 91 74 152t159 61q60 0 158 -54q37 -19 52 -27t41.5 -17t45.5 -9q34 0 54.5 15.5t27.5 33.5t21.5 33.5t37.5 15.5q20 0 29 -16.5t6 -44.5q-9 -91 -72.5 -152t-160.5 -61
z" />
    <glyph glyph-name="odieresis" unicode="&#xf6;" 
d="M512 -33h-2q-204 0 -332.5 138.5t-128.5 357.5t129 357t334 138t334 -138t129 -357t-129 -357.5t-334 -138.5zM530 49h2q44 0 61 83t17 241q0 233 -31.5 368.5t-84.5 135.5q-46 0 -63 -82.5t-17 -241.5q0 -233 31.5 -368.5t84.5 -135.5zM319 1087h-2q-54 0 -92.5 41
t-38.5 99q0 57 39 98t94 41t94.5 -41t39.5 -98q0 -58 -39 -99t-95 -41zM705 1087h-3q-54 0 -92.5 41t-38.5 99q0 57 39.5 98t94.5 41t94 -41t39 -98q0 -58 -38.5 -99t-94.5 -41z" />
    <glyph glyph-name="divide" unicode="&#xf7;" horiz-adv-x="1228" 
d="M442 942v2q0 70 51.5 121t122.5 51q69 0 120.5 -52t51.5 -122q0 -65 -51.5 -118.5t-118.5 -53.5q-72 0 -124 51t-52 121zM1130 412h-1032v213h1032v-213zM442 94v2q0 70 51.5 120t122.5 50q69 0 120.5 -51t51.5 -121q0 -66 -51.5 -120t-118.5 -54q-72 0 -124 51.5
t-52 122.5z" />
    <glyph glyph-name="oslash" unicode="&#xf8;" 
d="M281 27l-111 -189q-14 -20 -33 -20h-41q-24 0 -24 10q0 13 20 43l119 201q-76 66 -119 167t-43 224q0 219 129 357t334 138q127 0 231 -59l111 188q6 9 9 12.5t9 6t15 2.5h41q24 0 24 -10q0 -4 -22 -43l-117 -201q75 -65 118.5 -166.5t43.5 -224.5q0 -219 -129 -357.5
t-334 -138.5q-123 0 -231 60zM418 362l168 328q-12 87 -36 137t-56 50q-46 0 -63 -82.5t-17 -241.5q0 -47 4 -191zM606 563l-168 -327q12 -87 36 -137t56 -50q46 0 63 82.5t17 241.5q0 54 -4 190z" />
    <glyph glyph-name="ugrave" unicode="&#xf9;" horiz-adv-x="1138" 
d="M467 879v-625q0 -53 20 -71.5t72 -18.5q53 0 90 43q23 26 23 61v486q0 56 -7.5 74t-31.5 26q-14 4 -20.5 7t-13.5 12.5t-7 23.5q0 22 17.5 29.5t49.5 7.5q11 0 61 -4t81 -4q22 0 76 4t90 4q49 0 49 -45v-76v-592q0 -29 20.5 -48.5t48.5 -22.5q25 -3 25 -33
q-1 -7 -2 -11.5t-3 -8t-6.5 -6.5t-9.5 -5t-15.5 -5l-21 -6t-29 -8.5t-36.5 -11.5q-202 -62 -258 -80q-31 -8 -39 -8q-18 0 -18 41v96q0 27 -13 27q-12 0 -30 -18q-1 -1 -29 -28t-42.5 -38t-44.5 -30.5t-62.5 -28t-69.5 -8.5q-110 0 -176 57q-82 67 -82 180v580q0 19 -9 31
t-19 16t-25 6q-41 7 -41 45q0 15 8 27t22 12q29 0 91.5 -4t93.5 -4q24 0 100 4t88 4q35 0 35 -55zM725 1079v-2q0 -11 -7.5 -18.5t-19.5 -7.5q-21 0 -108 53l-266 158q-72 45 -72 116q0 40 29.5 66t66.5 26q49 0 81.5 -21t76.5 -75l186 -233q33 -42 33 -62z" />
    <glyph glyph-name="uacute" unicode="&#xfa;" horiz-adv-x="1138" 
d="M467 879v-625q0 -53 20 -71.5t72 -18.5q53 0 90 43q23 26 23 61v486q0 56 -7.5 74t-31.5 26q-14 4 -20.5 7t-13.5 12.5t-7 23.5q0 22 17.5 29.5t49.5 7.5q11 0 61 -4t81 -4q22 0 76 4t90 4q49 0 49 -45v-76v-592q0 -29 20.5 -48.5t48.5 -22.5q25 -3 25 -33
q-1 -7 -2 -11.5t-3 -8t-6.5 -6.5t-9.5 -5t-15.5 -5l-21 -6t-29 -8.5t-36.5 -11.5q-202 -62 -258 -80q-31 -8 -39 -8q-18 0 -18 41v96q0 27 -13 27q-12 0 -30 -18q-1 -1 -29 -28t-42.5 -38t-44.5 -30.5t-62.5 -28t-69.5 -8.5q-110 0 -176 57q-82 67 -82 180v580q0 19 -9 31
t-19 16t-25 6q-41 7 -41 45q0 15 8 27t22 12q29 0 91.5 -4t93.5 -4q24 0 100 4t88 4q35 0 35 -55zM434 1051h-2q-10 0 -17 8t-7 20q0 21 32 62l187 233q43 55 74.5 75.5t80.5 20.5q40 0 69.5 -26.5t29.5 -63.5q0 -74 -72 -118l-266 -158q-87 -53 -109 -53z" />
    <glyph glyph-name="ucircumflex" unicode="&#xfb;" horiz-adv-x="1138" 
d="M467 879v-625q0 -53 20 -71.5t72 -18.5q53 0 90 43q23 26 23 61v486q0 56 -7.5 74t-31.5 26q-14 4 -20.5 7t-13.5 12.5t-7 23.5q0 22 17.5 29.5t49.5 7.5q11 0 61 -4t81 -4q22 0 76 4t90 4q49 0 49 -45v-76v-592q0 -29 20.5 -48.5t48.5 -22.5q25 -3 25 -33
q-1 -7 -2 -11.5t-3 -8t-6.5 -6.5t-9.5 -5t-15.5 -5l-21 -6t-29 -8.5t-36.5 -11.5q-202 -62 -258 -80q-31 -8 -39 -8q-18 0 -18 41v96q0 27 -13 27q-12 0 -30 -18q-1 -1 -29 -28t-42.5 -38t-44.5 -30.5t-62.5 -28t-69.5 -8.5q-110 0 -176 57q-82 67 -82 180v580q0 19 -9 31
t-19 16t-25 6q-41 7 -41 45q0 15 8 27t22 12q29 0 91.5 -4t93.5 -4q24 0 100 4t88 4q35 0 35 -55zM512 1436h102q19 0 30.5 -2t26 -12t27.5 -29l170 -267q27 -44 27 -55q0 -20 -35 -20q-28 0 -78 39l-219 178l-219 -178q-50 -39 -78 -39q-35 0 -35 20q0 11 27 55l170 267
q18 28 36.5 35.5t47.5 7.5z" />
    <glyph glyph-name="udieresis" unicode="&#xfc;" horiz-adv-x="1138" 
d="M467 879v-625q0 -53 20 -71.5t72 -18.5q53 0 90 43q23 26 23 61v486q0 56 -7.5 74t-31.5 26q-14 4 -20.5 7t-13.5 12.5t-7 23.5q0 22 17.5 29.5t49.5 7.5q11 0 61 -4t81 -4q22 0 76 4t90 4q49 0 49 -45v-76v-592q0 -29 20.5 -48.5t48.5 -22.5q25 -3 25 -33
q-1 -7 -2 -11.5t-3 -8t-6.5 -6.5t-9.5 -5t-15.5 -5l-21 -6t-29 -8.5t-36.5 -11.5q-202 -62 -258 -80q-31 -8 -39 -8q-18 0 -18 41v96q0 27 -13 27q-12 0 -30 -18q-1 -1 -29 -28t-42.5 -38t-44.5 -30.5t-62.5 -28t-69.5 -8.5q-110 0 -176 57q-82 67 -82 180v580q0 19 -9 31
t-19 16t-25 6q-41 7 -41 45q0 15 8 27t22 12q29 0 91.5 -4t93.5 -4q24 0 100 4t88 4q35 0 35 -55zM371 1087h-2q-54 0 -92.5 41t-38.5 99q0 57 39 98t94 41t94 -41t39 -98q0 -58 -38.5 -99t-94.5 -41zM756 1087h-2q-54 0 -92.5 41t-38.5 99q0 57 39 98t94 41t94 -41t39 -98
q0 -58 -38.5 -99t-94.5 -41z" />
    <glyph glyph-name="yacute" unicode="&#xfd;" horiz-adv-x="909" 
d="M125 -307v2q0 64 29 106.5t92 42.5q26 0 65 -4t54 -4q41 0 53 12q10 10 10 39q0 42 -49 166q-20 55 -57 148.5t-103 262t-127 324.5q-17 48 -61 66q-14 5 -21 8.5t-12.5 11.5t-5.5 21q0 39 55 39q26 0 109 -4t129 -4q56 0 118.5 4t77.5 4q23 0 33 -8.5t10 -28.5
q0 -15 -28 -31q-29 -17 -29 -51q0 -39 27 -113q12 -34 38 -117.5t43 -128t27 -44.5q6 0 14 12.5t17 36t17.5 48.5t18 57.5t15.5 55t13.5 50t9.5 33.5q20 76 20 96q0 17 -7 29t-14 16.5t-20 9.5q-16 6 -22.5 8.5t-13.5 10.5t-7 20q0 16 12 27.5t25 11.5q5 0 47.5 -4t75.5 -4
q14 0 44.5 4t47.5 4q43 0 43 -39q0 -7 -4 -12t-8 -7t-14.5 -6.5t-16.5 -7.5q-50 -26 -76 -98q-79 -224 -163.5 -458.5t-100.5 -278.5q-51 -146 -76 -277q-10 -49 -17 -77.5t-18 -55.5t-23 -40t-32 -23.5t-45 -13.5t-63 -3q-89 0 -122.5 38.5t-33.5 117.5zM381 1051h-2
q-11 0 -18 8t-7 20q0 20 33 62l186 233q43 55 75 75.5t81 20.5q40 0 69 -26.5t29 -63.5q0 -75 -71 -118l-267 -158q-87 -53 -108 -53z" />
    <glyph glyph-name="thorn" unicode="&#xfe;" 
d="M457 -14v-277q0 -82 67 -98q48 -12 59 -19.5t11 -27.5q0 -19 -17 -27t-65 -8q-45 0 -123.5 4t-103.5 4t-104 -4t-124 -4q-34 0 -47.5 8.5t-13.5 26.5q0 23 8.5 32t32.5 15q53 14 64.5 27.5t11.5 70.5v1419q0 53 -10 72t-35 25q-40 9 -52 17t-12 26q0 22 15.5 31.5
t58.5 17.5q100 17 276 78q15 5 33 12t28.5 10.5t14.5 3.5q18 0 22.5 -20t4.5 -66v-465q0 -10 0.5 -13.5t2.5 -6t7 -2.5q6 0 14.5 7t23 22.5t25.5 25.5q59 55 140 55q94 0 167 -70t109.5 -180t36.5 -237q0 -78 -21.5 -163t-61.5 -163t-108 -128t-151 -50q-14 0 -31.5 4
t-28 7.5t-32 11.5t-25.5 10q-40 16 -45 16q-13 0 -17.5 -6t-4.5 -24zM618 420v2q0 93 -11 160t-28.5 100.5t-35.5 48t-37 14.5q-26 0 -37 -14q-12 -12 -12 -41v-549q0 -25 12 -37q11 -14 35 -14q32 0 56.5 30.5t41 106.5t16.5 193z" />
    <glyph glyph-name="ydieresis" unicode="&#xff;" horiz-adv-x="909" 
d="M125 -307v2q0 64 29 106.5t92 42.5q26 0 65 -4t54 -4q41 0 53 12q10 10 10 39q0 42 -49 166q-20 55 -57 148.5t-103 262t-127 324.5q-17 48 -61 66q-14 5 -21 8.5t-12.5 11.5t-5.5 21q0 39 55 39q26 0 109 -4t129 -4q56 0 118.5 4t77.5 4q23 0 33 -8.5t10 -28.5
q0 -15 -28 -31q-29 -17 -29 -51q0 -39 27 -113q12 -34 38 -117.5t43 -128t27 -44.5q6 0 14 12.5t17 36t17.5 48.5t18 57.5t15.5 55t13.5 50t9.5 33.5q20 76 20 96q0 17 -7 29t-14 16.5t-20 9.5q-16 6 -22.5 8.5t-13.5 10.5t-7 20q0 16 12 27.5t25 11.5q5 0 47.5 -4t75.5 -4
q14 0 44.5 4t47.5 4q43 0 43 -39q0 -7 -4 -12t-8 -7t-14.5 -6.5t-16.5 -7.5q-50 -26 -76 -98q-79 -224 -163.5 -458.5t-100.5 -278.5q-51 -146 -76 -277q-10 -49 -17 -77.5t-18 -55.5t-23 -40t-32 -23.5t-45 -13.5t-63 -3q-89 0 -122.5 38.5t-33.5 117.5zM313 1087h-2
q-54 0 -92.5 41t-38.5 99q0 57 39 98t94 41t94 -41t39 -98q0 -58 -38.5 -99t-94.5 -41zM698 1087h-2q-54 0 -92.5 41t-38.5 99q0 57 39 98t94 41t94 -41t39 -98q0 -58 -38.5 -99t-94.5 -41z" />
    <glyph glyph-name="dotlessi" unicode="&#x131;" horiz-adv-x="569" 
d="M113 172v494q0 52 -10 71t-35 25q-40 9 -52 17t-12 26q0 23 16 31t70 20q57 14 285 84q59 18 63 18q13 0 16 -12.5t3 -48.5v-115v-610q0 -40 5 -57.5t14.5 -24.5t37.5 -16q26 -8 34.5 -16.5t8.5 -30.5q0 -35 -47 -35q-46 0 -122.5 4t-96.5 4q-25 0 -104 -4t-124 -4
q-51 0 -51 35q0 22 8 30.5t33 16.5q41 12 50.5 26.5t9.5 71.5z" />
    <glyph glyph-name="Lslash" unicode="&#x141;" horiz-adv-x="909" 
d="M528 723v-559q0 -54 10 -68t58 -14q30 0 55 13.5t41 32.5t30 50t21 54t16.5 58.5t14.5 49.5q18 58 29 73t31 15q22 0 30 -18.5t8 -83.5q0 -231 -2 -277q-1 -38 -8 -47.5t-24 -9.5q-135 0 -385 8q-89 0 -204 -4t-151 -4q-37 0 -53 9.5t-16 31.5q0 18 15 28.5t48 20.5
q33 9 46.5 26t13.5 52v317l-103 -67q-38 -23 -43 -23q-10 0 -10 25v45q0 12 5.5 19.5t23.5 19.5l127 84v550q0 34 -9 49.5t-28 20.5q-46 12 -60 21t-14 28q0 41 61 41q39 0 116 -4t116 -4q41 0 123 4t123 4q21 0 31 -1.5t18 -8t8 -20.5q0 -12 -5.5 -20.5t-10.5 -11
t-17.5 -6.5t-15.5 -5q-38 -17 -49 -30.5t-11 -56.5v-305l193 125q38 23 43 23q10 0 10 -25v-45q0 -12 -5.5 -19.5t-23.5 -19.5z" />
    <glyph glyph-name="lslash" unicode="&#x142;" horiz-adv-x="569" 
d="M457 840v-684q0 -39 10.5 -57t46.5 -25q49 -9 49 -45q0 -37 -67 -37q-9 0 -28.5 2t-65 4t-117.5 2t-117.5 -2t-65 -4t-28.5 -2q-68 0 -68 37q0 36 49 45q36 7 47 25t11 57v424l-121 -91q-16 -12 -25 -12q-8 0 -8 17v49q0 19 21 35l133 102v448q0 53 -10 72t-35 25
q-40 9 -52 17t-12 26q0 22 15.5 31.5t58.5 17.5q100 17 276 78q15 5 30 10.5t22.5 8.5t14 5t9.5 2q18 0 22.5 -20t4.5 -66v-397l121 90q16 12 24 12t8 -16v-49q0 -20 -20 -35z" />
    <glyph glyph-name="OE" unicode="&#x152;" horiz-adv-x="1593" 
d="M1128 600v-461q0 -33 18 -45t68 -12q73 0 121 64t78 190q22 92 66 92q24 0 33.5 -15t13.5 -75q2 -27 2 -80v-174q0 -53 -10 -72.5t-43 -19.5q-39 0 -269 4q-234 4 -276 4q-97 0 -203 -16q-113 -17 -133 -17q-111 0 -204.5 41t-156 108t-106 155.5t-63 181.5t-19.5 188
q0 93 21.5 187.5t66.5 182t107 155.5t149.5 108.5t188.5 40.5q38 0 112 -17q74 -16 117 -16q45 0 311 4q270 4 320 4q55 0 55 -45v-342q0 -43 -33 -43q-24 0 -43.5 24.5t-40.5 76.5q-5 13 -23 68t-37.5 93.5t-45.5 57.5q-27 20 -66 20q-76 0 -76 -55v-404q0 -16 10.5 -20
t39.5 -4q55 0 73 94q11 58 19.5 74t32.5 16q19 0 28.5 -13.5t9.5 -51.5q0 -30 -4 -86.5t-4 -77.5q0 -33 4 -98.5t4 -84.5q0 -49 -36 -49t-50 64q-17 72 -35 97.5t-49 25.5q-43 0 -43 -27zM471 641v-2q0 -316 36.5 -449t129.5 -133q70 0 92.5 45t22.5 150v371v407
q0 110 -23 152q-24 43 -92 43q-93 0 -129.5 -133t-36.5 -451z" />
    <glyph glyph-name="oe" unicode="&#x153;" horiz-adv-x="1441" 
d="M1280 500h-283q-25 0 -36 -33q-5 -17 -5 -43q0 -55 18 -117.5t62 -115t103 -52.5q21 0 39 3.5t34 13t25.5 15.5t22.5 22t16.5 21t16 24t12.5 20q24 39 43 39q36 0 36 -45q0 -29 -22 -80q-18 -37 -42.5 -69t-63.5 -65t-97 -52t-127 -19q-125 0 -219 74q-12 8 -35 31
q-17 -17 -35 -29q-102 -76 -237 -76q-200 0 -327.5 139t-127.5 357q0 219 129 357t334 138q126 0 221 -73q15 -9 29 -23q15 15 33 27q90 69 225 69q158 0 263.5 -91t105.5 -253q0 -68 -21.5 -91t-89.5 -23zM532 49h3q44 0 60.5 83t16.5 241q0 233 -31.5 368.5t-84.5 135.5
q-46 0 -63 -82.5t-17 -241.5q0 -233 31.5 -368.5t84.5 -135.5zM956 653v-2q0 -16 0.5 -24.5t3.5 -21t11 -18t20 -5.5q54 0 92 55q41 56 41 131q0 40 -16 66t-47 26q-29 0 -51.5 -23.5t-33 -58.5t-15.5 -67t-5 -58z" />
    <glyph glyph-name="Scaron" unicode="&#x160;" 
d="M950 406v-3q0 -87 -29 -159t-78.5 -122t-116.5 -84.5t-142.5 -50.5t-157.5 -16q-51 0 -114.5 5.5t-136 26.5t-85.5 54q-16 41 -16 199q0 143 10 168q8 27 39 27q36 0 59 -41q14 -25 30.5 -74t32 -93t37.5 -87t58.5 -69t85.5 -26q65 0 106 46.5t41 107.5q0 46 -15.5 87.5
t-48 79t-64 65.5t-80.5 65q-32 24 -78 66q-93 85 -143 167.5t-50 198.5q0 89 41 161t107.5 116.5t147 68t163.5 23.5q148 0 268 -33q33 -9 40.5 -19t10.5 -53q2 -27 2 -145q0 -31 -0.5 -45.5t-3 -34t-8.5 -27.5t-16.5 -14t-26.5 -6q-21 0 -34.5 22t-30.5 68q-37 99 -63 135
q-47 61 -116 62q-48 0 -76 -29t-28 -88q0 -35 12 -68t26.5 -57t47 -56t52 -48t64 -51t62.5 -50q48 -39 81.5 -72.5t66.5 -79t50 -100.5t17 -118zM594 1370h-102q-19 0 -30.5 2t-26 12t-27.5 29l-170 266q-27 44 -27 56q0 20 35 20q28 0 78 -39l219 -178l219 178q50 39 78 39
q34 0 34 -20q0 -13 -26 -56l-170 -266q-18 -28 -36.5 -35.5t-47.5 -7.5z" />
    <glyph glyph-name="scaron" unicode="&#x161;" horiz-adv-x="796" 
d="M51 645v2q0 150 116.5 230.5t311.5 80.5q133 0 209 -30q23 -9 29 -99q2 -16 2 -61v-43q-2 -30 -8.5 -42.5t-24.5 -12.5q-6 0 -12 1.5t-11.5 5t-9.5 7t-9 10.5t-8 12t-8 14.5t-8 14.5t-8 16.5t-8 16.5q-12 25 -20.5 40t-23 33.5t-33 27t-40.5 8.5q-37 0 -58 -23.5
t-21 -58.5q0 -18 4.5 -35t9.5 -29.5t18.5 -29t20 -24.5t28 -24.5t27.5 -21.5t32.5 -23.5t31.5 -21.5q38 -27 64 -50.5t53 -57.5t41 -77t14 -94q0 -74 -26.5 -133.5t-70.5 -97t-103 -63t-121 -36t-128 -10.5q-101 0 -180 21q-43 14 -53 24q-21 18 -23 76q-2 31 -2 139
q0 50 8 76.5t31 26.5q24 0 44.5 -27t49.5 -82q19 -36 26.5 -49.5t26 -43.5t32 -42.5t33.5 -24.5t40 -12q88 0 88 103q0 30 -12 58t-42.5 59.5t-50 48t-66.5 53.5l-15 12q-43 34 -69.5 57t-57 57.5t-45.5 71t-15 76.5zM471 1051h-102q-19 0 -30.5 2t-26 12t-27.5 29l-170 266
q-27 44 -27 55q0 21 35 21q28 0 78 -39l219 -178l219 178q50 39 78 39q35 0 35 -21q0 -11 -27 -55l-170 -266q-18 -28 -36.5 -35.5t-47.5 -7.5z" />
    <glyph glyph-name="Ydieresis" unicode="&#x178;" 
d="M324 172v365q0 28 -17 69q-119 300 -213 529q-20 51 -82 67q-4 1 -12 4t-11.5 4t-9.5 3.5t-8.5 5t-6 5.5t-4.5 7.5t-1 9.5q0 24 18 36.5t46 12.5q64 0 130 -4t105 -4q66 0 162 4t125 4q41 0 41 -35q0 -14 -8 -24t-16.5 -14t-24.5 -9q-15 -4 -20.5 -6t-15 -7.5t-13 -13
t-3.5 -18.5q0 -28 72 -219q30 -80 46.5 -123t27.5 -65t16 -26.5t12 -4.5q12 0 20 15.5t46 106.5q15 37 25 60q77 193 77 236q0 21 -9 34.5t-19 18.5t-27 10q-2 1 -10.5 3t-11 3t-9 3t-9 4t-7 5t-6 6.5t-3 8t-1.5 10.5q0 41 59 41q28 0 70.5 -4t60.5 -4q19 0 59.5 4t57.5 4
q43 0 43 -39q0 -13 -3 -21.5t-12.5 -14t-13.5 -7t-20 -6.5q-18 -6 -30.5 -13t-29 -26t-28.5 -47q-41 -101 -77.5 -188t-67 -156t-38.5 -88q-45 -103 -45 -139v-398q0 -38 16 -53.5t46 -23.5q4 -1 12 -2.5t12.5 -2.5t11 -2.5t9.5 -4t7 -6.5t5.5 -9t1.5 -12q0 -23 -12 -31
t-47 -8q-18 0 -88 4t-144 4q-85 0 -169.5 -4t-108.5 -4q-55 0 -55 35q0 12 3.5 20t21 17.5t50.5 17.5q19 5 28 10.5t16.5 25t7.5 54.5zM371 1403h-2q-54 0 -92.5 40.5t-38.5 98.5q0 57 39 98t94 41t94 -41t39 -98q0 -58 -38.5 -98.5t-94.5 -40.5zM756 1403h-2
q-54 0 -92.5 40.5t-38.5 98.5q0 57 39 98t94 41t94 -41t39 -98q0 -58 -38.5 -98.5t-94.5 -40.5z" />
    <glyph glyph-name="Zcaron" unicode="&#x17d;" horiz-adv-x="909" 
d="M506 82h2q58 0 108 16q17 6 32 14.5t26 17t21.5 23t17 23.5t14 28.5t11 27.5t8.5 30t6.5 28.5t6 30.5t5.5 27q23 115 67 115q29 0 37.5 -23.5t8.5 -109.5q0 -199 -5 -260q-4 -51 -13.5 -64.5t-31.5 -13.5q-17 0 -128.5 4t-237.5 4q-117 0 -256.5 -4t-165.5 -4
q-27 0 -27 24q0 17 47 150l334 915q29 82 29 97q0 22 -43 22q-55 0 -90 -12q-76 -28 -119 -139q-7 -20 -16 -49.5t-15 -49t-14 -38.5t-19 -28.5t-26 -9.5q-45 0 -45 68q0 59 2 90q3 47 6 105t5.5 109.5t2.5 60.5q1 22 12.5 32.5t26.5 10.5q18 0 27.5 -7t19.5 -22
q19 -31 49 -31q49 0 161.5 -4t174.5 -4q46 0 134 4t132 4q52 0 52 -35q0 -15 -41 -125q-61 -167 -170.5 -479.5t-157.5 -445.5q-31 -85 -31 -99t15 -19t51 -5zM537 1366h-103q-19 0 -30.5 2t-26 12t-27.5 29l-170 266q-26 43 -26 56q0 20 34 20q28 0 78 -39l219 -178
l220 178q50 39 77 39q35 0 35 -20q0 -13 -26 -56l-170 -266q-18 -28 -36.5 -35.5t-47.5 -7.5z" />
    <glyph glyph-name="zcaron" unicode="&#x17e;" horiz-adv-x="796" 
d="M729 379h2q12 0 19 -3.5t12.5 -22t5.5 -54.5q0 -168 -2 -219q-3 -61 -13.5 -74.5t-45.5 -13.5q-19 0 -134 4t-221 4q-57 0 -172.5 -4t-138.5 -4q-33 0 -33 31q0 15 15 45l303 694q24 56 24 65q0 17 -20 17q-48 0 -80 -4q-55 -6 -84 -62q-11 -22 -21.5 -44t-16 -34.5
t-11.5 -24.5t-9.5 -17.5t-8 -10t-9.5 -5.5t-12 -1q-20 0 -27.5 15t-7.5 59q0 141 12 215t47 74q27 0 39 -31q13 -36 23 -39q27 -8 338 -8q15 0 107 4t110 4q35 0 35 -27q0 -7 -2 -15t-7 -20.5t-10 -24t-15 -33.5t-18 -40l-227 -524q-55 -124 -55 -141q0 -35 49 -35
q38 0 70 16q82 42 114 143q20 68 33.5 100t21.5 39t21 7zM451 1051h-103q-19 0 -30.5 2t-26 12t-27.5 29l-170 266q-26 43 -26 55q0 21 34 21q28 0 78 -39l219 -178l219 178q50 39 78 39q35 0 35 -21q0 -12 -26 -55l-170 -266q-18 -28 -36.5 -35.5t-47.5 -7.5z" />
    <glyph glyph-name="florin" unicode="&#x192;" 
d="M240 680h-131q-33 0 -33 18q0 10 12 45q9 24 16 31.5t21 7.5h139q48 152 99 245.5t135 164.5q145 123 311 123q146 0 215.5 -33.5t69.5 -101.5q0 -45 -27 -160q-10 -38 -34 -63t-62 -25q-55 0 -99 121q-6 16 -16 48t-16.5 49t-15.5 37t-18 29t-20 9q-22 0 -38.5 -19.5
t-34.5 -56.5q-46 -90 -76 -207q-33 -126 -41 -160h145q29 0 29 -18q0 -17 -10 -55q-7 -29 -33 -29h-156q-42 -184 -118 -490q-71 -285 -209 -460q-79 -101 -176 -159t-205 -58q-277 0 -277 135q0 44 27 159q24 89 96 89q32 0 54.5 -32t43.5 -89l16 -48t17 -49t15.5 -36.5
t18.5 -29.5t20 -9q27 0 52 46t56 142q23 72 94 348q113 433 144 541z" />
    <glyph glyph-name="circumflex" unicode="&#x2c6;" horiz-adv-x="569" 
d="M233 1436h103q19 0 30.5 -2t26 -12t27.5 -29l170 -267q26 -43 26 -55q0 -20 -34 -20q-28 0 -78 39l-219 178l-219 -178q-50 -39 -78 -39q-35 0 -35 20q0 11 27 55l170 267q18 28 36.5 35.5t46.5 7.5z" />
    <glyph glyph-name="caron" unicode="&#x2c7;" horiz-adv-x="569" 
d="M336 1051h-103q-28 0 -46.5 7.5t-36.5 35.5l-170 266q-27 44 -27 55q0 21 35 21q28 0 78 -39l219 -178l219 178q50 39 78 39q34 0 34 -21q0 -12 -26 -55l-170 -266q-18 -28 -36.5 -35.5t-47.5 -7.5z" />
    <glyph glyph-name="uni02C9" unicode="&#x2c9;" horiz-adv-x="569" 
d="M27 1303h542q41 0 41 -9q0 -10 -32 -112q-6 -22 -11.5 -27.5t-23.5 -5.5h-543q-41 0 -41 8q0 5 33 113q6 22 11.5 27.5t23.5 5.5z" />
    <glyph glyph-name="breve" unicode="&#x2d8;" horiz-adv-x="569" 
d="M285 1065h-2q-130 0 -211.5 87.5t-81.5 195.5q0 59 45 59q20 0 29 -12t20 -41q23 -60 71.5 -88.5t129.5 -28.5t129 28.5t71 88.5q10 29 20 41t30 12q45 0 45 -59q0 -69 -34 -132.5t-103 -107t-158 -43.5z" />
    <glyph glyph-name="dotaccent" unicode="&#x2d9;" horiz-adv-x="569" 
d="M285 1079h-2q-57 0 -99.5 43.5t-42.5 102.5t43 102t101 43t100.5 -43t42.5 -102t-42.5 -102.5t-100.5 -43.5z" />
    <glyph glyph-name="ring" unicode="&#x2da;" horiz-adv-x="569" 
d="M285 1051h-2q-89 0 -154.5 65.5t-65.5 155.5q0 91 65.5 156t156.5 65t156 -65t65 -156t-65 -156t-156 -65zM285 1161h2q43 0 75.5 33.5t32.5 77.5t-33 77t-77 33t-77.5 -33t-33.5 -77t33.5 -77.5t77.5 -33.5z" />
    <glyph glyph-name="ogonek" unicode="&#x2db;" horiz-adv-x="569" 
d="M324 0h120q-35 -16 -69 -37.5t-70.5 -51.5t-59 -67.5t-22.5 -74.5q0 -52 38 -78.5t89 -26.5q52 0 90 25q33 22 58 22q28 0 28 -47q0 -32 -83 -74.5t-158 -42.5q-42 0 -78.5 8t-72.5 26.5t-57.5 57t-21.5 93.5q0 46 29 93t72 81.5t87.5 59t80.5 34.5z" />
    <glyph glyph-name="tilde" unicode="&#x2dc;" horiz-adv-x="569" 
d="M403 1106h-2q-59 0 -155 53q-100 53 -140 53q-34 0 -54.5 -15.5t-27 -33.5t-20.5 -33.5t-37 -15.5q-44 0 -37 62q11 91 74 152t160 61q60 0 158 -54q37 -19 52 -27t41.5 -17t45.5 -9q34 0 54.5 15.5t27.5 33.5t21.5 33.5t37.5 15.5q20 0 29 -16.5t6 -44.5
q-9 -91 -73 -152t-161 -61z" />
    <glyph glyph-name="hungarumlaut" unicode="&#x2dd;" horiz-adv-x="569" 
d="M39 1051h-2q-11 0 -18 8t-7 20q0 13 33 62l158 233q68 99 147 99q39 0 70 -20.5t31 -61.5q0 -73 -72 -123l-229 -164q-71 -53 -111 -53zM412 1051h-2q-11 0 -18 8t-7 20q0 13 33 62l157 233q68 99 148 99q39 0 69.5 -20.5t30.5 -61.5q0 -73 -71 -123l-230 -164
q-71 -53 -110 -53z" />
    <glyph glyph-name="uni03A9" unicode="&#x3a9;" horiz-adv-x="1339" 
d="M1282 358l-53 -358h-490l-20 45q40 122 56 175t47 162.5t44 193.5t13 157q0 183 -26.5 296t-72.5 158.5t-114 45.5q-52 0 -88 -21.5t-64 -75.5t-41.5 -154.5t-13.5 -252.5q0 -239 157 -684l-20 -45h-492l-47 358h76q29 -75 57.5 -97.5t92.5 -22.5h153q-41 29 -63.5 45.5
t-63 50.5t-63.5 60.5t-53.5 68t-46.5 81.5t-28 93.5t-12 110.5q0 257 160 413t408 156q246 0 402.5 -153t156.5 -408q0 -70 -19.5 -133.5t-48.5 -111t-74 -95t-86 -82t-94 -76.5q-17 -13 -26 -20h184q54 0 81 23t54 97h78z" />
    <glyph glyph-name="uni03BC" unicode="&#x3bc;" horiz-adv-x="1138" 
d="M467 879v-625q0 -53 19.5 -71.5t70.5 -18.5q55 0 92 43q23 26 23 61v486q0 56 -7.5 74t-31.5 26q-14 4 -20.5 7t-13.5 12.5t-7 23.5q0 22 17.5 29.5t49.5 7.5q11 0 61 -4t81 -4q22 0 76 4t90 4q49 0 49 -45v-76v-592q0 -29 20.5 -48.5t48.5 -22.5q25 -3 25 -33
q-1 -7 -2 -11.5t-3 -8t-6.5 -6.5t-9.5 -5t-15.5 -5l-21 -6t-29 -8.5t-36.5 -11.5q-202 -62 -258 -80q-31 -8 -39 -8q-18 0 -18 41v96q0 27 -13 27q-12 0 -30 -18q-3 -3 -29 -28.5t-41.5 -37.5t-44 -31t-60 -27.5t-65.5 -8.5q-38 0 -78 19.5t-59 53.5l-4 -4v-47
q0 -53 25 -108t50 -106t25 -95q0 -76 -42.5 -118t-115.5 -42q-145 0 -145 168q0 46 39 164t39 201v151v580q0 19 -9 31t-19 16t-25 6q-41 7 -41 45q0 15 8 27t22 12q29 0 91.5 -4t93.5 -4q24 0 100 4t88 4q35 0 35 -55z" />
    <glyph glyph-name="pi" unicode="&#x3c0;" horiz-adv-x="1107" 
d="M1006 903l65 -12q-4 -63 -28.5 -148.5t-45.5 -115.5q-39 -15 -108 -15q-11 -137 -8 -301q0 -155 63 -155q26 0 72 24l24 -61q-36 -57 -106.5 -101.5t-138.5 -44.5q-95 0 -155 62t-60 209q0 159 16 372q-42 -1 -97 2t-83 3v-7q0 -125 -10 -227.5t-22 -161t-32 -109
t-30 -67t-27 -39.5q-66 -29 -154 -37l-16 52q92 141 134 298t42 302q-73 1 -118 -10t-111 -48l-33 72q4 5 18 25.5t20.5 28.5t22 27.5t26 29t29 26t35 25t40.5 20t47.5 17t54 9t63.5 3.5q152 -4 502 -4q48 0 69.5 12t39.5 45z" />
    <glyph glyph-name="endash" unicode="&#x2013;" 
d="M115 582h870q35 0 35 -19q0 -17 -16 -63l-39 -115q-8 -25 -18.5 -33t-37.5 -8h-870q-35 0 -35 18t16 64l39 115q8 25 18.5 33t37.5 8z" />
    <glyph glyph-name="emdash" unicode="&#x2014;" horiz-adv-x="2048" 
d="M115 582h1894q35 0 35 -19q0 -17 -16 -63l-39 -115q-8 -25 -18.5 -33t-37.5 -8h-1894q-35 0 -35 18t16 64l39 115q8 25 18.5 33t37.5 8z" />
    <glyph glyph-name="quoteleft" unicode="&#x2018;" horiz-adv-x="454" 
d="M338 1421h2q14 0 26.5 -10t12.5 -31q0 -12 -62 -82q-90 -103 -90 -159q0 -11 8.5 -22.5t20.5 -14.5q74 -18 112 -58.5t38 -113.5q0 -83 -48.5 -134t-130.5 -51q-85 0 -131.5 67t-46.5 155q0 73 35.5 157.5t83.5 148t96 106t74 42.5z" />
    <glyph glyph-name="quoteright" unicode="&#x2019;" horiz-adv-x="454" 
d="M49 1130v3q0 81 48 131.5t130 50.5q85 0 132 -66.5t47 -154.5q0 -73 -35.5 -157.5t-83.5 -148t-96 -106.5t-74 -43q-15 0 -28 10t-13 31q0 14 61 82q90 103 90 160q0 11 -8 22t-20 14q-74 18 -112 58.5t-38 113.5z" />
    <glyph glyph-name="quotesinglbase" unicode="&#x201a;" horiz-adv-x="454" 
d="M49 147v3q0 81 48 131.5t130 50.5q85 0 132 -66.5t47 -154.5q0 -73 -35.5 -157.5t-83.5 -148t-96 -106.5t-74 -43q-15 0 -28 10t-13 31q0 14 61 82q90 103 90 160q0 11 -8 22t-20 14q-74 18 -112 58.5t-38 113.5z" />
    <glyph glyph-name="quotedblleft" unicode="&#x201c;" horiz-adv-x="909" 
d="M338 1421h2q14 0 26.5 -10t12.5 -31q0 -12 -62 -82q-90 -103 -90 -159q0 -11 8.5 -22.5t20.5 -14.5q74 -18 112 -58.5t38 -113.5q0 -83 -48.5 -134t-130.5 -51q-85 0 -131.5 67t-46.5 155q0 73 35.5 157.5t83.5 148t96 106t74 42.5zM793 1421h2q14 0 26.5 -10t12.5 -31
q0 -12 -62 -82q-90 -103 -90 -159q0 -11 8.5 -22.5t20.5 -14.5q74 -18 111.5 -58.5t37.5 -113.5q0 -83 -48 -134t-130 -51q-85 0 -131.5 67t-46.5 155q0 73 35.5 157.5t83.5 148t96 106t74 42.5z" />
    <glyph glyph-name="quotedblright" unicode="&#x201d;" horiz-adv-x="909" 
d="M49 1130v3q0 81 48 131.5t130 50.5q85 0 132 -66.5t47 -154.5q0 -73 -35.5 -157.5t-83.5 -148t-96 -106.5t-74 -43q-15 0 -28 10t-13 31q0 14 61 82q90 103 90 160q0 11 -8 22t-20 14q-74 18 -112 58.5t-38 113.5zM504 1130v3q0 81 48 131.5t130 50.5q85 0 131.5 -66.5
t46.5 -154.5q0 -73 -35.5 -157.5t-83.5 -148t-96 -106.5t-74 -43q-15 0 -28 10t-13 31q0 12 62 82q90 103 90 160q0 11 -8.5 22t-20.5 14q-74 18 -111.5 58.5t-37.5 113.5z" />
    <glyph glyph-name="quotedblbase" unicode="&#x201e;" horiz-adv-x="909" 
d="M49 147v3q0 81 48 131.5t130 50.5q85 0 132 -66.5t47 -154.5q0 -73 -35.5 -157.5t-83.5 -148t-96 -106.5t-74 -43q-15 0 -28 10t-13 31q0 14 61 82q90 103 90 160q0 11 -8 22t-20 14q-74 18 -112 58.5t-38 113.5zM504 147v3q0 81 48 131.5t130 50.5q85 0 131.5 -66.5
t46.5 -154.5q0 -73 -35.5 -157.5t-83.5 -148t-96 -106.5t-74 -43q-15 0 -28 10t-13 31q0 12 62 82q90 103 90 160q0 11 -8.5 22t-20.5 14q-74 18 -111.5 58.5t-37.5 113.5z" />
    <glyph glyph-name="dagger" unicode="&#x2020;" 
d="M549 -399h-74q-3 135 -7 214.5t-17 204t-41 227t-72 187.5q126 129 137 359q-49 0 -88.5 -16t-61.5 -35.5t-57.5 -35.5t-77.5 -16q-59 0 -96 39t-37 100q0 62 37.5 101t95.5 39q42 0 77.5 -16t57.5 -35.5t61.5 -35.5t88.5 -16q0 50 -27.5 107t-55 110.5t-27.5 94.5
q0 61 38.5 99t108.5 38t108.5 -38t38.5 -99q0 -41 -27.5 -94.5t-55 -110.5t-27.5 -107q49 0 88.5 16t61.5 35.5t57.5 35.5t77.5 16q58 0 95.5 -39t37.5 -101q0 -61 -37 -100t-96 -39q-42 0 -77.5 16t-57.5 35.5t-61.5 35.5t-88.5 16q11 -230 137 -359q-44 -85 -72 -187.5
t-41 -227t-17 -204t-7 -214.5z" />
    <glyph glyph-name="daggerdbl" unicode="&#x2021;" 
d="M967 829v-2q0 -60 -37.5 -98.5t-95.5 -38.5q-42 0 -77.5 16t-57.5 35.5t-61.5 35.5t-88.5 16q10 -92 50 -185t87 -149q-47 -56 -87 -149t-50 -185q49 0 88.5 16t61.5 35t57.5 35t77.5 16q59 0 96 -39t37 -100t-37 -100t-96 -39q-42 0 -77.5 16t-57.5 35t-61.5 35
t-88.5 16q0 -50 27.5 -107t55 -110t27.5 -94q0 -61 -38.5 -99t-108.5 -38t-108.5 38t-38.5 99q0 41 27.5 94t55 110t27.5 107q-49 0 -88.5 -16t-61.5 -35t-57.5 -35t-77.5 -16q-59 0 -96 39t-37 100t37 100t96 39q42 0 77.5 -16t57.5 -35t61.5 -35t88.5 -16q-10 92 -50 185
t-87 149q47 56 87 149t50 185q-49 0 -88.5 -16t-61.5 -35.5t-57.5 -35.5t-77.5 -16q-59 0 -96 39t-37 100q0 62 37.5 101t95.5 39q42 0 77.5 -16t57.5 -35.5t61.5 -35.5t88.5 -16q0 50 -27.5 107t-55 110.5t-27.5 94.5q0 61 38.5 99t108.5 38t108.5 -38t38.5 -99
q0 -41 -27.5 -94.5t-55 -110.5t-27.5 -107q49 0 88.5 16t61.5 35.5t57.5 35.5t77.5 16q58 0 95.5 -39t37.5 -101z" />
    <glyph glyph-name="bullet" unicode="&#x2022;" 
d="M512 1044h2q136 0 231 -96t95 -231q0 -137 -95 -232.5t-233 -95.5q-135 0 -231.5 96t-96.5 232t95.5 231.5t232.5 95.5z" />
    <glyph glyph-name="ellipsis" unicode="&#x2026;" horiz-adv-x="2048" 
d="M342 332h2q71 0 123.5 -52.5t52.5 -125.5t-53 -126t-125 -53t-125 53t-53 126t53 125.5t125 52.5zM1024 332h2q71 0 123.5 -52.5t52.5 -125.5t-53 -126t-125 -53t-125 53t-53 126t53 125.5t125 52.5zM1706 332h2q71 0 123.5 -52.5t52.5 -125.5t-53 -126t-125 -53t-125 53
t-53 126t53 125.5t125 52.5z" />
    <glyph glyph-name="perthousand" unicode="&#x2030;" horiz-adv-x="2048" 
d="M195 -23v3q0 7 26 49l797 1265q15 21 51 21h43q29 0 29 -10q0 -9 -27 -52l-797 -1265q-15 -21 -51 -21h-43q-28 0 -28 10zM342 709h2q23 0 36.5 21t21.5 81.5t8 169.5t-8 169.5t-22 81.5t-38 21t-38 -21t-22 -81.5t-8 -169.5t8 -169.5t22 -81.5t38 -21zM993 29h2
q23 0 36.5 21t21.5 81.5t8 169.5t-8 169.5t-22 81.5t-38 21t-38 -21t-21.5 -81.5t-7.5 -169.5t7.5 -169.5t21.5 -81.5t38 -21zM342 647h-2q-135 0 -233.5 99t-98.5 235q0 137 99 235.5t235 98.5t235 -98.5t99 -235.5t-99 -235.5t-235 -98.5zM993 -33h-2q-135 0 -233.5 99
t-98.5 235q0 137 98.5 235.5t235.5 98.5t235.5 -98.5t98.5 -235.5t-98.5 -235.5t-235.5 -98.5zM1706 -33h-2q-135 0 -233.5 99t-98.5 235q0 137 99 235.5t235 98.5t235 -98.5t99 -235.5t-99 -235.5t-235 -98.5zM1706 29h2q23 0 36.5 21t21.5 81.5t8 169.5t-8 169.5t-22 81.5
t-38 21t-38 -21t-22 -81.5t-8 -169.5t8 -169.5t22 -81.5t38 -21z" />
    <glyph glyph-name="guilsinglleft" unicode="&#x2039;" horiz-adv-x="681" 
d="M555 182h-186q-21 0 -36 8.5t-34 34.5l-127 170q-19 26 -45 45q-16 12 -16 23q0 10 16 22q26 19 45 45l127 170q33 43 70 43h186q25 0 25 -18t-27 -18q-24 0 -40.5 -12t-39.5 -42l-115 -151q-17 -24 -32 -39q6 -6 18 -21.5t14 -17.5l115 -152q22 -29 38.5 -41t41.5 -12
q27 0 27 -18q0 -19 -25 -19z" />
    <glyph glyph-name="guilsinglright" unicode="&#x203a;" horiz-adv-x="681" 
d="M127 743h186q21 0 36 -8.5t34 -34.5l127 -170q19 -26 45 -45q16 -12 16 -22q0 -11 -16 -23q-26 -19 -45 -45l-127 -170q-33 -43 -70 -43h-186q-25 0 -25 19q0 18 27 18q25 0 41.5 12t38.5 41l115 152q18 24 32 39q-6 6 -18 21.5t-14 17.5l-115 151q-23 30 -39.5 42
t-40.5 12q-27 0 -27 18t25 18z" />
    <glyph glyph-name="fraction" unicode="&#x2044;" horiz-adv-x="342" 
d="M-324 -23v3q0 6 27 49l797 1265q15 21 51 21h86q29 0 29 -10q0 -9 -27 -52l-797 -1265q-15 -21 -51 -21h-86q-29 0 -29 10z" />
    <glyph glyph-name="Euro" unicode="&#x20ac;" 
d="M774 578q0 -27 -7.5 -52.5t-25.5 -25.5h-213q14 -194 56 -312q48 -131 131 -131q61 0 96 95q16 43 34 127t35 131t42 47q26 0 36.5 -16t10.5 -72v-226q0 -46 -13 -66t-45 -40q-112 -70 -243 -70q-106 0 -194.5 41t-150 114t-100.5 168.5t-55 209.5h-129q-14 0 -14 24
q0 78 32 78h103v39q0 53 2 80h-123q-14 0 -14 24q0 78 32 78h119q39 221 168 356.5t334 135.5q84 0 165 -26t89 -48q12 -35 12 -336q0 -28 -11.5 -40.5t-27.5 -12.5q-18 0 -32.5 13.5t-26 41t-19 52.5t-18.5 66.5t-18 64.5q-20 66 -44.5 100.5t-66.5 34.5q-132 0 -152 -402
h263q14 0 14 -24q0 -27 -7.5 -52.5t-25.5 -25.5h-248v-53v-66h236q14 0 14 -24z" />
    <glyph glyph-name="afii61289" unicode="&#x2113;" horiz-adv-x="884" 
d="M801 293l55 -49q-142 -275 -383 -275q-159 0 -235 76q-41 53 -56.5 106t-15.5 181v102l-98 -57l-29 74l127 81v281q0 170 22 260.5t78 171.5q53 70 119.5 107t132.5 37q107 0 165 -76t58 -197q0 -150 -61.5 -259.5t-210.5 -250.5v-131q0 -183 26 -253t109 -70
q98 0 197 141zM469 903v-170q50 57 80.5 153.5t30.5 221.5q0 203 -60 203q-36 0 -43.5 -67t-7.5 -341z" />
    <glyph glyph-name="trademark" unicode="&#x2122;" horiz-adv-x="2048" 
d="M156 1122h-58v160h703v-160h-58q-14 103 -104 103h-78v-555q0 -24 1.5 -34t10.5 -20.5t28 -13.5t54 -4v-57h-413v57q35 1 54 4t28 13.5t10.5 20.5t1.5 34v555h-76q-90 0 -104 -103zM860 1282h316l217 -455l235 455h273v-57q-63 -4 -78 -18.5t-15 -57.5v-479
q0 -43 15.5 -57t77.5 -15v-57h-412v57q35 1 54 4t28 13.5t10.5 20.5t1.5 34v374h-4l-252 -501h-33l-235 501h-4v-313q0 -33 0.5 -46.5t3 -33t8 -26t16.5 -14.5t26.5 -10t39.5 -3v-57h-248v57q61 1 72.5 21.5t11.5 111.5v395q0 43 -39 71t-86 30v55z" />
    <glyph glyph-name="Omega" unicode="&#x2126;" horiz-adv-x="1339" 
d="M1282 358l-53 -358h-490l-20 45q40 122 56 175t47 162.5t44 193.5t13 157q0 183 -26.5 296t-72.5 158.5t-114 45.5q-52 0 -88 -21.5t-64 -75.5t-41.5 -154.5t-13.5 -252.5q0 -239 157 -684l-20 -45h-492l-47 358h76q29 -75 57.5 -97.5t92.5 -22.5h153q-41 29 -63.5 45.5
t-63 50.5t-63.5 60.5t-53.5 68t-46.5 81.5t-28 93.5t-12 110.5q0 257 160 413t408 156q246 0 402.5 -153t156.5 -408q0 -70 -19.5 -133.5t-48.5 -111t-74 -95t-86 -82t-94 -76.5q-17 -13 -26 -20h184q54 0 81 23t54 97h78z" />
    <glyph glyph-name="estimated" unicode="&#x212e;" horiz-adv-x="1622" 
d="M1559 621h-1211q-10 0 -10 -9v-364q0 -24 16 -43q90 -93 208.5 -146t248.5 -53q141 0 266 59.5t215 163.5h109q-101 -120 -257 -190t-335 -70q-203 0 -374.5 89.5t-271.5 244t-100 336.5q0 183 100 338.5t271.5 245.5t374.5 90q204 0 376.5 -90t273 -245.5t100.5 -338.5
v-18zM1282 670v366q0 26 -16 45q-198 191 -455 191q-129 0 -247 -52.5t-210 -144.5q-16 -19 -16 -45v-360q0 -4 3 -8.5t7 -4.5h928q6 0 6 13z" />
    <glyph glyph-name="partialdiff" unicode="&#x2202;" horiz-adv-x="1062" 
d="M514 805h2q55 0 106.5 -21.5t86.5 -64.5q20 116 28 219q12 174 -39 270q-25 41 -67 59.5t-111 18.5q-124 0 -282 -137q-18 1 -43.5 40t-40.5 89t-4 78q127 71 278 71q147 0 259 -72.5t183 -203.5q56 -104 81.5 -226t25.5 -231q0 -261 -96 -442q-66 -131 -178.5 -207
t-264.5 -76q-166 0 -266 98t-100 269q0 96 34.5 183.5t86.5 146.5q58 66 141 102.5t180 36.5zM582 700h-2q-23 0 -40.5 -5t-43 -28.5t-47.5 -66.5q-37 -77 -59.5 -199.5t-22.5 -234.5q0 -67 19 -93t63 -26q66 0 145 201q64 161 90 370q-13 32 -39.5 57t-62.5 25z" />
    <glyph glyph-name="Delta" unicode="&#x2206;" horiz-adv-x="1245" 
d="M1182 0h-1121v88l482 1198l133 31l506 -1229v-88zM801 143l-299 744l-287 -744h586z" />
    <glyph glyph-name="product" unicode="&#x220f;" horiz-adv-x="1392" 
d="M1343 1315v-76q-43 -4 -69 -8.5t-47.5 -15t-32 -23.5t-17.5 -39t-8.5 -55t-1.5 -78v-875q0 -52 1.5 -82t9 -57t17 -39.5t32 -23t47.5 -15t69 -8.5v-78h-620v78q33 3 51.5 6.5t35 14t23 22t11.5 40t5.5 57.5t0.5 85v1000q0 51 -13 63.5t-63 12.5h-166q-46 0 -56.5 -11.5
t-10.5 -58.5v-1006q0 -135 10 -167q12 -38 55 -50q18 -5 49 -8v-78h-610v78q43 4 69 8.5t47.5 15.5t32 24.5t17.5 40t8.5 56.5t1.5 80v875q0 50 -1.5 79.5t-9 56t-18 39t-33 23t-49 14.5t-71.5 7v76h1304z" />
    <glyph glyph-name="summation" unicode="&#x2211;" horiz-adv-x="1077" 
d="M1038 281l-96 -459h-895v76l393 542l-389 797v78h891q10 -168 23 -357l-78 -16q-35 125 -74 197q-27 52 -66 69t-139 17h-186l278 -555l-411 -584h387q49 0 75.5 1.5t55.5 9.5t45 20t35.5 38t35.5 58.5t38 85.5z" />
    <glyph glyph-name="minus" unicode="&#x2212;" horiz-adv-x="1228" 
d="M1130 412h-1032v213h1032v-213z" />
    <glyph glyph-name="uni2215" unicode="&#x2215;" horiz-adv-x="342" 
d="M-324 -23v3q0 6 27 49l797 1265q15 21 51 21h86q29 0 29 -10q0 -9 -27 -52l-797 -1265q-15 -21 -51 -21h-86q-29 0 -29 10z" />
    <glyph glyph-name="uni2219" unicode="&#x2219;" horiz-adv-x="512" 
d="M256 340h-2q-71 0 -123.5 52.5t-52.5 125.5t53 125.5t125 52.5t125 -52.5t53 -125.5t-53 -125.5t-125 -52.5z" />
    <glyph glyph-name="radical" unicode="&#x221a;" horiz-adv-x="1077" 
d="M1069 1604l-350 -1952l-68 -27l-385 1006l-166 -70l-28 92l399 166l225 -649h4l256 1454z" />
    <glyph glyph-name="infinity" unicode="&#x221e;" horiz-adv-x="1427" 
d="M1343 535v-3q0 -159 -93 -253.5t-218 -94.5q-41 0 -74 6.5t-74.5 25.5t-84 60.5t-84.5 104.5q-74 -99 -150.5 -148t-179.5 -49q-123 0 -214 93.5t-91 242.5q0 153 92 247.5t231 94.5q99 0 173.5 -44t144.5 -142q2 3 17.5 21t21 24t22.5 24t26.5 25.5t28 22.5t33 22.5
t35.5 18t40.5 15.5t44.5 9t50 4q125 -2 214 -91.5t89 -235.5zM406 358h4q59 0 107.5 39.5t103.5 114.5l-12 18q-24 37 -36.5 54t-33.5 42.5t-38.5 36.5t-42 20t-52.5 9q-70 0 -111 -46.5t-41 -127.5q0 -65 45.5 -112.5t106.5 -47.5zM1024 692h-2q-33 0 -63.5 -13.5t-57 -39
t-44.5 -47t-42 -53.5q-2 -2 -3 -3.5t-2.5 -3.5t-2.5 -4q72 -104 117.5 -137t109.5 -33q59 0 96 52.5t37 107.5q0 73 -38.5 123.5t-104.5 50.5z" />
    <glyph glyph-name="integral" unicode="&#x222b;" horiz-adv-x="815" 
d="M303 -66l-41 723q-6 139 -2.5 251.5t22 201t41 155t55 114.5t64.5 80t69 51t68 26.5t62 7.5q62 0 116 -35.5t54 -95.5q0 -67 -43 -104t-100 -37q-29 0 -48 23.5t-26 51t-16.5 51t-22.5 23.5q-12 0 -18.5 -8.5t-9 -37t-1.5 -74t6 -127.5l37 -656q10 -180 -5.5 -333.5
t-52 -263t-89 -187t-117 -115t-135.5 -37.5q-66 0 -115.5 39t-50.5 94q0 65 51.5 108.5t110.5 43.5q25 0 42.5 -26t25 -57t17.5 -57t23 -26q27 0 32.5 62t-3.5 171z" />
    <glyph glyph-name="approxequal" unicode="&#x2248;" horiz-adv-x="970" 
d="M797 881l118 -109q-50 -92 -121.5 -148.5t-142.5 -56.5q-54 0 -95.5 14.5t-94.5 51.5q-40 32 -70.5 46.5t-68.5 14.5q-33 0 -63.5 -20.5t-43 -36.5t-41.5 -59q-3 -3 -4.5 -5.5t-3.5 -5.5l-119 107q42 86 120 144.5t165 58.5q40 0 76 -10t54 -19.5t48 -28.5
q43 -30 58 -39.5t37 -18.5t42 -9q43 0 75.5 32t74.5 97zM797 506l118 -107q-51 -93 -122 -149.5t-144 -56.5q-90 0 -188 67q-34 25 -48.5 34.5t-40 19.5t-50.5 10q-16 0 -30.5 -3.5t-28 -12.5t-22.5 -15.5t-21.5 -22.5t-18 -23t-18.5 -26.5l-17 -25.5l-119 106
q42 84 120.5 142.5t164.5 58.5q41 0 77.5 -10.5t52 -18.5t46.5 -27q10 -7 35 -24t36.5 -24t30 -14t35.5 -7q29 0 55.5 17.5t44 39t44.5 60.5q5 8 8 12z" />
    <glyph glyph-name="notequal" unicode="&#x2260;" horiz-adv-x="970" 
d="M743 965l-57 -142h203v-184h-271l-90 -225h361v-187h-428l-82 -198l-143 55l59 143h-215v187h280l91 225h-371v184h438l80 195z" />
    <glyph glyph-name="lessequal" unicode="&#x2264;" horiz-adv-x="970" 
d="M885 193l-795 405v203l795 403v-213l-621 -291v-4l621 -290v-213zM893 -57h-807v188h807v-188z" />
    <glyph glyph-name="greaterequal" unicode="&#x2265;" horiz-adv-x="970" 
d="M94 1204l795 -405v-203l-795 -403v213l621 292v4l-621 289v213zM889 -57h-803v188h803v-188z" />
    <glyph glyph-name="lozenge" unicode="&#x25ca;" horiz-adv-x="1085" 
d="M1001 627l-344 -762h-231l-342 762l348 766h227zM795 627l-248 577h-6l-250 -577l250 -582h6z" />
    </font>
</defs>
</svg>
