<?xml version="1.0" standalone="no"?>
<!DOCTYPE svg PUBLIC "-//W3C//DTD SVG 1.1//EN" "http://www.w3.org/Graphics/SVG/1.1/DTD/svg11.dtd" >
<svg xmlns="http://www.w3.org/2000/svg" xmlns:xlink="http://www.w3.org/1999/xlink" version="1.1">
<metadata>
Created by FontForge 20170731 at Fri Nov 20 17:46:45 2020
 By Aleksey,,,
Copyright (c) 1994, 2001 Adobe Systems Incorporated.  All Rights Reserved.
</metadata>
<defs>
<font id="ITCGaramondStd-BdIta" horiz-adv-x="1230" >
  <font-face 
    font-family="ITC Garamond Std Book"
    font-weight="700"
    font-style="italic"
    font-stretch="normal"
    units-per-em="2048"
    panose-1="2 2 8 5 7 7 6 9 3 4"
    ascent="1440"
    descent="-608"
    x-height="938"
    cap-height="1276"
    bbox="-391 -512 2445 1780"
    underline-thickness="102"
    underline-position="-307"
    slope="-16"
    unicode-range="U+0020-FB02"
  />
<missing-glyph horiz-adv-x="1277" 
d="M254 0v1434h1024v-1434h-1024zM766 809l348 522h-696zM827 717l349 -522v1044zM418 102h696l-348 523zM356 1239v-1044l349 522z" />
    <glyph glyph-name="fi" unicode="fi" horiz-adv-x="1488" 
d="M348 795h-160q-30 0 -30 16q0 22 18 70q5 12 13 17.5t15 6t27 0.5h150q103 251 244 359q178 135 426 135q93 0 161 -15.5t104 -42t52 -55.5t16 -61q0 -45 -36 -81t-95 -36q-74 0 -112 51q-29 36 -35 78q-23 66 -105 66q-169 0 -280 -287q-4 -14 -17 -51.5t-20 -59.5h367
q88 0 192 17q21 2 44.5 6t38 6t22.5 2q43 0 43 -49q0 -23 -29 -117q-70 -228 -141 -446q-23 -79 -23 -95q0 -32 25 -32q22 0 59 40t66 89q41 63 63 63q29 0 29 -33q0 -37 -41.5 -101.5t-104 -127.5t-147 -109.5t-158.5 -46.5q-72 0 -98.5 33t-26.5 94q0 55 37 185
q14 49 52 168t51 163q26 76 26 113q0 38 -30.5 53t-90.5 15h-254q-128 -473 -192 -678q-82 -279 -215 -414q-87 -89 -194 -130.5t-193 -41.5q-110 0 -172 46t-62 116q0 57 38 93t97 36q103 0 132 -88q8 -19 12 -51q4 -52 31 -52q40 0 94 123q39 84 110 328q77 261 207 713z
" />
    <glyph glyph-name="fl" unicode="fl" horiz-adv-x="1490" 
d="M348 795h-160q-30 0 -30 16q0 22 18 70q5 12 13 17.5t15 6t27 0.5h150q103 256 260 367q83 60 183.5 93.5t195.5 33.5q68 0 118.5 -13t95.5 -35t56 -26q33 4 119.5 36t103.5 32q35 0 35 -31q0 -8 -18 -68q-49 -158 -148.5 -475.5t-148.5 -476.5q-33 -101 -33 -127
q0 -12 6 -21.5t17 -9.5q32 0 114 107q8 9 20 25t19.5 25t16 19t15.5 14.5t13 4.5q25 0 25 -33q0 -25 -24.5 -70.5t-70 -97.5t-101.5 -98.5t-127 -77.5t-138 -31q-35 0 -59 10.5t-35.5 28.5t-16 36t-4.5 38q0 81 50 244q7 25 247 796q-81 0 -123 56q-21 29 -30 75
q-15 48 -78 48q-67 0 -122.5 -79.5t-96.5 -213.5q-8 -27 -33 -105h186q13 0 19 -0.5t13 -1.5t10 -4.5t3 -9.5q0 -8 -2.5 -18t-7.5 -25.5t-8 -26.5q-4 -12 -12 -17.5t-14 -6t-23 -0.5h-193q-128 -473 -192 -678q-82 -279 -215 -414q-87 -89 -194 -130.5t-193 -41.5
q-110 0 -172 46t-62 116q0 57 38 93t97 36q103 0 132 -88q8 -19 12 -51q4 -52 31 -52q40 0 94 123q39 84 110 328q77 261 207 713z" />
    <glyph glyph-name=".notdef" horiz-adv-x="1277" 
d="M254 0v1434h1024v-1434h-1024zM766 809l348 522h-696zM827 717l349 -522v1044zM418 102h696l-348 523zM356 1239v-1044l349 522z" />
    <glyph glyph-name=".null" horiz-adv-x="0" 
 />
    <glyph glyph-name="nonmarkingreturn" horiz-adv-x="682" 
 />
    <glyph glyph-name="space" unicode=" " horiz-adv-x="614" 
 />
    <glyph glyph-name="exclam" unicode="!" horiz-adv-x="624" 
d="M741 1257v-2q0 -47 -45 -135q-49 -103 -146.5 -310.5t-146.5 -311.5q-28 -56 -50.5 -77.5t-53.5 -21.5q-63 0 -63 62q0 5 1 13.5t2.5 20t2.5 17.5q11 59 48.5 277.5t59.5 320.5q10 53 23.5 89.5t39 72t69 53.5t104.5 18q155 0 155 -86zM39 113v2q0 70 52.5 127t133.5 57
q66 0 110 -40.5t44 -100.5q0 -76 -56 -131.5t-137 -55.5q-68 0 -107.5 42t-39.5 100z" />
    <glyph glyph-name="quotedbl" unicode="&#x22;" horiz-adv-x="692" 
d="M291 639h-2q-43 0 -49 66q-41 420 -41 481q0 129 92 129q94 0 94 -129q0 -27 -5 -88.5t-10.5 -116.5t-14.5 -146t-13 -130q-6 -66 -51 -66zM637 639h-2q-43 0 -49 66q-41 420 -41 481q0 129 92 129q94 0 94 -129q0 -27 -5 -88.5t-10.5 -116.5t-14.5 -146t-13 -130
q-6 -66 -51 -66z" />
    <glyph glyph-name="numbersign" unicode="#" 
d="M223 655h191q24 0 32 5.5t17 27.5l51 135q8 20 8 27q0 10 -33 10h-182q-33 0 -33 14q0 7 7 21l36 96q6 17 14 21t29 4h193q24 0 32 5.5t17 29.5l72 184q11 23 20.5 28t46.5 5q12 0 18.5 -0.5t12.5 -1.5t8 -4t2 -7q0 -10 -8 -26l-67 -174q-9 -23 -9 -27q0 -12 33 -12h168
q24 0 32 5.5t17 29.5l72 184q10 23 18.5 28t36.5 5q31 0 42 -2.5t11 -12.5l-8 -24l-67 -174q-6 -15 -6 -27t30 -12h183h15.5t10 -1.5t7 -4t1.5 -6.5t-1 -7t-2.5 -7t-2.5 -7l-37 -96q-6 -17 -15 -22t-30 -5h-192q-24 0 -31.5 -5.5t-15.5 -27.5l-54 -133q-1 -3 -4.5 -13
t-3.5 -13q0 -13 33 -13h182h15.5t9.5 -1.5t6.5 -4t1.5 -6.5t-4 -20l-37 -99q-7 -15 -16 -19.5t-29 -4.5h-193q-24 0 -31 -5t-16 -28l-75 -195q-9 -24 -19 -29t-49 -5q-24 0 -32.5 2t-8.5 12q0 6 6 24l74 187q6 15 6 26q0 7 -6 9t-27 2h-166q-25 0 -32.5 -5t-16.5 -28
l-78 -195q-7 -24 -15.5 -29t-37.5 -5q-32 0 -42.5 2t-10.5 12q0 9 6 24l74 187q6 15 6 26q0 7 -6.5 9t-26.5 2h-182q-33 0 -33 14q0 9 6 21l37 96q6 16 14.5 20t30.5 4zM836 860h-168q-25 0 -31.5 -3.5t-11.5 -16.5l-58 -146q-8 -20 -8 -28q0 -11 33 -11h168q13 0 20.5 1
t12.5 4t6.5 6t5.5 10l55 145q8 16 8 29q0 7 -6 8.5t-26 1.5z" />
    <glyph glyph-name="dollar" unicode="$" horiz-adv-x="1148" 
d="M487 137l123 438q-46 31 -79 59t-66 66.5t-50.5 85.5t-17.5 101q0 86 35 154t94.5 110.5t129 68t149.5 35.5l35 125q7 23 18 29t31 6q9 0 14.5 -1t12.5 -4.5t7 -11t-3 -20.5l-33 -116h26q36 0 56 -2l35 120q7 22 18 28.5t29 6.5q13 0 19.5 -2t13 -10t-0.5 -25l-34 -127
q43 -3 119.5 -27t76.5 -53q0 -12 -24 -90q-6 -18 -13 -55t-12 -51q-14 -43 -47 -43q-37 0 -37 51q0 127 -92 172l-111 -391q91 -68 142 -137.5t51 -163.5q0 -148 -112 -261.5t-285 -154.5l-39 -141q-11 -37 -50 -37q-43 0 -30 39l35 127q-13 -2 -50 -2q-18 0 -32 2l-37 -129
q-7 -24 -18 -30.5t-29 -6.5q-13 0 -20 2t-14 10.5t1 26.5l37 133q-73 9 -138.5 30.5t-111 55t-45.5 70.5q0 11 16 59q17 51 27 113q11 77 49 77q16 0 25 -9.5t11 -19.5t3 -30q12 -216 192 -250zM862 1171l-88 -307q48 -34 68 -51l104 361q-16 2 -41 2q-8 0 -43 -5zM711 926
l65 229q-106 -33 -106 -135q0 -53 41 -94zM649 135l101 346q-56 39 -70 47l-115 -399h19q24 0 65 6zM811 422l-74 -262q115 51 115 170q0 48 -41 92z" />
    <glyph glyph-name="percent" unicode="%" horiz-adv-x="1714" 
d="M305 -16v2q0 4 5 10.5t19.5 22.5t24.5 28l1002 1210q31 35 43.5 42.5t36.5 7.5h67q14 0 20.5 -0.5t10.5 -3.5t4 -9q0 -10 -41 -55l-1008 -1221q-28 -34 -39.5 -40.5t-39.5 -6.5h-70q-23 0 -29 2t-6 11zM606 1235h-2q-48 0 -91.5 -50.5t-70.5 -121.5t-43 -141t-16 -115
q0 -123 86 -123q49 0 93 50.5t70.5 122.5t42 141.5t15.5 115.5q0 121 -84 121zM1382 596h-2q-47 0 -90.5 -51t-71 -122.5t-43.5 -141.5t-16 -115q0 -123 86 -123q50 0 94 51t71 122.5t42.5 142t15.5 116.5q0 48 -19.5 84.5t-66.5 36.5zM477 612h-2q-131 0 -212 88t-81 211
q0 98 55 189t151 149t206 58q132 0 213.5 -87.5t81.5 -211.5q0 -98 -55.5 -189t-151.5 -149t-205 -58zM1255 -29h-2q-131 0 -211.5 88t-80.5 211q0 98 54.5 189.5t150.5 150t206 58.5q132 0 213.5 -88t81.5 -211q0 -99 -55.5 -190.5t-151.5 -149.5t-205 -58z" />
    <glyph glyph-name="ampersand" unicode="&#x26;" horiz-adv-x="1468" 
d="M70 383v2q0 88 38.5 163.5t102 126.5t139 84.5t156.5 47.5q-36 41 -56 80t-20 90q0 57 33 115t91.5 107t151 79.5t199.5 30.5q57 0 127.5 -15t128.5 -46.5t58 -69.5q0 -10 -5.5 -32.5t-14 -51.5t-9.5 -33q-6 -23 -12.5 -38t-21.5 -28.5t-36 -13.5q-9 0 -17 2.5t-14.5 5
t-13.5 10t-11 12t-10.5 15.5t-9.5 16.5t-11 20t-11 20.5q-27 55 -60 82t-88 27q-76 0 -138.5 -42t-93 -99.5t-30.5 -112.5q0 -62 37 -102q63 10 90 10q64 0 113 -21t49 -63q0 -40 -43 -67t-92 -27q-91 0 -186 57q-72 -23 -121 -88.5t-49 -155.5q0 -142 108 -235.5t254 -93.5
q78 0 155.5 31t132 91.5t54.5 133.5q0 38 -29.5 58.5t-68.5 20.5q-32 0 -59 -10t-41 -21.5t-26.5 -21.5t-19.5 -10q-14 0 -25 12t-11 31q0 46 43 94q90 97 294 101q123 5 161.5 13t62.5 44q11 19 15.5 26t11.5 16.5t12 12t12 2.5q21 0 36 -26t15 -58q0 -48 -24 -88
t-60.5 -64t-72 -38.5t-66.5 -18.5q-33 -3 -49 -14q8 -32 0 -86q-17 -92 -73.5 -171t-141.5 -132q-174 -109 -412 -109q-101 0 -195 28t-168.5 79t-119.5 130.5t-45 174.5z" />
    <glyph glyph-name="quotesingle" unicode="'" horiz-adv-x="428" 
d="M309 639h-2q-43 0 -49 66q-4 39 -13 130t-14.5 146t-10.5 116.5t-5 88.5q0 129 94 129q92 0 92 -129q0 -61 -41 -481q-6 -66 -51 -66z" />
    <glyph glyph-name="parenleft" unicode="(" horiz-adv-x="815" 
d="M1083 1366v-2q0 -19 -21.5 -27t-53.5 -11.5t-82 -27.5t-95 -69q-92 -89 -186.5 -275t-162 -385.5t-111 -386t-45.5 -291.5q0 -110 39 -173.5t98 -79.5q8 -2 22 -6l21 -6t15.5 -6.5t12 -10.5t3.5 -15q0 -20 -14 -28t-52 -8q-173 0 -275 139t-102 381q0 176 51.5 378
t157 400t244.5 326q124 113 250.5 166t234.5 53q51 0 51 -35z" />
    <glyph glyph-name="parenright" unicode=")" horiz-adv-x="815" 
d="M-229 -408v2q0 19 21.5 27.5t53.5 12.5t82 28t95 68q92 89 187 274.5t163 385t111.5 386.5t45.5 293q0 108 -39.5 171.5t-97.5 80.5q-7 2 -23 6t-22.5 6.5t-15 7t-12 10.5t-3.5 15q0 20 14 27.5t52 7.5q173 0 276 -139.5t103 -380.5q0 -176 -51.5 -378t-158 -400.5
t-245.5 -325.5q-124 -113 -250.5 -166t-234.5 -53q-51 0 -51 34z" />
    <glyph glyph-name="asterisk" unicode="*" horiz-adv-x="960" 
d="M680 1311h2q38 0 66 -25t28 -67q0 -37 -36 -87t-71.5 -94.5t-35.5 -68.5q0 -9 7.5 -15t16.5 -6q22 0 54.5 22t61.5 49t65.5 49t66.5 22q40 0 66 -24.5t26 -68.5q0 -42 -29.5 -67t-74.5 -25q-32 0 -94 12.5t-92 12.5q-52 0 -52 -29q0 -20 27.5 -36.5t67.5 -31t79.5 -30.5
t67 -42t27.5 -59q0 -40 -28 -67t-67 -27q-36 0 -63.5 27.5t-44 66.5t-30 78t-30 66.5t-36.5 27.5q-12 0 -20.5 -18.5t-8.5 -44.5q0 -46 12.5 -101t12.5 -94q0 -40 -27.5 -67t-71.5 -27q-40 0 -65 28.5t-25 72.5q0 28 22.5 63.5t49 63.5t49 61.5t22.5 58.5q0 19 -16 19
q-27 0 -62 -23t-64 -50t-65 -50t-63 -23q-42 0 -69 26.5t-27 66.5q0 43 26.5 69.5t71.5 26.5q9 0 23.5 -1.5t36.5 -4.5t36 -4q80 -13 95 -13q59 0 59 25q0 17 -20 31t-50 24t-65 24t-65 29t-50 40t-20 57q0 36 24 64t60 28q37 0 64 -27t42.5 -65.5t29 -77t32 -65.5t43.5 -27
q12 0 21 11.5t9 29.5q0 14 -14 82t-14 108q0 51 25.5 81t70.5 30z" />
    <glyph glyph-name="plus" unicode="+" horiz-adv-x="1202" 
d="M551 616v420h197v-420h417v-196h-417v-420h-197v420h-418v196h418z" />
    <glyph glyph-name="comma" unicode="," horiz-adv-x="608" 
d="M39 109v2q0 68 54.5 122t131.5 54q73 0 115.5 -48t42.5 -112q0 -83 -51.5 -178.5t-120 -165.5t-135.5 -117t-99 -47q-19 0 -33 11t-14 26q0 14 22 34.5t60.5 50.5t61.5 54q46 49 80 105t34 75q0 17 -16 17q-5 0 -15.5 -2t-15.5 -2q-38 0 -70 36t-32 85z" />
    <glyph glyph-name="hyphen" unicode="-" horiz-adv-x="571" 
d="M119 553h426q14 0 19.5 -0.5t9.5 -4t4 -11.5q0 -5 -8 -28.5t-20 -56t-18 -51.5q-7 -25 -14.5 -30.5t-28.5 -5.5h-426q-18 0 -25 3t-7 13q0 5 7.5 27.5t19.5 57.5t18 52q9 24 15.5 29.5t27.5 5.5z" />
    <glyph glyph-name="period" unicode="." horiz-adv-x="608" 
d="M418 156v-2q0 -71 -54.5 -127t-134.5 -56q-69 0 -105 41t-36 101q0 65 52.5 122.5t129.5 57.5q65 0 106.5 -38.5t41.5 -98.5z" />
    <glyph glyph-name="slash" unicode="/" horiz-adv-x="763" 
d="M1012 1378v-2q0 -9 -13 -26l-1132 -1747q-12 -21 -22 -28t-27 -7h-137q-25 0 -25 10q0 5 12 29l1131 1743q16 25 26.5 34t28.5 9h133q25 0 25 -15z" />
    <glyph glyph-name="zero" unicode="0" 
d="M106 457v2q0 113 34.5 232.5t101 229t155 196.5t204.5 138.5t241 51.5q182 0 295.5 -133t113.5 -347q0 -91 -23.5 -190t-66.5 -194t-107 -181t-141 -150.5t-173.5 -102.5t-198.5 -38q-103 0 -187.5 40.5t-137.5 109t-81.5 155t-28.5 181.5zM958 1032v2q0 168 -120 168
q-47 0 -93 -34.5t-85 -94.5t-70.5 -126.5t-59.5 -143.5q-52 -148 -85 -298t-33 -237q0 -33 5.5 -62t19 -59t41.5 -47.5t67 -17.5q149 0 297 426q44 123 80 281t36 243z" />
    <glyph glyph-name="one" unicode="1" 
d="M141 37v2q0 18 11.5 29.5t34 15.5t37.5 5t40 1q47 0 73 5t45 26.5t28 45t26 81.5q74 253 201 692q14 37 14 74q0 33 -35 33q-16 0 -110.5 -31t-112.5 -31q-24 0 -38.5 11.5t-14.5 31.5q0 18 10.5 31t32.5 21.5t41.5 14t52.5 11.5q256 60 479 160q64 28 84 28q27 0 27 -28
q0 -22 -18 -78q-135 -470 -273 -942q-18 -56 -18 -90q0 -66 98 -66q25 0 41 -1t36.5 -5.5t31 -14.5t10.5 -26q0 -24 -14.5 -36t-28 -13.5t-37.5 -1.5q-61 0 -182 4t-178 4q-51 0 -153 -4t-157 -4q-84 0 -84 45z" />
    <glyph glyph-name="two" unicode="2" 
d="M311 240l4 -7q50 9 150 9q30 0 131 -1t129 -1q92 0 143 27t86 87q40 62 72 62q19 0 31 -12.5t12 -28.5q0 -11 -20 -75t-45 -140.5t-31 -96.5q-13 -45 -31 -58t-65 -13q-37 0 -181 4t-221 4q-63 0 -191.5 -4t-172.5 -4q-26 0 -40.5 1t-34 5t-29 15.5t-9.5 29.5q0 33 35 69
t155 138q189 155 373 309q131 118 202 224.5t71 213.5q0 77 -49.5 132t-131.5 55q-116 0 -231 -123q-14 -17 -32.5 -40.5t-27.5 -34t-20 -22.5t-19.5 -16t-17.5 -4q-18 0 -29.5 14t-11.5 29q0 22 15 53t42.5 67t72 71.5t98 64t126 46.5t150.5 18q183 0 297.5 -91t114.5 -239
q0 -48 -14 -94t-33.5 -81.5t-56 -73.5t-64.5 -62t-77.5 -57t-76.5 -48.5t-80.5 -45.5t-70.5 -40q-164 -84 -239 -129t-157 -106z" />
    <glyph glyph-name="three" unicode="3" 
d="M1114 1083v-2q0 -39 -15 -75.5t-39.5 -65t-59.5 -55.5t-72.5 -47.5t-81.5 -40.5t-83 -35t-81 -30q-8 -3 -13.5 -5t-11.5 -4v-4q79 5 111 2q134 -6 228 -91t94 -218q0 -101 -47 -196.5t-125.5 -167.5t-176.5 -126.5t-204.5 -83t-204.5 -28.5q-55 0 -111.5 10t-109 30.5
t-86 56.5t-33.5 83q0 49 34 81.5t87 32.5q37 0 66 -16.5t45 -37t40 -58.5q31 -48 59.5 -71t63.5 -23q86 0 170 66t138.5 178t54.5 235q0 109 -64 175t-162 66q-49 0 -100 -13t-85.5 -26.5t-43.5 -13.5q-16 0 -25.5 12.5t-9.5 28.5q0 9 2.5 17t9.5 15.5t14 14t22 14
t26.5 13.5t34.5 15t40 15.5t47.5 18.5t53.5 21q119 46 188.5 132.5t69.5 178.5q0 60 -33 90.5t-86 30.5q-75 0 -170 -72q-18 -14 -37 -30t-27.5 -23.5t-18.5 -14.5t-17 -9.5t-14 -2.5q-19 0 -29 12t-10 27q0 21 20 50.5t60.5 62t93.5 60.5t127.5 46.5t154.5 18.5
q149 0 240.5 -59.5t91.5 -164.5z" />
    <glyph glyph-name="four" unicode="4" 
d="M563 408h-465q-54 0 -61 6q-4 5 -4 16q0 32 12 59q6 18 17 34.5t17.5 22.5t26.5 25q436 399 873 795q36 33 49.5 40t40.5 7h129q22 0 30.5 -2t8.5 -12t-10 -19.5t-49 -40.5q-606 -480 -973 -802h395q34 0 44 9t20 40l75 260q11 38 20 49t40 20q60 20 140.5 49t120.5 42.5
t46 13.5q12 0 12 -16q0 -15 -10 -50q-28 -97 -109 -372q-6 -24 -6 -33q0 -12 37 -12h150q23 0 33 -3t10 -14q0 -26 -21 -78q-8 -23 -16 -28.5t-37 -5.5h-158q-26 0 -36 -6.5t-19 -32.5q-2 -8 -14 -46.5t-19.5 -65t-14.5 -59t-7 -48.5q0 -37 25.5 -51t86.5 -17q50 -1 69 -10
t19 -29q0 -51 -86 -51q-18 0 -129.5 4t-177.5 4q-60 0 -178 -4t-178 -4t-60 35q0 18 9 30t28 18t36 8.5t46 4.5q76 4 109.5 29.5t52.5 89.5q5 19 19 64.5t23 76.5t9 39q0 21 -41 21z" />
    <glyph glyph-name="five" unicode="5" 
d="M1106 1065l-477 -39q-76 -6 -99 -20q-17 -10 -45 -66.5t-28 -71.5q0 -11 44 -13q14 -1 15 -1q229 -16 350 -70q209 -95 209 -325q0 -147 -92 -271.5t-240 -205.5q-267 -152 -657 -152q-20 0 -32 1t-30 4.5t-27 13.5t-9 26q0 26 26 37t82 14q96 6 184.5 26.5t169.5 58.5
t141.5 89.5t96 126t35.5 162.5q0 56 -23.5 98.5t-57 66t-85.5 39t-92 21t-94 9.5q-64 3 -79.5 7.5t-15.5 22.5q0 7 15 52q3 7 172 501q12 32 21 39t44 10q460 41 672 58q39 0 39 -21q0 -5 -8 -33t-20 -68.5t-17 -60.5q-11 -42 -26.5 -52t-61.5 -13z" />
    <glyph glyph-name="six" unicode="6" 
d="M1184 514v-2q0 -102 -46 -200t-125 -173.5t-192.5 -121.5t-240.5 -46q-214 0 -344 134t-130 366q0 203 108 378t286 310q169 127 365.5 199t340.5 72q23 0 39.5 -9.5t16.5 -27.5q0 -13 -8 -23t-25 -17.5t-27.5 -10.5t-32.5 -9q-345 -96 -551 -393q-95 -147 -140.5 -314.5
t-45.5 -297.5q0 -39 7 -78t22.5 -80.5t49 -67.5t79.5 -26q51 0 95.5 35.5t73.5 89.5t50 119.5t30 125t9 107.5q0 72 -34.5 124.5t-96.5 59.5q-22 5 -45.5 6t-36.5 1.5t-17 5.5q-6 3 -6 14q0 36 63 69t169 33q149 0 244.5 -105t95.5 -247z" />
    <glyph glyph-name="seven" unicode="7" 
d="M961 997l-527 -6h-115q-17 0 -26 1t-17 6t-8 14q0 10 12.5 56.5t28 101t19.5 73.5q10 39 32 41q38 -6 158 -10q159 -6 322 -6q75 0 223 4t192 4q15 0 22.5 -0.5t18 -2.5t15 -7t4.5 -13q0 -25 -16.5 -66t-36.5 -75q-171 -284 -742 -1223q-15 -26 -33.5 -36.5t-64.5 -10.5
q-47 0 -66.5 5t-19.5 22q0 11 20 43q281 468 629 1044q14 24 14 33q0 8 -38 8z" />
    <glyph glyph-name="eight" unicode="8" 
d="M1135 416v-2q0 -127 -85.5 -230t-224.5 -158t-301 -55q-126 0 -231.5 37t-171.5 113t-66 178q0 59 25 109.5t54 81t89.5 63.5t93 46t103.5 39q24 9 35 13q-36 19 -63 37.5t-61.5 50.5t-53.5 77t-19 99q0 170 152.5 281t396.5 111q114 0 206.5 -26.5t152 -84.5t59.5 -141
q0 -39 -11.5 -73t-29 -59t-46 -48.5t-52.5 -38t-60.5 -30t-58 -23t-56 -18.5t-45.5 -15q42 -20 71.5 -36.5t70 -47.5t65.5 -63.5t43.5 -81.5t18.5 -105zM555 1030v-2q0 -33 15.5 -63t35 -50.5t54 -42.5t55 -32.5t55.5 -26.5q43 19 75 37.5t65 45.5t51 62.5t18 77.5
q0 76 -61 124t-148 48q-86 0 -150.5 -50.5t-64.5 -127.5zM313 297v-2q0 -98 65 -159.5t165 -61.5q106 0 186 68t80 171q0 23 -5.5 44.5t-13 38.5t-22.5 34.5t-26.5 29t-33.5 26t-34.5 22.5t-38 20.5t-36 17t-37 15.5t-32.5 14q-98 -44 -157.5 -113.5t-59.5 -164.5z" />
    <glyph glyph-name="nine" unicode="9" 
d="M1235 799v-2q0 -195 -98.5 -364.5t-268.5 -305.5q-162 -129 -379 -211t-411 -82q-72 0 -72 41q0 17 16.5 29t39 18t49.5 11q5 1 8 1q86 19 152.5 41.5t143 61t146.5 99.5t133 145q80 106 134 239.5t75 243.5t21 203q0 35 -6.5 71t-21.5 75.5t-47 64t-77 24.5
q-48 0 -91.5 -32t-74 -82.5t-53.5 -111.5t-34 -121t-11 -110q0 -80 35.5 -132t93.5 -58q18 -1 44.5 3.5t35.5 2.5q16 -6 16 -26q0 -35 -63.5 -68t-155.5 -33q-135 0 -235.5 97t-100.5 257q0 136 77 255.5t210.5 191.5t288.5 72q213 0 347 -137t134 -371z" />
    <glyph glyph-name="colon" unicode=":" horiz-adv-x="608" 
d="M530 725v-2q0 -71 -54 -126.5t-134 -55.5q-69 0 -105 40.5t-36 100.5q0 65 52.5 121.5t129.5 56.5q64 0 105.5 -38t41.5 -97zM362 156v-2q0 -71 -53.5 -127t-132.5 -56q-71 0 -106 40.5t-35 101.5q0 65 51.5 122.5t128.5 57.5q64 0 105.5 -38.5t41.5 -98.5z" />
    <glyph glyph-name="semicolon" unicode=";" horiz-adv-x="608" 
d="M528 723v-2q0 -70 -54.5 -126t-133.5 -56q-70 0 -105.5 41t-35.5 100q0 66 52 122t130 56q64 0 105.5 -38t41.5 -97zM25 109v2q0 68 54.5 122t131.5 54q74 0 117 -48t43 -112q0 -68 -34 -144t-85.5 -138.5t-108 -114.5t-105 -81.5t-73.5 -29.5q-20 0 -33.5 11t-13.5 26
q0 14 21 34t59 50.5t61 54.5q47 49 82 105t35 75q0 17 -16 17q-6 0 -16.5 -2t-16.5 -2q-37 0 -69.5 36t-32.5 85z" />
    <glyph glyph-name="less" unicode="&#x3c;" horiz-adv-x="1202" 
d="M1169 176v-192l-1040 452v164l1040 453v-193l-790 -342z" />
    <glyph glyph-name="equal" unicode="=" horiz-adv-x="1202" 
d="M1165 827v-194h-1032v194h1032zM1165 403v-194h-1032v194h1032z" />
    <glyph glyph-name="greater" unicode="&#x3e;" horiz-adv-x="1202" 
d="M129 176l791 342l-791 342v193l1040 -453v-164l-1040 -452v192z" />
    <glyph glyph-name="question" unicode="?" horiz-adv-x="903" 
d="M983 973v-2q0 -69 -25.5 -129.5t-65.5 -103.5t-96.5 -79t-110.5 -59t-116 -41q-11 -4 -43 -14.5t-38.5 -13t-28.5 -11t-27.5 -13.5t-20 -15t-21 -20.5t-15.5 -25t-17 -32.5q-10 -19 -14 -26t-14.5 -15t-24.5 -8q-43 0 -43 41q0 15 8 55q32 133 49 221q15 64 32 82t85 43
q2 1 39 14.5t51 19.5t51 24t55.5 31.5t47.5 37.5t43 47.5t25.5 55.5t11.5 67q0 56 -35.5 91.5t-83.5 35.5q-25 0 -50 -19.5t-61 -60t-55 -57.5q-67 -60 -127 -60q-72 0 -72 66q0 35 21 100q23 64 63 94q66 49 203 49q185 0 302.5 -104.5t117.5 -265.5zM389 143v-2
q0 -68 -49 -119t-125 -51q-65 0 -105 38t-40 93q0 69 50.5 120.5t123.5 51.5q65 0 105 -38t40 -93z" />
    <glyph glyph-name="at" unicode="@" horiz-adv-x="1486" 
d="M1237 938l-125 -502q-8 -40 -8 -63q0 -34 18 -58t54 -24q58 0 111.5 58.5t85.5 152.5t32 194q0 98 -40 190.5t-111 165t-178 116.5t-230 44q-109 0 -210.5 -45.5t-181 -127.5t-127.5 -208.5t-48 -277.5q0 -123 48.5 -231.5t130 -182.5t189 -116.5t223.5 -42.5
q126 0 211 25.5t181 76.5l36 -80q-233 -123 -430 -123q-157 0 -289 43.5t-220.5 113.5t-150.5 160.5t-90 183.5t-28 183q0 163 60.5 304t163 237t240.5 150.5t292 54.5q192 0 347.5 -79t244 -219t88.5 -313q0 -81 -26 -166.5t-73 -159t-122 -120.5t-164 -47q-39 0 -72 12.5
t-54 31t-35.5 39.5t-20.5 38.5t-5 27.5h-4q-7 -15 -27 -38t-50.5 -48t-73.5 -42.5t-86 -18.5q-101 -1 -150 71t-49 187q0 87 29 176t79.5 161.5t127.5 118.5t165 46q104 0 150 -101l20 72h152zM690 483v-2q0 -71 24.5 -117.5t78.5 -46.5q66 0 118.5 65t80 155.5t32.5 187.5
q0 131 -88 131q-60 0 -118 -58.5t-93 -145.5t-35 -169z" />
    <glyph glyph-name="A" unicode="A" horiz-adv-x="1437" 
d="M850 442h-391q-23 0 -33 -14q-27 -33 -129 -176q-47 -66 -47 -102q0 -23 15.5 -37t31 -18.5t41.5 -8.5q34 -5 51 -15t17 -34q0 -45 -82 -45q-35 0 -105 4t-106 4q-33 0 -96 -4t-89 -4q-61 0 -61 43q0 16 12.5 27.5t24 15.5t41.5 12q36 8 74.5 39t60.5 56.5t80 95.5
q146 179 429 535t324 407q32 40 73 54.5t118 14.5q52 0 70 -13.5t18 -41.5q2 -80 -3 -486t-3 -497q0 -95 12 -126t62 -38q58 -11 69 -19q12 -10 12 -30q0 -17 -8 -28t-23.5 -15t-25.5 -5t-27 -1q-19 0 -117 4t-155 4q-82 0 -166 -4t-98 -4q-76 0 -76 43q0 21 14.5 32
t28 13.5t47.5 4.5q6 1 10 1q57 3 80.5 29.5t24.5 107.5v219zM854 549l4 430l-4 2q-148 -190 -340 -432h340z" />
    <glyph glyph-name="B" unicode="B" horiz-adv-x="1456" 
d="M1026 709v-4q46 -3 89 -12t93 -30t86 -52t60 -83t24 -118q0 -97 -52.5 -184t-131.5 -142q-144 -92 -401 -92q-31 0 -177.5 4t-263.5 4q-97 0 -211 -4t-131 -4t-25.5 0.5t-22 2.5t-20 6t-11.5 12t-5 20q0 36 45 48q18 5 76 13q59 4 80 37t53 148q190 640 215 725
q3 12 12 42.5t13 47.5t4 26q0 19 -7.5 31t-21.5 17.5t-23.5 7t-25.5 2.5q-6 1 -16.5 2t-16 1.5t-13.5 1.5t-12.5 2.5t-10 3.5t-8.5 5t-6 6.5t-4 9t-1 11.5q0 55 94 55q27 0 136 -4t155 -4q110 0 258.5 4t190.5 4q101 0 175.5 -23.5t113 -61.5t56 -78t17.5 -81
q0 -65 -31.5 -119.5t-77.5 -88.5t-107 -59.5t-111.5 -37.5t-100.5 -18zM924 1171h-2q-86 0 -109 -16q-17 -11 -35 -76l-73 -248q-4 -12 -14.5 -48.5t-16.5 -57.5q14 0 40 1t40 1q166 3 264 88q45 44 71.5 99.5t26.5 105.5q0 74 -55.5 112.5t-136.5 38.5zM614 532l-71 -241
q-23 -81 -23 -121q0 -70 133 -70q146 0 240 82q51 46 81 111t30 139q0 109 -66 152t-188 43q-101 0 -105 -4q-6 -3 -31 -91z" />
    <glyph glyph-name="C" unicode="C" horiz-adv-x="1325" 
d="M94 467v2q1 166 114 335t292 279q169 105 377.5 162.5t398.5 57.5q164 0 164 -60q0 -9 -13 -63q-8 -29 -28 -92t-25 -84q-12 -43 -29 -66t-47 -23q-69 0 -69 105q0 10 4 59.5t4 61.5q0 29 -14.5 43t-55.5 14q-110 0 -231.5 -57.5t-222.5 -157.5q-107 -107 -170.5 -242.5
t-63.5 -283.5q0 -43 8.5 -90.5t29.5 -100t52.5 -93.5t82 -68t112.5 -27q95 0 156.5 53.5t119.5 159.5q2 4 10 19.5t11 21t11 19.5t12.5 20t12.5 16.5t14 15.5t14 10.5t16.5 8t17.5 2.5q18 0 35.5 -10.5t17.5 -34.5q0 -21 -14 -82q-9 -30 -24 -86.5t-26.5 -96.5t-19.5 -55
q-24 -40 -173 -64t-275 -24q-243 0 -401 117q-88 66 -136.5 163t-48.5 216z" />
    <glyph glyph-name="D" unicode="D" horiz-adv-x="1574" 
d="M170 240l229 774q25 88 25 106q0 21 -9 34t-26 17.5t-27 5.5t-26 1q-86 0 -86 45q0 19 10.5 30.5t30.5 16t33 5.5t34 1q61 0 182.5 -4t180.5 -4q55 0 167 4t167 4q232 0 372 -115q78 -65 120 -158t42 -196q0 -158 -68 -311t-188 -267q-252 -237 -637 -237q-40 0 -184 4
t-260 4q-73 0 -154 -4t-92 -4h-6q-17 0 -27 0.5t-25.5 4t-23.5 13.5t-8 25q0 32 24 41t95 14q61 4 85.5 36t49.5 114zM778 1079l-233 -792q-37 -124 -37 -144q0 -23 18 -35.5t38 -15t52 -2.5q260 0 435 242q79 111 127.5 260.5t48.5 284.5q0 134 -71 215.5t-208 81.5
q-116 0 -133 -17q-19 -14 -37 -78z" />
    <glyph glyph-name="E" unicode="E" horiz-adv-x="1292" 
d="M639 610l-100 -340q-27 -98 -27 -123q0 -33 32 -40t136 -7q189 0 268 47q24 14 49 41t35 41t38.5 58.5t29.5 46.5q21 29 32 38t31 9q25 0 37 -14.5t12 -34.5q0 -4 -12 -58q-5 -21 -25.5 -94.5t-29.5 -113.5q-9 -43 -29.5 -58.5t-64.5 -15.5q-34 0 -233.5 4t-362.5 4
q-183 0 -313.5 -4t-131.5 -4q-84 0 -84 43q0 16 7 26.5t23.5 15.5t31.5 7t43 4q64 3 88.5 35t54.5 133q114 384 225 768q2 9 9 30.5t10.5 37t3.5 26.5q0 59 -80 62q-5 0 -15.5 1t-15 1t-13 1t-12.5 2t-10.5 3t-9.5 4.5t-7.5 6t-6 8t-3 10t-1.5 12.5q0 22 16.5 33.5
t32.5 13.5t41 2q17 0 164.5 -4.5t292.5 -3.5q129 0 305.5 4t208.5 4q37 0 53 -5.5t16 -25.5q0 -18 -65 -231q-9 -31 -15.5 -47.5t-21 -32.5t-33.5 -16q-25 0 -34.5 14t-14.5 47q-8 124 -49 156q-20 17 -52.5 24.5t-60.5 8.5t-98 1q-96 0 -119 -10q-17 -10 -35 -78l-110 -368
q88 0 129 2q71 2 109 22.5t75 85.5q34 66 46 77q13 11 34 11q16 0 29.5 -11.5t13.5 -35.5q0 -14 -9.5 -48t-21.5 -69.5t-14 -43.5q-13 -37 -34.5 -115t-29.5 -115q-15 -51 -36 -64q-12 -8 -27 -8q-43 0 -47 46q-1 11 -1 26t0.5 33.5t0.5 28.5q0 21 -6 34.5t-13.5 21
t-25.5 11.5t-30.5 4.5t-39.5 1.5h-133z" />
    <glyph glyph-name="F" unicode="F" horiz-adv-x="1214" 
d="M637 600l-100 -336q-2 -6 -7 -24t-8.5 -29.5t-6.5 -27t-3 -25.5q0 -28 16.5 -42.5t34 -17.5t65.5 -7q6 -1 9 -1q65 0 65 -45q0 -53 -92 -53q-26 0 -139 4t-188 4q-54 0 -143.5 -4t-108.5 -4q-52 0 -75.5 8.5t-23.5 38.5q0 16 7 26t27 15t35 6.5t50 3.5q12 1 22 3.5t18 5
t15.5 10t12.5 10.5t10.5 14.5t8.5 15.5t8.5 19.5t7 19.5t7 23.5t7.5 24.5q209 707 233 788q25 85 25 104q0 56 -96 56q-1 0 -8.5 0.5t-10 1t-9.5 1.5t-10.5 2.5t-9.5 3.5t-9 5t-6.5 7t-5 9.5t-1.5 12.5q0 33 27 42t88 9q3 0 116 -4t242 -4q162 0 362.5 4t256.5 4
q34 0 34 -27q0 -4 -1.5 -11t-4 -17.5t-4.5 -18.5q-57 -187 -67 -217q-7 -29 -22.5 -54.5t-41.5 -25.5q-41 0 -49 64q-3 55 -18 102q-20 51 -76.5 74.5t-161.5 23.5h-72q-41 0 -56.5 -14.5t-27.5 -50.5l-114 -395h137q75 0 113.5 19t68.5 77q19 39 26 51.5t21 24.5t33 12
q20 0 31.5 -12.5t11.5 -32.5q0 -17 -14 -68q-63 -190 -90 -321q-10 -40 -25 -60t-43 -20q-23 0 -33.5 11.5t-13.5 33.5q0 11 1 35.5t1 38.5q0 61 -30.5 80.5t-100.5 19.5h-127z" />
    <glyph glyph-name="G" unicode="G" horiz-adv-x="1533" 
d="M96 467v2q0 182 112.5 347.5t297.5 279.5q157 98 352.5 152.5t396.5 54.5q151 0 215 -21q58 -16 58 -47q0 -13 -17 -55q-30 -90 -75 -195q-16 -41 -33.5 -61.5t-48.5 -20.5q-33 0 -47.5 22.5t-14.5 55.5q0 19 6.5 77.5t6.5 74.5q0 31 -21.5 48t-81.5 17
q-108 0 -244.5 -62t-246.5 -173q-104 -99 -169 -235t-65 -288q0 -70 24.5 -138.5t63.5 -117.5q81 -106 215 -106q67 0 99 28q20 16 43 91l57 198q12 40 12 68q0 30 -20.5 45t-65.5 18q-56 4 -71 16q-11 10 -11 27q0 32 29 45t66 13q43 0 132 -5.5t132 -5.5q70 0 170 5.5
t116 5.5q76 0 76 -43q0 -12 -4.5 -20.5t-10 -13.5t-20 -9t-22.5 -5.5t-31 -5.5q-8 -1 -12 -2q-23 -3 -39.5 -10.5t-26.5 -15t-19 -26.5t-13 -30.5t-13 -42.5l-94 -331q-8 -27 -40.5 -40t-111.5 -26q-202 -35 -352 -35q-260 0 -422 101q-65 41 -111.5 97.5t-67.5 113.5
t-29.5 101t-8.5 83z" />
    <glyph glyph-name="H" unicode="H" horiz-adv-x="1671" 
d="M639 610l-113 -385q-20 -77 -20 -86q0 -20 11 -31.5t21.5 -14t30.5 -5.5q47 -10 47 -49q0 -47 -86 -47q-40 0 -131 4t-135 4q-40 0 -121 -4t-118 -4q-21 0 -32.5 1t-27.5 4.5t-23.5 13.5t-7.5 26q0 36 41 43q71 10 97 18q37 11 56.5 40t33.5 77l248 842q18 52 18 73
q0 17 -7 27.5t-25 16t-33 7t-46 3.5q-57 0 -57 39q0 19 10.5 30.5t32 16t36 5.5t38.5 1q37 0 121 -4t127 -4t131.5 4t126.5 4q67 0 67 -47q0 -33 -61 -51q-60 -11 -80 -38.5t-43 -105.5l-94 -313h252h252l90 305q20 62 20 90q0 32 -19.5 45t-56.5 21q-14 5 -23 9.5t-16.5 14
t-7.5 23.5q0 47 88 47q26 0 108 -4t122 -4q45 0 137 4t133 4q19 0 29 -1t24 -4.5t20.5 -13.5t6.5 -26q0 -18 -11.5 -28t-23 -12t-33.5 -3q-50 -1 -78.5 -30.5t-50.5 -100.5l-241 -817q-2 -10 -8.5 -32t-9.5 -36.5t-3 -24.5q0 -33 20.5 -45t59.5 -14q66 -4 66 -43
q0 -19 -9.5 -30.5t-29 -16t-33 -5.5t-37.5 -1q-22 0 -117 4t-143 4q-50 0 -126.5 -4t-104.5 -4q-20 0 -31 1t-27.5 4t-24.5 11.5t-8 22.5q0 43 54 51q74 14 98 35q26 24 49 106l115 387h-252h-252z" />
    <glyph glyph-name="I" unicode="I" horiz-adv-x="806" 
d="M514 156v-2q0 -62 94 -66q70 0 70 -43q0 -19 -9.5 -30.5t-28.5 -16t-31 -5.5t-31 -1q-16 0 -118 4t-192 4q-55 0 -146.5 -4t-121.5 -4q-36 0 -58 12t-22 33q0 33 25.5 42.5t89.5 14.5h6q59 4 83 38.5t54 137.5l225 764q21 72 21 94q0 32 -25.5 42t-74.5 10
q-12 -1 -26.5 1t-29 13t-14.5 31q0 51 106 51q27 0 113.5 -4t157.5 -4q78 0 174.5 4t128.5 4q70 0 70 -43q0 -21 -15 -33t-30 -14.5t-54 -6.5q-5 -1 -8 -1q-66 -4 -87 -31t-50 -123l-217 -739q0 -1 -10 -35.5t-14.5 -56.5t-4.5 -37z" />
    <glyph glyph-name="J" unicode="J" horiz-adv-x="862" 
d="M469 1126v2q0 26 -17.5 39t-35 15t-47.5 2q-29 -2 -48.5 9.5t-19.5 35.5q0 17 9 27.5t28 14.5t31.5 4.5t36.5 0.5h10q23 0 110.5 -4t145.5 -4q67 0 169 4t124 4q69 0 69 -45q0 -47 -73 -47q-75 -2 -106.5 -35t-61.5 -145q-118 -410 -175 -615q-30 -107 -46.5 -159
t-49 -136t-73.5 -148.5t-95 -123.5q-108 -118 -248.5 -192t-285.5 -74q-25 0 -48 2.5t-53.5 12t-52.5 25.5t-37.5 45.5t-15.5 69.5q0 70 45 117t109 47q84 0 120 -74q16 -26 33 -80q15 -43 49 -43q39 0 73 38t54 96q12 33 25 76.5t28.5 101t24.5 88.5q64 219 266 923
q29 96 29 125z" />
    <glyph glyph-name="K" unicode="K" horiz-adv-x="1572" 
d="M473 1118v2q0 35 -26 48t-82 18q-54 0 -54 43q0 17 10.5 27t31.5 14t35 5t38 1q15 0 97.5 -4t138.5 -4q64 0 163 4t107 4q76 0 76 -43q0 -25 -19.5 -35.5t-58.5 -15.5q-54 -7 -72 -33.5t-47 -122.5q-88 -292 -106 -352q4 0 4 -4q5 4 18 13.5t23 16.5q74 60 208.5 167
t165.5 132q28 24 43.5 37t41.5 38t38.5 43.5t12.5 31.5q0 28 -54 35q-30 5 -44.5 14.5t-14.5 30.5q0 47 98 47q18 0 84 -4t103 -4q41 0 119.5 4t93.5 4q57 0 57 -39q0 -26 -16.5 -37.5t-57.5 -19.5q-34 -6 -71.5 -23t-62.5 -33t-64 -43q-216 -149 -420 -303q33 -6 52 -25.5
t44 -76.5l211 -461q34 -72 60 -96.5t75 -28.5q20 -3 31 -5.5t23.5 -7.5t18 -14t5.5 -22q0 -49 -78 -49q-30 0 -95 4t-97 4q-30 0 -94.5 -4t-98.5 -4q-25 0 -38.5 15.5t-35.5 62.5q-170 363 -205 434q-36 79 -55 84q-31 -13 -69 -66l-78 -260q-23 -81 -23 -104q0 -65 74 -70
q24 -3 34 -5t24.5 -6.5t20 -12.5t5.5 -21q0 -51 -76 -51q-31 0 -129 4t-164 4q-54 0 -147.5 -4t-118.5 -4q-94 0 -94 47q0 21 14 31.5t33.5 14t60.5 5.5q52 3 73.5 35.5t45.5 114.5q22 75 102.5 349.5t124.5 422.5q3 13 10.5 37t12 41t4.5 28z" />
    <glyph glyph-name="L" unicode="L" horiz-adv-x="1179" 
d="M424 1126v2q0 20 -16 31.5t-33 14.5t-45 4q-72 0 -72 49t102 49q10 0 92 -4t183 -4q67 0 170.5 4t124.5 4q80 0 80 -47t-78 -51q-84 -5 -111.5 -26.5t-52.5 -104.5q-46 -151 -129 -432t-109 -369q-28 -92 -28 -109t11 -22.5t38 -5.5h65q86 0 138.5 7t101.5 29t85 62
t75 108q18 31 31.5 45.5t33.5 14.5q22 0 35.5 -13.5t13.5 -39.5q0 -12 -4 -33t-14 -55.5t-16 -56.5t-20.5 -69t-18.5 -59q-10 -40 -25 -48.5t-71 -8.5q-57 0 -242 4t-295 4q-105 0 -223 -4t-156 -4q-24 0 -36 0.5t-30 3t-26.5 7t-15.5 14.5t-7 24q0 51 90 51q67 3 94.5 33
t53.5 119q203 684 227 764q29 89 29 118z" />
    <glyph glyph-name="M" unicode="M" horiz-adv-x="1859" 
d="M305 1227v2q0 47 90 47q20 0 95 -3t133 -3q54 0 136 3t101 3q30 0 36.5 -14t6.5 -63v-5v-5v-5q3 -109 9.5 -336t9.5 -344h4q282 408 475 686q38 59 51 70q20 15 51 16q21 0 79.5 -3t111.5 -3q39 0 120.5 3t104.5 3q80 0 80 -43q0 -42 -74 -51q-68 -3 -93 -29.5
t-50 -122.5q-24 -95 -91.5 -368t-105.5 -422q-18 -83 -18 -99q0 -52 86 -57q80 0 80 -41q0 -51 -84 -51q-17 0 -124.5 4t-187.5 4q-60 0 -146 -4t-99 -4q-20 0 -32 1t-29.5 4.5t-26.5 13t-9 24.5q0 46 70 51q45 1 73.5 10.5t46 33.5t25 44t19.5 64q33 130 98 391t98 391
l-6 2q-107 -159 -323 -478t-324 -478q-27 -39 -45.5 -51.5t-58.5 -12.5q-51 0 -64.5 26.5t-13.5 100.5q-3 105 -9.5 323.5t-9.5 331.5q-2 40 -4 119t-4 119h-4q-22 -60 -99 -264t-118 -316q-74 -203 -74 -278q0 -42 19.5 -59t52.5 -21q24 -3 36.5 -5.5t24 -12.5t11.5 -27
q0 -47 -74 -47q-11 0 -79 4t-114 4q-40 0 -100 -4t-74 -4q-69 0 -69 39q0 26 19.5 38t64.5 15q72 7 102.5 46t73.5 159q208 563 278 758q23 66 23 81t-6.5 25.5t-14.5 16t-22.5 9t-22.5 4t-22 1.5q-70 0 -70 43z" />
    <glyph glyph-name="N" unicode="N" horiz-adv-x="1503" 
d="M1171 432h5q101 339 172 594q20 62 20 100q0 33 -25 43.5t-69 12.5q-64 4 -64 43q0 18 10 29.5t28.5 15.5t31 5t31.5 1q9 0 60.5 -4t92.5 -4q40 0 102 4t74 4q66 0 66 -45q0 -13 -5 -21.5t-11.5 -14t-22.5 -9.5t-27.5 -5.5t-37.5 -4.5q-51 -4 -74.5 -37t-54.5 -131
q-54 -190 -158 -540t-131 -443q-8 -28 -23 -36.5t-69 -8.5h-29t-22 1t-16.5 1t-12.5 3.5t-9 4t-7 6.5t-6 7.5t-6 10.5t-7 13l-465 989h-4q-18 -65 -81 -291t-97 -350q-43 -151 -43 -209q0 -43 24.5 -58.5t67.5 -19.5q34 -5 50.5 -15.5t16.5 -33.5q0 -47 -75 -47
q-5 0 -75.5 4t-115.5 4q-37 0 -90 -4t-65 -4q-86 0 -86 45q0 23 16 33.5t47 13.5q70 7 98 37q37 44 70 160q71 238 223 759q21 69 21 90q0 54 -84 54q-20 0 -32.5 2t-26 13.5t-13.5 33.5q0 15 6.5 24.5t21.5 13t26.5 4.5t33.5 1q10 0 72.5 -3t116.5 -3q50 0 121 3t83 3
q13 0 22 -2.5t16 -11t10.5 -14.5t12 -24t13.5 -28q60 -127 179.5 -382t178.5 -382z" />
    <glyph glyph-name="O" unicode="O" horiz-adv-x="1505" 
d="M1507 766v-2q0 -121 -40.5 -239.5t-115 -217.5t-173 -175t-222.5 -118.5t-256 -42.5q-247 0 -405 152q-172 158 -172 401q0 163 68 309t180 248.5t259.5 162t303.5 59.5q128 0 236 -42t181.5 -114.5t114.5 -170.5t41 -210zM940 1200h-2q-107 0 -194.5 -99t-155.5 -263
q-53 -130 -88 -273.5t-35 -226.5q0 -121 60 -192.5t161 -71.5q89 0 161.5 54.5t113.5 127.5q71 116 135.5 324.5t64.5 347.5q0 127 -54.5 199.5t-166.5 72.5z" />
    <glyph glyph-name="P" unicode="P" horiz-adv-x="1376" 
d="M1477 989v-2q0 -134 -99 -254.5t-282 -171.5q-84 -29 -175 -38t-241 -11q-45 0 -70 -2q-46 -156 -71 -238q-25 -86 -25 -116q0 -40 26.5 -52.5t88.5 -17.5q59 -4 59 -41q0 -53 -94 -53q-17 0 -120.5 4t-184.5 4q-73 0 -157 -4t-101 -4q-105 0 -105 49q0 12 3 20
t11.5 13.5t16 9t24.5 5.5t28 3t36 2q18 1 32.5 7t24.5 11t20 20l15 22.5t13 31t10.5 32t11.5 38.5l234 786q16 72 16 76q0 60 -84 64q-51 5 -68.5 13t-17.5 34q0 25 18.5 37t69.5 12q15 0 133 -3t240 -3q83 0 206.5 3t180.5 3q177 0 278 -84q99 -80 99 -205zM1110 1016v2
q0 38 -10.5 65.5t-28 44t-43.5 26.5t-52.5 13.5t-60.5 3.5q-56 0 -79.5 -4.5t-31.5 -14t-16 -36.5q-118 -400 -141 -481q-5 -12 -1 -17.5t22 -5.5q213 0 329 140q53 62 83 135t30 129z" />
    <glyph glyph-name="Q" unicode="Q" horiz-adv-x="1519" 
d="M57 -311v2q0 48 62 85t155 60q50 17 156.5 69.5t185.5 82.5q-222 17 -355.5 169t-133.5 363q0 140 56 281t157 248q110 117 262 183t334 66q100 0 186 -22t149 -60t111.5 -89t78 -110.5t44.5 -122t15 -126.5q0 -188 -97.5 -361t-271.5 -276q-84 -63 -173.5 -101.5
t-203.5 -72.5q-187 -58 -262 -102l2 -2q97 21 199 8q75 -8 230 -50t216 -42q104 0 156 63q55 68 78 68q19 0 29 -15t10 -32q0 -42 -34.5 -95.5t-82.5 -91.5q-67 -59 -161 -95t-198 -36q-150 0 -344 98q-184 113 -219 113t-112 -70q-74 -59 -144 -59q-35 0 -57.5 20t-22.5 52
zM1165 924v2q0 123 -51.5 198.5t-165.5 75.5q-104 0 -191.5 -91.5t-156.5 -244.5q-55 -126 -90 -269.5t-35 -238.5q0 -41 6.5 -79.5t22.5 -77t40.5 -67t63.5 -46.5t88 -18q90 0 164 58.5t115 135.5q76 145 133 342.5t57 319.5z" />
    <glyph glyph-name="R" unicode="R" horiz-adv-x="1499" 
d="M1475 1020v-2q0 -67 -26.5 -125t-72.5 -101.5t-97 -74.5t-112 -55q-99 -39 -145 -46v-4q38 -9 63.5 -34t42.5 -74q42 -113 107 -303q9 -26 14.5 -39t18.5 -31t33.5 -27.5t50.5 -13.5q22 -4 32 -7t21.5 -13.5t11.5 -26.5q0 -49 -90 -49q-5 0 -66 3t-94 3q-62 0 -127 -3
t-75 -3q-27 0 -40.5 16.5t-27.5 63.5q-20 61 -117 358q-9 30 -13.5 44t-11.5 31.5t-14.5 24t-17.5 7.5q-4 1 -23 -0.5t-46 -3.5t-38 -3q-3 -10 -9 -31.5t-9 -31.5l-70 -233q-16 -70 -16 -82q0 -66 88 -66q25 -3 37 -5t25.5 -11.5t13.5 -24.5q0 -55 -105 -55q-27 0 -136.5 4
t-180.5 4q-53 0 -142 -4t-108 -4q-78 0 -78 43q0 30 22.5 39t82.5 12q64 3 88.5 35t56.5 143q105 351 227 772q21 70 21 86q0 26 -19 37.5t-55 14.5q-61 3 -77 12q-19 11 -19 35q0 57 113 57q28 0 161.5 -3t216.5 -3q57 0 175.5 3t203.5 3q64 0 121.5 -12t111.5 -39.5
t86 -80.5t32 -126zM1092 1018v2q0 40 -11 69t-28 44.5t-44.5 24.5t-51.5 11t-58 2q-50 0 -68 -4t-26.5 -15t-18.5 -46l-106 -361q-23 -71 -33 -110q8 0 24.5 1t24.5 1q132 6 254 104q65 53 103.5 125.5t38.5 151.5z" />
    <glyph glyph-name="S" unicode="S" horiz-adv-x="1140" 
d="M233 899v2q0 86 35.5 155.5t92.5 114.5t132.5 75.5t152 43.5t155.5 13q228 0 336 -54q59 -25 59 -63q0 -10 -14 -68q-29 -105 -31 -112q0 -1 -3.5 -12.5t-5 -15.5t-5.5 -14.5t-8 -15t-9.5 -11t-13 -9t-16.5 -2.5q-35 0 -50 47q-4 12 -12 39.5t-17.5 54t-23.5 53.5
q-45 86 -164 86q-83 0 -151 -49t-68 -129q0 -65 43 -113.5t172 -148.5q57 -44 93 -76.5t73 -76.5t54.5 -92t17.5 -103q0 -183 -170 -315t-422 -132q-73 0 -186.5 21.5t-186.5 56.5q-76 35 -76 82q0 38 41 205q11 40 25 58t39 18q29 0 42.5 -19t22.5 -57q1 -4 5 -22.5
t5.5 -25t6 -23t7.5 -25.5t8 -22.5t11 -24.5t13 -21q62 -94 190 -94q99 0 167.5 59.5t68.5 149.5q0 69 -46 127t-159 145q-43 33 -68.5 54.5t-60 57.5t-54 67t-33.5 73.5t-14 87.5z" />
    <glyph glyph-name="T" unicode="T" horiz-adv-x="1292" 
d="M418 276l260 883h-64q-69 0 -114 -7.5t-88 -35.5q-71 -40 -119 -125q-13 -25 -19.5 -36t-17.5 -25t-22.5 -19.5t-26.5 -5.5q-23 0 -35 14.5t-12 38.5q0 17 19.5 80t51.5 156.5t33 95.5q5 21 20 41.5t42 20.5q13 0 20 -5t20 -23t25 -32q14 -17 39 -20.5t98 -3.5h699
q114 0 149 18q33 16 56.5 33t34.5 24t24 7q19 0 31 -13t12 -32q0 -10 -8 -40.5t-21 -73.5t-24.5 -80.5t-24.5 -77.5t-16 -48q-5 -16 -9.5 -25.5t-13.5 -23.5t-22.5 -21.5t-30.5 -7.5q-53 0 -53 76q0 8 1 35.5t1 40.5q0 40 -11 59.5t-45.5 30t-103.5 10.5h-115l-264 -899
q-22 -73 -22 -106q0 -18 8 -29.5t26.5 -18t33 -9.5t44.5 -7q64 0 64 -45q0 -53 -103 -53q-45 0 -135 4t-135 4q-61 0 -170 -4t-131 -4q-90 0 -90 45q0 34 25 44t94 15q25 2 43.5 11.5t30.5 21t24 38.5t18 46.5t19 62.5z" />
    <glyph glyph-name="U" unicode="U" horiz-adv-x="1441" 
d="M182 258v2q0 53 11.5 102.5t48.5 169.5l147 510q19 66 19 86q0 27 -22.5 39.5t-51.5 12.5q-20 2 -32 4t-25.5 7t-20 14t-6.5 22q0 20 21 34.5t65 14.5q22 0 127.5 -4t183.5 -4q63 0 142 4t98 4q74 0 74 -45q0 -17 -11.5 -28.5t-24 -15.5t-36.5 -9q-66 -7 -91 -36
t-50 -112q-44 -157 -179 -606q-3 -10 -11.5 -41t-11.5 -42.5t-8 -33t-6.5 -36.5t-1.5 -29q0 -77 62.5 -120.5t155.5 -43.5q78 0 141.5 25t103.5 61t73 93t50 102.5t35 107.5q69 231 156 532q24 89 24 121q0 17 -5 28.5t-11 18t-22 10.5t-28 5.5t-38 3.5q-20 2 -33.5 12.5
t-13.5 28.5q0 49 71 49q15 0 73 -4t95 -4q38 0 91 4t65 4q59 0 59 -41q0 -27 -19 -37.5t-61 -17.5q-54 -9 -72.5 -30t-43.5 -103q-29 -95 -85.5 -286t-84.5 -286q-23 -80 -37.5 -123t-48.5 -111t-76 -112q-148 -158 -438 -158q-58 0 -116 6t-127 25t-121 49t-87 83.5
t-35 123.5z" />
    <glyph glyph-name="V" unicode="V" horiz-adv-x="1361" 
d="M733 348h4q52 76 144.5 211.5t170.5 249.5t146 215q45 70 45 115q0 17 -12.5 27.5t-23 13.5t-29.5 6q-20 2 -31.5 5.5t-21 13.5t-9.5 26q0 21 14.5 31.5t27 12t32.5 1.5q14 0 66 -4t87 -4q40 0 108.5 4t80.5 4q20 0 30 -0.5t24.5 -4t21 -12t6.5 -22.5q0 -25 -15 -35
t-55 -16q-29 -5 -55 -17.5t-43 -24.5t-41 -40t-33.5 -41t-36.5 -51q-632 -895 -700 -992q-15 -22 -37.5 -30t-87.5 -8q-40 0 -63.5 4t-34 14t-13 19.5t-2.5 27.5q-21 524 -45 1030q-1 66 -20.5 84t-81.5 23q-57 3 -57 43q0 49 98 49q11 0 100.5 -4t149.5 -4q65 0 152 4
t100 4q77 0 77 -43q0 -47 -71 -47q-63 -1 -82.5 -24.5t-16.5 -86.5v-47q17 -330 33 -680z" />
    <glyph glyph-name="W" unicode="W" horiz-adv-x="1843" 
d="M1012 676l-45 389q-3 27 -5.5 39.5t-10 35t-22 34.5t-36.5 16q-49 7 -49 37q0 49 61 49q59 0 180.5 -5t182.5 -5q67 0 189 4.5t169 5.5q47 0 47 -39q0 -10 -2.5 -17.5t-9.5 -13t-12 -9.5t-15.5 -7t-15.5 -4t-17 -3.5t-14 -2.5q-72 -9 -119 -68l-163 -227l65 -490h4
l447 660q3 5 12.5 19.5t15.5 24t11.5 23t5.5 23.5q0 31 -62 39q-63 8 -63 45q0 25 21 36t48 11q29 0 88.5 -5t86.5 -5q33 0 83.5 5t67.5 5q47 0 47 -47q0 -8 -3.5 -15t-11 -12.5t-15 -10t-19.5 -8.5t-19 -6t-19.5 -5.5t-16.5 -4.5q-80 -23 -137 -106l-680 -1000
q-19 -30 -29.5 -43.5t-34 -29t-49.5 -15.5q-14 0 -24.5 4t-17.5 14t-11 16.5t-7.5 23.5t-4.5 23t-3 26l-49 463h-4l-309 -457q-17 -26 -28.5 -41t-29.5 -34.5t-38.5 -28.5t-42.5 -9q-32 0 -52 25t-24.5 46t-10.5 65q-1 4 -1 6l-119 923q0 3 -2.5 18.5t-3.5 20.5t-3.5 19.5
t-5.5 21.5t-7 18.5t-9.5 18t-12.5 14t-16 11.5t-20 6q-62 11 -62 45q0 45 62 45q37 0 123.5 -5t128.5 -5q43 0 116 5t105 5q21 0 35 -12t14 -33q0 -37 -53 -45q-23 -4 -35.5 -8t-23.5 -17t-11 -35q0 -17 3.5 -49t4.5 -41l97 -671h4zM1280 995l59 90q43 49 43 78q0 21 -38 21
h-11h-6q-19 0 -30 -1t-24 -10.5t-13 -27.5q0 -21 7.5 -78.5t8.5 -71.5h4z" />
    <glyph glyph-name="X" unicode="X" horiz-adv-x="1488" 
d="M227 1231v2q0 15 8 24.5t25 13t28 4.5t31 1q18 0 107 -4t141 -4q72 0 173 4t116 4q66 0 66 -41q0 -6 -1.5 -11.5t-5.5 -10t-7 -8t-10.5 -7t-11.5 -5.5t-13.5 -6.5t-14.5 -6.5q-21 -5 -39 -21t-18 -37q0 -31 26 -94q44 -96 95 -221q39 41 116.5 124t116.5 124q51 47 51 88
q0 13 -12 23.5t-24 14.5t-33 9q-24 7 -35.5 17t-11.5 30q0 14 6.5 22.5t19.5 12t22.5 4t26.5 0.5q19 0 78 -4t109 -4q45 0 110.5 4t87.5 4q29 0 42.5 -12.5t13.5 -28.5q0 -27 -21.5 -38.5t-64.5 -18.5q-51 -11 -102 -48t-122 -106q-64 -60 -181.5 -173t-143.5 -138l203 -475
q38 -89 54 -110q29 -39 85 -44q27 -4 39 -7t23 -12t11 -26q0 -22 -13 -33t-25 -12.5t-35 -1.5q-19 0 -128 4t-192 4q-53 0 -143.5 -4t-108.5 -4q-86 0 -86 41q0 26 19 38.5t43 14.5q70 7 89 25q15 13 15 34t-28 95q-74 188 -111 280q-168 -172 -252 -260q-92 -92 -92 -127
q0 -22 15 -32.5t42 -18.5q49 -13 49 -43q0 -20 -15 -33.5t-46 -13.5t-103.5 4t-107.5 4q-34 0 -98.5 -4t-93.5 -4q-72 0 -72 43q0 21 17.5 33.5t62.5 19.5q56 6 116.5 48.5t153.5 133.5q248 240 363 353q-30 69 -92.5 208t-92.5 209q-38 83 -54 102q-30 38 -87 42
q-68 4 -68 47z" />
    <glyph glyph-name="Y" unicode="Y" horiz-adv-x="1370" 
d="M750 1128v-2q0 -28 22 -96q12 -42 33.5 -114.5t39 -133t32.5 -114.5q305 348 311 356q69 79 69 115q0 8 -3.5 15t-8 11t-14 7.5t-14.5 5t-15.5 3.5t-13.5 3q-32 7 -46 16t-14 29q0 47 70 47q15 0 67.5 -4t98.5 -4q39 0 97 4t81 4q70 0 70 -43q0 -39 -60 -49
q-51 -7 -82 -29t-79 -76q-77 -86 -231.5 -259t-231.5 -259q-92 -309 -94 -315q-21 -82 -21 -103q0 -34 22 -46t68 -15q68 0 68 -41q0 -17 -8.5 -27.5t-27 -15t-34.5 -5.5t-43 -1q-42 0 -149.5 4t-149.5 4q-45 0 -127 -4t-104 -4q-23 0 -35.5 1t-30 4.5t-25.5 13t-8 24.5
q0 21 14.5 32t33 14.5t63.5 7.5q7 1 10 1q29 2 49 12.5t33.5 33t20 40t17.5 52.5q1 2 1 3.5t1 3t1 3.5q34 111 90 305q-31 86 -92 258t-92 258q-25 65 -45.5 91t-59.5 30q-48 7 -67 15t-19 30q0 18 10 29.5t29 15.5t31.5 5t32.5 1q39 0 119.5 -4t119.5 -4q71 0 174 4t130 4
q67 0 67 -41q0 -15 -7 -25t-21 -16t-25 -8.5t-29 -5.5q-69 -5 -69 -52z" />
    <glyph glyph-name="Z" unicode="Z" horiz-adv-x="1335" 
d="M-12 31v2q0 18 80 114q476 552 794 928q68 71 68 84q0 6 -26 7t-128 1q-162 0 -249.5 -33.5t-139.5 -136.5q-37 -67 -52.5 -84.5t-47.5 -17.5q-20 0 -32.5 14t-12.5 33q0 41 77 268q15 46 34.5 57t90.5 11q54 0 184.5 -4t221.5 -4q88 0 267 4t218 4q42 0 62 -7t20 -28
q0 -12 -9.5 -29.5t-20.5 -32t-37 -46.5q-287 -337 -793 -932q-68 -80 -68 -88q0 -9 27 -11t137 -2q113 0 181 8t120.5 32t84.5 63.5t63 107.5q18 42 34.5 61t45.5 19q27 0 40 -15t13 -36q0 -20 -12 -66t-30.5 -107t-25.5 -93q-13 -57 -28.5 -70.5t-57.5 -13.5q-13 0 -180 4
t-366 4q-115 0 -202.5 -1.5t-163 -4t-97.5 -2.5q-26 0 -41 1.5t-29 11t-14 26.5z" />
    <glyph glyph-name="bracketleft" unicode="[" horiz-adv-x="659" 
d="M477 1393h357q26 0 39.5 -7t13.5 -30q0 -53 -76 -53h-80q-51 0 -68 -16.5t-36 -80.5l-420 -1431q-17 -53 -17 -70q0 -21 18 -28t60 -7h90q48 0 48 -45q0 -26 -18 -35.5t-54 -9.5h-375q-31 0 -42 6t-11 25t39 153l465 1582q8 29 20 38t47 9z" />
    <glyph glyph-name="backslash" unicode="\" horiz-adv-x="937" 
d="M137 1376v2q0 15 31 15h115q17 0 25.5 -10t15.5 -31l655 -1714q16 -46 16 -56q0 -14 -28 -14h-117q-16 0 -23.5 7.5t-15.5 27.5l-657 1720q-17 49 -17 53z" />
    <glyph glyph-name="bracketright" unicode="]" horiz-adv-x="659" 
d="M213 -422h-356q-18 0 -27.5 1.5t-18 9.5t-8.5 24q0 55 76 55h80q51 0 68 16t36 78l422 1432q15 62 15 70q0 21 -18 28.5t-58 7.5h-92q-26 0 -36.5 11t-10.5 35q0 26 17.5 34.5t53.5 8.5h375q31 0 42 -6t11 -23q0 -29 -39 -156l-464 -1581q-8 -28 -20 -36.5t-48 -8.5z" />
    <glyph glyph-name="asciicircum" unicode="^" horiz-adv-x="1202" 
d="M553 1268h178l438 -819h-196l-332 618l-334 -618h-194z" />
    <glyph glyph-name="underscore" unicode="_" horiz-adv-x="1024" 
d="M0 -154h1024v-102h-1024v102z" />
    <glyph glyph-name="grave" unicode="`" horiz-adv-x="894" 
d="M297 1327v2q0 30 25 50t59 20q56 0 121 -68l200 -196q48 -45 48 -62q0 -18 -23 -18q-14 0 -68 26l-286 148q-76 37 -76 98z" />
    <glyph glyph-name="a" unicode="a" horiz-adv-x="1300" 
d="M29 197v2q0 118 66 249.5t167 235.5q105 107 231 173.5t244 66.5q46 0 81.5 -13t56.5 -26t34 -13t37 46q14 26 55 28q49 2 166 2q58 -3 58 -37q0 -12 -17 -69q-26 -84 -84.5 -261t-81.5 -249q-22 -68 -22 -92q0 -27 18 -27q22 0 60 39.5t59 71.5q4 5 10 11.5t8.5 10t7 9
t7 7.5t6 5.5t5.5 5t5 3.5t5.5 3t5.5 1.5t6 0.5q16 0 25 -10t9 -23q0 -34 -44.5 -100t-100.5 -117q-73 -66 -157.5 -112t-163.5 -46q-93 0 -93 109q0 54 19 119q31 108 94 284h-4q-53 -87 -120 -173t-146.5 -164.5t-166.5 -127.5t-161 -49q-75 0 -129.5 61.5t-54.5 164.5z
M885 756v2q0 27 -21.5 46t-58.5 19q-65 0 -140.5 -55t-142.5 -135q-61 -72 -107 -165.5t-46 -158.5q0 -29 15 -52.5t42 -23.5q90 0 285 226q62 73 118 162.5t56 134.5z" />
    <glyph glyph-name="b" unicode="b" horiz-adv-x="1222" 
d="M1208 668v-2q0 -134 -66 -262.5t-173 -223t-250.5 -152t-290.5 -57.5q-40 0 -80 6t-87.5 24t-83 47t-59.5 80t-24 118q0 22 2.5 45.5t5 42.5t8.5 44.5t9 39.5t11.5 40t11 34t11.5 34t9 27q45 140 157 475q37 101 37 133q0 51 -53 51q-64 5 -78 14t-14 29q0 31 29 42
t104 18q155 12 326 76q29 10 47 10q37 0 37 -29q-2 -11 -27 -84l-240 -704l5 -2q260 356 485 356q73 0 127 -40.5t79 -100.5t25 -129zM891 637v2q0 44 -22.5 73t-53.5 29q-71 0 -184 -114.5t-197 -256.5t-84 -218q0 -82 90 -82q86 5 193.5 104t182.5 232t75 231z" />
    <glyph glyph-name="c" unicode="c" horiz-adv-x="970" 
d="M993 799v-2q0 -44 -38.5 -79.5t-84.5 -35.5q-59 0 -100 41q-30 26 -57 82q-22 43 -47 43q-31 0 -78 -49.5t-86 -116.5q-53 -84 -89 -185t-36 -184q0 -76 36 -118.5t97 -42.5q63 0 134 42t124 103q5 6 13.5 15t13 14t11.5 12.5t11 11.5t9.5 9t9 8t8 5.5t8 3.5t6.5 1
q14 0 22.5 -11t8.5 -24q0 -46 -74 -137q-80 -98 -193.5 -166t-244.5 -68q-141 0 -233.5 102t-92.5 240q0 102 48 212.5t132 197.5q91 96 220.5 155.5t279.5 59.5q124 0 193 -44.5t69 -94.5z" />
    <glyph glyph-name="d" unicode="d" horiz-adv-x="1294" 
d="M47 229v2q0 127 62 257.5t161 232.5q98 98 220.5 157.5t244.5 59.5q102 0 170 -68q28 87 64 211q14 42 14 68q0 63 -82 63q-35 0 -53.5 8.5t-18.5 32.5q0 29 19 38.5t51 11.5q209 20 307 61q9 3 35 13t42.5 15t25.5 5q14 0 23 -10.5t9 -28.5q0 -8 -16 -74l-264 -885
q-37 -129 -37 -155q0 -31 25 -31q20 0 54.5 38.5t55.5 74.5q39 59 64 59q28 0 28 -33q0 -30 -29.5 -82.5t-68.5 -95.5q-72 -82 -167.5 -142.5t-188.5 -60.5q-44 0 -70.5 24t-26.5 75q0 48 31 170q4 15 57 184l-4 4q-27 -40 -35 -51.5t-41.5 -58.5t-51.5 -68.5t-55 -65.5
t-63 -67.5t-65 -55.5t-71.5 -48.5t-71.5 -29t-76 -12.5q-56 0 -98.5 24.5t-65 64.5t-33 82.5t-10.5 86.5zM872 756v2q0 33 -21.5 51t-55.5 18q-67 0 -144 -54.5t-139 -131.5q-58 -77 -97.5 -168t-39.5 -162q0 -82 63 -82q100 0 277 226q57 72 107 162t50 139z" />
    <glyph glyph-name="e" unicode="e" horiz-adv-x="976" 
d="M993 735v-2q0 -38 -12 -71.5t-29.5 -59t-49.5 -49.5t-58 -40t-71.5 -32t-72.5 -25t-78 -20t-72 -15t-70 -12t-58 -10q-8 -2 -26.5 -6t-26.5 -6q-7 -40 -7 -68q0 -84 40 -128t112 -44t142.5 44.5t121.5 105.5q45 45 66 45q16 0 24.5 -9.5t8.5 -21.5q0 -27 -56 -100
q-79 -99 -197 -169.5t-257 -70.5q-80 0 -144 28t-102.5 74.5t-59 103t-20.5 118.5q0 111 53 226t140 207t211.5 151t256.5 59q26 0 57.5 -4t74.5 -17t77 -34t58 -59.5t24 -88.5zM686 854h-2q-85 0 -173.5 -104.5t-127.5 -274.5q116 23 205.5 65.5t128.5 100.5q45 67 45 133
q0 37 -20.5 58.5t-55.5 21.5z" />
    <glyph glyph-name="f" unicode="f" horiz-adv-x="849" 
d="M1204 1249v-2q0 -50 -36.5 -84.5t-92.5 -34.5q-69 0 -110 54q-24 38 -27 84q0 1 -1.5 5.5t-2.5 6.5t-2.5 6t-3.5 6.5t-5 5t-7 3.5t-9 1q-16 0 -41 -18.5t-49 -50.5q-46 -58 -98 -215q-15 -52 -33 -111h184q13 0 19 -0.5t13 -1.5t10 -4.5t3 -9.5q0 -8 -2.5 -18t-7.5 -25.5
t-8 -26.5q-4 -12 -12 -17.5t-14 -6t-23 -0.5h-193q-128 -473 -192 -678q-82 -279 -215 -414q-87 -89 -194 -130.5t-193 -41.5q-110 0 -172 46t-62 116q0 57 38 93t97 36q103 0 132 -88q8 -19 12 -51q4 -52 31 -52q40 0 94 123q39 84 110 328q77 261 207 713h-160
q-30 0 -30 16q0 22 18 70q5 12 13 17.5t15 6t27 0.5h150q84 230 240 355q78 61 177.5 100t188.5 39q95 0 156 -39.5t61 -110.5z" />
    <glyph glyph-name="g" unicode="g" horiz-adv-x="1132" 
d="M127 598v2q0 138 126 238t335 100q112 0 203 -31q67 -26 86 -26h251q35 0 48.5 -3.5t13.5 -15.5q0 -6 -19 -69q-8 -17 -18.5 -23t-36.5 -6h-145q59 -70 59 -154q0 -100 -69 -177.5t-168 -114.5t-203 -37q-58 0 -122.5 12t-105.5 31q-20 -10 -31.5 -26.5t-11.5 -31.5
q0 -47 71 -73.5t228 -55.5q338 -73 338 -256q0 -44 -18.5 -90.5t-62.5 -93.5t-108 -83.5t-163 -59.5t-219 -23q-101 0 -188 18.5t-144 48t-97.5 66t-58.5 71t-18 64.5q0 41 23.5 75.5t58.5 57t79.5 40.5t83.5 29.5t73 19.5q7 1 10 2q-129 66 -129 163q0 94 194 175q9 4 13 6
q-30 19 -52.5 37.5t-49 47.5t-41.5 66.5t-15 79.5zM745 723v2q0 48 -24.5 86.5t-79.5 38.5q-58 0 -111.5 -67t-81.5 -149t-28 -142q0 -51 27 -87t77 -36q53 0 105.5 60.5t84 143t31.5 150.5zM461 -379h2q83 0 151 37t68 100q0 22 -11 41t-25 31.5t-39 24t-41.5 17
t-43.5 13.5q-158 43 -229 76q-32 -11 -53.5 -21t-48 -27t-40.5 -41t-14 -54q0 -60 53 -106.5t125.5 -68.5t145.5 -22z" />
    <glyph glyph-name="h" unicode="h" horiz-adv-x="1275" 
d="M1225 659v-2q0 -77 -31 -170.5t-88 -183.5t-127.5 -165t-158.5 -121t-173 -46q-69 0 -111 27t-42 76q0 30 17 47.5t44 17.5q12 0 24 -7.5t16 -12t15 -19.5q21 -24 49 -24q48 0 106.5 105.5t98 236t43.5 213.5q5 53 -14.5 83.5t-58.5 30.5q-58 0 -137 -79t-144 -181
q-118 -184 -195 -389q-13 -30 -19.5 -42t-18.5 -27t-28.5 -19.5t-42 -8t-65.5 -3.5q-139 0 -139 43q0 8 21 78q140 443 286 891q1 5 9 32t13 49.5t5 38.5q0 67 -72 74q-53 4 -59 6q-21 6 -21 33q0 46 90 51q194 15 347 74q13 4 31.5 11.5t29.5 11.5t16 4q14 0 24.5 -11
t10.5 -22q0 -6 -20 -66q-40 -116 -120 -348.5t-120 -347.5l4 -2q40 53 70 89.5t81 88.5t96.5 84.5t104.5 56.5t117 25q106 0 171 -71t65 -210z" />
    <glyph glyph-name="i" unicode="i" horiz-adv-x="768" 
d="M762 1210v-2q0 -69 -55 -120.5t-129 -51.5q-62 0 -97 34.5t-35 82.5q0 70 54 123t127 53q61 0 98 -33.5t37 -85.5zM668 848v-2q0 -34 -33 -131q-14 -47 -131 -391q-27 -69 -27 -95q0 -32 25 -32q22 0 59 40t66 89q23 35 36.5 49t26.5 14q14 0 21.5 -10t7.5 -23
q0 -49 -80 -155q-68 -88 -170.5 -159t-200.5 -71q-71 0 -98 34.5t-27 92.5q0 47 39 166q18 59 42 129t52 151t39 113q19 59 19 60q0 26 -21 26q-37 0 -106 -81q-38 -42 -56 -58t-30 -16q-13 0 -21 10.5t-8 22.5q0 23 34.5 70.5t74.5 86.5q72 65 163.5 112.5t184.5 47.5
q47 0 83 -20.5t36 -69.5z" />
    <glyph glyph-name="j" unicode="j" horiz-adv-x="716" 
d="M776 1210v-2q0 -71 -57.5 -121.5t-120.5 -50.5q-43 0 -73.5 13.5t-44 34.5t-18.5 38.5t-5 34.5q0 69 55 120.5t127 51.5q64 0 100.5 -33t36.5 -86zM690 852v-2q0 -34 -28 -127q-40 -130 -114.5 -373.5t-105.5 -345.5q-75 -241 -206 -354q-144 -125 -363 -125
q-23 0 -43.5 1.5t-51.5 10t-52.5 22.5t-37.5 41.5t-16 65.5q0 46 31.5 82.5t81.5 36.5q45 0 71.5 -24.5t57.5 -75.5q19 -35 34.5 -53.5t35.5 -18.5q23 0 35 16t20 43q12 75 21.5 116.5t35.5 117.5q38 118 113 353t113 353q30 93 30 101q0 28 -24 28q-31 0 -105 -79
q-12 -12 -27 -28.5t-22 -23.5t-15.5 -15t-14.5 -10.5t-13 -2.5q-13 0 -21 10t-8 22q0 22 33 67t70 81q74 71 175 123.5t204 52.5q52 0 79 -24.5t27 -61.5z" />
    <glyph glyph-name="k" unicode="k" horiz-adv-x="1224" 
d="M1176 748v-3q0 -77 -36.5 -138t-98.5 -99t-134 -60t-153 -30l-2 -4q41 -8 60.5 -36.5t47.5 -103.5q11 -27 14.5 -35t16 -35t21.5 -39t22.5 -29.5t28 -24.5t30.5 -7q24 0 43 16.5t19 43.5q0 23 -15.5 38l-31 30t-15.5 38q0 20 17.5 38t42.5 18q41 0 67.5 -36t26.5 -85
q0 -99 -87 -166.5t-192 -67.5q-63 0 -115 19.5t-84 46t-59 68t-40 70.5t-28 70q-5 13 -7 19q-13 39 -28 60.5t-40 21.5q-26 0 -41 -51q-30 -102 -61 -184q-16 -51 -29 -72.5t-39 -32t-78 -10.5h-80q-59 1 -78.5 9.5t-19.5 27.5q0 16 20 90q35 116 134.5 446.5t152.5 511.5
q21 71 21 90q0 25 -16 38.5t-33.5 17t-47.5 4.5q-38 3 -47 15q-6 8 -6 22q0 29 27 37t135 18q133 5 252 49q7 2 23.5 8.5t28 9.5t20.5 3q10 0 21 -6.5t11 -24.5q0 -12 -35 -119l-192 -625l4 -4q29 46 69 94t99.5 104t134.5 91t150 35q94 0 151.5 -56t57.5 -134zM879 702v3
q0 25 -16.5 42t-43.5 17q-70 0 -186 -104t-170 -230q30 0 59 2q143 10 250 95t107 175z" />
    <glyph glyph-name="l" unicode="l" horiz-adv-x="688" 
d="M68 84v2q0 91 59 281q201 641 221 704q21 78 21 90q0 31 -21 39t-72 10q-57 0 -57 35q0 27 23.5 38.5t79.5 14.5q76 5 169 25.5t152 46.5q54 23 68 23q34 0 34 -31q0 -8 -18 -68q-64 -208 -299 -952q-31 -107 -31 -127q0 -12 6 -21.5t17 -9.5q23 0 67.5 50t81.5 104
q29 41 47 41q13 0 20 -10t7 -23q0 -27 -30.5 -78t-69.5 -94q-69 -80 -166.5 -141.5t-194.5 -61.5q-114 0 -114 113z" />
    <glyph glyph-name="m" unicode="m" horiz-adv-x="1849" 
d="M598 819v-2q0 -31 -9.5 -72t-30 -113t-32.5 -120l6 -2q29 53 59 102.5t77.5 112t95 107t107.5 75.5t118 31q74 0 109 -45.5t35 -114.5q0 -34 -7.5 -73.5t-25 -101.5t-19.5 -71l6 -2q36 61 56.5 94.5t62 90t82.5 96.5q55 53 123.5 90t136.5 37q27 0 53 -6.5t54 -22
t44.5 -48.5t16.5 -79q0 -55 -33 -159q-32 -94 -106 -310q-23 -67 -23 -90q0 -30 27 -30q37 0 131 126q43 62 62 62q28 0 28 -33q0 -34 -38 -94t-85 -109q-68 -72 -155.5 -123t-173.5 -51q-18 0 -35.5 4t-38 14.5t-33 33.5t-12.5 55q0 47 51 198q16 48 48.5 139.5t43.5 123.5
q53 144 53 172q0 39 -38 39t-105 -73t-127 -179q-124 -211 -184 -402q-12 -36 -18.5 -51t-22.5 -29t-38.5 -17t-64.5 -3h-49q-60 0 -82 7.5t-22 29.5q0 9 12 55q20 70 75 242t77 245q28 86 28 117q0 47 -37 47q-33 0 -91.5 -64t-106.5 -151q-56 -85 -117 -215t-96 -225
q-25 -58 -51.5 -73t-89.5 -15h-58q-64 0 -82 8.5t-18 30.5q0 24 26 100q25 82 76.5 246t77.5 246q21 73 21 92q0 29 -19 29q-34 0 -119 -105q-16 -19 -22 -26t-17 -18.5t-19 -16t-15 -4.5q-11 0 -20 9t-9 27q0 17 36.5 71.5t74.5 94.5q154 158 296 158q51 0 80 -29.5
t29 -89.5z" />
    <glyph glyph-name="n" unicode="n" horiz-adv-x="1400" 
d="M1264 772v-2q0 -27 -23 -117q-47 -135 -108 -288q-5 -13 -12.5 -31t-11 -27t-8.5 -21.5t-7 -19.5t-4.5 -15.5t-3.5 -14.5t-1 -11q0 -16 9 -25.5t22 -9.5q45 0 127 105q4 5 12.5 17t13 18t12.5 16t13 15t11.5 11t12.5 8.5t11 2.5q14 0 23.5 -10.5t9.5 -22.5
q0 -62 -117 -186q-81 -79 -179 -136t-194 -57q-18 0 -37 4t-41.5 15t-36.5 34.5t-14 57.5q0 65 45 188q14 37 51 132.5t60 154.5q43 118 43 139q0 23 -12 35t-31 12q-43 0 -113 -66.5t-135 -164.5q-58 -79 -121 -197.5t-98 -222.5q-15 -44 -28 -61.5t-43 -26t-95 -8.5h-49
q-23 0 -35.5 0.5t-31.5 3.5t-28 11t-9 20q0 30 18 75q152 458 170 515q3 11 8.5 27t8.5 25t5.5 20t2.5 20q0 12 -8 20t-21 8q-20 0 -60 -37.5t-75 -80.5q-33 -43 -51 -43q-14 0 -22.5 9.5t-8.5 22.5q0 23 33 73.5t71 86.5q65 67 149 116.5t161 49.5q124 0 124 -117
q0 -46 -22 -125q-12 -44 -59 -190l4 -4q48 79 103 149.5t124.5 138.5t151 108t161.5 40q88 0 135.5 -48t47.5 -118z" />
    <glyph glyph-name="o" unicode="o" horiz-adv-x="1134" 
d="M1085 532v-2q0 -106 -47 -207.5t-129 -177.5q-83 -78 -192.5 -126t-218.5 -48q-190 0 -311 116t-121 290q0 111 49.5 215t129.5 179.5t186 121t216 45.5q190 0 314 -116t124 -290zM799 682v2q0 64 -28 111t-93 47q-57 0 -112 -53t-99 -140q-51 -96 -82 -209.5t-31 -197.5
q0 -73 28.5 -122.5t94.5 -49.5q113 0 213 198q48 92 78.5 206.5t30.5 207.5z" />
    <glyph glyph-name="p" unicode="p" horiz-adv-x="1220" 
d="M1198 653v-2q0 -130 -63.5 -266.5t-173.5 -234.5q-83 -79 -193.5 -120t-228.5 -44q-87 -3 -162 34q-7 -25 -24.5 -83.5t-26.5 -90.5q-27 -88 -27 -118q0 -27 10 -45t29 -26t35 -11t39 -4q28 -1 37.5 -2t28 -5t25.5 -12.5t7 -23.5q0 -22 -20.5 -33.5t-51.5 -11.5
q-54 0 -139 6q-114 4 -184 4q-51 0 -168 -7.5t-131 -7.5q-24 0 -41 10t-17 31q0 28 23 37.5t82 16.5q68 6 92.5 41.5t58.5 154.5l271 916q3 6 -0.5 8.5t-12.5 1.5q-21 -3 -82.5 -17t-83.5 -16q-28 0 -28 31q0 41 55 65q36 17 156 43q18 3 24.5 9.5t12.5 27.5l45 148
q12 39 21.5 54t31.5 19q45 11 139 11q75 0 90 -2q37 -3 37 -27q0 -5 -3.5 -20t-4.5 -19q-6 -18 -47 -155q58 9 115 12q74 4 106 4q342 0 342 -281zM723 827h-2q-49 0 -111 -16q-6 -19 -18.5 -58t-18.5 -59q-22 -70 -65 -211t-64 -211q-24 -82 -24 -122q0 -35 27.5 -54.5
t64.5 -19.5q124 0 250 217q54 88 89.5 191t35.5 186q0 157 -164 157z" />
    <glyph glyph-name="q" unicode="q" horiz-adv-x="1218" 
d="M33 213v2q0 122 65 252.5t166 232.5q103 103 233.5 170.5t245.5 67.5q30 0 61.5 -6.5t51.5 -13t74 -25.5q46 -16 78 -16q34 0 59 13t61 44q34 27 60 27q39 0 39 -33q0 -17 -23 -88q-59 -197 -171 -561.5t-140 -458.5q-27 -98 -27 -111q0 -61 78 -69q28 -3 42.5 -5.5
t27 -11t12.5 -24.5q0 -45 -68 -45q-32 0 -118 6q-114 4 -148 4q-26 0 -158 -7.5t-153 -7.5q-17 0 -26.5 1t-21 10t-11.5 26q0 29 24.5 38t93.5 16q31 3 52.5 13.5t37.5 34t26.5 48.5t25.5 71l163 539l-2 4q-30 -46 -63 -89t-85 -98.5t-103.5 -95.5t-116.5 -68t-127 -28
q-102 0 -158.5 73t-56.5 169zM877 752v2q0 38 -24 55.5t-56 17.5q-67 0 -142 -60t-141 -149q-62 -83 -107 -178t-45 -157q0 -43 21 -68t53 -25q58 0 137.5 69.5t145 162.5t112 187t46.5 143z" />
    <glyph glyph-name="r" unicode="r" horiz-adv-x="997" 
d="M1079 791v-3q0 -74 -49 -132t-117 -58q-28 0 -51 10q-36 24 -53 74q-8 20 -21 20q-24 0 -73 -65t-90 -143q-126 -230 -189 -410q-10 -28 -15 -38t-15 -24t-25 -17t-38 -6t-62 -3q-106 0 -131 10q-27 11 -27 37q0 21 22 90q85 282 150 485q20 72 20 95q0 39 -22 39
q-27 0 -100 -86q-46 -58 -50 -62q-16 -20 -30 -20t-23.5 9.5t-9.5 22.5q0 30 39 87.5t84 99.5q56 56 126 95.5t134 39.5q52 0 91.5 -34.5t39.5 -104.5q0 -21 -3.5 -45t-12.5 -59.5t-15 -58.5t-22 -76.5t-23 -78.5l4 -4q27 52 41.5 78.5t47 83t56 90t60 78.5t67 69.5t68.5 43
t74 18.5q64 0 103.5 -40.5t39.5 -106.5z" />
    <glyph glyph-name="s" unicode="s" horiz-adv-x="917" 
d="M819 299v-2q0 -67 -45 -133t-119 -111q-132 -82 -315 -82q-85 0 -166.5 21.5t-134.5 52.5q-49 28 -49 78q0 34 20 96q29 88 82 88q29 0 48 -16.5t44 -63.5q93 -166 203 -166q46 0 80.5 31t34.5 72q0 26 -10 49.5t-37 52t-41.5 41.5t-56.5 48q-4 4 -6.5 6t-6 5t-6.5 5
q-38 32 -61.5 55.5t-50 57t-39.5 70.5t-13 77q0 131 122.5 219t321.5 88q40 0 83 -3.5t97.5 -13.5t89 -33t34.5 -57q0 -31 -27 -90q-35 -73 -80 -73q-8 0 -15.5 1.5t-14.5 5.5t-12.5 6.5t-13 10.5t-11 11.5t-11.5 13.5t-10.5 13.5t-11 16t-10.5 15.5q-21 30 -35.5 47t-41 32
t-55.5 15q-46 0 -78 -29.5t-32 -70.5q0 -49 36 -87t140 -116q43 -34 65.5 -53.5t54 -54t46 -70.5t14.5 -76z" />
    <glyph glyph-name="t" unicode="t" horiz-adv-x="720" 
d="M78 88v2q0 55 49 221q11 37 63 213.5t78 270.5h-108q-35 0 -35 16q0 6 22 72q6 14 16.5 18t33.5 4h104l64 211q12 35 41 41q33 8 149 8q65 0 98 -2q25 0 25 -18q0 -8 -10 -41q-7 -25 -58 -199h162q35 0 35 -14q0 -10 -16 -64q-7 -21 -18 -26.5t-36 -5.5h-159
q-106 -361 -132 -449q-28 -94 -28 -125q0 -15 6.5 -24t17.5 -9q6 0 13.5 3t16 9t16 12t17 16t16 17t15.5 18.5t13.5 16.5t12.5 15.5t9 11.5l6 9q38 53 53 59q3 2 7 2q13 0 22 -10t9 -23q0 -21 -19.5 -57t-44.5 -66q-73 -95 -185 -172.5t-222 -77.5q-40 0 -79.5 28t-39.5 89z
" />
    <glyph glyph-name="u" unicode="u" horiz-adv-x="1392" 
d="M141 109v2q0 73 47 204q11 30 113 316q25 72 25 86q0 31 -23 31q-36 0 -115 -99q-46 -54 -57 -61q-9 -6 -20 -6t-19 9t-8 23q0 21 22.5 59t65.5 83.5t96.5 86.5t126 68t144.5 27q22 0 46 -7t47 -30.5t23 -60.5q0 -48 -30 -131q-22 -69 -64.5 -200t-52.5 -161
q-29 -72 -29 -115q0 -40 37 -40q38 0 111 62.5t125 145.5q133 190 215 441q15 46 28.5 57.5t51.5 13.5q22 1 61.5 1t83.5 -0.5t53 -0.5q43 0 43 -22q0 -5 -16 -55q-27 -91 -139 -457q-31 -112 -31 -139q0 -37 26 -37t67 45.5t71 91.5q32 39 41 44q7 3 16 3q31 0 31 -31
q0 -32 -42.5 -95t-107.5 -128t-158 -113.5t-180 -48.5q-46 0 -70 25t-24 70q0 64 76 302q5 17 8 25l-6 2q-68 -99 -151.5 -181.5t-161 -134t-147.5 -80t-120 -28.5q-65 0 -97 40.5t-32 97.5z" />
    <glyph glyph-name="v" unicode="v" horiz-adv-x="1083" 
d="M135 162v2q0 62 45 186q9 24 49 131.5t62 163.5q24 70 24 74q0 29 -24 29q-21 0 -60 -38t-55 -63q-32 -38 -46.5 -49.5t-29.5 -11.5q-26 0 -26 28q0 31 26 68q70 107 201 180q119 68 217 68q52 0 86.5 -26.5t34.5 -84.5q0 -65 -37 -166q-20 -51 -57.5 -154.5
t-57.5 -154.5q-32 -94 -32 -131q0 -36 20.5 -55t46.5 -19q71 0 161.5 82t154 198t63.5 206q0 38 -18 75q-29 53 -37 71.5t-8 43.5q0 55 39 90t96 35q63 0 98 -48.5t35 -103.5q0 -102 -75 -245t-185 -268.5t-249.5 -214.5t-256.5 -89q-95 0 -150 53t-55 138z" />
    <glyph glyph-name="w" unicode="w" horiz-adv-x="1624" 
d="M1012 913h172q65 0 65 -20q0 -7 -18 -70q-9 -28 -35.5 -108.5t-47.5 -145t-44 -139.5t-36 -129.5t-13 -77.5q0 -71 53 -71q59 0 144.5 82.5t149.5 198.5t64 200q0 43 -30.5 97t-30.5 87q0 50 31.5 86.5t81.5 36.5q61 0 94 -45.5t33 -101.5q0 -114 -74 -260t-182 -269
t-240.5 -208t-239.5 -85q-81 0 -116 42.5t-35 109.5q0 71 49 213l-4 2q-42 -69 -92.5 -130.5t-112 -116.5t-134.5 -87.5t-145 -32.5q-82 0 -130 51t-48 123q0 80 46.5 204.5t92.5 230.5t46 141q0 31 -21 31q-29 0 -100 -78q-67 -79 -83 -90q-11 -9 -22 -9q-14 0 -21 10.5
t-7 22.5q0 32 42.5 87.5t105.5 110t145 94.5t151 40q59 0 97 -32.5t38 -92.5q0 -57 -95 -291.5t-95 -283.5q0 -30 15 -47t40 -17q64 0 150 104t151 257q41 92 117 297q11 26 13 31t10 20t13.5 17.5t16 6.5t25.5 4z" />
    <glyph glyph-name="x" unicode="x" horiz-adv-x="1150" 
d="M1212 813v-2q0 -54 -39 -96.5t-96 -42.5q-35 0 -57 22q-3 4 -12.5 19t-14.5 20q-13 17 -28 17q-24 0 -80 -56q-70 -73 -131 -172q23 -71 82 -246q33 -90 71 -90q31 0 54.5 39.5t29.5 77.5q18 57 45 57q35 0 35 -45q0 -38 -23 -94.5t-62 -113t-100 -96.5t-126 -40
q-56 0 -90 30.5t-64 86.5q-31 57 -92 211q-134 -175 -207 -238q-104 -90 -207 -90q-72 0 -112.5 37t-40.5 96q0 54 37.5 97t87.5 43q57 0 78 -43q2 -5 5 -14.5t6 -17.5t7 -15q3 -8 15.5 -17.5t23.5 -9.5q26 0 67.5 35t82 84.5t70.5 90.5t46 66q-54 184 -80 246
q-8 21 -12 30.5t-14.5 28.5t-23.5 28t-30 9q-29 0 -51 -28.5t-33 -63.5q-2 -6 -5.5 -17.5t-5.5 -17t-5 -14.5t-5 -13t-5.5 -10.5t-6.5 -9.5t-7 -6.5t-9 -4.5t-10 -1q-33 0 -33 43q0 49 24 106.5t65.5 109t105 86t133.5 34.5q75 0 118 -41t72 -121q5 -14 25.5 -67.5
t30.5 -83.5q14 18 42.5 55.5t41.5 54t38 47.5t39 45l36 36t39 32.5t38 22t41.5 16t42.5 4.5q59 0 101 -34t42 -91z" />
    <glyph glyph-name="y" unicode="y" horiz-adv-x="1089" 
d="M1110 797v-2q0 -63 -31.5 -145.5t-78 -161t-112 -168.5t-120 -156t-115.5 -135q-45 -54 -121 -138q-149 -160 -280 -253t-250 -93q-69 0 -120.5 38.5t-51.5 94.5q0 46 36.5 81.5t86.5 35.5q58 0 115 -57q2 -2 12.5 -11.5t14.5 -12t12.5 -8t17 -7.5t18.5 -2q49 0 93 39.5
t71 91.5q36 65 43 168q4 131 -8 278q-1 13 -6 69t-8.5 86.5t-10 84.5t-13 86t-15.5 67t-20.5 51.5t-24.5 16.5q-18 0 -41 -25t-36 -45.5t-20 -35.5q-1 -2 -5 -11t-5.5 -12t-6 -10.5t-7 -10.5t-7 -8.5t-8.5 -7.5t-9 -4t-11 -2q-16 0 -23.5 12t-7.5 25q0 30 23 77t53 87
q58 73 133.5 123.5t157.5 50.5q64 0 108 -56t74 -167q45 -172 45 -389q0 -26 -2.5 -84t-3.5 -92l2 -5q84 104 187 263q88 154 88 227q0 26 -21 82q-24 42 -31.5 59.5t-7.5 38.5q0 50 37.5 86.5t89.5 36.5q61 0 91 -45t30 -96z" />
    <glyph glyph-name="z" unicode="z" horiz-adv-x="1058" 
d="M-37 39v2q0 51 100 113q22 13 123 65q42 36 140 127q180 172 397 330l-4 4q-99 -47 -168 -47q-35 0 -118.5 20.5t-108.5 20.5q-91 0 -97 -82q0 -1 -1.5 -10t-2.5 -11.5t-3.5 -9t-5 -9t-8 -5t-11.5 -2.5q-21 0 -34 19t-16.5 39t-3.5 42q0 117 86 203t215 86q11 0 21 -0.5
t22 -2.5t19 -3t22.5 -5.5t22 -6.5t26.5 -9t28.5 -10t35.5 -13t39 -14q39 -16 61.5 -24t57 -14t67.5 -3q12 3 25 9.5t22.5 13t31.5 22t36 25.5q55 39 94 39q10 0 21.5 -2t23.5 -11t12 -24q0 -54 -131 -135q-14 -10 -37 -25t-33.5 -22t-25.5 -17.5t-28 -20.5t-27 -22
q-51 -41 -144.5 -121t-130.5 -110q-144 -123 -223 -186l4 -4q85 45 162 45q74 0 154 -33q11 -4 27 -12t25.5 -12t22.5 -7.5t25 -3.5q38 0 67 22t29 60q0 9 -2 26t-2 23q4 25 33 25q26 0 43.5 -31t17.5 -74q0 -50 -22.5 -102.5t-61.5 -91.5q-98 -101 -249 -101
q-138 0 -254 95q-51 36 -73.5 48.5t-41.5 12.5q-18 0 -55 -37q-93 -100 -168 -100q-33 0 -50.5 14.5t-17.5 34.5z" />
    <glyph glyph-name="braceleft" unicode="{" horiz-adv-x="620" 
d="M27 -213v2q0 52 14 115q14 65 47.5 182t42.5 150q19 82 19 122q0 30 -13 52t-39 26q-51 12 -51 47q0 21 17.5 36t50.5 18q59 6 99.5 71t74.5 183l80 292q88 318 389 318q23 0 36.5 -1t28 -5t21 -13t6.5 -24q0 -45 -57 -45q-111 0 -172 -219l-82 -291
q-39 -146 -91.5 -216.5t-162.5 -99.5v-4q99 -47 96 -178q0 -55 -21 -141q-77 -280 -81 -293q-21 -89 -21 -135q-3 -80 66 -86q23 -5 33 -14t10 -33q0 -45 -91 -45q-249 0 -249 229z" />
    <glyph glyph-name="bar" unicode="|" horiz-adv-x="1040" 
d="M674 -512h-197v2048h197v-2048z" />
    <glyph glyph-name="braceright" unicode="}" horiz-adv-x="620" 
d="M637 1171v-2q0 -51 -14 -114t-47.5 -178.5t-43.5 -153.5q-20 -86 -20 -123q0 -30 13 -52t38 -26q51 -12 51 -47q0 -47 -65 -53q-59 -6 -99.5 -71t-74.5 -183l-80 -293q-88 -317 -389 -317q-23 0 -36.5 1t-28 5t-21 13t-6.5 24q0 45 57 45q111 0 172 219l80 293
q41 145 93.5 214.5t162.5 98.5v4q-99 46 -96 178q0 71 20 144q39 128 80 290q23 84 23 136q3 78 -66 88q-15 2 -23 5.5t-14 13t-6 26.5q0 45 90 45q250 0 250 -230z" />
    <glyph glyph-name="asciitilde" unicode="~" horiz-adv-x="1202" 
d="M240 350l-76 148q47 83 107.5 131.5t150.5 48.5q54 0 105 -16.5t128 -51.5q7 -3 30.5 -14t32.5 -15t29 -12.5t31.5 -12t27.5 -8.5t29.5 -7t26.5 -2q29 0 54.5 11.5t49 35t39 43.5t37.5 53l76 -152q-28 -41 -50.5 -68t-54.5 -55.5t-70 -42.5t-83 -14q-90 0 -219 70
q-127 69 -225 69q-58 0 -98 -37.5t-78 -101.5z" />
    <glyph glyph-name="uni00A0" unicode="&#xa0;" horiz-adv-x="614" 
 />
    <glyph glyph-name="exclamdown" unicode="&#xa1;" horiz-adv-x="624" 
d="M262 752v2q0 75 55 129.5t136 54.5q69 0 109 -40.5t40 -98.5q0 -72 -53 -129.5t-133 -57.5q-67 0 -110.5 40.5t-43.5 99.5zM-100 -348v2q0 47 45 135q133 277 293 623q28 55 50.5 76.5t53.5 21.5q64 0 64 -61q0 -7 -3 -26.5t-4 -25.5q-11 -61 -48.5 -278.5t-59.5 -319.5
q-10 -53 -23.5 -89.5t-39 -72t-69 -53.5t-104.5 -18q-155 0 -155 86z" />
    <glyph glyph-name="cent" unicode="&#xa2;" 
d="M461 39l47 162q-117 22 -185.5 103.5t-68.5 207.5q0 56 17.5 119t57.5 131.5t98 128t146.5 109.5t194.5 75l49 166q7 30 19.5 36.5t56.5 6.5q40 0 49.5 -6.5t-0.5 -38.5l-45 -156q37 0 70 -4t73.5 -15t65 -37t24.5 -64q0 -39 -27.5 -68t-78.5 -29q-56 0 -96 37
q-27 21 -51 80q-14 31 -39 31q-36 0 -85 -48.5t-92 -120.5t-73.5 -163t-30.5 -168q0 -69 35 -110.5t92 -41.5q123 0 254 146q29 33 42 44t24 11q15 0 22.5 -10.5t7.5 -22.5q0 -25 -34.5 -76.5t-87.5 -106.5t-129 -97.5t-148 -46.5l-47 -166q-10 -33 -22 -40t-56 -7
q-39 0 -48.5 7.5t-0.5 41.5z" />
    <glyph glyph-name="sterling" unicode="&#xa3;" 
d="M537 584h-185q-21 0 -28 2t-7 12t15 72q4 16 15 21t36 5h141q-16 110 -16 178q0 189 130.5 311t324.5 122q95 0 160 -38t65 -116q0 -47 -29.5 -79t-79.5 -32q-92 0 -100 70q-3 15 -4.5 40.5t-3.5 35.5q-6 33 -56 33q-31 0 -55 -23t-37 -58.5t-19.5 -71.5t-6.5 -69
q0 -49 19.5 -152t19.5 -151h186q22 0 29.5 -2t7.5 -12q0 -19 -17 -72q-4 -16 -15 -21t-36 -5h-160q-9 -201 -135 -330q135 -82 224 -82q83 0 128.5 39t51.5 100q1 10 1 21t-0.5 23t-0.5 18q4 26 33 26q31 0 45 -38.5t14 -92.5q0 -133 -85.5 -215t-209.5 -82q-89 0 -157 35.5
t-165 116.5q-133 -143 -319 -143q-47 0 -89.5 9.5t-82 30t-63 59.5t-23.5 93q0 68 42 118t100.5 71.5t121.5 21.5q143 0 262 -68q29 66 29 140q0 70 -16 129zM201 176v-2q0 -43 28.5 -66.5t69.5 -23.5q49 0 96.5 32.5t75.5 78.5q-30 35 -72.5 59.5t-81.5 24.5q-50 0 -83 -26
t-33 -77z" />
    <glyph glyph-name="currency" unicode="&#xa4;" 
d="M238 84l-117 117l194 194q-71 99 -71 242q0 140 71 242l-194 194l117 117l194 -195q102 72 242 72q142 0 241 -72l195 195l119 -117l-195 -194q72 -104 72 -242t-72 -242l195 -194l-119 -117l-195 195q-102 -74 -241 -74q-136 0 -242 71zM674 893h-2q-104 0 -175 -75
t-71 -181q0 -107 71 -182.5t177 -75.5t178 75.5t72 182.5q0 106 -72 181t-178 75z" />
    <glyph glyph-name="yen" unicode="&#xa5;" 
d="M705 1128v-2q0 -3 12 -96q25 -104 82 -364q47 60 282 358q64 86 64 119q0 6 -2 10.5t-4 8t-7 7t-8 5.5t-10 4t-9.5 3t-10.5 3t-9 2q-34 15 -41 28q-6 11 -6 25q0 37 60 37q17 0 67 -4t92 -4q36 0 94 4t81 4q69 0 69 -43q0 -22 -14 -32t-43 -17q-49 -7 -86.5 -31
t-77.5 -74l-186 -227h155q22 0 28.5 -3.5t6.5 -12.5q0 -17 -22 -72q-4 -19 -13 -24t-37 -5h-211q-27 -33 -79 -95t-64 -77h307q23 0 29 -2.5t6 -11.5q0 -17 -20 -74q-6 -17 -14 -21.5t-36 -4.5h-311q-49 -161 -63 -203q-21 -82 -21 -103q0 -34 22 -46t68 -15q68 0 68 -41
q0 -17 -8.5 -27.5t-27 -15t-34.5 -5.5t-43 -1q-39 0 -129.5 4t-130.5 4q-49 0 -138 -4t-116 -4q-23 0 -35.5 1t-29.5 4.5t-25 13t-8 24.5q0 30 23 39t89 15q6 1 9 1q29 3 49.5 14t34.5 36t20.5 42t18.5 56q26 80 63 211h-309q-22 0 -28.5 3t-6.5 11t23 74q4 17 12.5 21.5
t36.5 4.5h291q-2 6 -48 172h-215q-22 0 -28 3.5t-6 11.5q0 16 20 73q6 18 14.5 23.5t34.5 5.5h148l-62 205q-16 59 -40.5 89t-65.5 34q-30 5 -44.5 8.5t-25 12.5t-10.5 24q0 18 9.5 29.5t28 15.5t31 5t33.5 1q32 0 111.5 -4t124.5 -4q49 0 143.5 4t124.5 4q68 0 68 -41
q0 -44 -72 -53q-63 -8 -63 -54z" />
    <glyph glyph-name="brokenbar" unicode="&#xa6;" horiz-adv-x="1040" 
d="M674 666h-197v716h197v-716zM674 -358h-197v716h197v-716z" />
    <glyph glyph-name="section" unicode="&#xa7;" horiz-adv-x="1110" 
d="M977 403v-2q0 -103 -66.5 -174t-167.5 -77q-29 -4 -55 2q-16 0 -16 -17q1 -3 28.5 -42t45.5 -85.5t18 -99.5q0 -99 -55 -170t-138 -103t-182 -32q-76 0 -144.5 24t-115.5 76.5t-47 122.5q0 57 34.5 98t92.5 41q50 0 80 -29.5t30 -82.5q0 -32 -16.5 -56t-33 -41t-17.5 -30
q0 -25 45 -41.5t88 -16.5q83 0 136.5 41t53.5 123q0 50 -29.5 105.5t-73 104t-95 106.5t-95 111.5t-73 120t-29.5 130.5q0 107 62.5 176t150.5 84q39 6 72 0q14 0 14 16l-31 48q-31 47 -45 88t-14 92q0 126 97.5 210.5t269.5 84.5q140 0 216.5 -65t76.5 -144q0 -53 -34 -90
t-87 -37q-44 0 -76.5 27.5t-32.5 70.5q0 29 13.5 53.5t26.5 41.5t13 30q0 20 -30.5 34.5t-83.5 14.5q-78 0 -128 -44t-50 -116q0 -58 41 -124t99 -129t116.5 -129t99.5 -145t41 -155zM684 205h2q50 0 81.5 36t31.5 83q0 78 -113 229q-125 166 -213 166q-47 0 -83 -32.5
t-36 -80.5q0 -42 25 -95t98 -149q65 -85 113.5 -121t93.5 -36z" />
    <glyph glyph-name="dieresis" unicode="&#xa8;" horiz-adv-x="868" 
d="M420 1106h-2q-43 0 -74 25.5t-31 72.5q0 60 48 109t108 49q44 0 74 -26.5t30 -73.5q0 -60 -46.5 -108t-106.5 -48zM809 1106h-2q-43 0 -72.5 25.5t-29.5 72.5q0 60 46.5 109t106.5 49q44 0 75.5 -26.5t31.5 -73.5q0 -60 -48 -108t-108 -48z" />
    <glyph glyph-name="copyright" unicode="&#xa9;" horiz-adv-x="1609" 
d="M1571 715v-2q0 -153 -55.5 -289.5t-151.5 -235t-230.5 -156t-287.5 -57.5t-288.5 57.5t-231.5 156t-151.5 235.5t-55.5 291q0 155 55.5 292.5t151.5 236.5t231.5 156.5t288.5 57.5t287.5 -57.5t230.5 -156.5t151.5 -237t55.5 -292zM270 715v-2q0 -168 75.5 -311
t208 -227.5t292.5 -84.5t292 84.5t206.5 228t74.5 312.5q0 170 -74.5 314t-206.5 229t-292 85q-161 0 -293.5 -85t-207.5 -229t-75 -314zM1200 551l-31 -154q-4 -17 -17 -26t-42 -19q-127 -39 -223 -39q-206 0 -327.5 108.5t-121.5 317.5q0 55 15 110.5t50.5 111t87.5 97.5
t133 68.5t179 26.5q49 0 93.5 -7.5t63 -13t60.5 -20.5q45 -15 45 -45v-147h-45q-18 75 -70.5 126.5t-146.5 51.5q-119 0 -186.5 -94.5t-67.5 -253.5q-3 -173 61 -278t195 -105q87 0 150 49t100 135h45z" />
    <glyph glyph-name="ordfeminine" unicode="&#xaa;" horiz-adv-x="819" 
d="M666 1024h-4q-71 -111 -166 -196t-177 -85q-44 0 -77 35.5t-33 95.5q0 69 39.5 145.5t99.5 136t135.5 99t141.5 39.5q23 0 40.5 -4t35.5 -11t24 -9q7 3 12 6.5t9.5 9t5.5 6.5q15 15 51 15h61q28 0 41 -4.5t13 -18.5q0 -20 -59.5 -193t-59.5 -196q0 -10 8 -10
q5 0 11.5 4.5t14.5 12.5t14 15t15 17t12 14q33 33 41 33q23 0 23 -20q0 -30 -42.5 -81.5t-110.5 -94t-126 -42.5q-55 0 -55 66q0 65 62 215zM721 1200v2q0 15 -14 26t-35 11q-50 0 -114 -54.5t-108 -127.5t-44 -125q0 -16 9 -29.5t27 -13.5q35 0 103 63t122 138.5t54 109.5z
" />
    <glyph glyph-name="guillemotleft" unicode="&#xab;" horiz-adv-x="755" 
d="M369 182h-142q-29 0 -43 8t-26 33l-76 158q-13 27 -29 45q-1 2 -5.5 6.5t-6.5 8t-2 8.5q0 10 20 20q21 11 50 45l141 160q22 25 42 33t50 8h145q14 0 18.5 -3t4.5 -12q0 -14 -29 -14q-25 0 -44.5 -13.5t-47.5 -43.5l-125 -144q-24 -27 -49 -41q15 -15 23 -36l67 -140
q14 -31 28.5 -44t45.5 -13q22 0 22 -14q0 -15 -32 -15zM674 182h-142q-29 0 -43 8t-26 33l-76 158q-13 27 -29 45q-1 2 -5.5 6.5t-6.5 8t-2 8.5q0 9 21 20q19 10 49 45l141 160q22 25 42 33t50 8h146q24 0 24 -15q0 -14 -31 -14q-25 0 -44.5 -13.5t-47.5 -43.5l-125 -144
q-19 -24 -49 -41q15 -15 23 -36l67 -140q14 -31 28.5 -44t45.5 -13q23 0 23 -14q0 -15 -33 -15z" />
    <glyph glyph-name="logicalnot" unicode="&#xac;" horiz-adv-x="1202" 
d="M971 221v412h-838v194h1032v-606h-194z" />
    <glyph glyph-name="uni00AD" unicode="&#xad;" horiz-adv-x="571" 
d="M119 553h426q14 0 19.5 -0.5t9.5 -4t4 -11.5q0 -5 -8 -28.5t-20 -56t-18 -51.5q-7 -25 -14.5 -30.5t-28.5 -5.5h-426q-18 0 -25 3t-7 13q0 5 7.5 27.5t19.5 57.5t18 52q9 24 15.5 29.5t27.5 5.5z" />
    <glyph glyph-name="registered" unicode="&#xae;" horiz-adv-x="1613" 
d="M1571 715v-2q0 -153 -55.5 -289.5t-151.5 -235t-230.5 -156t-287.5 -57.5t-288.5 57.5t-231.5 156t-151.5 235.5t-55.5 291q0 155 55.5 292.5t151.5 236.5t231.5 156.5t288.5 57.5t287.5 -57.5t230.5 -156.5t151.5 -237t55.5 -292zM270 715v-2q0 -168 75.5 -311
t208 -227.5t292.5 -84.5t292 84.5t206.5 228t74.5 312.5q0 170 -74.5 314t-206.5 229t-292 85q-161 0 -293.5 -85t-207.5 -229t-75 -314zM498 1090v36h409q104 0 170 -51t66 -151q0 -73 -45 -132.5t-119 -82.5l121 -174q72 -101 139 -175v-26h-170q-29 0 -61.5 48.5t-82 147
t-85.5 154.5h-74v-221q0 -55 13.5 -69.5t78.5 -18.5l2 -41h-362v41q66 4 80 18.5t14 69.5v538q0 55 -14 70t-80 19zM766 1079v-348h68q67 0 101 53.5t34 130.5q0 87 -36 125.5t-95 38.5h-72z" />
    <glyph glyph-name="macron" unicode="&#xaf;" horiz-adv-x="884" 
d="M453 1276h481q31 0 40 -2t9 -12q0 -8 -15.5 -45t-27.5 -60q-12 -22 -23 -27.5t-40 -5.5h-482q-30 0 -39.5 3t-9.5 14q0 15 43 104q11 22 22 26.5t42 4.5z" />
    <glyph glyph-name="degree" unicode="&#xb0;" horiz-adv-x="819" 
d="M524 1309h2q127 0 217.5 -91.5t90.5 -220.5q0 -131 -90.5 -223t-219.5 -92q-130 0 -220.5 92t-90.5 223q0 129 90.5 220.5t220.5 91.5zM524 1210h-2q-86 0 -144.5 -62.5t-58.5 -150.5q0 -90 58.5 -153.5t146.5 -63.5q87 0 145 63.5t58 153.5q0 88 -58.5 150.5
t-144.5 62.5z" />
    <glyph glyph-name="plusminus" unicode="&#xb1;" horiz-adv-x="1202" 
d="M551 762v340h197v-340h417v-195h-417v-334h-197v334h-418v195h418zM133 -90v194h1032v-194h-1032z" />
    <glyph glyph-name="twosuperior" unicode="&#xb2;" horiz-adv-x="782" 
d="M295 672l4 -2q40 4 92 4q19 0 83 -1t81 -1q60 0 93.5 16.5t56.5 50.5q25 37 47 37q14 0 22 -8.5t8 -19.5q0 -14 -63 -187q-9 -27 -20.5 -35t-41.5 -8q-23 0 -119 2t-153 2q-41 0 -125.5 -2t-112.5 -2q-18 0 -27 0.5t-22 3t-18.5 9.5t-5.5 18q0 20 23.5 42.5t101.5 82.5
q81 60 241 184q176 148 176 262q0 45 -30.5 77t-79.5 32q-80 0 -152 -72q-11 -12 -25.5 -29t-20.5 -23.5t-14.5 -12t-17.5 -5.5q-11 0 -17.5 8.5t-6.5 18.5q0 21 21 52t59.5 63.5t106.5 55t149 22.5q119 0 193.5 -54.5t74.5 -144.5q0 -29 -9.5 -56.5t-21.5 -48.5t-36 -44
t-41.5 -37t-51 -34t-49.5 -28.5t-52 -27t-46 -23.5q-71 -33 -120 -58.5t-68.5 -37.5t-65.5 -41z" />
    <glyph glyph-name="threesuperior" unicode="&#xb3;" horiz-adv-x="782" 
d="M528 958l-2 -4q20 2 72 2q88 -3 148.5 -54t60.5 -132q0 -101 -79 -186t-194.5 -130.5t-230.5 -45.5q-52 0 -100 10t-84.5 35.5t-36.5 62.5q0 32 22.5 53t57.5 21q25 0 44.5 -10.5t29.5 -22.5t26 -35q35 -55 78 -55q85 0 158 86.5t73 194.5q0 64 -40 103.5t-103 39.5
q-44 0 -96 -16.5t-53 -16.5q-10 0 -17.5 8.5t-7.5 20.5q0 21 25 34t98 38q8 3 13 4.5t13 4.5t15 5q76 29 121 80.5t45 105.5q0 34 -20.5 52t-51.5 18q-53 0 -111 -43q-7 -5 -20 -15.5t-20.5 -17t-18 -11.5t-18.5 -5q-12 0 -18.5 7.5t-6.5 18.5q0 16 21.5 40t58 47.5t97 40
t128.5 16.5q98 0 158.5 -35.5t60.5 -97.5q0 -25 -11 -48.5t-26.5 -41t-43 -35t-49 -29t-57 -25t-55 -20t-53.5 -17.5z" />
    <glyph glyph-name="acute" unicode="&#xb4;" horiz-adv-x="851" 
d="M465 1055h-2q-9 0 -15 5t-6 13q0 25 60 66l250 186q73 55 129 55q35 0 60.5 -20t25.5 -55q0 -69 -97 -105l-315 -117q-77 -28 -90 -28z" />
    <glyph glyph-name="mu" unicode="&#xb5;" horiz-adv-x="1392" 
d="M856 393l-6 2q-68 -99 -151.5 -181.5t-161 -134t-147.5 -80t-120 -28.5q-11 -27 -15 -64.5t-4.5 -83.5t-2.5 -65q-5 -92 -51 -146t-127 -54q-62 0 -90.5 30t-28.5 72q0 55 63.5 184t79.5 183q9 28 34.5 98t33.5 94q49 137 139 412q25 72 25 86q0 31 -23 31
q-36 0 -115 -99q-46 -54 -57 -61q-9 -6 -20 -6t-19 9t-8 23q0 21 22.5 59t65.5 83.5t96.5 86.5t126 68t144.5 27q22 0 46 -7t47 -30.5t23 -60.5q0 -48 -30 -131q-22 -69 -64.5 -200t-52.5 -161q-29 -72 -29 -115q0 -40 37 -40q38 0 111 62.5t125 145.5q132 194 217 449
q15 46 28.5 58t51.5 14h198q43 0 43 -23q0 -13 -14 -53q-70 -228 -141 -459q-33 -119 -33 -147q0 -37 26 -37t67 45.5t71 91.5q32 39 41 44q7 3 16 3q31 0 31 -31q0 -32 -42.5 -95t-107.5 -128t-158 -113.5t-180 -48.5q-46 0 -70 25t-24 70q0 64 76 302q5 17 8 25z" />
    <glyph glyph-name="paragraph" unicode="&#xb6;" 
d="M238 -360l219 794q-129 7 -196.5 83.5t-67.5 199.5q0 111 47.5 213.5t125.5 176t183 117.5t215 44h532q25 0 38.5 -2t24.5 -12.5t11 -30.5q0 -45 -92 -45q-27 0 -44.5 -2t-33 -12t-23.5 -19.5t-19 -36.5t-18 -50t-20 -73l-372 -1345h-195l418 1513h-121l-416 -1513h-196z
" />
    <glyph glyph-name="periodcentered" unicode="&#xb7;" horiz-adv-x="608" 
d="M510 543v-2q0 -70 -54.5 -126.5t-133.5 -56.5q-71 0 -106.5 40.5t-35.5 101.5q0 65 52.5 122.5t129.5 57.5q65 0 106.5 -38.5t41.5 -98.5z" />
    <glyph glyph-name="cedilla" unicode="&#xb8;" horiz-adv-x="843" 
d="M356 0l-71 -117q28 4 45 4q73 0 119.5 -36t46.5 -97q0 -78 -75 -133t-192 -55q-83 0 -146 28.5t-63 71.5q-3 21 12 38t38 17q24 0 42.5 -14.5t30 -32.5t33.5 -32.5t51 -14.5q52 0 85.5 32t33.5 79q0 37 -25 56.5t-61 19.5q-16 0 -48 -5.5t-42 -5.5q-20 0 -20 15
q0 8 22 45l86 137h98z" />
    <glyph glyph-name="onesuperior" unicode="&#xb9;" horiz-adv-x="782" 
d="M571 616v-2q0 -32 66 -32q18 0 28 -0.5t23.5 -3t20 -9.5t6.5 -18q0 -33 -51 -33q-38 0 -119.5 2t-126.5 2q-37 0 -105 -2t-100 -2q-53 0 -53 29q0 35 80 35q58 0 75 15t37 75q8 27 56.5 180t72.5 235q11 29 11 41q0 19 -19 19q-13 0 -75.5 -18.5t-71.5 -18.5
q-17 0 -27 8.5t-10 20.5q0 28 79 48q7 2 11 3q167 34 313 94q40 16 62 16q20 0 20 -18q0 -19 -12 -47q-33 -110 -98 -316t-78 -249q-15 -52 -15 -54z" />
    <glyph glyph-name="ordmasculine" unicode="&#xba;" horiz-adv-x="819" 
d="M893 1073v-2q0 -128 -107.5 -225.5t-246.5 -97.5q-115 0 -184.5 70t-69.5 171q0 123 104.5 220.5t243.5 97.5q110 0 185 -67t75 -167zM459 905v-2q0 -37 16 -66.5t57 -29.5q38 0 73.5 38t59 93t38 114t14.5 103q0 39 -16.5 65.5t-53.5 26.5q-49 0 -94.5 -62.5t-69.5 -141
t-24 -138.5z" />
    <glyph glyph-name="guillemotright" unicode="&#xbb;" horiz-adv-x="755" 
d="M111 715h143q28 0 43.5 -8t26.5 -33l75 -158q9 -23 27 -45q2 -3 6.5 -7t7 -7.5t2.5 -7.5q0 -11 -20 -21q-21 -10 -51 -45l-142 -160q-20 -26 -40 -33.5t-50 -7.5h-147q-23 0 -23 15q0 14 31 14q26 0 46 14t44 43l125 142q28 31 49 43q-4 3 -22 34l-66 142q-11 21 -18 31
t-21 18t-35 8q-24 0 -24 14q0 15 33 15zM414 715h143q28 0 43.5 -8t26.5 -33l75 -158q9 -23 27 -45q2 -3 6.5 -7t7 -7.5t2.5 -7.5q0 -11 -20 -21q-21 -10 -51 -45l-142 -160q-20 -26 -40 -33.5t-52 -7.5h-145q-23 0 -23 15q0 14 31 14q26 0 46 14t44 43l125 142q28 31 49 43
q-5 3 -22 34l-66 142q-11 22 -18 31.5t-21 17.5t-34 8q-25 0 -25 14q0 15 33 15z" />
    <glyph glyph-name="onequarter" unicode="&#xbc;" horiz-adv-x="1927" 
d="M756 1300h2q18 0 18 -18q0 -19 -12 -47q-33 -110 -98 -316t-78 -249q-13 -45 -13 -54q0 -34 66 -34q17 0 26.5 -0.5t23 -3t20 -9.5t6.5 -18q0 -33 -51 -33q-38 0 -119 2t-125 2q-37 0 -106 -2t-101 -2q-53 0 -53 29q0 35 80 35q58 0 75 15t37 75q21 69 65 207t66 208
q9 36 9 41q0 19 -19 19q-13 0 -74.5 -18.5t-72.5 -18.5q-17 0 -27 8.5t-10 20.5q0 28 79 48q7 2 11 3q194 40 313 94q48 16 62 16zM565 -29h-69q-21 0 -28 2t-7 11q0 5 5 11.5t20 23.5t24 28l1001 1210q31 35 43.5 42.5t36.5 7.5h68q14 0 20.5 -0.5t10.5 -3.5t4 -9
q0 -3 -2 -7t-6 -10t-8 -10.5t-11.5 -13t-11.5 -14.5l-1010 -1221q-28 -34 -40 -40.5t-40 -6.5zM1870 242h-103q-12 0 -17 -1t-9.5 -6t-7.5 -16q-35 -108 -35 -131q0 -19 15 -26t54 -9q34 -2 46 -7.5t12 -20.5q0 -29 -45 -29q-18 0 -94 2t-123 2q-40 0 -118.5 -2t-115.5 -2
q-39 0 -39 20q0 37 76 41q51 3 72 17t32 51q4 13 12.5 38.5t14.5 44t6 23.5q-3 11 -24 11h-305q-36 2 -39 8q-2 3 -2 8q0 17 6 35q9 23 39 49q103 87 294.5 247.5t274.5 229.5q24 21 32.5 25t28.5 4h93q24 0 24 -8q0 -11 -39 -37q-297 -212 -631 -479h246q23 0 29.5 5
t11.5 23l49 158q6 22 13 28.5t30 12.5q184 63 205 63q12 0 12 -8q0 -13 -8 -33q-9 -29 -32 -104t-37 -117q-1 -4 -3 -11.5t-2 -10.5q0 -6 27 -6h94q27 0 27 -11q0 -17 -12 -49q-5 -14 -11 -18t-24 -4z" />
    <glyph glyph-name="onehalf" unicode="&#xbd;" horiz-adv-x="1927" 
d="M776 1282v-2q0 -17 -12 -45q-33 -110 -98 -316t-78 -249q-13 -45 -13 -54q0 -34 66 -34q17 0 26.5 -0.5t23 -3t20 -9.5t6.5 -18q0 -33 -51 -33q-38 0 -119 2t-125 2q-37 0 -106 -2t-101 -2q-53 0 -53 29q0 35 80 35q58 0 75 15t37 75q21 69 65 207t66 208q9 36 9 41
q0 19 -19 19q-13 0 -74.5 -18.5t-72.5 -18.5q-17 0 -27 8.5t-10 20.5q0 28 79 48q7 2 11 3q194 40 313 94q48 16 62 16q20 0 20 -18zM547 -29h-70q-23 0 -29 2t-6 11q0 5 5.5 12t20 23t24.5 28l1001 1210q31 35 43.5 42.5t36.5 7.5h67q14 0 20.5 -0.5t10.5 -3.5t4 -9
q0 -10 -41 -55l-1007 -1221q-28 -34 -40 -40.5t-40 -6.5zM1335 147l2 -2q25 5 95 5h163q61 0 94 16t56 51q25 37 47 37q14 0 22.5 -9t8.5 -20q0 -7 -12.5 -44.5t-30.5 -86.5t-21 -57q-9 -26 -20.5 -33.5t-40.5 -7.5q-23 0 -119.5 2t-153.5 2q-41 0 -125 -2t-112 -2
q-18 0 -27 0.5t-22 3t-19 9t-6 16.5q0 20 23 42.5t102 84.5q119 89 242 184q176 148 176 262q0 45 -31 77t-80 32q-75 0 -151 -72q-11 -13 -25 -29.5t-20.5 -24t-15 -13t-17.5 -5.5q-11 0 -18 9.5t-7 19.5q0 21 21 52t60 63t107 54.5t148 22.5q119 0 193.5 -54.5
t74.5 -143.5q0 -29 -9.5 -57t-21 -48.5t-37 -44.5t-41 -37.5t-51 -34.5t-49.5 -28.5t-52.5 -27t-45.5 -23.5q-149 -69 -254 -138z" />
    <glyph glyph-name="threequarters" unicode="&#xbe;" horiz-adv-x="1927" 
d="M530 958v-4q18 2 70 2q88 -3 149.5 -54t61.5 -132q0 -101 -79.5 -186t-195.5 -130.5t-231 -45.5q-52 0 -100 10t-84.5 35.5t-36.5 62.5q0 32 22.5 53t59.5 21q24 0 43 -10.5t29 -22.5t26 -35q38 -55 78 -55q85 0 158 86.5t73 194.5q0 64 -40 103.5t-103 39.5
q-43 0 -95.5 -16.5t-53.5 -16.5q-10 0 -17.5 8.5t-7.5 20.5q0 21 25 34t98 38q8 3 13 4.5t13 4.5t15 5q77 29 122.5 80.5t45.5 105.5q0 34 -21.5 52t-54.5 18q-51 0 -109 -43q-9 -6 -26 -20.5t-29 -21.5t-22 -7q-12 0 -18.5 7.5t-6.5 18.5q0 16 21.5 40t59 47.5t98 40
t128.5 16.5q98 0 157.5 -35.5t59.5 -97.5q0 -25 -11 -48.5t-26.5 -41t-43 -35t-49 -29t-57 -25t-55 -20t-53.5 -17.5zM575 -29h-69q-23 0 -29 2t-6 11q0 5 5 11.5t20 23.5t24 28l1002 1210q31 35 43.5 42.5t36.5 7.5h65q21 0 28 -2t7 -11q0 -3 -2 -7t-6 -10t-8 -10.5
t-11.5 -13t-11.5 -14.5l-1010 -1221q-28 -34 -40 -40.5t-38 -6.5zM1870 242h-103q-12 0 -17 -1t-9.5 -6t-7.5 -16q-35 -108 -35 -131q0 -19 15 -26t54 -9q34 -2 46 -7.5t12 -20.5q0 -29 -45 -29q-18 0 -94 2t-123 2q-40 0 -118.5 -2t-115.5 -2q-39 0 -39 20q0 37 76 41
q51 3 72 17t32 51q4 13 12.5 38.5t14.5 44t6 23.5q-3 11 -24 11h-305q-36 2 -39 8q-2 3 -2 8q0 17 6 35q9 23 39 49q103 87 294.5 247.5t274.5 229.5q24 21 32.5 25t28.5 4h93q24 0 24 -8q0 -11 -39 -37q-297 -212 -631 -479h246q23 0 29.5 5t11.5 23l49 158q6 22 13 28.5
t30 12.5q184 63 205 63q12 0 12 -8q0 -13 -8 -33q-9 -29 -32 -104t-37 -117q-1 -4 -3 -11.5t-2 -10.5q0 -6 27 -6h94q27 0 27 -11q0 -17 -12 -49q-5 -14 -11 -18t-24 -4z" />
    <glyph glyph-name="questiondown" unicode="&#xbf;" horiz-adv-x="903" 
d="M528 764v2q0 68 50 119t127 51q63 0 103 -38t40 -93q0 -69 -50.5 -120.5t-123.5 -51.5q-64 0 -105 38.5t-41 92.5zM-66 -66v3q0 69 25.5 129.5t65.5 103t96.5 79t110.5 59t116 40.5q10 3 35.5 11.5t32.5 11t26 9.5t24 10t19 10t18.5 12.5t14.5 14.5t15.5 18.5t12 21.5
t13.5 27q9 17 14.5 25.5t15.5 16t23 7.5q45 0 45 -41q0 -6 -10 -56q-17 -88 -49 -221q-15 -65 -31.5 -82.5t-83.5 -42.5q-6 -2 -31 -11.5t-38.5 -14.5t-41 -17t-44 -21t-42 -25t-41 -30.5t-34 -35t-29 -41t-17.5 -47t-7 -54.5q0 -56 35.5 -91.5t82.5 -35.5q26 0 51.5 20
t61.5 60.5t55 57.5q63 59 125 59q72 0 72 -66q0 -48 -20 -100q-19 -62 -64 -94q-66 -49 -201 -49q-186 0 -304 104.5t-118 265.5z" />
    <glyph glyph-name="Agrave" unicode="&#xc0;" horiz-adv-x="1437" 
d="M850 442h-391q-23 0 -33 -14q-27 -33 -129 -176q-47 -66 -47 -102q0 -23 15.5 -37t31 -18.5t41.5 -8.5q34 -5 51 -15t17 -34q0 -45 -82 -45q-35 0 -105 4t-106 4q-33 0 -96 -4t-89 -4q-61 0 -61 43q0 16 12.5 27.5t24 15.5t41.5 12q36 8 74.5 39t60.5 56.5t80 95.5
q146 179 429 535t324 407q32 40 73 54.5t118 14.5q52 0 70 -13.5t18 -41.5q2 -80 -3 -486t-3 -497q0 -95 12 -126t62 -38q58 -11 69 -19q12 -10 12 -30q0 -17 -8 -28t-23.5 -15t-25.5 -5t-27 -1q-19 0 -117 4t-155 4q-82 0 -166 -4t-98 -4q-76 0 -76 43q0 21 14.5 32
t28 13.5t47.5 4.5q6 1 10 1q57 3 80.5 29.5t24.5 107.5v219zM854 549l4 430l-4 2q-148 -190 -340 -432h340zM635 1649v2q0 30 24.5 49.5t59.5 19.5q57 0 121 -67l202 -197q48 -48 48 -61q0 -19 -23 -19q-14 0 -70 27l-286 147q-76 37 -76 99z" />
    <glyph glyph-name="Aacute" unicode="&#xc1;" horiz-adv-x="1437" 
d="M850 442h-391q-23 0 -33 -14q-27 -33 -129 -176q-47 -66 -47 -102q0 -23 15.5 -37t31 -18.5t41.5 -8.5q34 -5 51 -15t17 -34q0 -45 -82 -45q-35 0 -105 4t-106 4q-33 0 -96 -4t-89 -4q-61 0 -61 43q0 16 12.5 27.5t24 15.5t41.5 12q36 8 74.5 39t60.5 56.5t80 95.5
q146 179 429 535t324 407q32 40 73 54.5t118 14.5q52 0 70 -13.5t18 -41.5q2 -80 -3 -486t-3 -497q0 -95 12 -126t62 -38q58 -11 69 -19q12 -10 12 -30q0 -17 -8 -28t-23.5 -15t-25.5 -5t-27 -1q-19 0 -117 4t-155 4q-82 0 -166 -4t-98 -4q-76 0 -76 43q0 21 14.5 32
t28 13.5t47.5 4.5q6 1 10 1q57 3 80.5 29.5t24.5 107.5v219zM854 549l4 430l-4 2q-148 -190 -340 -432h340zM817 1376h-2q-9 0 -15.5 5.5t-6.5 13.5q0 21 59 65l252 187q73 55 129 55q34 0 59 -20.5t25 -55.5q0 -40 -25.5 -64t-68.5 -40l-316 -117q-80 -29 -90 -29z" />
    <glyph glyph-name="Acircumflex" unicode="&#xc2;" horiz-adv-x="1437" 
d="M850 442h-391q-23 0 -33 -14q-27 -33 -129 -176q-47 -66 -47 -102q0 -23 15.5 -37t31 -18.5t41.5 -8.5q34 -5 51 -15t17 -34q0 -45 -82 -45q-35 0 -105 4t-106 4q-33 0 -96 -4t-89 -4q-61 0 -61 43q0 16 12.5 27.5t24 15.5t41.5 12q36 8 74.5 39t60.5 56.5t80 95.5
q146 179 429 535t324 407q32 40 73 54.5t118 14.5q52 0 70 -13.5t18 -41.5q2 -80 -3 -486t-3 -497q0 -95 12 -126t62 -38q58 -11 69 -19q12 -10 12 -30q0 -17 -8 -28t-23.5 -15t-25.5 -5t-27 -1q-19 0 -117 4t-155 4q-82 0 -166 -4t-98 -4q-76 0 -76 43q0 21 14.5 32
t28 13.5t47.5 4.5q6 1 10 1q57 3 80.5 29.5t24.5 107.5v219zM854 549l4 430l-4 2q-148 -190 -340 -432h340zM1006 1595l-310 -186q-50 -33 -69 -33q-23 0 -23 19q0 3 1 5.5t3 6t3.5 6.5t5.5 7.5t6.5 7.5t8 8.5l8 8l8.5 8.5l9 9l207 203q34 31 45.5 41t26.5 18.5t29 8.5h112
q23 0 34 -9.5t32 -50.5l106 -221q23 -41 23 -57q0 -8 -6.5 -13.5t-16.5 -5.5q-3 0 -6 0.5t-6.5 2.5t-6.5 4t-7.5 5.5t-7 5.5t-7.5 7l-7 7l-7.5 7.5l-7.5 7.5z" />
    <glyph glyph-name="Atilde" unicode="&#xc3;" horiz-adv-x="1437" 
d="M850 442h-391q-23 0 -33 -14q-27 -33 -129 -176q-47 -66 -47 -102q0 -23 15.5 -37t31 -18.5t41.5 -8.5q34 -5 51 -15t17 -34q0 -45 -82 -45q-35 0 -105 4t-106 4q-33 0 -96 -4t-89 -4q-61 0 -61 43q0 16 12.5 27.5t24 15.5t41.5 12q36 8 74.5 39t60.5 56.5t80 95.5
q146 179 429 535t324 407q32 40 73 54.5t118 14.5q52 0 70 -13.5t18 -41.5q2 -80 -3 -486t-3 -497q0 -95 12 -126t62 -38q58 -11 69 -19q12 -10 12 -30q0 -17 -8 -28t-23.5 -15t-25.5 -5t-27 -1q-19 0 -117 4t-155 4q-82 0 -166 -4t-98 -4q-76 0 -76 43q0 21 14.5 32
t28 13.5t47.5 4.5q6 1 10 1q57 3 80.5 29.5t24.5 107.5v219zM854 549l4 430l-4 2q-148 -190 -340 -432h340zM1090 1409h-3q-55 0 -105.5 20.5t-82 45t-70.5 45.5t-73 22q-31 0 -58 -18.5t-42.5 -40t-34 -40t-35.5 -18.5q-12 0 -19.5 7.5t-7.5 19.5q0 28 19 63.5t52 70t88 58
t118 23.5q55 0 106.5 -20.5t83.5 -45t71 -45.5t72 -22q31 -1 58 17.5t42.5 40.5t34 40.5t35.5 18.5q27 0 27 -29q0 -28 -18.5 -63t-52 -69.5t-88 -57.5t-117.5 -23z" />
    <glyph glyph-name="Adieresis" unicode="&#xc4;" horiz-adv-x="1437" 
d="M850 442h-391q-23 0 -33 -14q-27 -33 -129 -176q-47 -66 -47 -102q0 -23 15.5 -37t31 -18.5t41.5 -8.5q34 -5 51 -15t17 -34q0 -45 -82 -45q-35 0 -105 4t-106 4q-33 0 -96 -4t-89 -4q-61 0 -61 43q0 16 12.5 27.5t24 15.5t41.5 12q36 8 74.5 39t60.5 56.5t80 95.5
q146 179 429 535t324 407q32 40 73 54.5t118 14.5q52 0 70 -13.5t18 -41.5q2 -80 -3 -486t-3 -497q0 -95 12 -126t62 -38q58 -11 69 -19q12 -10 12 -30q0 -17 -8 -28t-23.5 -15t-25.5 -5t-27 -1q-19 0 -117 4t-155 4q-82 0 -166 -4t-98 -4q-76 0 -76 43q0 21 14.5 32
t28 13.5t47.5 4.5q6 1 10 1q57 3 80.5 29.5t24.5 107.5v219zM854 549l4 430l-4 2q-148 -190 -340 -432h340zM1145 1427h-2q-43 0 -74 26t-31 73q0 60 48 108.5t108 48.5q44 0 74 -26.5t30 -73.5q0 -60 -46.5 -108t-106.5 -48zM756 1427h-2q-44 0 -74.5 26t-30.5 73
q0 60 47 108.5t107 48.5q44 0 75 -26.5t31 -73.5q0 -60 -47 -108t-106 -48z" />
    <glyph glyph-name="Aring" unicode="&#xc5;" horiz-adv-x="1437" 
d="M850 442h-391q-23 0 -33 -14q-27 -33 -129 -176q-47 -66 -47 -102q0 -23 15.5 -37t31 -18.5t41.5 -8.5q34 -5 51 -15t17 -34q0 -45 -82 -45q-35 0 -105 4t-106 4q-33 0 -96 -4t-89 -4q-61 0 -61 43q0 16 12.5 27.5t24 15.5t41.5 12q36 8 74.5 39t60.5 56.5t80 95.5
q146 179 429 535t324 407q32 40 73 54.5t118 14.5q52 0 70 -13.5t18 -41.5q2 -80 -3 -486t-3 -497q0 -95 12 -126t62 -38q58 -11 69 -19q12 -10 12 -30q0 -17 -8 -28t-23.5 -15t-25.5 -5t-27 -1q-19 0 -117 4t-155 4q-82 0 -166 -4t-98 -4q-76 0 -76 43q0 21 14.5 32
t28 13.5t47.5 4.5q6 1 10 1q57 3 80.5 29.5t24.5 107.5v219zM854 549l4 430l-4 2q-148 -190 -340 -432h340zM1081 1348h-2q-94 0 -159.5 61.5t-65.5 155.5q0 93 66 154t161 61q94 0 160 -61.5t66 -153.5q0 -94 -66 -155.5t-160 -61.5zM1081 1444h2q50 0 83.5 34.5t33.5 86.5
q0 51 -34 84.5t-85 33.5q-52 0 -86 -33.5t-34 -84.5q0 -53 34 -87t86 -34z" />
    <glyph glyph-name="AE" unicode="&#xc6;" horiz-adv-x="1923" 
d="M905 582h-342q-18 0 -27 -5t-20 -20l-207 -250q-98 -117 -98 -166q0 -29 24.5 -41t67.5 -16q59 -5 59 -43q0 -49 -88 -49q-18 0 -84.5 4t-95.5 4q-52 0 -116.5 -4t-73.5 -4q-72 0 -72 37q0 17 10 27.5t22.5 15.5t39.5 12q32 5 70 35t55 49.5t45 54.5l729 860q51 57 51 80
q0 20 -45 29q-57 4 -57 43q0 26 29 34.5t98 8.5q73 0 254 -4t264 -4q129 0 305.5 4t208.5 4q24 0 36.5 -1.5t21.5 -9t9 -22.5q0 -25 -63 -231q-13 -47 -27.5 -71.5t-42.5 -24.5q-25 0 -34.5 13.5t-14.5 47.5q-8 121 -49 156q-28 22 -68 28t-112 6q-99 0 -121 -12
q-17 -9 -35 -76l-117 -389q68 0 99 2q73 3 110 23.5t74 85.5q29 56 42 72t38 16q17 0 31 -11.5t14 -35.5q0 -19 -23.5 -90t-23.5 -72q-37 -104 -64 -227q-19 -74 -63 -74q-43 0 -47 45q-1 11 -1 26t0.5 33.5t0.5 28.5q0 21 -6 35t-13 21.5t-25.5 11.5t-30 4.5t-40.5 1.5
q-31 2 -102 2l-93 -322q-28 -102 -28 -121q0 -32 32.5 -39.5t127.5 -7.5q169 0 251 47q75 45 152 187q14 26 25.5 36.5t35.5 10.5q26 0 38 -14.5t12 -34.5q0 -4 -2 -12l-5.5 -22t-5.5 -24q-5 -21 -25.5 -94.5t-29.5 -113.5q-9 -43 -29.5 -58.5t-64.5 -15.5q-34 0 -231.5 4
t-360.5 4q-89 0 -226 -4t-192 -4q-18 0 -30 1t-26.5 4.5t-22 12.5t-7.5 23q0 17 7 27.5t25 16t34.5 7.5t48.5 4q59 3 81 34t52 134zM616 686h320l117 399q14 44 14 56q0 16 -23 16q-18 0 -37 -16t-55 -58q-39 -47 -155.5 -184.5t-180.5 -212.5z" />
    <glyph glyph-name="Ccedilla" unicode="&#xc7;" horiz-adv-x="1325" 
d="M670 -27l-56 -90q28 4 45 4q73 0 119.5 -36t46.5 -97q0 -78 -74.5 -133t-191.5 -55q-83 0 -147 28.5t-64 71.5q-2 21 13 38t36 17q20 0 36 -9.5t27.5 -23.5l23 -28t30.5 -23.5t43 -9.5q52 0 85.5 32t33.5 79q0 37 -25.5 56.5t-62.5 19.5q-16 0 -47.5 -5.5t-40.5 -5.5
q-21 0 -21 15q0 7 23 45l71 117q-171 19 -294 108q-88 66 -136.5 163t-48.5 216q1 167 114 336.5t292 279.5q169 104 377 162t393 58q164 0 164 -60q0 -9 -13 -63q-8 -29 -28 -92t-25 -84q-12 -43 -28.5 -66t-45.5 -23q-71 0 -71 105q0 10 4 59.5t4 61.5q0 29 -13.5 43
t-50.5 14q-110 0 -231.5 -57.5t-222.5 -157.5q-107 -107 -170.5 -242.5t-63.5 -283.5q0 -43 8.5 -90.5t29.5 -100t52.5 -93.5t82 -68t112.5 -27q95 0 156.5 53.5t119.5 159.5q2 4 10 19.5t11 21t11 19.5t12.5 20t12.5 16.5t14 15.5t14 10.5t16.5 8t17.5 2.5q18 0 35.5 -10.5
t17.5 -34.5q0 -21 -14 -82q-9 -30 -24 -86.5t-26.5 -96.5t-19.5 -55q-22 -36 -144.5 -58t-252.5 -28q-39 -3 -61 0z" />
    <glyph glyph-name="Egrave" unicode="&#xc8;" horiz-adv-x="1292" 
d="M639 610l-100 -340q-27 -98 -27 -123q0 -33 32 -40t136 -7q189 0 268 47q24 14 49 41t35 41t38.5 58.5t29.5 46.5q21 29 32 38t31 9q25 0 37 -14.5t12 -34.5q0 -4 -12 -58q-5 -21 -25.5 -94.5t-29.5 -113.5q-9 -43 -29.5 -58.5t-64.5 -15.5q-34 0 -233.5 4t-362.5 4
q-183 0 -313.5 -4t-131.5 -4q-84 0 -84 43q0 16 7 26.5t23.5 15.5t31.5 7t43 4q64 3 88.5 35t54.5 133q114 384 225 768q2 9 9 30.5t10.5 37t3.5 26.5q0 59 -80 62q-5 0 -15.5 1t-15 1t-13 1t-12.5 2t-10.5 3t-9.5 4.5t-7.5 6t-6 8t-3 10t-1.5 12.5q0 22 16.5 33.5
t32.5 13.5t41 2q17 0 164.5 -4.5t292.5 -3.5q129 0 305.5 4t208.5 4q37 0 53 -5.5t16 -25.5q0 -18 -65 -231q-9 -31 -15.5 -47.5t-21 -32.5t-33.5 -16q-25 0 -34.5 14t-14.5 47q-8 124 -49 156q-20 17 -52.5 24.5t-60.5 8.5t-98 1q-96 0 -119 -10q-17 -10 -35 -78l-110 -368
q88 0 129 2q71 2 109 22.5t75 85.5q34 66 46 77q13 11 34 11q16 0 29.5 -11.5t13.5 -35.5q0 -14 -9.5 -48t-21.5 -69.5t-14 -43.5q-13 -37 -34.5 -115t-29.5 -115q-15 -51 -36 -64q-12 -8 -27 -8q-43 0 -47 46q-1 11 -1 26t0.5 33.5t0.5 28.5q0 21 -6 34.5t-13.5 21
t-25.5 11.5t-30.5 4.5t-39.5 1.5h-133zM539 1649v2q0 30 24 49.5t60 19.5q56 0 120 -67l201 -197q47 -47 47 -61q0 -19 -22 -19q-12 0 -68 27l-287 147q-75 35 -75 99z" />
    <glyph glyph-name="Eacute" unicode="&#xc9;" horiz-adv-x="1292" 
d="M639 610l-100 -340q-27 -98 -27 -123q0 -33 32 -40t136 -7q189 0 268 47q24 14 49 41t35 41t38.5 58.5t29.5 46.5q21 29 32 38t31 9q25 0 37 -14.5t12 -34.5q0 -4 -12 -58q-5 -21 -25.5 -94.5t-29.5 -113.5q-9 -43 -29.5 -58.5t-64.5 -15.5q-34 0 -233.5 4t-362.5 4
q-183 0 -313.5 -4t-131.5 -4q-84 0 -84 43q0 16 7 26.5t23.5 15.5t31.5 7t43 4q64 3 88.5 35t54.5 133q114 384 225 768q2 9 9 30.5t10.5 37t3.5 26.5q0 59 -80 62q-5 0 -15.5 1t-15 1t-13 1t-12.5 2t-10.5 3t-9.5 4.5t-7.5 6t-6 8t-3 10t-1.5 12.5q0 22 16.5 33.5
t32.5 13.5t41 2q17 0 164.5 -4.5t292.5 -3.5q129 0 305.5 4t208.5 4q37 0 53 -5.5t16 -25.5q0 -18 -65 -231q-9 -31 -15.5 -47.5t-21 -32.5t-33.5 -16q-25 0 -34.5 14t-14.5 47q-8 124 -49 156q-20 17 -52.5 24.5t-60.5 8.5t-98 1q-96 0 -119 -10q-17 -10 -35 -78l-110 -368
q88 0 129 2q71 2 109 22.5t75 85.5q34 66 46 77q13 11 34 11q16 0 29.5 -11.5t13.5 -35.5q0 -14 -9.5 -48t-21.5 -69.5t-14 -43.5q-13 -37 -34.5 -115t-29.5 -115q-15 -51 -36 -64q-12 -8 -27 -8q-43 0 -47 46q-1 11 -1 26t0.5 33.5t0.5 28.5q0 21 -6 34.5t-13.5 21
t-25.5 11.5t-30.5 4.5t-39.5 1.5h-133zM752 1376h-2q-8 0 -14.5 6t-6.5 13q0 24 59 65l252 187q73 55 127 55q35 0 60.5 -20.5t25.5 -55.5q0 -68 -94 -104l-315 -117q-9 -3 -33 -12t-37.5 -13t-21.5 -4z" />
    <glyph glyph-name="Ecircumflex" unicode="&#xca;" horiz-adv-x="1292" 
d="M639 610l-100 -340q-27 -98 -27 -123q0 -33 32 -40t136 -7q189 0 268 47q24 14 49 41t35 41t38.5 58.5t29.5 46.5q21 29 32 38t31 9q25 0 37 -14.5t12 -34.5q0 -4 -12 -58q-5 -21 -25.5 -94.5t-29.5 -113.5q-9 -43 -29.5 -58.5t-64.5 -15.5q-34 0 -233.5 4t-362.5 4
q-183 0 -313.5 -4t-131.5 -4q-84 0 -84 43q0 16 7 26.5t23.5 15.5t31.5 7t43 4q64 3 88.5 35t54.5 133q114 384 225 768q2 9 9 30.5t10.5 37t3.5 26.5q0 59 -80 62q-5 0 -15.5 1t-15 1t-13 1t-12.5 2t-10.5 3t-9.5 4.5t-7.5 6t-6 8t-3 10t-1.5 12.5q0 22 16.5 33.5
t32.5 13.5t41 2q17 0 164.5 -4.5t292.5 -3.5q129 0 305.5 4t208.5 4q37 0 53 -5.5t16 -25.5q0 -18 -65 -231q-9 -31 -15.5 -47.5t-21 -32.5t-33.5 -16q-25 0 -34.5 14t-14.5 47q-8 124 -49 156q-20 17 -52.5 24.5t-60.5 8.5t-98 1q-96 0 -119 -10q-17 -10 -35 -78l-110 -368
q88 0 129 2q71 2 109 22.5t75 85.5q34 66 46 77q13 11 34 11q16 0 29.5 -11.5t13.5 -35.5q0 -14 -9.5 -48t-21.5 -69.5t-14 -43.5q-13 -37 -34.5 -115t-29.5 -115q-15 -51 -36 -64q-12 -8 -27 -8q-43 0 -47 46q-1 11 -1 26t0.5 33.5t0.5 28.5q0 21 -6 34.5t-13.5 21
t-25.5 11.5t-30.5 4.5t-39.5 1.5h-133zM926 1595l-310 -186q-50 -33 -69 -33q-25 0 -25 19q0 5 3 10.5t9 12.5t11.5 13t14.5 15.5t15 15.5l209 203q34 32 45 41.5t26 18t28 8.5h112q24 0 35.5 -9.5t30.5 -50.5l108 -221q21 -47 21 -57q0 -19 -21 -19q-22 0 -63 47z" />
    <glyph glyph-name="Edieresis" unicode="&#xcb;" horiz-adv-x="1292" 
d="M639 610l-100 -340q-27 -98 -27 -123q0 -33 32 -40t136 -7q189 0 268 47q24 14 49 41t35 41t38.5 58.5t29.5 46.5q21 29 32 38t31 9q25 0 37 -14.5t12 -34.5q0 -4 -12 -58q-5 -21 -25.5 -94.5t-29.5 -113.5q-9 -43 -29.5 -58.5t-64.5 -15.5q-34 0 -233.5 4t-362.5 4
q-183 0 -313.5 -4t-131.5 -4q-84 0 -84 43q0 16 7 26.5t23.5 15.5t31.5 7t43 4q64 3 88.5 35t54.5 133q114 384 225 768q2 9 9 30.5t10.5 37t3.5 26.5q0 59 -80 62q-5 0 -15.5 1t-15 1t-13 1t-12.5 2t-10.5 3t-9.5 4.5t-7.5 6t-6 8t-3 10t-1.5 12.5q0 22 16.5 33.5
t32.5 13.5t41 2q17 0 164.5 -4.5t292.5 -3.5q129 0 305.5 4t208.5 4q37 0 53 -5.5t16 -25.5q0 -18 -65 -231q-9 -31 -15.5 -47.5t-21 -32.5t-33.5 -16q-25 0 -34.5 14t-14.5 47q-8 124 -49 156q-20 17 -52.5 24.5t-60.5 8.5t-98 1q-96 0 -119 -10q-17 -10 -35 -78l-110 -368
q88 0 129 2q71 2 109 22.5t75 85.5q34 66 46 77q13 11 34 11q16 0 29.5 -11.5t13.5 -35.5q0 -14 -9.5 -48t-21.5 -69.5t-14 -43.5q-13 -37 -34.5 -115t-29.5 -115q-15 -51 -36 -64q-12 -8 -27 -8q-43 0 -47 46q-1 11 -1 26t0.5 33.5t0.5 28.5q0 21 -6 34.5t-13.5 21
t-25.5 11.5t-30.5 4.5t-39.5 1.5h-133zM666 1427h-2q-43 0 -73 26t-30 73q0 60 47 108.5t107 48.5q44 0 74 -26.5t30 -73.5q0 -60 -46.5 -108t-106.5 -48zM1057 1427h-2q-44 0 -74.5 26t-30.5 73q0 60 47 108.5t107 48.5q44 0 75 -26.5t31 -73.5q0 -60 -47 -108t-106 -48z
" />
    <glyph glyph-name="Igrave" unicode="&#xcc;" horiz-adv-x="806" 
d="M514 156v-2q0 -62 94 -66q70 0 70 -43q0 -19 -9.5 -30.5t-28.5 -16t-31 -5.5t-31 -1q-16 0 -118 4t-192 4q-55 0 -146.5 -4t-121.5 -4q-36 0 -58 12t-22 33q0 33 25.5 42.5t89.5 14.5h6q59 4 83 38.5t54 137.5l225 764q21 72 21 94q0 32 -25.5 42t-74.5 10
q-12 -1 -26.5 1t-29 13t-14.5 31q0 51 106 51q27 0 113.5 -4t157.5 -4q78 0 174.5 4t128.5 4q70 0 70 -43q0 -21 -15 -33t-30 -14.5t-54 -6.5q-5 -1 -8 -1q-66 -4 -87 -31t-50 -123l-217 -739q0 -1 -10 -35.5t-14.5 -56.5t-4.5 -37zM287 1649v2q0 30 24 49.5t60 19.5
q57 0 121 -67l200 -197q47 -47 47 -61q0 -19 -22 -19q-12 0 -68 27l-287 147q-75 35 -75 99z" />
    <glyph glyph-name="Iacute" unicode="&#xcd;" horiz-adv-x="806" 
d="M514 156v-2q0 -62 94 -66q70 0 70 -43q0 -19 -9.5 -30.5t-28.5 -16t-31 -5.5t-31 -1q-16 0 -118 4t-192 4q-55 0 -146.5 -4t-121.5 -4q-36 0 -58 12t-22 33q0 33 25.5 42.5t89.5 14.5h6q59 4 83 38.5t54 137.5l225 764q21 72 21 94q0 32 -25.5 42t-74.5 10
q-12 -1 -26.5 1t-29 13t-14.5 31q0 51 106 51q27 0 113.5 -4t157.5 -4q78 0 174.5 4t128.5 4q70 0 70 -43q0 -21 -15 -33t-30 -14.5t-54 -6.5q-5 -1 -8 -1q-66 -4 -87 -31t-50 -123l-217 -739q0 -1 -10 -35.5t-14.5 -56.5t-4.5 -37zM485 1376h-2q-9 0 -15.5 5.5t-6.5 13.5
q0 21 59 65l252 187q73 55 129 55q34 0 59 -20.5t25 -55.5q0 -40 -25.5 -64t-68.5 -40l-316 -117q-80 -29 -90 -29z" />
    <glyph glyph-name="Icircumflex" unicode="&#xce;" horiz-adv-x="806" 
d="M514 156v-2q0 -62 94 -66q70 0 70 -43q0 -19 -9.5 -30.5t-28.5 -16t-31 -5.5t-31 -1q-16 0 -118 4t-192 4q-55 0 -146.5 -4t-121.5 -4q-36 0 -58 12t-22 33q0 33 25.5 42.5t89.5 14.5h6q59 4 83 38.5t54 137.5l225 764q21 72 21 94q0 32 -25.5 42t-74.5 10
q-12 -1 -26.5 1t-29 13t-14.5 31q0 51 106 51q27 0 113.5 -4t157.5 -4q78 0 174.5 4t128.5 4q70 0 70 -43q0 -21 -15 -33t-30 -14.5t-54 -6.5q-5 -1 -8 -1q-66 -4 -87 -31t-50 -123l-217 -739q0 -1 -10 -35.5t-14.5 -56.5t-4.5 -37zM666 1595l-310 -186q-50 -33 -69 -33
q-25 0 -25 19q0 5 3 10.5t9 12.5t11.5 13t14.5 15.5t15 15.5l209 203q34 32 45 41.5t26 18t28 8.5h112q24 0 35.5 -9.5t30.5 -50.5l108 -221q21 -47 21 -57q0 -19 -21 -19q-22 0 -63 47z" />
    <glyph glyph-name="Idieresis" unicode="&#xcf;" horiz-adv-x="806" 
d="M514 156v-2q0 -62 94 -66q70 0 70 -43q0 -19 -9.5 -30.5t-28.5 -16t-31 -5.5t-31 -1q-16 0 -118 4t-192 4q-55 0 -146.5 -4t-121.5 -4q-36 0 -58 12t-22 33q0 33 25.5 42.5t89.5 14.5h6q59 4 83 38.5t54 137.5l225 764q21 72 21 94q0 32 -25.5 42t-74.5 10
q-12 -1 -26.5 1t-29 13t-14.5 31q0 51 106 51q27 0 113.5 -4t157.5 -4q78 0 174.5 4t128.5 4q70 0 70 -43q0 -21 -15 -33t-30 -14.5t-54 -6.5q-5 -1 -8 -1q-66 -4 -87 -31t-50 -123l-217 -739q0 -1 -10 -35.5t-14.5 -56.5t-4.5 -37zM424 1427h-2q-44 0 -74.5 26t-30.5 73
q0 60 47 108.5t107 48.5q44 0 75.5 -26.5t31.5 -73.5q0 -60 -47.5 -108t-106.5 -48zM813 1427h-2q-43 0 -73.5 26t-30.5 73q0 60 47.5 108.5t107.5 48.5q44 0 74.5 -26.5t30.5 -73.5q0 -60 -47 -108t-107 -48z" />
    <glyph glyph-name="Eth" unicode="&#xd0;" horiz-adv-x="1574" 
d="M313 725l86 289q25 88 25 106q0 21 -9 34t-26 17.5t-27 5.5t-26 1q-86 0 -86 45q0 19 10.5 30.5t30.5 16t33 5.5t34 1q61 0 182.5 -4t180.5 -4q55 0 167 4t167 4q232 0 372 -115q78 -65 120 -158t42 -196q0 -158 -68 -311t-188 -267q-252 -237 -637 -237q-40 0 -184 4
t-260 4q-73 0 -155 -4t-93 -4q-19 0 -29.5 1t-26.5 4.5t-24 13t-8 24.5q0 32 24 41t95 14q61 4 85.5 36t49.5 114l111 372h-183q-37 0 -37 17q0 4 19 67q6 19 15.5 24t35.5 5h182zM641 612l-96 -325q-37 -124 -37 -144q0 -23 18 -35.5t38 -15t52 -2.5q260 0 435 242
q79 111 127.5 260.5t48.5 284.5q0 134 -71 215.5t-208 81.5q-116 0 -133 -17q-19 -14 -37 -78l-104 -354h258q20 0 27.5 -3t7.5 -13q0 -21 -19 -68q-6 -19 -15.5 -24t-35.5 -5h-256z" />
    <glyph glyph-name="Ntilde" unicode="&#xd1;" horiz-adv-x="1503" 
d="M1171 432h5q101 339 172 594q20 62 20 100q0 33 -25 43.5t-69 12.5q-64 4 -64 43q0 18 10 29.5t28.5 15.5t31 5t31.5 1q9 0 60.5 -4t92.5 -4q40 0 102 4t74 4q66 0 66 -45q0 -13 -5 -21.5t-11.5 -14t-22.5 -9.5t-27.5 -5.5t-37.5 -4.5q-51 -4 -74.5 -37t-54.5 -131
q-54 -190 -158 -540t-131 -443q-8 -28 -23 -36.5t-69 -8.5h-29t-22 1t-16.5 1t-12.5 3.5t-9 4t-7 6.5t-6 7.5t-6 10.5t-7 13l-465 989h-4q-18 -65 -81 -291t-97 -350q-43 -151 -43 -209q0 -43 24.5 -58.5t67.5 -19.5q34 -5 50.5 -15.5t16.5 -33.5q0 -47 -75 -47
q-5 0 -75.5 4t-115.5 4q-37 0 -90 -4t-65 -4q-86 0 -86 45q0 23 16 33.5t47 13.5q70 7 98 37q37 44 70 160q71 238 223 759q21 69 21 90q0 54 -84 54q-20 0 -32.5 2t-26 13.5t-13.5 33.5q0 15 6.5 24.5t21.5 13t26.5 4.5t33.5 1q10 0 72.5 -3t116.5 -3q50 0 121 3t83 3
q13 0 22 -2.5t16 -11t10.5 -14.5t12 -24t13.5 -28q60 -127 179.5 -382t178.5 -382zM1114 1409h-2q-55 0 -105.5 20.5t-82.5 45t-71 45.5t-73 22q-31 0 -58 -18.5t-42.5 -40t-34 -40t-35.5 -18.5q-26 0 -26 27q0 28 18.5 63.5t52 70t88 58t117.5 23.5q55 0 106.5 -20.5
t84 -45t71.5 -45.5t72 -22q31 -1 58 17.5t42.5 40.5t34 40.5t35.5 18.5q27 0 27 -29q0 -28 -19 -63t-52 -69.5t-88 -57.5t-118 -23z" />
    <glyph glyph-name="Ograve" unicode="&#xd2;" horiz-adv-x="1505" 
d="M1507 766v-2q0 -121 -40.5 -239.5t-115 -217.5t-173 -175t-222.5 -118.5t-256 -42.5q-247 0 -405 152q-172 158 -172 401q0 163 68 309t180 248.5t259.5 162t303.5 59.5q128 0 236 -42t181.5 -114.5t114.5 -170.5t41 -210zM940 1200h-2q-107 0 -194.5 -99t-155.5 -263
q-53 -130 -88 -273.5t-35 -226.5q0 -121 60 -192.5t161 -71.5q89 0 161.5 54.5t113.5 127.5q71 116 135.5 324.5t64.5 347.5q0 127 -54.5 199.5t-166.5 72.5zM635 1649v2q0 30 24.5 49.5t59.5 19.5q57 0 121 -67l200 -197q47 -44 47 -61q0 -19 -22 -19q-12 0 -68 27
l-286 147q-76 37 -76 99z" />
    <glyph glyph-name="Oacute" unicode="&#xd3;" horiz-adv-x="1505" 
d="M1507 766v-2q0 -121 -40.5 -239.5t-115 -217.5t-173 -175t-222.5 -118.5t-256 -42.5q-247 0 -405 152q-172 158 -172 401q0 163 68 309t180 248.5t259.5 162t303.5 59.5q128 0 236 -42t181.5 -114.5t114.5 -170.5t41 -210zM940 1200h-2q-107 0 -194.5 -99t-155.5 -263
q-53 -130 -88 -273.5t-35 -226.5q0 -121 60 -192.5t161 -71.5q89 0 161.5 54.5t113.5 127.5q71 116 135.5 324.5t64.5 347.5q0 127 -54.5 199.5t-166.5 72.5zM817 1376h-2q-9 0 -15.5 5.5t-6.5 13.5q0 23 61 65l250 187q73 55 129 55q35 0 60.5 -20.5t25.5 -55.5
q0 -69 -96 -104l-316 -117q-80 -29 -90 -29z" />
    <glyph glyph-name="Ocircumflex" unicode="&#xd4;" horiz-adv-x="1505" 
d="M1507 766v-2q0 -121 -40.5 -239.5t-115 -217.5t-173 -175t-222.5 -118.5t-256 -42.5q-247 0 -405 152q-172 158 -172 401q0 163 68 309t180 248.5t259.5 162t303.5 59.5q128 0 236 -42t181.5 -114.5t114.5 -170.5t41 -210zM940 1200h-2q-107 0 -194.5 -99t-155.5 -263
q-53 -130 -88 -273.5t-35 -226.5q0 -121 60 -192.5t161 -71.5q89 0 161.5 54.5t113.5 127.5q71 116 135.5 324.5t64.5 347.5q0 127 -54.5 199.5t-166.5 72.5zM997 1595l-309 -186q-50 -33 -70 -33q-22 0 -22 19q0 5 2.5 10t8.5 13t10.5 13t15 16t14.5 15l209 203
q58 54 74 62q12 6 26 6h113q23 0 34 -9.5t32 -50.5l106 -221q2 -5 9 -18t10.5 -22.5t3.5 -16.5q0 -8 -6.5 -13.5t-16.5 -5.5q-22 0 -63 47z" />
    <glyph glyph-name="Otilde" unicode="&#xd5;" horiz-adv-x="1505" 
d="M1507 766v-2q0 -121 -40.5 -239.5t-115 -217.5t-173 -175t-222.5 -118.5t-256 -42.5q-247 0 -405 152q-172 158 -172 401q0 163 68 309t180 248.5t259.5 162t303.5 59.5q128 0 236 -42t181.5 -114.5t114.5 -170.5t41 -210zM940 1200h-2q-107 0 -194.5 -99t-155.5 -263
q-53 -130 -88 -273.5t-35 -226.5q0 -121 60 -192.5t161 -71.5q89 0 161.5 54.5t113.5 127.5q71 116 135.5 324.5t64.5 347.5q0 127 -54.5 199.5t-166.5 72.5zM1090 1409h-3q-55 0 -105.5 20.5t-82.5 45t-71 45.5t-72 22q-31 0 -58.5 -18.5t-43 -40t-34 -40t-34.5 -18.5
q-12 0 -19.5 7.5t-7.5 19.5q0 28 19 63.5t52 70t88 58t118 23.5q55 0 106 -20.5t83.5 -45t71 -45.5t70.5 -22q31 -1 58.5 17.5t43 40.5t34.5 40.5t36 18.5q27 0 27 -29q0 -28 -19 -63t-52.5 -69.5t-88 -57.5t-116.5 -23z" />
    <glyph glyph-name="Odieresis" unicode="&#xd6;" horiz-adv-x="1505" 
d="M1507 766v-2q0 -121 -40.5 -239.5t-115 -217.5t-173 -175t-222.5 -118.5t-256 -42.5q-247 0 -405 152q-172 158 -172 401q0 163 68 309t180 248.5t259.5 162t303.5 59.5q128 0 236 -42t181.5 -114.5t114.5 -170.5t41 -210zM940 1200h-2q-107 0 -194.5 -99t-155.5 -263
q-53 -130 -88 -273.5t-35 -226.5q0 -121 60 -192.5t161 -71.5q89 0 161.5 54.5t113.5 127.5q71 116 135.5 324.5t64.5 347.5q0 127 -54.5 199.5t-166.5 72.5zM756 1427h-2q-43 0 -74 26t-31 73q0 60 47.5 108.5t106.5 48.5q45 0 75.5 -26.5t30.5 -73.5q0 -60 -46.5 -108
t-106.5 -48zM1145 1427h-2q-43 0 -73 26t-30 73q0 60 47 108.5t107 48.5q44 0 74 -26.5t30 -73.5q0 -60 -46.5 -108t-106.5 -48z" />
    <glyph glyph-name="multiply" unicode="&#xd7;" horiz-adv-x="1202" 
d="M514 518l-350 352l133 134l352 -353l352 353l134 -134l-353 -352l353 -352l-134 -133l-352 352l-352 -352l-133 133z" />
    <glyph glyph-name="Oslash" unicode="&#xd8;" horiz-adv-x="1542" 
d="M201 -98h-78q-27 0 -27 12q0 11 35 50q7 7 10 11l150 166q-148 155 -148 375q0 166 68 314t179.5 250.5t258.5 162.5t303 60q199 0 340 -101l123 137q21 22 29.5 27.5t25.5 5.5h78q27 0 27 -12q0 -8 -9 -19.5t-38 -42.5l-148 -163q71 -72 109.5 -169.5t38.5 -207.5
q0 -151 -64.5 -295t-172 -252t-258.5 -174t-314 -66q-183 0 -340 101l-125 -138q-20 -21 -29 -26.5t-24 -5.5zM518 334l621 758q-42 108 -183 108q-90 0 -172.5 -71t-136.5 -175t-88 -210t-41 -189q-11 -137 0 -221zM1149 940l-619 -758q42 -108 181 -108q74 0 142.5 47
t118.5 120t89 161.5t60.5 170t27.5 146.5q15 131 0 221z" />
    <glyph glyph-name="Ugrave" unicode="&#xd9;" horiz-adv-x="1441" 
d="M182 258v2q0 53 11.5 102.5t48.5 169.5l147 510q19 66 19 86q0 27 -22.5 39.5t-51.5 12.5q-20 2 -32 4t-25.5 7t-20 14t-6.5 22q0 20 21 34.5t65 14.5q22 0 127.5 -4t183.5 -4q63 0 142 4t98 4q74 0 74 -45q0 -17 -11.5 -28.5t-24 -15.5t-36.5 -9q-66 -7 -91 -36
t-50 -112q-44 -157 -179 -606q-3 -10 -11.5 -41t-11.5 -42.5t-8 -33t-6.5 -36.5t-1.5 -29q0 -77 62.5 -120.5t155.5 -43.5q78 0 141.5 25t103.5 61t73 93t50 102.5t35 107.5q69 231 156 532q24 89 24 121q0 17 -5 28.5t-11 18t-22 10.5t-28 5.5t-38 3.5q-20 2 -33.5 12.5
t-13.5 28.5q0 49 71 49q15 0 73 -4t95 -4q38 0 91 4t65 4q59 0 59 -41q0 -27 -19 -37.5t-61 -17.5q-54 -9 -72.5 -30t-43.5 -103q-29 -95 -85.5 -286t-84.5 -286q-23 -80 -37.5 -123t-48.5 -111t-76 -112q-148 -158 -438 -158q-58 0 -116 6t-127 25t-121 49t-87 83.5
t-35 123.5zM621 1649v2q0 30 24.5 49.5t59.5 19.5q56 0 120 -67l201 -197q47 -44 47 -61q0 -19 -22 -19q-12 0 -68 27l-287 147q-75 37 -75 99z" />
    <glyph glyph-name="Uacute" unicode="&#xda;" horiz-adv-x="1441" 
d="M182 258v2q0 53 11.5 102.5t48.5 169.5l147 510q19 66 19 86q0 27 -22.5 39.5t-51.5 12.5q-20 2 -32 4t-25.5 7t-20 14t-6.5 22q0 20 21 34.5t65 14.5q22 0 127.5 -4t183.5 -4q63 0 142 4t98 4q74 0 74 -45q0 -17 -11.5 -28.5t-24 -15.5t-36.5 -9q-66 -7 -91 -36
t-50 -112q-44 -157 -179 -606q-3 -10 -11.5 -41t-11.5 -42.5t-8 -33t-6.5 -36.5t-1.5 -29q0 -77 62.5 -120.5t155.5 -43.5q78 0 141.5 25t103.5 61t73 93t50 102.5t35 107.5q69 231 156 532q24 89 24 121q0 17 -5 28.5t-11 18t-22 10.5t-28 5.5t-38 3.5q-20 2 -33.5 12.5
t-13.5 28.5q0 49 71 49q15 0 73 -4t95 -4q38 0 91 4t65 4q59 0 59 -41q0 -27 -19 -37.5t-61 -17.5q-54 -9 -72.5 -30t-43.5 -103q-29 -95 -85.5 -286t-84.5 -286q-23 -80 -37.5 -123t-48.5 -111t-76 -112q-148 -158 -438 -158q-58 0 -116 6t-127 25t-121 49t-87 83.5
t-35 123.5zM827 1376h-2q-9 0 -15.5 5.5t-6.5 13.5q0 24 59 65l252 187q73 55 127 55q36 0 61 -20.5t25 -55.5q0 -40 -25.5 -64t-68.5 -40l-315 -117q-80 -29 -91 -29z" />
    <glyph glyph-name="Ucircumflex" unicode="&#xdb;" horiz-adv-x="1441" 
d="M182 258v2q0 53 11.5 102.5t48.5 169.5l147 510q19 66 19 86q0 27 -22.5 39.5t-51.5 12.5q-20 2 -32 4t-25.5 7t-20 14t-6.5 22q0 20 21 34.5t65 14.5q22 0 127.5 -4t183.5 -4q63 0 142 4t98 4q74 0 74 -45q0 -17 -11.5 -28.5t-24 -15.5t-36.5 -9q-66 -7 -91 -36
t-50 -112q-44 -157 -179 -606q-3 -10 -11.5 -41t-11.5 -42.5t-8 -33t-6.5 -36.5t-1.5 -29q0 -77 62.5 -120.5t155.5 -43.5q78 0 141.5 25t103.5 61t73 93t50 102.5t35 107.5q69 231 156 532q24 89 24 121q0 17 -5 28.5t-11 18t-22 10.5t-28 5.5t-38 3.5q-20 2 -33.5 12.5
t-13.5 28.5q0 49 71 49q15 0 73 -4t95 -4q38 0 91 4t65 4q59 0 59 -41q0 -27 -19 -37.5t-61 -17.5q-54 -9 -72.5 -30t-43.5 -103q-29 -95 -85.5 -286t-84.5 -286q-23 -80 -37.5 -123t-48.5 -111t-76 -112q-148 -158 -438 -158q-58 0 -116 6t-127 25t-121 49t-87 83.5
t-35 123.5zM1016 1595l-309 -186q-50 -33 -70 -33q-23 0 -23 19q0 5 2.5 10.5t8.5 12.5t11.5 13t15 16t14.5 15l208 203q34 31 45.5 41t26.5 18.5t29 8.5h112q23 0 34 -9.5t32 -50.5l107 -221q2 -5 6.5 -14t7.5 -15.5t5.5 -14t2.5 -13.5q0 -19 -22 -19q-23 0 -64 47z" />
    <glyph glyph-name="Udieresis" unicode="&#xdc;" horiz-adv-x="1441" 
d="M182 258v2q0 53 11.5 102.5t48.5 169.5l147 510q19 66 19 86q0 27 -22.5 39.5t-51.5 12.5q-20 2 -32 4t-25.5 7t-20 14t-6.5 22q0 20 21 34.5t65 14.5q22 0 127.5 -4t183.5 -4q63 0 142 4t98 4q74 0 74 -45q0 -17 -11.5 -28.5t-24 -15.5t-36.5 -9q-66 -7 -91 -36
t-50 -112q-44 -157 -179 -606q-3 -10 -11.5 -41t-11.5 -42.5t-8 -33t-6.5 -36.5t-1.5 -29q0 -77 62.5 -120.5t155.5 -43.5q78 0 141.5 25t103.5 61t73 93t50 102.5t35 107.5q69 231 156 532q24 89 24 121q0 17 -5 28.5t-11 18t-22 10.5t-28 5.5t-38 3.5q-20 2 -33.5 12.5
t-13.5 28.5q0 49 71 49q15 0 73 -4t95 -4q38 0 91 4t65 4q59 0 59 -41q0 -27 -19 -37.5t-61 -17.5q-54 -9 -72.5 -30t-43.5 -103q-29 -95 -85.5 -286t-84.5 -286q-23 -80 -37.5 -123t-48.5 -111t-76 -112q-148 -158 -438 -158q-58 0 -116 6t-127 25t-121 49t-87 83.5
t-35 123.5zM756 1427h-2q-43 0 -73 26t-30 73q0 60 47 108.5t107 48.5q44 0 75 -26.5t31 -73.5q0 -60 -47.5 -108t-107.5 -48zM1147 1427h-2q-43 0 -74 26t-31 73q0 60 47.5 108.5t106.5 48.5q45 0 75.5 -26.5t30.5 -73.5q0 -60 -46.5 -108t-106.5 -48z" />
    <glyph glyph-name="Yacute" unicode="&#xdd;" horiz-adv-x="1370" 
d="M750 1128v-2q0 -28 22 -96q12 -42 33.5 -114.5t39 -133t32.5 -114.5q305 348 311 356q69 79 69 115q0 8 -3.5 15t-8 11t-14 7.5t-14.5 5t-15.5 3.5t-13.5 3q-32 7 -46 16t-14 29q0 47 70 47q15 0 67.5 -4t98.5 -4q39 0 97 4t81 4q70 0 70 -43q0 -39 -60 -49
q-51 -7 -82 -29t-79 -76q-77 -86 -231.5 -259t-231.5 -259q-92 -309 -94 -315q-21 -82 -21 -103q0 -34 22 -46t68 -15q68 0 68 -41q0 -17 -8.5 -27.5t-27 -15t-34.5 -5.5t-43 -1q-42 0 -149.5 4t-149.5 4q-45 0 -127 -4t-104 -4q-23 0 -35.5 1t-30 4.5t-25.5 13t-8 24.5
q0 21 14.5 32t33 14.5t63.5 7.5q7 1 10 1q29 2 49 12.5t33.5 33t20 40t17.5 52.5q1 2 1 3.5t1 3t1 3.5q34 111 90 305q-31 86 -92 258t-92 258q-25 65 -45.5 91t-59.5 30q-48 7 -67 15t-19 30q0 18 10 29.5t29 15.5t31.5 5t32.5 1q39 0 119.5 -4t119.5 -4q71 0 174 4t130 4
q67 0 67 -41q0 -15 -7 -25t-21 -16t-25 -8.5t-29 -5.5q-69 -5 -69 -52zM791 1376h-3q-9 0 -15.5 5.5t-6.5 13.5q0 21 59 65l252 187q73 55 129 55q34 0 59 -20.5t25 -55.5q0 -40 -25.5 -64t-68.5 -40l-315 -117q-80 -29 -90 -29z" />
    <glyph glyph-name="Thorn" unicode="&#xde;" horiz-adv-x="1376" 
d="M1409 762v-2q0 -116 -78.5 -220.5t-224.5 -160.5q-101 -41 -197.5 -55t-236.5 -17q-43 -2 -123 -2q-37 -119 -37 -145q0 -40 24.5 -54t69.5 -16q1 0 10 -0.5t13 -1t13 -2t14 -3.5t12 -5.5t10.5 -7.5t6.5 -10.5t3 -14.5q0 -19 -9.5 -30.5t-28.5 -16t-31 -5.5t-31 -1
q-16 0 -117 4t-190 4q-70 0 -159 -4t-116 -4q-80 0 -80 51q0 28 24 38t81 13q62 4 88.5 38.5t58.5 141.5q34 113 71.5 240.5t82 280t69.5 239.5q23 79 23 94q0 22 -17.5 34t-39 15t-54.5 3q-12 -1 -26 1t-27.5 12.5t-13.5 29.5q0 53 106 53q24 0 112.5 -4t164.5 -4
q79 0 175 4t128 4q69 0 69 -43q0 -31 -24 -40.5t-88 -14.5q-58 -4 -82.5 -35t-40.5 -103q10 -3 99 -1.5t91 1.5q246 0 355 -82q98 -72 98 -196zM715 874l-119 -405q-12 -46 -12 -53q0 -14 47 -10q186 7 293 108q57 57 88.5 134t31.5 143q0 41 -12.5 70.5t-30.5 45
t-46.5 24.5t-51.5 11t-55 2q-61 0 -81.5 -4t-30.5 -16t-21 -50z" />
    <glyph glyph-name="germandbls" unicode="&#xdf;" horiz-adv-x="1429" 
d="M344 795h-162q-30 0 -30 16q0 22 18 70q5 12 13 17.5t15 6t27 0.5h152q79 239 244.5 367.5t408.5 128.5q78 0 148.5 -14.5t134 -45t101.5 -87t38 -132.5q0 -64 -21 -114t-56 -81.5t-77.5 -54t-89 -37t-86.5 -25.5t-73.5 -24.5t-47.5 -29.5q13 -16 53.5 -39t84 -50.5
t87 -67.5t71.5 -106.5t28 -150.5q0 -89 -36.5 -161.5t-97 -116.5t-132.5 -67.5t-148 -23.5q-40 0 -93.5 7.5t-109.5 21.5t-94.5 39.5t-38.5 56.5q0 21 21 107q27 92 72 92q28 0 43 -20t30 -60q31 -80 52 -107q38 -47 100 -47q69 0 108 63.5t39 158.5q0 68 -20.5 122
t-50.5 85.5t-66 59.5t-66 47t-50.5 45.5t-20.5 57.5q0 38 22 64t57 41.5t77.5 29.5t85.5 34.5t78 49.5t57 81.5t22 123.5q0 77 -43.5 125.5t-115.5 48.5q-43 0 -82 -17t-68.5 -43t-57.5 -69t-46.5 -81t-38.5 -94t-31.5 -93.5t-26.5 -93.5q-129 -471 -196 -692
q-42 -138 -92 -239t-123 -175q-88 -89 -194.5 -130.5t-192.5 -41.5q-110 0 -172 46t-62 116q0 57 38 93t97 36q99 0 131 -88q12 -41 13 -51q1 -18 2.5 -26t8 -17t19.5 -9q41 0 95 123q15 32 31.5 78t27 80.5t27.5 91.5t24 78q32 108 101 347.5t106 365.5z" />
    <glyph glyph-name="agrave" unicode="&#xe0;" horiz-adv-x="1300" 
d="M29 197v2q0 118 66 249.5t167 235.5q105 107 231 173.5t244 66.5q46 0 81.5 -13t56.5 -26t34 -13t37 46q14 26 55 28q49 2 166 2q58 -3 58 -37q0 -12 -17 -69q-26 -84 -84.5 -261t-81.5 -249q-22 -68 -22 -92q0 -27 18 -27q22 0 60 39.5t59 71.5q4 5 10 11.5t8.5 10t7 9
t7 7.5t6 5.5t5.5 5t5 3.5t5.5 3t5.5 1.5t6 0.5q16 0 25 -10t9 -23q0 -34 -44.5 -100t-100.5 -117q-73 -66 -157.5 -112t-163.5 -46q-93 0 -93 109q0 54 19 119q31 108 94 284h-4q-53 -87 -120 -173t-146.5 -164.5t-166.5 -127.5t-161 -49q-75 0 -129.5 61.5t-54.5 164.5z
M885 756v2q0 27 -21.5 46t-58.5 19q-65 0 -140.5 -55t-142.5 -135q-61 -72 -107 -165.5t-46 -158.5q0 -29 15 -52.5t42 -23.5q90 0 285 226q62 73 118 162.5t56 134.5zM520 1327v2q0 30 24 50t58 20q56 0 121 -68l203 -196q47 -47 47 -62q0 -18 -23 -18q-10 0 -69 26
l-287 148q-74 36 -74 98z" />
    <glyph glyph-name="aacute" unicode="&#xe1;" horiz-adv-x="1300" 
d="M29 197v2q0 118 66 249.5t167 235.5q105 107 231 173.5t244 66.5q46 0 81.5 -13t56.5 -26t34 -13t37 46q14 26 55 28q49 2 166 2q58 -3 58 -37q0 -12 -17 -69q-26 -84 -84.5 -261t-81.5 -249q-22 -68 -22 -92q0 -27 18 -27q22 0 60 39.5t59 71.5q4 5 10 11.5t8.5 10t7 9
t7 7.5t6 5.5t5.5 5t5 3.5t5.5 3t5.5 1.5t6 0.5q16 0 25 -10t9 -23q0 -34 -44.5 -100t-100.5 -117q-73 -66 -157.5 -112t-163.5 -46q-93 0 -93 109q0 54 19 119q31 108 94 284h-4q-53 -87 -120 -173t-146.5 -164.5t-166.5 -127.5t-161 -49q-75 0 -129.5 61.5t-54.5 164.5z
M885 756v2q0 27 -21.5 46t-58.5 19q-65 0 -140.5 -55t-142.5 -135q-61 -72 -107 -165.5t-46 -158.5q0 -29 15 -52.5t42 -23.5q90 0 285 226q62 73 118 162.5t56 134.5zM690 1055h-2q-9 0 -15.5 5.5t-6.5 12.5q0 24 61 66l250 186q73 55 129 55q35 0 60.5 -20t25.5 -55
q0 -70 -96 -105l-316 -117q-77 -28 -90 -28z" />
    <glyph glyph-name="acircumflex" unicode="&#xe2;" horiz-adv-x="1300" 
d="M29 197v2q0 118 66 249.5t167 235.5q105 107 231 173.5t244 66.5q46 0 81.5 -13t56.5 -26t34 -13t37 46q14 26 55 28q49 2 166 2q58 -3 58 -37q0 -12 -17 -69q-26 -84 -84.5 -261t-81.5 -249q-22 -68 -22 -92q0 -27 18 -27q22 0 60 39.5t59 71.5q4 5 10 11.5t8.5 10t7 9
t7 7.5t6 5.5t5.5 5t5 3.5t5.5 3t5.5 1.5t6 0.5q16 0 25 -10t9 -23q0 -34 -44.5 -100t-100.5 -117q-73 -66 -157.5 -112t-163.5 -46q-93 0 -93 109q0 54 19 119q31 108 94 284h-4q-53 -87 -120 -173t-146.5 -164.5t-166.5 -127.5t-161 -49q-75 0 -129.5 61.5t-54.5 164.5z
M885 756v2q0 27 -21.5 46t-58.5 19q-65 0 -140.5 -55t-142.5 -135q-61 -72 -107 -165.5t-46 -158.5q0 -29 15 -52.5t42 -23.5q90 0 285 226q62 73 118 162.5t56 134.5zM893 1274l-311 -187q-44 -32 -70 -32q-23 0 -23 18q0 3 1 5.5t3 6.5t4 7t6 7.5t6.5 7.5t7.5 8l8 8l9 9
l9 9l209 202q33 32 43.5 41.5t25.5 18t29 8.5h113q23 0 33.5 -9t31.5 -50l109 -222q20 -45 20 -57q0 -18 -22 -18q-17 0 -64 47z" />
    <glyph glyph-name="atilde" unicode="&#xe3;" horiz-adv-x="1300" 
d="M29 197v2q0 118 66 249.5t167 235.5q105 107 231 173.5t244 66.5q46 0 81.5 -13t56.5 -26t34 -13t37 46q14 26 55 28q49 2 166 2q58 -3 58 -37q0 -12 -17 -69q-26 -84 -84.5 -261t-81.5 -249q-22 -68 -22 -92q0 -27 18 -27q22 0 60 39.5t59 71.5q4 5 10 11.5t8.5 10t7 9
t7 7.5t6 5.5t5.5 5t5 3.5t5.5 3t5.5 1.5t6 0.5q16 0 25 -10t9 -23q0 -34 -44.5 -100t-100.5 -117q-73 -66 -157.5 -112t-163.5 -46q-93 0 -93 109q0 54 19 119q31 108 94 284h-4q-53 -87 -120 -173t-146.5 -164.5t-166.5 -127.5t-161 -49q-75 0 -129.5 61.5t-54.5 164.5z
M885 756v2q0 27 -21.5 46t-58.5 19q-65 0 -140.5 -55t-142.5 -135q-61 -72 -107 -165.5t-46 -158.5q0 -29 15 -52.5t42 -23.5q90 0 285 226q62 73 118 162.5t56 134.5zM971 1087h-2q-55 0 -105.5 20.5t-82.5 45.5t-71 46t-73 22q-31 0 -58 -18.5t-42.5 -40t-34 -40
t-35.5 -18.5q-27 0 -27 26q0 28 19 63.5t52 70.5t88 58.5t118 23.5q45 0 86.5 -13.5t73 -33t60 -39t58 -33.5t56.5 -15q31 -1 58 17.5t42.5 40.5t34 40.5t35.5 18.5q26 0 26 -29q0 -28 -18.5 -63t-52 -69.5t-88 -57.5t-117.5 -23z" />
    <glyph glyph-name="adieresis" unicode="&#xe4;" horiz-adv-x="1300" 
d="M29 197v2q0 118 66 249.5t167 235.5q105 107 231 173.5t244 66.5q46 0 81.5 -13t56.5 -26t34 -13t37 46q14 26 55 28q49 2 166 2q58 -3 58 -37q0 -12 -17 -69q-26 -84 -84.5 -261t-81.5 -249q-22 -68 -22 -92q0 -27 18 -27q22 0 60 39.5t59 71.5q4 5 10 11.5t8.5 10t7 9
t7 7.5t6 5.5t5.5 5t5 3.5t5.5 3t5.5 1.5t6 0.5q16 0 25 -10t9 -23q0 -34 -44.5 -100t-100.5 -117q-73 -66 -157.5 -112t-163.5 -46q-93 0 -93 109q0 54 19 119q31 108 94 284h-4q-53 -87 -120 -173t-146.5 -164.5t-166.5 -127.5t-161 -49q-75 0 -129.5 61.5t-54.5 164.5z
M885 756v2q0 27 -21.5 46t-58.5 19q-65 0 -140.5 -55t-142.5 -135q-61 -72 -107 -165.5t-46 -158.5q0 -29 15 -52.5t42 -23.5q90 0 285 226q62 73 118 162.5t56 134.5zM649 1106h-2q-43 0 -73.5 25.5t-30.5 72.5q0 60 47.5 109t105.5 49q45 0 76 -26.5t31 -73.5
q0 -60 -47 -108t-107 -48zM1038 1106h-2q-43 0 -72.5 25.5t-29.5 72.5q0 60 46.5 109t106.5 49q44 0 74.5 -26.5t30.5 -73.5q0 -60 -47 -108t-107 -48z" />
    <glyph glyph-name="aring" unicode="&#xe5;" horiz-adv-x="1300" 
d="M29 197v2q0 118 66 249.5t167 235.5q105 107 231 173.5t244 66.5q46 0 81.5 -13t56.5 -26t34 -13t37 46q14 26 55 28q49 2 166 2q58 -3 58 -37q0 -12 -17 -69q-26 -84 -84.5 -261t-81.5 -249q-22 -68 -22 -92q0 -27 18 -27q22 0 60 39.5t59 71.5q4 5 10 11.5t8.5 10t7 9
t7 7.5t6 5.5t5.5 5t5 3.5t5.5 3t5.5 1.5t6 0.5q16 0 25 -10t9 -23q0 -34 -44.5 -100t-100.5 -117q-73 -66 -157.5 -112t-163.5 -46q-93 0 -93 109q0 54 19 119q31 108 94 284h-4q-53 -87 -120 -173t-146.5 -164.5t-166.5 -127.5t-161 -49q-75 0 -129.5 61.5t-54.5 164.5z
M885 756v2q0 27 -21.5 46t-58.5 19q-65 0 -140.5 -55t-142.5 -135q-61 -72 -107 -165.5t-46 -158.5q0 -29 15 -52.5t42 -23.5q90 0 285 226q62 73 118 162.5t56 134.5zM864 1051h-2q-94 0 -159.5 61.5t-65.5 155.5q0 93 66 154t161 61q94 0 160 -61.5t66 -153.5
q0 -94 -66 -155.5t-160 -61.5zM864 1147h2q50 0 83.5 34.5t33.5 86.5q0 51 -34 84.5t-85 33.5t-86 -33.5t-35 -84.5q0 -52 35 -86.5t86 -34.5z" />
    <glyph glyph-name="ae" unicode="&#xe6;" horiz-adv-x="1662" 
d="M733 322h-4q-123 -151 -257.5 -251t-252.5 -100q-77 0 -134.5 57.5t-57.5 161.5q0 122 63 254.5t161.5 237.5t227.5 173.5t252 68.5q99 0 182 -56q10 6 31.5 39.5t48.5 34.5q29 2 111 2q47 0 47 -22q0 -4 -2 -13t-5.5 -21t-4.5 -18q108 68 225 68q27 0 58.5 -3.5
t74.5 -17t76.5 -34t57.5 -59.5t24 -89q0 -46 -18.5 -86t-42 -68t-70 -54.5t-77.5 -40.5t-91 -31t-84 -22.5t-80 -17.5q-16 -3 -23 -5q-15 -3 -59 -11.5t-66 -11.5q-6 -30 -6 -63q0 -82 39 -129.5t103 -47.5q108 0 235 123q6 6 17.5 17t17 16t14 13t13 11.5t10.5 7.5t10 5.5
t8 1.5q16 0 24.5 -9.5t8.5 -21.5q0 -33 -53 -102q-75 -97 -194 -167.5t-251 -70.5q-144 0 -228.5 79t-84.5 200q0 11 1 23t2.5 26t2.5 23zM1423 772v2q0 36 -19 58t-54 22q-83 0 -169 -105t-124 -274q51 10 97.5 24t97.5 38.5t87 56t60 77.5t24 101zM877 758v2
q0 24 -22 41.5t-56 17.5q-88 0 -195 -93t-178.5 -216t-71.5 -209q0 -35 18.5 -58.5t53.5 -23.5q68 0 178 106.5t191.5 236.5t81.5 196z" />
    <glyph glyph-name="ccedilla" unicode="&#xe7;" horiz-adv-x="970" 
d="M399 -27l-55 -90q28 4 45 4q73 0 119.5 -36t46.5 -97q0 -78 -74.5 -133t-191.5 -55q-83 0 -146 28.5t-63 71.5q-3 21 11.5 38t37.5 17q20 0 35.5 -9.5t26.5 -23.5t22.5 -28t30.5 -23.5t43 -9.5q52 0 85.5 32t33.5 79q0 37 -25.5 56.5t-61.5 19.5q-17 0 -48 -5.5t-42 -5.5
q-20 0 -20 15q0 8 22 45l74 117q-112 24 -183 119t-71 214q0 102 48 212.5t132 197.5q91 96 220.5 155.5t279.5 59.5q124 0 193 -44.5t69 -94.5q0 -45 -38.5 -81t-84.5 -36q-59 0 -100 41q-30 26 -57 82q-22 43 -47 43q-31 0 -78 -49.5t-86 -116.5q-53 -84 -89 -185
t-36 -184q0 -76 36 -118.5t97 -42.5q63 0 134 42t124 103q5 6 13.5 15t13 14t11.5 12.5t11 11.5t9.5 9t9 8t8 5.5t8 3.5t6.5 1q14 0 22.5 -11t8.5 -24q0 -46 -74 -137q-79 -93 -185.5 -159t-230.5 -73z" />
    <glyph glyph-name="egrave" unicode="&#xe8;" horiz-adv-x="976" 
d="M993 735v-2q0 -38 -12 -71.5t-29.5 -59t-49.5 -49.5t-58 -40t-71.5 -32t-72.5 -25t-78 -20t-72 -15t-70 -12t-58 -10q-8 -2 -26.5 -6t-26.5 -6q-7 -40 -7 -68q0 -84 40 -128t112 -44t142.5 44.5t121.5 105.5q45 45 66 45q16 0 24.5 -9.5t8.5 -21.5q0 -27 -56 -100
q-79 -99 -197 -169.5t-257 -70.5q-80 0 -144 28t-102.5 74.5t-59 103t-20.5 118.5q0 111 53 226t140 207t211.5 151t256.5 59q26 0 57.5 -4t74.5 -17t77 -34t58 -59.5t24 -88.5zM686 854h-2q-85 0 -173.5 -104.5t-127.5 -274.5q116 23 205.5 65.5t128.5 100.5q45 67 45 133
q0 37 -20.5 58.5t-55.5 21.5zM365 1327v2q0 30 24 50t60 20q55 0 120 -68l201 -196q47 -47 47 -62q0 -18 -22 -18q-14 0 -68 26l-287 148q-75 35 -75 98z" />
    <glyph glyph-name="eacute" unicode="&#xe9;" horiz-adv-x="976" 
d="M993 735v-2q0 -38 -12 -71.5t-29.5 -59t-49.5 -49.5t-58 -40t-71.5 -32t-72.5 -25t-78 -20t-72 -15t-70 -12t-58 -10q-8 -2 -26.5 -6t-26.5 -6q-7 -40 -7 -68q0 -84 40 -128t112 -44t142.5 44.5t121.5 105.5q45 45 66 45q16 0 24.5 -9.5t8.5 -21.5q0 -27 -56 -100
q-79 -99 -197 -169.5t-257 -70.5q-80 0 -144 28t-102.5 74.5t-59 103t-20.5 118.5q0 111 53 226t140 207t211.5 151t256.5 59q26 0 57.5 -4t74.5 -17t77 -34t58 -59.5t24 -88.5zM686 854h-2q-85 0 -173.5 -104.5t-127.5 -274.5q116 23 205.5 65.5t128.5 100.5q45 67 45 133
q0 37 -20.5 58.5t-55.5 21.5zM528 1055h-2q-8 0 -14 5.5t-6 12.5q0 25 59 66l252 186q73 55 127 55q35 0 60.5 -20t25.5 -55q0 -69 -94 -105l-315 -117q-82 -28 -93 -28z" />
    <glyph glyph-name="ecircumflex" unicode="&#xea;" horiz-adv-x="976" 
d="M993 735v-2q0 -38 -12 -71.5t-29.5 -59t-49.5 -49.5t-58 -40t-71.5 -32t-72.5 -25t-78 -20t-72 -15t-70 -12t-58 -10q-8 -2 -26.5 -6t-26.5 -6q-7 -40 -7 -68q0 -84 40 -128t112 -44t142.5 44.5t121.5 105.5q45 45 66 45q16 0 24.5 -9.5t8.5 -21.5q0 -27 -56 -100
q-79 -99 -197 -169.5t-257 -70.5q-80 0 -144 28t-102.5 74.5t-59 103t-20.5 118.5q0 111 53 226t140 207t211.5 151t256.5 59q26 0 57.5 -4t74.5 -17t77 -34t58 -59.5t24 -88.5zM686 854h-2q-85 0 -173.5 -104.5t-127.5 -274.5q116 23 205.5 65.5t128.5 100.5q45 67 45 133
q0 37 -20.5 58.5t-55.5 21.5zM735 1274l-309 -187q-48 -32 -70 -32q-24 0 -24 18q0 5 3 10.5t9 13t11 13t15 16t15 15.5l209 202q59 55 74 62q13 6 24 6h113q24 0 35 -9t30 -50l109 -222q20 -45 20 -57q0 -18 -20 -18q-23 0 -64 47z" />
    <glyph glyph-name="edieresis" unicode="&#xeb;" horiz-adv-x="976" 
d="M993 735v-2q0 -38 -12 -71.5t-29.5 -59t-49.5 -49.5t-58 -40t-71.5 -32t-72.5 -25t-78 -20t-72 -15t-70 -12t-58 -10q-8 -2 -26.5 -6t-26.5 -6q-7 -40 -7 -68q0 -84 40 -128t112 -44t142.5 44.5t121.5 105.5q45 45 66 45q16 0 24.5 -9.5t8.5 -21.5q0 -27 -56 -100
q-79 -99 -197 -169.5t-257 -70.5q-80 0 -144 28t-102.5 74.5t-59 103t-20.5 118.5q0 111 53 226t140 207t211.5 151t256.5 59q26 0 57.5 -4t74.5 -17t77 -34t58 -59.5t24 -88.5zM686 854h-2q-85 0 -173.5 -104.5t-127.5 -274.5q116 23 205.5 65.5t128.5 100.5q45 67 45 133
q0 37 -20.5 58.5t-55.5 21.5zM475 1106h-2q-43 0 -72.5 25.5t-29.5 72.5q0 60 46.5 109t106.5 49q44 0 74.5 -26.5t30.5 -73.5q0 -60 -47 -108t-107 -48zM866 1106h-2q-44 0 -74 25.5t-30 72.5q0 60 46.5 109t106.5 49q44 0 75.5 -26.5t31.5 -73.5q0 -60 -47.5 -108
t-106.5 -48z" />
    <glyph glyph-name="igrave" unicode="&#xec;" horiz-adv-x="768" 
d="M668 848v-2q0 -34 -33 -131q-14 -47 -131 -391q-27 -69 -27 -95q0 -32 25 -32q22 0 59 40t66 89q23 35 36.5 49t26.5 14q14 0 21.5 -10t7.5 -23q0 -49 -80 -155q-68 -88 -170.5 -159t-200.5 -71q-71 0 -98 34.5t-27 92.5q0 47 39 166q18 59 42 129t52 151t39 113
q19 59 19 60q0 26 -21 26q-37 0 -106 -81q-38 -42 -56 -58t-30 -16q-13 0 -21 10.5t-8 22.5q0 23 34.5 70.5t74.5 86.5q72 65 163.5 112.5t184.5 47.5q47 0 83 -20.5t36 -69.5zM285 1327v2q0 30 24 50t58 20q55 0 120 -68l203 -196q47 -47 47 -62q0 -18 -22 -18
q-11 0 -70 26l-287 148q-73 36 -73 98z" />
    <glyph glyph-name="iacute" unicode="&#xed;" horiz-adv-x="768" 
d="M668 848v-2q0 -34 -33 -131q-14 -47 -131 -391q-27 -69 -27 -95q0 -32 25 -32q22 0 59 40t66 89q23 35 36.5 49t26.5 14q14 0 21.5 -10t7.5 -23q0 -49 -80 -155q-68 -88 -170.5 -159t-200.5 -71q-71 0 -98 34.5t-27 92.5q0 47 39 166q18 59 42 129t52 151t39 113
q19 59 19 60q0 26 -21 26q-37 0 -106 -81q-38 -42 -56 -58t-30 -16q-13 0 -21 10.5t-8 22.5q0 23 34.5 70.5t74.5 86.5q72 65 163.5 112.5t184.5 47.5q47 0 83 -20.5t36 -69.5zM391 1055h-2q-9 0 -15.5 5.5t-6.5 12.5q0 24 61 66l250 186q73 55 129 55q35 0 60.5 -20
t25.5 -55q0 -70 -96 -105l-316 -117q-77 -28 -90 -28z" />
    <glyph glyph-name="icircumflex" unicode="&#xee;" horiz-adv-x="768" 
d="M668 848v-2q0 -34 -33 -131q-14 -47 -131 -391q-27 -69 -27 -95q0 -32 25 -32q22 0 59 40t66 89q23 35 36.5 49t26.5 14q14 0 21.5 -10t7.5 -23q0 -49 -80 -155q-68 -88 -170.5 -159t-200.5 -71q-71 0 -98 34.5t-27 92.5q0 47 39 166q18 59 42 129t52 151t39 113
q19 59 19 60q0 26 -21 26q-37 0 -106 -81q-38 -42 -56 -58t-30 -16q-13 0 -21 10.5t-8 22.5q0 23 34.5 70.5t74.5 86.5q72 65 163.5 112.5t184.5 47.5q47 0 83 -20.5t36 -69.5zM604 1274l-309 -187q-48 -32 -70 -32t-22 18q0 3 1.5 7t4.5 9t6 9t8.5 10t9 10t10.5 11.5
t11 11.5l209 202q58 54 74 62q12 6 26 6h113q23 0 33.5 -9t31.5 -50l107 -222q2 -5 6.5 -14t7.5 -15.5t5.5 -14t2.5 -13.5q0 -18 -22 -18q-23 0 -64 47z" />
    <glyph glyph-name="idieresis" unicode="&#xef;" horiz-adv-x="768" 
d="M668 848v-2q0 -34 -33 -131q-14 -47 -131 -391q-27 -69 -27 -95q0 -32 25 -32q22 0 59 40t66 89q23 35 36.5 49t26.5 14q14 0 21.5 -10t7.5 -23q0 -49 -80 -155q-68 -88 -170.5 -159t-200.5 -71q-71 0 -98 34.5t-27 92.5q0 47 39 166q18 59 42 129t52 151t39 113
q19 59 19 60q0 26 -21 26q-37 0 -106 -81q-38 -42 -56 -58t-30 -16q-13 0 -21 10.5t-8 22.5q0 23 34.5 70.5t74.5 86.5q72 65 163.5 112.5t184.5 47.5q47 0 83 -20.5t36 -69.5zM354 1106h-2q-43 0 -73.5 25.5t-30.5 72.5q0 60 47.5 109t105.5 49q45 0 76 -26.5t31 -73.5
q0 -60 -47 -108t-107 -48zM743 1106h-2q-43 0 -72.5 25.5t-29.5 72.5q0 60 47 109t107 49q44 0 74 -26.5t30 -73.5q0 -60 -47 -108t-107 -48z" />
    <glyph glyph-name="eth" unicode="&#xf0;" horiz-adv-x="1150" 
d="M774 1290l180 82q59 25 74 25q22 0 44 -20t22 -36q0 -23 -41 -38l-176 -82q233 -207 233 -539q0 -157 -52 -292.5t-137.5 -226t-195.5 -141.5t-227 -51q-127 0 -225.5 59.5t-148.5 154t-50 204.5q0 100 47 199.5t124.5 176.5t186.5 125t225 48q96 0 154 -45
q-26 149 -115 250l-209 -96q-53 -21 -63 -21q-22 0 -43 21t-21 36q0 23 33 35l219 103q-43 36 -151 84q-80 34 -80 59q0 37 59 37q64 0 162.5 -33.5t171.5 -77.5zM807 682v2q0 64 -28 111t-93 47q-110 0 -211 -193q-51 -95 -80.5 -208.5t-29.5 -198.5q0 -172 124 -172
q56 0 109.5 54t99.5 144q50 96 79.5 211.5t29.5 202.5z" />
    <glyph glyph-name="ntilde" unicode="&#xf1;" horiz-adv-x="1400" 
d="M1264 772v-2q0 -27 -23 -117q-47 -135 -108 -288q-5 -13 -12.5 -31t-11 -27t-8.5 -21.5t-7 -19.5t-4.5 -15.5t-3.5 -14.5t-1 -11q0 -16 9 -25.5t22 -9.5q45 0 127 105q4 5 12.5 17t13 18t12.5 16t13 15t11.5 11t12.5 8.5t11 2.5q14 0 23.5 -10.5t9.5 -22.5
q0 -62 -117 -186q-81 -79 -179 -136t-194 -57q-18 0 -37 4t-41.5 15t-36.5 34.5t-14 57.5q0 65 45 188q14 37 51 132.5t60 154.5q43 118 43 139q0 23 -12 35t-31 12q-43 0 -113 -66.5t-135 -164.5q-58 -79 -121 -197.5t-98 -222.5q-15 -44 -28 -61.5t-43 -26t-95 -8.5h-49
q-23 0 -35.5 0.5t-31.5 3.5t-28 11t-9 20q0 30 18 75q152 458 170 515q3 11 8.5 27t8.5 25t5.5 20t2.5 20q0 12 -8 20t-21 8q-20 0 -60 -37.5t-75 -80.5q-33 -43 -51 -43q-14 0 -22.5 9.5t-8.5 22.5q0 23 33 73.5t71 86.5q65 67 149 116.5t161 49.5q124 0 124 -117
q0 -46 -22 -125q-12 -44 -59 -190l4 -4q48 79 103 149.5t124.5 138.5t151 108t161.5 40q88 0 135.5 -48t47.5 -118zM1020 1087h-2q-54 0 -104.5 20.5t-82.5 45.5t-71 46t-72 22q-31 0 -58.5 -18.5t-43 -40t-34 -40t-34.5 -18.5q-29 0 -29 26q0 28 19 63.5t53 70.5t89 58.5
t118 23.5q55 0 106 -20.5t83.5 -45.5t71 -46t71.5 -22q31 -1 58.5 17.5t43 40.5t34 40.5t34.5 18.5q28 0 28 -29q0 -28 -19 -63t-52.5 -69.5t-88.5 -57.5t-118 -23z" />
    <glyph glyph-name="ograve" unicode="&#xf2;" horiz-adv-x="1134" 
d="M1085 532v-2q0 -106 -47 -207.5t-129 -177.5q-83 -78 -192.5 -126t-218.5 -48q-190 0 -311 116t-121 290q0 111 49.5 215t129.5 179.5t186 121t216 45.5q190 0 314 -116t124 -290zM799 682v2q0 64 -28 111t-93 47q-57 0 -112 -53t-99 -140q-51 -96 -82 -209.5t-31 -197.5
q0 -73 28.5 -122.5t94.5 -49.5q113 0 213 198q48 92 78.5 206.5t30.5 207.5zM430 1327v2q0 30 24 50t60 20q56 0 121 -68l201 -196q47 -47 47 -62q0 -18 -23 -18q-13 0 -67 26l-287 148q-76 35 -76 98z" />
    <glyph glyph-name="oacute" unicode="&#xf3;" horiz-adv-x="1134" 
d="M1085 532v-2q0 -106 -47 -207.5t-129 -177.5q-83 -78 -192.5 -126t-218.5 -48q-190 0 -311 116t-121 290q0 111 49.5 215t129.5 179.5t186 121t216 45.5q190 0 314 -116t124 -290zM799 682v2q0 64 -28 111t-93 47q-57 0 -112 -53t-99 -140q-51 -96 -82 -209.5t-31 -197.5
q0 -73 28.5 -122.5t94.5 -49.5q113 0 213 198q48 92 78.5 206.5t30.5 207.5zM584 1055h-2q-9 0 -16 5.5t-7 12.5q0 22 59 66l252 186q73 55 129 55q34 0 59 -20t25 -55q0 -70 -94 -105l-315 -117q-77 -28 -90 -28z" />
    <glyph glyph-name="ocircumflex" unicode="&#xf4;" horiz-adv-x="1134" 
d="M1085 532v-2q0 -106 -47 -207.5t-129 -177.5q-83 -78 -192.5 -126t-218.5 -48q-190 0 -311 116t-121 290q0 111 49.5 215t129.5 179.5t186 121t216 45.5q190 0 314 -116t124 -290zM799 682v2q0 64 -28 111t-93 47q-57 0 -112 -53t-99 -140q-51 -96 -82 -209.5t-31 -197.5
q0 -73 28.5 -122.5t94.5 -49.5q113 0 213 198q48 92 78.5 206.5t30.5 207.5zM768 1274l-309 -187q-48 -32 -70 -32q-24 0 -24 18q0 5 3 10.5t9 13t11 13t15 16t15 15.5l209 202q59 55 74 62q13 6 24 6h113q24 0 35 -9t30 -50l109 -222q20 -45 20 -57q0 -18 -20 -18
q-23 0 -64 47z" />
    <glyph glyph-name="otilde" unicode="&#xf5;" horiz-adv-x="1134" 
d="M1085 532v-2q0 -106 -47 -207.5t-129 -177.5q-83 -78 -192.5 -126t-218.5 -48q-190 0 -311 116t-121 290q0 111 49.5 215t129.5 179.5t186 121t216 45.5q190 0 314 -116t124 -290zM799 682v2q0 64 -28 111t-93 47q-57 0 -112 -53t-99 -140q-51 -96 -82 -209.5t-31 -197.5
q0 -73 28.5 -122.5t94.5 -49.5q113 0 213 198q48 92 78.5 206.5t30.5 207.5zM874 1087h-2q-44 0 -85 13.5t-71.5 33t-58 39t-57 33.5t-57.5 15q-31 0 -58.5 -18.5t-43 -40t-34 -40t-34.5 -18.5q-29 0 -29 26q0 28 19 63.5t53 70.5t89 58.5t118 23.5q45 0 86.5 -13.5t72 -33
t58.5 -39t57.5 -33.5t56.5 -15q31 -1 58.5 17.5t43 40.5t34 40.5t34.5 18.5q29 0 29 -29q0 -28 -19 -63t-53 -69.5t-89 -57.5t-118 -23z" />
    <glyph glyph-name="odieresis" unicode="&#xf6;" horiz-adv-x="1134" 
d="M1085 532v-2q0 -106 -47 -207.5t-129 -177.5q-83 -78 -192.5 -126t-218.5 -48q-190 0 -311 116t-121 290q0 111 49.5 215t129.5 179.5t186 121t216 45.5q190 0 314 -116t124 -290zM799 682v2q0 64 -28 111t-93 47q-57 0 -112 -53t-99 -140q-51 -96 -82 -209.5t-31 -197.5
q0 -73 28.5 -122.5t94.5 -49.5q113 0 213 198q48 92 78.5 206.5t30.5 207.5zM539 1106h-2q-44 0 -74.5 25.5t-30.5 72.5q0 60 47 109t107 49q44 0 75 -26.5t31 -73.5q0 -60 -47 -108t-106 -48zM928 1106h-2q-43 0 -74 25.5t-31 72.5q0 60 48 109t108 49q44 0 74 -26.5
t30 -73.5q0 -60 -46.5 -108t-106.5 -48z" />
    <glyph glyph-name="divide" unicode="&#xf7;" horiz-adv-x="1202" 
d="M487 942v2q0 66 49 114t115 48q65 0 113.5 -49t48.5 -115q0 -62 -49 -112t-111 -50q-68 0 -117 48t-49 114zM1165 420h-1032v196h1032v-196zM487 94v2q0 66 49 113t115 47q65 0 113.5 -48t48.5 -114q0 -62 -49 -113t-111 -51q-67 0 -116.5 49t-49.5 115z" />
    <glyph glyph-name="oslash" unicode="&#xf8;" horiz-adv-x="1144" 
d="M133 -94h-57q-33 0 -33 10q0 3 2 7.5t7 11t10 12.5t14 16.5t16 18.5l94 110q-118 115 -118 291q0 111 50.5 214t132 177.5t189.5 119t219 44.5q136 0 234 -64l88 103q15 16 22.5 21.5t20.5 5.5h59q31 0 31 -11q0 -3 -2 -7.5t-7 -10.5t-10 -11.5t-14 -15.5t-16 -18
l-92 -113q117 -114 117 -289q0 -111 -50.5 -215t-132.5 -178.5t-190 -119t-219 -44.5q-136 0 -234 64l-88 -103q-23 -26 -43 -26zM373 256l403 522q-22 64 -100 64q-62 -1 -116 -49t-90 -122t-59.5 -150.5t-33.5 -147.5q-7 -62 -4 -117zM786 653l-403 -520q9 -30 35.5 -46.5
t64.5 -16.5q59 0 112.5 49t90 123.5t61 151t33.5 143.5q9 58 6 116z" />
    <glyph glyph-name="ugrave" unicode="&#xf9;" horiz-adv-x="1392" 
d="M141 109v2q0 73 47 204q11 30 113 316q25 72 25 86q0 31 -23 31q-36 0 -115 -99q-46 -54 -57 -61q-9 -6 -20 -6t-19 9t-8 23q0 21 22.5 59t65.5 83.5t96.5 86.5t126 68t144.5 27q22 0 46 -7t47 -30.5t23 -60.5q0 -48 -30 -131q-22 -69 -64.5 -200t-52.5 -161
q-29 -72 -29 -115q0 -40 37 -40q38 0 111 62.5t125 145.5q133 190 215 441q15 46 28.5 57.5t51.5 13.5q22 1 61.5 1t83.5 -0.5t53 -0.5q43 0 43 -22q0 -5 -16 -55q-27 -91 -139 -457q-31 -112 -31 -139q0 -37 26 -37t67 45.5t71 91.5q32 39 41 44q7 3 16 3q31 0 31 -31
q0 -32 -42.5 -95t-107.5 -128t-158 -113.5t-180 -48.5q-46 0 -70 25t-24 70q0 64 76 302q5 17 8 25l-6 2q-68 -99 -151.5 -181.5t-161 -134t-147.5 -80t-120 -28.5q-65 0 -97 40.5t-32 97.5zM543 1327v2q0 30 24 50t60 20q56 0 121 -68l200 -196q47 -47 47 -62
q0 -18 -22 -18q-14 0 -68 26l-287 148q-75 35 -75 98z" />
    <glyph glyph-name="uacute" unicode="&#xfa;" horiz-adv-x="1392" 
d="M141 109v2q0 73 47 204q11 30 113 316q25 72 25 86q0 31 -23 31q-36 0 -115 -99q-46 -54 -57 -61q-9 -6 -20 -6t-19 9t-8 23q0 21 22.5 59t65.5 83.5t96.5 86.5t126 68t144.5 27q22 0 46 -7t47 -30.5t23 -60.5q0 -48 -30 -131q-22 -69 -64.5 -200t-52.5 -161
q-29 -72 -29 -115q0 -40 37 -40q38 0 111 62.5t125 145.5q133 190 215 441q15 46 28.5 57.5t51.5 13.5q22 1 61.5 1t83.5 -0.5t53 -0.5q43 0 43 -22q0 -5 -16 -55q-27 -91 -139 -457q-31 -112 -31 -139q0 -37 26 -37t67 45.5t71 91.5q32 39 41 44q7 3 16 3q31 0 31 -31
q0 -32 -42.5 -95t-107.5 -128t-158 -113.5t-180 -48.5q-46 0 -70 25t-24 70q0 64 76 302q5 17 8 25l-6 2q-68 -99 -151.5 -181.5t-161 -134t-147.5 -80t-120 -28.5q-65 0 -97 40.5t-32 97.5zM702 1055h-2q-8 0 -14 5.5t-6 12.5q0 25 59 66l252 186q73 55 127 55
q35 0 60.5 -20t25.5 -55q0 -69 -94 -105l-315 -117q-82 -28 -93 -28z" />
    <glyph glyph-name="ucircumflex" unicode="&#xfb;" horiz-adv-x="1392" 
d="M141 109v2q0 73 47 204q11 30 113 316q25 72 25 86q0 31 -23 31q-36 0 -115 -99q-46 -54 -57 -61q-9 -6 -20 -6t-19 9t-8 23q0 21 22.5 59t65.5 83.5t96.5 86.5t126 68t144.5 27q22 0 46 -7t47 -30.5t23 -60.5q0 -48 -30 -131q-22 -69 -64.5 -200t-52.5 -161
q-29 -72 -29 -115q0 -40 37 -40q38 0 111 62.5t125 145.5q133 190 215 441q15 46 28.5 57.5t51.5 13.5q22 1 61.5 1t83.5 -0.5t53 -0.5q43 0 43 -22q0 -5 -16 -55q-27 -91 -139 -457q-31 -112 -31 -139q0 -37 26 -37t67 45.5t71 91.5q32 39 41 44q7 3 16 3q31 0 31 -31
q0 -32 -42.5 -95t-107.5 -128t-158 -113.5t-180 -48.5q-46 0 -70 25t-24 70q0 64 76 302q5 17 8 25l-6 2q-68 -99 -151.5 -181.5t-161 -134t-147.5 -80t-120 -28.5q-65 0 -97 40.5t-32 97.5zM918 1274l-310 -187q-48 -32 -69 -32q-25 0 -25 18q0 5 3 10.5t9 13t11 13t15 16
t15 15.5l209 202q59 55 74 62q13 6 24 6h113q25 0 36 -9t30 -50l108 -222q21 -47 21 -57q0 -18 -21 -18q-22 0 -63 47z" />
    <glyph glyph-name="udieresis" unicode="&#xfc;" horiz-adv-x="1392" 
d="M141 109v2q0 73 47 204q11 30 113 316q25 72 25 86q0 31 -23 31q-36 0 -115 -99q-46 -54 -57 -61q-9 -6 -20 -6t-19 9t-8 23q0 21 22.5 59t65.5 83.5t96.5 86.5t126 68t144.5 27q22 0 46 -7t47 -30.5t23 -60.5q0 -48 -30 -131q-22 -69 -64.5 -200t-52.5 -161
q-29 -72 -29 -115q0 -40 37 -40q38 0 111 62.5t125 145.5q133 190 215 441q15 46 28.5 57.5t51.5 13.5q22 1 61.5 1t83.5 -0.5t53 -0.5q43 0 43 -22q0 -5 -16 -55q-27 -91 -139 -457q-31 -112 -31 -139q0 -37 26 -37t67 45.5t71 91.5q32 39 41 44q7 3 16 3q31 0 31 -31
q0 -32 -42.5 -95t-107.5 -128t-158 -113.5t-180 -48.5q-46 0 -70 25t-24 70q0 64 76 302q5 17 8 25l-6 2q-68 -99 -151.5 -181.5t-161 -134t-147.5 -80t-120 -28.5q-65 0 -97 40.5t-32 97.5zM662 1106h-3q-43 0 -72.5 25.5t-29.5 72.5q0 60 47 109t107 49q44 0 74 -26.5
t30 -73.5q0 -60 -46.5 -108t-106.5 -48zM1053 1106h-2q-44 0 -74.5 25.5t-30.5 72.5q0 60 47 109t107 49q44 0 75 -26.5t31 -73.5q0 -60 -47 -108t-106 -48z" />
    <glyph glyph-name="yacute" unicode="&#xfd;" horiz-adv-x="1089" 
d="M1110 797v-2q0 -63 -31.5 -145.5t-78 -161t-112 -168.5t-120 -156t-115.5 -135q-45 -54 -121 -138q-149 -160 -280 -253t-250 -93q-69 0 -120.5 38.5t-51.5 94.5q0 46 36.5 81.5t86.5 35.5q58 0 115 -57q2 -2 12.5 -11.5t14.5 -12t12.5 -8t17 -7.5t18.5 -2q49 0 93 39.5
t71 91.5q36 65 43 168q4 131 -8 278q-1 13 -6 69t-8.5 86.5t-10 84.5t-13 86t-15.5 67t-20.5 51.5t-24.5 16.5q-18 0 -41 -25t-36 -45.5t-20 -35.5q-1 -2 -5 -11t-5.5 -12t-6 -10.5t-7 -10.5t-7 -8.5t-8.5 -7.5t-9 -4t-11 -2q-16 0 -23.5 12t-7.5 25q0 30 23 77t53 87
q58 73 133.5 123.5t157.5 50.5q64 0 108 -56t74 -167q45 -172 45 -389q0 -26 -2.5 -84t-3.5 -92l2 -5q84 104 187 263q88 154 88 227q0 26 -21 82q-24 42 -31.5 59.5t-7.5 38.5q0 50 37.5 86.5t89.5 36.5q61 0 91 -45t30 -96zM608 1055h-2q-9 0 -15.5 5.5t-6.5 12.5
q0 25 59 66l252 186q73 55 127 55q36 0 61 -20t25 -55q0 -70 -94 -105l-316 -117q-77 -28 -90 -28z" />
    <glyph glyph-name="thorn" unicode="&#xfe;" horiz-adv-x="1220" 
d="M1198 653v-2q0 -130 -63.5 -266.5t-173.5 -234.5q-83 -79 -193.5 -120t-228.5 -44q-87 -3 -162 34q-8 -28 -25.5 -87t-25.5 -87q-27 -88 -27 -118q0 -27 10 -45t29 -26t35 -11t39 -4q28 -1 37.5 -2t28 -5t25.5 -12.5t7 -23.5q0 -22 -20.5 -33.5t-51.5 -11.5q-54 0 -139 6
q-114 4 -184 4q-51 0 -168 -7.5t-131 -7.5q-24 0 -41 10t-17 31q0 28 23 37.5t82 16.5q68 6 92.5 41.5t58.5 154.5l271 916q3 6 -0.5 8.5t-12.5 1.5q-21 -3 -82.5 -17t-83.5 -16q-28 0 -28 31q0 41 55 65q36 17 156 43q19 3 25 9.5t12 31.5l53 164q12 50 12 64q0 55 -72 63
q-47 3 -63 9.5t-16 27.5q0 28 25 39t79 16q190 19 338 80q10 4 27 10.5t28 10.5t17 4q14 0 24 -10t10 -23t-20 -63q-50 -124 -133 -387q58 9 115 12q74 4 106 4q342 0 342 -281zM887 670v2q0 155 -164 155q-51 0 -113 -16q-3 -10 -16.5 -52.5t-20.5 -66.5
q-24 -80 -70.5 -229.5t-58.5 -190.5q-24 -82 -24 -122q0 -37 27 -55.5t65 -18.5q124 0 250 217q54 88 89.5 191t35.5 186z" />
    <glyph glyph-name="ydieresis" unicode="&#xff;" horiz-adv-x="1089" 
d="M1110 797v-2q0 -63 -31.5 -145.5t-78 -161t-112 -168.5t-120 -156t-115.5 -135q-45 -54 -121 -138q-149 -160 -280 -253t-250 -93q-69 0 -120.5 38.5t-51.5 94.5q0 46 36.5 81.5t86.5 35.5q58 0 115 -57q2 -2 12.5 -11.5t14.5 -12t12.5 -8t17 -7.5t18.5 -2q49 0 93 39.5
t71 91.5q36 65 43 168q4 131 -8 278q-1 13 -6 69t-8.5 86.5t-10 84.5t-13 86t-15.5 67t-20.5 51.5t-24.5 16.5q-18 0 -41 -25t-36 -45.5t-20 -35.5q-1 -2 -5 -11t-5.5 -12t-6 -10.5t-7 -10.5t-7 -8.5t-8.5 -7.5t-9 -4t-11 -2q-16 0 -23.5 12t-7.5 25q0 30 23 77t53 87
q58 73 133.5 123.5t157.5 50.5q64 0 108 -56t74 -167q45 -172 45 -389q0 -26 -2.5 -84t-3.5 -92l2 -5q84 104 187 263q88 154 88 227q0 26 -21 82q-24 42 -31.5 59.5t-7.5 38.5q0 50 37.5 86.5t89.5 36.5q61 0 91 -45t30 -96zM514 1106h-2q-43 0 -72.5 25.5t-29.5 72.5
q0 60 46.5 109t106.5 49q44 0 75.5 -26.5t31.5 -73.5q0 -60 -48 -108t-108 -48zM905 1106h-2q-43 0 -73.5 25.5t-30.5 72.5q0 60 47.5 109t105.5 49q45 0 76 -26.5t31 -73.5q0 -60 -47 -108t-107 -48z" />
    <glyph glyph-name="dotlessi" unicode="&#x131;" horiz-adv-x="768" 
d="M668 848v-2q0 -34 -33 -131q-14 -47 -131 -391q-27 -69 -27 -95q0 -32 25 -32q22 0 59 40t66 89q23 35 36.5 49t26.5 14q14 0 21.5 -10t7.5 -23q0 -49 -80 -155q-68 -88 -170.5 -159t-200.5 -71q-71 0 -98 34.5t-27 92.5q0 47 39 166q18 59 42 129t52 151t39 113
q19 59 19 60q0 26 -21 26q-37 0 -106 -81q-38 -42 -56 -58t-30 -16q-13 0 -21 10.5t-8 22.5q0 23 34.5 70.5t74.5 86.5q72 65 163.5 112.5t184.5 47.5q47 0 83 -20.5t36 -69.5z" />
    <glyph glyph-name="Lslash" unicode="&#x141;" horiz-adv-x="1183" 
d="M657 680l-127 -434q-28 -92 -28 -109t11 -22.5t38 -5.5h65q86 0 138.5 7t101.5 29t85 62t75 108q18 31 31.5 45.5t33.5 14.5q22 0 35.5 -13.5t13.5 -39.5q0 -12 -4 -33t-14 -55.5t-16 -56.5t-20.5 -69t-18.5 -59q-10 -40 -25 -48.5t-71 -8.5q-57 0 -242 4t-295 4
q-105 0 -223 -4t-156 -4q-24 0 -36 0.5t-30 3t-26.5 7t-15.5 14.5t-7 24q0 51 90 51q67 3 94.5 33t53.5 119q8 26 82 272l-115 -61q-47 -19 -51 -19q-12 0 -12 15q0 17 20 84q4 13 11.5 19t29.5 15l158 82l104 357q29 89 29 118q0 21 -16 33t-33 15t-45 4q-72 0 -72 49
q0 17 10 28t29 15t31 5t32 1q10 0 92 -4t183 -4q67 0 170.5 4t124.5 4q80 0 80 -47t-78 -51q-84 -5 -111.5 -26.5t-52.5 -104.5l-70 -232l228 119q40 18 51 18q12 0 12 -14q0 -25 -22 -84q-4 -13 -11.5 -19.5t-27.5 -15.5z" />
    <glyph glyph-name="lslash" unicode="&#x142;" horiz-adv-x="739" 
d="M102 84v2q0 99 60 281q16 46 42.5 131.5t31.5 101.5l-107 -63q-29 -19 -37 -19q-12 0 -12 12q0 23 18 68q6 21 13 29.5t26 17.5l137 82q16 48 52.5 165t56.5 179t20 90q0 31 -20.5 39t-71.5 10q-57 0 -57 35q0 27 23 38.5t79 14.5q76 5 169.5 25.5t152.5 46.5
q54 23 67 23q33 0 33 -31q0 -23 -18 -68q-21 -67 -62 -199t-61 -198l108 68q32 18 37 18q13 0 13 -12q0 -15 -19 -70q-6 -18 -13 -26t-26 -19l-141 -84q-50 -166 -133 -430q-31 -107 -31 -127q0 -12 6 -21.5t17 -9.5q23 0 67.5 50t81.5 104q29 41 47 41q13 0 20 -10t7 -23
q0 -26 -30.5 -77t-69.5 -95q-69 -80 -166.5 -141.5t-196.5 -61.5q-64 0 -88.5 33.5t-24.5 79.5z" />
    <glyph glyph-name="OE" unicode="&#x152;" horiz-adv-x="2058" 
d="M1417 612l-108 -368q-23 -79 -23 -94q0 -32 41 -40t156 -8q130 0 197 28.5t116 92.5q18 25 47.5 72.5t47.5 65.5t40 18q26 0 38.5 -14t12.5 -33q0 -16 -30 -119q-31 -110 -41 -162q-9 -35 -26 -47t-56 -12q-34 0 -113.5 2.5t-116.5 3.5q-49 0 -178 1t-209 1
q-185 0 -315 -10q-169 -13 -197 -13q-124 0 -234 46t-186.5 123t-120.5 177.5t-44 208.5q0 149 66 289t177 244.5t265 167.5t321 63q51 0 184 -14q132 -12 357 -12q101 0 293 4q196 4 293 4q41 0 59 -6t18 -29q0 -9 -12 -51.5t-29 -100.5t-24 -83q-8 -29 -13.5 -43
t-20.5 -29.5t-36 -15.5q-24 0 -35 14.5t-14 50.5q-5 57 -12 86q-4 24 -13.5 41t-28.5 28t-35.5 17t-50.5 8.5t-56.5 3t-69.5 0.5q-89 0 -107 -8q-14 -8 -32 -67l-113 -379q86 0 125 2q71 3 109 24t75 86q34 65 46 75q13 11 34 11q17 0 30 -11t13 -36q0 -14 -9.5 -48
t-21.5 -69.5t-14 -43.5q-36 -102 -64 -228q-19 -74 -63 -74q-43 0 -47 46v88q0 21 -6 35t-14 21.5t-25 11.5t-30.5 4.5t-39.5 0.5q-39 2 -127 2zM479 369v-2q0 -130 59 -209.5t175 -79.5q44 0 81 15t65 40.5t52.5 65t42 83t35.5 99.5q84 273 120 418t36 223t-58 125t-135 47
q-105 0 -195.5 -83.5t-156.5 -225.5q-55 -122 -88 -263.5t-33 -252.5z" />
    <glyph glyph-name="oe" unicode="&#x153;" horiz-adv-x="1691" 
d="M66 389v2q0 144 86.5 271.5t224 201.5t285.5 74q83 0 147 -22.5t105.5 -58.5t82.5 -93q68 72 171.5 123t230.5 51q27 0 57.5 -4t70.5 -17t71 -33.5t53 -58t22 -86.5t-20 -92t-51.5 -73.5t-76 -56.5t-87 -43t-90.5 -30q-129 -34 -281 -71q-6 -48 -6 -74q0 -85 47 -125.5
t111 -40.5q70 0 131.5 33.5t103.5 75.5l24.5 24.5t24.5 24t20.5 18.5t20.5 14.5t17 4.5q11 0 18.5 -9.5t7.5 -19.5q0 -19 -26 -58.5t-58 -72.5q-76 -83 -183.5 -140t-223.5 -57q-169 0 -248 146q-150 -146 -350 -146q-188 0 -310 120t-122 298zM1442 764v2q0 37 -21 62.5
t-59 25.5q-63 0 -125 -65t-101.5 -152t-52.5 -168q164 26 263 106q43 39 69.5 90.5t26.5 98.5zM817 698v2q0 37 -10.5 69t-40.5 57.5t-76 25.5q-72 0 -139.5 -78.5t-110 -186.5t-67.5 -210t-25 -160q0 -70 30.5 -115t96.5 -45q71 0 137.5 74t109.5 178t69 210.5t26 178.5z
" />
    <glyph glyph-name="Scaron" unicode="&#x160;" horiz-adv-x="1140" 
d="M233 899v2q0 86 35.5 155.5t92.5 114.5t132.5 75.5t152 43.5t155.5 13q228 0 336 -54q59 -25 59 -63q0 -10 -14 -68q-29 -105 -31 -112q0 -1 -3.5 -12.5t-5 -15.5t-5.5 -14.5t-8 -15t-9.5 -11t-13 -9t-16.5 -2.5q-35 0 -50 47q-4 12 -12 39.5t-17.5 54t-23.5 53.5
q-45 86 -164 86q-83 0 -151 -49t-68 -129q0 -65 43 -113.5t172 -148.5q57 -44 93 -76.5t73 -76.5t54.5 -92t17.5 -103q0 -183 -170 -315t-422 -132q-73 0 -186.5 21.5t-186.5 56.5q-76 35 -76 82q0 38 41 205q11 40 25 58t39 18q29 0 42.5 -19t22.5 -57q1 -4 5 -22.5
t5.5 -25t6 -23t7.5 -25.5t8 -22.5t11 -24.5t13 -21q62 -94 190 -94q99 0 167.5 59.5t68.5 149.5q0 69 -46 127t-159 145q-43 33 -68.5 54.5t-60 57.5t-54 67t-33.5 73.5t-14 87.5zM791 1513l309 187q56 33 69 33q25 0 25 -19q0 -5 -2.5 -11t-9.5 -14t-11 -12l-15.5 -15.5
l-14.5 -14.5l-209 -203q-59 -55 -74 -62q-13 -6 -24 -6h-113q-25 0 -36 8.5t-30 49.5l-108 221q-21 47 -21 59q0 19 21 19q20 0 63 -50z" />
    <glyph glyph-name="scaron" unicode="&#x161;" horiz-adv-x="917" 
d="M819 299v-2q0 -67 -45 -133t-119 -111q-132 -82 -315 -82q-85 0 -166.5 21.5t-134.5 52.5q-49 28 -49 78q0 34 20 96q29 88 82 88q29 0 48 -16.5t44 -63.5q93 -166 203 -166q46 0 80.5 31t34.5 72q0 26 -10 49.5t-37 52t-41.5 41.5t-56.5 48q-4 4 -6.5 6t-6 5t-6.5 5
q-38 32 -61.5 55.5t-50 57t-39.5 70.5t-13 77q0 131 122.5 219t321.5 88q40 0 83 -3.5t97.5 -13.5t89 -33t34.5 -57q0 -31 -27 -90q-35 -73 -80 -73q-8 0 -15.5 1.5t-14.5 5.5t-12.5 6.5t-13 10.5t-11 11.5t-11.5 13.5t-10.5 13.5t-11 16t-10.5 15.5q-21 30 -35.5 47t-41 32
t-55.5 15q-46 0 -78 -29.5t-32 -70.5q0 -49 36 -87t140 -116q43 -34 65.5 -53.5t54 -54t46 -70.5t14.5 -76zM645 1192l311 186q52 33 70 33q23 0 23 -18t-54 -68l-209 -203q-31 -30 -43 -40.5t-26.5 -18.5t-28.5 -8h-113q-23 0 -33.5 8.5t-31.5 48.5l-109 221q-20 45 -20 60
q0 18 22 18q4 0 8 -1.5t9 -4.5t8.5 -6t9.5 -8.5t9 -8.5l10 -10l10 -10z" />
    <glyph glyph-name="Ydieresis" unicode="&#x178;" horiz-adv-x="1370" 
d="M750 1128v-2q0 -28 22 -96q12 -42 33.5 -114.5t39 -133t32.5 -114.5q305 348 311 356q69 79 69 115q0 8 -3.5 15t-8 11t-14 7.5t-14.5 5t-15.5 3.5t-13.5 3q-32 7 -46 16t-14 29q0 47 70 47q15 0 67.5 -4t98.5 -4q39 0 97 4t81 4q70 0 70 -43q0 -39 -60 -49
q-51 -7 -82 -29t-79 -76q-77 -86 -231.5 -259t-231.5 -259q-92 -309 -94 -315q-21 -82 -21 -103q0 -34 22 -46t68 -15q68 0 68 -41q0 -17 -8.5 -27.5t-27 -15t-34.5 -5.5t-43 -1q-42 0 -149.5 4t-149.5 4q-45 0 -127 -4t-104 -4q-23 0 -35.5 1t-30 4.5t-25.5 13t-8 24.5
q0 21 14.5 32t33 14.5t63.5 7.5q7 1 10 1q29 2 49 12.5t33.5 33t20 40t17.5 52.5q1 2 1 3.5t1 3t1 3.5q34 111 90 305q-31 86 -92 258t-92 258q-25 65 -45.5 91t-59.5 30q-48 7 -67 15t-19 30q0 18 10 29.5t29 15.5t31.5 5t32.5 1q39 0 119.5 -4t119.5 -4q71 0 174 4t130 4
q67 0 67 -41q0 -15 -7 -25t-21 -16t-25 -8.5t-29 -5.5q-69 -5 -69 -52zM705 1427h-3q-44 0 -74 26t-30 73q0 60 47 108.5t107 48.5q44 0 75 -26.5t31 -73.5q0 -60 -47 -108t-106 -48zM1094 1427h-2q-43 0 -74 26t-31 73q0 60 48 108.5t108 48.5q44 0 74 -26.5t30 -73.5
q0 -60 -46.5 -108t-106.5 -48z" />
    <glyph glyph-name="Zcaron" unicode="&#x17d;" horiz-adv-x="1335" 
d="M-12 31v2q0 18 80 114q476 552 794 928q68 71 68 84q0 6 -26 7t-128 1q-162 0 -249.5 -33.5t-139.5 -136.5q-37 -67 -52.5 -84.5t-47.5 -17.5q-20 0 -32.5 14t-12.5 33q0 41 77 268q15 46 34.5 57t90.5 11q54 0 184.5 -4t221.5 -4q88 0 267 4t218 4q42 0 62 -7t20 -28
q0 -12 -9.5 -29.5t-20.5 -32t-37 -46.5q-287 -337 -793 -932q-68 -80 -68 -88q0 -9 27 -11t137 -2q113 0 181 8t120.5 32t84.5 63.5t63 107.5q18 42 34.5 61t45.5 19q27 0 40 -15t13 -36q0 -20 -12 -66t-30.5 -107t-25.5 -93q-13 -57 -28.5 -70.5t-57.5 -13.5q-13 0 -180 4
t-366 4q-115 0 -202.5 -1.5t-163 -4t-97.5 -2.5q-26 0 -41 1.5t-29 11t-14 26.5zM872 1513l310 187q56 33 69 33q23 0 23 -19q0 -18 -53 -67l-207 -203q-34 -31 -45.5 -41t-26.5 -18.5t-29 -8.5h-112q-23 0 -34 9t-32 49l-106 221q-23 41 -23 59q0 8 6.5 13.5t16.5 5.5
q5 0 11 -2.5t13 -8.5t12 -11t14 -14.5t13 -13.5z" />
    <glyph glyph-name="zcaron" unicode="&#x17e;" horiz-adv-x="1058" 
d="M-37 39v2q0 51 100 113q22 13 123 65q42 36 140 127q180 172 397 330l-4 4q-99 -47 -168 -47q-35 0 -118.5 20.5t-108.5 20.5q-91 0 -97 -82q0 -1 -1.5 -10t-2.5 -11.5t-3.5 -9t-5 -9t-8 -5t-11.5 -2.5q-21 0 -34 19t-16.5 39t-3.5 42q0 117 86 203t215 86q11 0 21 -0.5
t22 -2.5t19 -3t22.5 -5.5t22 -6.5t26.5 -9t28.5 -10t35.5 -13t39 -14q39 -16 61.5 -24t57 -14t67.5 -3q12 3 25 9.5t22.5 13t31.5 22t36 25.5q55 39 94 39q10 0 21.5 -2t23.5 -11t12 -24q0 -54 -131 -135q-14 -10 -37 -25t-33.5 -22t-25.5 -17.5t-28 -20.5t-27 -22
q-51 -41 -144.5 -121t-130.5 -110q-144 -123 -223 -186l4 -4q85 45 162 45q74 0 154 -33q11 -4 27 -12t25.5 -12t22.5 -7.5t25 -3.5q38 0 67 22t29 60q0 9 -2 26t-2 23q4 25 33 25q26 0 43.5 -31t17.5 -74q0 -50 -22.5 -102.5t-61.5 -91.5q-98 -101 -249 -101
q-138 0 -254 95q-51 36 -73.5 48.5t-41.5 12.5q-18 0 -55 -37q-93 -100 -168 -100q-33 0 -50.5 14.5t-17.5 34.5zM709 1192l309 186q56 33 69 33q25 0 25 -18q0 -4 -1.5 -8t-5 -9t-6.5 -9t-9 -10.5t-9.5 -10l-11 -11l-10.5 -10.5l-209 -203q-34 -31 -45 -41t-25.5 -18
t-27.5 -8h-113q-25 0 -36 8.5t-30 48.5l-108 221q-21 47 -21 60q0 18 21 18q20 0 63 -49z" />
    <glyph glyph-name="florin" unicode="&#x192;" 
d="M485 694h-159q-31 0 -31 17q0 21 18 69q7 17 18 21t38 4h149q77 230 242 364q79 62 178 101t190 39q95 0 156.5 -39.5t61.5 -110.5q0 -51 -37 -86t-92 -35q-73 0 -111 54q-22 35 -29 84q-6 36 -28 36q-16 0 -42 -18.5t-49 -50.5q-47 -59 -98 -217q-4 -16 -17 -55.5
t-20 -65.5h185q24 0 34.5 -3t10.5 -14q0 -8 -3 -18t-8 -24.5t-8 -26.5q-5 -17 -15.5 -21t-33.5 -4h-192q-120 -441 -162 -577q-42 -139 -90 -237.5t-121 -176.5q-87 -90 -189 -131t-188 -41q-110 0 -176 47t-66 119q0 54 39.5 88.5t96.5 34.5q47 0 81.5 -22.5t49.5 -63.5
q11 -33 14 -62q2 -23 7.5 -33t21.5 -10q22 0 43.5 32t48.5 91q35 80 106 330q10 34 75.5 263t100.5 349z" />
    <glyph glyph-name="circumflex" unicode="&#x2c6;" horiz-adv-x="925" 
d="M709 1274l-310 -187q-48 -32 -69 -32q-25 0 -25 18q0 15 53 68l209 202q42 41 61 54.5t38 13.5h112q25 0 36 -9t30 -50l108 -222q21 -47 21 -57q0 -18 -23 -18q-3 0 -6 0.5t-6.5 2.5t-6.5 4t-7.5 5.5t-7 5.5t-7.5 7l-7 7l-7.5 7.5l-7.5 7.5z" />
    <glyph glyph-name="caron" unicode="&#x2c7;" horiz-adv-x="925" 
d="M666 1192l309 186q56 33 69 33q25 0 25 -18q0 -19 -53 -68l-209 -203q-42 -40 -60.5 -53.5t-37.5 -13.5h-113q-25 0 -36 8.5t-30 48.5l-108 221q-21 47 -21 60q0 18 23 18q5 0 10.5 -2.5t13.5 -9t12 -10t14 -14t13 -13.5z" />
    <glyph glyph-name="uni02C9" unicode="&#x2c9;" horiz-adv-x="884" 
d="M453 1276h481q31 0 40 -2t9 -12q0 -8 -15.5 -45t-27.5 -60q-12 -22 -23 -27.5t-40 -5.5h-482q-30 0 -39.5 3t-9.5 14q0 15 43 104q11 22 22 26.5t42 4.5z" />
    <glyph glyph-name="breve" unicode="&#x2d8;" horiz-adv-x="923" 
d="M682 1069h-2q-136 0 -217.5 77t-81.5 191q0 58 37 58q34 0 37 -37q8 -60 70.5 -106t162.5 -46q237 0 311 154q6 14 10 20t11.5 10.5t19.5 4.5q33 0 33 -49q0 -40 -24 -86t-69 -89.5t-123.5 -72.5t-174.5 -29z" />
    <glyph glyph-name="dotaccent" unicode="&#x2d9;" horiz-adv-x="743" 
d="M559 1102h-2q-44 0 -75 26.5t-31 73.5q0 61 48.5 110.5t108.5 49.5q46 0 77.5 -26.5t31.5 -73.5q0 -62 -48.5 -111t-109.5 -49z" />
    <glyph glyph-name="ring" unicode="&#x2da;" horiz-adv-x="813" 
d="M618 1051h-2q-92 0 -157.5 61.5t-65.5 155.5q0 92 65.5 153.5t159.5 61.5q95 0 161.5 -61t66.5 -154q0 -94 -66.5 -155.5t-161.5 -61.5zM618 1147h3q51 0 84.5 34.5t33.5 86.5q0 51 -34.5 84.5t-86.5 33.5q-51 0 -84.5 -33.5t-33.5 -84.5q0 -52 33.5 -86.5t84.5 -34.5z
" />
    <glyph glyph-name="ogonek" unicode="&#x2db;" horiz-adv-x="813" 
d="M248 0h106q-59 -35 -103 -91t-44 -116q0 -41 25 -64.5t65 -23.5q34 0 65 16t54 32t35 16q26 0 26 -31q0 -35 -73 -78t-162 -43q-84 0 -135.5 41t-51.5 117q0 74 59.5 134.5t133.5 90.5z" />
    <glyph glyph-name="tilde" unicode="&#x2dc;" horiz-adv-x="950" 
d="M795 1087h-2q-54 0 -104.5 20.5t-82.5 45.5t-71 46t-72 22q-31 0 -58.5 -18.5t-43 -40t-34.5 -40t-36 -18.5q-27 0 -27 26q0 28 19 63.5t52.5 70.5t88.5 58.5t117 23.5q45 0 87 -13.5t73 -33t59 -39t57.5 -33.5t56.5 -15q31 -1 58.5 17.5t43 40.5t34 40.5t34.5 18.5
q27 0 27 -29q0 -28 -18.5 -63t-52 -69.5t-88 -57.5t-117.5 -23z" />
    <glyph glyph-name="hungarumlaut" unicode="&#x2dd;" horiz-adv-x="837" 
d="M651 1399h2q33 0 56.5 -20t23.5 -50q0 -55 -76 -96l-286 -150q-54 -26 -68 -26q-22 0 -22 18q0 15 47 62l200 196q66 66 123 66zM1028 1399h2q33 0 56.5 -20t23.5 -50q0 -55 -76 -96l-286 -150q-54 -26 -68 -26q-23 0 -23 18q0 14 48 62l200 196q66 66 123 66z" />
    <glyph glyph-name="uni03A9" unicode="&#x3a9;" horiz-adv-x="1609" 
d="M1509 334l-157 -334h-561l-7 49l40 45q39 44 47 53t46.5 54.5t52.5 64.5t49 64t51.5 72.5t44 72t44 79t34 77t28.5 82.5q38 134 41.5 234.5t-25.5 160.5t-81 89.5t-126 29.5q-329 0 -479 -520q-26 -92 -31 -184t12 -186.5t30.5 -145.5t41.5 -140l-33 -51h-565l43 334h68
q12 -85 37.5 -111t97.5 -26h199q-31 24 -55 44.5t-54.5 52t-51.5 62t-40 72.5t-26.5 85t-5 97.5t19.5 112.5q76 264 304 423t517 159q193 0 320.5 -69.5t170 -196t-5.5 -304.5q-20 -71 -63.5 -139t-92 -119.5t-119.5 -106.5t-126 -91t-131 -82h223q68 0 106 25t97 112h71z
" />
    <glyph glyph-name="uni03BC" unicode="&#x3bc;" horiz-adv-x="1392" 
d="M856 393l-6 2q-68 -99 -151.5 -181.5t-161 -134t-147.5 -80t-120 -28.5q-11 -27 -15 -64.5t-4.5 -83.5t-2.5 -65q-5 -92 -51 -146t-127 -54q-62 0 -90.5 30t-28.5 72q0 55 63.5 184t79.5 183q9 28 34.5 98t33.5 94q49 137 139 412q25 72 25 86q0 31 -23 31
q-36 0 -115 -99q-46 -54 -57 -61q-9 -6 -20 -6t-19 9t-8 23q0 21 22.5 59t65.5 83.5t96.5 86.5t126 68t144.5 27q22 0 46 -7t47 -30.5t23 -60.5q0 -48 -30 -131q-22 -69 -64.5 -200t-52.5 -161q-29 -72 -29 -115q0 -40 37 -40q38 0 111 62.5t125 145.5q132 194 217 449
q15 46 28.5 58t51.5 14h198q43 0 43 -23q0 -13 -14 -53q-70 -228 -141 -459q-33 -119 -33 -147q0 -37 26 -37t67 45.5t71 91.5q32 39 41 44q7 3 16 3q31 0 31 -31q0 -32 -42.5 -95t-107.5 -128t-158 -113.5t-180 -48.5q-46 0 -70 25t-24 70q0 64 76 302q5 17 8 25z" />
    <glyph glyph-name="pi" unicode="&#x3c0;" horiz-adv-x="1261" 
d="M1294 934l58 -19q-27 -64 -75.5 -140.5t-80.5 -102.5q-60 -13 -141 -13q-44 -116 -115 -366q-44 -160 43 -160q40 0 100 37l11 -59q-58 -60 -142.5 -98t-156.5 -38q-103 0 -146 58t-2 200q16 60 37 125t34 104t37.5 109t32.5 93q-254 4 -266 4l-4 -21q-35 -122 -77 -228
t-77.5 -173t-70.5 -120.5t-57 -78.5t-37 -37q-96 -29 -154 -35l-6 45q136 126 237.5 311.5t145.5 340.5q-87 1 -147.5 -16t-143.5 -60l-18 61q88 85 120 110q134 102 314 103h8q79 0 283.5 -3t306.5 -3q48 0 80.5 15t68.5 55z" />
    <glyph glyph-name="endash" unicode="&#x2013;" horiz-adv-x="1024" 
d="M104 555h906q28 0 28 -16q0 -11 -12 -47l-29 -89q-6 -20 -14 -26t-31 -6h-905q-29 0 -29 14q0 10 13 49l28 88q6 21 14 27t31 6z" />
    <glyph glyph-name="emdash" unicode="&#x2014;" horiz-adv-x="2048" 
d="M104 555h1930q28 0 28 -16q0 -11 -12 -47l-29 -89q-6 -20 -14 -26t-31 -6h-1929q-29 0 -29 14q0 10 13 49l28 88q6 21 14 27t31 6z" />
    <glyph glyph-name="quoteleft" unicode="&#x2018;" horiz-adv-x="585" 
d="M606 999v-2q0 -68 -54.5 -119t-129.5 -51q-68 0 -109 45t-41 113q0 72 43 150.5t101 135t114.5 93.5t85.5 37q18 0 30.5 -10t12.5 -23q0 -15 -16.5 -30.5t-48.5 -39t-53 -45.5q-37 -37 -69 -84t-32 -63q0 -14 13 -14q1 0 17.5 5t33.5 5q48 0 75 -32t27 -71z" />
    <glyph glyph-name="quoteright" unicode="&#x2019;" horiz-adv-x="585" 
d="M334 1133v2q0 67 55 118.5t129 51.5q67 0 108.5 -46t41.5 -114q0 -72 -43 -150.5t-101 -135t-114.5 -93.5t-85.5 -37q-18 0 -29.5 10t-11.5 23q0 15 16 30.5t47.5 39t52.5 45.5q36 36 68.5 84.5t32.5 62.5t-13 14q-1 0 -17.5 -5t-33.5 -5q-49 0 -75.5 32.5t-26.5 72.5z
" />
    <glyph glyph-name="quotesinglbase" unicode="&#x201a;" horiz-adv-x="585" 
d="M23 76v2q0 67 55 117.5t129 50.5q67 0 108 -45t41 -113q0 -72 -43 -150.5t-100.5 -135t-113.5 -93.5t-85 -37q-19 0 -31 10t-12 23q0 16 18 32.5t51 41.5t54 49q34 37 65 82t31 59q0 15 -12 15q-6 0 -20 -7q-30 -6 -33 -6q-48 0 -75 33t-27 72z" />
    <glyph glyph-name="quotedblleft" unicode="&#x201c;" horiz-adv-x="1030" 
d="M606 999v-2q0 -68 -54.5 -119t-129.5 -51q-68 0 -109 45t-41 113q0 72 43 150.5t101 135t114.5 93.5t85.5 37q18 0 30.5 -10t12.5 -23q0 -15 -16.5 -30.5t-48.5 -39t-53 -45.5q-37 -37 -69 -84t-32 -63q0 -14 13 -14q1 0 17.5 5t33.5 5q48 0 75 -32t27 -71zM1051 999v-2
q0 -68 -55 -119t-130 -51q-68 0 -109.5 45.5t-41.5 112.5q0 72 43 150.5t101 135t114.5 93.5t85.5 37q19 0 31 -10t12 -23q0 -15 -16 -30.5t-48 -39t-53 -45.5q-37 -37 -68.5 -84t-31.5 -63q0 -14 12 -14q1 0 17.5 5t33.5 5q47 0 75 -32.5t28 -70.5z" />
    <glyph glyph-name="quotedblright" unicode="&#x201d;" horiz-adv-x="1030" 
d="M334 1133v2q0 67 55 118.5t129 51.5q67 0 108.5 -46t41.5 -114q0 -72 -43 -150.5t-101 -135t-114.5 -93.5t-85.5 -37q-18 0 -29.5 10t-11.5 23q0 15 16 30.5t47.5 39t52.5 45.5q36 36 68.5 84.5t32.5 62.5t-13 14q-1 0 -17.5 -5t-33.5 -5q-49 0 -75.5 32.5t-26.5 72.5z
M778 1133v2q0 66 56 118t129 52q67 0 109 -46t42 -114q0 -72 -43 -150.5t-101 -135t-114.5 -93.5t-85.5 -37q-18 0 -30.5 10t-12.5 23q0 15 16 30.5t48 39t53 45.5q37 36 69.5 84t32.5 63q0 14 -14 14l-16 -5q-17 -5 -33 -5q-49 0 -77 32.5t-28 72.5z" />
    <glyph glyph-name="quotedblbase" unicode="&#x201e;" horiz-adv-x="1030" 
d="M23 74v2q0 68 54.5 119t129.5 51q67 0 108 -45t41 -113q0 -72 -43 -151t-100.5 -135.5t-113.5 -94t-85 -37.5q-19 0 -31 10.5t-12 24.5q0 15 18 31t50.5 41t54.5 49q33 36 64.5 82t31.5 59q0 15 -12 15q-6 0 -20 -7q-30 -6 -33 -6q-48 0 -75 33t-27 72zM467 74v2
q0 68 54.5 119t129.5 51q68 0 109 -45t41 -113q0 -58 -28.5 -121.5t-71.5 -114.5t-91 -93t-89 -65.5t-64 -23.5q-18 0 -29.5 10.5t-11.5 24.5q0 15 17.5 31t50 41t53.5 49q34 35 66 81.5t32 59.5q0 15 -12 15q-7 0 -21 -7q-30 -6 -33 -6q-49 0 -75.5 33t-26.5 72z" />
    <glyph glyph-name="dagger" unicode="&#x2020;" horiz-adv-x="1067" 
d="M352 -391h-63q51 187 82.5 376t31.5 306q0 64 -8 182q54 56 83 91.5t63 100t51 140.5q-74 -2 -130 -23.5t-99 -42t-87 -20.5q-51 0 -78.5 31t-27.5 79q0 49 31.5 82t83.5 33q16 0 30.5 -2t29.5 -8t22 -9t25 -12.5t22 -11.5q80 -45 184 -45q14 65 14 117q0 45 -13 107
t-13 87q0 68 35 106t92 38q54 0 84 -29.5t30 -77.5q0 -36 -22.5 -76t-51 -72.5t-58 -86.5t-40.5 -113q96 2 187 45q92 43 133 43q56 0 81 -28t25 -89q0 -46 -37 -77t-86 -31q-33 0 -67 13.5t-60.5 29.5t-75.5 29.5t-108 13.5q-22 -83 -22 -168q0 -106 49 -174
q-76 -121 -173.5 -372.5t-148.5 -481.5z" />
    <glyph glyph-name="daggerdbl" unicode="&#x2021;" horiz-adv-x="1067" 
d="M1073 834v-3q0 -50 -34 -81t-85 -31q-32 0 -64 14t-57 31t-73 31t-107 14q-20 -88 -20 -186q0 -82 35 -168q-83 -94 -134 -172t-73 -170q59 0 117 22t106.5 44t85.5 22q51 0 80 -29.5t29 -83.5q0 -45 -35 -79t-86 -34q-36 0 -64.5 11.5t-48 25.5t-70 29t-124.5 20
q-17 -70 -17 -122t9.5 -107t9.5 -84q0 -66 -37.5 -102.5t-100.5 -36.5q-50 0 -77 29.5t-27 78.5q0 37 22.5 76.5t51.5 71t61.5 85t48.5 111.5q-86 0 -178 -43q-7 -3 -34 -14.5t-37.5 -15.5t-29.5 -8.5t-34 -4.5q-49 0 -75.5 28t-26.5 79q0 48 30.5 83.5t83.5 35.5
q29 0 53.5 -9t46 -21.5t47 -25.5t68 -22t97.5 -10q20 105 20 194q0 75 -33 158q60 57 114.5 149.5t86.5 194.5q-62 0 -119 -21.5t-104 -43t-84 -21.5q-51 0 -79 30t-28 78q0 47 33 80t84 33q35 0 68 -13t57 -29t73 -29t113 -13q17 104 17 123q0 40 -11.5 98.5t-11.5 85.5
q0 64 37 104t92 40q51 0 82 -29t31 -76q0 -37 -24.5 -79.5t-55.5 -77t-61.5 -86.5t-40.5 -103q69 1 129 22t103 41.5t71 20.5q55 0 81.5 -30t26.5 -80z" />
    <glyph glyph-name="bullet" unicode="&#x2022;" horiz-adv-x="1122" 
d="M621 950h2q130 0 221.5 -92.5t91.5 -224.5q0 -130 -92 -222t-223 -92t-223.5 92t-92.5 222q-1 132 91.5 224.5t224.5 92.5z" />
    <glyph glyph-name="ellipsis" unicode="&#x2026;" horiz-adv-x="2048" 
d="M440 156v-2q0 -72 -54 -127.5t-134 -55.5q-69 0 -105 41t-36 101q0 65 52.5 121.5t129.5 56.5q64 0 105.5 -38t41.5 -97zM1122 156v-2q0 -72 -54 -127.5t-134 -55.5q-69 0 -105 41t-36 101q0 65 52.5 121.5t129.5 56.5q64 0 105.5 -38t41.5 -97zM1804 156v-2
q0 -72 -54 -127.5t-134 -55.5q-69 0 -105 41t-36 101q0 65 52.5 121.5t129.5 56.5q64 0 105.5 -38t41.5 -97z" />
    <glyph glyph-name="perthousand" unicode="&#x2030;" horiz-adv-x="2504" 
d="M297 -16v2q0 4 5 10.5t19.5 22.5t24.5 28l1002 1210q31 36 43 43t36 7h68q14 0 20.5 -0.5t10.5 -3.5t4 -9q0 -10 -41 -55l-1008 -1221q-28 -34 -40 -40.5t-40 -6.5h-69q-23 0 -29 2t-6 11zM606 1235h-2q-48 0 -91.5 -50.5t-70.5 -121.5t-43 -141t-16 -115q0 -123 86 -123
q49 0 93 50.5t70.5 122.5t42 141.5t15.5 115.5q0 121 -84 121zM1366 596h-2q-47 0 -90.5 -51t-71 -122.5t-43.5 -141.5t-16 -115q0 -123 86 -123q50 0 94 51t71 122.5t42.5 142t15.5 116.5q0 48 -19.5 84.5t-66.5 36.5zM477 612h-2q-131 0 -212 88t-81 211q0 98 55 189
t151 149t206 58q132 0 213.5 -87.5t81.5 -211.5q0 -98 -55.5 -189t-151.5 -149t-205 -58zM1239 -29h-2q-131 0 -212 88t-81 211q0 98 55 189.5t151 150t206 58.5q132 0 213.5 -88t81.5 -211q0 -99 -55.5 -190.5t-151.5 -149.5t-205 -58zM2036 -29h-2q-131 0 -212 88t-81 211
q0 98 54.5 189.5t150 150t204.5 58.5q132 0 213.5 -88t81.5 -211q0 -99 -54.5 -190.5t-150 -149.5t-204.5 -58zM2163 596h-2q-47 0 -91 -51t-71.5 -122t-43.5 -141.5t-16 -115.5q0 -123 86 -123q50 0 94.5 51t71.5 122.5t42.5 142t15.5 116.5q0 48 -19.5 84.5t-66.5 36.5z
" />
    <glyph glyph-name="guilsinglleft" unicode="&#x2039;" horiz-adv-x="456" 
d="M373 182h-144q-28 0 -43 8t-26 33l-74 158q-13 27 -29 45q-2 3 -6.5 7t-7 8t-2.5 8q0 9 22 20q21 11 50 45l141 160q22 25 41.5 33t48.5 8h148q22 0 22 -15q0 -14 -29 -14q-42 0 -92 -57l-125 -144q-24 -27 -49 -41q15 -15 23 -36l65 -140q16 -31 30.5 -44t45.5 -13
q23 0 23 -14q0 -15 -33 -15z" />
    <glyph glyph-name="guilsinglright" unicode="&#x203a;" horiz-adv-x="456" 
d="M113 715h143q28 0 43.5 -8t26.5 -33l73 -158q16 -32 29 -45q2 -3 6.5 -7t7 -7.5t2.5 -7.5q0 -10 -22 -21q-19 -10 -49 -45l-142 -160q-22 -26 -41 -33.5t-49 -7.5h-147q-23 0 -23 15q0 14 29 14q45 0 92 57l125 142q28 31 49 43q-11 8 -22 34l-66 142q-16 31 -30.5 44
t-45.5 13q-13 0 -17.5 2.5t-4.5 11.5q0 15 33 15z" />
    <glyph glyph-name="fraction" unicode="&#x2044;" horiz-adv-x="321" 
d="M-391 -16v2q0 4 5 10.5t19.5 22.5t24.5 28l1001 1210q31 35 43.5 42.5t36.5 7.5h66q21 0 28 -2t7 -11q0 -3 -2 -7t-6 -10t-8 -10.5t-11.5 -13t-11.5 -14.5l-1010 -1221q-28 -34 -40 -40.5t-38 -6.5h-69q-23 0 -29 2t-6 11z" />
    <glyph glyph-name="Euro" unicode="&#x20ac;" horiz-adv-x="1146" 
d="M956 461h-366q-6 -40 -4 -86t7 -91.5t21.5 -87.5t40.5 -74t63.5 -51.5t90.5 -19.5q69 0 125 54.5t96 144.5q1 3 9 21.5t11 25t12 21t16.5 20.5t19.5 12t26 6t25 -9.5t8 -31.5q0 -1 -22 -76.5t-27 -99.5q-13 -60 -28 -76.5t-70 -35.5q-67 -24 -153 -39t-157 -15
q-141 0 -241.5 65.5t-146.5 175.5t-38 247h-79q-10 0 -18 0.5t-18.5 3t-15 7t-7 12t4.5 18.5l23 39q10 16 19 21t38 5h72q18 85 51 152h-108q-10 0 -17.5 0.5t-18 2.5t-14.5 6.5t-7 12t5 19.5l21 39q8 16 18 21t39 5h139q131 210 347 351t430 141q127 0 168 -23
q21 -14 18 -45q0 -17 -12 -59l-29 -109q-4 -17 -6.5 -25t-8 -22.5t-11 -21.5t-15 -13t-20.5 -6q-22 0 -33 22t-10 49t1 50q1 7 1 10q5 125 -72 125q-114 0 -241 -123t-214 -301h430q13 0 22.5 -1t21 -5.5t12.5 -12.5t-4 -22l-21 -36q-10 -19 -19 -24t-38 -5h-451
q-29 -81 -43 -152h379q12 0 21.5 -1t21 -5.5t12.5 -12.5t-4 -22l-22 -39q-10 -17 -18.5 -21.5t-37.5 -4.5z" />
    <glyph glyph-name="afii61289" unicode="&#x2113;" horiz-adv-x="956" 
d="M829 285l35 -47q-229 -265 -481 -265q-161 0 -219 80q-19 30 -26.5 61.5t-2.5 91.5t29 146l26 92l-145 -73l-10 65l182 103l72 245q58 205 111 309t141 181q144 127 288 127q59 0 97.5 -23t54 -62.5t15 -87.5t-16.5 -102q-43 -155 -159 -277.5t-328 -262.5l-41 -142
q-47 -170 -25.5 -243.5t117.5 -73.5q124 0 286 158zM582 899l-58 -201q112 96 184.5 194t110.5 232q24 70 19.5 134.5t-50.5 64.5q-54 0 -94 -86.5t-112 -337.5z" />
    <glyph glyph-name="trademark" unicode="&#x2122;" horiz-adv-x="1961" 
d="M242 1112h-52v164h672v-164h-51q-18 113 -111 113h-86v-557q0 -53 14 -67.5t81 -18.5v-52h-365v52q65 4 77.5 18t12.5 68v557h-82q-50 0 -77 -31t-33 -82zM930 1276h270l252 -512l258 512h240v-51q-60 -3 -78.5 -22.5t-18.5 -65.5v-482q0 -45 14 -57t77 -16v-52h-363v52
q66 4 79 15.5t13 57.5v408h-4l-266 -533h-27l-256 533h-4v-354q0 -74 16.5 -98.5t79.5 -28.5v-52h-245v52q60 4 74 26.5t14 100.5v421q-4 41 -42 68t-83 29v49z" />
    <glyph glyph-name="Omega" unicode="&#x2126;" horiz-adv-x="1609" 
d="M1509 334l-157 -334h-561l-7 49l40 45q39 44 47 53t46.5 54.5t52.5 64.5t49 64t51.5 72.5t44 72t44 79t34 77t28.5 82.5q38 134 41.5 234.5t-25.5 160.5t-81 89.5t-126 29.5q-329 0 -479 -520q-26 -92 -31 -184t12 -186.5t30.5 -145.5t41.5 -140l-33 -51h-565l43 334h68
q12 -85 37.5 -111t97.5 -26h199q-31 24 -55 44.5t-54.5 52t-51.5 62t-40 72.5t-26.5 85t-5 97.5t19.5 112.5q76 264 304 423t517 159q193 0 320.5 -69.5t170 -196t-5.5 -304.5q-20 -71 -63.5 -139t-92 -119.5t-119.5 -106.5t-126 -91t-131 -82h223q68 0 106 25t97 112h71z
" />
    <glyph glyph-name="estimated" unicode="&#x212e;" horiz-adv-x="1859" 
d="M1796 618h-1198q-10 0 -10 -8v-362q0 -22 16 -41q88 -93 205 -145t248 -52q141 0 264 58.5t213 162.5h106q-100 -119 -254 -188.5t-331 -69.5q-201 0 -371.5 89t-269.5 242t-99 333q0 136 58.5 259.5t158 213t236.5 142.5t287 53q152 0 289.5 -53t236 -142.5t157 -213
t58.5 -259.5v-19zM1524 666v366q0 26 -17 43q-90 89 -205.5 139t-244.5 50t-246 -52t-205 -143q-18 -18 -18 -45v-358q0 -2 3 -6.5t7 -4.5h920q6 0 6 11z" />
    <glyph glyph-name="partialdiff" unicode="&#x2202;" horiz-adv-x="1181" 
d="M676 821h2q76 0 139.5 -32t87.5 -89q45 96 80 205q55 174 31 287q-15 59 -60.5 94t-111.5 35q-137 0 -361 -147q-21 -1 -40 33.5t-21.5 75.5t18.5 75q56 24 93.5 37.5t105 26t141.5 12.5q308 0 398 -273q23 -68 26 -151t-7 -149.5t-28 -129.5q-77 -276 -243 -469
q-240 -289 -557 -289q-186 0 -267 108.5t-30 287.5q53 187 219 317q173 135 385 135zM723 719h-2q-121 0 -221 -105q-124 -136 -187 -354q-30 -92 -6.5 -150.5t96.5 -58.5q109 0 248 185q62 81 107.5 163.5t99.5 204.5q-11 46 -45 80.5t-90 34.5z" />
    <glyph glyph-name="Delta" unicode="&#x2206;" horiz-adv-x="1398" 
d="M1202 0h-1247l20 74l893 1200l140 31l217 -1231zM895 127l-135 860l-621 -860h756z" />
    <glyph glyph-name="product" unicode="&#x220f;" horiz-adv-x="1781" 
d="M1724 1315v-68q-47 -4 -75.5 -7.5t-51.5 -13t-33.5 -19t-17.5 -31.5t-8.5 -44t-1.5 -63v-965q0 -44 1.5 -68.5t9 -47t18 -33t34 -19.5t50.5 -12.5t75 -7.5v-70h-634v70q44 3 67 6t44.5 12t29 18t14 33t7.5 48t1 71v1053q0 46 -13 57t-62 11h-324q-46 0 -58 -11t-12 -53
v-1057q0 -46 0.5 -69t6.5 -47.5t13.5 -33.5t26.5 -19t41.5 -13t61.5 -6v-70h-621v70q46 4 73 7.5t50.5 13t34 20t18.5 33t9.5 47.5t1.5 67v965q0 41 -1.5 64t-9.5 44t-19 31t-35 19t-52.5 12.5t-77.5 7.5v68h1419z" />
    <glyph glyph-name="summation" unicode="&#x2211;" horiz-adv-x="1466" 
d="M1419 272l-102 -440h-1012v72l451 598l-437 739v74h996q9 -163 26 -359l-71 -18q-39 148 -84 217q-18 31 -36.5 45.5t-61 23.5t-117.5 9h-314l332 -567l-454 -613h507q53 0 80 1t58 10.5t46 21.5t37.5 42.5t39.5 66t45 98.5z" />
    <glyph glyph-name="minus" unicode="&#x2212;" horiz-adv-x="1202" 
d="M1165 420h-1032v196h1032v-196z" />
    <glyph glyph-name="uni2215" unicode="&#x2215;" horiz-adv-x="321" 
d="M-391 -16v2q0 4 5 10.5t19.5 22.5t24.5 28l1001 1210q31 35 43.5 42.5t36.5 7.5h66q21 0 28 -2t7 -11q0 -3 -2 -7t-6 -10t-8 -10.5t-11.5 -13t-11.5 -14.5l-1010 -1221q-28 -34 -40 -40.5t-38 -6.5h-69q-23 0 -29 2t-6 11z" />
    <glyph glyph-name="uni2219" unicode="&#x2219;" horiz-adv-x="608" 
d="M510 543v-2q0 -70 -54.5 -126.5t-133.5 -56.5q-71 0 -106.5 40.5t-35.5 101.5q0 65 52.5 122.5t129.5 57.5q65 0 106.5 -38.5t41.5 -98.5z" />
    <glyph glyph-name="radical" unicode="&#x221a;" horiz-adv-x="1417" 
d="M1403 1638l-359 -1925l-67 -28l-445 1009l-180 -82l-28 82l389 180l307 -733h4l274 1518z" />
    <glyph glyph-name="infinity" unicode="&#x221e;" horiz-adv-x="1644" 
d="M1554 532v-2q0 -156 -95.5 -250t-225.5 -94q-88 0 -173 48t-175 169q-56 -69 -103 -112.5t-113.5 -74t-140.5 -30.5q-127 0 -220 94t-93 240q0 149 95 244.5t237 95.5q103 0 186 -53t164 -156q2 2 29 32t33.5 37t33.5 33.5t41 35.5l42 27t51 25t53.5 13t62.5 6
q132 -2 221.5 -92t89.5 -236zM547 338h2q37 0 72.5 14.5t69.5 44t57 54t55 63.5q-73 99 -105 131q-71 68 -157 68q-75 0 -123 -53.5t-49 -139.5q0 -75 51.5 -128.5t126.5 -53.5zM1229 713h-2q-21 0 -42 -6t-36.5 -12.5t-36.5 -22.5t-31.5 -24.5t-31.5 -31.5t-26.5 -29.5
t-27 -32.5t-22.5 -28q85 -109 140.5 -148.5t123.5 -39.5q72 0 117 57.5t45 124.5q0 84 -47 138.5t-123 54.5z" />
    <glyph glyph-name="integral" unicode="&#x222b;" horiz-adv-x="1087" 
d="M586 -27l-41 744q-5 134 -2.5 242t19.5 193t38 149t51.5 110t60.5 76t66 48t66.5 25t62.5 7q58 0 107 -31.5t49 -83.5q0 -57 -35 -89t-82 -32q-26 0 -45.5 20.5t-28.5 45t-21 45t-26 20.5q-20 0 -32 -21t-19 -84.5t0 -178.5l37 -701q11 -191 -4 -344t-49.5 -252
t-85.5 -165t-108.5 -94t-123.5 -28q-64 0 -109.5 34.5t-45.5 84.5q-1 52 44 89.5t97 37.5q23 0 39 -22.5t23.5 -49t18.5 -49t25 -22.5q70 0 54 276z" />
    <glyph glyph-name="approxequal" unicode="&#x2248;" horiz-adv-x="1257" 
d="M1079 864l107 -104q-61 -93 -136.5 -145t-152.5 -52q-60 0 -106 17t-123 59q-34 21 -55 31.5t-53 20t-64 9.5q-60 0 -105.5 -35t-95.5 -100l-105 105q47 82 134.5 138t179.5 56q44 0 85.5 -11t66 -23t59.5 -33q51 -31 69 -41t47 -19.5t58 -9.5q54 0 98 34t92 103z
M1079 494l107 -105q-128 -194 -293 -194q-58 0 -107.5 17.5t-117.5 55.5q-37 22 -58 33t-52 21t-60 10q-62 0 -107 -35t-96 -102l-105 104q48 83 135 139t179 56q44 0 85.5 -11.5t65 -23t58.5 -31.5q9 -5 33 -20t35 -21t30.5 -15t37.5 -12.5t38 -3.5q56 0 98 32.5t94 105.5z
" />
    <glyph glyph-name="notequal" unicode="&#x2260;" horiz-adv-x="1300" 
d="M1012 967l-74 -162h268v-160h-336l-112 -248h448v-159h-516l-102 -224l-129 58l76 166h-267v159h334l111 248h-445v160h512l101 219z" />
    <glyph glyph-name="lessequal" unicode="&#x2264;" horiz-adv-x="1357" 
d="M1262 213l-928 422v172l928 420v-180l-758 -324v-4l758 -324v-182zM1266 -18h-938v163h938v-163z" />
    <glyph glyph-name="greaterequal" unicode="&#x2265;" horiz-adv-x="1359" 
d="M334 1227l930 -420v-174l-928 -420v180l756 326v4l-758 324v180zM1257 -18h-927v163h927v-163z" />
    <glyph glyph-name="lozenge" unicode="&#x25ca;" horiz-adv-x="1464" 
d="M1378 621l-422 -764h-196l-418 764l424 772h192zM1188 621l-324 610h-8l-326 -608l328 -615h6z" />
    </font>
</defs>
</svg>
